<svg id="Capa_1" enable-background="new 0 0 512 512" height="512" viewBox="0 0 512 512" width="512" xmlns="http://www.w3.org/2000/svg"><g><path d="m273.396 504.389h-34.673c-4.957 0-8.975-4.018-8.975-8.975v-137.678h52.622v137.678c.001 4.956-4.017 8.975-8.974 8.975z" fill="#e19974"/><path d="m179.998 357.431c-41.795-.09-75.605-33.987-75.515-75.711.141-3.033.507-6.713-2.783-8.235-24.507-12.546-41.262-38.028-41.199-67.408.062-28.928 16.407-54.017 40.354-66.658 3.436-1.67 2.73-5.638 2.692-8.798.09-41.724 34.044-75.475 75.84-75.385h.04c2.312.006 4.349-1.45 5.082-3.641 10.052-30.038 38.472-51.667 71.935-51.595s61.79 21.823 71.713 51.905c.724 2.194 2.754 3.659 5.066 3.663h.04c41.795.09 75.605 33.987 75.515 75.711-.052 3.158-.774 7.127 2.654 8.809 23.892 12.744 40.129 37.903 40.067 66.832-.063 29.38-16.928 54.789-41.489 67.23-3.298 1.51-2.946 5.188-2.819 8.223-.09 41.724-34.044 75.475-75.84 75.385z" fill="#ade194"/><path d="m277.706 356.736h-19.521-28.436v22.241c.003.003.005 11.169.009 11.172 6.788.056 13.247-1.307 19.105-3.808 4.417-1.886 9.323 1.345 9.323 6.145v102.931c0 4.955 4.02 8.972 8.978 8.972h6.23c4.958 0 8.978-4.017 8.978-8.972v-138.681z" fill="#d77f4a"/><path d="m411.433 140.088c-3.429-1.685-2.705-5.649-2.654-8.809.069-31.961-19.764-59.309-47.83-70.408.136 3.353.224 6.717.224 10.103 0 135.36-109.808 245.09-245.264 245.09-1.087 0-2.167-.027-3.251-.041 12.466 24.511 37.914 41.343 67.339 41.407l151.355.327c41.795.09 75.75-33.661 75.84-75.385-.128-3.034-.478-6.716 2.819-8.223 24.561-12.44 41.426-37.849 41.489-67.23.062-28.927-16.175-54.086-40.067-66.831z" fill="#80d261"/><g><path d="m353.63 512h-195.141c-4.207 0-7.617-3.408-7.617-7.612s3.41-7.611 7.617-7.611h195.141c4.207 0 7.617 3.408 7.617 7.611 0 4.204-3.41 7.612-7.617 7.612z" fill="#d9e7ec"/></g></g></svg>