<svg id="Capa_1" enable-background="new 0 0 512 512" height="512" viewBox="0 0 512 512" width="512" xmlns="http://www.w3.org/2000/svg"><g><path d="m230.206 361.486h51.588v142.902h-51.588z" fill="#e19974"/><path d="m276.301 361.486h-18.877-27.218v45.972l.009.009c1.73.015 3.438-.067 5.119-.24 11.775-1.211 22.09 7.779 22.09 19.61v77.551h24.371v-142.902z" fill="#d77f4a"/><path d="m351.59 512h-191.181c-4.206 0-7.616-3.408-7.616-7.612s3.41-7.611 7.616-7.611h191.181c4.206 0 7.616 3.408 7.616 7.612 0 4.203-3.409 7.611-7.616 7.611z" fill="#d9e7ec"/><path d="m348.662 140.584c5.104-12.18 7.898-25.565 7.833-39.61-.254-55.029-45.059-100.213-100.144-100.964-56.743-.774-102.985 44.94-102.985 101.443 0 14.273 2.954 27.855 8.281 40.174 2.937 6.793 1.78 14.689-3.19 20.176-20.748 22.908-33.523 53.158-33.946 86.383-.92 72.128 57.41 132.045 129.618 133.048 73.482 1.021 133.371-58.174 133.371-131.341 0-34.575-13.378-66.024-35.24-89.478-4.968-5.329-6.413-13.114-3.598-19.831z" fill="#7acaa6"/><path d="m352.26 160.415c-4.967-5.329-6.412-13.114-3.598-19.831 5.104-12.18 7.898-25.565 7.833-39.61-.22-47.572-33.737-87.78-78.405-98.291 27.483 34.495 43.914 78.176 43.914 125.697 0 101.145-74.396 184.921-171.481 199.657 23.647 31.726 61.233 52.608 103.606 53.197 73.482 1.021 133.371-58.174 133.371-131.341 0-34.575-13.378-66.024-35.24-89.478z" fill="#57be92"/></g></svg>