<svg id="Capa_1" enable-background="new 0 0 512 512" height="512" viewBox="0 0 512 512" width="512" xmlns="http://www.w3.org/2000/svg"><g><path d="m228.783 304.691h54.435v199.697h-54.435z" fill="#e19974"/><path d="m258.835 304.691v43.576c-5.469-3.63-12.031-5.75-19.09-5.75-3.833 0-7.517.633-10.962 1.785v65.442c3.446 1.151 7.129 1.785 10.962 1.785.774 0 1.542-.026 2.304-.076 9.091-.599 16.786 6.616 16.786 15.717v77.219h24.383v-199.698z" fill="#d77f4a"/><g><path d="m356.931 512h-201.863c-4.208 0-7.62-3.408-7.62-7.612s3.411-7.611 7.62-7.611h201.863c4.208 0 7.62 3.408 7.62 7.611 0 4.204-3.411 7.612-7.62 7.612z" fill="#d9e7ec"/></g><path d="m436.934 194.408c-1.487-1.522-1.493-3.927-.017-5.459 7.56-7.848 11.391-19.048 9.349-30.573-2.059-11.617-9.611-20.893-19.528-25.663-1.917-.922-2.745-3.178-1.884-5.122 4.405-9.947 4.156-21.774-1.726-31.909-5.931-10.219-16.221-16.367-27.185-17.472-2.113-.213-3.661-2.047-3.52-4.164.722-10.849-3.578-21.88-12.592-29.404-9.089-7.587-20.877-9.862-31.561-7.166-2.055.519-4.133-.673-4.727-2.706-3.049-10.445-10.884-19.353-21.945-23.358-11.15-4.037-23.01-2.163-32.124 4.007-1.753 1.186-4.11.777-5.363-.927-6.454-8.784-16.883-14.492-28.657-14.492-11.864 0-22.363 5.795-28.806 14.691-1.241 1.713-3.596 2.135-5.357.961-9.086-6.059-20.85-7.876-31.915-3.869-11.145 4.036-19.017 13.048-22.015 23.596-.579 2.037-2.651 3.24-4.71 2.735-10.62-2.601-22.298-.305-31.318 7.225-9.082 7.582-13.381 18.724-12.576 29.653.156 2.116-1.382 3.958-3.494 4.186-10.87 1.172-21.05 7.302-26.936 17.444-5.927 10.213-6.137 22.143-1.626 32.137.874 1.938.058 4.198-1.852 5.133-9.806 4.802-17.26 14.023-19.303 25.552-2.058 11.614 1.846 22.897 9.521 30.754 1.487 1.522 1.493 3.927.017 5.459-7.56 7.848-11.391 19.048-9.349 30.573 2.059 11.617 9.611 20.893 19.528 25.663 1.917.922 2.745 3.178 1.884 5.122-4.405 9.947-4.156 21.774 1.726 31.909 5.931 10.219 16.221 16.367 27.185 17.472 2.113.213 3.661 2.047 3.52 4.164-.722 10.849 3.578 21.88 12.592 29.404 9.089 7.587 20.877 9.862 31.561 7.166 2.055-.519 4.133.673 4.727 2.706 3.049 10.445 10.884 19.353 21.945 23.358 11.15 4.038 23.01 2.163 32.124-4.007 1.753-1.186 4.11-.777 5.363.927 6.455 8.783 16.883 14.491 28.658 14.491 11.864 0 22.363-5.795 28.806-14.691 1.241-1.713 3.596-2.135 5.357-.961 9.086 6.059 20.85 7.876 31.915 3.869 11.145-4.035 19.017-13.048 22.015-23.596.579-2.037 2.651-3.24 4.71-2.735 10.62 2.601 22.298.305 31.318-7.225 9.082-7.582 13.381-18.724 12.576-29.653-.156-2.116 1.382-3.958 3.494-4.186 10.87-1.172 21.05-7.302 26.936-17.445 5.927-10.213 6.137-22.143 1.626-32.137-.874-1.938-.058-4.198 1.852-5.133 9.806-4.802 17.26-14.023 19.303-25.552 2.058-11.612-1.847-22.895-9.522-30.752z" fill="#5de1c4"/><path d="m436.934 194.408c-1.487-1.522-1.493-3.927-.017-5.459 7.56-7.849 11.391-19.048 9.349-30.573-2.059-11.617-9.611-20.893-19.528-25.663-1.917-.922-2.745-3.178-1.884-5.122 4.406-9.947 4.155-21.774-1.726-31.909-5.931-10.219-16.221-16.367-27.185-17.472-2.113-.213-3.661-2.047-3.52-4.164.722-10.849-3.578-21.88-12.592-29.404-4.567-3.812-9.815-6.281-15.262-7.454 7.979 22.836 12.331 47.372 12.331 72.926 0 122.188-99.159 221.241-221.479 221.241-10.869 0-21.551-.797-32.001-2.308 2.095 4.066 5.011 7.798 8.75 10.92 9.089 7.587 20.877 9.862 31.561 7.166 2.055-.519 4.133.673 4.727 2.706 3.049 10.445 10.884 19.353 21.945 23.358 11.15 4.038 23.01 2.163 32.124-4.007 1.753-1.186 4.11-.777 5.363.927 6.455 8.783 16.883 14.491 28.658 14.491 11.864 0 22.363-5.795 28.806-14.691 1.241-1.713 3.596-2.135 5.357-.961 9.086 6.059 20.85 7.876 31.916 3.869 11.145-4.035 19.017-13.048 22.015-23.596.579-2.037 2.651-3.24 4.71-2.735 10.62 2.601 22.298.305 31.318-7.225 9.082-7.582 13.381-18.724 12.576-29.652-.156-2.116 1.382-3.958 3.494-4.186 10.87-1.172 21.05-7.302 26.936-17.444 5.927-10.213 6.137-22.143 1.626-32.137-.875-1.938-.058-4.198 1.852-5.133 9.806-4.802 17.26-14.024 19.303-25.552 2.057-11.617-1.848-22.9-9.523-30.757z" fill="#0ed2b3"/></g></svg>