<svg id="Capa_1" enable-background="new 0 0 512 512" height="512" viewBox="0 0 512 512" width="512" xmlns="http://www.w3.org/2000/svg"><g><path d="m228.967 305.111h54.066v199.278h-54.066z" fill="#e19974"/><path d="m258.825 280.845v43.576c-5.451-3.63-11.989-5.75-19.024-5.75-3.82 0-7.491.633-10.924 1.785v65.442c3.434 1.151 7.104 1.785 10.924 1.785.771 0 1.537-.025 2.296-.076 9.06-.599 16.728 6.616 16.728 15.717v101.576h24.299v-224.055z" fill="#d77f4a"/><g><path d="m356.248 512h-200.496c-4.194 0-7.593-3.408-7.593-7.612s3.4-7.611 7.593-7.611h200.496c4.194 0 7.593 3.408 7.593 7.611.001 4.204-3.399 7.612-7.593 7.612z" fill="#d9e7ec"/></g><path d="m378 179.133c0 98.932-23.992 179.133-122.537 179.133s-121.463-80.2-121.463-179.133 22.917-179.133 121.463-179.133 122.537 80.201 122.537 179.133z" fill="#fea95c"/><path d="m192.216 300.403c-13.44 0-26.551-1.405-39.204-4.06 17.275 37.929 48.55 61.923 102.451 61.923 98.545 0 122.537-80.201 122.537-179.133 0-8.606-.187-17.066-.583-25.348-19.884 84.071-95.251 146.618-185.201 146.618z" fill="#fe860a"/></g></svg>