<svg id="Capa_1" enable-background="new 0 0 512 512" height="512" viewBox="0 0 512 512" width="512" xmlns="http://www.w3.org/2000/svg"><g><path d="m228.791 357.6h54.417v146.782h-54.417z" fill="#e19974"/><path d="m257.208 425.789v78.594h26v-95.793-50.99h-26-7.456c-6.771 3.736-13.765 7.117-20.961 10.112v42.874l14.017.393c8.018.225 14.4 6.789 14.4 14.81z" fill="#d77f4a"/><path d="m356.899 512h-201.798c-4.214 0-7.63-3.41-7.63-7.617s3.416-7.617 7.63-7.617h201.797c4.214 0 7.63 3.41 7.63 7.617.001 4.207-3.415 7.617-7.629 7.617z" fill="#d9e7ec"/><path d="m388 255.62c0 72.78-59.098 131.779-132 131.779s-132-59-132-131.779 59.098-255.62 132-255.62 132 182.84 132 255.62z" fill="#cb97e7"/><path d="m358.73 123.737c.83 7.642 1.27 15.401 1.27 23.263 0 108.708-81.44 198.388-186.635 211.376 22.62 18.153 51.354 29.023 82.635 29.023 72.902 0 132-59 132-131.779 0-31.346-10.963-83.107-29.27-131.883z" fill="#bd80e1"/></g></svg>