<svg id="Capa_1" enable-background="new 0 0 512 512" height="512" viewBox="0 0 512 512" width="512" xmlns="http://www.w3.org/2000/svg"><g><path d="m228.933 356h54.135v148.389h-54.135z" fill="#e19974"/><path d="m258.033 356h-1.397-27.447v52.484h7.221c11.171 0 20.227 9.041 20.227 20.193v75.712h26.431v-148.389z" fill="#d77f4a"/><g><path d="m356.376 512h-200.752c-4.211 0-7.624-3.408-7.624-7.612s3.413-7.611 7.624-7.611h200.751c4.211 0 7.624 3.408 7.624 7.611.001 4.204-3.412 7.612-7.623 7.612z" fill="#d9e7ec"/></g><path d="m256 387.267h-87.715c-11.71 0-20.302-11.831-17.462-24.045l49.793-214.118 29.651-127.503c6.698-28.802 44.77-28.802 51.468 0l29.651 127.503 49.793 214.118c2.84 12.214-5.752 24.045-17.462 24.045z" fill="#7acaa6"/><path d="m361.177 363.222-40.552-174.382c-21.381 82.433-86.184 147.404-168.589 169.162l-1.214 5.219c-2.84 12.214 5.752 24.045 17.462 24.045h87.716 87.715c11.71.001 20.303-11.831 17.462-24.044z" fill="#57be92"/></g></svg>