<svg id="Capa_1" enable-background="new 0 0 512 512" height="512" viewBox="0 0 512 512" width="512" xmlns="http://www.w3.org/2000/svg"><g><path d="m228.657 355.06h54.686v149.328h-54.686z" fill="#e19974"/><path d="m257.025 355.06h-28.368v51.188c5.485-.49 10.868-1.357 16.126-2.576 6.265-1.452 12.242 3.327 12.242 9.774v90.941h26.318v-117.217-32.11z" fill="#d77f4a"/><g><path d="m357.396 512h-202.792c-4.193 0-7.592-3.408-7.592-7.612s3.399-7.611 7.592-7.611h202.793c4.193 0 7.592 3.408 7.592 7.611-.001 4.204-3.399 7.612-7.593 7.612z" fill="#d9e7ec"/></g><path d="m379.955 117.995c-.933-20.27-16.836-36.403-36.32-36.403-12.718 0-23.904 6.878-30.404 17.289v-38.628c0-33.277-25.623-60.253-57.231-60.253-31.608 0-57.231 26.976-57.231 60.253v38.629c-6.5-10.411-17.686-17.289-30.404-17.289-19.484 0-35.388 16.133-36.32 36.403h-.045v1.883 82.22 46.445c0 72.1 55.517 130.548 124 130.548 68.483 0 124-58.448 124-130.548v-46.445-82.22-1.883h-.045z" fill="#fd8087"/><path d="m379.955 117.995c-.704-15.293-9.931-28.226-22.787-33.658.027 1.486.056 2.971.056 4.463 0 119.448-88.344 218.193-203.093 234.182 22.397 33.908 59.667 56.108 101.869 56.108 68.483 0 124-58.448 124-130.548v-46.445-82.22-1.883h-.045z" fill="#fe646f"/></g></svg>