<svg id="Capa_1" enable-background="new 0 0 512 512" height="512" viewBox="0 0 512 512" width="512" xmlns="http://www.w3.org/2000/svg"><g><path d="m228.522 353.57h54.957v150.662h-54.957z" fill="#e19974" transform="matrix(1 .002 -.002 1 .661 -.394)"/><path d="m228.637 353.528-.073 47.452c3.64.341 7.321.537 11.048.542h.179c9.574.001 17.385 7.65 17.37 17.244l-.132 85.468 26.332.041.232-150.661z" fill="#d77f4a"/><g><path d="m357.899 512c-.004 0-.008 0-.012 0l-203.797-.314c-4.194-.006-7.591-3.42-7.584-7.623.007-4.199 3.406-7.6 7.596-7.6h.012l203.797.314c4.194.006 7.591 3.42 7.584 7.623-.008 4.2-3.407 7.6-7.596 7.6z" fill="#d9e7ec"/></g><path d="m336.038 170.961c-3.269-2.975-4.803-7.455-3.864-11.779 1.152-5.305 1.764-10.811 1.773-16.461.036-23.718-10.538-44.966-27.237-59.265-4.006-3.43-5.33-9.094-3.369-13.995 2.316-5.787 3.597-12.101 3.607-18.716.043-27.982-22.589-50.702-50.549-50.745s-50.662 22.607-50.705 50.59c-.01 6.615 1.251 12.932 3.549 18.727 1.946 4.907.604 10.566-3.412 13.984-16.742 14.247-27.382 35.462-27.419 59.18-.009 5.649.587 11.158 1.722 16.466.926 4.327-.622 8.802-3.9 11.767-24.046 21.752-39.18 53.193-39.233 88.187-.101 65.774 53.095 119.177 118.817 119.279 65.722.101 119.082-53.137 119.183-118.912.053-34.994-14.984-66.482-38.963-88.307z" fill="#cb97e7"/><path d="m336.038 170.961c-3.269-2.975-4.804-7.455-3.865-11.779 1.152-5.305 1.764-10.811 1.773-16.461.024-15.116-4.269-29.225-11.704-41.175-7.101 101.322-77.895 185.022-172.52 211.163 19.574 38.779 59.713 65.4 106.095 65.471 65.721.101 119.082-53.137 119.183-118.912.054-34.994-14.983-66.482-38.962-88.307z" fill="#bd80e1"/></g></svg>