<svg id="Capa_1" enable-background="new 0 0 504.5 504.5" height="512" viewBox="0 0 504.5 504.5" width="512" xmlns="http://www.w3.org/2000/svg"><g><path d="m231.419 349.959h41.649v146.888h-41.649z" fill="#e19974" transform="matrix(1 .002 -.002 1 .652 -.388)"/><path d="m231.533 349.927-.119 77.197c.805.021 1.611.037 2.42.04.954.004 1.906-.005 2.855-.027 2.915-.066 5.788-.262 8.613-.581 4.141-.467 7.757 2.787 7.751 6.954l-.098 63.338 20 .031.227-146.888z" fill="#d77f4a"/><g><path d="m351.75 504.5c-.004 0-.008 0-.012 0l-199-.306c-4.142-.006-7.495-3.37-7.488-7.512.007-4.138 3.363-7.488 7.5-7.488h.012l199 .306c4.142.006 7.495 3.37 7.488 7.512-.007 4.137-3.363 7.488-7.5 7.488z" fill="#d9e7ec"/></g><path d="m251.834 401.164c-.918-.004-1.834-.019-2.747-.046-56.517-1.66-97.017-51.824-84.79-103.443l39.629-167.307 27.107-114.442c5.03-21.235 37.406-21.235 42.436 0l27.107 114.442 39.627 167.297c12.291 51.889-28.692 102.185-85.514 103.472-.95.022-1.901.031-2.855.027z" fill="#fd8087"/><path d="m340.203 297.665-25.602-108.084c-20.492 73.03-75.682 131.535-146.662 156.634 12.34 30.707 43.117 53.787 81.146 54.904.914.027 1.829.042 2.747.046.954.004 1.906-.005 2.855-.027 56.824-1.287 97.807-51.584 85.516-103.473z" fill="#fe646f"/></g></svg>