<svg id="Capa_1" enable-background="new 0 0 512 512" height="512" viewBox="0 0 512 512" width="512" xmlns="http://www.w3.org/2000/svg"><g><path d="m234.812 353.831h42.378v150.065h-42.378z" fill="#e19974" transform="matrix(1 .002 -.002 1 .663 -.395)"/><path d="m254.982 403.042-.155 100.853 22.247.034.159-103.812.009.003.062-40.167h-.009l.009-6.089-42.378-.065v.034l20.13.031-.009 6.055-20.121-.031-.062 40.197 11.193-3.592c4.419-1.418 8.932 1.894 8.925 6.549z" fill="#d77f4a"/><g><path d="m357.242 512c-.004 0-.008 0-.012 0l-202.482-.313c-4.189-.006-7.579-3.42-7.572-7.623.006-4.199 3.401-7.6 7.584-7.6h.012l202.482.313c4.189.006 7.579 3.42 7.572 7.623-.007 4.2-3.401 7.6-7.584 7.6z" fill="#d9e7ec"/></g><path d="m343.248 296.497 15.304 8.158c3.946 2.103 8.189-2.258 6-6.167l-48.416-86.452c-2.171-3.877 1.991-8.223 5.937-6.2l17.604 9.025c3.942 2.021 8.102-2.315 5.941-6.192l-46.818-83.976c-2.242-3.896 1.985-8.313 5.954-6.221l15.809 8.33c3.936 2.074 8.15-2.258 5.991-6.157l-37.25-67.258-29.428-51.142c-1.723-2.994-6.029-2.994-7.751 0l-29.429 51.141-37.25 67.258c-2.16 3.899 2.055 8.231 5.991 6.157l15.809-8.33c3.97-2.092 8.197 2.325 5.954 6.221l-46.818 83.975c-2.161 3.877 1.999 8.213 5.941 6.192l17.604-9.025c3.946-2.023 8.108 2.323 5.937 6.2l-48.417 86.454c-2.189 3.909 2.054 8.269 5.999 6.166l15.308-8.16c3.947-2.104 8.19 2.259 5.998 6.168l-53.163 94.809c-1.995 3.557 1.392 7.724 5.266 6.478l125.755-41.13c3.39-1.02 3.39-1.02 6.779 0l125.753 41.129c3.874 1.247 7.262-2.921 5.266-6.479l-53.161-94.805c-2.19-3.907 2.054-8.271 6.001-6.167z" fill="#ade194"/><path d="m390.409 397.471-53.161-94.805c-2.192-3.909 2.052-8.273 5.999-6.169l15.304 8.158c3.946 2.103 8.189-2.258 6-6.167l-48.416-86.452c-2.171-3.877 1.991-8.223 5.937-6.2l17.604 9.025c3.942 2.021 8.102-2.315 5.941-6.192l-26.636-47.776c-22.697 72.365-79.13 129.71-150.794 153.479l-46.598 83.101c-1.995 3.557 1.392 7.724 5.265 6.478l125.755-41.13c3.39-1.02 3.39-1.02 6.779 0l125.753 41.129c3.876 1.246 7.264-2.921 5.268-6.479z" fill="#80d261"/></g></svg>