<svg id="Capa_1" enable-background="new 0 0 512 512" height="512" viewBox="0 0 512 512" width="512" xmlns="http://www.w3.org/2000/svg"><g><path d="m210.366 290.914h91.267v212.366h-91.267z" fill="#e19974"/><path d="m210.367 290.738v75.136h18.414c16.908 0 30.615 13.695 30.615 30.588v106.819h42.237v-137.407-74.96-.177h-91.266z" fill="#d77f4a"/><g><path d="m355.628 511h-199.256c-4.267 0-7.726-3.456-7.726-7.719s3.459-7.719 7.726-7.719h199.257c4.267 0 7.726 3.456 7.726 7.719s-3.46 7.719-7.727 7.719z" fill="#d9e7ec"/></g><g><path d="m135.349 455.943c-16.145 0-29.28-13.126-29.28-29.26 0-4.263 3.459-7.719 7.726-7.719s7.726 3.456 7.726 7.719c0 7.621 6.203 13.821 13.827 13.821s13.827-6.2 13.827-13.821v-107.7c0-4.263 3.459-7.719 7.726-7.719s7.726 3.456 7.726 7.719v107.701c.002 16.133-13.133 29.259-29.278 29.259z" fill="#80d261"/></g><g><path d="m92.955 391.877c-13.715 0-24.872-11.15-24.872-24.855v-85.677c0-4.263 3.459-7.719 7.726-7.719s7.726 3.456 7.726 7.719v85.677c0 5.192 4.225 9.416 9.42 9.416 5.194 0 9.42-4.224 9.42-9.416 0-4.263 3.459-7.719 7.726-7.719s7.726 3.456 7.726 7.719c0 13.706-11.157 24.855-24.872 24.855z" fill="#80d261"/></g><g><path d="m416.212 391.877c-13.715 0-24.872-11.15-24.872-24.855 0-4.263 3.459-7.719 7.726-7.719s7.726 3.456 7.726 7.719c0 5.192 4.225 9.416 9.42 9.416 5.194 0 9.42-4.224 9.42-9.416v-85.677c0-4.263 3.459-7.719 7.726-7.719s7.726 3.456 7.726 7.719v85.677c.001 13.706-11.157 24.855-24.872 24.855z" fill="#80d261"/></g><g><path d="m376.651 455.943c-16.145 0-29.28-13.126-29.28-29.26v-107.7c0-4.263 3.459-7.719 7.726-7.719s7.726 3.456 7.726 7.719v107.701c0 7.621 6.203 13.821 13.827 13.821s13.827-6.2 13.827-13.821c0-4.263 3.459-7.719 7.726-7.719s7.726 3.456 7.726 7.719c.002 16.133-13.133 29.259-29.278 29.259z" fill="#80d261"/></g><path d="m473.849 204.727c-8.32-3.713-12.904-12.809-11.003-21.715 1.179-5.522 1.801-11.249 1.801-17.123 0-45.329-36.77-82.075-82.127-82.075-.777 0-1.551.011-2.322.033-7.952.226-15.238-4.532-18.391-11.83-18.042-41.773-59.606-71.017-108.027-71.017-47.996 0-89.276 28.726-107.572 69.912-3.148 7.087-10.312 11.437-18.071 11.424-.046 0-.092 0-.138 0-45.358 0-82.127 36.746-82.127 82.075 0 6.377.728 12.585 2.105 18.544 2.074 8.974-2.191 18.253-10.559 22.113-23.03 10.624-38.713 34.438-37.334 61.754 1.661 32.92 28.495 59.519 61.447 60.937 14.261.614 29.662-3.421 40.592-10.705 5.273-3.514 12.092-3.641 17.354-.111 10.235 6.866 20.426 10.877 33.68 10.877 15.929 0 34.742-3.666 45.979-13.246 5.826-4.967 14.278-4.967 20.104 0 11.237 9.58 21.572 13.246 37.501 13.246 13.256 0 25.569-4.012 35.805-10.881 5.198-3.488 11.978-3.488 17.176 0 10.236 6.868 22.549 10.881 35.805 10.881 15.6 0 29.898-3.433 41.036-12.662 5.838-4.838 14.183-4.85 20.02-.011 11.759 9.749 27.041 13.279 43.661 12.621 33.022-1.307 61.323-30.399 61.752-63.423.343-26.559-15.421-49.477-38.147-59.618z" fill="#ade194"/><path d="m473.849 204.727c-8.32-3.713-12.904-12.809-11.003-21.715 1.179-5.522 1.801-11.249 1.801-17.124 0-43.202-33.408-78.583-75.811-81.809-46.562 107.645-153.771 182.985-278.607 182.985-38.102 0-74.553-7.038-108.149-19.849-1.623 6.219-2.339 12.804-1.996 19.607 1.661 32.92 28.495 59.519 61.447 60.937 14.261.614 29.662-3.421 40.592-10.705 5.273-3.514 12.092-3.641 17.354-.111 10.235 6.866 20.426 10.877 33.68 10.877 15.929 0 34.742-3.666 45.979-13.246 5.826-4.967 14.278-4.967 20.104 0 11.237 9.58 21.572 13.246 37.501 13.246 13.256 0 25.569-4.012 35.805-10.881 5.198-3.488 11.978-3.488 17.176 0 10.236 6.868 22.549 10.881 35.805 10.881 15.6 0 29.897-3.433 41.036-12.662 5.838-4.838 14.183-4.85 20.02-.011 11.759 9.749 27.041 13.279 43.661 12.621 33.022-1.307 61.323-30.398 61.752-63.423.343-26.559-15.421-49.477-38.147-59.618z" fill="#80d261"/></g></svg>