<svg id="Capa_1" enable-background="new 0 0 512 512" height="512" viewBox="0 0 512 512" width="512" xmlns="http://www.w3.org/2000/svg"><g><path d="m340.452 333.751-25.932-23.862-40.052 51.818c-9.345 12.09-27.613 12.09-36.958 0l-40.052-51.818-25.932 23.862 55.795 76.413c2.912 3.989 4.482 8.797 4.482 13.734v80.491h44.69v-77.122c0-5.015 1.62-9.897 4.619-13.92z" fill="#e19974"/><g fill="#d77f4a"><path d="m314.52 309.889-40.052 51.818c-.084.109-.174.21-.26.317 1.491.932 2.932 1.978 4.301 3.152.028.024.056.048.084.072 4.625 3.946 5.512 10.734 1.879 15.607l-19.684 26.404c-2.999 4.023-4.619 8.905-4.619 13.92v77.122h-24.365v6.089h44.69v-77.122c0-5.015 1.62-9.897 4.619-13.92l59.34-79.596z"/><path d="m239.854 364.303c-.828-.795-1.616-1.655-2.344-2.597l-.089-.115-26.796-34.668-13.167-17.035-9.127 8.399.847 1.096c-.839.149-1.677.302-2.519.442l-15.133 13.925 31.238 42.782c5.82-.74 11.449-2.089 16.822-3.982z"/></g><g><path d="m353.968 512h-195.958c-4.209 0-7.622-3.408-7.622-7.612s3.412-7.611 7.622-7.611h195.958c4.209 0 7.622 3.408 7.622 7.611 0 4.204-3.412 7.612-7.622 7.612z" fill="#d9e7ec"/></g><path d="m442.979 197.367c.062-28.743-16.792-53.584-41.218-65.204.225-2.286.351-4.601.356-6.945.086-39.798-32.251-72.13-72.227-72.216-1.275-.003-2.542.029-3.801.091-8.351-30.533-36.349-53.021-69.675-53.093-33.325-.072-61.42 22.296-69.902 52.794-1.259-.068-2.526-.105-3.801-.108-39.976-.086-72.453 32.107-72.538 71.904-.005 2.344.112 4.659.326 6.946-24.476 11.515-41.437 36.283-41.499 65.026-.062 28.914 17.004 53.86 41.666 65.39-.105 1.698-.177 3.404-.177 5.128 0 45.184 36.681 81.813 81.929 81.813 9.592 0 18.796-1.651 27.349-4.679 4.585-1.623 8.823-4.095 12.567-7.197l.742-.615c13.26-10.986 32.517-10.835 45.603.356 3.893 3.329 8.338 5.984 13.181 7.658 8.386 2.897 17.386 4.477 26.759 4.477 33.14 0 61.663-19.66 74.566-47.927 4.72-9.544 7.39-20.275 7.414-31.63.002-1.111-.027-2.215-.079-3.313-.013-1.059-.027-2.119-.081-3.168 25.031-11.297 42.477-36.343 42.54-65.488z" fill="#fd8087"/><path d="m443 197.591c.101-28.743-16.719-53.607-41.129-65.26.228-2.286.358-4.6.366-6.944.066-18.697-7.029-35.754-18.713-48.602-9.515 122.037-111.774 218.024-236.385 217.854-11.092-.015-21.999-.809-32.683-2.298 10.684 32.716 41.443 56.385 77.777 56.434 9.592.013 18.798-1.626 27.355-4.641 4.587-1.617 8.828-4.083 12.576-7.18l.743-.614c13.275-10.968 32.531-10.791 45.602.418 3.888 3.334 8.33 5.995 13.171 7.676 8.382 2.909 17.38 4.5 26.753 4.513 33.14.045 61.69-19.576 74.632-47.825 4.733-9.537 7.418-20.265 7.458-31.62.004-1.111-.024-2.215-.075-3.313-.012-1.059-.024-2.119-.077-3.169 25.046-11.262 42.526-36.284 42.629-65.429z" fill="#fe646f"/></g></svg>