<svg id="Capa_1" enable-background="new 0 0 512 512" height="512" viewBox="0 0 512 512" width="512" xmlns="http://www.w3.org/2000/svg"><g><path d="m255.415 52.473c-42.551.316-76.587 35.678-76.587 78.341v101.218c0 32.603 20.115 60.493 48.581 71.884 3.531 1.413 5.801 4.896 5.801 8.708v191.765h45.582v-191.766c0-3.811 2.27-7.295 5.801-8.708 28.466-11.39 48.581-39.28 48.581-71.884v-102.188c-.002-42.927-34.87-77.688-77.759-77.37zm33.505 181.579c0 17.667-14.285 31.99-31.907 31.99-17.622 0-31.907-14.322-31.907-31.99v-42.251c0-17.667 14.285-31.99 31.907-31.99 17.622 0 31.907 14.322 31.907 31.99z" fill="#e19974"/><g fill="#d77f4a"><path d="m288.339 59.589c17.436 14.186 28.584 35.838 28.584 60.105v47.375c-8.912 7.417-18.371 14.198-28.32 20.26.204 1.462.317 2.954.317 4.473v42.251c0 7.129-2.328 13.711-6.26 19.029l9.976.031c8.372.026 13.167 9.659 8.033 16.267-8.36 10.762-19.494 19.252-32.327 24.387-3.531 1.413-5.801 4.896-5.801 8.708v201.914h16.249v-191.766c0-3.811 2.27-7.295 5.801-8.707 22.047-8.822 39.075-27.545 45.638-50.685 1.947-6.887 2.932-14.039 2.942-21.198v-79.796-22.393c.001-31.152-18.368-57.989-44.832-70.255z"/><path d="m225.106 214.204c-14.907 3.858-30.383 6.302-46.278 7.177v10.652c0 7.182.978 14.135 2.805 20.733l49.619.155c-3.861-5.29-6.146-11.811-6.146-18.868z"/></g><g><path d="m353.515 512h-195.03c-4.207 0-7.617-3.408-7.617-7.612s3.41-7.611 7.617-7.611h195.03c4.207 0 7.617 3.408 7.617 7.611 0 4.204-3.41 7.612-7.617 7.612z" fill="#d9e7ec"/></g><path d="m361.172 229.985c30.22.095 55.824-23.177 57.705-53.417.079-1.268.12-2.546.123-3.833.054-25.156-14.638-46.897-35.93-57.066.196-2.001.306-4.027.311-6.078.075-34.831-28.114-63.128-62.961-63.203-1.112-.002-2.216.026-3.314.08-7.279-26.723-31.686-46.405-60.736-46.468s-53.541 19.513-60.934 46.205c-1.097-.059-2.202-.092-3.313-.094-34.847-.075-63.157 28.1-63.232 62.931-.004 2.051.097 4.078.285 6.079-21.336 10.077-36.121 31.755-36.175 56.91-.001.633.007 1.263.024 1.891.845 30.916 26.615 55.308 57.462 55.404z" fill="#fea95c"/><path d="m383.07 115.669c.196-2.001.306-4.027.31-6.078.027-12.637-3.68-24.404-10.062-34.285-40.177 73.353-118.125 123.1-207.705 123.1-24.545 0-48.216-3.736-70.477-10.667 6.833 24.065 29.276 41.505 55.35 41.587l210.686.659c30.22.095 55.824-23.177 57.705-53.417.079-1.268.12-2.546.123-3.833.054-25.156-14.638-46.897-35.93-57.066z" fill="#fe860a"/></g></svg>