<svg id="Capa_1" enable-background="new 0 0 512 512" height="512" viewBox="0 0 512 512" width="512" xmlns="http://www.w3.org/2000/svg"><g><path d="m228.515 323.181h54.97v181.208h-54.97z" fill="#e19974"/><path d="m257.048 444.688v59.701h26.437v-73.863-107.345h-26.437-14.33c-4.615 3.278-9.351 6.395-14.204 9.343v98.422l16.133.765c6.943.328 12.401 6.041 12.401 12.977z" fill="#d77f4a"/><g><path d="m357.923 512h-203.846c-4.212 0-7.626-3.408-7.626-7.612s3.414-7.611 7.626-7.611h203.847c4.212 0 7.626 3.408 7.626 7.611-.001 4.204-3.415 7.612-7.627 7.612z" fill="#d9e7ec"/></g><path d="m233.968 15.313c9.925-20.225 34.246-20.464 44.439-.432 20.815 40.907 42.647 91.55 60.985 151.699 21.123 69.284 31.878 132.383 37.417 183.539 1.34 12.375-4.481 24.243-14.139 28.84-12.423 5.912-26.894 11.628-43.243 16.098-24.34 6.655-45.937 8.661-63.049 8.836-17.546.208-40.35-1.521-66.201-8.836-15.542-4.398-29.297-9.998-41.115-15.793-9.672-4.743-15.354-16.832-13.81-29.244 6.561-52.742 18.411-116.941 40.214-187.226 17.864-57.593 38.552-106.827 58.502-147.481z" fill="#5de1c4"/><path d="m376.809 350.119c-5.539-51.156-16.294-114.255-37.417-183.539-1.064-3.491-2.143-6.942-3.23-10.369-22.214 94.506-101.222 167.163-199.124 180.158-.635 4.628-1.231 9.184-1.787 13.65-1.544 12.412 4.138 24.501 13.81 29.244 11.818 5.795 25.573 11.395 41.115 15.793 25.852 7.315 48.655 9.044 66.201 8.836 17.112-.175 38.709-2.181 63.049-8.836 16.349-4.47 30.82-10.186 43.243-16.098 9.659-4.595 15.48-16.464 14.14-28.839z" fill="#0ed2b3"/></g></svg>