<svg id="Capa_1" enable-background="new 0 0 512 512" height="512" viewBox="0 0 512 512" width="512" xmlns="http://www.w3.org/2000/svg"><g><path d="m229.142 324.91h54.154v179.368h-54.154z" fill="#e19974" transform="matrix(1 -.001 .001 1 -.465 .288)"/><path d="m256.983 407.202.108 97.075 26.305-.03-.144-129.045-.056-50.322-26.305.03-27.849.031.056 50.322 7.616 2.816c12.167 4.498 20.254 16.118 20.269 29.123z" fill="#d77f4a"/><g><path d="m356.738 511.775-200.821.225c-4.191.005-7.592-3.399-7.596-7.601-.005-4.203 3.388-7.614 7.58-7.618l200.822-.225c4.191-.005 7.592 3.399 7.596 7.601s-3.389 7.613-7.581 7.618z" fill="#d9e7ec"/></g><path d="m255.756 0c-66.213.074-119.83 54.007-119.756 120.462l.219 195.945c.025 22.588 18.291 40.879 40.797 40.854 19.147-.021 35.186-13.296 39.535-31.165 4.389 17.86 20.458 31.098 39.605 31.076 19.147-.021 35.186-13.296 39.535-31.165 4.389 17.86 20.458 31.098 39.605 31.076 22.506-.025 40.731-18.357 40.705-40.945l-.219-195.945c-.075-66.455-53.812-120.267-120.026-120.193z" fill="#ade194"/><path d="m354.655 52.108c.21 4.044.319 8.115.323 12.21.139 124.937-96.386 227.333-218.778 236.06l.018 16.029c.025 22.588 18.29 40.879 40.797 40.854 19.147-.021 35.186-13.296 39.535-31.165 4.388 17.86 20.458 31.098 39.605 31.076 19.147-.021 35.186-13.296 39.535-31.165 4.388 17.86 20.458 31.098 39.605 31.076 22.506-.025 40.731-18.357 40.705-40.945l-.219-195.945c-.028-25.284-7.83-48.733-21.126-68.085z" fill="#80d261"/></g></svg>