<svg id="Capa_1" enable-background="new 0 0 512 512" height="512" viewBox="0 0 512 512" width="512" xmlns="http://www.w3.org/2000/svg"><g><path d="m285.272 387.115v-147.242h-58.038v142.282c-15.191 9.534-28.777 17.931-39.749 28.955-17.543 17.615-28.383 41.954-28.383 68.839v24.44h33.309v-23.426c0-17.646 7.116-33.608 18.623-45.179 4.724-4.746 10.185-8.742 16.2-11.814v80.319h58.038v-80.055c20.389 10.638 34.318 32.056 34.318 56.73v23.426h33.309v-24.44c0-43.518-28.414-80.371-67.627-92.835z" fill="#e19974"/><path d="m285.271 387.115v-70.984-71.041-5.217h-29.271v.419h-28.767v75.839h2.213c14.666 0 26.554 11.913 26.554 26.609v161.547h29.271v-80.055c20.389 10.638 34.319 32.056 34.319 56.73v23.426h33.309v-24.441c0-43.515-28.414-80.368-67.628-92.832z" fill="#d77f4a"/><g><path d="m386.742 512h-261.484c-4.196 0-7.596-3.408-7.596-7.612s3.4-7.611 7.596-7.611h261.483c4.196 0 7.596 3.408 7.596 7.611 0 4.204-3.4 7.612-7.595 7.612z" fill="#d9e7ec"/></g><path d="m424.493 158.414c-6.435-2.887-9.981-9.96-8.51-16.885.912-4.294 1.393-8.747 1.393-13.315 0-35.247-28.439-63.82-63.52-63.82-.601 0-1.199.009-1.796.026-6.15.175-11.786-3.524-14.224-9.199-13.955-32.481-46.103-55.221-83.553-55.221-37.122 0-69.05 22.337-83.2 54.362-2.435 5.511-7.976 8.893-13.977 8.883-.036 0-.071 0-.107 0-35.081 0-63.52 28.573-63.52 63.82 0 4.959.563 9.786 1.628 14.42 1.604 6.978-1.695 14.193-8.167 17.195-17.812 8.261-29.942 26.779-28.876 48.019 1.285 25.598 22.039 46.281 47.525 47.383 11.03.477 22.941-2.66 31.395-8.324 4.078-2.732 9.352-2.831 13.422-.087 7.916 5.339 15.798 8.458 26.049 8.458 12.32 0 26.871-2.851 35.562-10.3 4.506-3.862 11.043-3.862 15.549 0 8.691 7.449 16.684 10.3 29.004 10.3 10.253 0 19.776-3.12 27.693-8.461 4.02-2.712 9.264-2.712 13.285 0 7.917 5.341 17.44 8.461 27.693 8.461 12.066 0 23.124-2.669 31.739-9.846 4.515-3.762 10.969-3.771 15.484-.008 9.095 7.58 20.915 10.325 33.769 9.814 25.541-1.016 47.43-23.637 47.761-49.316.268-20.653-11.924-38.473-29.501-46.359z" fill="#ade194"/><path d="m424.493 158.414c-6.435-2.887-9.98-9.96-8.51-16.885.912-4.294 1.393-8.747 1.393-13.315 0-28.16-18.161-52.043-43.35-60.515-48.384 90.475-143.63 152.019-253.232 152.019-21.29 0-42.031-2.342-62-6.747 4.054 22.626 23.431 40.099 46.797 41.11 11.03.477 22.942-2.66 31.395-8.324 4.078-2.732 9.352-2.831 13.422-.087 7.916 5.339 15.798 8.458 26.049 8.458 12.32 0 26.871-2.851 35.562-10.3 4.506-3.862 11.043-3.862 15.549 0 8.692 7.449 16.685 10.3 29.004 10.3 10.253 0 19.776-3.12 27.693-8.461 4.02-2.712 9.264-2.712 13.285 0 7.917 5.341 17.44 8.461 27.693 8.461 12.066 0 23.124-2.669 31.739-9.846 4.516-3.762 10.969-3.771 15.484-.008 9.095 7.58 20.915 10.325 33.769 9.814 25.54-1.016 47.429-23.637 47.761-49.316.267-20.652-11.926-38.472-29.503-46.358z" fill="#80d261"/></g></svg>