<svg id="Capa_1" enable-background="new 0 0 512 512" height="512" viewBox="0 0 512 512" width="512" xmlns="http://www.w3.org/2000/svg"><g><path d="m255.415 81.514c-42.538.317-76.563 35.713-76.563 78.417v101.316c0 32.635 20.109 60.552 48.565 71.953 3.53 1.414 5.799 4.901 5.799 8.716l-33.416 162.472h112.4l-33.416-162.472c0-3.815 2.27-7.302 5.799-8.716 28.457-11.402 48.565-39.319 48.565-71.953v-102.288c0-42.969-34.857-77.764-77.733-77.445zm33.495 181.755c0 17.685-14.281 32.021-31.897 32.021-17.616 0-31.897-14.336-31.897-32.021v-42.292c0-17.685 14.281-32.021 31.897-32.021 17.616 0 31.897 14.336 31.897 32.021z" fill="#e19974"/><g fill="#d77f4a"><path d="m277.094 84.466c19.812 14.018 32.767 37.147 32.767 63.329v39.663c-7.294 7.626-15.087 14.77-23.337 21.364 1.534 3.749 2.385 7.852 2.385 12.155v42.292c0 7.92-2.87 15.163-7.616 20.753l4.997.014c7.242.021 11.412 8.415 6.919 14.107-8.311 10.528-19.29 18.836-31.913 23.894-3.53 1.414-5.799 4.901-5.799 8.716l35.441 173.636h21.262l-33.416-162.472c0-3.815 2.27-7.302 5.799-8.716 24.105-9.658 42.216-31.17 47.191-57.359.91-4.807 1.366-9.698 1.373-14.595v-102.238-.05c.001-35.428-23.704-65.278-56.053-74.493z"/><path d="m225.116 244.271c-14.759 5.759-30.236 10.076-46.264 12.769v4.207c0 7.825 1.167 15.374 3.317 22.494l50.442.143c-4.675-5.571-7.496-12.76-7.496-20.615v-18.998z"/></g><path d="m386.981 259.965c37.636.107 69.524-26.199 71.866-60.381.098-1.433.15-2.878.153-4.333.067-28.435-18.23-53.01-44.747-64.505.244-2.262.381-4.552.387-6.87.093-39.371-35.013-71.357-78.412-71.442-1.384-.003-2.76.029-4.127.09-9.065-30.206-39.461-52.453-75.64-52.524-36.178-.071-66.679 22.057-75.888 52.228-1.367-.067-2.742-.104-4.126-.107-43.399-.085-78.656 31.763-78.749 71.134-.006 2.319.121 4.609.354 6.872-26.571 11.391-44.985 35.894-45.052 64.329-.002.715.008 1.428.03 2.138 1.053 34.946 33.146 62.517 71.563 62.626z" fill="#7acaa6"/><g><path d="m351.187 512h-190.374c-4.194 0-7.594-3.408-7.594-7.612s3.399-7.611 7.594-7.611h190.374c4.194 0 7.594 3.408 7.594 7.611-.001 4.204-3.4 7.612-7.594 7.612z" fill="#d9e7ec"/></g><path d="m414.252 130.747c.244-2.262.382-4.552.387-6.87.069-29.091-19.09-54.132-46.6-65.27-26.188 101.989-118.551 177.349-228.473 177.349-28.009 0-54.873-4.905-79.798-13.885 11.505 21.976 36.429 37.068 64.825 37.149l262.388.745c37.636.107 69.524-26.199 71.865-60.38.098-1.433.15-2.878.153-4.333.068-28.435-18.23-53.01-44.747-64.505z" fill="#57be92"/></g></svg>