<svg id="Capa_1" enable-background="new 0 0 512 512" height="512" viewBox="0 0 512 512" width="512" xmlns="http://www.w3.org/2000/svg"><g><path d="m442 196.97c.062-28.685-16.703-53.477-41-65.073.223-2.281.349-4.592.354-6.931.086-39.718-32.081-71.985-71.845-72.071-1.268-.003-2.529.029-3.781.091-8.306-30.471-36.157-52.914-69.305-52.986-33.149-.072-61.095 22.251-69.532 52.687-1.252-.067-2.512-.105-3.781-.108-39.764-.086-72.069 32.042-72.155 71.76-.005 2.339.111 4.65.325 6.932-24.347 11.492-41.218 36.211-41.28 64.896-.062 28.856 16.914 53.752 41.445 65.258-.105 1.694-.176 3.397-.176 5.118 0 45.093 36.487 81.648 81.495 81.648 9.541 0 18.697-1.648 27.204-4.669 4.867-1.719 9.325-4.434 13.238-7.796 13.19-10.964 32.345-10.814 45.362.355 3.872 3.322 8.294 5.972 13.111 7.642 8.341 2.892 17.294 4.468 26.617 4.468 32.964 0 61.336-19.62 74.172-47.83 4.695-9.525 7.351-20.234 7.375-31.567-.02-2.163-.088-4.316-.159-6.468 24.899-11.274 42.253-36.269 42.316-65.356z" fill="#ade194"/><path d="m442 196.97c.061-28.685-16.703-53.477-41-65.073.223-2.281.349-4.592.354-6.931.068-31.796-20.542-58.799-49.165-68.357.064 2.266.104 4.538.104 6.819 0 129.842-104.527 235.224-233.925 236.435 12.727 28.477 41.239 48.327 74.396 48.327 9.541 0 18.697-1.648 27.204-4.669 4.867-1.719 9.325-4.434 13.238-7.796 13.19-10.964 32.345-10.814 45.362.355 3.872 3.322 8.294 5.972 13.111 7.642 8.341 2.892 17.294 4.468 26.617 4.468 32.965 0 61.337-19.62 74.172-47.83 4.695-9.525 7.351-20.234 7.375-31.567-.02-2.163-.088-4.316-.159-6.468 24.9-11.273 42.253-36.268 42.316-65.355z" fill="#80d261"/><path d="m323.411 249.129c6.255-8.913-4.619-19.808-13.515-13.541l-12.895 9.084-22.485 15.84-6.185-57.865-2.707-26.716c-1.867-10.734-17.246-10.734-19.114 0l-2.707 26.716-6.2 57.948-22.604-15.923-12.895-9.084c-8.896-6.267-19.771 4.628-13.515 13.541l9.067 12.919 31.215 44.477v197.863h54.15v-197.706l31.324-44.634z" fill="#e19974"/><path d="m309.896 235.588-12.895 9.084-22.485 15.84-6.185-57.865-2.707-26.716c-1.867-10.734-17.246-10.734-19.113 0l-2.707 26.716-6.2 57.948-22.604-15.923-12.895-9.084c-8.896-6.267-19.776 4.62-13.523 13.531l9.074 12.929 30.833 43.934c15.194 0 27.511 12.332 27.511 27.545v170.861h27.02v-197.706l31.324-44.634 9.074-12.929c6.254-8.911-4.626-19.798-13.522-13.531z" fill="#d77f4a"/><g><path d="m356.402 512h-200.804c-4.199 0-7.602-3.408-7.602-7.612s3.403-7.611 7.602-7.611h200.804c4.199 0 7.602 3.408 7.602 7.611 0 4.204-3.403 7.612-7.602 7.612z" fill="#d9e7ec"/></g></g></svg>