<svg id="Capa_1" enable-background="new 0 0 512 512" height="512" viewBox="0 0 512 512" width="512" xmlns="http://www.w3.org/2000/svg"><g><g><path d="m376.651 116.223c-16.234-.025-29.414 13.063-29.439 29.232l-1.237 156.178c-.046 5.757-1.679 11.224-4.541 15.914-4.658 7.632-12.608 12.687-21.443 14.214l-23.335 4.032c-6.318 1.092-12.095-3.768-12.085-10.168l.458-296.304c.026-16.168-13.114-29.296-29.347-29.321-16.234-.025-29.414 13.063-29.439 29.232l-.258 167.158c-.01 6.386-5.78 11.225-12.085 10.136l-21.891-3.783c-8.835-1.527-16.785-6.582-21.443-14.214-2.863-4.69-4.496-10.157-4.541-15.914l-1.237-74.076c-.025-16.169-13.205-29.257-29.439-29.232-16.234.025-29.374 13.153-29.349 29.322l.186 82.714c.04 35.183 23.776 65.962 57.895 75.072l53.245 9.343c4.942.867 8.544 5.155 8.536 10.163l-.353 228.377 58.787.09.153-99.184c.008-4.996 3.606-9.266 8.536-10.131l54.934-9.639c34.119-9.11 57.855-39.889 57.895-75.072l.186-164.817c.025-16.169-13.115-29.297-29.349-29.322z" fill="#ade194"/><g><path d="m357.194 512h-202.388c-4.213 0-7.627-3.408-7.627-7.612s3.414-7.611 7.627-7.611h202.389c4.213 0 7.627 3.408 7.627 7.611-.001 4.204-3.415 7.612-7.628 7.612z" fill="#d9e7ec"/></g></g><g><path d="m376.651 116.223c-16.233-.025-29.414 13.063-29.439 29.232l-1.236 156.178c-.046 5.757-1.679 11.224-4.542 15.914-4.658 7.632-12.608 12.687-21.443 14.214l-23.335 4.032c-6.318 1.092-12.095-3.768-12.085-10.168l.05-32.019c-15.942 23.148-35.899 43.324-58.88 59.519l-.222 143.652h58.787l.142-91.572c.008-4.996 3.606-9.266 8.536-10.131l54.934-9.639c34.119-9.11 57.855-39.889 57.895-75.072l.187-164.818c.025-16.169-13.115-29.297-29.349-29.322z" fill="#80d261"/></g></g></svg>