<svg id="Capa_1" enable-background="new 0 0 512 512" height="512" viewBox="0 0 512 512" width="512" xmlns="http://www.w3.org/2000/svg"><g><path d="m267.972 231.642h-26.89c-3.306 0-6.132-2.387-6.697-5.655l-5.041-29.178c-.72-4.17 2.479-7.984 6.697-7.984h36.972c4.218 0 7.417 3.814 6.697 7.984l-5.041 29.178c-.565 3.269-3.392 5.655-6.697 5.655z" fill="#ade194"/><path d="m267.972 266.82h-26.89c-3.306 0-6.132-2.387-6.697-5.655l-5.041-29.178c-.72-4.17 2.479-7.984 6.697-7.984h36.972c4.218 0 7.417 3.814 6.697 7.984l-5.041 29.178c-.565 3.268-3.392 5.655-6.697 5.655z" fill="#e19974"/><path d="m270.78 305.559h-32.506c-3.246 0-6.039-2.303-6.668-5.498l-5.744-29.178c-.83-4.215 2.385-8.141 6.668-8.141h43.994c4.282 0 7.498 3.926 6.668 8.141l-5.744 29.178c-.63 3.195-3.422 5.498-6.668 5.498z" fill="#d77f4a"/><path d="m271.55 346.338h-34.047c-3.23 0-6.013-2.28-6.659-5.455l-5.937-29.178c-.86-4.227 2.359-8.184 6.659-8.184h45.921c4.3 0 7.519 3.956 6.659 8.184l-5.937 29.178c-.646 3.174-3.429 5.455-6.659 5.455z" fill="#e19974"/><path d="m272.588 387.116h-36.122c-3.208 0-5.979-2.25-6.647-5.398l-6.197-29.178c-.901-4.243 2.323-8.241 6.647-8.241h48.517c4.324 0 7.548 3.998 6.647 8.241l-6.197 29.178c-.67 3.148-3.441 5.398-6.648 5.398z" fill="#d77f4a"/><path d="m274.701 427.894h-40.349c-3.163 0-5.909-2.19-6.622-5.282l-6.728-29.178c-.985-4.274 2.249-8.357 6.622-8.357h53.804c4.372 0 7.607 4.082 6.622 8.357l-6.728 29.178c-.712 3.092-3.458 5.282-6.621 5.282z" fill="#e19974"/><path d="m276.282 468.673h-43.51c-3.131 0-5.856-2.146-6.601-5.197l-7.125-29.178c-1.049-4.296 2.193-8.442 6.601-8.442h57.76c4.408 0 7.65 4.146 6.601 8.442l-7.125 29.178c-.745 3.051-3.47 5.197-6.601 5.197z" fill="#d77f4a"/><path d="m278.352 504.354h-47.65c-3.026 0-5.688-2.008-6.529-4.925l-7.236-25.101c-1.257-4.361 2.004-8.714 6.529-8.714h62.122c4.525 0 7.786 4.353 6.529 8.714l-7.236 25.101c-.841 2.917-3.503 4.925-6.529 4.925z" fill="#e19974"/><g><path d="m349.961 512h-190.869c-4.209 0-7.62-3.423-7.62-7.646s3.412-7.646 7.62-7.646h190.869c4.209 0 7.62 3.423 7.62 7.646s-3.411 7.646-7.62 7.646z" fill="#d9e7ec"/></g><g fill="#ade194"><path d="m323.247 193.663c41.174-14.445 83.685-1.087 109.316 34.348l38.682 53.479c.798 1.103-.425 2.533-1.627 1.899-27.54-14.529-61.762-29.874-102.224-42.507-41.978-13.107-80.367-19.903-111.851-23.513 22.458-7.878 45.245-15.827 67.704-23.706z"/><path d="m286.215 152.254c18.943-39.45 58.409-60.189 101.486-53.331l64.712 10.302c1.416.225 1.563 2.209.195 2.637-29.643 9.278-64.541 22.703-101.925 42.435-38.913 20.539-70.335 43.269-95.14 63.072 10.332-21.517 20.339-43.597 30.672-65.115z"/><path d="m187.839 193.663c-41.174-14.445-83.685-1.087-109.316 34.348l-37.689 52.107c-1.043 1.442.559 3.309 2.133 2.484 27.28-14.295 60.994-29.314 100.726-41.719 41.978-13.107 80.038-19.973 111.523-23.583-22.46-7.879-44.919-15.758-67.377-23.637z"/><path d="m223.856 152.254c-18.943-39.45-58.409-60.189-101.486-53.331l-64.685 10.298c-1.422.226-1.571 2.219-.196 2.65 29.637 9.278 64.525 22.701 101.899 42.427 38.913 20.539 70.66 42.707 95.465 62.51-10.332-21.518-20.664-43.036-30.997-64.554z"/><path d="m231.962 149.556c-14.385-41.345-1.083-84.033 34.206-109.77l54.283-39.59c.844-.616 1.943.333 1.455 1.259-14.642 27.845-30.169 62.589-42.92 103.771-13.052 42.153-19.891 80.37-23.485 111.985-7.846-22.551-15.693-45.103-23.539-67.655z"/></g><path d="m371.928 225.829c24.411 6.152 47.504 9.617 66.62 10.456l-5.985-8.274c-25.631-35.436-68.142-48.793-109.316-34.348-6.745 2.366-13.523 4.74-20.31 7.115 17.933 9.297 41.973 18.242 68.991 25.051z" fill="#80d261"/><path d="m284.414 156.05c16.236-6.331 34.468-15.304 53.063-26.47 16.941-10.173 32.139-20.939 44.716-31.368-40.907-4.318-77.846 16.282-95.977 54.042-.606 1.259-1.2 2.534-1.802 3.796z" fill="#80d261"/><path d="m195.695 196.419c-2.619-.919-5.237-1.837-7.856-2.756-41.174-14.445-83.685-1.087-109.316 34.348l-4.618 6.384c13.937-1.749 29.134-4.597 44.882-8.566 31.221-7.869 58.47-18.589 76.908-29.41z" fill="#80d261"/></g></svg>