<svg id="Capa_1" enable-background="new 0 0 512 512" height="512" viewBox="0 0 512 512" width="512" xmlns="http://www.w3.org/2000/svg"><g><g><path d="m256.324 250.771v-.034c-.108 0-.216.011-.324.017-.108-.006-.216-.017-.324-.017v.034c-27.662 2.902-40.501 212.957-40.501 253.618h40.501.648 40.501c0-40.662-12.838-250.716-40.501-253.618z" fill="#e19974"/><path d="m291.545 409.848c-1.832-21.613-4.15-44.344-6.966-65.647-7.78 2.51-16.939 4.459-27.286 4.89-11.279.466-21.403-.974-30.088-3.235-2.81 21.521-5.114 44.421-6.927 66.106 10.047 3.355 22.592 5.882 37.015 5.287 13.614-.569 25.195-3.761 34.252-7.401z" fill="#d77f4a"/></g><g><path d="m350.811 512h-189.622c-4.208 0-7.62-3.407-7.62-7.612s3.412-7.611 7.62-7.611h189.621c4.208 0 7.62 3.407 7.62 7.611s-3.411 7.612-7.619 7.612z" fill="#d9e7ec"/></g><g><ellipse cx="255.563" cy="102.627" fill="#09a76d" rx="52.381" ry="102.627"/><path d="m256 285.257h-.07c-67.92 0-122.98-55.06-122.98-122.98v-91.103h.07c67.92 0 122.98 55.06 122.98 122.98z" fill="#22b27f"/><path d="m256 285.257h.07c67.92 0 122.98-55.06 122.98-122.98v-91.103h-.07c-67.92 0-122.98 55.06-122.98 122.98z" fill="#22b27f"/><g fill="#7acaa6"><path d="m255.894 284.483c56.153 38.319 132.706 23.809 170.977-32.408l51.129-75.106c-56.153-38.319-132.706-23.809-170.977 32.408z"/><path d="m256.106 284.483c-56.153 38.319-132.706 23.809-170.977-32.408l-51.129-75.106c56.153-38.319 132.706-23.809 170.977 32.408z"/></g></g></g></svg>