<svg id="Capa_1" enable-background="new 0 0 512 512" height="512" viewBox="0 0 512 512" width="512" xmlns="http://www.w3.org/2000/svg"><g><path d="m234.566 334.657-.163 169.475 43.01.071.164-169.577" fill="#e19974"/><path d="m234.566 334.657-.018 34.775c12.494-.009 22.623 10.159 22.61 22.696l-.121 112.042 20.376.034.163-169.577z" fill="#d77f4a"/><g><path d="m356.965 512h-201.93c-4.224 0-7.648-3.435-7.648-7.674s3.424-7.674 7.648-7.674h201.93c4.224 0 7.648 3.435 7.648 7.674s-3.424 7.674-7.648 7.674z" fill="#d9e7ec"/></g><path d="m346.535 182.747c-4.085-6.909-4.69-15.282-1.77-22.762 3.575-9.157 5.509-19.041 5.509-29.35 0-38.95-62.496-110.221-85.671-127.947-4.67-3.572-11.562-3.586-16.253-.036-23.373 17.69-86.626 89.006-86.626 127.982 0 10.368 1.956 20.307 5.569 29.509 2.956 7.527 2.34 15.961-1.798 22.905-11.59 19.45-19.495 38.374-19.495 53.257 0 55.331 47.72 100.185 110 100.185s110-44.854 110-100.185c0-14.958-7.901-34.001-19.465-53.558z" fill="#cb97e7"/><path d="m346.535 182.747c-4.085-6.909-4.69-15.282-1.77-22.762 3.575-9.157 5.509-19.041 5.509-29.35 0-10.572-4.61-23.527-11.782-37.144-15.14 94.997-83.456 172.174-173.365 199.822 19.551 26.088 52.435 43.177 90.872 43.177 62.28 0 110-44.855 110-100.185.001-14.958-7.9-34.001-19.464-53.558z" fill="#bd80e1"/></g></svg>