<svg id="Capa_1" enable-background="new 0 0 512 512" height="512" viewBox="0 0 512 512" width="512" xmlns="http://www.w3.org/2000/svg"><g><path d="m319.47 191.881c-4.207 0-7.618 3.408-7.618 7.611v3.989c0 28.236-21.093 51.627-48.356 55.301l.091-59.375c.006-4.204-3.399-7.616-7.607-7.623-.004 0-.007 0-.011 0-4.202 0-7.612 3.4-7.618 7.6l-.091 59.372c-11.976-1.654-23.049-7.115-31.753-15.795-10.55-10.561-16.36-24.582-16.36-39.48v-3.958c0-4.204-3.41-7.611-7.618-7.611s-7.618 3.408-7.618 7.611v3.958c0 18.959 7.391 36.799 20.822 50.245 11.584 11.554 26.455 18.627 42.502 20.364l-.353 230.287c-.007 4.204 3.399 7.616 7.606 7.623h.012c4.202 0 7.611-3.4 7.618-7.6l.353-230.274c35.698-3.744 63.615-33.996 63.615-70.646v-3.989c.001-4.203-3.409-7.61-7.616-7.61z" fill="#e19974"/><g><path d="m356.713 512c-.004 0-.008 0-.012 0l-201.427-.31c-4.207-.007-7.613-3.419-7.606-7.623.007-4.199 3.416-7.6 7.618-7.6h.012l201.427.31c4.207.007 7.613 3.419 7.606 7.623-.007 4.2-3.416 7.6-7.618 7.6z" fill="#d9e7ec"/></g><g fill="#d77f4a"><path d="m319.47 191.881c-4.207 0-7.618 3.408-7.618 7.611v3.989c0 10.172-2.749 19.707-7.526 27.926 3.841 1.086 7.891 1.675 12.08 1.675 1.45 0 2.883-.074 4.297-.211 4.093-8.962 6.383-18.913 6.383-29.391v-3.989c.001-4.203-3.409-7.61-7.616-7.61z"/><path d="m200.148 203.481v-3.958c0-4.204-3.41-7.611-7.618-7.611s-7.618 3.408-7.618 7.611v3.958c0 10.139 2.133 19.949 6.154 28.946 1.57.269 3.164.466 4.786.566.914.051 1.828.081 2.752.081 3.226 0 6.37-.353 9.401-1.007-5.122-8.56-7.857-18.367-7.857-28.586z"/><path d="m263.587 199.406c.006-4.204-3.399-7.616-7.607-7.623-.004 0-.007 0-.011 0-4.202 0-7.612 3.4-7.618 7.6l-.051 33.03c1.728.298 3.49.5 5.281.592.259.015.519.023.779.033.205.007.408.022.613.026.248.008.491.008.737.008.137.001.273.01.41.01.235 0 .466-.013.7-.017.068-.001.136 0 .205-.002v-.003c2.214-.044 4.387-.256 6.51-.613z"/></g><g><path d="m182.876 56.919c-1.209-3.998-1.848-8.24-1.848-12.634 0-24.456 19.843-44.285 44.316-44.285 11.902 0 22.696 4.678 30.658 12.299 7.962-7.621 18.756-12.299 30.658-12.299 24.473 0 44.316 19.829 44.316 44.285 0 4.394-.64 8.636-1.848 12.634l-4.062 45.075-68.05-10.149-58.909-6.089z" fill="#fe860a"/><path d="m257.026 199.573c-.386.01-.762.01-1.148.01-.305 0-.599 0-.904-.01-10.563-.213-20.212-4.12-27.728-10.463-7.719 6.526-17.723 10.473-28.642 10.473-.924 0-1.838-.03-2.752-.081-10.553-.65-20.1-4.983-27.383-11.732-7.912 7.327-18.506 11.813-30.145 11.813-24.478 0-44.324-19.82-44.324-44.278 0-19.729 12.919-36.444 30.755-42.178-1.686-4.699-2.621-9.773-2.621-15.061 0-24.458 19.836-44.279 44.314-44.279 5.81 0 11.355 1.116 16.423 3.136 5.332 2.131 10.157 5.257 14.23 9.154 7.089-6.779 16.434-11.235 26.804-12.128 1.27-.111 2.56-.162 3.86-.162 10.736 0 20.567 3.806 28.236 10.139z" fill="#fea95c"/><path d="m387.244 113.132c1.701-4.702 2.631-9.773 2.631-15.061 0-24.46-19.842-44.288-44.319-44.288-11.894 0-22.694 4.683-30.654 12.304-7.961-7.621-18.76-12.304-30.654-12.304-24.477 0-44.319 19.828-44.319 44.288 0 5.288.929 10.359 2.631 15.061-17.842 5.726-30.756 22.441-30.756 42.172 0 24.46 19.842 44.288 44.319 44.288 11.642 0 22.234-4.488 30.143-11.825 7.909 7.337 18.5 11.825 30.143 11.825 10.919 0 20.913-3.948 28.637-10.49 7.724 6.542 17.719 10.49 28.637 10.49 24.477 0 44.319-19.828 44.319-44.288-.002-19.732-12.916-36.447-30.758-42.172z" fill="#ade194"/><path d="m257.026 199.573c-.386.01-.762.01-1.148.01-.305 0-.599 0-.904-.01-10.563-.213-20.212-4.12-27.728-10.463-7.719 6.526-17.723 10.473-28.642 10.473-.924 0-1.838-.03-2.752-.081-9.131-12.381-14.524-27.675-14.524-44.197 0-23.332 10.685-44.603 28.144-58.477.264-16.004 5.586-30.811 14.433-42.878 1.27-.111 2.56-.162 3.86-.162 10.736 0 20.567 3.806 28.236 10.139z" fill="#fe9738"/><path d="m387.244 113.132c1.701-4.702 2.631-9.773 2.631-15.061 0-24.46-19.842-44.288-44.319-44.288-11.894 0-22.694 4.683-30.654 12.304-7.961-7.621-18.76-12.304-30.654-12.304-24.477 0-44.319 19.828-44.319 44.288 0 5.288.929 10.359 2.631 15.061-17.842 5.726-30.756 22.441-30.756 42.172 0 24.46 19.842 44.288 44.319 44.288 11.642 0 22.234-4.488 30.143-11.825 7.909 7.337 18.5 11.825 30.143 11.825 10.919 0 20.913-3.948 28.637-10.49 7.724 6.542 17.719 10.49 28.637 10.49 24.477 0 44.319-19.828 44.319-44.288-.002-19.732-12.916-36.447-30.758-42.172z" fill="#fea95c"/></g></g></svg>