<svg id="Capa_1" enable-background="new 0 0 512 512" height="512" viewBox="0 0 512 512" width="512" xmlns="http://www.w3.org/2000/svg"><g><path d="m388.646 219.201c-4.205-.335-7.846 2.806-8.174 6.996-2.053 26.319-31.834 49.085-73.052 59.672 12.915-13.083 20.906-31.048 20.906-50.85v-8.406c0-4.204-3.404-7.611-7.604-7.611s-7.604 3.408-7.604 7.611v8.406c0 28.903-21.544 52.85-49.4 56.635l.099-64.875c0-4.201-3.401-7.603-7.599-7.607-.002 0-.004 0-.006 0-4.194 0-7.598 3.406-7.604 7.605l-.099 64.912c-12.408-1.62-23.894-7.237-32.898-16.233-10.787-10.817-16.728-25.177-16.728-40.437v-8.23c0-4.204-3.404-7.611-7.604-7.611s-7.604 3.408-7.604 7.611v8.23c0 19.206 7.437 37.281 20.947 50.953-14.127-3.599-27.104-8.691-38.292-15.168-21.16-12.255-33.519-28.096-34.801-44.605-.326-4.19-3.988-7.321-8.171-6.999-4.187.326-7.318 3.988-6.993 8.178 1.682 21.658 16.722 41.76 42.348 56.601 24.298 14.069 55.94 22.25 89.772 23.309l-.301 197.087c-.006 4.204 3.393 7.617 7.593 7.623h.012c4.194 0 7.599-3.4 7.604-7.6l.301-197.123c32.685-1.054 63.492-8.794 87.447-22.084 26.951-14.951 42.753-35.483 44.495-57.812.327-4.188-2.803-7.851-6.99-8.178z" fill="#e19974"/><g><path d="m358.703 512c-.004 0-.008 0-.012 0l-205.405-.316c-4.199-.007-7.6-3.419-7.593-7.623.007-4.199 3.41-7.6 7.604-7.6h.012l205.405.316c4.199.007 7.599 3.419 7.593 7.623-.007 4.2-3.41 7.6-7.604 7.6z" fill="#d9e7ec"/></g><g fill="#d77f4a"><path d="m145.2 254.446c-8.186-8.763-12.907-18.385-13.673-28.247-.326-4.19-3.988-7.321-8.171-6.999-4.187.326-7.318 3.988-6.993 8.178.864 11.119 5.257 21.826 12.787 31.623 5.692-.611 11.095-2.187 16.05-4.555z"/><path d="m263.816 226.779c0-4.201-3.401-7.603-7.599-7.607-.002 0-.004 0-.006 0-4.194 0-7.598 3.406-7.604 7.605l-.049 31.981c2.067.305 4.175.488 6.316.53.324.01.659.01.994.01h.263v-.007h.003c2.596 0 5.143-.207 7.632-.59z"/><path d="m313.118 226.613v8.406c0 7.763-1.566 15.162-4.379 21.915 4.771 1.522 9.85 2.357 15.125 2.357.091 0 .18-.006.271-.006 2.708-7.589 4.192-15.756 4.192-24.265v-8.406c0-4.204-3.404-7.611-7.604-7.611s-7.605 3.406-7.605 7.61z"/><path d="m191.524 259.298c2.677 0 5.293-.213 7.858-.619 1.429-.228 2.835-.523 4.22-.869-3.085-7.102-4.72-14.821-4.72-22.791v-8.23c0-4.204-3.404-7.611-7.604-7.611s-7.604 3.408-7.604 7.611v8.23c0 8.351 1.409 16.488 4.109 24.142.81.061 1.624.105 2.444.127.436 0 .861.01 1.297.01z"/><path d="m382.884 258.998c7.511-9.778 11.883-20.473 12.752-31.616.327-4.191-2.803-7.853-6.99-8.18-4.205-.335-7.846 2.806-8.174 6.996-.788 10.102-5.673 19.676-13.71 28.243 4.973 2.379 10.404 3.947 16.122 4.557z"/></g><g><path d="m174.656 66.586c-1.864-5.234-2.889-10.873-2.889-16.75 0-27.53 22.295-49.836 49.8-49.836 13.359 0 25.495 5.265 34.432 13.848 8.947-8.583 21.073-13.848 34.442-13.848 27.494 0 49.789 22.306 49.789 49.836 0 5.877-1.025 11.516-2.879 16.75l-3.279 47.587-78.072-3.045-49.682-3.045z" fill="#fe860a"/><path d="m256.132 226.802h-.263c-.335 0-.669 0-.994-.01-11.873-.233-22.732-4.638-31.178-11.803-6.783 5.764-15.138 9.733-24.314 11.194-2.565.406-5.181.619-7.858.619-.436 0-.862-.01-1.298-.01-12.562-.335-23.969-5.318-32.567-13.305-8.882 8.251-20.796 13.315-33.865 13.315-.304 0-.608 0-.892-.01-27.083-.477-48.903-22.611-48.903-49.84 0-22.205 14.509-41.001 34.555-47.445-1.916-5.298-2.951-11.001-2.951-16.948 0-27.533 22.286-49.84 49.794-49.84 6.824 0 13.333 1.38 19.254 3.867 5.668 2.385 10.808 5.775 15.178 9.976 8.943-8.576 21.08-13.843 34.443-13.843 2.312 0 4.583.162 6.814.467 9.389 1.289 17.946 5.196 24.912 10.971z" fill="#fea95c"/><path d="m403.446 129.501c1.911-5.291 2.956-10.997 2.956-16.948 0-27.524-22.292-49.837-49.791-49.837-13.363 0-25.495 5.27-34.439 13.846-8.943-8.576-21.076-13.846-34.439-13.846-27.499 0-49.791 22.313-49.791 49.837 0 5.951 1.044 11.657 2.956 16.948-20.045 6.443-34.554 25.252-34.554 47.456 0 27.524 22.292 49.837 49.791 49.837 13.08 0 24.979-5.051 33.864-13.306 8.885 8.256 20.785 13.306 33.864 13.306 12.267 0 23.495-4.443 32.173-11.804 8.678 7.362 19.906 11.804 32.173 11.804 27.499 0 49.791-22.313 49.791-49.837 0-22.203-14.509-41.013-34.554-47.456z" fill="#ade194"/><path d="m256.132 226.802h-.263c-.335 0-.669 0-.994-.01-11.873-.233-22.732-4.638-31.178-11.803-6.783 5.764-15.138 9.733-24.314 11.194-11.448-13.193-18.383-30.415-18.383-49.221 0-24.956 12.127-47.587 31.655-61.399-.041-.995-.061-1.999-.061-3.014 0-18.876 6.986-36.149 18.494-49.363 9.389 1.289 17.946 5.196 24.912 10.971z" fill="#fe9738"/><path d="m403.446 129.501c1.911-5.291 2.956-10.997 2.956-16.948 0-27.524-22.292-49.837-49.791-49.837-13.363 0-25.495 5.27-34.439 13.846-8.943-8.576-21.076-13.846-34.439-13.846-27.499 0-49.791 22.313-49.791 49.837 0 5.951 1.044 11.657 2.956 16.948-20.045 6.443-34.554 25.252-34.554 47.456 0 27.524 22.292 49.837 49.791 49.837 13.08 0 24.979-5.051 33.864-13.306 8.885 8.256 20.785 13.306 33.864 13.306 12.267 0 23.495-4.443 32.173-11.804 8.678 7.362 19.906 11.804 32.173 11.804 27.499 0 49.791-22.313 49.791-49.837 0-22.203-14.509-41.013-34.554-47.456z" fill="#fea95c"/></g></g></svg>