<svg id="Capa_1" enable-background="new 0 0 512 512" height="512" viewBox="0 0 512 512" width="512" xmlns="http://www.w3.org/2000/svg"><g><path d="m409.099 208.464c-4.163-.524-13.287 23.456-13.808 27.628-5.14 41.118-34.173 75.527-74.587 93.552-1.896.846-3.699-1.4-2.453-3.061 10.88-14.511 18.646-33.517 23.116-56.688.796-4.129-1.902-8.122-6.028-8.919-4.127-.794-8.115 1.904-8.912 6.033-8.537 44.246-29.901 70.648-60.668 75.421-1.238.192-2.361-.754-2.361-2.008v-85.218c0-4.169-3.211-7.805-7.375-7.929-4.309-.129-7.841 3.327-7.841 7.61v85.544c0 1.253-1.123 2.199-2.36 2.008-30.76-4.75-52.142-31.157-60.669-75.427-.794-4.129-4.786-6.834-8.91-6.035-4.126.796-6.825 4.788-6.03 8.917 4.464 23.173 12.223 42.18 23.098 56.689 1.245 1.662-.558 3.906-2.453 3.061-40.397-18.018-69.409-52.408-74.56-93.511-.387-3.842-5.541-24.622-9.482-24.622-4.202 0-5.695 21.201-5.695 25.406 0 .313.019.626.057.936 7.804 63.026 64.653 112.039 135.549 119.566 1.032.11 1.819.972 1.819 2.012v144.957h35.503v-145.068c0-1.035.78-1.895 1.807-2.01 70.358-7.878 126.701-56.67 134.534-119.325.521-4.173 2.878-28.997-1.291-29.519z" fill="#e19974"/><g><path d="m356.899 512h-201.205c-4.202 0-7.608-3.408-7.608-7.614 0-4.205 3.406-7.614 7.608-7.614h201.205c4.202 0 7.608 3.408 7.608 7.614s-3.406 7.614-7.608 7.614z" fill="#d9e7ec"/></g><g fill="#d77f4a"><path d="m409.099 208.464c-4.163-.524-13.287 23.456-13.808 27.628-2.33 18.644-9.587 35.901-20.575 50.884 4.905 2.97 9.837 6.171 13.901 6.686 11.577-16.486 19.232-35.351 21.773-55.68.521-4.172 2.878-28.996-1.291-29.518z"/><path d="m136.634 286.666c-10.85-14.9-18.018-32.033-20.337-50.535-.387-3.842-5.541-24.622-9.482-24.622-4.202 0-5.695 21.201-5.695 25.406 0 .313.019.626.057.936 2.518 20.335 10.149 39.207 21.702 55.701 4.077-.778 8.943-3.99 13.755-6.886z"/><path d="m326.426 267.008c-2.049 10.617-4.845 20.191-8.323 28.701 4.152 3.061 8.432 7.135 12.446 9.665 4.652-10.435 8.271-22.28 10.817-35.479.796-4.129-1.902-8.122-6.028-8.919-4.126-.795-8.114 1.904-8.912 6.032z"/><path d="m248.182 254.884v43.309c2.431-2.007 4.851-3.378 7.239-3.378 2.629 0 5.297 1.658 7.976 4.002v-43.933c0-4.205-3.406-7.614-7.608-7.614s-7.607 3.409-7.607 7.614z"/><path d="m180.863 305.01c4.03-2.665 8.307-6.751 12.436-9.709-3.398-8.407-6.134-17.846-8.147-28.292-.794-4.129-4.786-6.834-8.91-6.035-4.126.796-6.825 4.788-6.03 8.917 2.514 13.052 6.08 24.771 10.651 35.119z"/></g><path d="m507.857 137.623c0 9.056-21.07 14.227-24.428 22.753-3.174 8.059 9.375 25.709 3.5 33.135-5.317 6.721-25.923-.736-33.224 5.347-6.614 5.51-2.412 26.968-10.485 31.864-7.415 4.497-24.77-8.922-33.286-5.012-7.936 3.643-8.844 25.543-17.631 28.621-8.287 2.903-22.777-13.568-31.734-11.214-8.53 2.241-12.957 23.723-22.02 25.427-8.699 1.635-20.675-16.742-29.799-15.637-8.814 1.067-16.019 21.789-25.17 22.33-8.884.525-18.503-19.188-27.65-19.188-9.146 0-18.764 19.713-27.647 19.188-9.15-.541-16.355-21.262-25.169-22.329-9.126-1.105-21.104 17.272-29.805 15.637-9.064-1.704-13.491-23.186-22.022-25.427-8.957-2.354-23.448 14.116-31.735 11.214-8.787-3.078-9.696-24.978-17.632-28.621-8.517-3.91-25.872 9.508-33.287 5.011-8.073-4.896-3.87-26.354-10.484-31.864-7.3-6.082-27.907 1.374-33.223-5.347-5.874-7.426 6.677-25.076 3.503-33.134-3.36-8.529-24.429-13.7-24.429-22.754 0-9.056 21.07-14.227 24.428-22.753 3.174-8.059-9.375-25.709-3.5-33.135 5.317-6.721 25.923.736 33.224-5.347 6.614-5.51 2.412-26.968 10.485-31.864 7.415-4.497 24.77 8.922 33.286 5.012 7.936-3.643 8.844-25.543 17.631-28.621 8.287-2.903 22.777 13.568 31.734 11.214 8.53-2.241 12.956-23.723 22.02-25.427 8.699-1.635 20.675 16.742 29.799 15.637 8.814-1.067 16.019-21.789 25.17-22.33 8.884-.525 18.503 19.188 27.65 19.188 9.146 0 18.764-19.713 27.647-19.188 9.15.541 16.355 21.262 25.168 22.329 9.126 1.105 21.104-17.272 29.805-15.637 9.064 1.704 13.491 23.186 22.022 25.427 8.957 2.354 23.448-14.116 31.735-11.214 8.787 3.078 9.696 24.978 17.632 28.621 8.517 3.91 25.872-9.508 33.287-5.011 8.073 4.896 3.87 26.354 10.484 31.864 7.3 6.082 27.907-1.374 33.223 5.347 5.874 7.426-6.677 25.076-3.503 33.134 3.36 8.528 24.43 13.699 24.43 22.754z" fill="#cb97e7"/><path d="m483.292 114.919c-3.176-8.061 9.612-25.871 3.734-33.298-3.006-3.798-10.958-2.999-18.623-2.683-91.294 83.595-212.88 134.602-346.372 134.602-20.201 0-40.128-1.172-59.72-3.444 1.042 8.125 1.241 17.718 6.277 20.771 7.416 4.496 24.898-9.195 33.415-5.286 7.935 3.642 8.743 25.825 17.529 28.902 8.286 2.902 22.854-13.861 31.81-11.508 8.53 2.241 12.897 24.019 21.959 25.722 8.699 1.635 20.716-17.043 29.84-15.938 8.811 1.066 15.99 22.09 25.139 22.63 8.881.524 18.504-19.492 27.649-19.492 9.146 0 18.77 20.016 27.652 19.492 9.149-.54 16.329-21.564 25.141-22.631 9.121-1.104 21.137 17.574 29.834 15.939 9.061-1.703 13.427-23.481 21.956-25.721 8.956-2.353 23.523 14.41 31.809 11.509 8.787-3.077 9.594-25.259 17.529-28.901 8.516-3.909 25.997 9.783 33.413 5.288 8.074-4.895 3.716-26.605 10.331-32.114 7.303-6.082 28.109 1.594 33.428-5.127 5.879-7.428-6.908-25.239-3.732-33.3 3.362-8.53 24.71-13.647 24.71-22.707s-21.347-14.176-24.708-22.705z" fill="#bd80e1"/></g></svg>