<svg id="Capa_1" enable-background="new 0 0 511.998 511.998" height="512" viewBox="0 0 511.998 511.998" width="512" xmlns="http://www.w3.org/2000/svg"><g><path d="m439.319 185.09c-18.022-2.788-35.458-7.632-52.116-14.446-1.59-.65-1.682-2.847-.158-3.638 15.827-8.186 29.101-20.66 38.279-35.947 5.052-8.762-7.193-16.466-12.705-7.982-10.466 17.668-27.55 30.797-47.28 36.581-1.542.367-2.813-1.043-4.149-1.609-16.566-9.358-31.862-20.727-45.608-33.877-.932-.892-.773-2.419.31-3.119 35.707-23.034 67.516-51.931 93.922-85.224 5.94-7.838-5.381-16.951-11.753-9.321-14.785 18.64-31.314 35.818-49.325 51.308-.575.494-1.345.702-2.091.567-9.789-1.714-27.885-6.765-44.325-21.494 6.37-3.697 13.436-9.005 19.858-16.56 7.205-8.478 12.545-18.636 15.459-29.404 1.075-3.972-1.092-8.412-5.046-9.554-4.062-1.174-8.268 1.226-9.341 5.288-3.539 15.004-15.616 30.287-28.371 37.208-1.779 1.037-4.061.55-5.262-1.122-10.056-13.999-13.925-28.088-15.396-36.274-.722-4.016-4.443-6.972-8.483-6.399-4.22.599-7.073 4.564-6.34 8.728 1.913 10.853 7.484 30.987 23.514 49.662.544.986 1.287 1.806 2.159 2.437 12.977 14.525 30.529 23.993 43.206 28.166 2.004.688 2.431 3.325.737 4.597-.628.472-1.258.941-1.89 1.408-23.527 17.389-49.092 32.001-76.044 43.493-.599.255-1.288.205-1.844-.134-5.93-3.618-11.792-7.355-17.575-11.21-.847-.565-1.139-1.684-.657-2.581.963-1.792 1.859-3.731 2.658-5.779 10.503-25.587-5.167-53.75-15.717-83.941-3.269-8.47-6.967-18.057-7.398-20.446-.297-4.017-3.748-7.114-7.786-6.937-12.934 2.523-5.576 14.075 1.186 32.781 6.867 17.797 17.242 44.692 18.295 57.324.452 5.424-.728 10.844-2.376 15.247-.927 2.478-3.975 3.395-6.114 1.837-39.178-28.528-74.233-62.564-103.941-100.843-6.25-7.87-17.942.797-12.026 8.971 14.51 18.717 30.374 36.529 47.279 53.176.893.879.778 2.36-.259 3.065-20.363 13.929-45.252 20.92-69.943 19.895-9.951-.099-10.518 14.432-.309 15 1.664.065 3.33.096 4.997.096 27.476.026 54.692-8.669 76.858-24.821.83-.602 1.968-.541 2.718.158 17.899 16.357 37.022 31.615 57.03 45.404 8.543 5.898 17.261 11.54 26.128 16.927.64.389 1.008 1.101.954 1.848l-7.469 102.05c-.107 1.459-1.864 2.131-2.911 1.11-23.901-23.82-62.632-55.203-95.094-74.799-.982-.609-1.258-1.926-.575-2.857 4.145-5.649 8.972-10.73 14.437-15.146 9.091-7.348 19.94-12.773 31.393-15.703 3.867-.989 6.537-4.716 5.838-8.645-.771-4.331-5.034-7.026-9.219-5.973-13.65 3.439-26.596 9.89-37.442 18.654-6.836 5.525-12.831 11.925-17.916 19.068-.713 1.002-2.055 1.311-3.122.7-14.507-8.313-29.396-15.974-44.564-22.908-3.839-1.757-8.386 0-10.035 3.919-1.595 3.791.362 8.149 4.101 9.861 32.164 14.743 63.036 32.746 91.578 53.587.886.648.857 1.965-.037 2.602-18.954 13.443-33.44 32.944-40.791 55.008-3.041 9.57 10.53 14.563 14.13 5.046 6.736-20.43 20.537-38.302 38.552-50.03 1.532-1.002 3.539-.926 4.972.214 23.555 18.728 41.892 36.469 52.126 46.916 1.142 1.088 3.059 2.733 2.727 4.679-.906 30.039-18.367 183.215-21.814 216.188-.412 3.809 2.569 7.135 6.401 7.141l62.796.096c3.839.006 6.833-3.324 6.42-7.141-5.277-48.804-19.897-183.825-25.704-237.501-.368-3.397.99-6.693 3.472-9.042.011-.01.021-.02.032-.03 7.578-7.323 19.265-16.526 35.062-23.224 1.912-.811 4.125-.111 5.252 1.633 4.861 7.515 10.896 14.274 17.783 19.868 16.898 13.721 35.045 17.833 47.294 18.866 4.247.374 8.084-2.973 8.131-7.382.057-3.989-3.189-7.238-7.164-7.591-14.555-.567-39.185-10.584-51.268-28.73-.904-1.245-.227-2.993 1.28-3.303 12.069-2.479 24.435-2.97 36.856-1.44 4.177.51 7.969-2.507 8.382-6.717.403-4.117-2.799-7.719-6.906-8.214-33.99-5.23-75.438 8.636-98.587 29.562-.662.557-1.676.103-1.714-.762l-3.435-79.267c-.036-.829.445-1.59 1.207-1.917 14.264-6.116 28.155-13.067 41.577-20.82.78-.45 1.758-.321 2.395.315 15.546 15.488 33.053 28.783 52.147 39.568 25.87 14.615 53.98 24.324 83.549 28.857 4.231.677 8.362-2.48 8.624-6.958.25-3.939-2.765-7.314-6.666-7.918z" fill="#e19974"/><g fill="#d77f4a"><path d="m247.991 180.005.015 42.389c.002 5.948 6.677 9.392 11.568 6.008l.132-.091-3.282-75.723c-5.498 8.086-8.437 17.639-8.433 27.417z"/><path d="m269.205 326.167-7.188-66.414c-.369-3.405.998-6.705 3.479-9.067.008-.007.015-.014.022-.022 6.414-6.198 15.784-13.737 28.085-19.97l-.017-.026c-.97-1.518-2.896-2.113-4.558-1.417-16.025 6.713-27.861 16.021-35.511 23.413l-.022.022c-5.354 4.189-3.975 13.27-3.544 17 .024.212.04.418.049.632l9.987 229.68 15.731-.759c.213 1.973-.487 3.81-1.74 5.13l7.321.011c3.839.006 6.833-3.324 6.42-7.141z"/></g><g><path d="m357.151 511.998c-.004 0-.008 0-.012 0l-214.211-.328c-4.142-.006-7.495-3.369-7.489-7.512.007-4.138 3.363-7.488 7.5-7.488h.012l214.211.328c4.142.006 7.495 3.369 7.489 7.512-.006 4.137-3.363 7.488-7.5 7.488z" fill="#d9e7ec"/></g></g></svg>