<svg id="Capa_1" enable-background="new 0 0 511.991 511.991" height="512" viewBox="0 0 511.991 511.991" width="512" xmlns="http://www.w3.org/2000/svg"><g><path d="m316.265 130.978c1.481-3.868-.454-8.205-4.322-9.686-3.874-1.48-8.205.456-9.686 4.323l-34.658 90.491c-.497 1.299-2.421.961-2.447-.429l-2.133-114.4c-.005-.292.061-.578.176-.847.103-.243.195-.492.271-.749l26.495-90.075c1.191-4.047-1.191-8.297-5.302-9.373-3.972-1.04-8.018 1.503-9.177 5.442l-20.58 69.966c-.482 1.639-2.664 1.958-3.596.526l-16.13-24.813c-2.238-3.443-6.843-4.721-10.352-2.588-3.631 2.208-4.696 6.962-2.396 10.499l26.191 40.29c.223.342.335.745.322 1.153l-4.707 149.246c-.016.513-.708.663-.935.202l-43.888-89.143c-1.83-3.716-6.325-5.247-10.041-3.416-3.717 1.83-5.246 6.325-3.416 10.042l50.086 101.731 5.056 9.901c1.247 2.442 1.87 5.154 1.814 7.895l-.278 13.605-4.737 71.832c-.051.772-1.091.978-1.433.285l-37.051-75.175c-1.831-3.716-6.33-5.243-10.043-3.412-3.716 1.831-5.243 6.328-3.412 10.043l44.038 89.351 4.171 7.851c1.193 2.246 1.687 4.798 1.417 7.326l-.208 1.952-6.166 93.467 53.736.09-8.405-127.461c-.269-4.077.895-8.124 3.291-11.434l56.959-95.601c2.112-3.563.938-8.164-2.625-10.277-3.563-2.11-8.164-.938-10.277 2.625l-48 80.93c-.432.728-1.545.462-1.601-.383l-2.775-42.009-2.723-41.277z" fill="#e19974"/><g fill="#d77f4a"><path d="m263.995 223.991-9.989 21.879c-4.083 8.942-5.881 18.759-5.234 28.568l1.737 26.333 2.078 31.464c.268 4.057 5.614 5.336 7.689 1.838l10.287-17.344-1.054-15.958-2.453-37.184c-.178-2.697.233-5.4 1.204-7.922l48.004-124.687c1.481-3.868-.454-8.205-4.322-9.686-3.874-1.48-8.205.456-9.686 4.323l-34.658 90.491z"/><path d="m258.829 365.485c-2.395 3.31-3.56 7.357-3.291 11.434l8.403 127.429 19.002.032-8.405-127.461c-.269-4.077.896-8.124 3.291-11.434l56.959-95.601c2.112-3.563.938-8.164-2.625-10.277-3.563-2.11-8.164-.938-10.277 2.625l-48 80.93z"/></g><g><path d="m355.498 511.991c-.004 0-.008 0-.012 0l-199.006-.307c-4.142-.007-7.495-3.369-7.488-7.512.007-4.138 3.363-7.488 7.5-7.488h.012l199.006.307c4.142.007 7.495 3.369 7.488 7.512-.007 4.137-3.363 7.488-7.5 7.488z" fill="#d9e7ec"/></g></g></svg>