<svg id="Capa_1" enable-background="new 0 0 512 512" height="512" viewBox="0 0 512 512" width="512" xmlns="http://www.w3.org/2000/svg"><g><g><path d="m194.896 504.195 16.101-224.724 88.144.192 14.963 224.726z" fill="#e19974"/><g><path d="m355.282 512c-.002 0-.005 0-.008 0l-201.564-.206c-4.202-.004-7.605-3.415-7.601-7.619.004-4.201 3.41-7.604 7.609-7.604h.008l201.564.206c4.202.004 7.605 3.415 7.601 7.619-.005 4.202-3.41 7.604-7.609 7.604z" fill="#d9e7ec"/></g><g><path d="m405.101 155.021c-.041 37.306-30.212 67.509-67.393 67.468-6.178-.01-12.154-.842-17.835-2.415-9.567-2.639-18.281-7.348-25.646-13.62-11.738 9.966-26.925 15.964-43.512 15.954-17.683-.02-33.762-6.881-45.764-18.085-12.032 11.174-28.122 18.004-45.804 17.984-.599 0-1.197-.01-1.786-.02-36.359-.984-65.506-30.882-65.465-67.58.03-30.091 19.671-55.564 46.778-64.261-.416-1.147-.801-2.314-1.146-3.501-1.846-6.17-2.83-12.706-2.82-19.475.041-37.298 30.202-67.511 67.383-67.47 18.068.02 34.462 7.175 46.545 18.816 12.103-11.61 28.517-18.735 46.575-18.724 34.026.041 62.117 25.382 66.622 58.264.416 3.055.629 6.17.629 9.347-.01 8.068-1.42 15.802-4.017 22.966 27.097 8.757 46.687 34.261 46.656 64.352z" fill="#80d261"/><path d="m322.704 239.559c-.041 37.296-30.212 67.509-67.393 67.468-16.587-.02-31.754-6.049-43.481-16.045-8.542 7.246-18.91 12.402-30.313 14.665-4.271.853-8.684 1.299-13.199 1.289-17.683-.01-33.762-6.871-45.764-18.075-12.032 11.174-28.122 18.004-45.804 17.983-37.181-.04-67.291-30.304-67.251-67.61.03-30.081 19.671-55.554 46.778-64.261-2.577-7.175-3.977-14.908-3.967-22.966.041-37.306 30.201-67.509 67.383-67.468 6.168 0 12.154.842 17.835 2.405 10.936 3.024 20.756 8.748 28.71 16.4 12.103-11.61 28.517-18.734 46.575-18.714 4.078 0 8.075.375 11.951 1.076 31.47 5.694 55.341 33.318 55.3 66.535-.01 8.058-1.42 15.791-4.017 22.956 21 6.79 37.486 23.636 43.826 44.877 1.847 6.17 2.842 12.706 2.831 19.485z" fill="#97da7b"/><path d="m405.101 155.021c-.041 37.306-30.212 67.509-67.393 67.468-6.178-.01-12.154-.842-17.835-2.415-6.341-21.241-22.826-38.088-43.826-44.877 2.597-7.165 4.007-14.898 4.017-22.956.041-33.217-23.83-60.841-55.3-66.535 17.855-19.323 43.38-31.441 71.664-31.441 16.546.02 32.494 4.131 46.646 11.854 5.975-3.237 12.255-5.835 18.758-7.764.416 3.055.629 6.17.629 9.347-.01 8.068-1.42 15.802-4.017 22.966 27.098 8.758 46.688 34.262 46.657 64.353z" fill="#68ca44"/><path d="m322.704 239.559c-.041 37.296-30.212 67.509-67.393 67.468-16.587-.02-31.754-6.049-43.481-16.045-8.542 7.246-18.91 12.402-30.313 14.665-16.597-18.136-25.677-41.498-25.656-66.261.01-5.815.517-11.539 1.501-17.1 4.626-26.275 19.681-49.312 41.493-64.028-.122-2.03-.183-4.059-.183-6.099.03-25.625 9.932-48.988 26.093-66.453 31.47 5.694 55.341 33.318 55.3 66.535-.01 8.058-1.42 15.791-4.017 22.956 21 6.79 37.486 23.636 43.826 44.877 1.846 6.17 2.841 12.706 2.83 19.485z" fill="#80d261"/><path d="m455.849 175.382c2.592-7.167 4.011-14.899 4.019-22.964.038-37.3-30.071-67.568-67.249-67.607-18.067-.019-34.477 7.106-46.58 18.715-12.08-11.634-28.475-18.792-46.542-18.811-37.179-.038-67.349 30.169-67.387 67.469-.008 8.065 1.396 15.799 3.973 22.972-27.11 8.704-46.751 34.173-46.782 64.264-.038 37.3 30.07 67.568 67.249 67.607 17.684.018 33.779-6.81 45.803-17.985 12.002 11.2 28.082 18.061 45.766 18.079 16.585.017 31.771-5.988 43.514-15.952 11.723 9.988 26.897 16.024 43.481 16.041 37.179.038 67.349-30.169 67.387-67.469.03-30.09-19.561-55.6-46.652-64.359z" fill="#ade194"/></g></g></g></svg>