<svg id="Capa_1" enable-background="new 0 0 512 512" height="512" viewBox="0 0 512 512" width="512" xmlns="http://www.w3.org/2000/svg"><g><g><path d="m96.619 264.335v31.5c0 23.394 18.952 42.374 42.363 42.405l87.362.069c2.767.002 5.009 2.246 5.009 5.014v36.022c0 2.121-1.333 4.017-3.334 4.716-14.44 5.044-27.377 13.289-37.969 23.878-18.229 18.214-29.493 43.38-29.493 71.178v25.271h34.612v-24.222c0-18.245 7.394-34.75 19.351-46.715 2.749-2.749 5.739-5.254 8.935-7.484 3.329-2.323 7.899.049 7.899 4.109v74.207h42.478v-73.835c0-4.063 4.596-6.462 7.904-4.103 16.8 11.977 27.756 31.625 27.756 53.821v24.222h34.612v-25.271c0-43.766-27.933-81.013-66.957-94.875-1.991-.707-3.315-2.596-3.315-4.709v-36.21c0-2.767 2.242-5.012 5.009-5.014l90.32-.07c23.4-.031 42.363-19.011 42.363-42.405v-31.384l-37.097-.115v23.163c0 7.604-6.163 13.768-13.765 13.768h-81.816c-2.768 0-5.013-2.245-5.013-5.014v-145.763l-42.478-.126v145.889c0 2.769-2.244 5.014-5.013 5.014h-78.852c-7.606 0-13.771-6.167-13.771-13.774v-23.042z" fill="#e19974"/><g fill="#d77f4a"><path d="m117.481 296.48v2.175c0 7.607 6.166 13.774 13.771 13.774h78.852c2.768 0 5.013-2.245 5.013-5.014v-6.15h-67.63c-7.606 0-13.771-6.167-13.771-13.774v-23.041l-37.097-.115v11.214c11.532.035 20.862 9.396 20.862 20.931z"/><path d="m257.595 199.064v108.351c0 2.769 2.244 5.014 5.013 5.014h81.816c6.711 0 12.293-4.806 13.512-11.164h-79.093c-2.768 0-5.013-2.245-5.013-5.014v-145.762l-42.478-.126v22.375c14.507.043 26.243 11.817 26.243 26.326z"/><path d="m277.145 384.242c-1.991-.707-3.315-2.596-3.315-4.709v-30.069l-11.226.009c-2.767.002-5.009 2.246-5.009 5.014v36.21c0 2.113 1.324 4.002 3.315 4.709 39.024 13.862 66.957 51.11 66.957 94.876v14.108h16.235v-25.271c0-43.767-27.933-81.015-66.957-94.877z"/><path d="m374.424 264.335v11.214c11.533.036 20.863 9.397 20.863 20.932v10.518c0 10.924-4.137 20.883-10.927 28.402 15.886-6.128 27.162-21.53 27.162-39.566v-31.385z"/></g><g fill="#ade194"><path d="m322.378 150.642c20.128.062 37.181-15.181 38.434-34.989.053-.83.08-1.668.082-2.511.036-16.477-9.749-30.718-23.931-37.379.13-1.311.204-2.637.207-3.981.05-22.814-18.725-41.349-41.935-41.399-.74-.002-1.476.017-2.207.052-4.848-17.502-21.104-30.394-40.452-30.435s-35.66 12.781-40.585 30.264c-.731-.039-1.466-.06-2.207-.062-23.21-.049-42.065 18.406-42.115 41.22-.003 1.344.065 2.671.19 3.982-14.21 6.601-24.058 20.8-24.094 37.277-.001.414.004.827.016 1.239.563 20.25 17.726 36.227 38.272 36.29z"/><path d="m439.56 264.529c12.511.039 23.111-9.436 23.889-21.748.033-.516.05-1.036.051-1.561.022-10.242-6.06-19.093-14.875-23.233.081-.815.127-1.639.129-2.475.031-14.181-11.639-25.701-26.065-25.732-.46-.001-.917.01-1.372.033-3.013-10.88-13.117-18.893-25.144-18.918-12.026-.026-22.165 7.944-25.226 18.811-.454-.024-.911-.037-1.372-.038-14.426-.031-26.147 11.44-26.177 25.621-.002.835.04 1.66.118 2.475-8.833 4.103-14.954 12.928-14.976 23.17-.001.258.003.514.01.77.35 12.587 11.018 22.517 23.789 22.557z"/><path d="m159.52 264.529c12.511.039 23.111-9.436 23.889-21.748.033-.516.05-1.036.051-1.561.022-10.242-6.06-19.093-14.875-23.233.081-.815.127-1.639.129-2.475.031-14.181-11.639-25.701-26.065-25.732-.46-.001-.917.01-1.372.033-3.013-10.88-13.117-18.893-25.144-18.918-12.026-.026-22.165 7.944-25.226 18.811-.454-.024-.911-.037-1.372-.038-14.426-.031-26.147 11.44-26.178 25.621-.002.835.04 1.66.118 2.475-8.833 4.103-14.954 12.928-14.976 23.17-.001.258.003.514.01.77.35 12.587 11.018 22.517 23.789 22.557z"/></g></g><g><path d="m388.184 512h-271.71c-4.203 0-7.61-3.407-7.61-7.612s3.407-7.611 7.61-7.611h271.709c4.203 0 7.61 3.407 7.61 7.611s-3.407 7.612-7.609 7.612z" fill="#d9e7ec"/></g><g fill="#80d261"><path d="m336.963 75.764c.13-1.31.204-2.637.207-3.981.018-8.12-2.358-15.691-6.461-22.086-34.887 47.697-91.255 78.684-154.868 78.684-10.062 0-19.941-.779-29.584-2.273 5.522 14.118 19.605 24.053 35.795 24.102l140.325.432c20.128.062 37.181-15.181 38.434-34.989.052-.831.08-1.668.082-2.511.037-16.476-9.749-30.717-23.93-37.378z"/><path d="m448.625 217.988c.081-.815.127-1.639.129-2.475.008-3.411-.668-6.665-1.89-9.645-32.349 25.575-73.135 40.935-117.5 41.236 2.751 9.914 12.097 17.124 22.974 17.158l87.222.268c12.511.038 23.111-9.436 23.889-21.748.033-.516.05-1.037.051-1.561.022-10.242-6.06-19.093-14.875-23.233z"/><path d="m168.586 217.988c.081-.815.127-1.639.129-2.475.01-4.574-1.203-8.869-3.328-12.593-32.295 25.043-72.799 39.998-116.795 40.133 1.044 11.94 11.397 21.17 23.707 21.208l87.222.268c12.511.038 23.111-9.436 23.889-21.748.033-.516.05-1.037.051-1.561.022-10.241-6.06-19.092-14.875-23.232z"/></g></g></svg>