<svg id="Capa_1" enable-background="new 0 0 512 512" height="512" viewBox="0 0 512 512" width="512" xmlns="http://www.w3.org/2000/svg"><g><path d="m358.006 254.301h-26.353c-4.461 0-8.077 3.623-8.077 8.092v45.223c0 8.737-7.07 15.82-15.791 15.82h-28.6c-4.165 0-7.541-3.383-7.541-7.555v-196.292h-42.514v155.009c0 4.173-3.376 7.555-7.541 7.555h-29.306c-8.712 0-15.775-7.076-15.775-15.805v-33.28c0-4.473-3.62-8.1-8.085-8.1h-26.353c-4.461 0-8.077 3.623-8.077 8.092v42.848c0 26.896 21.724 48.71 48.545 48.744l39.07.101c4.157.011 7.522 3.39 7.522 7.555v172.08h42.514v-130.797c0-4.165 3.364-7.544 7.522-7.555l38.38-.1c26.821-.034 48.545-21.848 48.545-48.744v-54.791c0-4.474-3.62-8.1-8.085-8.1z" fill="#e19974"/><g fill="#d77f4a"><path d="m250.371 134.812v187.103c0 9.247 7.483 16.744 16.713 16.744h19.428c8.52 0 15.445-6.765 15.761-15.223h-23.088c-4.165 0-7.541-3.383-7.541-7.555v-196.292h-42.514v15.223z"/><path d="m136.217 262.519c10.503 0 19.018 8.53 19.018 19.053 0 8.729 7.063 15.805 15.775 15.805h29.306c4.165 0 7.541-3.383 7.541-7.555v-7.668h-15.574c-8.712 0-15.775-7.076-15.775-15.805v-33.28c0-4.473-3.62-8.1-8.085-8.1h-26.353c-4.461 0-8.077 3.623-8.077 8.092v29.458z"/><path d="m358.006 254.301h-26.353c-4.461 0-8.077 3.623-8.077 8.092v45.696c11.732 0 21.242 9.528 21.242 21.281v3.044c0 11.602-4.049 22.252-10.798 30.622 18.705-6.786 32.071-24.75 32.071-45.845v-54.791c0-4.473-3.62-8.099-8.085-8.099z"/><path d="m271.644 381.223c-11.758.031-21.273 9.588-21.273 21.368v101.798h21.273z"/></g><g><path d="m350.515 512h-201.203c-4.196 0-7.597-3.407-7.597-7.612s3.402-7.611 7.597-7.611h201.204c4.196 0 7.597 3.407 7.597 7.611s-3.402 7.612-7.598 7.612z" fill="#d9e7ec"/></g><path d="m350.248 100.492c0 55.503-44.865 100.492-100.205 100.492-55.35 0-100.215-44.989-100.215-100.492 0-29.208 12.429-55.513 32.264-73.862 17.869-16.532 41.736-26.63 67.952-26.63 46.557 0 85.699 31.847 96.953 74.999 2.117 8.139 3.251 16.684 3.251 25.493z" fill="#af66da"/><path d="m250.042.843c-4.674 0-9.271.328-13.774.949 15.241 2.101 29.387 7.639 41.637 15.809 9.407 6.274 22.815 14.788 30.261 31.6 3.033 6.849 11.451 25.857 1.524 39.599-7.524 10.416-22.375 13.36-33.429 11.164-14.746-2.93-14.61-13.397-34.442-27.401-4.018-2.837-26.182-18.055-56.727-19.282-10.073-.405-18.477.816-24.312 2.03-3.719 2.708-10.273 7.412-12.47 15.589-1.62 6.029 1.519 12.231 1.519 29.593 0 51.835 39.133 94.494 89.39 99.907-.981.165-1.959.34-2.95.476 4.503.621 9.1.949 13.773.949 55.344 0 100.208-44.991 100.208-100.491s-44.865-100.491-100.208-100.491z" fill="#9857bd"/><ellipse cx="161.208" cy="155.897" fill="#bd80e1" rx="100.208" ry="100.491"/><path d="m219.732 74.572c8.846 14.98 13.93 32.458 13.93 51.129 0 55.5-44.865 100.491-100.208 100.491-21.847 0-42.057-7.015-58.523-18.916 17.449 29.547 49.553 49.362 86.278 49.362 55.344 0 100.208-44.991 100.208-100.491 0-33.591-16.439-63.328-41.685-81.575z" fill="#af66da"/><ellipse cx="350.792" cy="205.871" fill="#cb97e7" rx="100.208" ry="100.491"/><path d="m408.729 123.884c9.002 15.074 14.182 32.707 14.182 51.555 0 55.5-44.865 100.491-100.208 100.491-21.587 0-41.579-6.846-57.937-18.49 17.505 29.311 49.479 48.936 86.027 48.936 55.344 0 100.208-44.991 100.208-100.491-.001-33.852-16.693-63.793-42.272-82.001z" fill="#bd80e1"/></g></svg>