<svg id="Capa_1" enable-background="new 0 0 512 512" height="512" viewBox="0 0 512 512" width="512" xmlns="http://www.w3.org/2000/svg"><g><path d="m405.719 270.221h-25.273c-4.277 0-7.743 3.466-7.743 7.742v77.481c0 8.351-6.771 15.12-15.123 15.12h-71.785c-4.737 0-8.578-3.84-8.578-8.576v-220.522h-40.759v261.018c0 4.737-3.84 8.576-8.578 8.576h-72.446c-8.353 0-15.124-6.77-15.124-15.121v-77.48c0-4.276-3.467-7.741-7.743-7.741h-25.274c-4.276 0-7.743 3.466-7.743 7.741v86.633c0 25.707 20.826 46.556 46.537 46.589l81.804.104c4.733.006 8.567 3.844 8.567 8.576v44.028h40.759v-84.524c0-4.732 3.834-8.57 8.567-8.576l81.142-.103c25.711-.033 46.537-20.882 46.537-46.589v-86.633c-.001-4.277-3.467-7.743-7.744-7.743z" fill="#e19974"/><g fill="#d77f4a"><path d="m101.282 370.594c10.343 0 18.727 8.383 18.727 18.724v4.84c0 20.545 16.658 37.2 37.206 37.2h38.641c11.212 0 20.301-9.087 20.301-20.297h-60.723c-8.353 0-15.124-6.77-15.124-15.121v-77.48c0-4.276-3.467-7.741-7.743-7.741h-25.274c-4.276 0-7.743 3.466-7.743 7.742v52.136h1.732z"/><path d="m256.916 195.519v186.766c0 4.737 3.84 8.576 8.578 8.576h66.608c11.212 0 20.301-9.087 20.301-20.297h-66.607c-4.737 0-8.578-3.84-8.578-8.576v-220.522h-40.759v33.599c11.298-.001 20.457 9.157 20.457 20.454z"/><path d="m277.217 431.57c-11.216.014-20.301 9.109-20.301 20.323v52.495h20.301z"/><path d="m405.719 270.221h-25.273c-4.277 0-7.743 3.466-7.743 7.742v45.031c11.299 0 20.459 9.158 20.459 20.455v41.444c0 7.633-1.848 14.831-5.103 21.19 15.078-7.715 25.403-23.392 25.403-41.487v-86.634c0-4.275-3.466-7.741-7.743-7.741z"/></g><g><path d="m359.005 512h-206.01c-4.204 0-7.613-3.407-7.613-7.612s3.408-7.611 7.613-7.611h206.01c4.204 0 7.613 3.407 7.613 7.611s-3.409 7.612-7.613 7.612z" fill="#d9e7ec"/></g><g fill="#ade194"><path d="m256.697 0c-40.492 0-73.318 31.815-73.318 71.061v68.89c0 13.34 11.158 24.154 24.921 24.154 11.709 0 21.527-7.829 24.199-18.379 2.672 10.55 12.49 18.379 24.199 18.379 11.709 0 21.527-7.829 24.199-18.379 2.672 10.55 12.49 18.379 24.199 18.379 13.763 0 24.921-10.814 24.921-24.154v-68.89c-.002-39.246-32.828-71.061-73.32-71.061z"/><path d="m393.296 159.623c-36.011 0-65.204 29.186-65.204 65.188v63.197c0 12.237 9.923 22.158 22.163 22.158 10.413 0 19.145-7.182 21.521-16.86 2.376 9.678 11.107 16.86 21.521 16.86 10.413 0 19.145-7.182 21.521-16.86 2.376 9.678 11.107 16.86 21.521 16.86 12.24 0 22.163-9.92 22.163-22.158v-63.197c-.002-36.002-29.195-65.188-65.206-65.188z"/><path d="m120.143 207.07c-36.806 0-66.643 29.83-66.643 66.627v64.592c0 12.507 10.142 22.647 22.652 22.647 10.643 0 19.567-7.34 21.996-17.232 2.428 9.892 11.353 17.232 21.996 17.232 10.643 0 19.567-7.34 21.996-17.232 2.428 9.892 11.353 17.232 21.996 17.232 12.51 0 22.652-10.139 22.652-22.647v-64.592c-.001-36.797-29.839-66.627-66.645-66.627z"/></g><path d="m183.4 140.789c.456 12.951 11.426 23.316 24.899 23.316 11.709 0 21.527-7.829 24.198-18.379 2.672 10.55 12.49 18.379 24.199 18.379s21.527-7.829 24.199-18.379c2.672 10.55 12.49 18.379 24.199 18.379 13.763 0 24.921-10.814 24.921-24.154v-68.89c0-6.473-.91-12.737-2.583-18.696-30.79 49.004-83.297 82.973-144.032 88.424z" fill="#80d261"/><path d="m328.092 282.482v5.526c0 12.237 9.923 22.157 22.163 22.157 10.413 0 19.145-7.181 21.52-16.86 2.376 9.678 11.107 16.86 21.521 16.86 10.413 0 19.145-7.181 21.521-16.86 2.376 9.678 11.107 16.86 21.52 16.86 12.24 0 22.163-9.92 22.163-22.157v-63.197c0-7.413-1.255-14.528-3.535-21.167-29.171 41.513-74.508 70.847-126.873 78.838z" fill="#80d261"/><path d="m53.5 331.208v7.081c0 12.507 10.142 22.647 22.652 22.647 10.643 0 19.567-7.34 21.996-17.232 2.428 9.892 11.353 17.232 21.996 17.232s19.567-7.34 21.996-17.232c2.428 9.892 11.353 17.232 21.996 17.232 12.511 0 22.652-10.139 22.652-22.647v-64.592c0-1.352-.053-2.69-.132-4.022-33.3 36.283-80.495 59.6-133.156 61.533z" fill="#80d261"/></g></svg>