<svg id="Capa_1" enable-background="new 0 0 512 512" height="512" viewBox="0 0 512 512" width="512" xmlns="http://www.w3.org/2000/svg"><g><path d="m385.738 275.517h-24.713c-4.171 0-7.552 3.388-7.552 7.566v75.729c0 8.162-6.615 14.778-14.775 14.778h-70.892c-4.205 0-7.614-3.415-7.614-7.628v-216.288h-39.818v144.233c0 4.213-3.409 7.628-7.614 7.628h-71.539c-8.16 0-14.775-6.616-14.775-14.778v-75.717c0-4.186-3.387-7.579-7.565-7.579h-24.688c-4.178 0-7.565 3.393-7.565 7.579v84.662c0 25.126 20.346 45.503 45.466 45.535l80.675.103c4.201.005 7.605 3.419 7.605 7.628v155.42h39.818v-83.365c0-4.209 3.403-7.623 7.605-7.628l80.028-.102c25.119-.032 45.466-20.409 45.466-45.535v-84.674c0-4.179-3.381-7.567-7.553-7.567z" fill="#e19974"/><g fill="#d77f4a"><path d="m86.629 266.891c20.462-1.503 21.078 9.454 21.078 21.117v17.525c0 8.162 6.615 14.778 14.775 14.778h71.539c4.205 0 7.614-3.415 7.614-7.629v-11.146h-60.413c-8.16 0-14.775-6.616-14.775-14.778v-75.718c0-4.186-3.387-7.579-7.565-7.579h-24.689c-4.178 0-7.565 3.393-7.565 7.579z"/><path d="m241.452 227.115v145.228c0 11.059 8.948 20.023 19.986 20.023h58.52c8.16 0 14.775-6.616 14.775-14.778v-3.997h-66.926c-4.205 0-7.614-3.415-7.614-7.629v-216.288h-39.818v56.325c11.64 0 21.077 9.454 21.077 21.116z"/><path d="m385.738 275.517h-24.713c-4.171 0-7.552 3.388-7.552 7.566v55.863c11.641 0 21.078 9.454 21.078 21.117v26.47c0 7.733-1.933 15.012-5.334 21.391 14.326-7.67 24.074-22.778 24.074-40.166v-84.674c0-4.179-3.381-7.567-7.553-7.567z"/><path d="m260.192 432.155c-10.354.013-18.74 8.426-18.74 18.799v53.434h18.74z"/></g><g><path d="m343.436 512h-201.252c-4.196 0-7.597-3.407-7.597-7.612s3.402-7.611 7.597-7.611h201.253c4.196 0 7.597 3.407 7.597 7.611s-3.402 7.612-7.598 7.612z" fill="#d9e7ec"/></g><g fill="#cb97e7"><ellipse cx="239.96" cy="93.875" rx="93.852" ry="93.875"/><ellipse cx="373.889" cy="244.583" rx="77.111" ry="77.13"/><ellipse cx="105.136" cy="205.51" rx="44.136" ry="44.147"/></g><path d="m319.006 43.246c-18.031 64.871-75.622 113.217-145.094 117.317 16.959 16.805 40.29 27.187 66.048 27.187 51.833 0 93.852-42.029 93.852-93.875 0-18.645-5.435-36.021-14.806-50.629z" fill="#bd80e1"/><path d="m315.208 294.593c14.144 16.588 35.177 27.12 58.681 27.12 42.587 0 77.111-34.532 77.111-77.13 0-13.901-3.695-26.931-10.129-38.195-21.19 49.653-69.124 85.112-125.663 88.205z" fill="#bd80e1"/><path d="m65.369 224.683c7.135 14.778 22.26 24.974 39.767 24.974 24.376 0 44.136-19.765 44.136-44.147 0-6.424-1.383-12.521-3.85-18.027-20.075 21.821-48.419 35.883-80.053 37.2z" fill="#bd80e1"/></g></svg>