<svg id="Capa_1" enable-background="new 0 0 512 512" height="512" viewBox="0 0 512 512" width="512" xmlns="http://www.w3.org/2000/svg"><g><path d="m405.482 355.13c-2.429-3.433-7.181-4.248-10.616-1.824l-98.591 69.626c-2.466 1.741-5.888.111-6.087-2.9l-7.569-114.656c1.826-1.302 3.605-2.741 4.312-3.338l72.208-60.97c3.213-2.713 3.617-7.515.902-10.726s-7.521-3.614-10.734-.901l-62.612 52.867c-2.197 1.855-5.572.423-5.762-2.445l-7.89-119.336-5.656-85.609-5.656 85.609-8.538 129.132-2.693 40.827c-.327 4.96-5.985 7.624-10.022 4.72l-96.495-69.439c-3.385-2.436-8.214-1.953-10.752 1.354-2.626 3.422-1.887 8.311 1.59 10.812l111.795 80.288c.707.508 1.105 1.343 1.052 2.212l-8.649 143.744 56.732.085-3.794-57.411c-.081-1.22.479-2.394 1.477-3.101l110.221-78.011c3.438-2.427 4.255-7.177 1.827-10.609z" fill="#e19974"/><path d="m290.188 420.032-7.569-114.656-1.686-25.514-7.89-119.336-5.656-85.609-7.212 113.596c-.075 1.182-.099 2.366-.072 3.55l7.069 312.155 28.582.043-3.794-57.411z" fill="#d77f4a"/><g><path d="m374.821 512c-.004 0-.008 0-.012 0l-210.102-.323c-4.206-.007-7.612-3.419-7.605-7.623.007-4.199 3.416-7.6 7.617-7.6h.012l210.102.323c4.206.007 7.612 3.419 7.605 7.623-.007 4.2-3.416 7.6-7.617 7.6z" fill="#d9e7ec"/></g><g fill="#fd8087"><ellipse cx="267.387" cy="80.364" rx="80.502" ry="80.364"/><ellipse cx="115.387" cy="250.079" rx="87.387" ry="87.237"/><ellipse cx="421.505" cy="350.005" rx="62.495" ry="62.388"/><ellipse cx="347.359" cy="234.747" rx="36.014" ry="35.952"/></g><path d="m216.9 128.381c-4.944 0-9.823-.272-14.63-.787 14.636 20.074 38.342 33.134 65.117 33.134 44.46 0 80.502-35.98 80.502-80.364 0-11.641-2.5-22.693-6.96-32.68-21.058 47.53-68.664 80.697-124.029 80.697z" fill="#fe646f"/><path d="m188.817 202.811c-16.24 56.642-68.449 98.096-130.349 98.096-4.948 0-9.832-.272-14.642-.789 15.807 22.485 41.955 37.197 71.562 37.197 48.262 0 87.387-39.057 87.387-87.237-.002-17.425-5.14-33.644-13.958-47.267z" fill="#fe646f"/><path d="m467.321 307.592c-8.928 44.922-47.522 79.167-94.524 81.482 11.455 14.214 29.012 23.318 48.708 23.318 34.515 0 62.495-27.932 62.495-62.388 0-16.381-6.334-31.28-16.679-42.412z" fill="#fe646f"/><path d="m375.526 212.356c-10.009 23.158-32.911 39.434-59.669 39.814 6.145 11.048 17.946 18.529 31.502 18.529 19.89 0 36.014-16.096 36.014-35.952 0-8.469-2.94-16.247-7.847-22.391z" fill="#fe646f"/></g></svg>