<svg id="Capa_1" enable-background="new 0 0 512 512" height="512" viewBox="0 0 512 512" width="512" xmlns="http://www.w3.org/2000/svg"><g><path d="m408.386 253.742c-14.548 0-22.446 0-36.994 0-3.608 9.593-10.897 25.252-25.355 40.395-8.973 9.398-18.323 16.095-26.587 20.861l-15.09-224.614-91.466-.188-21.312 277.464c-8.385-4.783-17.94-11.57-27.096-21.16-14.458-15.143-21.747-30.802-25.355-40.395-14.548 0-22.446 0-36.994 0 8.198 16.808 15.643 40.819 39.072 64.549 16.481 16.692 33.182 26.502 47.555 33.695l-7.674 99.907 154.194.132-13.087-152.622c14.274-7.173 30.803-16.953 47.118-33.476 23.429-23.729 30.873-47.74 39.071-64.548z" fill="#e19974"/><path d="m188.764 404.35-7.674 99.907 154.194.131-13.087-152.622-2.747-36.768-15.09-224.614-91.466-.188-21.312 277.464z" fill="#e19974"/><path d="m322.197 351.766-2.746-36.768-8.787-130.8-6.303-93.815-91.466-.188-.006.079-7.214 93.923c37.433 0 67.541 2.03 70.976 66.503l4.32 64.297 2.746 36.768 13.084 152.59 38.484.033z" fill="#d77f4a"/><g><path d="m384.389 512h-252.8c-4.195 0-7.595-3.407-7.595-7.612s3.4-7.611 7.595-7.611h252.8c4.195 0 7.595 3.407 7.595 7.611s-3.4 7.612-7.595 7.612z" fill="#d9e7ec"/></g><g fill="#ade194"><path d="m327.293 147.504c19.667.061 36.33-14.865 37.554-34.26.051-.813.078-1.633.08-2.458.035-16.134-9.526-30.078-23.383-36.6.127-1.283.199-2.583.202-3.898.049-22.339-18.296-40.488-40.975-40.536-.723-.002-1.442.016-2.157.051-4.736-17.14-20.619-29.763-39.525-29.803-18.905-.04-34.844 12.515-39.656 29.634-.714-.038-1.433-.059-2.156-.06-22.678-.048-41.102 18.022-41.151 40.361-.003 1.316.063 2.615.185 3.899-13.885 6.463-23.507 20.366-23.542 36.5-.001.406.004.81.015 1.213.55 19.828 17.321 35.472 37.396 35.534z"/><path d="m180.189 322.955c13.995.043 25.852-10.578 26.723-24.379.037-.579.056-1.162.057-1.749.025-11.481-6.779-21.403-16.639-26.044.091-.913.142-1.838.144-2.774.035-15.896-13.019-28.81-29.157-28.845-.515-.001-1.026.012-1.535.036-3.371-12.196-14.673-21.178-28.126-21.207s-24.794 8.906-28.218 21.087c-.508-.027-1.02-.042-1.534-.043-16.138-.034-29.248 12.824-29.282 28.72-.002.936.045 1.861.132 2.774-9.88 4.599-16.727 14.492-16.752 25.973-.001.289.003.576.011.863.391 14.109 12.325 25.241 26.61 25.285z"/><path d="m429.22 270.591c13.995.043 25.852-10.578 26.723-24.379.036-.579.056-1.162.057-1.749.025-11.481-6.779-21.403-16.639-26.044.091-.913.142-1.838.144-2.774.035-15.896-13.019-28.81-29.157-28.845-.515-.001-1.026.012-1.535.036-3.371-12.196-14.673-21.178-28.126-21.207s-24.794 8.906-28.218 21.087c-.508-.027-1.02-.042-1.534-.043-16.138-.034-29.248 12.824-29.282 28.72-.002.936.045 1.861.132 2.774-9.88 4.599-16.727 14.492-16.752 25.973-.001.289.003.576.011.863.391 14.109 12.325 25.241 26.61 25.285z"/></g><path d="m341.544 74.186c.127-1.283.199-2.583.202-3.898.02-9.124-3.031-17.547-8.19-24.326-35.702 45.256-90.964 74.3-152.999 74.3-9.131 0-18.11-.644-26.907-1.861 3.715 16.462 18.835 28.626 36.531 28.68l137.113.423c19.667.061 36.33-14.865 37.554-34.26.051-.813.078-1.633.08-2.458.034-16.134-9.527-30.078-23.384-36.6z" fill="#80d261"/><g><path d="m107.795 318.568c7.697 17.385 24.891 28.598 43.868 28.657l13.569.042c-.249-.256-.498-.506-.746-.766-14.239-14.914-21.517-30.315-25.181-39.942-10.096 4.791-20.669 8.734-31.627 11.747.039.087.078.174.117.262z" fill="#d77f4a"/></g><g><path d="m347.396 292.666 16.19.05c16.575.051 31.646-9.681 38.402-24.849 2.269-5.093 4.309-9.843 6.398-14.125h-15.713c-8.33 4.204-17.006 7.817-25.967 10.805-4.094 8.302-10.224 18.272-19.31 28.119z" fill="#d77f4a"/></g><path d="m439.361 218.419c.091-.913.142-1.838.144-2.774.011-5.054-1.305-9.804-3.619-13.937-34.313 31.127-79.734 50.174-129.592 50.471 3.451 10.53 13.606 18.075 25.359 18.111l97.567.301c13.995.043 25.852-10.578 26.723-24.379.036-.579.055-1.162.057-1.749.025-11.48-6.779-21.403-16.639-26.044z" fill="#80d261"/><path d="m190.329 270.783c.091-.913.142-1.838.144-2.774.013-6.06-1.88-11.683-5.117-16.328-34.332 30.545-79.494 49.131-128.993 49.222 2.096 12.389 13.19 21.711 26.258 21.751l97.567.301c13.995.043 25.852-10.578 26.723-24.379.037-.579.056-1.162.057-1.749.025-11.48-6.778-21.403-16.639-26.044z" fill="#80d261"/></g></svg>