<svg id="Capa_1" enable-background="new 0 0 512.001 512.001" height="512" viewBox="0 0 512.001 512.001" width="512" xmlns="http://www.w3.org/2000/svg"><g><path d="m423.16 199.328c-44.265-6.747-85.698-27.49-117.586-58.824 13.753-7.435 105.335-78.856 88.645-92.474-3.293-2.604-8.071-2.04-10.669 1.26-17.417 22.121-37.41 42.065-59.502 59.402-17.82-2.455-37.059-23.678-38.467-40.448-1.561-9.742-16.814-7.076-14.964 2.63.667 14.714 19.339 42.853 38.551 48.88-20.083 14.116-41.629 26.119-64.214 35.769-50.66-31.007-95.476-71.306-131.68-118.395-5.851-7.853-18.208 1.533-12.03 9.297 38.075 49.263 85.121 91.932 138.721 123.686-1.894 27.014-4.756 62.086-8.098 100.046-15.768-20.286-62.225-52.577-70.515-59.363-11.182-6.498-84.205-58.848-89.422-41.772-1.753 3.822-.083 8.342 3.729 10.097 30.756 14.17 60.193 31.538 87.435 51.659-18.603 12.908-32.756 31.917-39.815 53.473-3.216 9.288 11.395 14.249 14.422 4.784 6.55-20.032 20.271-37.453 38.196-48.488 15.669 12.363 38.72 33.669 54.225 49.217-6.952 77.244-15.474 162.419-21.71 214.622h72.58c-5.5-44.034-12.231-111.617-18.013-178.103 11.927-9.498 29.281-19.644 43.236-23.438 13.239-3.593 26.944-4.551 40.745-2.849 9.738 1.354 11.673-14.054 1.855-15.11-15.756-1.942-31.425-.844-46.574 3.267-6.696 1.811-29.042 9.989-40.868 19.411-4.421-52.301-8.118-102.448-10.008-138.234 14.046-6.025 27.71-12.917 40.89-20.635 14.824 15.008 31.564 27.873 49.851 38.279 11.382 6.827 83.213 40.276 87.406 21.037.636-4.156-2.206-8.043-6.352-8.683z" fill="#e19974"/><g><path d="m251.288 168.419-5.274 22.083c-.486 2.035-.774 4.121-.729 6.213 0 .012.001.023.001.035l6.96 307.582 28.143.042z" fill="#d77f4a"/></g><path d="m205.318 128.47c-29.732-22.484-56.709-48.313-80.553-77.007-2.953 4.795-5.225 10.058-6.665 15.658 21.682 25.3 45.717 48.319 71.957 68.796 5.493-1.713 10.623-4.247 15.261-7.447z" fill="#d77f4a"/><path d="m161.351 210.796c-12.49-8.726-25.41-16.917-38.666-24.52-3.426 3.743-6.21 8.085-8.181 12.852 16.82 9.616 33.033 20.159 48.588 31.652-9.867 6.867-18.613 15.501-25.577 25.349 5.053 2.195 10.601 3.452 16.429 3.57 6.198-7.591 13.655-13.992 21.951-19.15 2.998 2.365 5.96 4.778 8.904 7.212 3.694-3.501 6.779-7.639 9.079-12.243-10.523-8.674-21.379-16.933-32.527-24.722z" fill="#d77f4a"/><g><path d="m345.806 512c.006.001-200.889-.311-200.889-.31-4.194-.007-7.59-3.419-7.584-7.623.007-4.203 3.414-7.606 7.607-7.6l200.877.31c9.791-.13 9.878 15.369-.011 15.223z" fill="#d9e7ec"/></g><g fill="#fd8087"><circle cx="100.607" cy="188.012" r="43.514"/><circle cx="135.686" cy="57.062" r="57.062"/><circle cx="384.436" cy="51.968" r="50.077"/><circle cx="398.651" cy="206.851" r="56.253"/></g><path d="m144.118 188.01c0 24.03-19.48 43.52-43.51 43.52-19.75 0-36.42-13.16-41.73-31.19 5.67 2.71 12.02 4.23 18.73 4.23 24.03 0 43.51-19.48 43.51-43.51 0-4.29-.62-8.42-1.78-12.33 14.66 7 24.78 21.96 24.78 39.28z" fill="#fe646f"/><path d="m192.748 57.06c0 31.52-25.55 57.06-57.06 57.06-23.82 0-44.22-14.59-52.77-35.32 8.67 5.31 18.86 8.37 29.76 8.37 31.52 0 57.07-25.55 57.07-57.06 0-7.7-1.53-15.04-4.3-21.74 16.37 10.03 27.3 28.08 27.3 48.69z" fill="#fe646f"/><path d="m434.517 51.97c0 27.65-22.42 50.07-50.08 50.07-21.72 0-40.21-13.83-47.15-33.15 7.16 3.95 15.39 6.2 24.14 6.2 27.66 0 50.08-22.42 50.08-50.08 0-5.94-1.03-11.63-2.93-16.92 15.471 8.52 25.94 24.97 25.94 43.88z" fill="#fe646f"/><path d="m454.908 206.85c0 31.07-25.19 56.25-56.26 56.25-23.57 0-43.76-14.5-52.13-35.07 8.49 5.15 18.46 8.12 29.13 8.12 31.07 0 56.25-25.19 56.25-56.25 0-7.5-1.46-14.65-4.13-21.19 16.27 9.86 27.14 27.73 27.14 48.14z" fill="#fe646f"/></g></svg>