<svg id="Capa_1" enable-background="new 0 0 512 512" height="512" viewBox="0 0 512 512" width="512" xmlns="http://www.w3.org/2000/svg"><g><path d="m45.984 490.138c.03-18.598 2.73-49.406 18.846-82.651 15.659-32.311 36.555-51.549 48.105-61.97 19.09-17.247 35.713-26.48 73.07-45.322 13.376-6.745 24.844-12.433 34.779-17.268 9.763-5.333 13.711-12.504 12.341-21.991-2.07-14.363-10.321-31.193-17.375-53.712-5.156-16.485-9.682-36.018-10.656-59.868 7.754 21.91 23.088 41.808 36.819 60.091 12.209 16.281 23.139 31.282 26.259 45.261.847 3.794 5.05 5.783 8.584 4.17 11.814-5.394 15.524-7.31 25.795-14.022 14.005-9.152 30.213-21.899 46.745-40.183 13.853-15.328 27.939-34.545 41.122-58.781-1.735 24.601-7.337 46.206-15.477 65.18-30.71 71.61-97.569 105.952-129.751 123.494-.071.041-.152.081-.233.132-6.698 3.596-50.55 25.261-82.326 49.121-12.178 9.142-26.691 25.617-30.375 35.612-13.071 35.388 5.003 52.036 2.152 72.839z" fill="#e19974"/><path d="m370.849 217.907c-11.23 10.485-22.029 18.589-31.762 24.949-6.43 4.201-10.289 6.524-15.174 8.997-8.391 4.247-18.523.437-22.216-8.218-.025-.058-.05-.116-.075-.175-9.564 6.217-13.421 8.193-24.864 13.417-3.582 1.635-7.742-.448-8.613-4.29-.689-3.04-1.763-6.132-3.121-9.272 2.167 6.347 3.849 12.164 4.635 17.621 1.37 9.487-1.735 16.648-9.854 23.758-9.134 9.142-17.801 11.803-31.176 18.547-37.358 18.842-53.981 28.075-73.07 45.322-11.55 10.422-38.535 26.613-54.194 58.923-16.116 33.245-18.816 64.052-18.846 82.651l51.896.078c2.813-20.777-15.218-37.427-2.158-72.784 3.684-9.995 18.197-26.47 30.375-35.612 31.776-23.86 75.628-45.526 82.326-49.121.081-.051.163-.091.233-.132 30.825-16.802 93.444-49.042 125.658-114.659z" fill="#d77f4a"/><g><path d="m512 149.835c0 32.727-26.529 59.258-59.268 59.258-14.594 0-27.96-5.282-38.291-14.038-10.332 8.756-23.687 14.038-38.291 14.038-8.424 0-16.431-1.757-23.677-4.916-6.17-2.692-11.782-6.399-16.634-10.909-10.575 9.822-24.732 15.825-40.3 15.825-32.729 0-59.268-26.531-59.268-59.258 0-26.399 17.273-48.766 41.132-56.424-2.283-6.298-3.521-13.083-3.521-20.152 0-14.84 5.45-28.41 14.472-38.801 10.859-12.535 26.904-20.458 44.796-20.458 15.903 0 30.344 6.267 40.991 16.465 10.636-10.198 25.077-16.465 40.99-16.465 32.729 0 59.258 26.531 59.258 59.258 0 7.07-1.238 13.855-3.522 20.152 23.86 7.659 41.133 30.026 41.133 56.425z" fill="#80d261"/><path d="m364.195 163.639c0 14.891-4.293 28.796-11.722 40.538-6.17-2.692-11.782-6.399-16.634-10.909-10.575 9.822-24.732 15.825-40.3 15.825-32.729 0-59.268-26.531-59.268-59.258 0-26.399 17.273-48.766 41.132-56.424-2.283-6.298-3.521-13.083-3.521-20.152 0-14.84 5.45-28.41 14.472-38.801 27.27 11.356 46.552 38.141 46.897 69.395 17.953 14.108 28.944 35.896 28.944 59.786z" fill="#68ca44"/></g><g><path d="m208.614 498c-.004 0-.008 0-.012 0l-201.002-.309c-4.203-.007-7.607-3.422-7.6-7.63.007-4.203 3.413-7.606 7.611-7.606h.012l201.003.31c4.203.007 7.607 3.422 7.6 7.63-.007 4.202-3.413 7.605-7.612 7.605z" fill="#d9e7ec"/></g><g fill="#ade194"><path d="m302.104 120.223c1.751-4.841 2.707-10.062 2.707-15.507 0-25.184-20.418-45.599-45.604-45.599-12.239 0-23.351 4.822-31.543 12.668-8.191-7.846-19.303-12.668-31.543-12.668-25.186 0-45.604 20.415-45.604 45.599 0 5.445.956 10.666 2.707 15.507-18.359 5.895-31.648 23.105-31.648 43.421 0 25.184 20.418 45.599 45.604 45.599 11.98 0 22.878-4.621 31.017-12.175 8.138 7.554 19.037 12.175 31.017 12.175 11.235 0 21.519-4.065 29.467-10.8 7.948 6.736 18.232 10.8 29.467 10.8 25.186 0 45.604-20.415 45.604-45.599.001-20.316-13.288-37.526-31.648-43.421z"/><path d="m302.062 119.996c1.736-4.846 2.677-10.07 2.66-15.515-.076-25.184-20.556-45.537-45.742-45.46-12.239.037-23.337 4.893-31.504 12.764-8.215-7.821-19.342-12.609-31.581-12.572-25.186.077-45.542 20.554-45.466 45.737.017 5.445.989 10.663 2.754 15.499-18.341 5.951-31.578 23.201-31.516 43.517.076 25.184 20.556 45.537 45.742 45.46 11.98-.036 22.864-4.691 30.979-12.269 8.161 7.529 19.074 12.117 31.053 12.08 11.235-.034 21.507-4.13 29.434-10.89 7.969 6.712 18.265 10.745 29.5 10.711 25.186-.077 45.542-20.554 45.466-45.737-.061-20.316-13.402-37.485-31.779-43.325z"/></g></g></svg>