<svg id="Capa_1" enable-background="new 0 0 512 512" height="512" viewBox="0 0 512 512" width="512" xmlns="http://www.w3.org/2000/svg"><g><path d="m297.903 504.388h101.669c-5.337-27.653-14.964-62.749-33.054-100.803-11.093-23.335-23.203-43.229-34.723-59.746-2.228-3.194-1.583-7.553 1.482-9.954 8.018-6.28 16.604-14 25.072-23.428 14.466-16.106 24.485-32.634 31.463-47.253 2.451-5.134-3.954-9.886-8.132-6.027-13.464 12.438-30.621 25.588-51.925 36.905-11.764 6.249-23.064 11.021-33.466 14.695-3.25 1.148-6.855-.105-8.666-3.039-9.312-15.081-19.198-34.712-26.289-58.731-11.271-38.179-11.197-72.943-8.029-99.307.7-5.824-7.342-8.098-9.786-2.767-5.44 11.868-10.638 25.449-14.864 40.672-5.029 18.113-7.627 34.748-8.888 49.039-.414 4.697-5.117 7.812-9.574 6.282-16.9-5.802-33.148-19.641-47.917-37.923-15.284-18.92-34.091-31.552-46.891-46.437-3.784-4.401-10.816-.128-8.68 5.272 9.113 23.043 23.971 51.46 48.423 79.029 19.855 22.385 40.493 37.963 57.356 48.556 4.215 2.648 8.003 5.932 11.221 9.73 19.459 22.966 33.257 44.135 42.735 60.426 10.878 18.697 20.006 34.423 26.329 52.574 1.062 3.049-.033 6.431-2.657 8.31-10.541 7.546-22.78 17.737-34.905 31.22-17.156 19.078-27.981 37.958-34.721 52.192h40.849c1.727-6.478 6.262-19.856 18.382-31.725 3.579-3.504 7.222-6.293 10.654-8.509 4.989-3.222 11.505.659 11.185 6.592-.381 7.046-1.388 17.239-3.653 34.155z" fill="#e19974"/><path d="m337.05 470.235c-.379 7.044-1.387 17.238-3.652 34.154h66.173c-5.337-27.653-14.964-62.749-33.053-100.803-11.093-23.335-23.204-43.229-34.724-59.746-2.228-3.194-1.583-7.553 1.482-9.953 8.018-6.28 16.604-14 25.072-23.428 6.63-7.382 12.316-14.85 17.213-22.185-3.326 1.979-6.756 3.922-10.311 5.811-11.764 6.249-23.065 11.021-33.466 14.694-3.25 1.148-6.855-.105-8.667-3.039-1.269-2.055-2.548-4.202-3.829-6.425-8.005 3.773-15.726 6.895-23 9.464-3.25 1.148-6.855-.105-8.667-3.039-9.312-15.081-19.198-34.712-26.289-58.731-2.097-7.104-3.8-14.089-5.165-20.924-.351 2.928-.662 5.8-.906 8.56-.414 4.697-5.117 7.812-9.574 6.282-8.555-2.937-16.94-7.939-25.053-14.528-.335 2.818-.634 5.585-.869 8.246-.414 4.697-5.117 7.812-9.574 6.282-16.321-5.603-32.029-18.715-46.39-36.074 7.331 11.823 16.163 23.999 26.821 36.015 19.855 22.385 40.493 37.963 57.356 48.556 4.215 2.648 8.002 5.932 11.221 9.73 19.459 22.966 33.257 44.135 42.735 60.426 10.878 18.697 20.006 34.423 26.328 52.574 2.669 6.953 5.345 15.616 7.096 25.76 2.18 12.625 2.262 23.703 1.692 32.321z" fill="#d77f4a"/><path d="m454.128 239.282c-3.156-.722-6.308-.97-9.388-.81-6.021-15.614-19.429-28.045-36.94-32.051-26.892-6.152-53.661 9.811-61.387 35.949-12.935-2.501-25.613 5.706-28.568 18.675-3.017 13.245 5.252 26.434 18.469 29.457 6.327 1.447 12.637.298 17.831-2.74 7.133 9.875 17.725 17.306 30.517 20.232 14.843 3.395 29.651.054 41.241-8.016 3.746 2.844 8.134 4.963 13.014 6.079 18.4 4.209 36.722-7.327 40.922-25.766s-7.311-36.8-25.711-41.009z" fill="#57be92"/><path d="m319.992 127.826c-5.206-2.33-8.074-8.037-6.885-13.625.738-3.465 1.127-7.058 1.127-10.744 0-28.441-23.007-51.497-51.388-51.497-.486 0-.97.007-1.453.021-4.975.142-9.535-2.843-11.507-7.423-11.289-26.209-37.296-44.558-67.593-44.558-30.032 0-55.861 18.024-67.309 43.865-1.97 4.447-6.452 7.176-11.307 7.168-.029 0-.057 0-.086 0-28.381 0-51.388 23.056-51.388 51.497 0 4.001.455 7.896 1.317 11.635 1.298 5.631-1.371 11.453-6.607 13.875-14.41 6.666-24.223 21.608-23.361 38.747 1.04 20.654 17.83 37.344 38.448 38.233 8.923.385 18.56-2.146 25.399-6.717 3.299-2.205 7.566-2.285 10.858-.07 6.404 4.308 12.781 6.825 21.074 6.825 9.967 0 21.738-2.3 28.77-8.311 3.646-3.116 8.934-3.116 12.579 0 7.031 6.011 13.498 8.311 23.464 8.311 8.295 0 15.999-2.518 22.403-6.827 3.252-2.188 7.495-2.188 10.747 0 6.405 4.309 14.109 6.827 22.403 6.827 9.761 0 18.707-2.154 25.676-7.945 3.653-3.035 8.874-3.043 12.526-.007 7.358 6.117 16.92 8.331 27.319 7.919 20.662-.82 38.37-19.073 38.639-39.794.219-16.663-9.645-31.042-23.865-37.405z" fill="#7acaa6"/><g><path d="m480.894 512h-296.152c-4.201 0-7.606-3.407-7.606-7.612s3.405-7.611 7.606-7.611h296.151c4.201 0 7.606 3.407 7.606 7.611s-3.404 7.612-7.605 7.612z" fill="#d9e7ec"/></g><path d="m319.992 127.826c-5.206-2.33-8.074-8.037-6.885-13.625.737-3.465 1.127-7.058 1.127-10.744 0-15.49-6.834-29.371-17.634-38.812-41.737 66.908-115.96 111.434-200.587 111.434-25.297 0-49.658-3.994-72.507-11.358 0 .685.011 1.372.046 2.065 1.04 20.655 17.83 37.345 38.448 38.234 8.924.385 18.56-2.146 25.399-6.717 3.299-2.205 7.566-2.285 10.858-.07 6.404 4.308 12.781 6.825 21.074 6.825 9.966 0 21.738-2.3 28.77-8.311 3.646-3.116 8.933-3.116 12.579 0 7.031 6.011 13.498 8.311 23.464 8.311 8.295 0 15.999-2.518 22.403-6.827 3.253-2.189 7.495-2.189 10.747 0 6.404 4.309 14.109 6.827 22.404 6.827 9.761 0 18.707-2.154 25.676-7.945 3.653-3.035 8.875-3.043 12.527-.007 7.358 6.117 16.92 8.332 27.319 7.919 20.662-.82 38.37-19.073 38.639-39.794.217-16.663-9.647-31.042-23.867-37.405z" fill="#57be92"/></g></svg>