<svg id="Capa_1" enable-background="new 0 0 512 512" height="512" viewBox="0 0 512 512" width="512" xmlns="http://www.w3.org/2000/svg"><g><path d="m153.482 171.429h-93.482c14.15-55.18 14.414-112.995.794-168.272-.396-1.606.805-3.157 2.456-3.157h86.981c1.651 0 2.852 1.551 2.457 3.157-13.62 55.277-13.356 113.092.794 168.272z" fill="#ade194"/><path d="m60.002 341.714.314-1.245c13.854-54.886 13.854-112.908 0-167.795l-.314-1.245h93.477l-.314 1.245c-13.854 54.887-13.854 112.909 0 167.795l.314 1.245z" fill="#80d261"/><path d="m150.231 512h-86.981c-1.651 0-2.852-1.551-2.457-3.157 13.525-54.903 13.261-112.324-.793-167.129h93.482c-14.054 54.805-14.318 112.226-.793 167.129.395 1.606-.806 3.157-2.458 3.157z" fill="#ade194"/><path d="m302.742 341.711h-93.483c3.303-12.846 5.823-25.837 7.603-38.91 1.924-14.062 2.953-28.217 3.117-42.382.072-6.47-.041-12.939-.329-19.398-.936-20.583-3.725-41.114-8.375-61.327-.638-2.761-1.317-5.511-2.017-8.262h90.233c1.651 0 2.852 1.551 2.457 3.157-13.523 54.903-13.259 112.317.794 167.122z" fill="#ade194"/><path d="m188.617 116.883c-21.927 11.693-35.633 32.809-38.804 55.719 20.723 10.168 45.85 10.575 67.777-1.118 20.925-11.159 34.364-30.899 38.304-52.591.337-1.854-.646-3.704-2.369-4.461-20.145-8.847-43.984-8.708-64.908 2.451z" fill="#80d261"/><path d="m253.287 229.344c-10.043 6.503-21.589 10.561-33.637 11.677-.936-20.583-3.725-41.114-8.375-61.327 21.064 7.898 36.561 24.463 43.803 44.26.729 1.992-.013 4.239-1.791 5.39z" fill="#80d261"/><path d="m214.955 160.265c-22.681-7.613-46.441-3.666-64.927 8.655-1.271.847-1.805 2.443-1.299 3.886 7.358 20.997 23.958 38.491 46.639 46.104 22.726 7.628 46.537 3.65 65.039-8.73 1.204-.806 1.709-2.315 1.232-3.684-7.335-21.053-23.957-38.602-46.684-46.231z" fill="#97da7b"/><path d="m299.491 512h-86.984c-1.651 0-2.851-1.55-2.456-3.155 11.286-45.813 12.966-93.387 5.051-139.731-.093-.577-.195-1.164-.298-1.741-1.523-8.602-3.364-17.163-5.546-25.662h93.483c-14.052 54.805-14.317 112.229-.793 167.132.396 1.606-.805 3.157-2.457 3.157z" fill="#80d261"/><path d="m452 171.429h-93.482c14.15-55.179 14.414-112.994.794-168.272-.396-1.606.805-3.157 2.457-3.157h86.981c1.651 0 2.852 1.551 2.457 3.157-13.621 55.277-13.357 113.092.793 168.272z" fill="#ade194"/><path d="m358.518 341.714c14.283-55.7 14.283-114.584 0-170.285h93.482c-14.283 55.701-14.283 114.585 0 170.285z" fill="#80d261"/><path d="m448.75 512h-86.985c-1.651 0-2.85-1.55-2.455-3.154 7.276-29.547 10.562-59.825 9.856-90.036-.504-21.222-2.973-42.412-7.408-63.294-.988-4.615-2.068-9.22-3.241-13.805h93.483c-14.052 54.805-14.317 112.229-.793 167.132.395 1.606-.806 3.157-2.457 3.157z" fill="#ade194"/><path d="m290.224 8.154c-21.493 10.737-35.537 30.485-39.858 52.406-.266 1.348.404 2.694 1.639 3.293 20.06 9.74 44.242 10.391 65.735-.346 21.168-10.575 35.111-29.891 39.655-51.415.406-1.924-.569-3.885-2.348-4.72-19.878-9.322-43.656-9.793-64.823.782z" fill="#97da7b"/><path d="m407.637 407.513c-11.437 7.137-24.733 11.14-38.472 11.297-.504-21.222-2.973-42.412-7.408-63.294.823.237 1.636.494 2.459.773 21.912 7.361 38.151 23.935 45.857 43.979 1.036 2.692.01 5.719-2.436 7.245z" fill="#80d261"/><path d="m368.332 331.566c-22.967-7.709-47.041-3.565-65.625 9.125-.841.575-1.202 1.654-.876 2.62 7.214 21.35 23.946 39.191 46.913 46.9 22.659 7.605 46.395 3.674 64.874-8.619 1.303-.867 1.851-2.504 1.331-3.983-7.368-20.97-23.958-38.438-46.617-46.043z" fill="#97da7b"/><g transform="matrix(.894 -.448 .448 .894 -120.176 124.36)"><ellipse cx="203.103" cy="316.515" fill="#4fc123" rx="60.391" ry="30.907"/><ellipse cx="203.103" cy="316.515" fill="#4fc123" rx="60.391" ry="30.907"/><ellipse cx="203.103" cy="316.515" fill="#97da7b" rx="60.391" ry="30.907"/></g><path d="m266.502 307.62c1.789.838 2.77 2.808 2.362 4.743-2.233 10.579-6.742 20.62-13.265 29.348-6.729 9.045-15.629 16.679-26.391 22.056-4.599 2.297-9.322 4.069-14.106 5.347-.093-.577-.195-1.164-.298-1.741-1.523-8.602-3.364-17.163-5.546-25.662 3.303-12.846 5.823-25.837 7.603-38.91 16.876-4.263 34.403-2.322 49.641 4.819z" fill="#80d261"/><path d="m215.102 369.114c4.784-1.277 9.507-3.05 14.106-5.347 10.762-5.377 19.662-13.011 26.391-22.056h-46.34c2.181 8.499 4.023 17.06 5.546 25.662.102.577.205 1.164.297 1.741z" fill="#68ca44"/><path d="m189.345 288.839c-21.954 10.967-36.136 31.336-40.122 53.819-.089.501.164 1.009.617 1.24 20.306 10.347 45.067 11.261 67.021.294 21.419-10.7 35.44-30.349 39.813-52.179.296-1.48-.443-2.966-1.801-3.62-20.019-9.645-44.11-10.254-65.528.446z" fill="#97da7b"/></g></svg>