<svg id="Capa_1" enable-background="new 0 0 512 512" height="512" viewBox="0 0 512 512" width="512" xmlns="http://www.w3.org/2000/svg"><g><path d="m433.027 191.304c9.436-7.821 14.524-20.328 12.242-33.247-2.298-13.005-11.471-23.07-23.128-27.147 6.187-10.57 6.683-24.061.111-35.421-6.616-11.437-18.685-17.763-31.036-17.614 2.192-12.045-1.965-24.891-12.034-33.323-10.136-8.489-23.645-10.314-35.2-5.957-2.068-12.067-10.376-22.719-22.727-27.205-12.433-4.517-25.753-1.62-35.119 6.418-6.078-10.634-17.536-17.808-30.679-17.808-13.231 0-24.755 7.269-30.802 18.019-9.355-7.917-22.58-10.747-34.931-6.26-12.433 4.517-20.772 15.281-22.769 27.447-11.504-4.246-24.901-2.39-34.969 6.042-10.136 8.489-14.283 21.45-11.991 33.565-12.265-.063-24.219 6.254-30.79 17.615-6.616 11.437-6.071 25.032.234 35.634-11.547 4.128-20.615 14.144-22.897 27.063-2.298 13.005 2.873 25.595 12.431 33.405-9.436 7.821-14.524 20.328-12.242 33.247 2.298 13.005 11.471 23.07 23.128 27.147-6.187 10.57-6.683 24.061-.111 35.421 6.616 11.437 18.685 17.763 31.036 17.614-2.192 12.045 1.965 24.891 12.034 33.323 10.136 8.489 23.645 10.314 35.2 5.957 2.068 12.067 10.376 22.719 22.727 27.205 12.433 4.517 25.753 1.62 35.119-6.418 6.078 10.633 17.536 17.806 30.679 17.806 13.231 0 24.755-7.269 30.802-18.019 9.355 7.917 22.58 10.747 34.931 6.26 12.433-4.517 20.772-15.281 22.769-27.447 11.504 4.246 24.901 2.39 34.969-6.042 10.136-8.489 14.283-21.45 11.991-33.565 12.265.063 24.219-6.254 30.79-17.615 6.616-11.437 6.071-25.032-.234-35.634 11.547-4.128 20.615-14.144 22.897-27.063 2.298-13.004-2.873-25.593-12.431-33.403z" fill="#5de1c4"/><path d="m433.027 191.304c9.436-7.821 14.524-20.328 12.242-33.247-2.298-13.005-11.471-23.071-23.128-27.147 6.187-10.57 6.683-24.061.111-35.421-6.616-11.437-18.685-17.763-31.036-17.614 1.391-7.647.214-15.613-3.4-22.571 1.28 9.97 1.944 20.134 1.944 30.453 0 130.595-105.709 236.464-236.107 236.464-11.057 0-21.931-.779-32.583-2.252 1.624 7.296 5.567 14.137 11.747 19.313 10.136 8.488 23.645 10.314 35.2 5.957 2.068 12.067 10.376 22.719 22.727 27.205 12.433 4.517 25.753 1.62 35.119-6.418 6.078 10.633 17.536 17.806 30.679 17.806 13.231 0 24.755-7.269 30.802-18.019 9.355 7.917 22.58 10.747 34.931 6.26 12.433-4.517 20.772-15.281 22.77-27.447 11.504 4.246 24.901 2.39 34.969-6.042 10.136-8.489 14.283-21.45 11.991-33.565 12.265.063 24.219-6.254 30.79-17.615 6.616-11.437 6.071-25.032-.234-35.634 11.547-4.128 20.615-14.144 22.897-27.063 2.298-13.004-2.873-25.593-12.431-33.403z" fill="#0ed2b3"/><path d="m323.412 248.978c6.255-8.918-4.619-19.819-13.515-13.549l-12.895 9.089-22.485 15.849-6.185-57.899-2.707-26.731c-1.867-10.74-17.246-10.74-19.114 0l-2.707 26.731-6.2 57.983-22.604-15.933-12.895-9.089c-8.896-6.271-19.771 4.631-13.515 13.549l9.067 12.927 32.227 44.503-33.408 197.98h118.941l-33.408-197.824 32.337-44.66z" fill="#e19974"/><path d="m323.422 248.963c6.253-8.915-4.63-19.805-13.526-13.534l-12.895 9.089-22.485 15.849-6.185-57.899-2.707-26.731c-1.867-10.74-17.246-10.74-19.114 0l-2.707 26.731-6.2 57.983-22.604-15.933-12.895-9.089c-8.896-6.271-19.779 4.619-13.526 13.534l9.077 12.942 32.227 44.503-.099.589c14.479 0 26.217 11.755 26.217 26.256v171.135h59.416l-33.408-197.824 32.337-44.66z" fill="#d77f4a"/><g><path d="m356.403 512h-200.806c-4.197 0-7.6-3.407-7.6-7.612s3.403-7.611 7.6-7.611h200.806c4.197 0 7.6 3.407 7.6 7.611s-3.403 7.612-7.6 7.612z" fill="#d9e7ec"/></g></g></svg>