<svg id="Capa_1" enable-background="new 0 0 512 512" height="512" viewBox="0 0 512 512" width="512" xmlns="http://www.w3.org/2000/svg"><g><path d="m198.638 504.388 37.859-132.008c14.099-39.158-12.6-87.287-39.957-105.129-51.352-40.676-108.944-86.295-107.092-89.506 1.124-1.949 25.839 8.809 122.336 60.203 2.129 1.134 4.742.772 6.478-.903 6.13-5.914 12.4-12.656 18.547-20.315 23.027-28.694 34.59-58.143 40.688-79.872 1.629 21.987.925 54.371-11.777 90.183-3.928 11.074-8.46 20.945-13.104 29.607-1.346 2.511-.598 5.627 1.754 7.234 6.859 4.686 13.717 9.372 20.576 14.058 2.298 1.57 5.406 1.205 7.261-.871 11.137-12.468 26.373-26.803 46.498-39.717 45.973-29.501 91.633-35.015 115.643-36.086-43.258 20.006-72.374 44.052-89.83 60.831-34.594 33.252-39.723 53.655-41.301 62.893-3.177 18.6 1.033 32.993 4.13 44.334 9.708 35.545 21.081 98.979 28.523 135.065h-147.232z" fill="#e19974"/><path d="m367.239 235.323c-12.734 8.171-23.511 16.912-32.531 25.389-10.71 10.065-26.999 11.257-39.133 2.966l-.222-.152c-4.894 4.647-9.273 9.207-13.144 13.541-1.857 2.078-4.975 2.438-7.276.866-6.854-4.683-13.709-9.366-20.563-14.049-2.352-1.607-3.1-4.722-1.754-7.234 4.644-8.662 9.176-18.533 13.104-29.607.22-.621.428-1.238.641-1.856-.042.046-.084.092-.126.138-6.923 7.565-18.127 9.411-27.183 4.607-3.168-1.681-6.252-3.314-9.254-4.9-3.857 4.34-7.724 8.339-11.537 12.017-1.735 1.674-4.35 2.035-6.478.902-11.971-6.376-22.835-12.125-32.689-17.304 17.322 13.954 37.073 29.6 55.981 44.577 27.157 17.412 54.168 66.532 39.957 105.128l-37.86 132.008h108.28c-7.446-36.39-18.577-98.141-28.108-133.035-3.098-11.341-7.307-25.734-4.13-44.334 1.578-9.238 6.707-29.641 41.301-62.892 15.924-15.306 41.557-36.659 78.773-55.477-20.16 5.198-43.066 13.952-66.049 28.701z" fill="#d77f4a"/><g><path d="m395.651 512h-258.512c-4.165 0-7.796-3.212-7.921-7.378-.129-4.311 3.324-7.845 7.602-7.845h258.511c4.165 0 7.796 3.212 7.921 7.378.129 4.311-3.324 7.845-7.601 7.845z" fill="#d9e7ec"/></g><path d="m200.753 182.371c0 16.715-9.725 31.156-23.821 38.007-5.577 2.7-11.845 4.222-18.466 4.222-10.415 0-19.957-3.765-27.33-10.007-7.362 6.242-16.905 10.007-27.32 10.007-11.114 0-21.215-4.283-28.769-11.275-7.545 6.992-17.645 11.275-28.76 11.275-23.354 0-42.287-18.907-42.287-42.229 0-18.816 12.321-34.749 29.348-40.209-1.622-4.486-2.515-9.317-2.515-14.361 0-23.322 18.943-42.228 42.297-42.228 11.348 0 21.651 4.465 29.246 11.732 3.924-3.755 8.569-6.759 13.7-8.778 4.817-1.908 10.06-2.953 15.546-2.953 23.365 0 42.298 18.907 42.298 42.228 0 5.044-.893 9.875-2.515 14.361 17.027 5.459 29.348 21.393 29.348 40.208z" fill="#ade194"/><path d="m405.223 133.211c0 32.09-26.062 58.111-58.198 58.111-14.339 0-27.461-5.186-37.602-13.772-10.141 8.586-23.263 13.772-37.602 13.772-.781 0-1.562-.02-2.342-.051-14.37-.568-27.39-6.343-37.237-15.467-10.384 9.621-24.298 15.517-39.58 15.517-32.146 0-58.198-26.021-58.198-58.111 0-25.889 16.955-47.82 40.391-55.341-2.241-6.17-3.458-12.818-3.458-19.759-.002-32.089 26.05-58.11 58.196-58.11 15.617 0 29.794 6.14 40.249 16.146 10.455-10.006 24.632-16.146 40.249-16.146 32.146 0 58.198 26.021 58.198 58.111 0 5.633-.801 11.082-2.312 16.228-.345 1.197-.73 2.375-1.146 3.532 23.436 7.52 40.392 29.451 40.392 55.34z" fill="#80d261"/><path d="m200.753 182.371c0 16.715-9.725 31.156-23.821 38.007-41.395-7.439-72.892-43.69-72.892-87.167 0-16.146 4.32-31.461 12.037-44.685 4.817-1.908 10.06-2.953 15.546-2.953 23.365 0 42.298 18.907 42.298 42.228 0 5.044-.893 9.875-2.515 14.361 17.026 5.46 29.347 21.394 29.347 40.209z" fill="#80d261"/><path d="m405.223 133.211c0 32.09-26.062 58.111-58.198 58.111-14.339 0-27.461-5.186-37.602-13.772-10.141 8.586-23.263 13.772-37.602 13.772-.781 0-1.562-.02-2.342-.051-14.37-.568-27.39-6.343-37.237-15.467-10.384 9.621-24.298 15.517-39.58 15.517-32.146 0-58.198-26.021-58.198-58.111 0-25.889 16.955-47.82 40.391-55.341-2.241-6.17-3.458-12.818-3.458-19.759-.002-32.089 26.05-58.11 58.196-58.11 15.617 0 29.794 6.14 40.249 16.146 10.455-10.006 24.632-16.146 40.249-16.146 32.146 0 58.198 26.021 58.198 58.111 0 5.633-.801 11.082-2.312 16.228-.345 1.197-.73 2.375-1.146 3.532 23.436 7.52 40.392 29.451 40.392 55.34z" fill="#97da7b"/><path d="m476.687 164.934c1.732-4.783 2.678-9.942 2.678-15.322 0-24.883-20.201-45.055-45.121-45.055-12.11 0-23.104 4.764-31.208 12.517-8.104-7.753-19.099-12.517-31.208-12.517-24.919 0-45.121 20.172-45.121 45.055 0 5.38.946 10.539 2.678 15.322-18.165 5.825-31.312 22.829-31.312 42.903 0 24.883 20.201 45.055 45.121 45.055 11.853 0 22.636-4.566 30.688-12.03 8.052 7.464 18.835 12.03 30.688 12.03 11.116 0 21.291-4.016 29.155-10.672 7.864 6.655 18.039 10.672 29.155 10.672 24.919 0 45.121-20.172 45.121-45.055-.001-20.074-13.149-37.078-31.314-42.903z" fill="#ade194"/><path d="m405.223 133.211c0 32.09-26.062 58.111-58.198 58.111-14.339 0-27.461-5.186-37.602-13.772-10.141 8.586-23.263 13.772-37.602 13.772-.781 0-1.562-.02-2.342-.051 3.783-16.999 13.305-32.029 26.812-42.685.527-39.204 31.092-71.284 69.688-74.248-.345 1.197-.73 2.375-1.146 3.532 23.434 7.521 40.39 29.452 40.39 55.341z" fill="#80d261"/><path d="m476.687 164.934c1.732-4.783 2.678-9.942 2.678-15.322 0-24.883-20.201-45.055-45.121-45.055-12.11 0-23.104 4.764-31.208 12.517-8.104-7.753-19.099-12.517-31.208-12.517-24.919 0-45.121 20.172-45.121 45.055 0 5.38.946 10.539 2.678 15.322-18.165 5.825-31.312 22.829-31.312 42.903 0 24.883 20.201 45.055 45.121 45.055 11.853 0 22.636-4.566 30.688-12.03 8.052 7.464 18.835 12.03 30.688 12.03 11.116 0 21.291-4.016 29.155-10.672 7.864 6.655 18.039 10.672 29.155 10.672 24.919 0 45.121-20.172 45.121-45.055-.001-20.074-13.149-37.078-31.314-42.903z" fill="#ade194"/></g></svg>