<svg id="Capa_1" enable-background="new 0 0 512 512" height="512" viewBox="0 0 512 512" width="512" xmlns="http://www.w3.org/2000/svg"><g><path d="m226.287 504.385h-33.77c-4.835 0-8.754-3.919-8.754-8.754v-134.44h51.279v134.44c0 4.835-3.92 8.754-8.755 8.754z" fill="#e19974"/><path d="m183.763 361.191v36.55c15.997 0 28.965 12.982 28.965 28.995v77.649h13.563c4.832 0 8.75-3.922 8.75-8.759v-134.435z" fill="#d77f4a"/><path d="m340.801 250.055c0 70.552-55.57 128.119-125.33 131.297-2.627.122-5.274.173-7.942.132-72.153-1.005-130.442-60.958-129.519-133.135.426-33.251 13.185-63.516 33.926-86.441 4.96-5.493 6.116-13.392 3.185-20.194-5.325-12.326-8.276-25.91-8.276-40.195 0-56.541 46.209-102.28 102.905-101.508 37.233.508 69.77 21.362 86.992 51.841 8.256 14.579 13.003 31.372 13.084 49.191.061 14.051-2.728 27.443-7.83 39.637-2.809 6.721-1.369 14.509 3.59 19.839 21.847 23.471 35.215 54.935 35.215 89.536z" fill="#57be92"/><path d="m337.475 504.598h-28.464c-4.075 0-7.379-3.304-7.379-7.379v-113.318h43.222v113.318c0 4.075-3.304 7.379-7.379 7.379z" fill="#e19974"/><path d="m301.632 383.901v33.504c12.668 0 22.937 10.28 22.937 22.961v64.231h12.91c4.073 0 7.375-3.305 7.375-7.383v-113.313z" fill="#d77f4a"/><g><path d="m421.525 512h-320.04c-4.201 0-7.607-3.409-7.607-7.615s3.406-7.615 7.607-7.615h320.04c4.201 0 7.607 3.409 7.607 7.615s-3.406 7.615-7.607 7.615z" fill="#d9e7ec"/></g><path d="m401.288 198.03c4.299-10.273 6.652-21.562 6.598-33.409-.214-46.413-37.951-84.523-84.347-85.157-47.792-.653-86.74 37.904-86.74 85.561 0 12.038 2.488 23.494 6.975 33.885 2.474 5.73 1.499 12.389-2.687 17.018-17.475 19.322-28.235 44.835-28.592 72.858-.775 60.836 48.354 111.372 109.172 112.218 61.891.86 112.333-49.067 112.333-110.779 0-29.162-11.268-55.687-29.681-75.469-4.184-4.494-5.401-11.061-3.031-16.726z" fill="#ade194"/><path d="m340.801 250.055c0 70.552-55.57 128.119-125.33 131.297-21.218-25.078-33.856-57.607-33.399-92.949.349-27.647 8.782-54.383 24.05-77.062 3.808-5.657 5.007-12.627 3.419-19.261-2.107-8.801-3.168-17.845-3.168-27.055 0-55.171 38.693-101.488 90.369-113.174 8.256 14.579 13.003 31.372 13.084 49.191.061 14.051-2.728 27.443-7.83 39.637-2.809 6.721-1.369 14.509 3.59 19.839 21.847 23.472 35.215 54.936 35.215 89.537z" fill="#22b27f"/><path d="m401.288 198.03c4.299-10.273 6.652-21.562 6.598-33.409-.214-46.413-37.951-84.523-84.347-85.157-47.792-.653-86.74 37.904-86.74 85.561 0 12.038 2.488 23.494 6.975 33.885 2.474 5.73 1.499 12.389-2.687 17.018-17.475 19.322-28.235 44.835-28.592 72.858-.775 60.836 48.354 111.372 109.172 112.218 61.891.86 112.333-49.067 112.333-110.779 0-29.162-11.268-55.687-29.681-75.469-4.184-4.494-5.401-11.061-3.031-16.726z" fill="#7acaa6"/></g></svg>