<svg id="Capa_1" enable-background="new 0 0 512 512" height="512" viewBox="0 0 512 512" width="512" xmlns="http://www.w3.org/2000/svg"><g><path d="m230.622 304.75h54.322v199.638h-54.322z" fill="#e19974" transform="matrix(1 -.003 .003 1 -1.166 .745)"/><path d="m258.393 432.899.206 71.486 26.631-.077-.575-199.637-54.321.157.289 100.41c15.293-.044 27.726 12.341 27.77 27.661z" fill="#d77f4a"/><path d="m337.845 381.121h33.562v123.344h-33.562z" fill="#e19974"/><path d="m337.845 381.121v62.931c9.583 0 17.352 7.783 17.352 17.383v43.03h16.211v-123.344z" fill="#d77f4a"/><path d="m430.616 187.282c3.617-3.015 6.586-6.73 8.723-10.901 3.303-6.486 4.6-14.058 3.212-21.772-2.29-12.759-11.337-22.615-22.806-26.584 6.049-10.394 6.494-23.629 0-34.764-6.535-11.206-18.409-17.387-30.557-17.205 2.128-11.825-1.996-24.432-11.925-32.673-9.98-8.303-23.272-10.059-34.62-5.745-2.067-11.845-10.263-22.28-22.411-26.644-12.239-4.395-25.319-1.523-34.508 6.394-5.998-10.415-17.285-17.428-30.203-17.388-13.009.041-24.316 7.207-30.233 17.773-9.22-7.745-22.229-10.485-34.356-6.039-12.209 4.466-20.375 15.053-22.3 26.999-11.327-4.131-24.488-2.274-34.356 6.029-9.939 8.364-13.982 21.102-11.692 32.988-12.057-.03-23.789 6.202-30.223 17.377-6.474 11.236-5.897 24.584.334 34.978-11.337 4.08-20.223 13.936-22.432 26.624-1.216 7.004-.223 13.876 2.462 19.925 2.219 4.974 5.592 9.389 9.848 12.83-9.25 7.704-14.215 19.996-11.935 32.674 2.29 12.759 11.337 22.614 22.806 26.583-6.049 10.384-6.495 23.629-.01 34.764 6.535 11.206 18.419 17.387 30.567 17.205-2.128 11.825 1.996 24.421 11.915 32.673 9.99 8.303 23.272 10.059 34.62 5.745 2.067 11.845 10.263 22.27 22.421 26.644 8.744 3.137 17.923 2.568 25.795-.913 3.151-1.38 6.089-3.238 8.713-5.491 5.998 10.424 17.284 17.428 30.202 17.397 13.009-.041 24.316-7.207 30.233-17.773 1.915 1.604 3.992 3.005 6.191 4.152 8.389 4.425 18.541 5.41 28.156 1.888 12.219-4.466 20.385-15.053 22.31-26.999 11.317 4.131 24.488 2.274 34.356-6.039 9.939-8.354 13.982-21.092 11.692-32.978 12.057.031 23.789-6.202 30.223-17.377 6.464-11.246 5.897-24.584-.334-34.978 11.337-4.08 20.223-13.936 22.431-26.624 2.22-12.78-2.896-25.122-12.309-32.755z" fill="#0ab69f"/><g><path d="m430.616 187.282c3.617-3.015 6.586-6.73 8.723-10.901-5.937-3.786-12.594-6.324-19.524-7.481-5.866-6.313-13.282-11.195-21.702-14.007-5.37-1.787-10.942-2.7-16.586-2.7-3.252 0-6.474.305-9.635.893-7.275-3.735-15.421-5.786-23.789-5.786-.436 0-.871.01-1.307.02-9.017.223-17.649 2.771-25.177 7.196-2.198-.284-4.417-.426-6.636-.426-6.535 0-12.938 1.208-19.057 3.603-8.389 3.289-15.633 8.628-21.185 15.347-5.197 1.167-10.182 3.116-14.782 5.806-1.358.782-2.685 1.634-3.982 2.558-6.707-5.451-14.671-9.135-23.09-10.749-5.694-6.445-12.989-11.51-21.337-14.535-5.734-2.091-11.732-3.147-17.821-3.147-2.796 0-5.562.233-8.298.67-7.558-4.121-16.13-6.395-25.005-6.395-9.017 0-17.71 2.335-25.339 6.567-2.614-.406-5.259-.609-7.923-.609-6.089 0-12.087 1.056-17.822 3.137-8.48 3.076-15.866 8.242-21.591 14.819-5.258 1.046-10.334 2.903-15.025 5.491 2.219 4.974 5.592 9.389 9.848 12.83-9.25 7.704-14.215 19.996-11.935 32.674 2.29 12.759 11.337 22.614 22.806 26.583-6.049 10.384-6.495 23.629-.01 34.764 6.535 11.206 18.419 17.387 30.567 17.205-2.128 11.825 1.996 24.421 11.915 32.673 9.99 8.303 23.272 10.059 34.62 5.745 2.067 11.845 10.263 22.27 22.421 26.644 8.744 3.137 17.923 2.568 25.795-.913 3.151-1.38 6.089-3.238 8.713-5.491 5.998 10.424 22.978-37.069 35.896-37.099 13.009-.041 18.622 47.29 24.539 36.723 1.915 1.604 3.992 3.005 6.191 4.152 8.389 4.425 18.541 5.41 28.156 1.888 12.219-4.466 20.385-15.053 22.31-26.999 11.317 4.131 24.488 2.274 34.356-6.039 9.939-8.354 13.982-21.092 11.692-32.978 12.057.031 23.789-6.202 30.223-17.377 6.464-11.246 5.897-24.584-.334-34.978 11.337-4.08 20.223-13.936 22.431-26.624 2.219-12.779-2.897-25.121-12.31-32.754z" fill="#01998d"/></g><path d="m460.535 308.577c5.725-4.984 8.683-12.8 7.062-20.757-1.621-8.009-7.457-14.099-14.752-16.433 3.678-6.638 3.769-14.992-.476-21.925-4.276-6.973-11.854-10.698-19.503-10.414 1.175-7.481-1.601-15.367-7.974-20.433-6.413-5.085-14.812-6.009-21.904-3.136-1.469-7.43-6.778-13.896-14.498-16.474-7.771-2.599-15.988-.599-21.661 4.517-3.931-6.486-11.145-10.739-19.281-10.536-8.207.203-15.228 4.882-18.815 11.622-5.917-4.75-14.154-6.293-21.732-3.329-7.639 2.994-12.634 9.785-13.688 17.336-5.907-2.01-12.543-1.451-18.116 1.797-1.206.7-2.361 1.533-3.455 2.487-6.15 5.41-8.521 13.5-6.91 20.96-7.599.152-14.914 4.243-18.804 11.378-3.921 7.176-3.374 15.581.699 22.036-7.092 2.741-12.553 9.074-13.769 17.103-1.226 8.08 2.178 15.794 8.217 20.473-5.725 4.994-8.683 12.81-7.072 20.767 1.631 8.009 7.467 14.089 14.751 16.433-3.668 6.638-3.769 14.992.486 21.914 4.276 6.973 11.854 10.698 19.503 10.414-1.044 6.628 1.013 13.561 5.917 18.575.638.65 1.327 1.279 2.057 1.858 6.403 5.095 14.802 6.009 21.895 3.136 1.469 7.43 6.788 13.896 14.508 16.484 7.771 2.599 15.978.599 21.662-4.527 3.931 6.486 11.135 10.749 19.281 10.546 8.196-.213 15.228-4.882 18.804-11.632 5.927 4.75 14.164 6.293 21.743 3.329 7.639-2.984 12.634-9.775 13.688-17.336 7.194 2.446 15.461 1.086 21.57-4.283 6.15-5.41 8.521-13.49 6.91-20.95 7.599-.152 14.904-4.253 18.804-11.378 3.921-7.186 3.374-15.581-.699-22.046 7.092-2.731 12.553-9.074 13.769-17.103 1.226-8.08-2.178-15.784-8.217-20.473z" fill="#0ed2b3"/><path d="m144.33 381.121h33.562v123.344h-33.562z" fill="#e19974"/><path d="m144.33 381.121v62.931c9.583 0 17.352 7.783 17.352 17.383v43.03h16.211v-123.344z" fill="#d77f4a"/><g><path d="m427.613 512h-339.087c-4.197 0-7.599-3.408-7.599-7.613s3.402-7.613 7.599-7.613h339.087c4.197 0 7.599 3.408 7.599 7.613s-3.402 7.613-7.599 7.613z" fill="#d9e7ec"/></g><path d="m308.115 337.312c-1.55 8.749-5.279 16.799-10.668 23.528-.152 8.729-2.493 17.438-7.021 25.244-3.941 6.821-9.331 12.546-15.663 16.87-4.904-5.014-6.961-11.947-5.917-18.575-7.649.284-15.228-3.441-19.503-10.414-4.255-6.923-4.154-15.276-.486-21.914-7.285-2.345-13.12-8.424-14.751-16.433-1.611-7.958 1.347-15.773 7.072-20.767-6.038-4.679-9.443-12.393-8.217-20.473 1.216-8.029 6.677-14.362 13.769-17.103-4.073-6.455-4.62-14.86-.699-22.036 3.89-7.136 11.205-11.226 18.804-11.378-1.611-7.461.76-15.55 6.91-20.96 1.094-.954 2.249-1.787 3.455-2.487 5.988 4.253 11.104 9.795 14.893 16.332 4.458 7.684 6.788 16.25 7.011 24.858 5.501 6.78 9.321 14.941 10.902 23.833 1.54 8.75.8 17.59-1.945 25.751 2.844 8.26 3.624 17.232 2.054 26.124z" fill="#0ab69f"/><path d="m270.483 311.325c5.849-4.84 9.002-12.581 7.588-20.577-1.424-8.049-7.11-14.278-14.335-16.801 3.835-6.542 4.142-14.891.069-21.922-4.1-7.078-11.581-10.994-19.236-10.902 1.358-7.455-1.218-15.405-7.459-20.624-6.282-5.254-14.655-6.383-21.817-3.687-1.282-7.468-6.431-14.061-14.086-16.838-7.706-2.795-15.962-1.003-21.767 3.972-3.767-6.581-10.869-11.02-19.015-11.02-8.201 0-15.343 4.499-19.091 11.152-5.799-4.9-13.995-6.651-21.65-3.874-7.706 2.795-12.874 9.457-14.112 16.987-7.13-2.628-15.434-1.479-21.674 3.739-6.282 5.254-8.852 13.276-7.432 20.773-7.602-.039-15.011 3.871-19.084 10.902-4.1 7.078-3.763 15.492.145 22.054-7.157 2.555-12.777 8.754-14.191 16.749-1.424 8.049 1.781 15.841 7.705 20.674-5.849 4.84-9.002 12.581-7.588 20.577 1.424 8.049 7.11 14.278 14.335 16.801-3.835 6.542-4.142 14.891-.069 21.922 4.1 7.078 11.581 10.994 19.236 10.902-1.358 7.455 1.218 15.405 7.459 20.624 6.282 5.254 14.655 6.383 21.817 3.687 1.282 7.468 6.431 14.061 14.086 16.837 7.706 2.795 15.962 1.003 21.767-3.972 3.767 6.581 10.869 11.02 19.015 11.02 8.201 0 15.343-4.499 19.091-11.152 5.799 4.9 13.995 6.651 21.65 3.874 7.706-2.795 12.874-9.457 14.112-16.987 7.13 2.628 15.434 1.479 21.674-3.739 6.282-5.254 8.852-13.276 7.432-20.773 7.602.039 15.011-3.871 19.084-10.902 4.1-7.078 3.763-15.492-.145-22.054 7.157-2.555 12.777-8.754 14.191-16.749 1.424-8.048-1.781-15.84-7.705-20.673z" fill="#5de1c4"/></g></svg>