<svg id="Capa_1" enable-background="new 0 0 512 512" height="512" viewBox="0 0 512 512" width="512" xmlns="http://www.w3.org/2000/svg"><g><path d="m125.029 322.633h55.272v181.756h-55.272z" fill="#e19974"/><path d="m259.921 380.108c-1.453.69-2.936 1.38-4.449 2.06-11.458 5.186-24.501 10.118-39.027 14.086-24.481 6.668-46.199 8.687-63.396 8.86-16.974.203-38.834-1.39-63.609-8.048-.985-.264-1.971-.538-2.956-.812-15.633-4.415-29.458-10.027-41.343-15.842-9.731-4.76-15.44-16.887-13.886-29.33 6.593-52.905 18.508-117.298 40.429-187.801 17.969-57.766 38.773-107.15 58.825-147.927 9.985-20.277 34.436-20.521 44.685-.426 3.22 6.312 6.471 12.858 9.721 19.628 17.888 37.256 36 81.483 51.603 132.531 8.167 26.701 14.78 52.489 20.153 77.028 8.624 39.326 14.038 75.465 17.472 107.058 1.34 12.413-4.511 24.317-14.222 28.935z" fill="#0ed2b3"/><path d="m331.699 322.633h55.272v181.756h-55.272z" fill="#e19974"/><path d="m466.596 380.108c-12.494 5.927-27.051 11.661-43.487 16.146-.934.254-1.869.507-2.793.741-23.333 6.079-44.055 7.957-60.603 8.119-17.645.213-40.571-1.522-66.566-8.86-14.038-3.968-26.644-8.9-37.676-14.086-1.239-.579-2.468-1.167-3.667-1.756-9.721-4.76-15.43-16.887-13.886-29.33 3.982-31.877 9.884-67.925 18.752-106.967 5.841-25.757 12.972-52.814 21.687-80.834 15.105-48.592 32.221-91.247 49.216-127.843 3.21-6.911 6.42-13.609 9.609-20.084 9.975-20.277 34.436-20.521 44.685-.426 20.926 41.031 42.877 91.825 61.314 152.159 21.24 69.488 32.059 132.775 37.625 184.086 1.352 12.413-4.499 24.317-14.21 28.935z" fill="#0ed2b3"/><path d="m227.33 322.633h55.272v181.756h-55.272z" fill="#e19974"/><g fill="#d77f4a"><path d="m227.33 322.633v101.487c17.062 0 30.893 13.819 30.893 30.865v49.404h24.379v-181.756z"/><path d="m331.958 322.633v101.487c17.062 0 30.893 13.819 30.893 30.865v49.404h24.379v-181.756z"/><path d="m124.734 322.633v101.487c17.062 0 30.893 13.819 30.893 30.865v49.404h24.379v-181.756z"/></g><g><path d="m439.352 512h-368.771c-4.208 0-7.619-3.407-7.619-7.612s3.41-7.611 7.619-7.611h368.771c4.208 0 7.618 3.407 7.618 7.611s-3.41 7.612-7.618 7.612z" fill="#d9e7ec"/></g><path d="m420.316 396.995c-23.333 6.079-44.055 7.957-60.603 8.119-17.645.213-40.571-1.522-66.566-8.86-14.038-3.968-26.644-8.9-37.676-14.086-11.458 5.186-24.501 10.118-39.027 14.086-24.481 6.668-46.199 8.687-63.396 8.86-16.974.203-38.834-1.39-63.609-8.048 9.325-70.787 25.608-155.792 54.518-248.47 12.83-41.132 26.705-79.16 40.957-114.04 17.888 37.256 36 81.483 51.603 132.531 8.167 26.701 14.78 52.489 20.153 77.028 5.841-25.757 12.972-52.814 21.687-80.834 15.105-48.592 32.221-91.247 49.216-127.843 14.871 35.957 29.306 75.486 42.43 118.567 27.742 91.075 42.451 174.365 50.313 242.99z" fill="#0ab69f"/><path d="m232.813 15.36c9.979-20.286 34.435-20.526 44.683-.433 20.929 41.03 42.882 91.826 61.32 152.158 21.239 69.494 32.053 132.783 37.623 184.094 1.347 12.412-4.506 24.317-14.217 28.927-12.491 5.93-27.042 11.663-43.481 16.146-24.474 6.675-46.19 8.688-63.396 8.863-17.643.209-40.572-1.525-66.565-8.863-15.628-4.411-29.458-10.028-41.341-15.841-9.726-4.757-15.438-16.883-13.886-29.333 6.597-52.901 18.512-117.295 40.435-187.792 17.964-57.767 38.766-107.15 58.825-147.926z" fill="#5de1c4"/></g></svg>