<svg id="Capa_1" enable-background="new 0 0 512 512" height="512" viewBox="0 0 512 512" width="512" xmlns="http://www.w3.org/2000/svg"><g><path d="m115.045 304.912h54.248v199.148h-54.248z" fill="#e19974" transform="matrix(1 .001 -.001 1 .433 -.152)"/><path d="m115.152 304.883-.077 72.037v11.156c15.427.016 27.92 12.526 27.904 27.94l-.106 88.045 26.314.028.214-199.148z" fill="#d77f4a"/><path d="m264.82 179.149c-.091 92.343-21.184 168.338-104.54 177.871-5.877.68-12.079 1.024-18.596 1.014-98.876-.111-121.785-80.284-121.684-179.149.112-98.864 23.184-178.986 122.06-178.885 6.526.01 12.729.365 18.616 1.055 83.325 9.716 104.235 85.761 104.144 178.094z" fill="#fe9738"/><path d="m228.635 305.033h54.248v199.148h-54.248z" fill="#e19974" transform="matrix(1 .001 -.001 1 .433 -.274)"/><path d="m264.82 179.149c-.091 92.343-21.184 168.338-104.54 177.871-11.643-9.959-21.54-22.201-29.569-36.602-18.88-33.854-27.64-78.804-27.568-141.441.06-62.597 8.912-107.496 27.833-141.309 8.069-14.422 18.017-26.674 29.7-36.613 83.325 9.716 104.235 85.761 104.144 178.094z" fill="#fe860a"/><path d="m228.838 304.883-.077 72.037v11.156c15.427.016 27.92 12.526 27.904 27.94l-.106 88.045 26.314.028.214-199.148z" fill="#d77f4a"/><path d="m378.415 179.271c-.102 92.343-21.184 168.327-104.54 177.871-5.613.649-11.521.994-17.723 1.014h-.883c-98.876-.112-121.786-80.285-121.674-179.149.101-98.864 23.183-178.987 122.06-178.885.294 0 .588 0 .873.01 6.202.041 12.12.386 17.743 1.045 83.325 9.716 104.235 85.761 104.144 178.094z" fill="#fea95c"/><path d="m342.225 305.155h54.248v199.148h-54.248z" fill="#e19974" transform="matrix(1 .001 -.001 1 .433 -.395)"/><path d="m342.523 304.883-.077 72.037v11.156c15.427.016 27.92 12.526 27.904 27.94l-.106 88.045 26.314.028.214-199.148z" fill="#d77f4a"/><path d="m378.415 179.271c-.102 92.343-21.184 168.327-104.54 177.871-11.643-9.949-21.549-22.191-29.579-36.593-18.87-33.864-27.629-78.804-27.568-141.451.071-62.597 8.912-107.506 27.833-141.309 8.069-14.422 18.017-26.674 29.711-36.613 83.324 9.717 104.234 85.762 104.143 178.095z" fill="#fe9738"/><path d="m492 179.391c-.106 98.868-24.265 178.99-123.14 178.884-98.876-.106-121.784-80.279-121.678-179.147.105-98.867 23.185-178.991 122.061-178.885s122.863 80.28 122.757 179.148z" fill="#fdb97e"/><g><path d="m454.086 512-396.884-.425c-4.205-.004-7.609-3.413-7.605-7.615.005-4.201 3.416-7.603 7.621-7.598l396.884.425c4.205.004 7.609 3.413 7.605 7.615-.004 4.201-3.416 7.603-7.621 7.598z" fill="#d9e7ec"/></g></g></svg>