<svg id="Capa_1" enable-background="new 0 0 512 512" height="512" viewBox="0 0 512 512" width="512" xmlns="http://www.w3.org/2000/svg"><g><path d="m182.336 324.982h54.459v179.407h-54.459z" fill="#e19974"/><path d="m182.337 324.981v55.818c15.499 0 28.064 12.561 28.064 28.055v95.534h26.395v-179.407z" fill="#d77f4a"/><path d="m330.13 120.353v195.991c0 11.295-4.589 21.525-11.999 28.924-7.411 7.409-17.665 11.986-28.974 11.986-19.259 0-35.4-13.264-39.796-31.126-2.193 8.931-7.329 16.715-14.324 22.256-6.995 5.551-15.847 8.87-25.472 8.87-14.263 0-26.821-7.277-34.151-18.308-2.579-3.857-4.507-8.19-5.645-12.818-2.193 8.931-7.33 16.715-14.314 22.256-6.995 5.551-15.847 8.87-25.471 8.87-22.639 0-40.984-18.318-40.984-40.909v-195.992c0-66.474 53.978-120.353 120.565-120.353 29.146 0 55.867 10.321 76.708 27.503 26.791 22.073 43.857 55.472 43.857 92.85z" fill="#80d261"/><path d="m289.917 342.841h49.038v161.547h-49.038z" fill="#e19974"/><path d="m289.917 342.841v54.803c14.748 0 26.703 11.952 26.703 26.695v80.05h22.334v-161.548z" fill="#d77f4a"/><path d="m314.436 55.091c-59.958 0-108.564 48.52-108.564 108.373v176.478c0 20.344 16.521 36.836 36.901 36.836 17.338 0 31.876-11.939 35.832-28.029 3.956 16.09 18.494 28.029 35.832 28.029 17.338 0 31.876-11.939 35.832-28.029 3.956 16.09 18.494 28.029 35.832 28.029 20.38 0 36.901-16.492 36.901-36.836v-176.478c-.002-59.853-48.608-108.373-108.566-108.373z" fill="#ade194"/><path d="m330.13 120.353v195.991c0 11.295-4.589 21.525-11.999 28.924-7.411 7.409-17.665 11.986-28.974 11.986-19.259 0-35.4-13.264-39.796-31.126-2.193 8.931-7.329 16.715-14.324 22.256-6.995 5.551-15.847 8.87-25.472 8.87-14.263 0-26.821-7.277-34.151-18.308v-175.48c0-66.91 47.663-122.931 110.859-135.962 26.791 22.072 43.857 55.471 43.857 92.849z" fill="#4fc123"/><path d="m314.436 55.091c-59.958 0-108.564 48.52-108.564 108.373v176.478c0 20.344 16.521 36.836 36.901 36.836 17.338 0 31.876-11.939 35.832-28.029 3.956 16.09 18.494 28.029 35.832 28.029 17.338 0 31.876-11.939 35.832-28.029 3.956 16.09 18.494 28.029 35.832 28.029 20.38 0 36.901-16.492 36.901-36.836v-176.478c-.002-59.853-48.608-108.373-108.566-108.373z" fill="#ade194"/><g><path d="m401.488 512h-279.992c-4.206 0-7.614-3.407-7.614-7.612s3.408-7.611 7.614-7.611h279.991c4.206 0 7.614 3.407 7.614 7.611s-3.408 7.612-7.613 7.612z" fill="#d9e7ec"/></g></g></svg>