<svg id="Capa_1" enable-background="new 0 0 512 512" height="512" viewBox="0 0 512 512" width="512" xmlns="http://www.w3.org/2000/svg"><g><path d="m115.148 354.261h54.737v150.086h-54.737z" fill="#e19974" transform="matrix(1 .002 -.002 1 .662 -.219)"/><path d="m115.264 354.219-.075 48.754c15.692.024 28.394 12.759 28.37 28.444l-.112 72.93 26.323.041.23-150.085z" fill="#d77f4a"/><path d="m261.046 258.273c-.02 11.874-1.777 23.342-5.046 34.15-14.255 47.313-57.234 82.143-108.619 84.203-1.675.081-3.351.112-5.036.112-65.467-.101-118.446-53.3-118.345-118.83.061-37.54 17.535-70.98 44.765-92.677-2.294-7.358-3.533-15.182-3.523-23.291.041-27.036 13.91-50.804 34.886-64.647-4.894-7.794-7.726-17.009-7.706-26.894.041-27.879 22.652-50.44 50.502-50.399s50.39 22.672 50.339 50.551c-.01 9.885-2.873 19.09-7.787 26.874 10.376 6.901 19.006 16.228 25.058 27.188 6.153 11.133 9.646 23.941 9.626 37.56-.01 8.119-1.28 15.934-3.594 23.281 18.469 14.807 32.419 35.043 39.435 58.294 3.299 10.93 5.066 22.519 5.045 34.525z" fill="#57be92"/><path d="m342.1 354.261h54.737v150.086h-54.737z" fill="#e19974" transform="matrix(1 .002 -.002 1 .662 -.569)"/><path d="m342.216 354.219-.075 48.754c15.692.024 28.394 12.759 28.37 28.444l-.112 72.93 26.323.041.231-150.085z" fill="#d77f4a"/><path d="m488 258.273c-.102 65.165-52.654 117.968-117.625 118.455-.365.01-.721.01-1.086.01-53.467-.081-98.608-35.591-113.289-84.315-3.3-10.92-5.067-22.51-5.046-34.516.02-11.874 1.787-23.342 5.046-34.16 7.046-23.372 21.108-43.69 39.719-58.517-2.295-7.358-3.533-15.182-3.523-23.291.02-14.117 3.818-27.351 10.438-38.737 6.031-10.423 14.428-19.293 24.448-25.91-4.894-7.794-7.726-17.009-7.716-26.894.051-27.878 22.662-50.439 50.512-50.398 27.84.041 50.38 22.672 50.339 50.551-.01 9.885-2.873 19.09-7.798 26.874 20.936 13.904 34.734 37.722 34.693 64.748-.01 8.119-1.28 15.934-3.594 23.281 27.16 21.779 44.543 55.279 44.482 92.819z" fill="#57be92"/><path d="m232.572 396.995h52.559v107.393h-52.559z" fill="#e19974"/><path d="m232.572 396.995v37.55c14.448 0 26.161 11.707 26.161 26.149v43.694h26.398v-107.393z" fill="#d77f4a"/><g><path d="m456.878 512h-396.054c-4.206 0-7.615-3.407-7.615-7.611s3.409-7.612 7.615-7.612h396.054c4.206 0 7.615 3.407 7.615 7.612 0 4.204-3.409 7.611-7.615 7.611z" fill="#d9e7ec"/></g><path d="m328.459 229.394c3.834-9.141 5.933-19.186 5.884-29.726-.191-41.298-33.848-75.207-75.229-75.771-42.626-.581-77.362 33.726-77.362 76.13 0 10.711 2.219 20.904 6.221 30.15 2.207 5.098 1.337 11.024-2.396 15.142-15.586 17.192-25.182 39.894-25.5 64.828-.691 54.13 43.127 99.096 97.369 99.849 55.2.766 100.189-43.658 100.189-98.568 0-25.947-10.05-49.549-26.473-67.151-3.732-4-4.817-9.843-2.703-14.883z" fill="#ade194"/><path d="m388.093 311.432c0 23.322-6.163 45.709-17.717 65.296-.365.01-.721.01-1.086.01-53.467-.081-98.608-35.591-113.289-84.315-14.255 47.313-57.234 82.143-108.619 84.203-11.565-19.617-18.073-42.513-17.758-66.869.355-28 9.798-54.985 26.794-77.018-3.401-10.524-5.127-21.495-5.127-32.709 0-41.742 24.154-77.952 59.243-95.418 6.153 11.133 9.646 23.941 9.626 37.56-.01 8.119-1.28 15.934-3.594 23.281 18.469 14.807 32.419 35.043 39.435 58.294 7.046-23.372 21.108-43.69 39.719-58.517-2.295-7.358-3.533-15.182-3.523-23.291.02-14.117 3.818-27.351 10.438-38.737 11.453 5.278 22.002 12.635 31.16 21.86 19.87 20.013 30.876 46.45 31.008 74.461.051 10.879-1.513 21.515-4.671 31.755 18.102 22.753 27.961 50.845 27.961 80.154z" fill="#09a76d"/><path d="m328.459 229.394c3.834-9.141 5.933-19.186 5.884-29.726-.191-41.298-33.848-75.207-75.229-75.771-42.626-.581-77.362 33.726-77.362 76.13 0 10.711 2.219 20.904 6.221 30.15 2.207 5.098 1.337 11.024-2.396 15.142-15.586 17.192-25.182 39.894-25.5 64.828-.691 54.13 43.127 99.096 97.369 99.849 55.2.766 100.189-43.658 100.189-98.568 0-25.947-10.05-49.549-26.473-67.151-3.732-4-4.817-9.843-2.703-14.883z" fill="#7acaa6"/></g></svg>