<svg id="Layer_1" enable-background="new 0 0 512 512" height="512" viewBox="0 0 512 512" width="512" xmlns="http://www.w3.org/2000/svg"><g><circle cx="256" cy="256" fill="#fffbdf" r="140"/><g fill="#fff2a0"><circle cx="256" cy="256" r="100"/><path d="m296 76-40-66-40 66z"/><path d="m216 436 40 66 40-66z"/><path d="m157.005 100.437-74.953-18.385 18.385 74.953z"/><path d="m354.995 411.564 74.953 18.384-18.385-74.953z"/><path d="m76 216-66 40 66 40z"/><path d="m436 296 66-40-66-40z"/><path d="m100.437 354.995-18.385 74.953 74.953-18.384z"/><path d="m411.563 157.005 18.385-74.953-74.953 18.385z"/></g><g fill="#ffcd69"><path d="m256 106c-82.71 0-150 67.29-150 150s67.29 150 150 150 150-67.29 150-150-67.29-150-150-150zm0 280c-71.682 0-130-58.318-130-130s58.318-130 130-130 130 58.318 130 130-58.318 130-130 130z"/><path d="m216 86h80c3.611 0 6.941-1.946 8.713-5.092s1.71-7.003-.161-10.091l-40-66c-1.812-2.99-5.055-4.817-8.552-4.817s-6.74 1.827-8.552 4.817l-40 66c-1.872 3.088-1.933 6.945-.161 10.091s5.102 5.092 8.713 5.092zm40-56.706 22.246 36.706h-44.492z"/><path d="m296 426h-80c-3.611 0-6.941 1.946-8.713 5.092s-1.71 7.003.161 10.091l40 66c1.812 2.99 5.055 4.817 8.552 4.817s6.74-1.827 8.552-4.817l40-66c1.871-3.088 1.933-6.945.161-10.091s-5.102-5.092-8.713-5.092zm-40 56.706-22.246-36.706h44.492z"/><path d="m90.725 159.387c.86 3.507 3.543 6.277 7.021 7.249.889.248 1.793.369 2.69.369 2.616 0 5.17-1.028 7.072-2.929l56.568-56.568c2.553-2.553 3.531-6.285 2.56-9.762-.972-3.478-3.742-6.161-7.249-7.021l-74.953-18.385c-3.399-.834-6.981.169-9.454 2.641-2.472 2.473-3.474 6.058-2.641 9.454zm46.655-53.468-31.461 31.46-10.225-41.685z"/><path d="m421.275 352.613c-.86-3.507-3.543-6.277-7.021-7.249-3.479-.972-7.208.007-9.762 2.56l-56.568 56.568c-2.553 2.553-3.531 6.285-2.56 9.762.972 3.478 3.742 6.161 7.249 7.021l74.953 18.385c.79.194 1.589.288 2.382.288 2.62 0 5.174-1.031 7.072-2.929 2.472-2.473 3.474-6.058 2.641-9.454zm-46.655 53.468 31.461-31.461 10.225 41.686z"/><path d="m80.908 304.713c3.146-1.772 5.092-5.102 5.092-8.713v-80c0-3.611-1.946-6.941-5.092-8.713-3.146-1.771-7.002-1.71-10.091.161l-66 40c-2.99 1.812-4.817 5.055-4.817 8.552s1.827 6.74 4.817 8.552l66 40c1.591.964 3.386 1.448 5.183 1.448 1.69 0 3.383-.428 4.908-1.287zm-14.908-26.467-36.706-22.246 36.706-22.246z"/><path d="m507.183 247.448-66-40c-3.088-1.871-6.945-1.933-10.091-.161s-5.092 5.102-5.092 8.713v80c0 3.611 1.946 6.941 5.092 8.713 1.525.859 3.217 1.287 4.908 1.287 1.797 0 3.592-.484 5.183-1.448l66-40c2.99-1.812 4.817-5.055 4.817-8.552s-1.827-6.74-4.817-8.552zm-61.183 30.798v-44.492l36.706 22.246z"/><path d="m107.508 347.924c-2.554-2.553-6.286-3.532-9.762-2.56-3.478.972-6.161 3.742-7.021 7.249l-18.385 74.953c-.833 3.396.169 6.981 2.641 9.454 1.898 1.898 4.451 2.929 7.072 2.929.793 0 1.593-.094 2.382-.288l74.953-18.385c3.507-.86 6.277-3.543 7.249-7.021.971-3.478-.007-7.209-2.56-9.762zm-11.814 68.382 10.225-41.686 31.461 31.461z"/><path d="m404.492 164.076c1.901 1.901 4.456 2.929 7.072 2.929.897 0 1.802-.121 2.69-.369 3.478-.972 6.161-3.742 7.021-7.249l18.385-74.953c.833-3.396-.168-6.981-2.641-9.454s-6.057-3.475-9.454-2.641l-74.953 18.385c-3.507.86-6.277 3.543-7.249 7.021-.971 3.478.007 7.209 2.56 9.762zm11.814-68.382-10.225 41.686-31.461-31.46z"/></g></g></svg>