<svg id="Layer_1" enable-background="new 0 0 512 512" height="512" viewBox="0 0 512 512" width="512" xmlns="http://www.w3.org/2000/svg"><g><circle cx="336" cy="202" fill="#eaf5bc" r="80"/><circle cx="256" cy="122" fill="#fff" r="80"/><circle cx="176" cy="202" fill="#fff2a0" r="80"/><path d="m416 242c0 88.366-71.634 160-160 160s-160-71.634-160-160" fill="#99ebfa"/><path d="m336 242c0 88.366-35.817 160-80 160s-80-71.634-80-160" fill="#ccf5fc"/><g><path d="m256 402c0 55.228 44.772 100 100 100h-200c55.229 0 100-44.772 100-100" fill="#99ebfa"/></g><path d="m436 242h-360c-11.046 0-20-8.954-20-20 0-11.046 8.954-20 20-20h360c11.046 0 20 8.954 20 20 0 11.046-8.954 20-20 20z" fill="#99ebfa"/><circle cx="256" cy="40" fill="#ffbecb" r="30"/><path d="m436 192h-10.559c-4.645-41.82-38.056-75.086-79.945-79.499-3.2-30.675-21.756-57.444-49.53-71.166.015-.445.034-.887.034-1.335 0-22.056-17.944-40-40-40s-40 17.944-40 40c0 .454.019.903.034 1.354-27.687 13.728-46.299 40.65-49.526 71.146-41.891 4.411-75.305 37.678-79.95 79.5h-10.558c-16.542 0-30 13.458-30 30s13.458 30 30 30h10.302c4.992 85.617 73.629 154.415 159.178 159.665-4.837 45.098-43.119 80.335-89.48 80.335h-20c-5.523 0-10 4.477-10 10s4.477 10 10 10h240c5.522 0 10-4.477 10-10s-4.478-10-10-10h-20c-46.361 0-84.643-35.237-89.48-80.335 85.549-5.25 154.186-74.048 159.178-159.665h10.302c16.542 0 30-13.458 30-30s-13.458-30-30-30zm-30.726 0h-92.776c17.815-14.407 30.04-35.46 32.869-59.355 30.905 4.154 55.478 28.537 59.907 59.355zm-149.274-172c11.028 0 20 8.972 20 20s-8.972 20-20 20-20-8.972-20-20 8.972-20 20-20zm-34.111 40.866c7.041 11.467 19.696 19.134 34.111 19.134 14.418 0 27.077-7.671 34.117-19.143 22.046 12.256 35.883 35.409 35.883 61.143 0 35.42-26.451 64.76-60.633 69.355-4.87-41.137-37.592-73.856-78.729-78.723 2.935-21.78 15.974-41.005 35.251-51.766zm-45.889 71.134c35.202 0 64.406 26.124 69.274 60h-138.548c4.868-33.876 34.072-60 69.274-60zm-69.659 120h59.81c1.619 55.184 16.567 102.56 39.029 131.131-54.78-19.786-94.835-70.608-98.839-131.131zm149.659 140c-17.132 0-34.489-15.066-47.624-41.335-13.256-26.511-21.035-61.238-22.213-98.665h139.675c-1.179 37.427-8.957 72.154-22.213 98.665-13.136 26.269-30.493 41.335-47.625 41.335zm36.828 100h-73.656c15.86-11.166 28.648-26.411 36.828-44.2 8.18 17.789 20.968 33.034 36.828 44.2zm13.992-108.869c22.462-28.571 37.41-75.947 39.029-131.131h59.81c-4.004 60.523-44.059 111.345-98.839 131.131zm129.18-151.131h-360c-5.514 0-10-4.486-10-10s4.486-10 10-10h360c5.514 0 10 4.486 10 10s-4.486 10-10 10z" fill="#80b6ff"/></g></svg>