<svg id="Layer_1" enable-background="new 0 0 512 512" height="512" viewBox="0 0 512 512" width="512" xmlns="http://www.w3.org/2000/svg"><g><circle cx="150" cy="256" fill="#ffd4b5" r="140"/><g fill="#d1a19e"><circle cx="80" cy="326" r="10"/><circle cx="120" cy="326" r="10"/><circle cx="100" cy="296" r="10"/></g><g><circle cx="362" cy="256" fill="#ffd4b5" r="140"/><circle cx="382" cy="236" fill="#fff" r="100"/><circle cx="382" cy="236" fill="#f4e8e0" r="60"/><path d="m362 106c-41.323 0-78.796 16.797-105.952 43.921-28.037-28.003-66.255-43.921-106.048-43.921-82.71 0-150 67.29-150 150s67.29 150 150 150c39.793 0 78.011-15.918 106.048-43.921 27.156 27.124 64.629 43.921 105.952 43.921 82.71 0 150-67.29 150-150s-67.29-150-150-150zm110 130c0 49.626-40.374 90-90 90s-90-40.374-90-90 40.374-90 90-90 90 40.374 90 90zm-322 150c-71.682 0-130-58.318-130-130s58.318-130 130-130c34.928 0 68.452 14.159 92.834 39.012-19.33 25.255-30.834 56.801-30.834 90.988s11.504 65.733 30.834 90.988c-24.382 24.853-57.906 39.012-92.834 39.012zm212 0c-71.682 0-130-58.318-130-130s58.318-130 130-130c3.514 0 6.995.145 10.44.42-56.194 4.861-100.44 52.147-100.44 109.58 0 60.654 49.346 110 110 110 57.433 0 104.719-44.246 109.58-100.44.275 3.445.42 6.926.42 10.44 0 71.682-58.318 130-130 130z" fill="#d1a19e"/></g></g></svg>