<svg id="Layer_1" enable-background="new 0 0 512 512" height="512" viewBox="0 0 512 512" width="512" xmlns="http://www.w3.org/2000/svg"><g><path d="m136 236c0 22.091-17.909 40-40 40s-40-17.909-40-40" fill="#ffbecb"/><path d="m216 236c0 22.091-17.909 40-40 40s-40-17.909-40-40" fill="#fff"/><path d="m376 236c0 22.091-17.909 40-40 40s-40-17.909-40-40" fill="#fff"/><g fill="#ffbecb"><path d="m456 236c0 22.091-17.909 40-40 40s-40-17.909-40-40"/><path d="m296 236c0 22.091-17.909 40-40 40s-40-17.909-40-40"/><path d="m56 236c0-110.457 89.543-200 200-200s200 89.543 200 200"/></g><path d="m256 36c-66.274 0-120 89.543-120 200h80c0-110.457 17.909-200 40-200z" fill="#fff"/><path d="m256 36c22.091 0 40 89.543 40 200h80c0-110.457-53.726-200-120-200z" fill="#fff"/><g><circle cx="156" cy="442" fill="#ffdede" r="60"/><ellipse cx="148.929" cy="449.071" fill="#fff" rx="50" ry="25" transform="matrix(.707 -.707 .707 .707 -273.921 236.839)"/><ellipse cx="184.284" cy="413.716" fill="#fff" rx="20" ry="30" transform="matrix(.707 -.707 .707 .707 -238.566 251.484)"/><path d="m296 265.965c9.13 12.157 23.661 20.035 40 20.035s30.87-7.878 40-20.035c9.13 12.157 23.661 20.035 40 20.035 27.57 0 50-22.43 50-50 0-112.442-88.831-204.518-200-209.756v-16.244c0-5.523-4.477-10-10-10s-10 4.477-10 10v16.244c-111.169 5.238-200 97.314-200 209.756 0 27.57 22.43 50 50 50 16.339 0 30.87-7.878 40-20.035 9.13 12.157 23.661 20.035 40 20.035s30.87-7.878 40-20.035c7.216 9.609 17.808 16.544 30 19.029v207.006h-41.077c12.993-12.716 21.077-30.427 21.077-50 0-17.589-6.536-33.671-17.287-45.981-1.014-1.207-2.083-2.384-3.215-3.516-1.133-1.133-2.31-2.202-3.518-3.216-12.31-10.752-28.391-17.287-45.98-17.287-38.598 0-70 31.402-70 70 0 18.656 7.35 35.617 19.289 48.178.388.452.788.895 1.213 1.32.178.178.375.331.559.502h-11.061c-5.523 0-10 4.477-10 10s4.477 10 10 10h320c5.523 0 10-4.477 10-10s-4.477-10-10-10h-150v-207.006c12.192-2.485 22.783-9.42 30-19.029zm-140 226.035c-2.067 0-4.101-.141-6.103-.386 8.194-4.299 16.38-10.393 23.78-17.794 7.663-7.662 13.922-16.135 18.261-24.677.728.048 1.452.078 2.169.078 4.157 0 8.115-.818 11.661-2.472-2.4 25.35-23.8 45.251-49.768 45.251zm-35.084-27.267c2.816-8.448 9.16-18.023 17.407-26.269 5.323-5.323 11.237-9.872 17.057-13.189 2.086 3.36 4.652 6.615 7.691 9.654s6.295 5.601 9.656 7.688c-3.317 5.821-7.866 11.737-13.191 17.061-8.246 8.246-17.82 14.59-26.269 17.406-6.275 2.091-10.599 1.789-12.319.528-.187-.185-.373-.37-.558-.558-1.263-1.72-1.566-6.046.526-12.321zm72.012-56.405c3.381 3.858 5.733 8.263 6.55 12.349.64 3.198.247 5.882-1.052 7.181-2.883 2.884-12.581 1.563-21.213-7.071-8.633-8.633-9.954-18.33-7.071-21.213.888-.888 2.425-1.353 4.331-1.353.88 0 1.839.099 2.849.301 4.088.818 8.493 3.17 12.352 6.553 1.134 1.034 2.22 2.119 3.254 3.253zm-41.672-16.097c-1.94 4.158-2.721 8.882-2.395 13.829-8.543 4.34-17.018 10.599-24.681 18.262-7.401 7.401-13.496 15.587-17.795 23.781-.244-2.002-.385-4.036-.385-6.103 0-25.97 19.903-47.371 45.256-49.769zm154.695-166.231c-.488-50.316-4.656-97.358-11.862-133.382-3.396-16.979-7.212-30.566-11.542-40.929 18.452 8.035 35.557 24.413 49.73 48.035 20.336 33.893 32.126 78.416 33.569 126.276zm-76.499-174.312c-4.329 10.364-8.146 23.951-11.542 40.929-7.205 36.024-11.373 83.066-11.862 133.382h-59.896c1.444-47.86 13.233-92.383 33.569-126.276 14.174-23.621 31.279-40 49.731-48.035zm7.037 50.212c8.202-44.245 17.34-53.915 19.511-55.64 2.171 1.726 11.309 11.396 19.511 55.641 6.312 34.047 9.976 77.79 10.438 124.1h-59.898c.462-46.311 4.127-90.053 10.438-124.101zm99.511 164.1c-13.036 0-24.152-8.361-28.28-20h56.56c-4.128 11.639-15.244 20-28.28 20zm80 0c-13.036 0-24.152-8.361-28.28-20h56.56c-4.128 11.639-15.244 20-28.28 20zm29.737-40h-59.882c-1.471-51.47-14.273-99.642-36.427-136.566-6.765-11.276-14.19-21.146-22.139-29.542 66.611 27.062 114.527 90.854 118.448 166.108zm-261.025-166.109c-7.95 8.396-15.374 18.267-22.139 29.542-22.156 36.925-34.958 85.097-36.428 136.567h-59.882c3.921-75.254 51.837-139.046 118.449-166.109zm-88.712 206.109c-13.036 0-24.152-8.361-28.28-20h56.56c-4.128 11.639-15.244 20-28.28 20zm80 0c-13.036 0-24.152-8.361-28.28-20h56.56c-4.128 11.639-15.244 20-28.28 20zm51.72-20h56.56c-4.128 11.639-15.243 20-28.28 20s-24.152-8.361-28.28-20z" fill="#ff5d7d"/></g></g></svg>