<svg id="Layer_1" enable-background="new 0 0 512.75 512.75" height="512" viewBox="0 0 512.75 512.75" width="512" xmlns="http://www.w3.org/2000/svg"><g><path d="m156 256.375 100-160 100 160" fill="#fff2a0"/><path d="m10 336.375h492v80h-492z" fill="#ccf5fc"/><g><path d="m96 386.375h-40c-5.523 0-10-4.477-10-10s4.477-10 10-10h40c5.523 0 10 4.477 10 10s-4.477 10-10 10z" fill="#99ebfa"/></g><g><path d="m456 386.375h-40c-5.522 0-10-4.477-10-10s4.478-10 10-10h40c5.522 0 10 4.477 10 10s-4.478 10-10 10z" fill="#99ebfa"/></g><path d="m56 256.375 100 120h200l100-120z" fill="#fffbdf"/><g fill="#ffcd69"><path d="m502.75 406.375h-492c-5.523 0-10 4.477-10 10s4.477 10 10 10h492c5.522 0 10-4.477 10-10s-4.478-10-10-10z"/><path d="m10 346.375h106c.628 0 1.24-.065 1.836-.176l30.481 36.578c.057.069.123.129.182.196.153.173.308.345.475.509.107.106.22.205.332.306.098.089.189.183.292.269.059.049.122.09.181.138.094.075.19.147.287.219.189.14.382.272.578.396.084.053.167.108.253.159.263.156.53.301.803.431.024.011.047.025.072.037.32.15.646.281.977.394.028.009.057.017.084.026.291.097.585.179.881.249.079.019.159.035.239.051.26.054.52.098.782.131.083.01.165.023.248.032.337.034.674.057 1.011.057h.009 199.992.009c.337 0 .674-.023 1.011-.057.083-.008.166-.021.249-.032.262-.033.521-.076.781-.13.08-.017.161-.033.24-.052.296-.069.589-.151.879-.248.029-.009.058-.017.087-.027.33-.113.655-.244.975-.394.026-.012.051-.027.077-.039.27-.129.536-.272.796-.427.088-.052.173-.108.26-.163.192-.123.382-.252.568-.389.101-.074.2-.149.299-.227.058-.046.118-.086.175-.133.099-.083.186-.174.281-.26.117-.105.235-.209.347-.32.159-.157.307-.322.454-.487.065-.073.136-.138.199-.213l30.482-36.578c.596.111 1.208.176 1.836.176h106c5.522 0 10-4.477 10-10s-4.478-10-10-10h-91.316l52.998-63.598c2.483-2.981 3.02-7.129 1.373-10.644-1.646-3.514-5.176-5.758-9.056-5.758h-94.457l-97.062-155.3c-.023-.036-.051-.067-.074-.103-.198-.307-.408-.605-.638-.888-.015-.019-.028-.04-.044-.058-.241-.293-.503-.568-.776-.832-.082-.079-.168-.153-.252-.229-.206-.186-.419-.364-.64-.533-.091-.069-.181-.139-.274-.205-.274-.195-.557-.377-.851-.544-.036-.02-.069-.044-.105-.063-.342-.189-.697-.356-1.063-.505-.063-.026-.128-.046-.192-.07-.296-.113-.597-.213-.906-.298-.103-.028-.206-.054-.31-.079-.284-.069-.572-.124-.865-.168-.105-.016-.208-.035-.313-.048-.388-.046-.78-.076-1.18-.076s-.792.03-1.18.076c-.105.012-.208.032-.312.048-.293.044-.582.099-.866.168-.103.025-.205.051-.308.079-.31.086-.613.186-.91.3-.062.024-.126.043-.188.069-.366.149-.722.316-1.065.506-.033.018-.064.04-.098.059-.296.168-.581.352-.858.548-.092.065-.181.134-.271.203-.223.17-.437.349-.644.536-.083.075-.167.147-.248.226-.274.265-.536.541-.779.835-.012.015-.022.031-.035.046-.234.288-.448.591-.649.904-.022.034-.049.064-.07.098l-97.062 155.3h-94.454c-3.88 0-7.41 2.245-9.056 5.758-1.646 3.514-1.11 7.663 1.374 10.644l52.998 63.598h-91.316c-5.523 0-10 4.477-10 10s4.477 9.996 10 9.996zm167.35 20 78.65-94.379 78.649 94.379zm178.65-5.621-78.649-94.379h78.635c.008 0 .016.001.023.001s.014-.001.022-.001h78.618zm-90-114.379v-115.132l71.957 115.132zm-20-115.132v115.132h-71.958zm-11.35 135.132-78.65 94.38-78.649-94.38z"/></g></g></svg>