<svg id="Layer_1" enable-background="new 0 0 512 512" height="512" viewBox="0 0 512 512" width="512" xmlns="http://www.w3.org/2000/svg"><g><ellipse cx="256" cy="306" fill="#fff2a0" rx="246" ry="80"/><path d="m376 286v6.03c-70.66 18.63-169.34 18.63-240 0v-6.03c0-66.27 40-160 120-160s120 93.73 120 160z" fill="#fff2a0"/><path d="m376 286v6.03c-70.66 18.63-169.34 18.63-240 0v-6.03c0-10.53 1.01-21.75 3.03-33.18 69.42 17.58 164.52 17.58 233.94 0 2.02 11.43 3.03 22.65 3.03 33.18z" fill="#fff"/><path d="m470.081 255.158c-23.125-12.171-55.248-22.162-93.144-29-5.387-18.065-13.016-35.339-22.478-50.345-11.399-18.075-25.018-32.374-40.481-42.499-17.544-11.489-37.051-17.314-57.978-17.314s-40.434 5.825-57.979 17.314c-15.463 10.125-29.082 24.424-40.48 42.499-9.462 15.006-17.092 32.279-22.479 50.345-37.895 6.838-70.018 16.829-93.144 29-19.122 10.064-41.918 27.054-41.918 50.842 0 18.431 13.698 44.855 78.959 66.078 47.436 15.426 110.31 23.922 177.041 23.922s129.605-8.496 177.041-23.922c65.261-21.223 78.959-47.647 78.959-66.078 0-23.788-22.796-40.778-41.919-50.842zm-322.795 9.876c33.184 7.332 70.941 11.01 108.714 11.01s75.53-3.678 108.714-11.01c.772 6.455 1.202 12.885 1.269 19.215-65.908 15.731-154.058 15.731-219.966 0 .067-6.33.497-12.759 1.269-19.215zm27.173-78.553c14.521-23.029 40.457-50.481 81.541-50.481s67.02 27.452 81.541 50.481c10.848 17.203 19.028 37.721 23.774 58.826-64.155 14.375-146.475 14.375-210.63 0 4.746-21.105 12.926-41.623 23.774-58.826zm252.396 166.578c-45.491 14.794-106.169 22.941-170.855 22.941s-125.364-8.147-170.855-22.941c-40.792-13.266-65.145-30.858-65.145-47.059 0-10.773 11.092-22.543 31.233-33.144 19.582-10.306 46.555-18.991 78.59-25.354-2.024 10.453-3.281 20.975-3.682 31.303-2.333-.73-4.629-1.482-6.881-2.258-5.219-1.799-10.913.972-12.714 6.193s.972 10.913 6.192 12.714c38.419 13.249 89.296 20.546 143.262 20.546s104.843-7.297 143.261-20.546c5.221-1.801 7.993-7.493 6.192-12.714-1.801-5.223-7.495-7.994-12.714-6.193-2.251.777-4.548 1.528-6.881 2.258-.401-10.327-1.657-20.85-3.682-31.303 32.034 6.363 59.008 15.048 78.59 25.354 20.142 10.601 31.234 22.371 31.234 33.144 0 16.201-24.353 33.793-65.145 47.059z" fill="#ffcd69"/></g></svg>