<svg id="Layer_1" enable-background="new 0 0 512 512" height="512" viewBox="0 0 512 512" width="512" xmlns="http://www.w3.org/2000/svg"><g><path d="m451.68 266-102.4-160h-33.28l-20-40h78l128 200" fill="#99ebfa"/><path d="m60.32 266 102.4-160h33.28l20-40h-78l-128 200" fill="#99ebfa"/><path d="m456 306h46v-40h-492v40h46v100c0 22.091 17.909 40 40 40h100c22.091 0 40-17.909 40-40v-90c0-5.523 4.477-10 10-10h20c5.523 0 10 4.477 10 10v90c0 22.091 17.909 40 40 40h100c22.091 0 40-17.909 40-40z" fill="#ccf5fc"/><path d="m176 406h-60c-11.046 0-20-8.954-20-20v-80h100v80c0 11.046-8.954 20-20 20z" fill="#99ebfa"/><path d="m396 406h-60c-11.046 0-20-8.954-20-20v-80h100v80c0 11.046-8.954 20-20 20z" fill="#99ebfa"/><g fill="#fff"><circle cx="366" cy="376" r="10"/><circle cx="386" cy="356" r="5"/><circle cx="126" cy="376" r="10"/><circle cx="146" cy="356" r="5"/></g><g><path d="m511.908 264.713c-.013-.103-.03-.204-.047-.306-.06-.374-.138-.741-.239-1.1-.014-.052-.025-.105-.04-.156-.124-.419-.277-.824-.452-1.219-.03-.066-.064-.131-.095-.197-.161-.341-.34-.67-.537-.988-.028-.045-.047-.094-.075-.138l-128-200c-1.838-2.872-5.013-4.609-8.423-4.609h-78c-3.466 0-6.685 1.794-8.506 4.743-1.822 2.948-1.988 6.629-.438 9.729l20 40c1.693 3.388 5.156 5.528 8.944 5.528h27.807l89.6 140h-354.814l89.6-140h27.807c3.788 0 7.25-2.14 8.944-5.528l20-40c1.55-3.1 1.384-6.781-.438-9.729-1.821-2.949-5.04-4.743-8.506-4.743h-78c-3.41 0-6.585 1.737-8.423 4.609l-128 200c-.028.044-.048.094-.075.138-.197.318-.376.647-.537.988-.031.066-.065.13-.095.197-.176.394-.328.8-.453 1.219-.015.052-.026.104-.04.156-.1.359-.179.726-.239 1.1-.017.102-.033.203-.047.306-.053.423-.091.85-.091 1.287v40c0 5.523 4.477 10 10 10h36v90c0 27.57 22.43 50 50 50h100c27.57 0 50-22.43 50-50v-90h20v90c0 27.57 22.43 50 50 50h100c27.57 0 50-22.43 50-50v-90h36c5.523 0 10-4.477 10-10v-40c0-.437-.038-.864-.092-1.287zm-154.205-164.104c-1.839-2.872-5.014-4.609-8.423-4.609h-27.1l-10-20h56.347l115.2 180h-26.574zm-214.23-24.609h56.347l-10 20h-27.1c-3.41 0-6.585 1.737-8.423 4.609l-99.45 155.391h-26.574zm312.527 220c-5.523 0-10 4.477-10 10v100c0 16.542-13.458 30-30 30h-100c-16.542 0-30-13.458-30-30v-90c0-11.028-8.972-20-20-20h-20c-11.028 0-20 8.972-20 20v90c0 16.542-13.458 30-30 30h-100c-16.542 0-30-13.458-30-30v-100c0-5.523-4.477-10-10-10h-36v-20h472v20z" fill="#80b6ff"/></g></g></svg>