<svg id="Layer_1" enable-background="new 0 0 512 512" height="512" viewBox="0 0 512 512" width="512" xmlns="http://www.w3.org/2000/svg"><g><path d="m356 462v40h-200v-40" fill="#fff"/><path d="m136 102h240v360h-240z" fill="#fff2a0"/><path d="m276 10h40v272h-40z" fill="#fff"/><path d="m276 162h40v120.001h-40z" fill="#fffbdf"/><path d="m136 102h240v60h-240z" fill="#fff"/><path d="m318.853 319.572c23.433 23.434 23.434 61.419 0 84.853s-61.419 23.434-84.853 0z" fill="#fffbdf"/><path d="m176 282h60v60h-60z" fill="#fff"/><g fill="#ffcd69"><path d="m376 92h-50v-82c0-5.523-4.477-10-10-10h-40c-5.523 0-10 4.477-10 10v82h-130c-5.523 0-10 4.477-10 10v360c0 5.523 4.477 10 10 10h10v30c0 5.523 4.477 10 10 10h200c5.523 0 10-4.477 10-10v-30h10c5.523 0 10-4.477 10-10v-360c0-5.523-4.477-10-10-10zm-10 20v40h-40v-40zm-80 60h20v100h-20zm0-20v-40h20v40zm0-132h20v72h-20zm-20 92v40h-120v-40zm80 380h-180v-20h180zm-200-40v-280h120v110c0 5.523 4.477 10 10 10h40c5.523 0 10-4.477 10-10v-110h40v280z"/><path d="m346.368 360.935c-.265-17.569-7.068-35.058-20.444-48.434-1.875-1.876-4.419-2.929-7.071-2.929s-5.196 1.054-7.071 2.929l-84.853 84.853c-3.905 3.905-3.905 10.237 0 14.143 13.377 13.376 30.864 20.18 48.433 20.444.35.037.705.058 1.065.058s.714-.021 1.064-.058c17.569-.265 35.057-7.068 48.434-20.445 13.376-13.376 20.18-30.865 20.444-48.434.037-.35.058-.704.058-1.064-.001-.359-.022-.713-.059-1.063zm-28.234 28.629-17.565-17.565h24.821c-1.25 6.167-3.669 12.14-7.256 17.565zm-31.708-3.424 17.565 17.565c-5.425 3.587-11.397 6.006-17.565 7.256zm31.717-51.716c3.589 5.426 6.006 11.405 7.256 17.574h-24.83zm-51.717 51.717v24.83c-6.17-1.25-12.148-3.667-17.574-7.256z"/></g><g fill="#fff"><circle cx="186" cy="216" r="10"/><circle cx="346" cy="426" r="10"/><circle cx="206" cy="197" r="5"/></g></g></svg>