<svg id="Layer_1" enable-background="new 0 0 512 512" height="512" viewBox="0 0 512 512" width="512" xmlns="http://www.w3.org/2000/svg"><g><g><g fill="#cecdf3"><path d="m256 362c-6.774 0-13.448-.425-20-1.242v121.242c0 11.046 8.954 20 20 20s20-8.954 20-20v-121.242c-6.552.817-13.226 1.242-20 1.242z"/><path d="m146.551 318.695-26.722 160.333c-2.004 12.026 7.268 22.972 19.459 22.972 9.644 0 17.874-6.972 19.459-16.485l23.577-141.46c-13.088-6.802-25.114-15.359-35.773-25.36z"/><path d="m365.449 318.695c-10.659 10.001-22.685 18.558-35.773 25.36l23.577 141.46c1.585 9.512 9.816 16.485 19.459 16.485 12.191 0 21.464-10.946 19.46-22.971z"/></g><path d="m416 202c0 88.366-71.634 160-160 160s-160-71.634-160-160" fill="#e6e6f9"/><path d="m436 202h-360c-11.046 0-20-8.954-20-20 0-11.046 8.954-20 20-20h360c11.046 0 20 8.954 20 20 0 11.046-8.954 20-20 20z" fill="#fff"/></g><g fill="#c193dc"><path d="m436 152h-360c-16.542 0-30 13.458-30 30s13.458 30 30 30h10.302c2.501 42.891 20.965 81.565 49.537 110.142l-25.874 155.243c-1.44 8.637.98 17.422 6.64 24.103s13.928 10.513 22.684 10.513c14.592 0 26.924-10.447 29.323-24.84l9.193-55.16h48.195v50c0 16.542 13.458 30 30 30s30-13.458 30-30v-50h48.195l9.193 55.159c2.398 14.393 14.73 24.841 29.323 24.841 8.756 0 17.023-3.832 22.683-10.513s8.08-15.466 6.642-24.103l-25.874-155.243c28.572-28.576 47.035-67.251 49.536-110.141h10.302c16.542 0 30-13.458 30-30s-13.458-30.001-30-30.001zm-287.116 331.872c-.785 4.71-4.821 8.128-9.596 8.128-2.908 0-5.544-1.222-7.423-3.44s-2.651-5.02-2.173-7.887l23.852-143.109c5.656 4.285 11.583 8.231 17.759 11.794zm32.254-71.872 8.888-53.326c11.413 4.824 23.459 8.437 35.975 10.675v42.651zm84.862 70c0 5.514-4.486 10-10 10s-10-4.486-10-10v-110.302c3.31.193 6.642.302 10 .302s6.69-.109 10-.302zm20-70v-42.651c12.516-2.238 24.561-5.85 35.974-10.675l8.888 53.326zm94.135 76.56c-1.879 2.219-4.516 3.44-7.423 3.44-4.775 0-8.811-3.418-9.595-8.128l-22.419-134.514c6.175-3.563 12.102-7.509 17.758-11.794l23.852 143.108c.478 2.868-.294 5.669-2.173 7.888zm-124.135-136.56c-79.35 0-144.494-61.935-149.659-140h299.317c-5.164 78.065-70.309 140-149.658 140zm180-160h-360c-5.514 0-10-4.486-10-10s4.486-10 10-10h360c5.514 0 10 4.486 10 10s-4.486 10-10 10z"/><path d="m226 282h60c11.028 0 20-8.972 20-20v-20c0-5.523-4.478-10-10-10s-10 4.477-10 10v20h-60v-20c0-5.523-4.477-10-10-10s-10 4.477-10 10v20c0 11.028 8.972 20 20 20z"/><path d="m216 126c5.523 0 10-4.477 10-10v-80c0-5.523-4.477-10-10-10s-10 4.477-10 10v80c0 5.523 4.477 10 10 10z"/><path d="m256 126c5.522 0 10-4.477 10-10v-106c0-5.523-4.478-10-10-10-5.523 0-10 4.477-10 10v106c0 5.523 4.477 10 10 10z"/><path d="m296 126c5.522 0 10-4.477 10-10v-80c0-5.523-4.478-10-10-10s-10 4.477-10 10v80c0 5.523 4.478 10 10 10z"/></g></g></svg>