<svg id="Layer_1" enable-background="new 0 0 512 512" height="512" viewBox="0 0 512 512" width="512" xmlns="http://www.w3.org/2000/svg"><g><path d="m256 142c-33.137 0-60-32.863-60-66v80c0 33.137 26.863 60 60 60 33.137 0 60-26.863 60-60v-80c0 33.137-26.863 66-60 66z" fill="#fff2a0"/><path d="m396 502v-306c-22.091 0-40-17.909-40-40v-146h-40v146c0 33.137-26.863 60-60 60-33.137 0-60-26.863-60-60v-146h-40v146c0 22.091-17.909 40-40 40v306z" fill="#fffbdf"/><path d="m206 336c0-27.614 22.386-50 50-50s50 22.386 50 50" fill="#fff"/><g fill="#ffcd69"><path d="m396 186c-16.542 0-30-13.458-30-30v-146c0-5.523-4.478-10-10-10h-40c-5.522 0-10 4.477-10 10v66c0 32.051-26.397 56-50 56-28.617 0-50-29.565-50-56v-66c0-5.523-4.477-10-10-10h-40c-5.523 0-10 4.477-10 10v146c0 16.542-13.458 30-30 30-5.522 0-10 4.477-10 10v306c0 5.523 4.478 10 10 10h280c5.522 0 10-4.477 10-10v-306c0-5.523-4.478-10-10-10zm-189.939-57.973c13.584 15.459 31.319 23.973 49.939 23.973s36.355-8.514 49.939-23.973c.021-.024.04-.049.061-.073v28.046c0 27.57-22.43 50-50 50s-50-22.43-50-50v-28.046c.021.024.04.049.061.073zm179.939 363.973h-260v-287.004c22.794-4.646 40-24.85 40-48.996v-136h20v136c0 38.598 31.402 70 70 70s70-31.402 70-70v-136h20v136c0 24.145 17.206 44.349 40 48.996z"/><path d="m336 326h-20.849c-4.777-28.339-29.475-50-59.151-50s-54.374 21.661-59.151 50h-20.849c-5.523 0-10 4.477-10 10s4.477 10 10 10h160c5.522 0 10-4.477 10-10s-4.478-10-10-10zm-80-30c18.604 0 34.282 12.767 38.734 30h-77.468c4.452-17.233 20.13-30 38.734-30z"/><path d="m316 366h-120c-5.523 0-10 4.477-10 10s4.477 10 10 10h120c5.522 0 10-4.477 10-10s-4.478-10-10-10z"/><path d="m296 406h-80c-5.523 0-10 4.477-10 10s4.477 10 10 10h80c5.522 0 10-4.477 10-10s-4.478-10-10-10z"/></g></g></svg>