<svg id="Layer_1" enable-background="new 0 0 512 512" height="512" viewBox="0 0 512 512" width="512" xmlns="http://www.w3.org/2000/svg"><g><path d="m476 256c0-121.503-98.497-220-220-220s-220 98.497-220 220 98.497 220 220 220 220-98.497 220-220zm-320 0c0-55.229 44.771-100 100-100s100 44.771 100 100-44.772 100-100 100-100-44.772-100-100z" fill="#ffbecb"/><g fill="#fff"><path d="m356 296 146 20v-120l-146 20"/><path d="m156 216-146-20v120l146-20"/><path d="m216 356-20 146h120l-20-146"/><path d="m296 156 20-146h-120l20 146"/></g><path d="m508.574 188.464c-2.177-1.899-5.071-2.765-7.931-2.372l-24.469 3.352c-10.889-36.095-30.709-69.25-57.539-96.08-26.83-26.829-59.984-46.649-96.079-57.539l3.352-24.469c.392-2.862-.473-5.754-2.372-7.931-1.899-2.175-4.647-3.425-7.536-3.425h-120c-2.889 0-5.637 1.25-7.536 3.426-1.899 2.177-2.764 5.069-2.372 7.931l3.352 24.469c-36.096 10.89-69.25 30.709-96.079 57.539s-46.649 59.984-57.539 96.08l-24.469-3.352c-2.863-.395-5.754.472-7.931 2.372-2.177 1.898-3.426 4.646-3.426 7.535v120c0 2.889 1.249 5.637 3.426 7.536 1.833 1.598 4.172 2.464 6.573 2.464.451 0 .905-.031 1.358-.093l24.469-3.352c10.889 36.095 30.709 69.25 57.539 96.079 26.829 26.83 59.983 46.65 96.079 57.539l-3.352 24.469c-.392 2.862.473 5.754 2.372 7.931s4.647 3.427 7.536 3.427h120c2.889 0 5.637-1.25 7.536-3.426 1.899-2.177 2.764-5.069 2.372-7.931l-3.352-24.469c36.095-10.889 69.25-30.709 96.079-57.539s46.649-59.984 57.539-96.079l24.469 3.352c.453.062.906.092 1.357.092 2.401 0 4.741-.866 6.573-2.464 2.177-1.899 3.427-4.647 3.427-7.536v-120c0-2.889-1.25-5.637-3.426-7.536zm-188.766-132.58c31.773 10.118 60.935 27.873 84.685 51.623 23.751 23.75 41.505 52.912 51.623 84.685l-101.473 13.9c-.196.027-.385.071-.577.109-3.756-7.368-8.32-14.256-13.572-20.553l42.578-42.578c3.905-3.905 3.905-10.237 0-14.143-3.905-3.905-10.237-3.905-14.143 0l-42.578 42.578c-6.296-5.251-13.184-9.815-20.55-13.571.038-.192.08-.382.106-.578zm-63.808 290.116c-49.626 0-90-40.374-90-90s40.374-90 90-90 90 40.374 90 90-40.374 90-90 90zm48.537-326-17.857 130.359c-9.742-2.834-20.036-4.359-30.68-4.359s-20.938 1.525-30.68 4.359l-17.857-130.359zm-197.029 87.507c23.75-23.75 52.911-41.504 84.685-51.623l13.9 101.473c.027.196.071.385.109.577-7.367 3.756-14.256 8.32-20.553 13.572l-42.578-42.578c-3.905-3.905-10.237-3.905-14.143 0-3.905 3.905-3.905 10.237 0 14.143l42.578 42.578c-5.252 6.297-9.816 13.185-13.572 20.553-.192-.038-.381-.082-.577-.109l-101.473-13.9c10.119-31.774 27.873-60.935 51.624-84.686zm-87.508 99.956 130.359 17.857c-2.834 9.742-4.359 20.036-4.359 30.68s1.525 20.938 4.359 30.68l-130.359 17.857zm172.192 248.652c-31.774-10.118-60.935-27.873-84.685-51.623s-41.505-52.912-51.623-84.685l101.473-13.9c.196-.027.385-.071.577-.109 3.756 7.367 8.32 14.256 13.572 20.553l-42.578 42.578c-3.905 3.905-3.905 10.237 0 14.143 1.953 1.953 4.512 2.929 7.071 2.929s5.119-.976 7.071-2.929l42.578-42.578c6.297 5.252 13.185 9.816 20.553 13.572-.038.192-.082.381-.109.577zm15.271 35.885 17.857-130.359c9.742 2.834 20.036 4.359 30.68 4.359s20.938-1.525 30.68-4.359l17.857 130.359zm197.029-87.508c-23.75 23.75-52.912 41.505-84.685 51.623l-13.9-101.473c-.027-.196-.071-.385-.109-.577 7.367-3.756 14.256-8.32 20.553-13.572l42.578 42.578c1.953 1.953 4.512 2.929 7.071 2.929s5.119-.976 7.071-2.929c3.905-3.905 3.905-10.237 0-14.143l-42.578-42.578c5.252-6.297 9.816-13.185 13.572-20.553.192.038.381.082.577.109l101.473 13.9c-10.118 31.775-27.872 60.936-51.623 84.686zm87.508-99.955-130.359-17.857c2.834-9.742 4.359-20.036 4.359-30.68s-1.525-20.938-4.359-30.68l130.359-17.857z" fill="#ff5d7d"/></g></svg>