<svg id="Layer_1" enable-background="new 0 0 512 512" height="512" viewBox="0 0 512 512" width="512" xmlns="http://www.w3.org/2000/svg"><g><path d="m136 362v40l100 100h40l100-100v-40z" fill="#ff9eb1"/><path d="m136 362h240v40c-80 0-100 20-100 100h-40c0-80-20-100-100-100z" fill="#ffdede"/><path d="m116 236c0-40 20-100 60-100s60 60 60 100c-33.137 26.667-86.863 26.667-120 0z" fill="#ff9eb1"/><path d="m276 236c0-40 20-100 60-100s60 60 60 100c-33.137 26.667-86.863 26.667-120 0z" fill="#ff9eb1"/><g fill="#ff5d7d"><path d="m376 352h-240c-5.523 0-10 4.477-10 10v40c0 .335.017.668.05.998.025.248.067.491.109.733.014.079.021.159.036.237.058.288.131.569.213.847.01.033.015.066.025.098.086.283.188.558.297.829.012.03.021.061.033.091.106.256.227.504.354.748.023.045.043.093.066.138.119.221.251.433.385.643.042.066.077.134.121.199.127.189.266.368.405.547.061.079.116.163.18.241.162.197.337.383.513.567.049.051.091.106.141.156l100 100c.047.047.1.088.148.134.186.179.375.356.575.521.074.061.153.113.229.171.183.143.367.285.56.414.06.04.125.074.186.113.215.137.431.272.656.393.042.022.086.04.129.062.247.128.498.25.757.358.028.012.058.02.086.032.272.11.549.212.833.298.033.01.068.016.101.026.278.081.558.155.845.212.079.016.16.023.24.037.241.042.483.084.73.109.33.033.663.05.998.05h40c.335 0 .668-.017.998-.05.247-.025.488-.067.73-.109.08-.014.161-.021.24-.037.287-.057.567-.131.845-.212.033-.01.068-.016.101-.026.284-.086.56-.188.833-.298.029-.012.058-.02.086-.032.259-.107.51-.23.757-.358.042-.022.086-.039.128-.062.225-.121.442-.255.656-.393.061-.039.125-.073.186-.113.193-.13.376-.272.56-.414.075-.058.155-.11.228-.171.2-.164.388-.341.575-.521.048-.046.101-.087.148-.134l100-100c.05-.05.092-.105.141-.156.176-.184.351-.37.513-.567.064-.078.12-.163.182-.243.138-.178.277-.356.403-.544.044-.066.081-.137.124-.204.133-.209.264-.419.382-.638.024-.045.043-.092.066-.138.126-.244.247-.492.354-.748.012-.03.021-.061.033-.091.109-.271.211-.546.297-.829.01-.033.016-.067.025-.099.082-.278.155-.559.213-.846.017-.083.024-.168.038-.251.041-.238.083-.476.107-.719.033-.33.05-.663.05-.998v-40c0-5.524-4.478-10.001-10-10.001zm-10 20v20.121c-39.317.947-62.02 7.757-77.071 22.808-15.052 15.052-21.861 37.753-22.808 77.071h-20.241c-.947-39.318-7.756-62.02-22.808-77.071s-37.754-21.861-77.071-22.808v-20.121zm-15.032 40.89-64.078 64.078c1.923-23.906 7.055-38.771 16.181-47.897 9.127-9.126 23.991-14.258 47.897-16.181zm-125.858 64.078-64.078-64.078c23.906 1.923 38.77 7.055 47.897 16.181 9.126 9.126 14.258 23.99 16.181 47.897z"/><path d="m476 306c-16.542 0-30-13.458-30-30 0-24.248-17.353-44.513-40.29-49.046-1.306-20.868-6.992-42.879-15.765-60.426-11.081-22.163-26.544-35.876-44.232-39.535-1.648-26.369-10.444-57.677-27.681-78.818 5.019-5.012 7.968-11.287 7.968-18.175 0-16.822-17.57-30-40-30-12.069 0-22.725 3.819-30 9.965-7.275-6.146-17.931-9.965-30-9.965-22.43 0-40 13.178-40 30 0 6.887 2.948 13.161 7.965 18.172-17.235 21.141-26.026 52.484-27.676 78.821-17.689 3.658-33.152 17.372-44.233 39.535-8.773 17.547-14.459 39.558-15.765 60.426-22.938 4.533-40.291 24.798-40.291 49.046 0 16.542-13.458 30-30 30-5.522 0-10 4.477-10 10s4.478 10 10 10c27.57 0 50-22.43 50-50 0-15.472 11.774-28.243 26.831-29.831 17.387 12.81 39.652 19.831 63.169 19.831 23.618 0 45.969-7.085 63.388-20h33.224c17.419 12.915 39.77 20 63.388 20 23.517 0 45.782-7.021 63.168-19.831 15.058 1.588 26.832 14.359 26.832 29.831 0 27.57 22.43 50 50 50 5.522 0 10-4.477 10-10s-4.478-10-10-10zm-190-286c12.209 0 20 5.923 20 10s-7.791 10-20 10-20-5.923-20-10 7.791-10 20-10zm-60 0c12.209 0 20 5.923 20 10s-7.791 10-20 10-20-5.923-20-10 7.791-10 20-10zm0 40c12.069 0 22.725-3.819 30-9.965 7.275 6.146 17.931 9.965 30 9.965 5.03 0 9.812-.667 14.21-1.885 15.647 17.046 23.787 45.593 25.458 69.012-17.43 3.848-32.66 17.498-43.612 39.401-8.64 17.28-14.275 38.888-15.693 59.472h-20.726c-1.417-20.584-7.052-42.192-15.693-59.472-10.951-21.903-26.182-35.552-43.611-39.401 1.672-23.392 9.812-51.968 25.458-69.012 4.398 1.218 9.18 1.885 14.209 1.885zm-99.897 171.09c.777-18.913 5.932-39.799 13.842-55.618 6.722-13.445 18.434-29.472 36.055-29.472s29.333 16.027 36.056 29.472c7.91 15.819 13.064 36.705 13.842 55.618-28.506 20-71.29 20-99.795 0zm160 0c.777-18.913 5.932-39.799 13.842-55.618 6.722-13.445 18.434-29.472 36.055-29.472s29.333 16.027 36.056 29.472c7.91 15.819 13.064 36.705 13.842 55.618-28.506 20-71.29 20-99.795 0z"/></g></g></svg>