<svg id="Layer_1" enable-background="new 0 0 512 512" height="512" viewBox="0 0 512 512" width="512" xmlns="http://www.w3.org/2000/svg"><g><path d="m10 276h492v80h-492z" fill="#fff2a0"/><path d="m10 156h492v120h-492z" fill="#ffbecb"/><path d="m10 236h492v40h-492z" fill="#ffdede"/><path d="m10 196h492v40h-492z" fill="#ffbecb"/><path d="m136 276c0-66.274 53.726-120 120-120s120 53.726 120 120" fill="#fffbdf"/><path d="m176 276c0-44.183 35.817-80 80-80s80 35.817 80 80" fill="#fff2a0"/><g fill="#ff5d7d"><path d="m502 206c5.523 0 10-4.477 10-10s-4.477-10-10-10h-152.283c-7.315-7.614-15.546-14.338-24.514-20h176.797c5.523 0 10-4.477 10-10s-4.477-10-10-10h-492c-5.523 0-10 4.477-10 10s4.477 10 10 10h176.796c-8.967 5.662-17.199 12.386-24.514 20h-152.282c-5.523 0-10 4.477-10 10s4.477 10 10 10h136.498c-4.051 6.315-7.566 13.005-10.492 20h-126.006c-5.523 0-10 4.477-10 10s4.477 10 10 10h119.5c-1.54 6.494-2.598 13.173-3.119 20h-116.381c-5.523 0-10 4.477-10 10s4.477 10 10 10h492c5.523 0 10-4.477 10-10s-4.477-10-10-10h-116.381c-.522-6.827-1.579-13.506-3.119-20h119.5c5.523 0 10-4.477 10-10s-4.477-10-10-10h-126.006c-2.926-6.995-6.441-13.685-10.492-20zm-355.541 60c5.07-55.985 52.258-100 109.541-100s104.471 44.015 109.541 100z"/><path d="m502 346h-492c-5.523 0-10 4.477-10 10s4.477 10 10 10h492c5.523 0 10-4.477 10-10s-4.477-10-10-10z"/></g><g><path d="m476 326h-60c-5.523 0-10-4.477-10-10s4.477-10 10-10h60c5.523 0 10 4.477 10 10s-4.477 10-10 10z" fill="#fffbdf"/></g><g><path d="m356 326h-200c-5.523 0-10-4.477-10-10s4.477-10 10-10h200c5.523 0 10 4.477 10 10s-4.477 10-10 10z" fill="#fffbdf"/></g><g><path d="m96 326h-60c-5.523 0-10-4.477-10-10s4.477-10 10-10h60c5.523 0 10 4.477 10 10s-4.477 10-10 10z" fill="#fffbdf"/></g></g></svg>