<svg id="Layer_1" enable-background="new 0 0 512 512" height="512" viewBox="0 0 512 512" width="512" xmlns="http://www.w3.org/2000/svg"><g><path d="m246 255.999-30 160h-206l66-320h360l66 320h-206l-30-160z" fill="#e6e6f9"/><path d="m176 155.999h-72.375l-16.5 80h8.875c44.183 0 80-35.817 80-80z" fill="#cecdf3"/><path d="m336 155.999h72.375l16.5 80h-8.875c-44.183 0-80-35.817-80-80z" fill="#cecdf3"/><path d="m448.38 155.999h-384.75l12.37-60h360z" fill="#fff"/><path d="m448.375 155.999h-40l53.625 260h40z" fill="#ffbecb"/><path d="m63.625 155.999-53.625 260h40l53.625-260z" fill="#ffbecb"/><path d="m511.794 413.979-66-320c-.959-4.647-5.05-7.98-9.794-7.98h-360c-4.744 0-8.835 3.333-9.794 7.98l-66 320c-.607 2.944.142 6.006 2.041 8.336 1.899 2.331 4.746 3.684 7.752 3.684h39.972c.013 0 .026.002.039.002.015 0 .03-.002.045-.002h165.945c4.812 0 8.942-3.427 9.829-8.157l28.471-151.843h3.401l28.471 151.843c.887 4.73 5.017 8.157 9.829 8.157h165.945c.015 0 .03.002.045.002.013 0 .026-.002.038-.002h39.971c3.006 0 5.854-1.353 7.752-3.684 1.9-2.33 2.65-5.392 2.042-8.336zm-75.692-267.98h-150.102v-40h141.852zm-23.518 79.914c-33.661-1.626-61.148-27.139-65.858-59.913h53.501zm-146.584-79.914h-20v-40h20zm-181.852-40h141.852v40h-150.102zm27.625 60h53.501c-4.71 32.774-32.197 58.288-65.858 59.913zm-40 0h19.579l-49.5 240h-19.579zm204.056 88.157c-.887-4.73-5.017-8.157-9.829-8.157h-20c-4.812 0-8.942 3.427-9.829 8.157l-28.471 151.843h-145.427l33.007-160.036c.239.017.477.036.72.036 46.246 0 84.451-35.063 89.441-80h40.559v30c0 5.523 4.477 10 10 10s10-4.477 10-10v-30h20v50c0 5.523 4.477 10 10 10s10-4.477 10-10v-50h40.559c4.991 44.937 43.196 80 89.441 80 .243 0 .481-.019.72-.036l33.007 160.036h-145.427zm194.319 151.843-49.5-240h19.579l49.5 240z" fill="#c193dc"/></g></svg>