<svg id="Layer_1" enable-background="new 0 0 512 512" height="512" viewBox="0 0 512 512" width="512" xmlns="http://www.w3.org/2000/svg"><g><path d="m336 62h-160l-40 40v360l40 40h160l40-40v-360z" fill="#fff"/><path d="m136 102h240v360h-240z" fill="#ffbecb"/><path d="m316 62 40-52h-40l-40 52" fill="#ffbecb"/><g><g><path d="m306 372h-100c-5.523 0-10-4.477-10-10s4.477-10 10-10h100c5.522 0 10 4.477 10 10s-4.478 10-10 10z" fill="#ffdede"/></g><g><path d="m286 412h-60c-5.523 0-10-4.477-10-10s4.477-10 10-10h60c5.522 0 10 4.477 10 10s-4.478 10-10 10z" fill="#ffdede"/></g></g><circle cx="256" cy="262" fill="#fff" r="60"/><path d="m385.842 100.283c-.014-.083-.022-.168-.038-.251-.057-.287-.131-.568-.213-.846-.01-.033-.016-.067-.026-.099-.086-.282-.187-.558-.297-.829-.012-.03-.021-.061-.033-.091-.106-.256-.227-.504-.354-.748-.023-.045-.042-.093-.066-.138-.118-.219-.249-.429-.382-.638-.043-.067-.08-.138-.124-.204-.126-.188-.265-.366-.403-.545-.062-.08-.117-.164-.182-.243-.162-.197-.337-.383-.513-.567-.049-.051-.091-.106-.141-.156l-22.927-22.928h15.857c5.522 0 10-4.477 10-10s-4.478-10-10-10h-39.692l27.618-35.903c2.323-3.02 2.728-7.097 1.046-10.515-1.684-3.417-5.162-5.582-8.972-5.582h-40c-3.104 0-6.033 1.442-7.926 3.903l-36.998 48.097h-95.071c-.003 0-.007 0-.01 0h-39.995c-5.523 0-10 4.477-10 10s4.477 10 10 10h15.857l-22.929 22.929c-.033.033-.062.071-.095.105-.194.2-.383.404-.56.618-.059.072-.11.15-.167.224-.144.185-.287.369-.417.564-.04.06-.073.124-.112.185-.137.215-.272.432-.393.658-.022.041-.039.084-.06.125-.129.249-.251.501-.359.761-.011.027-.019.056-.031.083-.111.273-.213.551-.299.835-.01.033-.016.066-.025.098-.082.278-.155.56-.213.847-.016.078-.022.158-.036.237-.042.242-.085.485-.109.733-.033.33-.05.663-.05.998v360c0 .335.017.668.05.998.025.248.067.491.109.733.014.079.021.159.036.237.058.288.131.569.213.847.01.033.015.066.025.098.087.285.189.562.299.836.011.028.019.056.031.083.108.26.231.512.359.761.021.041.038.084.06.125.121.226.256.443.393.658.039.061.072.125.112.185.131.195.274.379.417.564.057.074.108.152.167.224.177.215.366.419.56.618.033.034.062.071.095.105l22.929 22.928h-15.857c-5.523 0-10 4.477-10 10s4.477 10 10 10h240c5.522 0 10-4.477 10-10s-4.478-10-10-10h-15.857l22.929-22.929c.05-.05.092-.105.141-.156.176-.184.351-.37.513-.567.064-.078.12-.163.182-.243.138-.178.277-.356.403-.544.044-.066.081-.137.124-.204.133-.209.264-.419.382-.638.024-.045.043-.092.066-.138.126-.244.247-.492.354-.748.012-.03.021-.061.033-.091.11-.271.211-.546.297-.829.01-.033.016-.067.026-.099.082-.278.155-.559.213-.846.017-.083.024-.168.038-.251.041-.238.083-.476.107-.719.033-.33.05-.663.05-.998v-360c0-.335-.017-.668-.05-.998-.026-.244-.067-.481-.109-.719zm-239.842 351.717v-340h220v340zm174.924-432h14.768l-24.615 32h-14.768zm-4.943 52c.004 0 .008.001.012.001.003 0 .006-.001.009-.001h15.855l20 20h-191.715l20-20zm-135.838 420-20-20h191.715l-20 20z" fill="#ff5d7d"/></g></svg>