<svg id="Layer_1" enable-background="new 0 0 512 512" height="512" viewBox="0 0 512 512" width="512" xmlns="http://www.w3.org/2000/svg"><g><path d="m136.221 502h-.443c-44.06 0-79.778-35.718-79.778-79.779v-200.442c0-44.061 35.718-79.779 79.779-79.779h.443c44.06 0 79.778 35.718 79.778 79.779v200.443c0 44.06-35.718 79.778-79.779 79.778z" fill="#ffd4b5"/><g><path d="m136 472c-27.57 0-50-22.43-50-50 0-5.523 4.478-10 10-10s10 4.477 10 10c0 16.542 13.458 30 30 30 5.523 0 10 4.477 10 10s-4.477 10-10 10z" fill="#f4e8e0"/></g><path d="m36 222h200v120h-200z" fill="#fff2a0"/><path d="m376.221 370h-.443c-44.06 0-79.778-35.718-79.778-79.779v-200.442c0-44.061 35.718-79.779 79.779-79.779h.443c44.06 0 79.778 35.718 79.778 79.779v200.443c0 44.06-35.718 79.778-79.779 79.778z" fill="#ffd4b5"/><path d="m276 90h200v120h-200z" fill="#fff2a0"/><g fill="#d1a19e"><path d="m236 212h-10.559c-4.991-44.937-43.196-80-89.441-80s-84.451 35.063-89.441 80h-10.559c-5.522 0-10 4.477-10 10v120c0 5.523 4.478 10 10 10h10v70.988c0 49.081 40.374 89.012 90 89.012s90-39.931 90-89.012v-70.988h10c5.523 0 10-4.477 10-10v-120c0-5.523-4.477-10-10-10zm-190 60h180v20h-180zm90-120c35.202 0 64.406 26.124 69.274 60h-138.548c4.868-33.876 34.072-60 69.274-60zm90 80v20h-180v-20zm-20 190.988c0 38.054-31.402 69.012-70 69.012s-70-30.958-70-69.012v-70.988h140zm-160-90.988v-20h180v20z"/><path d="m476 80h-10.559c-4.99-44.937-43.195-80-89.441-80s-84.451 35.063-89.441 80h-10.559c-5.522 0-10 4.477-10 10v120c0 5.523 4.478 10 10 10h10v70.988c0 49.081 40.374 89.012 90 89.012s90-39.931 90-89.012v-70.988h10c5.522 0 10-4.477 10-10v-120c0-5.523-4.478-10-10-10zm-190 60h180v20h-180zm90-120c35.202 0 64.406 26.124 69.274 60h-138.548c4.868-33.876 34.072-60 69.274-60zm90 80v20h-180v-20zm-20 190.988c0 38.054-31.402 69.012-70 69.012s-70-30.958-70-69.012v-70.988h140zm-160-90.988v-20h180v20z"/></g><g><path d="m376 340c-27.57 0-50-22.43-50-50 0-5.523 4.478-10 10-10s10 4.477 10 10c0 16.542 13.458 30 30 30 5.522 0 10 4.477 10 10s-4.478 10-10 10z" fill="#f4e8e0"/></g></g></svg>