<svg id="Layer_1" enable-background="new 0 0 512 512" height="512" viewBox="0 0 512 512" width="512" xmlns="http://www.w3.org/2000/svg"><g><path d="m10 86h492v200h-492z" fill="#fff"/><path d="m56 286v-40h400v40" fill="#99ebfa"/><path d="m96 286v-40h320v40" fill="#66e0f7"/><g><path d="m456 216h-400c-5.522 0-10-4.477-10-10s4.478-10 10-10h400c5.522 0 10 4.477 10 10s-4.478 10-10 10z" fill="#ccf5fc"/></g><g><path d="m456 176h-400c-5.522 0-10-4.477-10-10s4.478-10 10-10h400c5.522 0 10 4.477 10 10s-4.478 10-10 10z" fill="#ccf5fc"/></g><g><path d="m456 136h-400c-5.522 0-10-4.477-10-10s4.478-10 10-10h400c5.522 0 10 4.477 10 10s-4.478 10-10 10z" fill="#ccf5fc"/></g><g fill="#80b6ff"><path d="m502 76h-492c-5.523 0-10 4.477-10 10v200c0 5.523 4.477 10 10 10h492c5.522 0 10-4.477 10-10v-200c0-5.523-4.478-10-10-10zm-96 180v20h-300v-20zm40 0v20h-20v-20zm-360 20h-20v-20h20zm406 0h-26v-30c0-5.523-4.478-10-10-10h-400c-5.522 0-10 4.477-10 10v30h-26v-180h472z"/><path d="m196 316c-5.523 0-10 4.477-10 10v70c0 5.523 4.477 10 10 10s10-4.477 10-10v-70c0-5.523-4.477-10-10-10z"/><path d="m156 316c-5.523 0-10 4.477-10 10v100c0 5.523 4.477 10 10 10s10-4.477 10-10v-100c0-5.523-4.477-10-10-10z"/><path d="m116 316c-5.522 0-10 4.477-10 10v70c0 5.523 4.478 10 10 10s10-4.477 10-10v-70c0-5.523-4.478-10-10-10z"/><path d="m396 316c-5.522 0-10 4.477-10 10v70c0 5.523 4.478 10 10 10s10-4.477 10-10v-70c0-5.523-4.478-10-10-10z"/><path d="m356 316c-5.522 0-10 4.477-10 10v100c0 5.523 4.478 10 10 10s10-4.477 10-10v-100c0-5.523-4.478-10-10-10z"/><path d="m316 316c-5.522 0-10 4.477-10 10v70c0 5.523 4.478 10 10 10s10-4.477 10-10v-70c0-5.523-4.478-10-10-10z"/></g></g></svg>