<svg id="Layer_1" enable-background="new 0 0 512 512" height="512" viewBox="0 0 512 512" width="512" xmlns="http://www.w3.org/2000/svg"><g><path d="m276 370v112c0 11.046-8.954 20-20 20-11.046 0-20-8.954-20-20v-112" fill="#f4e8e0"/><path d="m336 370h-160c-11.046 0-20-8.954-20-20v-240c0-55.228 44.771-100 100-100 55.228 0 100 44.771 100 100v240c0 11.046-8.954 20-20 20z" fill="#cecdf3"/><path d="m256 10c-55.229 0-100 44.771-100 100v100c0 11.046 8.954 20 20 20s20-8.954 20-20v-40c0-11.046 8.954-20 20-20s20 8.954 20 20v40c0 11.046 8.954 20 20 20s20-8.954 20-20v-80c0-11.046 8.954-20 20-20s20 8.954 20 20v40c0 11.046 8.954 20 20 20s20-8.954 20-20v-60c0-55.229-44.772-100-100-100z" fill="#fff"/><path d="m256 0c-60.654 0-110 49.346-110 110v240c0 16.542 13.458 30 30 30h50v102c0 16.542 13.458 30 30 30s30-13.458 30-30v-102h50c16.542 0 30-13.458 30-30v-240c0-60.654-49.346-110-110-110zm10 482c0 5.514-4.486 10-10 10s-10-4.486-10-10v-102h20zm80-132c0 5.514-4.486 10-10 10h-160c-5.514 0-10-4.486-10-10v-240c0-49.626 40.374-90 90-90s90 40.374 90 90z" fill="#c193dc"/><g fill="#fff"><circle cx="316" cy="330" r="10"/><circle cx="296" cy="310" r="5"/></g></g></svg>