<svg id="Layer_1" enable-background="new 0 0 512 512" height="512" viewBox="0 0 512 512" width="512" xmlns="http://www.w3.org/2000/svg"><g><path d="m216 376h80l-3.333-40h-73.334z" fill="#f4e8e0"/><path d="m219.333 336h73.334l-3.334-40h-66.666z" fill="#ffd4b5"/><path d="m226 255.999-3.333 40.001h66.666l-3.333-40.001z" fill="#f4e8e0"/><path d="m282.667 215.999h-53.334l-3.333 40h60z" fill="#ffd4b5"/><path d="m276 135.999h-40l-6.667 80h53.334z" fill="#f4e8e0"/><g fill="#7dd9c2"><path d="m56 95.999c0-33.137 44.771-60 100-60s100 26.863 100 60z"/><path d="m114.579 237.421c-23.431-23.432-10.768-74.085 28.284-113.137 39.052-39.053 89.705-51.716 113.137-28.285z"/><path d="m256 95.999c0-33.137 44.772-60 100-60s100 26.863 100 60z"/><path d="m398.236 237.421c23.431-23.432 10.768-74.085-28.284-113.137s-89.706-51.716-113.137-28.284z"/></g><circle cx="236" cy="115.999" fill="#eaf5bc" r="20"/><circle cx="276" cy="115.999" fill="#eaf5bc" r="20"/><circle cx="256" cy="155.999" fill="#eaf5bc" r="20"/><path d="m76 476c99.411-133.333 260.589-133.333 360 0" fill="#f4e8e0"/><path d="m502 466h-61.057c-24.484-31.812-52.842-56.634-84.375-73.784-16.499-8.974-33.494-15.647-50.851-20.022l-19.014-228.174c.945-.363 1.867-.772 2.764-1.224l101.698 101.698c1.875 1.875 4.419 2.929 7.071 2.929s5.196-1.054 7.071-2.929c13.914-13.915 18.147-35.297 11.92-60.208-5.775-23.102-20.054-46.922-40.204-67.072-3.976-3.976-8.1-7.714-12.328-11.213h91.305c5.523 0 10-4.477 10-10 0-19.678-12.126-37.79-34.145-51.001-20.419-12.253-47.358-19-75.855-19s-55.436 6.747-75.855 18.999c-10.282 6.168-18.405 13.406-24.145 21.373-5.74-7.967-13.863-15.205-24.145-21.374-20.419-12.251-47.358-18.998-75.855-18.998s-55.437 6.747-75.856 18.999c-22.018 13.21-34.144 31.323-34.144 51 0 5.523 4.477 10 10 10h92.12c-4.229 3.499-8.352 7.237-12.328 11.213-20.15 20.151-34.428 43.971-40.204 67.072-6.228 24.911-1.995 46.294 11.919 60.208 1.875 1.875 4.419 2.929 7.071 2.929s5.196-1.054 7.071-2.929l101.424-101.425c.725.347 1.468.661 2.223.951l-19.015 228.174c-17.357 4.376-34.352 11.048-50.851 20.022-31.533 17.15-59.891 41.973-84.375 73.784h-61.055c-5.523 0-10 4.477-10 10 0 5.522 4.477 10 10 10h425.991c.006 0 .011.001.017.001.008 0 .017-.001.025-.001h65.967c5.523 0 10-4.478 10-10 0-5.521-4.477-9.998-10-9.998zm-226-340.001c-5.514 0-10-4.486-10-10s4.486-10 10-10 10 4.486 10 10-4.486 10-10 10zm-40-20c5.514 0 10 4.486 10 10s-4.486 10-10 10-10-4.486-10-10c0-5.513 4.486-10 10-10zm20 40c5.514 0 10 4.486 10 10s-4.486 10-10 10-10-4.486-10-10 4.486-10 10-10zm140.898 75.942-55.23-55.23 7.071-7.071c3.905-3.905 3.905-10.237 0-14.143-3.905-3.904-10.237-3.904-14.142 0l-7.071 7.071-24.203-24.203c1.715-3.773 2.678-7.958 2.678-12.365 0-8.229-3.333-15.694-8.717-21.12 2.531.363 5.133.861 7.817 1.532 19.636 4.909 40.156 17.318 57.78 34.943 30.152 30.152 43.845 68.586 34.017 90.586zm-40.898-175.941c42.642 0 79.501 17.495 88.107 40h-78.107v-10c0-5.522-4.477-10-10-10s-10 4.478-10 10v10h-10c-.559 0-1.104.057-1.639.146-8.1-4.011-16.298-7.109-24.411-9.137-13.174-3.294-25.36-3.659-35.977-1.217 14.278-17.372 46.098-29.792 82.027-29.792zm-200 0c35.783 0 67.492 12.319 81.853 29.581-10.383-2.199-22.22-1.762-34.989 1.428-8.188 2.047-16.465 5.182-24.638 9.248-.717-.163-1.459-.257-2.225-.257h-10v-10c0-5.522-4.477-10-10-10s-10 4.478-10 10v10h-78.108c8.606-22.505 45.465-40 88.107-40zm-40.083 175.941c-9.828-21.999 3.864-60.434 34.017-90.586 17.624-17.625 38.145-30.034 57.78-34.943 2.352-.588 4.644-1.049 6.878-1.401-5.31 5.415-8.592 12.824-8.592 20.989 0 4.626 1.054 9.009 2.932 12.926l-23.642 23.643-7.071-7.071c-3.905-3.903-10.237-3.904-14.142 0-3.905 3.905-3.906 10.237 0 14.143l7.071 7.071zm126.234-39.342c4.146 2.167 8.855 3.401 13.849 3.401s9.702-1.233 13.849-3.401l15.462 185.548c-9.684-1.413-19.459-2.147-29.311-2.147s-19.627.734-29.311 2.147zm13.849 203.401c58.948 0 114.84 28.252 159.202 80h-318.404c44.362-51.749 100.254-80 159.202-80z" fill="#42d0b4"/></g></svg>