<svg id="Layer_1" enable-background="new 0 0 512 512" height="512" viewBox="0 0 512 512" width="512" xmlns="http://www.w3.org/2000/svg"><g><g><path d="m316 442-20-92h-80l-20 92z" fill="#99ebfa"/></g><circle cx="256" cy="180" fill="#ccf5fc" r="170"/><circle cx="256" cy="180" fill="#fff" r="130"/><path d="m136 442h240v60h-240z" fill="#ccf5fc"/><g fill="#99ebfa"><path d="m256 60c33.137 0 60 26.863 60 60s-26.863 60-60 60z"/><path d="m256 300c-33.137 0-60-26.863-60-60s26.863-60 60-60z"/><path d="m376 180c0 33.137-26.863 60-60 60s-60-26.863-60-60z"/><path d="m136 180c0-33.137 26.863-60 60-60s60 26.863 60 60z"/></g><circle cx="256" cy="180" fill="#fff" r="30"/><g fill="#80b6ff"><path d="m396 180c0-77.196-62.804-140-140-140s-140 62.804-140 140 62.804 140 140 140 140-62.804 140-140zm-140-20c11.028 0 20 8.972 20 20s-8.972 20-20 20-20-8.972-20-20 8.972-20 20-20zm38.734 30h70.261c-4.645 22.794-24.85 40-48.995 40-14.45 0-28.103-6.315-37.505-16.945 7.902-5.395 13.782-13.543 16.239-23.055zm-5.678-32.494c-5.395-7.903-13.543-13.783-23.056-16.24v-70.261c22.794 4.646 40 24.85 40 48.995 0 14.447-6.316 28.104-16.944 37.506zm-71.79 12.494h-70.262c4.646-22.794 24.85-40 48.996-40 14.447 0 28.103 6.315 37.506 16.944-7.903 5.395-13.783 13.544-16.24 23.056zm5.679 32.495c5.395 7.902 13.543 13.782 23.055 16.24v70.261c-22.794-4.645-40-24.85-40-48.995 0-14.448 6.316-28.104 16.945-37.506zm43.055 97.085v-70.623c13.019 13.254 31.015 21.043 50 21.043 19.161 0 36.543-7.744 49.196-20.26-17.623 38.533-55.057 66.181-99.196 69.84zm109.58-129.58h-70.623c13.253-13.02 21.043-31.019 21.043-50 0-19.161-7.744-36.543-20.26-49.196 38.534 17.623 66.181 55.057 69.84 99.196zm-129.58-109.58v70.623c-13.02-13.253-31.02-21.043-50-21.043-19.161 0-36.543 7.744-49.196 20.26 17.623-38.534 55.057-66.181 99.196-69.84zm-109.58 129.58h70.623c-13.253 13.02-21.043 31.02-21.043 50 0 19.161 7.744 36.543 20.26 49.195-38.534-17.622-66.181-55.056-69.84-99.195z"/><path d="m376 432h-20v-10c0-5.522-4.478-10-10-10s-10 4.478-10 10v10h-11.941l-17.243-79.316c74.585-21.986 129.184-91.074 129.184-172.684 0-99.252-80.748-180-180-180s-180 80.748-180 180c0 81.61 54.598 150.698 129.183 172.684l-17.243 79.316h-11.94v-10c0-5.522-4.477-10-10-10s-10 4.478-10 10v10h-20c-5.523 0-10 4.478-10 10v60c0 5.522 4.477 10 10 10h240c5.522 0 10-4.478 10-10v-60c0-5.522-4.478-10-10-10zm-280-252c0-88.225 71.776-160 160-160 88.225 0 160 71.775 160 160s-71.775 160-160 160c-88.224 0-160-71.775-160-160zm128.655 177.263c10.182 1.795 20.656 2.737 31.345 2.737 10.69 0 21.163-.942 31.346-2.737l16.247 74.737h-95.185zm141.345 134.737h-220v-40h49.973c.012 0 .025.002.037.002.015 0 .03-.002.045-.002h119.89c.015 0 .03.002.045.002.012 0 .024-.002.037-.002h49.973z"/></g><circle cx="326" cy="472" fill="#fff" r="10"/><circle cx="286" cy="472" fill="#fff" r="10"/></g></svg>