<svg id="Layer_1" enable-background="new 0 0 512 512" height="512" viewBox="0 0 512 512" width="512" xmlns="http://www.w3.org/2000/svg"><g><path d="m356 176 40-166h-40l-40 166" fill="#ffbecb"/><path d="m136 242c0-60 60-140 120-140s120 80 120 140" fill="#fff"/><path d="m355.54 174.2c-29.16 11.12-72.31 10.35-99.54-2.3v.2c-26.2-12.18-67.14-13.35-96.17-3.51 22.98-36.83 59.57-66.59 96.17-66.59 38.44 0 76.88 32.83 99.54 72.2z" fill="#ffbecb"/><path d="m376 502h-240l-40-260h320z" fill="#ffdede"/><circle cx="254" cy="372" fill="#fff" r="70"/><path d="m423.59 235.488c-1.9-2.214-4.672-3.488-7.59-3.488h-30.488c-1.758-18.748-8.3-38.906-18.703-58.169l38.913-161.488c.718-2.979.03-6.123-1.866-8.53-1.896-2.408-4.791-3.813-7.856-3.813h-40c-4.62 0-8.64 3.165-9.722 7.657l-26.361 109.399c-20.482-16.179-42.71-25.056-63.917-25.056-30.743 0-63.634 18.649-90.239 51.168-22.303 27.258-36.545 59.745-39.273 88.832h-30.488c-2.918 0-5.689 1.274-7.59 3.488-1.9 2.215-2.737 5.148-2.294 8.032l40 260c.751 4.878 4.948 8.479 9.884 8.479h240c4.935 0 9.133-3.602 9.884-8.479l40-260c.443-2.883-.395-5.817-2.294-8.032zm-59.713-215.488h19.427l-31.425 130.415c-1.82-2.45-3.695-4.87-5.64-7.247-3.074-3.757-6.235-7.32-9.464-10.699zm-182.638 135.832c22.792-27.855 50.041-43.832 74.761-43.832s51.969 15.977 74.761 43.832c5.778 7.062 10.966 14.581 15.481 22.312.428 1.94 1.424 3.708 2.851 5.076 8.788 16.292 14.526 33.281 16.309 48.779h-218.805c2.825-24.548 15.559-52.843 34.642-76.167zm186.182 336.168h-222.842l-36.923-240h296.688z" fill="#ff5d7d"/><g fill="#ffdede"><circle cx="206" cy="212" r="10"/><circle cx="186" cy="192" r="5"/></g></g></svg>