<svg id="Layer_1" enable-background="new 0 0 512 512" height="512" viewBox="0 0 512 512" width="512" xmlns="http://www.w3.org/2000/svg"><g><path d="m336 502h-160v-120l-20-372h200l-20 372z" fill="#ccf5fc"/><path d="m176 382h160v120h-160z" fill="#99ebfa"/><path d="m176 462h160v40h-160z" fill="#fff"/><path d="m216 462c0-22.091 17.909-40 40-40s40 17.909 40 40" fill="#ccf5fc"/><path d="m356 10-2.5 40h-195l-2.5-40z" fill="#99ebfa"/><path d="m363.259 3.122c-1.889-1.994-4.514-3.122-7.259-3.122h-200c-2.746 0-5.37 1.128-7.258 3.122-1.889 1.992-2.874 4.674-2.727 7.415l19.985 371.731v119.732c0 5.523 4.477 10 10 10h160c5.522 0 10-4.477 10-10v-119.732l19.985-371.732c.148-2.741-.838-5.422-2.726-7.414zm-17.811 16.878-1.075 20h-176.746l-1.075-20zm-40.454 432c-4.646-22.795-24.847-40-48.994-40s-44.348 17.205-48.994 40h-21.006v-60h140v60zm-20.714 0h-56.56c4.128-11.639 15.243-20 28.28-20 13.036 0 24.152 8.361 28.28 20zm42.243-80h-141.046l-16.774-312h174.595zm-140.523 120v-20h140v20z" fill="#80b6ff"/><circle cx="256" cy="216" fill="#fff" r="50"/><g><path d="m296 100h-80c-5.523 0-10-4.477-10-10s4.477-10 10-10h80c5.522 0 10 4.477 10 10s-4.478 10-10 10z" fill="#99ebfa"/></g></g></svg>