<svg id="Layer_1" enable-background="new 0 0 512 512" height="512" viewBox="0 0 512 512" width="512" xmlns="http://www.w3.org/2000/svg"><g><path d="m356 176 40-166h-40l-40 166" fill="#cecdf3"/><circle cx="336" cy="242" fill="#eaf5bc" r="80"/><circle cx="256" cy="162" fill="#fff" r="80"/><circle cx="176" cy="242" fill="#fff2a0" r="80"/><path d="m376 502h-240l-40-260h320z" fill="#e6e6f9"/><path d="m436 232h-10.559c-3.676-33.096-25.368-60.833-55.022-73.153l35.302-146.504c.718-2.979.03-6.123-1.866-8.53-1.895-2.408-4.79-3.813-7.855-3.813h-40c-4.62 0-8.64 3.165-9.722 7.657l-22.845 94.808c-16.503-18.67-40.614-30.465-67.433-30.465-46.418 0-84.738 35.324-89.499 80.501-41.887 4.414-75.298 37.68-79.942 79.499h-10.559c-5.522 0-10 4.477-10 10s4.478 10 10 10h11.421l38.695 251.521c.751 4.878 4.948 8.479 9.884 8.479h240c4.935 0 9.133-3.602 9.884-8.479l38.695-251.521h11.421c5.522 0 10-4.477 10-10s-4.478-10-10-10zm-30.726 0h-92.776c17.815-14.407 30.04-35.46 32.869-59.355 30.905 4.154 55.478 28.537 59.907 59.355zm-41.397-212h19.427l-32.117 133.288c-1.877-.32-3.773-.585-5.688-.787-.992-9.409-3.441-18.388-7.114-26.711zm-107.877 72c38.598 0 70 31.402 70 70 0 35.42-26.451 64.76-60.633 69.355-4.87-41.134-37.588-73.853-78.722-78.722 4.595-34.182 33.935-60.633 69.355-60.633zm-80 80c35.202 0 64.406 26.124 69.274 60h-138.548c4.868-33.876 34.072-60 69.274-60zm191.421 320h-222.842l-36.923-240h296.688z" fill="#c193dc"/><circle cx="254" cy="372" fill="#fff" r="70"/></g></svg>