<svg id="Layer_1" enable-background="new 0 0 512.04 512.04" height="512" viewBox="0 0 512.04 512.04" width="512" xmlns="http://www.w3.org/2000/svg"><g><path d="m356.789 90.809c-30.769 30.769-76.923 15.385-76.923 15.385s-15.385-46.154 15.385-76.923c30.769-30.769 76.923-15.385 76.923-15.385s15.385 46.154-15.385 76.923z" fill="#eaf5bc"/><path d="m195.251 90.809c30.769 30.769 76.923 15.385 76.923 15.385s15.385-46.154-15.385-76.923c-30.769-30.769-76.923-15.385-76.923-15.385s-15.384 46.154 15.385 76.923z" fill="#eaf5bc"/><circle cx="236.02" cy="130.04" fill="#cecdf3" r="40"/><circle cx="246.02" cy="120.04" fill="#fff" r="5"/><circle cx="276.02" cy="210.04" fill="#cecdf3" r="40"/><circle cx="286.02" cy="200.04" fill="#fff" r="5"/><circle cx="356.02" cy="210.04" fill="#cecdf3" r="40"/><circle cx="366.02" cy="200.04" fill="#fff" r="5"/><circle cx="196.02" cy="210.04" fill="#cecdf3" r="40"/><circle cx="206.02" cy="200.04" fill="#fff" r="5"/><circle cx="316.02" cy="130.04" fill="#cecdf3" r="40"/><circle cx="326.02" cy="120.04" fill="#fff" r="5"/><circle cx="236.02" cy="290.04" fill="#cecdf3" r="40"/><circle cx="246.02" cy="280.04" fill="#fff" r="5"/><circle cx="316.02" cy="290.04" fill="#cecdf3" r="40"/><circle cx="326.02" cy="280.04" fill="#fff" r="5"/><circle cx="276.02" cy="370.04" fill="#cecdf3" r="40"/><circle cx="286.02" cy="360.04" fill="#fff" r="5"/><circle cx="156.02" cy="396.04" fill="#cecdf3" r="40"/><circle cx="166.02" cy="386.04" fill="#fff" r="5"/><circle cx="356.02" cy="462.04" fill="#cecdf3" r="40"/><circle cx="366.02" cy="452.04" fill="#fff" r="5"/><g fill="#c193dc"><path d="m156.02 346.04c-27.57 0-50 22.43-50 50s22.43 50 50 50 50-22.43 50-50-22.43-50-50-50zm0 80c-16.542 0-30-13.458-30-30s13.458-30 30-30 30 13.458 30 30-13.458 30-30 30z"/><path d="m326.02 370.04c0-11.248-3.736-21.638-10.028-30.001.009 0 .018.001.028.001 27.57 0 50-22.43 50-50 0-11.248-3.736-21.638-10.028-30.001.009 0 .018.001.028.001 27.57 0 50-22.43 50-50s-22.43-50-50-50c-.009 0-.018.001-.028.001 6.292-8.363 10.028-18.753 10.028-30.001 0-9.93-2.921-19.184-7.932-26.972 2.001-1.62 3.94-3.355 5.773-5.187 34.74-34.74 18.508-85.032 17.8-87.156-.02-.06-.048-.114-.069-.173-.091-.257-.192-.511-.304-.762-.042-.094-.085-.188-.13-.28-.119-.244-.249-.482-.389-.717-.05-.085-.097-.17-.15-.253-.152-.24-.319-.473-.494-.703-.049-.065-.094-.134-.145-.197-.228-.285-.471-.561-.734-.825-.263-.263-.538-.505-.822-.732-.07-.056-.144-.104-.215-.159-.222-.168-.448-.331-.681-.478-.091-.058-.185-.109-.278-.164-.225-.133-.452-.258-.685-.372-.103-.05-.207-.098-.313-.145-.236-.105-.474-.2-.716-.286-.068-.024-.132-.057-.2-.08-2.123-.707-52.416-16.941-87.156 17.8-5.08 5.08-9.054 10.5-12.16 16.055-3.106-5.555-7.08-10.975-12.16-16.055-34.739-34.738-85.032-18.507-87.156-17.8-.066.022-.127.054-.192.077-.247.088-.49.185-.731.293-.101.045-.202.091-.301.14-.237.115-.468.243-.696.378-.09.053-.181.102-.268.158-.236.15-.464.313-.689.485-.069.052-.141.1-.209.153-.284.227-.56.47-.823.733-.264.264-.506.54-.734.825-.051.063-.096.132-.145.197-.175.229-.342.462-.494.703-.052.083-.1.169-.15.253-.14.235-.27.473-.389.717-.045.092-.088.186-.13.28-.113.25-.214.504-.304.762-.021.059-.049.113-.069.173-.708 2.124-16.94 52.416 17.8 87.156 1.833 1.832 3.773 3.568 5.773 5.187-5.011 7.788-7.933 17.043-7.933 26.973 0 11.248 3.735 21.638 10.028 30.001-.009 0-.018-.001-.028-.001-27.57 0-50 22.43-50 50s22.43 50 50 50c.009 0 .018-.001.028-.001-6.292 8.363-10.028 18.753-10.028 30.001 0 27.57 22.43 50 50 50 .009 0 .018-.001.028-.001-6.292 8.363-10.028 18.753-10.028 30.001 0 27.57 22.43 50 50 50s50-22.432 50-50.002zm-10-50c-16.542 0-30-13.458-30-30s13.458-30 30-30 30 13.458 30 30-13.458 30-30 30zm-39.972.001c-.009 0-.018-.001-.028-.001s-.018.001-.028.001c.009-.012.019-.023.028-.036.009.013.019.024.028.036zm-40.028-220.001c16.542 0 30 13.458 30 30s-13.458 30-30 30-30-13.458-30-30 13.458-30 30-30zm110 30c0 16.542-13.458 30-30 30s-30-13.458-30-30 13.458-30 30-30 30 13.458 30 30zm-29.972 49.999c-.009.012-.019.023-.028.036-.009-.012-.019-.023-.028-.036.009 0 .018.001.028.001s.018-.001.028-.001zm-40-19.998c-.009 0-.018-.001-.028-.001s-.018.001-.028.001c.009-.012.019-.023.028-.036.009.013.019.024.028.036zm-40 19.998c-.009.012-.019.023-.028.036-.009-.012-.019-.023-.028-.036.009 0 .019.001.028.001s.018-.001.028-.001zm39.972.001c16.542 0 30 13.458 30 30s-13.458 30-30 30-30-13.458-30-30 13.458-30 30-30zm40 59.965c.009.012.019.023.028.036-.009 0-.018-.001-.028-.001s-.018.001-.028.001c.009-.012.019-.023.028-.036zm-79.972.036c-.009 0-.018-.001-.028-.001-.009 0-.018.001-.028.001.009-.012.019-.023.028-.036.009.013.019.024.028.036zm39.972 19.999c.009 0 .018-.001.028-.001-.009.012-.019.023-.028.036-.009-.012-.019-.023-.028-.036.01 0 .019.001.028.001zm110-50c0 16.542-13.458 30-30 30s-30-13.458-30-30 13.458-30 30-30 30 13.458 30 30zm-36.302-126.302c-1.577 1.577-3.256 3.062-4.989 4.41-.222.172-.427.357-.63.544-6.98-4.755-15.222-7.778-24.109-8.48l45.74-45.739c1.029 14.158-.916 34.17-16.012 49.265zm-47.396-47.396c15.099-15.098 35.114-17.042 49.268-16.013l-65.329 65.328c-.136-1.81-.221-3.713-.237-5.685.003-.385-.001-.776-.003-1.165.077-13.345 3.454-29.619 16.301-42.465zm-52.604 0c12.827 12.827 16.214 29.071 16.301 42.403-.002.414-.006.83-.003 1.238-.017 1.968-.102 3.866-.237 5.673l-65.39-65.389c14.119-1.064 34.115.86 49.329 16.075zm-63.409-1.87 45.741 45.74c-8.887.702-17.129 3.726-24.109 8.48-.203-.187-.409-.372-.63-.544-1.733-1.349-3.411-2.832-4.989-4.41-15.098-15.097-17.041-35.113-16.013-49.266zm-20.289 175.568c0-16.542 13.458-30 30-30s30 13.458 30 30-13.458 30-30 30-30-13.458-30-30zm40 80c0-16.542 13.458-30 30-30s30 13.458 30 30-13.458 30-30 30-30-13.458-30-30zm70 110c-16.542 0-30-13.458-30-30s13.458-30 30-30 30 13.458 30 30-13.458 30-30 30z"/><path d="m356.02 412.04c-27.57 0-50 22.43-50 50s22.43 50 50 50 50-22.43 50-50-22.43-50-50-50zm0 80c-16.542 0-30-13.458-30-30s13.458-30 30-30 30 13.458 30 30-13.458 30-30 30z"/></g></g></svg>