<svg id="Layer_1" enable-background="new 0 0 512 512" height="512" viewBox="0 0 512 512" width="512" xmlns="http://www.w3.org/2000/svg"><g><path d="m236 402c-55.229 0-100-44.772-100-100v-232h200v232c0 55.228-44.772 100-100 100z" fill="#eaf5bc"/><path d="m136 70h200v60h-200z" fill="#fff"/><circle cx="336" cy="70" fill="#9de3d1" r="60"/><circle cx="336" cy="70" fill="#eaf5bc" r="30"/><g><path d="m236 402c0 55.228 44.772 100 100 100h-200c55.228 0 100-44.772 100-100" fill="#7dd9c2"/></g><g fill="#fff"><circle cx="286" cy="186" r="10"/><path d="m176 176h60v60h-60z"/><path d="m236 276h60v60h-60z"/></g><g><path d="m346 302v-162.726c33.876-4.869 60-34.073 60-69.274 0-38.598-31.402-70-70-70-35.202 0-64.406 26.124-69.274 60h-130.726c-5.523 0-10 4.478-10 10v232c0 57.112 43.753 104.191 99.499 109.496-4.759 45.179-43.08 80.504-89.499 80.504h-20c-5.523 0-10 4.478-10 10s4.477 10 10 10h240c5.523 0 10-4.478 10-10s-4.477-10-10-10h-20c-46.419 0-84.74-35.325-89.499-80.504 55.746-5.305 99.499-52.384 99.499-109.496zm-20-183.006c-19.563-3.987-35.007-19.431-38.994-38.994h38.994zm10-98.994c27.57 0 50 22.43 50 50 0 24.146-17.205 44.348-40 48.994v-48.994c0-5.522-4.477-10-10-10h-48.994c4.646-22.795 24.847-40 48.994-40zm-69.274 60c2.237 15.567 9.613 29.491 20.351 40h-141.077v-40zm6.102 412h-73.656c15.86-11.166 28.648-26.412 36.828-44.2 8.18 17.788 20.968 33.034 36.828 44.2zm-36.828-100c-49.626 0-90-40.374-90-90v-162h180v162c0 49.626-40.374 90-90 90z" fill="#42d0b4"/></g><circle cx="306" cy="166" fill="#fff" r="5"/></g></svg>