<svg id="Layer_1" enable-background="new 0 0 512 512" height="512" viewBox="0 0 512 512" width="512" xmlns="http://www.w3.org/2000/svg"><g><g><path d="m356 462v40h-200v-40" fill="#fff"/><path d="m136 102h240v360h-240z" fill="#99ebfa"/><path d="m136 102h240v60h-240z" fill="#fff"/><path d="m276 10h40v252h-40z" fill="#fff"/><path d="m276 162h40v100.001h-40z" fill="#ccf5fc"/><g fill="#fff"><path d="m216 306h60v60h-60z"/><path d="m176 206h60v60h-60z"/><path d="m276 366h60v60h-60z"/></g><g><path d="m376 92h-50v-82c0-5.523-4.478-10-10-10h-40c-5.522 0-10 4.477-10 10v82h-130c-5.523 0-10 4.478-10 10v360c0 5.522 4.477 10 10 10h10v30c0 5.522 4.477 10 10 10h200c5.522 0 10-4.478 10-10v-30h10c5.522 0 10-4.478 10-10v-360c0-5.522-4.478-10-10-10zm-10 20v40h-40v-40zm-80 60h20v80h-20zm0-20v-40h20v40zm0-132h20v72h-20zm-20 92v40h-120v-40zm80 380h-180v-20h180zm-200-40v-280h120v90c0 5.522 4.478 10 10 10h40c5.522 0 10-4.478 10-10v-90h40v280z" fill="#80b6ff"/></g></g><g fill="#fff"><circle cx="176" cy="422" r="10"/><circle cx="345.684" cy="212.316" r="5"/><circle cx="196" cy="402" r="5"/></g></g></svg>