<svg id="Layer_1" enable-background="new 0 0 512 512" height="512" viewBox="0 0 512 512" width="512" xmlns="http://www.w3.org/2000/svg"><g><path d="m376 86h-200c-22.091 0-40 17.909-40 40v200h80v100h200v-300c0-22.091-17.909-40-40-40z" fill="#ffdede"/><path d="m216 386h200v40h-200z" fill="#ffbecb"/><path d="m136 286h200v40h-200z" fill="#ffbecb"/><path d="m336 226h146c11.046 0 20-8.954 20-20 0-11.046-8.954-20-20-20h-146" fill="#fff2a0"/><path d="m336 186h120v40h-120z" fill="#fffbdf"/><path d="m376 186h-40v-40c0-11.046 8.954-20 20-20s20 8.954 20 20z" fill="#ffbecb"/><path d="m136 226h-106c-11.046 0-20-8.954-20-20 0-11.046 8.954-20 20-20h106" fill="#fff2a0"/><path d="m56 186h80v40h-80z" fill="#fffbdf"/><path d="m482 176h-56v-50c0-27.57-22.43-50-50-50h-200c-27.57 0-50 22.43-50 50v50h-96c-16.542 0-30 13.458-30 30s13.458 30 30 30h96v90c0 5.522 4.477 10 10 10h70v90c0 5.522 4.477 10 10 10h200c5.522 0 10-4.478 10-10v-190h56c16.542 0 30-13.458 30-30s-13.458-30-30-30zm-136 40v-20h100v20zm20-40h-20v-30c0-5.514 4.486-10 10-10s10 4.486 10 10zm-220-50c0-16.542 13.458-30 30-30h200c16.542 0 30 13.458 30 30v50h-20v-30c0-16.542-13.458-30-30-30s-30 13.458-30 30v130h-180zm-126 80c0-5.514 4.486-10 10-10h16v20h-16c-5.514 0-10-4.486-10-10zm46 10v-20h60v20zm80 80h180v20h-180zm80 120v-20h180v20zm180-40h-180v-40h110c5.522 0 10-4.478 10-10v-90h60zm76-160h-16v-20h16c5.514 0 10 4.486 10 10s-4.486 10-10 10z" fill="#ff5d7d"/></g></svg>