<svg id="Layer_1" enable-background="new 0 0 512 512" height="512" viewBox="0 0 512 512" width="512" xmlns="http://www.w3.org/2000/svg"><g><path d="m186.251 382v100c0 11.046-8.954 20-20 20-11.046 0-20-8.954-20-20v-100l-40-80v-272c0-11.046 8.954-20 20-20h80c11.046 0 20 8.954 20 20v272z" fill="#fff"/><path d="m226.251 30v30h-120v-30c0-11.05 8.95-20 20-20h80c11.05 0 20 8.95 20 20z" fill="#ffbecb"/><path d="m146.251 176h40v100h-40z" fill="#ffdede"/><path d="m186.251 442v40c0 11.05-8.95 20-20 20-5.52 0-10.52-2.24-14.14-5.86s-5.86-8.62-5.86-14.14v-40z" fill="#ffbecb"/><circle cx="166.251" cy="118" fill="#fff2a0" r="20"/><circle cx="286.251" cy="156" fill="#ffdede" r="20"/><g fill="#ff5d7d"><path d="m206.251 0h-80c-16.542 0-30 13.458-30 30v272c0 1.553.361 3.084 1.056 4.472l38.944 77.889v97.639c0 16.542 13.458 30 30 30s30-13.458 30-30v-97.64l38.944-77.889c.694-1.388 1.056-2.919 1.056-4.472v-271.999c0-16.542-13.458-30-30-30zm-80 20h80c5.514 0 10 4.486 10 10v20h-100v-20c0-5.514 4.486-10 10-10zm40 472c-5.514 0-10-4.486-10-10v-30h20v30c0 5.514-4.486 10-10 10zm11.056-114.472c-.694 1.388-1.056 2.919-1.056 4.472v50h-20v-50c0-1.553-.361-3.084-1.056-4.472l-38.944-77.889v-229.639h100v229.64z"/><path d="m316.251 156c0-16.542-13.458-30-30-30s-30 13.458-30 30 13.458 30 30 30 30-13.458 30-30zm-40 0c0-5.514 4.486-10 10-10s10 4.486 10 10-4.486 10-10 10-10-4.486-10-10z"/><path d="m398.678 308.426c-23.393 23.395-61.458 23.395-84.853 0-11.332-11.332-17.573-26.399-17.573-42.426s6.241-31.094 17.574-42.426c23.393-23.395 61.459-23.395 84.853 0 3.905 3.904 10.237 3.904 14.143 0 3.905-3.905 3.905-10.237 0-14.143-31.193-31.192-81.946-31.192-113.137 0-15.11 15.109-23.432 35.199-23.432 56.568s8.322 41.459 23.431 56.568c15.596 15.596 36.083 23.394 56.569 23.394s40.973-7.798 56.569-23.394c3.905-3.905 3.905-10.237 0-14.143-3.907-3.902-10.239-3.902-14.144.002z"/></g></g></svg>