<svg id="Layer_1" enable-background="new 0 0 512 512" height="512" viewBox="0 0 512 512" width="512" xmlns="http://www.w3.org/2000/svg"><g><path d="m236 375.998h40v86h-40z" fill="#f4e8e0"/><path d="m236 169.998h40v126h-40z" fill="#f4e8e0"/><path d="m456 169.998h-400l200-160z" fill="#ffd4b5"/><path d="m116 295.998h280v40h-280z" fill="#f4e8e0"/><path d="m336 295.998-80 80-80-80" fill="#fff2a0"/><path d="m196 461.998h120v40h-120z" fill="#ffd4b5"/><g fill="#d1a19e"><path d="m316 451.998h-30v-91.857l14.143-14.143h95.857c5.523 0 10-4.477 10-10v-40c0-5.522-4.477-10-10-10h-110v-106h69.993c.005 0 .01.001.016.001.005 0 .009-.001.014-.001h99.977c4.247 0 8.031-2.683 9.436-6.689 1.405-4.008.126-8.466-3.189-11.119l-200-160c-.075-.06-.154-.111-.229-.168-.078-.059-.155-.116-.234-.172-.074-.053-.145-.11-.221-.161-.223-.149-.451-.287-.682-.416-.014-.008-.026-.017-.04-.024-.014-.008-.028-.017-.042-.024-.095-.052-.194-.095-.29-.144-.174-.088-.348-.176-.526-.253-.072-.031-.145-.06-.217-.09-.058-.023-.117-.042-.176-.064-.153-.059-.305-.117-.46-.168-.132-.043-.266-.082-.4-.12-.05-.014-.099-.031-.148-.044-.025-.006-.048-.015-.073-.021-.091-.024-.183-.041-.274-.062-.131-.03-.261-.058-.394-.082-.145-.027-.291-.05-.437-.071-.074-.01-.147-.021-.222-.03-.083-.01-.166-.021-.249-.029-.619-.058-1.242-.058-1.861 0-.084.008-.166.019-.249.029-.074.009-.148.02-.222.03-.146.021-.292.043-.437.071-.132.024-.263.053-.394.082-.091.021-.183.038-.274.062-.025.006-.049.015-.073.021-.05.014-.099.03-.148.044-.134.038-.268.077-.4.12-.155.051-.307.109-.46.168-.058.022-.118.041-.176.064-.073.03-.145.059-.217.09-.178.077-.352.166-.526.253-.096.049-.196.092-.291.144-.014.008-.028.017-.042.024s-.026.017-.04.024c-.231.129-.459.267-.682.416-.076.051-.147.108-.221.161-.079.056-.157.113-.234.172-.076.057-.155.108-.23.168l-200 160c-3.316 2.653-4.595 7.111-3.189 11.119 1.406 4.007 5.189 6.689 9.437 6.689h170v106h-110.004c-5.523 0-10 4.478-10 10v40c0 5.523 4.477 10 10 10h95.857l14.143 14.143v91.857h-30c-5.523 0-10 4.478-10 10v40c0 5.523 4.477 10 10 10h120c5.523 0 10-4.477 10-10v-40c0-5.522-4.477-10-10-10zm-115.857-146h111.715l-55.858 55.858zm185.857 20h-65.857l20-20h45.857zm-211.958-166 71.958-115.132v115.132zm91.958-115.132 71.958 115.132h-71.958zm95.542 115.132-65.949-105.519 131.899 105.519zm-145.135-105.519-65.949 105.519h-65.95zm29.593 125.519h20v106h-20zm-120 146v-20h45.857l20 20zm120 54.143 2.929 2.929c1.953 1.952 4.512 2.929 7.071 2.929s5.119-.977 7.071-2.929l2.929-2.929v71.857h-20zm60 111.857h-100v-20h100z"/><path d="m456.143 441.998 30-30h15.857c5.523 0 10-4.477 10-10 0-5.522-4.477-10-10-10h-120c-5.523 0-10 4.478-10 10 0 5.523 4.477 10 10 10h15.857l30 30-52.929 52.929c-3.905 3.905-3.905 10.237 0 14.143 1.953 1.952 4.512 2.929 7.071 2.929s5.119-.977 7.071-2.929l52.93-52.929 52.929 52.929c1.953 1.952 4.512 2.929 7.071 2.929s5.119-.977 7.071-2.929c3.905-3.905 3.905-10.237 0-14.143zm-30-30h31.715l-15.858 15.858z"/><path d="m130 411.998c5.523 0 10-4.477 10-10 0-5.522-4.477-10-10-10h-120c-5.523 0-10 4.478-10 10 0 5.523 4.477 10 10 10h15.857l30 30-52.928 52.929c-3.905 3.905-3.905 10.237 0 14.143 1.953 1.952 4.512 2.929 7.071 2.929s5.119-.977 7.071-2.929l52.929-52.929 52.929 52.929c1.953 1.952 4.512 2.929 7.071 2.929s5.119-.977 7.071-2.929c3.905-3.905 3.905-10.237 0-14.143l-52.929-52.929 30-30zm-60 15.858-15.857-15.857h31.715z"/></g></g></svg>