<svg id="Layer_1" enable-background="new 0 0 512 512" height="512" viewBox="0 0 512 512" width="512" xmlns="http://www.w3.org/2000/svg"><g><circle cx="150" cy="306" fill="#f4e8e0" r="140"/><circle cx="150" cy="306" fill="#fff" r="96.25"/><path d="m362 166 40-100h40l-40 100" fill="#eaf5bc"/><path d="m482 226-60-60h-120l-60 60" fill="#fff"/><path d="m362 446c-77.32 0-140-62.68-140-140v-80h280v80c0 77.32-62.68 140-140 140z" fill="#eaf5bc"/><path d="m502 216h-15.857l-57.071-57.071c-1.877-1.875-4.42-2.929-7.072-2.929h-5.229l34.514-86.286c1.232-3.081.855-6.572-1.005-9.32s-4.962-4.394-8.28-4.394h-40c-4.089 0-7.767 2.489-9.285 6.286l-37.486 93.714h-53.229c-2.652 0-5.195 1.054-7.071 2.929l-39.949 39.949c-27.911-27.316-65.821-42.878-104.98-42.878-82.71 0-150 67.29-150 150s67.29 150 150 150c39.903 0 77.994-15.9 106.04-43.929 27.157 27.129 64.633 43.929 105.96 43.929 82.71 0 150-67.29 150-150v-80c0-5.523-4.478-10-10-10zm-93.229-140h18.459l-32 80h-18.458zm-102.628 100h56.018c.015 0 .03.001.044 0h39.729c.021 0 .042.003.063.003.013 0 .026-.003.039-.003h15.821l40 40h-191.714zm-156.143 260c-71.682 0-130-58.317-130-130s58.318-130 130-130c34.391 0 66.433 13.107 90.842 37.016l-2.985 2.984h-15.857c-5.523 0-10 4.477-10 10v80c0 34.189 11.506 65.736 30.837 90.992-24.394 24.876-57.812 39.008-92.837 39.008zm342-130c0 71.683-58.317 130-130 130s-130-58.317-130-130v-70h260z" fill="#42d0b4"/><g fill="#7dd9c2"><circle cx="302" cy="386" r="10"/><circle cx="342" cy="386" r="10"/><circle cx="322" cy="356" r="10"/></g></g></svg>