<svg id="Layer_1" enable-background="new 0 0 512 512" height="512" viewBox="0 0 512 512" width="512" xmlns="http://www.w3.org/2000/svg"><g><path d="m76 476c99.411-133.333 260.589-133.333 360 0" fill="#f4e8e0"/><path d="m214.68 416c-19.551-37.427-38.68-91.54-38.68-160 0-140 80-220 80-220s80 80 80 220c0 68.46-19.13 122.573-38.681 160z" fill="#99ebfa"/><path d="m178.367 214.816c-1.513 13.085-2.367 26.813-2.367 41.184 0 3.347.059 6.648.148 9.926l153.558-76.779c-3.051-15.89-7.045-30.633-11.591-44.204z" fill="#fff2a0"/><path d="m256 376h40c0-22.091-17.909-40-40-40" fill="#fff"/><path d="m502 466h-61.035c-32.47-42.164-72.429-72.424-116.12-87.974 13.91-38.635 21.155-80.091 21.155-122.027 0-74.386-22.392-131.985-41.177-167.206-20.465-38.372-40.893-59.006-41.752-59.865-1.876-1.875-4.419-2.928-7.071-2.928s-5.195 1.054-7.071 2.929c-.859.859-21.287 21.493-41.752 59.865-18.785 35.22-41.177 92.82-41.177 167.205 0 2.855.044 5.706.11 8.556-.164 1.117-.135 2.267.092 3.404 1.242 37.842 8.366 75.109 20.952 110.067-43.691 15.549-83.65 45.81-116.12 87.974h-61.034c-5.523 0-10 4.477-10 10 0 5.522 4.477 10 10 10h65.967c.009 0 .017.001.025.001.006 0 .011-.001.017-.001h359.981c.006 0 .011.001.017.001.008 0 .017-.001.025-.001h65.968c5.522 0 10-4.478 10-10 0-5.523-4.478-10-10-10zm-281.199-60c-20.773-41.585-32.326-86.568-34.44-134l59.639-29.82v163.82zm-33.05-184.696 124.304-62.151c2.321 7.806 4.436 15.976 6.28 24.499l-132.277 66.138c.174-9.828.769-19.321 1.693-28.486zm78.249 126.429c8.507 3.019 15.27 9.757 18.286 18.266h-18.286zm0 38.267h30c1.783 0 3.453-.472 4.902-1.29-2.974 7.19-6.206 14.289-9.703 21.29h-25.199zm39.83-13.949c-1.758-22.373-18.29-40.656-39.83-45.046v-94.825l56.102-28.051c2.465 16.202 3.898 33.506 3.898 51.871 0 40.55-6.774 79.423-20.17 116.051zm-81.386-273.133c12.031-22.697 24.175-38.902 31.551-47.824 11.17 13.544 33.309 43.929 49.713 88.871l-39.708 19.854v-43.82c0-5.522-4.478-10-10-10-5.523 0-10 4.478-10 10v53.82l-54.965 27.482c7.262-41.863 21.154-75.262 33.409-98.383zm-29.979 297.731c3.478 8.151 7.263 16.153 11.352 23.98 1.724 3.301 5.14 5.37 8.863 5.37h82.639c3.724 0 7.14-2.069 8.863-5.37 4.089-7.827 7.875-15.829 11.352-23.98 35.985 12.673 69.371 36.419 97.659 69.351h-318.387c28.288-32.932 61.674-56.678 97.659-69.351z" fill="#80b6ff"/></g></svg>