<svg id="Layer_1" enable-background="new 0 0 512.5 512.5" height="512" viewBox="0 0 512.5 512.5" width="512" xmlns="http://www.w3.org/2000/svg"><g><path d="m10 396.249h492v80h-492z" fill="#ccf5fc"/><g><path d="m315.5 446.249h-120c-5.523 0-10-4.477-10-10s4.477-10 10-10h120c5.522 0 10 4.477 10 10s-4.478 10-10 10z" fill="#99ebfa"/></g><g><path d="m75.5 446.249h-40c-5.522 0-10-4.477-10-10s4.478-10 10-10h40c5.522 0 10 4.477 10 10s-4.478 10-10 10z" fill="#99ebfa"/></g><g><path d="m475.5 446.249h-40c-5.522 0-10-4.477-10-10s4.478-10 10-10h40c5.522 0 10 4.477 10 10s-4.478 10-10 10z" fill="#99ebfa"/></g><path d="m96 196.249h320v140h-320z" fill="#f4e8e0"/><g fill="#ffd4b5"><path d="m291 336.249v-90h-70v90"/><path d="m416 296.249h-40v-60h40"/><path d="m96 296.249h40v-60h-40"/><path d="m356 336.249h40v100h-40z"/><path d="m116 336.249h40v100h-40z"/><path d="m436 196.249h-360l180-160z"/></g><g fill="#d1a19e"><path d="m10 406.249h96v30c0 5.523 4.478 10 10 10h40c5.523 0 10-4.477 10-10v-30h180v30c0 5.523 4.478 10 10 10h40c5.522 0 10-4.477 10-10v-30h96c5.522 0 10-4.477 10-10s-4.478-10-10-10h-96v-40h30c5.522 0 10-4.477 10-10s-4.478-10-10-10h-10v-120h10c4.151 0 7.872-2.565 9.348-6.446 1.475-3.881.399-8.27-2.704-11.028l-180-160c-.047-.042-.098-.077-.146-.118-.04-.034-.076-.072-.116-.105-.005-.004-.01-.01-.016-.014-.073-.061-.154-.113-.229-.172-.129-.101-.259-.199-.392-.293-.123-.087-.248-.169-.375-.25-.004-.003-.008-.006-.013-.009-.046-.029-.09-.062-.136-.091-.09-.055-.183-.106-.274-.158-.129-.074-.26-.144-.392-.212-.14-.072-.281-.14-.423-.205-.042-.019-.083-.041-.125-.059-.103-.045-.207-.085-.311-.127-.153-.061-.307-.116-.462-.169-.137-.047-.273-.093-.412-.134-.032-.009-.064-.021-.096-.03-.137-.039-.275-.068-.413-.101-.14-.033-.279-.068-.42-.095-.123-.024-.246-.041-.37-.06-.084-.013-.168-.024-.253-.035-.104-.013-.206-.031-.311-.041-.637-.061-1.278-.061-1.915 0-.105.01-.207.028-.311.041-.085.011-.169.022-.253.035-.124.019-.247.037-.37.06-.142.027-.281.062-.42.095-.138.033-.277.062-.413.101-.032.009-.064.021-.096.03-.139.041-.275.087-.412.134-.155.053-.309.108-.462.169-.104.042-.208.082-.311.127-.042.019-.083.04-.126.059-.142.065-.283.133-.423.205-.133.068-.263.138-.392.212-.092.052-.184.102-.274.158-.047.029-.09.062-.137.091-.004.003-.009.006-.013.009-.127.081-.253.163-.376.25-.133.093-.263.192-.392.293-.076.059-.156.111-.229.172-.006.005-.01.01-.016.014-.04.033-.076.071-.116.105-.048.041-.099.076-.146.118l-180 160c-3.104 2.758-4.179 7.147-2.704 11.028 1.476 3.881 5.196 6.446 9.348 6.446h10v120h-10c-5.522 0-10 4.477-10 10s4.478 10 10 10h30v40h-96c-5.523 0-10 4.477-10 10s4.477 10 10 10zm256-327.639 53.82 107.639h-53.82zm-20 107.639h-53.82l53.82-107.639zm80 20v120h-25v-80c0-5.523-4.478-10-10-10h-70c-5.523 0-10 4.477-10 10v80h-25v-120zm-95 120v-70h50v70zm-65 60v-40h180v40zm220 6.888c-.321.98-.5 2.024-.5 3.111s.179 2.132.5 3.112v26.888h-20v-80h20zm20-106.888h-20v-40h20zm0-60h-30c-5.522 0-10 4.477-10 10v60c0 5.523 4.478 10 10 10h30v20h-60v-120h60zm-63.82-40-54.014-108.029 121.532 108.028h-67.518zm-118.346-108.029-54.014 108.029h-67.518zm-117.834 168.029h20v40h-20zm0 60h30c5.523 0 10-4.477 10-10v-60c0-5.523-4.477-10-10-10h-30v-20h60v120h-60zm40 40v80h-20v-80z"/><path d="m502.5 466.249h-492c-5.523 0-10 4.477-10 10s4.477 10 10 10h492c5.522 0 10-4.477 10-10s-4.478-10-10-10z"/></g></g></svg>