<svg id="Layer_1" enable-background="new 0 0 512 512" height="512" viewBox="0 0 512 512" width="512" xmlns="http://www.w3.org/2000/svg"><g><path d="m116 50v-40h80v40" fill="#cecdf3"/><path d="m416 410h-320c-11.046 0-20-8.954-20-20v-320c0-11.046 8.954-20 20-20h320c11.046 0 20 8.954 20 20v320c0 11.046-8.954 20-20 20z" fill="#e6e6f9"/><path d="m356 90h40v40h-40z" fill="#fff"/><circle cx="156" cy="190" fill="#ffdede" r="20"/><circle cx="256" cy="190" fill="#fff" r="80"/><circle cx="256" cy="190" fill="#cecdf3" r="40"/><path d="m436 330v60c0 11.05-8.95 20-20 20h-320c-11.05 0-20-8.95-20-20v-60z" fill="#cecdf3"/><path d="m356 370v132h-200v-132" fill="#fff"/><path d="m316 370v92h-120v-92" fill="#e6e6f9"/><g fill="#c193dc"><path d="m416 40h-210v-30c0-5.523-4.477-10-10-10h-80c-5.522 0-10 4.477-10 10v30h-10c-16.542 0-30 13.458-30 30v320c0 16.542 13.458 30 30 30h50v82c0 5.522 4.477 10 10 10h200c5.522 0 10-4.478 10-10v-82h50c16.542 0 30-13.458 30-30v-320c0-16.542-13.458-30-30-30zm-290-20h60v20h-60zm-30 40h320c5.514 0 10 4.486 10 10v250h-340v-250c0-5.514 4.486-10 10-10zm250 432h-180v-112h180zm70-92h-50v-20h20c5.522 0 10-4.478 10-10s-4.478-10-10-10h-260c-5.522 0-10 4.478-10 10s4.478 10 10 10h20v20h-50c-5.514 0-10-4.486-10-10v-50h340v50c0 5.514-4.486 10-10 10z"/><path d="m156 220c5.051 0 9.811-1.26 13.991-3.474 11.348 36.72 45.612 63.474 86.009 63.474 49.626 0 90-40.374 90-90s-40.374-90-90-90c-40.397 0-74.661 26.754-86.009 63.474-4.18-2.214-8.94-3.474-13.991-3.474-16.542 0-30 13.458-30 30s13.458 30 30 30zm100-100c38.598 0 70 31.402 70 70s-31.402 70-70 70-70-31.402-70-70 31.402-70 70-70zm-100 60c5.514 0 10 4.486 10 10s-4.486 10-10 10-10-4.486-10-10 4.486-10 10-10z"/></g><g><path d="m176 100h-60c-5.522 0-10-4.478-10-10s4.478-10 10-10h60c5.523 0 10 4.478 10 10s-4.477 10-10 10z" fill="#cecdf3"/></g></g></svg>