<svg id="Layer_1" enable-background="new 0 0 512 512" height="512" viewBox="0 0 512 512" width="512" xmlns="http://www.w3.org/2000/svg"><g><path d="m296 196-64.645-65.224c-19.526-19.701-51.184-19.701-70.711 0l-64.644 65.224" fill="#f4e8e0"/><path d="m296 236-20 180h-160l-20-180" fill="#eaf5bc"/><g fill="#fff"><path d="m316 236h-240c-11.046 0-20-8.954-20-20 0-11.046 8.954-20 20-20h240c11.046 0 20 8.954 20 20 0 11.046-8.954 20-20 20z"/><path d="m226 336h-60c-5.523 0-10-4.477-10-10v-30h80v30c0 5.523-4.477 10-10 10z"/><path d="m376 136h40v140h-40z"/></g><path d="m376 136h40v60h-40z" fill="#eaf5bc"/><path d="m436 136h-80c-11.046 0-20-8.954-20-20v-20h120v20c0 11.046-8.954 20-20 20z" fill="#eaf5bc"/><path d="m456 416h-120v-81.614c0-32.246 26.14-58.386 58.386-58.386h3.228c32.246 0 58.386 26.14 58.386 58.386z" fill="#7dd9c2"/><g><path d="m476 416-44.645-45.18c-19.526-19.76-51.184-19.76-70.711 0l-44.644 45.18" fill="#f4e8e0"/></g><path d="m502 406h-21.823l-14.177-14.347v-57.268c0-27.584-16.425-51.388-40-62.191v-126.194h10c16.542 0 30-13.458 30-30v-20c0-5.522-4.477-10-10-10h-120c-5.523 0-10 4.478-10 10v20c0 16.542 13.458 30 30 30h10v126.194c-23.575 10.804-40 34.608-40 62.191v57.267l-14.177 14.348h-24.65l17.778-160h11.049c16.542 0 30-13.458 30-30s-13.458-30-30-30h-15.832l-61.71-62.263c-11.336-11.438-26.415-17.737-42.458-17.737s-31.122 6.299-42.458 17.737l-61.71 62.263h-15.832c-16.542 0-30 13.458-30 30s13.458 30 30 30h11.049l17.778 160h-94.827c-5.523 0-10 4.478-10 10s4.477 10 10 10h106 160 226c5.523 0 10-4.478 10-10s-4.477-10-10-10zm-334.253-268.185c7.552-7.619 17.585-11.815 28.253-11.815 10.667 0 20.701 4.196 28.253 11.815l47.757 48.185h-152.02zm-71.793 88.185c-.02 0-.04-.001-.061 0h-19.893c-5.514 0-10-4.486-10-10s4.486-10 10-10h240c5.514 0 10 4.486 10 10s-4.486 10-10 10zm70.046 60v-40h60v40zm60 20v20h-60v-20zm41.05 100h-142.1l-17.777-160h38.827v80c0 11.028 8.972 20 20 20h60c11.028 0 20-8.972 20-20v-80h38.827zm88.95-280c-5.514 0-10-4.486-10-10v-10h100v10c0 5.514-4.486 10-10 10zm30 60v-40h20v40zm20 20v60.533c-2.751-.338-5.546-.533-8.386-.533h-3.228c-2.841 0-5.635.195-8.386.533v-60.533zm-60 128.386c0-26.68 21.706-48.386 48.386-48.386h3.228c26.68 0 48.386 21.706 48.386 48.386v37.028l-7.531-7.622c-11.338-11.474-26.42-17.792-42.469-17.792s-31.131 6.318-42.469 17.791l-7.531 7.622zm-6.06 71.614 1.791-1.813c.996-.699 1.863-1.57 2.547-2.578l23.48-23.761c7.55-7.64 17.58-11.848 28.242-11.848s20.692 4.208 28.242 11.849l23.48 23.761c.684 1.007 1.551 1.879 2.547 2.578l1.791 1.812z" fill="#42d0b4"/></g></svg>