<svg id="Layer_1" enable-background="new 0 0 512 512" height="512" viewBox="0 0 512 512" width="512" xmlns="http://www.w3.org/2000/svg"><g><path d="m316 136v-66c0-33.137-26.863-60-60-60-33.137 0-60 26.863-60 60v66l-28.944 14.472c-6.776 3.388-11.056 10.313-11.056 17.889v175.279c0 7.576 4.28 14.501 11.056 17.889l28.944 14.471v66c0 33.137 26.863 60 60 60 33.137 0 60-26.863 60-60v-66l28.944-14.472c6.776-3.388 11.056-10.313 11.056-17.889v-175.278c0-7.576-4.28-14.501-11.056-17.889z" fill="#99ebfa"/><path d="m156 316 200-70v-50l-200 70z" fill="#fff2a0"/><path d="m356 36h40v80h-40z" fill="#fff2a0"/><path d="m116 36h40v80h-40z" fill="#fff2a0" transform="matrix(-1 0 0 -1 272 152)"/><path d="m356 396h40v80h-40z" fill="#fff2a0"/><path d="m116 396h40v80h-40z" fill="#fff2a0" transform="matrix(-1 0 0 -1 272 872)"/><path d="m356 126h40c5.523 0 10-4.478 10-10v-80c0-5.522-4.477-10-10-10h-40c-5.523 0-10 4.478-10 10v30h-20.122c-2.081-36.743-32.623-66-69.878-66s-67.797 29.257-69.878 66h-20.122v-30c0-5.522-4.477-10-10-10h-40c-5.523 0-10 4.478-10 10v80c0 5.522 4.477 10 10 10h40c5.523 0 10-4.478 10-10v-30h20v43.819l-23.418 11.708c-10.228 5.117-16.582 15.398-16.582 26.833v175.28c0 11.436 6.354 21.717 16.583 26.833l23.417 11.708v43.819h-20v-30c0-5.522-4.477-10-10-10h-40c-5.523 0-10 4.478-10 10v80c0 5.522 4.477 10 10 10h40c5.523 0 10-4.478 10-10v-30h20.122c2.081 36.743 32.623 66 69.878 66s67.797-29.257 69.878-66h20.122v30c0 5.522 4.477 10 10 10h40c5.523 0 10-4.478 10-10v-80c0-5.522-4.477-10-10-10h-40c-5.523 0-10 4.478-10 10v30h-20v-43.819l23.418-11.708c10.228-5.117 16.582-15.398 16.582-26.833v-175.28c0-11.436-6.354-21.717-16.583-26.833l-23.417-11.708v-43.819h20v30c0 5.522 4.477 10 10 10zm-210-20h-20v-60h20zm0 360h-20v-60h20zm220-60h20v60h-20zm-20-167.095-180 63v-28.811l180-63zm-5.528 113.679-28.944 14.472c-3.388 1.694-5.528 5.156-5.528 8.944v66c0 27.57-22.43 50-50 50s-50-22.43-50-50v-66c0-3.788-2.14-7.25-5.528-8.944l-28.944-14.472c-3.41-1.705-5.528-5.133-5.528-8.944v-20.545l180-63v83.545c0 3.811-2.119 7.239-5.528 8.944zm0-193.168c3.41 1.705 5.528 5.133 5.528 8.944v20.545l-180 63v-83.545c0-3.812 2.119-7.239 5.528-8.944l28.944-14.472c3.388-1.694 5.528-5.156 5.528-8.944v-66c0-27.57 22.43-50 50-50s50 22.43 50 50v66c0 3.788 2.14 7.25 5.528 8.944zm25.528-113.416h20v60h-20z" fill="#80b6ff"/><g fill="#ccf5fc"><circle cx="236" cy="412" r="10"/><circle cx="276" cy="412" r="10"/><circle cx="236" cy="442" r="10"/><circle cx="276" cy="442" r="10"/><circle cx="236" cy="80" r="10"/><circle cx="276" cy="80" r="10"/><circle cx="236" cy="110" r="10"/><circle cx="276" cy="110" r="10"/></g></g></svg>