<svg id="Layer_1" enable-background="new 0 0 512 512" height="512" viewBox="0 0 512 512" width="512" xmlns="http://www.w3.org/2000/svg"><g><path d="m336.812 101.367 17.658 247.208c.827 11.577-8.343 21.425-19.95 21.425h-157.041c-11.607 0-20.776-9.848-19.949-21.425l17.658-247.208c.503-7.046 4.686-13.304 11.005-16.464l29.807-14.903v-20c0-22.091 17.909-40 40-40 22.091 0 40 17.909 40 40v20l29.807 14.904c6.318 3.159 10.502 9.417 11.005 16.463z" fill="#ffdede"/><path d="m276 370v112c0 11.046-8.954 20-20 20-11.046 0-20-8.954-20-20v-112" fill="#f4e8e0"/><path d="m170.286 170-7.143 100h185.714l-7.143-100z" fill="#ffbecb"/><path d="m341.71 170h-171.42l4.9-68.63c.5-7.05 4.68-13.31 11-16.47l29.81-14.9v-20c0-22.09 17.91-40 40-40 11.04 0 21.04 4.48 28.28 11.72s11.72 17.24 11.72 28.28v20l29.81 14.9c6.32 3.16 10.5 9.42 11 16.47z" fill="#ffbecb"/><path d="m364.444 347.862-17.658-247.208v.001c-.751-10.519-7.076-19.981-16.508-24.696l-24.278-12.14v-13.819c0-27.57-22.43-50-50-50s-50 22.43-50 50v13.819l-24.279 12.14c-9.431 4.716-15.756 14.179-16.507 24.695l-17.658 247.209c-.591 8.277 2.313 16.508 7.968 22.581 5.655 6.072 13.657 9.556 21.956 9.556h48.52v102c0 16.542 13.458 30 30 30s30-13.458 30-30v-102h48.52c8.299 0 16.301-3.483 21.956-9.557 5.656-6.073 8.559-14.303 7.968-22.581zm-184.847-167.862h152.806l5.714 80h-164.234zm5.566-77.92c.25-3.506 2.359-6.661 5.502-8.232l29.807-14.903c3.388-1.695 5.528-5.157 5.528-8.945v-20c0-16.542 13.458-30 30-30s30 13.458 30 30v20c0 3.788 2.14 7.25 5.528 8.944l29.807 14.903c3.143 1.571 5.252 4.725 5.502 8.231v.001l4.137 57.92h-149.949zm80.837 379.92c0 5.514-4.486 10-10 10s-10-4.486-10-10v-102h20zm75.84-125.185c-1.913 2.054-4.513 3.185-7.319 3.185h-157.042c-2.807 0-5.406-1.131-7.318-3.185-1.913-2.054-2.856-4.728-2.656-7.526l4.949-69.289h167.092l4.949 69.288c.2 2.799-.743 5.472-2.655 7.527z" fill="#ff5d7d"/><g fill="#fff"><g><circle cx="196" cy="330" r="10"/><circle cx="216" cy="310" r="5"/></g><circle cx="266" cy="40" r="5"/></g></g></svg>