<svg id="Layer_1" enable-background="new 0 0 512 512" height="512" viewBox="0 0 512 512" width="512" xmlns="http://www.w3.org/2000/svg"><g><g><path d="m166 226h180v140h-180z" fill="#ffbecb"/><path d="m316 482h-120c-22.091 0-40-17.909-40-40v-76h200v76c0 22.091-17.909 40-40 40z" fill="#cecdf3"/><path d="m316 462c0 22.091-17.909 40-40 40h-40c-22.091 0-40-17.909-40-40" fill="#cecdf3"/><circle cx="256" cy="296" fill="#fff" r="40"/><path d="m296 110v-50h-80v50l-60 50v66h200v-66z" fill="#cecdf3"/><path d="m206 10h100v50h-100z" fill="#ffbecb"/><path d="m366 226v-66c0-2.968-1.318-5.782-3.599-7.683l-56.401-47.001v-35.316c5.522 0 10-4.478 10-10v-50c0-5.523-4.478-10-10-10h-100c-5.523 0-10 4.477-10 10v50c0 5.522 4.477 10 10 10v35.316l-56.401 47.001c-2.28 1.9-3.599 4.715-3.599 7.683v66c0 5.523 4.477 10 10 10v120c-5.523 0-10 4.478-10 10v76c0 27.57 22.43 50 50 50 .009 0 .017-.001.026-.001 9.131 12.137 23.65 20.001 39.974 20.001h40c16.323 0 30.843-7.864 39.974-20.001.009 0 .017.001.026.001 27.57 0 50-22.43 50-50v-76c0-5.522-4.478-10-10-10v-120c5.522 0 10-4.477 10-10zm-150-206h80v30h-80zm-50 144.684 56.401-47.001c2.28-1.9 3.599-4.715 3.599-7.683v-40h60v40c0 2.968 1.318 5.782 3.599 7.683l56.401 47.001v51.316h-180zm180 277.316c0 13.312-8.719 24.621-20.743 28.532.479-2.775.743-5.622.743-8.532 0-5.522-4.478-10-10-10s-10 4.478-10 10c0 16.542-13.458 30-30 30h-40c-16.542 0-30-13.458-30-30 0-5.522-4.477-10-10-10s-10 4.478-10 10c0 2.91.264 5.757.743 8.532-12.024-3.911-20.743-15.22-20.743-28.532v-66h180zm-10-86h-160v-120h160z" fill="#c193dc"/><g fill="#fff"><circle cx="326" cy="407" r="10"/><circle cx="306" cy="427" r="5"/></g></g><g fill="#fff"><circle cx="216" cy="156" r="5"/><circle cx="196" cy="176" r="10"/></g></g></svg>