<svg id="Layer_1" enable-background="new 0 0 512 512" height="512" viewBox="0 0 512 512" width="512" xmlns="http://www.w3.org/2000/svg"><g><g><path d="" style="fill:none;stroke:#d1a19e;stroke-width:20;stroke-linecap:round;stroke-linejoin:round;stroke-miterlimit:10"/></g><path d="m246 270c-99.411 0-180-53.726-180-120s80.589-120 180-120" fill="#f4e8e0"/><g><path d="m406 96c22.091 0 40 17.909 40 40s-17.909 40-40 40v.361c16.96 2.427 30 17.007 30 34.639 0 19.33-15.67 35-35 35-17.632 0-32.212-13.04-34.639-30h-.361v-80c0-22.091 17.909-40 40-40z" fill="#ffbecb"/><path d="m326 96c-22.091 0-40 17.909-40 40s17.909 40 40 40v.361c-16.96 2.427-30 17.007-30 34.639 0 19.33 15.67 35 35 35 17.632 0 32.212-13.04 34.639-30h.361v-80c0-22.091-17.909-40-40-40z" fill="#ffbecb"/><g fill="#fff"><circle cx="331" cy="211" r="5"/><circle cx="401" cy="211" r="5"/><circle cx="406" cy="136" r="10"/></g><path d="m432.165 178.585c14.288-8.811 23.835-24.602 23.835-42.585 0-27.57-22.43-50-50-50-11.248 0-21.638 3.735-30 10.027v-.027c0-16.542 13.458-30 30-30 5.522 0 10-4.478 10-10s-4.478-10-10-10c-16.339 0-30.87 7.878-40 20.035-9.13-12.157-23.661-20.035-40-20.035-5.522 0-10 4.478-10 10s4.478 10 10 10c16.542 0 30 13.458 30 30v.027c-8.362-6.292-18.752-10.027-30-10.027-27.57 0-50 22.43-50 50 0 17.983 9.547 33.774 23.835 42.585-8.519 8.193-13.835 19.691-13.835 32.415 0 24.814 20.186 45 45 45 9.245 0 17.845-2.805 25-7.604v7.604c0 5.522 4.478 10 10 10s10-4.478 10-10v-7.604c7.155 4.799 15.755 7.604 25 7.604 24.814 0 45-20.186 45-45 0-12.724-5.316-24.222-13.835-32.415zm-101.165 57.415c-13.785 0-25-11.215-25-25s11.215-25 25-25c5.522 0 10-4.477 10-10s-4.478-10-10-10c-1.142 0-2.271.057-3.392.141-.525-.085-1.059-.141-1.608-.141-16.542 0-30-13.458-30-30s13.458-30 30-30 30 13.458 30 30v75c0 13.785-11.215 25-25 25zm70 0c-13.785 0-25-11.215-25-25v-75c0-16.542 13.458-30 30-30s30 13.458 30 30-13.458 30-30 30c-.549 0-1.083.056-1.608.141-1.121-.084-2.25-.141-3.392-.141-5.522 0-10 4.477-10 10s4.478 10 10 10c13.785 0 25 11.215 25 25s-11.215 25-25 25z" fill="#d1a19e"/><g><path d="" style="fill:none;stroke:#d1a19e;stroke-width:20;stroke-linecap:round;stroke-linejoin:round;stroke-miterlimit:10"/></g><circle cx="326" cy="136" fill="#fff" r="10"/></g><path d="m226 382h40v120h-40z" fill="#ffd4b5"/><path d="m266 372h-10v-362c0-5.523-4.477-10-10-10s-10 4.477-10 10v10.18c-33.162 1.162-64.781 8.1-92.272 20.087-1.238.29-2.415.813-3.464 1.547-9.597 4.39-18.67 9.399-27.091 15.013-36.868 24.579-57.173 57.668-57.173 93.173s20.305 68.594 57.174 93.174c8.446 5.63 17.548 10.653 27.176 15.052 1.007.69 2.124 1.189 3.303 1.475 27.508 12.006 59.154 18.956 92.346 20.119v92.18h-10c-5.523 0-10 4.478-10 10v120c0 5.522 4.477 10 10 10h40c5.522 0 10-4.478 10-10v-120c.001-5.522-4.477-10-9.999-10zm-112.633-129.874c-3.337-7.427-6.195-15.448-8.576-23.892 12.191 3.121 25.203 5.655 38.816 7.559 2.131 9.967 4.695 19.461 7.663 28.359-13.325-2.946-26.04-6.978-37.903-12.026zm37.903-196.278c-2.968 8.898-5.532 18.392-7.663 28.359-13.613 1.904-26.625 4.438-38.816 7.559 2.381-8.444 5.239-16.465 8.576-23.892 11.863-5.048 24.578-9.08 37.903-12.026zm9.25 46.429c11.272-1.159 23.124-1.906 35.48-2.168v49.891h-39.926c.431-16.252 1.91-32.367 4.446-47.723zm-20.624 2.673c-2.108 14.415-3.383 29.542-3.767 45.05h-40.028c.436-12.278 1.669-24.451 3.712-36.158 11.988-3.557 25.419-6.585 40.083-8.892zm-3.767 65.05c.384 15.509 1.659 30.636 3.767 45.05-14.663-2.308-28.094-5.335-40.083-8.893-2.042-11.706-3.276-23.879-3.712-36.158h40.028zm19.945 0h39.926v49.891c-12.356-.263-24.208-1.009-35.48-2.168-2.536-15.356-4.015-31.471-4.446-47.723zm39.926-89.893c-10.641.221-21.12.793-31.352 1.705 2.549-10.592 5.652-20.625 9.318-29.85 7.23-.895 14.585-1.487 22.034-1.767zm-111.732 3.361c.878-.585 1.767-1.16 2.661-1.731-1.641 5.389-3.109 10.966-4.393 16.708-2.53.884-5.014 1.794-7.438 2.737-7.772 3.022-14.82 6.302-21.135 9.796 7.757-9.976 17.919-19.253 30.305-27.51zm-45.473 86.532h37.388c.318 9.773 1.101 19.367 2.327 28.68-20.297-8.414-34.122-18.494-39.715-28.68zm37.387-20h-37.387c5.593-10.186 19.418-20.266 39.715-28.68-1.227 9.313-2.009 18.907-2.328 28.68zm-22.22 59.021c6.315 3.495 13.363 6.774 21.135 9.796 2.424.943 4.908 1.854 7.438 2.737 1.284 5.742 2.752 11.319 4.393 16.708-.894-.571-1.783-1.146-2.661-1.731-12.385-8.256-22.547-17.532-30.305-27.51zm120.004 59.018c-3.666-9.225-6.769-19.258-9.318-29.85 10.231.911 20.711 1.483 31.352 1.705v29.912c-7.449-.281-14.804-.873-22.034-1.767zm42.034 233.961h-20v-20h20zm0-40h-20v-20h20zm0-40h-20v-20h20z" fill="#d1a19e"/></g></svg>