<svg id="Layer_1" enable-background="new 0 0 512 512" height="512" viewBox="0 0 512 512" width="512" xmlns="http://www.w3.org/2000/svg"><g><path d="m175.5 186v-100h-40v100" fill="#ffbecb"/><path d="m175.501 126v-40h-40v40" fill="#fff"/><path d="m9.5 346h492v80h-492z" fill="#ccf5fc"/><g><path d="m455.5 396h-60c-5.523 0-10-4.478-10-10s4.477-10 10-10h60c5.523 0 10 4.478 10 10s-4.477 10-10 10z" fill="#99ebfa"/></g><path d="m55.5 386h280l120-120h-158l-42 40h-200z" fill="#fff"/><path d="m115.5 226v-40h160l40 40" fill="#99ebfa"/><path d="m297.5 266h78l-40-40h-240v80h160z" fill="#99ebfa"/><g fill="#80b6ff"><path d="m502 416h-492c-5.523 0-10 4.478-10 10s4.477 10 10 10h492c5.523 0 10-4.478 10-10s-4.477-10-10-10z"/><path d="m10 356h35.5v30c0 5.522 4.477 10 10 10h280c2.652 0 5.196-1.054 7.071-2.929l37.072-37.071h122.357c5.523 0 10-4.478 10-10s-4.477-10-10-10h-102.357l62.929-62.929c2.86-2.86 3.715-7.161 2.168-10.898-1.548-3.736-5.194-6.173-9.239-6.173h-75.857l-37.071-37.071c-1.875-1.875-4.419-2.929-7.071-2.929h-15.857l-37.071-37.071c-1.875-1.875-4.419-2.929-7.071-2.929h-90v-90c0-5.522-4.477-10-10-10h-40c-5.523 0-10 4.478-10 10v90h-10c-5.523 0-10 4.477-10 10v30h-10c-5.523 0-10 4.477-10 10v70h-30c-5.523 0-10 4.478-10 10v30h-35.503c-5.523 0-10 4.478-10 10s4.477 10 10 10zm155.5-260v20h-20v-20zm-20 40h20v40h-20zm-20 60h145.858l20 20h-165.858zm205.858 40 20 20h-53.845c-.009 0-.019 0-.028 0h-191.985v-20zm-225.858 40h167l-21 20h-146zm-40 40h190c2.568 0 5.037-.987 6.896-2.759l39.104-37.241h129.858l-100 100h-265.858z"/></g><g fill="#ccf5fc"><circle cx="125.5" cy="346" r="10"/><circle cx="165.5" cy="346" r="10"/><circle cx="205.5" cy="346" r="10"/></g></g></svg>