<svg id="Layer_1" enable-background="new 0 0 512 512" height="512" viewBox="0 0 512 512" width="512" xmlns="http://www.w3.org/2000/svg"><g><path d="m10 176h492v260h-492z" fill="#e6e6f9"/><path d="m322 436v-140h-132v140" fill="#fff"/><path d="m322.001 396v-60h-132v60" fill="#cecdf3"/><path d="m76 76h360v40h-360z" fill="#cecdf3"/><path d="m176 76h160v40h-160z" fill="#e6e6f9"/><path d="m10 176h492v80h-492z" fill="#cecdf3"/><path d="m196 216h120v40h-120z" fill="#b5b3ee"/><g fill="#e6e6f9"><circle cx="236" cy="366" r="10"/><circle cx="276" cy="366" r="10"/><g><circle cx="60" cy="216" r="10"/><circle cx="140" cy="216" r="10"/><circle cx="100" cy="216" r="10"/></g></g><g><path d="m462 226h-106c-5.523 0-10-4.477-10-10s4.477-10 10-10h106c5.523 0 10 4.477 10 10s-4.477 10-10 10z" fill="#e6e6f9"/></g><g><circle cx="100" cy="346" fill="#cecdf3" r="50"/><circle cx="100" cy="346" fill="#e6e6f9" r="20"/></g><g><circle cx="412" cy="346" fill="#cecdf3" r="50"/><circle cx="412" cy="346" fill="#e6e6f9" r="20"/></g><g fill="#c193dc"><path d="m502 166h-56v-90c0-5.522-4.477-10-10-10h-360c-5.523 0-10 4.478-10 10v90h-56c-5.523 0-10 4.477-10 10v260c0 5.522 4.477 10 10 10h492c5.523 0 10-4.478 10-10v-260c0-5.523-4.477-10-10-10zm-76-60h-80v-20h80zm-120 0v-20h20v20zm-40 0v-20h20v20zm-40 0v-20h20v20zm-40 0v-20h20v20zm-20-20v20h-80v-20zm-80 40h340v40h-340zm406 60v60h-166v-30c0-5.523-4.477-10-10-10h-120c-5.523 0-10 4.477-10 10v30h-166v-60zm-286 60v-20h100v20zm-6 100h112v40h-112zm68 60v20h-24v-20zm20 0h24v20h-24zm24-80h-112v-20h112zm-112 80h24v20h-24zm132 20v-130c0-5.522-4.477-10-10-10h-132c-5.523 0-10 4.478-10 10v130h-160v-160h472v160z"/><path d="m100 286c-33.084 0-60 26.916-60 60s26.916 60 60 60 60-26.916 60-60-26.916-60-60-60zm0 100c-22.056 0-40-17.944-40-40s17.944-40 40-40 40 17.944 40 40-17.944 40-40 40z"/><path d="m412 286c-33.084 0-60 26.916-60 60s26.916 60 60 60 60-26.916 60-60-26.916-60-60-60zm0 100c-22.056 0-40-17.944-40-40s17.944-40 40-40 40 17.944 40 40-17.944 40-40 40z"/></g></g></svg>