<svg id="Layer_1" enable-background="new 0 0 512 512" height="512" viewBox="0 0 512 512" width="512" xmlns="http://www.w3.org/2000/svg"><g><path d="m10 146h492v280h-492z" fill="#99ebfa"/><path d="m50 186h412v200h-412z" fill="#ccf5fc"/><path d="m502 136h-276v-50c0-5.522-4.477-10-10-10s-10 4.478-10 10v10h-40v-10c0-5.522-4.477-10-10-10s-10 4.478-10 10v50h-136c-5.523 0-10 4.477-10 10v280c0 5.522 4.477 10 10 10h492c5.522 0 10-4.478 10-10v-280c0-5.523-4.478-10-10-10zm-336-20h40v20h-40zm-20 130c0 5.523 4.477 10 10 10s10-4.477 10-10v-10h40v10c0 5.523 4.477 10 10 10s10-4.477 10-10v-50h226v180h-392v-180h86zm60-30h-40v-20h40zm-40-40v-20h40v20zm326 240h-472v-260h126v20h-96c-5.523 0-10 4.477-10 10v200c0 5.522 4.477 10 10 10h412c5.522 0 10-4.478 10-10v-200c0-5.523-4.478-10-10-10h-236v-20h266z" fill="#80b6ff"/><g fill="#99ebfa"><path d="m210 276c-5.523 0-10 4.478-10 10 0 5.514-4.486 10-10 10s-10-4.486-10-10c0-5.522-4.477-10-10-10s-10 4.478-10 10c0 5.514-4.486 10-10 10s-10-4.486-10-10c0-5.522-4.477-10-10-10s-10 4.478-10 10c0 5.514-4.486 10-10 10s-10-4.486-10-10c0-5.522-4.477-10-10-10s-10 4.478-10 10c0 16.542 13.458 30 30 30 7.678 0 14.688-2.902 20-7.664 5.312 4.761 12.322 7.664 20 7.664s14.688-2.902 20-7.664c5.312 4.761 12.322 7.664 20 7.664 16.542 0 30-13.458 30-30 0-5.522-4.477-10-10-10z"/><path d="m422 316c-5.522 0-10 4.478-10 10 0 5.514-4.486 10-10 10s-10-4.486-10-10c0-5.522-4.478-10-10-10s-10 4.478-10 10c0 5.514-4.486 10-10 10s-10-4.486-10-10c0-5.522-4.478-10-10-10s-10 4.478-10 10c0 5.514-4.486 10-10 10s-10-4.486-10-10c0-5.522-4.478-10-10-10s-10 4.478-10 10c0 16.542 13.458 30 30 30 7.678 0 14.688-2.902 20-7.664 5.312 4.761 12.322 7.664 20 7.664s14.688-2.902 20-7.664c5.312 4.761 12.322 7.664 20 7.664 16.542 0 30-13.458 30-30 0-5.522-4.478-10-10-10z"/><path d="m336 256c7.678 0 14.688-2.902 20-7.664 5.312 4.761 12.322 7.664 20 7.664 16.542 0 30-13.458 30-30 0-5.523-4.478-10-10-10s-10 4.477-10 10c0 5.514-4.486 10-10 10s-10-4.486-10-10c0-5.523-4.478-10-10-10s-10 4.477-10 10c0 5.514-4.486 10-10 10s-10-4.486-10-10c0-5.523-4.478-10-10-10s-10 4.477-10 10c0 16.542 13.458 30 30 30z"/></g></g></svg>