<svg id="Layer_1" enable-background="new 0 0 512 512" height="512" viewBox="0 0 512 512" width="512" xmlns="http://www.w3.org/2000/svg"><g><path d="m10 386v-200c0-33.137 26.863-60 60-60h200c33.137 0 60 26.863 60 60v200z" fill="#fff"/><path d="m270 126h-80c33.137 0 60 26.863 60 60v200h80v-200c0-33.137-26.863-60-60-60z" fill="#fff2a0"/><path d="m150 126h-80c-33.137 0-60 26.863-60 60v200h80v-200c0-33.137 26.863-60 60-60z" fill="#fffbdf"/><path d="m150 126c-33.137 0-60 26.863-60 60v200h80v-260z" fill="#fff2a0"/><path d="m190 126h-20v260h80v-200c0-33.137-26.863-60-60-60z" fill="#fffbdf"/><path d="m50 286c-22.091 0-40 17.909-40 40v60h80v-60c0-22.091-17.909-40-40-40z" fill="#fff2a0"/><path d="m10 346h80v40h-80z" fill="#fffbdf"/><path d="m330 346h172c0 22.091-17.909 40-40 40h-132" fill="#fff2a0"/><path d="m502 336h-162v-150c0-38.598-31.402-70-70-70h-80-40-80c-38.598 0-70 31.402-70 70v200c0 5.522 4.477 10 10 10h452c27.57 0 50-22.43 50-50 0-5.522-4.478-10-10-10zm-422 40h-60v-20h60zm0-40h-60v-10c0-16.542 13.458-30 30-30s30 13.458 30 30zm0-49.973c-8.363-6.292-18.752-10.027-30-10.027s-21.638 3.735-30 10.027v-100.027c0-27.57 22.43-50 50-50h31.077c-12.992 12.716-21.077 30.428-21.077 50zm80 89.973h-60v-190c0-27.57 22.43-50 50-50h10zm80 0h-60v-240h10c27.57 0 50 22.43 50 50zm80 0h-60v-190c0-19.572-8.085-37.284-21.077-50h31.077c27.57 0 50 22.43 50 50zm142 0h-122v-20h150.286c-4.127 11.641-15.248 20-28.286 20z" fill="#ffcd69"/></g></svg>