<svg id="Layer_1" enable-background="new 0 0 512 512" height="512" viewBox="0 0 512 512" width="512" xmlns="http://www.w3.org/2000/svg"><g><path d="m86 232h340v200h-340z" fill="#fff" transform="matrix(0 1 -1 0 588 76)"/><path d="m236 382h40v200h-40z" fill="#def6f0" transform="matrix(0 1 -1 0 738 226)"/><path d="m156 82h200v40h-200z" fill="#fff"/><path d="m116 122h280v40h-280z" fill="#fff"/><path d="m136 222h240v160h-240z" fill="#def6f0"/><circle cx="256" cy="302" fill="#fff" r="50"/><path d="m396 112h-30v-30c0-5.523-4.478-10-10-10h-43.005l28.889-52h54.116c5.522 0 10-4.477 10-10s-4.478-10-10-10h-60c-3.632 0-6.978 1.969-8.741 5.144l-37.143 66.856h-134.116c-5.523 0-10 4.477-10 10v30h-30c-5.522 0-10 4.477-10 10v40c0 5.523 4.478 10 10 10h30v40h-10c-5.523 0-10 4.477-10 10v160c0 5.523 4.477 10 10 10h10v110c0 5.523 4.477 10 10 10h200c5.522 0 10-4.477 10-10v-110h10c5.522 0 10-4.477 10-10v-160c0-5.523-4.478-10-10-10h-10v-40h30c5.522 0 10-4.477 10-10v-40c0-5.523-4.478-10-10-10zm-230-20h129.96c.01 0 .021.002.031.002s.02-.002.03-.002h49.979v20h-180zm0 400v-20h180v20zm180-40h-180v-60h180zm20-80h-220v-140h220zm-20-160h-180v-40h180zm40-60h-260v-20h260z" fill="#42d0b4"/><g><path d="m296 432h-80c-5.523 0-10-4.477-10-10s4.477-10 10-10h80c5.522 0 10 4.477 10 10s-4.478 10-10 10z" fill="#def6f0"/></g></g></svg>