<svg id="Layer_1" enable-background="new 0 0 512.003 512.003" height="512" viewBox="0 0 512.003 512.003" width="512" xmlns="http://www.w3.org/2000/svg"><g><path d="m376.001 170.498-119.626 159.502-120.374-160.498 119.627-159.502z" fill="#fff2a0"/><path d="m375.092 169.29c-66.26-52.56-172.87-52.38-238.85.52l-.24-.31 119.629-159.5z" fill="#fffbdf"/><g fill="#fff"><path d="m416.001 270-20-20-20 20v-100h20c11.046 0 20 8.954 20 20z"/><path d="m96.001 270 20-20 20 20v-100h-20c-11.046 0-20 8.954-20 20z"/><path d="m264.788 368.787h42.426v42.426h-42.426z" transform="matrix(.707 -.707 .707 .707 -192.004 316.462)"/><path d="m204.788 368.787h42.426v42.426h-42.426z" transform="matrix(.707 -.707 .707 .707 -209.577 274.036)"/></g><path d="m396.001 160h-15.374l-115.404-153.873c-1.514-3.599-5.073-6.127-9.222-6.127-.068 0-.133.009-.201.01-.058-.001-.114-.01-.173-.01-3.148 0-6.111 1.481-8 4l-117 156h-14.626c-16.542 0-30 13.458-30 30v80c0 4.045 2.437 7.691 6.173 9.239 3.737 1.546 8.038.692 10.898-2.168l12.929-12.929 12.929 12.929c1.913 1.913 4.471 2.929 7.073 2.929 1.288 0 2.588-.249 3.825-.761 3.736-1.548 6.173-5.194 6.173-9.239v-70.498l44.796 59.728-101.992 238.843c-2.169 5.079.189 10.954 5.27 13.123 1.28.547 2.612.807 3.922.807 3.885 0 7.579-2.277 9.201-6.076l97.457-228.221 41.347 55.129v33.023l-12.929-12.929c-3.906-3.904-10.236-3.904-14.143 0l-30 30c-3.905 3.905-3.905 10.237 0 14.143l30 30c1.953 1.952 4.512 2.929 7.071 2.929s5.118-.977 7.071-2.929l12.929-12.929v35.857c0 5.522 4.477 10 10 10 5.522 0 10-4.478 10-10v-35.857l12.929 12.929c1.953 1.952 4.512 2.929 7.071 2.929 2.56 0 5.118-.977 7.071-2.929l30-30c3.905-3.905 3.905-10.237 0-14.143l-30-30c-3.906-3.904-10.236-3.904-14.143 0l-12.929 12.929v-32.025l100-133.334v69.501c0 4.045 2.436 7.691 6.173 9.239 3.738 1.546 8.038.692 10.898-2.168l12.929-12.929 12.929 12.929c1.913 1.913 4.471 2.929 7.073 2.929 1.288 0 2.588-.249 3.825-.761 3.736-1.548 6.173-5.194 6.173-9.239v-80c.001-16.542-13.457-30-29.999-30zm-150-39.77c-25.626 1.139-50.271 6.65-72.606 16.08l72.606-96.809zm20 .002v-79.733l71.527 95.369c-22.054-9.161-46.321-14.514-71.527-15.636zm-140 125.625-2.929-2.929c-1.953-1.952-4.512-2.929-7.071-2.929s-5.118.977-7.071 2.929l-2.929 2.929v-55.857c0-5.514 4.486-10 10-10h10zm24.235-74.043c26.264-18.458 58.37-28.878 91.234-31.246l-41.602 97.421zm63.489 84.651 32.277-75.585v118.621zm12.276 149.392-15.857-15.857 15.857-15.857 15.858 15.857zm60-31.714 15.858 15.857-15.857 15.857-15.858-15.857zm-20-233.851c34.625 1.713 68.68 12.333 96.249 31.873l-96.249 128.333zm140 105.565-2.929-2.929c-1.953-1.952-4.512-2.929-7.071-2.929-2.56 0-5.118.977-7.071 2.929l-2.929 2.929v-65.857h10c5.514 0 10 4.486 10 10z" fill="#ffcd69"/></g></svg>