<svg id="Layer_1" enable-background="new 0 0 512 512" height="512" viewBox="0 0 512 512" width="512" xmlns="http://www.w3.org/2000/svg"><g><path d="m276 370v112c0 11.046-8.954 20-20 20-11.046 0-20-8.954-20-20v-112" fill="#f4e8e0"/><path d="m336 370h-160c-11.046 0-20-8.954-20-20v-320c0-11.046 8.954-20 20-20h160c11.046 0 20 8.954 20 20v320c0 11.046-8.954 20-20 20z" fill="#ccf5fc"/><path d="m216 330c-11.046 0-20-8.954-20-20v-240c0-11.046 8.954-20 20-20 11.046 0 20 8.954 20 20v240c0 11.046-8.954 20-20 20z" fill="#99ebfa"/><path d="m296 330c-11.046 0-20-8.954-20-20v-240c0-11.046 8.954-20 20-20 11.046 0 20 8.954 20 20v240c0 11.046-8.954 20-20 20z" fill="#99ebfa"/><path d="m336 0h-160c-16.542 0-30 13.458-30 30v320c0 16.542 13.458 30 30 30h50v102c0 16.542 13.458 30 30 30s30-13.458 30-30v-102h50c16.542 0 30-13.458 30-30v-320c0-16.542-13.458-30-30-30zm-70 482c0 5.514-4.486 10-10 10s-10-4.486-10-10v-102h20zm80-132c0 5.514-4.486 10-10 10h-160c-5.514 0-10-4.486-10-10v-320c0-5.514 4.486-10 10-10h160c5.514 0 10 4.486 10 10z" fill="#80b6ff"/><g fill="#fff"><circle cx="277" cy="40" r="5"/><circle cx="256" cy="60" r="10"/><circle cx="186" cy="340" r="10"/></g></g></svg>