<svg id="Layer_1" enable-background="new 0 0 512 512" height="512" viewBox="0 0 512 512" width="512" xmlns="http://www.w3.org/2000/svg"><g><path d="m336.01 350c-11.046 0-20-8.954-20-20 0-11.046 8.954-20 20-20h57.476c6.234-17.721 10.319-37.735 11.844-60h-59.32c-16.569 0-30-13.431-30-30 0-16.569 13.431-30 30-30h54.616c-5.587-21.163-15.128-41.333-26.748-60h-57.868c-11.046 0-20-8.954-20-20 0-11.046 8.954-20 20-20h28.403c-41.388-48.65-88.403-80-88.403-80s-47.015 31.35-88.403 80h28.403c11.046 0 20 8.954 20 20 0 11.046-8.954 20-20 20h-57.868c-11.62 18.667-21.16 38.837-26.748 60h54.616c16.568 0 30 13.431 30 30 0 16.569-13.432 30-30 30h-59.34c1.484 22.339 5.47 42.34 11.565 60h57.774c11.046 0 20 8.954 20 20 0 11.046-8.954 20-20 20h-37.894c27.467 39.999 70.065 60 117.894 60 47.489 0 89.817-20.383 117.301-60z" fill="#eaf5bc"/><path d="m412.638 243.175c-1.891-2.025-4.538-3.175-7.309-3.175h-59.32c-11.028 0-20-8.972-20-20s8.972-20 20-20h54.616c3.103 0 6.029-1.44 7.922-3.898s2.538-5.655 1.747-8.655c-5.436-20.589-14.832-41.695-27.927-62.732-1.826-2.933-5.036-4.715-8.49-4.715h-57.867c-5.514 0-10-4.486-10-10s4.486-10 10-10h28.402c3.898 0 7.442-2.266 9.077-5.805 1.636-3.539 1.065-7.706-1.461-10.675-41.813-49.15-88.504-80.529-90.471-81.84-3.359-2.24-7.736-2.24-11.096 0-1.967 1.311-48.659 32.69-90.471 81.84-2.526 2.969-3.096 7.136-1.461 10.675s5.179 5.805 9.077 5.805h28.402c5.514 0 10 4.486 10 10s-4.486 10-10 10h-57.868c-3.454 0-6.664 1.783-8.49 4.715-13.095 21.037-22.491 42.143-27.927 62.732-.791 2.999-.146 6.197 1.747 8.655s4.82 3.898 7.922 3.898h54.616c11.028 0 20 8.972 20 20s-8.972 20-20 20h-59.338c-2.767 0-5.411 1.147-7.302 3.167s-2.86 4.734-2.676 7.496c1.505 22.656 5.573 43.717 12.09 62.6 1.392 4.032 5.188 6.737 9.453 6.737h57.774c5.514 0 10 4.486 10 10s-4.486 10-10 10h-37.894c-3.712 0-7.12 2.057-8.849 5.342s-1.496 7.258.605 10.318c26.676 38.846 67.646 61.35 116.137 64.06v82.28c0 5.523 4.477 10 10 10s10-4.477 10-10v-82.288c47.86-2.74 88.608-25.222 115.517-64.012 2.121-3.058 2.369-7.04.643-10.337-1.725-3.297-5.139-5.363-8.86-5.363h-37.298c-5.514 0-10-4.486-10-10s4.486-10 10-10h57.476c4.244 0 8.025-2.678 9.433-6.681 6.673-18.967 10.841-40.04 12.388-62.636.189-2.764-.778-5.483-2.669-7.508zm-26.38 56.825h-50.248c-16.542 0-30 13.458-30 30s13.458 30 30 30h16.363c-22.359 23.657-52.229 37.426-86.363 39.668v-329.668c0-5.523-4.477-10-10-10s-10 4.477-10 10v329.676c-34.643-2.215-64.752-15.989-87.048-39.676h17.048c16.542 0 30-13.458 30-30s-13.458-30-30-30h-50.501c-3.75-12.398-6.406-25.793-7.935-40h48.436c22.056 0 40-17.944 40-40s-17.944-40-40-40h-41.111c4.56-13.156 10.875-26.549 18.865-40h52.247c16.542 0 30-13.458 30-30s-13.458-30-30-30h-5.956c27.353-28.812 54.577-49.555 65.959-57.778 11.376 8.211 38.571 28.924 65.956 57.778h-5.959c-16.542 0-30 13.458-30 30s13.458 30 30 30h52.247c7.99 13.451 14.305 26.844 18.865 40h-41.113c-22.056 0-40 17.944-40 40s17.944 40 40 40h48.388c-1.571 14.172-4.296 27.567-8.14 40z" fill="#42d0b4"/><g fill="#def6f0"><circle cx="306.01" cy="160" r="10"/><circle cx="206.01" cy="280" r="10"/><circle cx="286.01" cy="180" r="5"/></g></g></svg>