<svg id="Layer_1" enable-background="new 0 0 512 512" height="512" viewBox="0 0 512 512" width="512" xmlns="http://www.w3.org/2000/svg"><g><circle cx="190" cy="266" fill="#7dd9c2" r="180"/><path d="m300 266c0-99.411-49.249-180-110-180 22.091 0 40 80.589 40 180s-17.909 180-40 180c60.751 0 110-80.589 110-180z" fill="#eaf5bc"/><path d="m150 266c0-99.411 17.909-180 40-180-60.751 0-110 80.589-110 180s49.249 180 110 180c-22.091 0-40-80.589-40-180z" fill="#eaf5bc"/><g><path d="m502 286c0 99.411-80.589 180-180 180s-180-80.589-180-180z" fill="#eaf5bc"/><path d="m462 286c0 77.32-62.68 140-140 140s-140-62.68-140-140" fill="#ff9eb1"/><g fill="#ffbecb"><ellipse cx="322" cy="386" rx="5" ry="15"/><ellipse cx="372" cy="372.603" rx="5" ry="15" transform="matrix(.866 -.5 .5 .866 -136.463 235.921)"/><path d="m411.103 331.67c7.174 4.142 11.871 9.439 10.49 11.83s-8.316.972-15.49-3.17-11.871-9.439-10.49-11.83c1.38-2.392 8.315-.972 15.49 3.17z"/><ellipse cx="235.397" cy="336" rx="15" ry="5" transform="matrix(.866 -.5 .5 .866 -136.463 162.716)"/><path d="m276.33 375.103c-4.142 7.174-9.439 11.871-11.83 10.49s-.972-8.316 3.17-15.49 9.439-11.871 11.83-10.49c2.392 1.38.972 8.315-3.17 15.49z"/></g></g><path d="m502 276h-122.267c.173-3.333.267-6.673.267-10 0-104.766-85.233-190-190-190-5.514 0-10-4.486-10-10s4.486-10 10-10c5.523 0 10-4.477 10-10s-4.477-10-10-10c-16.542 0-30 13.458-30 30 0 4.264.9 8.32 2.51 11.996-91.785 13.36-162.51 92.573-162.51 188.004 0 104.766 85.234 190 190 190 13.294 0 26.564-1.389 39.46-4.113 27.401 15.347 58.964 24.113 92.54 24.113 104.767 0 190-85.234 190-190 0-5.523-4.478-10-10-10zm-212.18 0h-49.885c.04-3.333.064-6.673.064-10 0-48.788-4.245-94.76-11.954-129.449-3.01-13.547-6.398-24.766-10.184-33.725 15.305 7.663 29.48 21.624 41.387 41.109 19.831 32.45 30.752 75.8 30.752 122.065 0 3.329-.065 6.672-.18 10zm-127.682-173.174c-3.786 8.959-7.174 20.178-10.184 33.725-7.709 34.689-11.954 80.661-11.954 129.449 0 3.39.026 6.794.068 10.19-4.598.901-8.068 4.948-8.068 9.81 0 24.703 4.743 48.319 13.36 69.989 0 .425.017.853.073 1.286 3.552 27.63 8.714 50.947 14.927 67.429.44 1.168 1.019 2.699 1.741 4.452-15.29-7.667-29.452-21.621-41.349-41.09-19.831-32.451-30.752-75.801-30.752-122.066s10.921-89.615 30.751-122.065c11.908-19.485 26.082-33.445 41.387-41.109zm27.842 333.123c-2.21-.932-8.288-8.085-14.497-29.113 6.327 7.659 13.251 14.805 20.683 21.389-3.266 5.917-5.586 7.419-6.186 7.724zm-29.913-159.949c-.041-3.333-.067-6.673-.067-10 0-45.425 3.792-88.542 10.679-121.409 7.67-36.606 16.539-47.426 19.321-48.549 2.782 1.123 11.651 11.943 19.321 48.549 6.887 32.867 10.679 75.984 10.679 121.409 0 3.327-.026 6.667-.067 10zm208.747 20h.033 82.773c-5.124 67.028-61.302 120-129.62 120s-124.496-52.972-129.619-120zm-8.814-30c0 3.328-.104 6.669-.297 10h-49.87c.108-3.33.166-6.672.166-10 0-49.894-11.963-96.948-33.685-132.494-5.112-8.365-10.633-15.873-16.493-22.499 59.015 26.69 100.179 86.125 100.179 154.993zm-340 0c0-68.868 41.164-128.303 100.179-154.993-5.86 6.626-11.382 14.134-16.493 22.499-21.723 35.546-33.686 82.6-33.686 132.494s11.963 96.948 33.686 132.494c5.112 8.365 10.633 15.873 16.493 22.499-59.015-26.691-100.179-86.125-100.179-154.993zm302 190c-90.38 0-164.513-70.9-169.71-160h20.051c5.165 78.065 70.309 140 149.659 140 79.349 0 144.494-61.935 149.659-140h20.05c-5.195 89.1-79.329 160-169.709 160z" fill="#42d0b4"/></g></svg>