<svg id="Layer_1" enable-background="new 0 0 512 512" height="512" viewBox="0 0 512 512" width="512" xmlns="http://www.w3.org/2000/svg"><g><circle cx="256" cy="256" fill="#ffbecb" r="200"/><ellipse cx="256" cy="256" fill="#fff" rx="200" ry="100" transform="matrix(.707 -.707 .707 .707 -106.039 256)"/><ellipse cx="376.208" cy="135.792" fill="#fff" rx="30" ry="70" transform="matrix(.707 -.707 .707 .707 14.17 305.792)"/><path d="m502 446h-156.62c71.219-33.638 120.62-106.153 120.62-190 0-52.851-19.633-101.198-51.978-138.15-2.982-3.515-6.163-6.977-9.529-10.343-3.368-3.368-6.833-6.551-10.351-9.536-36.95-32.341-85.295-51.971-138.142-51.971-115.794 0-210 94.206-210 210 0 56.453 22.398 107.769 58.767 145.545.883 1.007 1.788 1.996 2.74 2.948.961.96 1.958 1.875 2.975 2.766 16.392 15.776 35.334 28.915 56.138 38.741h-156.62c-5.523 0-10 4.477-10 10s4.477 10 10 10h492c5.522 0 10-4.477 10-10s-4.478-10-10-10zm-378.118-53.594c-1.452-1.407-2.881-2.836-4.288-4.288-14.171-16.43-15.663-44.287-4.107-78.956 12.874-38.622 40.175-80.104 76.873-116.802 38.593-38.592 82.79-66.902 122.498-78.67.576 1.856 1.255 3.79 2.065 5.815 5.833 14.584 16.843 30.413 31 44.57s29.986 25.167 44.57 31.001c2.024.81 3.959 1.492 5.814 2.067-11.768 39.707-40.078 83.904-78.669 122.496-36.698 36.699-78.18 64-116.802 76.874-34.667 11.556-62.523 10.064-78.954-4.107zm293.042-232.9c4.009 10.023 3.697 16.726 1.711 18.712-1.986 1.987-8.689 2.297-18.713-1.711-11.95-4.78-25.748-14.466-37.855-26.573s-21.793-25.905-26.573-37.855c-4.01-10.023-3.697-16.726-1.711-18.712.874-.874 2.661-1.424 5.243-1.424 3.285 0 7.857.891 13.469 3.135 9.218 3.687 19.533 10.301 29.326 18.685 5.799 5.136 11.282 10.619 16.418 16.418 8.384 9.792 14.998 20.107 18.685 29.325zm-160.924-93.506c22.984 0 45.026 4.104 65.436 11.615-.675.544-1.275 1.087-1.796 1.609-2.638 2.638-5.827 7.182-6.911 14.28-43.792 12.09-92.519 42.724-134.511 84.715-38.851 38.852-67.867 83.109-81.704 124.62-4.977 14.929-7.801 28.958-8.512 41.829-14.036-26.488-22.002-56.663-22.002-88.668 0-104.767 85.233-190 190-190zm-88.67 357.996c12.872-.71 26.902-3.533 41.832-8.51 41.511-13.837 85.769-42.853 124.62-81.705 41.991-41.991 72.625-90.717 84.715-134.509 7.099-1.083 11.642-4.274 14.28-6.912.521-.521 1.064-1.122 1.608-1.796 7.511 20.41 11.615 42.452 11.615 65.436 0 104.767-85.233 190-190 190-32.007 0-62.183-7.967-88.67-22.004z" fill="#ff5d7d"/></g></svg>