<svg id="Layer_1" enable-background="new 0 0 512 512" height="512" viewBox="0 0 512 512" width="512" xmlns="http://www.w3.org/2000/svg"><g><g><g clip-rule="evenodd" fill-rule="evenodd"><path d="m127.102 76.696c38.777-19.032 86.012-26.696 128.898-26.696s90.121 7.664 128.898 26.696c23.802 11.682 56.325 41.096 54.285 70.374-.861 12.351-9.032 21.42-18.673 28.39l-16.566 11.975v20.441 294.124h15.4c13.53 0 24.6-11.07 24.6-24.6 0-89.841 0-179.683 0-269.524 69.077-49.935 26.901-133.556-41.422-167.089-39.038-19.159-90.336-30.787-146.522-30.787s-107.484 11.628-146.522 30.787c-68.324 33.533-110.499 117.154-41.422 167.089v269.524c0 13.53 11.07 24.6 24.6 24.6h15.4c0-84.708 0-209.416 0-294.124v-20.441l-16.566-11.976c-9.641-6.969-17.812-16.039-18.673-28.39-2.04-29.278 30.483-58.692 54.285-70.373z" fill="#f3c9a6"/><path d="m256 50c-42.886 0-90.121 7.664-128.898 26.696-23.802 11.681-56.325 41.095-54.285 70.374.861 12.351 9.032 21.42 18.673 28.39l16.566 11.975v20.441 294.124h147.944 147.944c0-84.708 0-209.416 0-294.124v-20.441l16.566-11.975c9.641-6.969 17.812-16.039 18.673-28.39 2.04-29.278-30.483-58.692-54.285-70.374-38.777-19.032-86.012-26.696-128.898-26.696z" fill="#fff"/><ellipse cx="320.602" cy="175.076" fill="#ffe9da" rx="20" ry="20" transform="matrix(.974 -.228 .228 .974 -31.453 77.637)"/><ellipse cx="222.802" cy="248.876" fill="#ffe9da" rx="20" ry="20" transform="matrix(.378 -.926 .926 .378 -91.835 361.053)"/><ellipse cx="267.202" cy="370.676" fill="#ffe9da" rx="20" ry="20" transform="matrix(.387 -.922 .922 .387 -178.042 473.416)"/></g><g><path d="m178.402 349.477c-5.523 0-10.004-4.477-10.004-10s4.474-10 9.997-10h.007c5.523 0 10 4.477 10 10s-4.477 10-10 10z" fill="#ffe9da"/></g><g><path d="m333.202 290.677c-5.523 0-10.004-4.477-10.004-10s4.474-10 9.997-10h.007c5.523 0 10 4.477 10 10s-4.477 10-10 10z" fill="#ffe9da"/></g><g><path d="m185.602 157.477c-5.523 0-10.003-4.477-10.003-10s4.474-10 9.997-10h.007c5.523 0 10 4.477 10 10s-4.478 10-10.001 10z" fill="#ffe9da"/></g><g><path d="m217.81 450.876c-5.523 0-10.004-4.477-10.004-10s4.473-10 9.996-10h.008c5.523 0 10 4.477 10 10s-4.477 10-10 10z" fill="#ffe9da"/></g><g><path d="m330.81 431.876c-5.523 0-10.004-4.477-10.004-10s4.473-10 9.996-10h.008c5.523 0 10 4.477 10 10s-4.477 10-10 10z" fill="#ffe9da"/></g></g><g><g><path d="m419.345 512h-326.69c-19.078 0-34.6-15.521-34.6-34.6v-264.543c-31.955-25.152-36.769-54.702-35.005-75.439 3.47-40.792 36.431-83.232 82.022-105.608 41.797-20.513 95.397-31.81 150.928-31.81s109.131 11.297 150.928 31.81c45.591 22.375 78.553 64.816 82.021 105.608 1.764 20.737-3.05 50.287-35.005 75.439v264.543c0 19.079-15.521 34.6-34.599 34.6zm-163.345-492c-52.537 0-103.008 10.57-142.116 29.764-39.515 19.394-68.009 55.3-70.905 89.349-2.007 23.602 8.69 44.578 30.935 60.659 2.601 1.88 4.142 4.895 4.142 8.104v269.524c0 8.05 6.549 14.6 14.6 14.6h326.689c8.05 0 14.6-6.55 14.6-14.6v-269.524c0-3.209 1.541-6.224 4.142-8.104 22.245-16.081 32.942-37.057 30.935-60.659-2.896-34.048-31.39-69.955-70.905-89.349-39.109-19.194-89.58-29.764-142.117-29.764z" fill="#c68a86"/></g></g></g></svg>