<svg id="Layer_1" enable-background="new 0 0 512.002 512.002" height="512" viewBox="0 0 512.002 512.002" width="512" xmlns="http://www.w3.org/2000/svg"><g><g><g clip-rule="evenodd" fill-rule="evenodd"><path d="m84.934 108.766c-5.058 8.76-5.08 19.046-.967 27.507l344.068.001c4.114-8.461 4.091-18.747-.967-27.507s-13.954-13.924-23.338-14.59c1.784-9.237-.9-19.167-8.054-26.32-7.153-7.153-17.082-9.837-26.319-8.053-.667-9.384-5.83-18.281-14.591-23.339-8.76-5.058-19.046-5.081-27.506-.966-3.074-8.892-10.363-16.149-20.134-18.767s-19.712.022-26.819 6.185c-5.271-7.794-14.19-12.917-24.306-12.917s-19.034 5.123-24.304 12.916c-7.107-6.164-17.049-8.803-26.82-6.185s-17.06 9.874-20.133 18.766c-8.46-4.114-18.746-4.091-27.507.967-8.76 5.058-13.923 13.954-14.59 23.338-9.237-1.784-19.167.9-26.32 8.053s-9.837 17.082-8.053 26.319c-9.386.668-18.282 5.831-23.34 14.592z" fill="#fffbe1"/><path d="m428.035 136.273h-344.068-2.966c-13.75 0-25 11.25-25 25s11.25 25 25 25h66.739 68.5 79.522 68.5 66.739c13.75 0 25-11.25 25-25s-11.25-25-25-25z" fill="#ffe0e6"/><path d="m176.983 502.002-29.243-315.729h-66.739l40.001 295.73c1.474 10.901 9.002 20 20 20h35.981z" fill="#ffbecb"/><path d="m147.74 186.273 29.243 315.729h53.088l-13.831-315.729z" fill="#fff"/><path d="m216.24 186.273 13.831 315.729h51.86l13.831-315.729z" fill="#ffbecb"/><path d="m295.762 186.273-13.831 315.729h53.088l29.243-315.729z" fill="#fff"/><path d="m364.262 186.273-29.243 315.729h35.981c10.998 0 18.526-9.101 20-20l40.001-295.73h-66.739z" fill="#ffbecb"/></g><g><path d="m217.76 108.737c-5.523 0-10.004-4.477-10.004-10s4.474-10 9.997-10h.007c5.523 0 10 4.477 10 10s-4.477 10-10 10z" fill="#ffe6b4"/></g><g><path d="m292.761 81.737c-5.523 0-10.004-4.477-10.004-10s4.474-10 9.997-10h.007c5.523 0 10 4.477 10 10s-4.477 10-10 10z" fill="#ffe6b4"/></g></g><path d="m466.001 161.272c0-15.919-10.686-29.38-25.259-33.61.882-8.204-.802-16.601-5.014-23.896-4.854-8.407-12.551-14.604-21.536-17.618-.586-9.46-4.58-18.5-11.444-25.364s-15.902-10.857-25.363-11.443c-3.015-8.986-9.212-16.684-17.618-21.537s-18.168-6.372-27.46-4.489c-5.238-7.899-13.216-13.731-22.592-16.243-9.378-2.512-19.201-1.452-27.687 2.771-7.104-6.275-16.32-9.843-26.028-9.843-9.707 0-18.922 3.568-26.025 9.843-8.485-4.222-18.311-5.284-27.687-2.771-9.376 2.512-17.354 8.343-22.592 16.243-9.288-1.882-19.054-.365-27.461 4.489-8.406 4.854-14.603 12.551-17.617 21.537-9.46.586-18.5 4.58-25.364 11.443s-10.857 15.904-11.443 25.363c-8.986 3.015-16.684 9.212-21.538 17.619-4.216 7.302-5.896 15.695-5.013 23.896-14.573 4.231-25.259 17.692-25.259 33.611 0 16.226 11.101 29.906 26.106 33.851l38.985 288.218c2.282 16.875 14.581 28.66 29.909 28.66h229.999c15.328 0 27.627-11.785 29.91-28.66l38.985-288.218c15.005-3.945 26.106-17.625 26.106-33.852zm-372.407-47.506c3.213-5.564 8.965-9.16 15.388-9.617 2.853-.203 5.483-1.618 7.224-3.887s2.427-5.176 1.885-7.984c-1.221-6.322.762-12.808 5.306-17.352 4.543-4.543 11.03-6.528 17.352-5.306 2.806.545 5.715-.143 7.984-1.885s3.684-4.372 3.887-7.225c.456-6.422 4.051-12.174 9.615-15.387 5.565-3.212 12.344-3.45 18.134-.634 2.572 1.25 5.558 1.341 8.2.246 2.643-1.095 4.69-3.269 5.625-5.972 2.104-6.085 7.064-10.711 13.271-12.374 6.209-1.663 12.816-.137 17.68 4.081 2.161 1.874 5.02 2.73 7.857 2.36 2.836-.374 5.376-1.943 6.979-4.313 3.606-5.332 9.595-8.517 16.019-8.517 6.425 0 12.415 3.185 16.022 8.519 1.602 2.369 4.143 3.939 6.978 4.313 2.839.373 5.696-.486 7.857-2.359 4.865-4.218 11.472-5.744 17.68-4.082 6.207 1.663 11.167 6.289 13.271 12.374.934 2.704 2.981 4.877 5.624 5.972s5.627 1.005 8.2-.246c5.79-2.815 12.568-2.579 18.133.634 5.564 3.213 9.16 8.965 9.617 15.388.203 2.853 1.618 5.483 3.887 7.224s5.177 2.429 7.984 1.885c6.321-1.221 12.808.762 17.351 5.306 4.544 4.543 6.527 11.03 5.307 17.352-.543 2.809.144 5.715 1.885 7.984 1.742 2.269 4.371 3.684 7.225 3.887 6.422.457 12.173 4.051 15.386 9.616 2.2 3.81 2.996 8.234 2.365 12.506h-329.543c-.632-4.272.163-8.693 2.365-12.507zm287.496 366.896c-.764 5.645-4.18 11.34-10.09 11.34h-229.998c-5.911 0-9.326-5.695-10.09-11.34l-38.467-284.39h327.113zm49.911-304.39h-350c-8.271 0-15-6.729-15-15s6.729-15 15-15h350c8.271 0 15 6.729 15 15s-6.729 15-15 15z" fill="#c1b0b5"/></g></svg>