<svg id="Layer_1" enable-background="new 0 0 512 512" height="512" viewBox="0 0 512 512" width="512" xmlns="http://www.w3.org/2000/svg"><g><g><g clip-rule="evenodd" fill-rule="evenodd"><path d="m170 36c-88 0-160 72-160 160 0 11 9 20 20 20h21 410 21c11 0 20-9 20-20 0-88-72-160-160-160z" fill="#fffbe1"/><path d="m256 346c-16.51 0-17.657-10-34.167-10s-17.657 10-34.167 10c-16.509 0-17.657-10-34.167-10s-17.657 10-34.167 10c-16.509 0-17.657-10-34.167-10s-17.657 10-34.166 10c-13.75 0-25 11.25-25 25s11.25 25 25 25h410c13.75 0 25-11.25 25-25s-11.25-25-25-25c-16.51 0-17.657-10-34.167-10s-17.657 10-34.167 10-17.657-10-34.167-10-17.657 10-34.167 10c-16.509 0-17.657-10-34.167-10s-17.654 10-34.164 10z" fill="#ffee80"/><path d="m461 395.999h-410-21c-11 0-20 9-20 20v20.001c0 22 18 40 40 40h412c22 0 40-18 40-40v-20.001c0-11-9-20-20-20z" fill="#fffbe1"/></g><g><path d="m158.957 97.785c-5.523 0-10.004-4.477-10.004-10s4.474-10 9.997-10h.007c5.523 0 10 4.477 10 10s-4.478 10-10 10z" fill="#ffe6b4"/></g><g><path d="m230.957 155.385c-5.523 0-10.004-4.477-10.004-10s4.474-10 9.997-10h.007c5.523 0 10 4.477 10 10s-4.478 10-10 10z" fill="#ffe6b4"/></g><g><path d="m304.157 104.985c-5.522 0-10.004-4.477-10.004-10s4.474-10 9.996-10h.008c5.522 0 10 4.477 10 10s-4.478 10-10 10z" fill="#ffe6b4"/></g><g><path d="m398.964 120.585c-5.522 0-10.004-4.477-10.004-10s4.474-10 9.996-10h.008c5.522 0 10 4.477 10 10s-4.477 10-10 10z" fill="#ffe6b4"/></g><g><path d="m113.357 150.585c-5.523 0-10.004-4.477-10.004-10s4.473-10 9.996-10h.008c5.523 0 10 4.477 10 10s-4.477 10-10 10z" fill="#ffe6b4"/></g><g><path d="m355.165 163.784c-5.522 0-10.004-4.477-10.004-10s4.474-10 9.996-10h.008c5.522 0 10 4.477 10 10s-4.478 10-10 10z" fill="#ffe6b4"/></g><path clip-rule="evenodd" d="m461 346c22.092 0 40-17.909 40-40s-17.909-40-40-40c-16.51 0-17.657 10-34.167 10s-17.657-10-34.167-10-17.657 10-34.167 10-17.657-10-34.167-10c-16.509 0-17.657 10-34.167 10s-17.657-10-34.167-10-17.657 10-34.167 10-17.657-10-34.167-10c-16.509 0-17.657 10-34.167 10s-17.657-10-34.167-10c-16.509 0-17.657 10-34.167 10s-17.657-10-34.166-10c-22.091 0-40 17.909-40 40s17.909 40 40 40c16.509 0 17.657-10 34.166-10 16.51 0 17.658 10 34.167 10 16.51 0 17.657-10 34.167-10s17.657 10 34.167 10 17.657-10 34.167-10 17.659 10 34.169 10 17.657-10 34.167-10 17.657 10 34.167 10 17.657-10 34.167-10c16.509 0 17.657 10 34.167 10s17.657-10 34.167-10c16.508 0 17.655 10 34.165 10z" fill="#ddb9a3" fill-rule="evenodd"/><path clip-rule="evenodd" d="m256 265.999c-16.51 0-17.657 10-34.167 10s-17.657-10-34.167-10c-16.509 0-17.657 10-34.167 10s-17.657-10-34.167-10c-16.509 0-17.657 10-34.167 10s-17.657-10-34.166-10c-13.75 0-25-11.25-25-25s11.25-25 25-25h410c13.75 0 25 11.25 25 25s-11.25 25-25 25c-16.51 0-17.657 10-34.167 10s-17.657-10-34.167-10-17.657 10-34.167 10-17.657-10-34.167-10c-16.509 0-17.657 10-34.167 10s-17.654-10-34.164-10z" fill="#e0ef9b" fill-rule="evenodd"/></g><path d="m491.782 387.646c2.689-4.954 4.218-10.625 4.218-16.646 0-8.656-3.166-16.583-8.391-22.699 14.04-8.864 23.391-24.507 23.391-42.302s-9.352-33.438-23.391-42.301c5.225-6.116 8.391-14.043 8.391-22.699 0-6.022-1.529-11.693-4.219-16.646 11.752-4.066 20.219-15.236 20.219-28.353 0-45.232-17.731-87.874-49.929-120.071s-74.839-49.929-120.071-49.929h-172c-45.232 0-87.875 17.731-120.072 49.929-32.196 32.197-49.928 74.839-49.928 120.071 0 13.117 8.466 24.288 20.219 28.354-2.69 4.953-4.219 10.624-4.219 16.645 0 8.656 3.166 16.583 8.391 22.699-14.04 8.863-23.391 24.506-23.391 42.301s9.352 33.438 23.392 42.301c-5.226 6.117-8.392 14.043-8.392 22.7 0 6.021 1.529 11.692 4.219 16.646-11.753 4.065-20.219 15.236-20.219 28.353v20c0 27.57 22.43 50 50 50h412c27.57.001 50-22.429 50-49.999v-20c0-13.118-8.466-24.288-20.218-28.354zm-321.782-341.646h172c82.71 0 150 67.29 150 150 0 5.514-4.485 10-9.999 10h-452.001c-5.514 0-10-4.486-10-10 0-82.711 67.29-150 150-150zm-134 194.999c0-8.271 6.729-15 15-15h410c8.271 0 15 6.729 15 15s-6.729 15-15 15c-10.89 0-17.057 3.492-22.012 6.298-3.936 2.229-6.535 3.702-12.155 3.702-5.619 0-8.22-1.473-12.155-3.701-4.954-2.806-11.121-6.299-22.012-6.299-10.89 0-17.057 3.493-22.012 6.299-3.935 2.229-6.534 3.701-12.154 3.701s-8.221-1.473-12.156-3.702c-4.954-2.806-11.121-6.298-22.011-6.298s-17.057 3.492-22.012 6.298c-3.936 2.229-6.535 3.702-12.155 3.702s-8.22-1.473-12.155-3.702c-4.955-2.806-11.121-6.298-22.011-6.298s-17.057 3.492-22.012 6.298c-3.936 2.229-6.536 3.702-12.155 3.702s-8.22-1.473-12.155-3.702c-4.955-2.806-11.122-6.298-22.012-6.298s-17.056 3.492-22.011 6.298c-3.936 2.229-6.536 3.702-12.156 3.702s-8.219-1.473-12.155-3.702c-4.955-2.806-11.122-6.298-22.012-6.298s-17.056 3.492-22.011 6.298c-3.936 2.229-6.536 3.702-12.156 3.702s-8.219-1.473-12.155-3.702c-4.955-2.806-11.122-6.298-22.011-6.298-8.27 0-14.999-6.729-14.999-15zm15 35c5.62 0 8.219 1.473 12.155 3.702 4.955 2.806 11.122 6.298 22.011 6.298 10.89 0 17.057-3.493 22.012-6.299 3.936-2.229 6.535-3.701 12.155-3.701s8.22 1.473 12.155 3.702c4.955 2.806 11.122 6.298 22.011 6.298 10.89 0 17.057-3.492 22.012-6.298 3.936-2.229 6.535-3.702 12.155-3.702s8.22 1.473 12.156 3.702c4.955 2.806 11.121 6.298 22.011 6.298s17.056-3.492 22.011-6.298c3.936-2.229 6.536-3.702 12.156-3.702s8.219 1.473 12.155 3.702c4.955 2.806 11.122 6.298 22.012 6.298s17.057-3.492 22.012-6.298c3.936-2.229 6.535-3.702 12.155-3.702s8.22 1.473 12.155 3.701c4.954 2.806 11.121 6.299 22.012 6.299 10.89 0 17.057-3.493 22.011-6.299 3.936-2.229 6.535-3.701 12.155-3.701s8.221 1.473 12.156 3.702c4.954 2.806 11.121 6.298 22.011 6.298s17.057-3.492 22.012-6.298c3.936-2.229 6.535-3.702 12.155-3.702 16.542 0 30 13.458 30 30s-13.458 30-30 30c-5.62 0-8.22-1.473-12.155-3.702-4.955-2.806-11.122-6.298-22.012-6.298s-17.057 3.492-22.011 6.298c-3.936 2.229-6.536 3.702-12.156 3.702s-8.22-1.473-12.155-3.701c-4.955-2.806-11.122-6.298-22.012-6.298-10.891 0-17.058 3.493-22.012 6.299-3.936 2.229-6.535 3.701-12.155 3.701s-8.22-1.473-12.155-3.702c-4.955-2.806-11.122-6.298-22.012-6.298s-17.057 3.492-22.012 6.298c-3.935 2.229-6.534 3.702-12.154 3.702s-8.22-1.473-12.156-3.702c-4.955-2.806-11.121-6.298-22.011-6.298s-17.057 3.492-22.011 6.298c-3.936 2.229-6.536 3.702-12.156 3.702s-8.219-1.473-12.155-3.702c-4.955-2.806-11.121-6.298-22.011-6.298s-17.056 3.492-22.011 6.298c-3.936 2.229-6.536 3.702-12.155 3.702s-8.219-1.473-12.155-3.701c-4.956-2.807-11.123-6.299-22.013-6.299s-17.056 3.492-22.011 6.298c-3.936 2.229-6.535 3.702-12.155 3.702-16.542 0-30-13.458-30-30 0-16.543 13.458-30.001 30-30.001zm22.011 73.702c3.936-2.229 6.535-3.702 12.155-3.702s8.22 1.473 12.156 3.702c4.955 2.806 11.121 6.298 22.011 6.298s17.057-3.492 22.012-6.298c3.935-2.229 6.535-3.701 12.155-3.701s8.22 1.473 12.156 3.702c4.955 2.806 11.121 6.298 22.011 6.298s17.057-3.492 22.012-6.298c3.936-2.229 6.536-3.702 12.155-3.702s8.22 1.473 12.155 3.702c4.954 2.806 11.121 6.298 22.011 6.298s17.056-3.492 22.011-6.298c3.936-2.229 6.535-3.702 12.155-3.702s8.22 1.473 12.155 3.702c4.955 2.806 11.122 6.298 22.012 6.298s17.057-3.492 22.011-6.298c3.936-2.23 6.536-3.702 12.156-3.702s8.22 1.473 12.154 3.701c4.955 2.806 11.122 6.299 22.012 6.299 10.891 0 17.058-3.493 22.012-6.299 3.936-2.229 6.536-3.701 12.155-3.701 5.62 0 8.22 1.473 12.155 3.702 4.956 2.806 11.123 6.298 22.012 6.298 8.271 0 15 6.729 15 15s-6.729 15-15 15h-410c-8.271 0-15-6.729-15-15s6.729-15 15-15c10.89 0 17.056-3.492 22.011-6.299zm418.989 86.299c0 16.542-13.458 30-29.999 30h-412.001c-16.542 0-30-13.458-30-30v-20c0-5.514 4.486-10 10-10h452c5.514 0 9.999 4.486 9.999 10v20z" fill="#c68a86"/></g></svg>