<svg id="Layer_1" enable-background="new 0 0 512.005 512.005" height="512" viewBox="0 0 512.005 512.005" width="512" xmlns="http://www.w3.org/2000/svg"><g><g><g clip-rule="evenodd" fill-rule="evenodd"><path d="m255.958 249.711c-20.038 0-25.158-20-63.156-20-37.999 0-43.117 20-63.155 20-20.039 0-25.157-20-63.156-20-16.679 0-33.075 4.999-46.522 15.079-11.004 8.252-13.234 23.861-4.981 34.863 7.771 10.36 22.087 12.971 32.918 6.347 1.866-1.143 3.597-2.164 5.308-3.034 4.026-2.046 7.947-3.254 13.278-3.254 20.038 0 25.158 20 63.156 20 37.999 0 43.116-20 63.155-20 20.038 0 25.158 20 63.156 20 37.999 0 43.116-20 63.156-20 20.038 0 25.157 20 63.155 20s43.117-20 63.156-20c5.562 0 9.699 1.404 13.363 3.275 1.291.659 2.523 1.375 3.737 2.108 9.764 6.949 23.4 6.048 32.157-2.707 9.764-9.762 9.764-25.59 0-35.352-9.369-9.352-26.058-15.017-40.324-16.753-3.128-.38-6.14-.572-8.933-.572-37.998 0-43.118 20-63.156 20-20.039 0-25.157-20-63.155-20s-43.119 20-63.157 20z" fill="#f3c9a6"/><path d="m255.958 299.711c-37.998 0-43.118-20-63.156-20-20.039 0-25.156 20-63.155 20-37.998 0-43.118-20-63.156-20-5.331 0-9.251 1.209-13.278 3.254l32.793 83.038c4.04 10.229 8.999 20 20 20h299.998c11 0 15.959-9.769 20-20l32.785-83.017c-3.664-1.87-7.801-3.275-13.363-3.275-20.039 0-25.157 20-63.156 20-37.998 0-43.117-20-63.155-20-20.04 0-25.158 20-63.157 20z" fill="#fff7bf"/><path d="m445.425 229.711c2.793 0 5.805.192 8.933.573-33.753-61.431-109.854-104.281-198.353-104.281-88.434 0-164.489 42.788-198.279 104.148l-.014.026c2.908-.311 5.839-.466 8.779-.466 37.999 0 43.117 20 63.156 20 20.038 0 25.156-20 63.155-20 37.998 0 43.118 20 63.156 20s25.157-20 63.156-20 43.117 20 63.155 20 25.158-20 63.156-20z" fill="#ffe9da"/></g><g><path d="m256.042 198.143c-5.522 0-10-4.477-10-10v-20c0-5.523 4.478-10 10-10s10 4.477 10 10v20c0 5.523-4.478 10-10 10z" fill="#f3c9a6"/></g><g><path d="m190.572 195.214c-2.56 0-5.118-.976-7.071-2.929-3.905-3.905-3.905-10.237 0-14.142l14.143-14.142c3.908-3.905 10.238-3.905 14.143 0s3.905 10.237 0 14.142l-14.143 14.142c-1.954 1.953-4.513 2.929-7.072 2.929z" fill="#f3c9a6"/></g><g><path d="m321.512 195.214c-2.56 0-5.118-.976-7.071-2.929l-14.143-14.142c-3.905-3.905-3.905-10.237 0-14.142 3.906-3.905 10.236-3.906 14.143 0l14.143 14.142c3.905 3.905 3.905 10.237 0 14.142-1.954 1.953-4.513 2.929-7.072 2.929z" fill="#f3c9a6"/></g></g><path d="m501.746 239.958c-10.212-10.194-26.379-16.316-41.121-18.862-37.645-63.998-117.321-105.094-204.62-105.094-87.198 0-166.837 41.031-204.521 104.927-13.749 2.253-26.518 7.618-37.513 15.859-7.46 5.594-12.294 13.757-13.613 22.987-1.318 9.229 1.037 18.42 6.631 25.878 9.712 12.948 26.569 17.367 41.054 11.442l28.664 72.581c3.374 8.545 10.396 26.327 29.3 26.327h299.998c18.902 0 25.926-17.781 29.301-26.327l28.622-72.48c12.774 5.178 27.68 2.406 37.825-7.738 6.611-6.61 10.253-15.399 10.253-24.748-.001-9.348-3.643-18.137-10.26-24.752zm-245.741-103.956c75.053 0 143.695 32.523 180.189 84.106-18.981 1.678-29.929 8.365-38.214 13.43-6.634 4.056-10.346 6.172-15.711 6.172s-9.077-2.117-15.712-6.172c-9.544-5.836-22.616-13.828-47.443-13.828-24.828 0-37.9 7.992-47.445 13.828-6.634 4.056-10.346 6.172-15.711 6.172s-9.077-2.117-15.711-6.172c-9.545-5.835-22.617-13.828-47.444-13.828-24.828 0-37.9 7.992-47.445 13.828-6.634 4.056-10.345 6.172-15.71 6.172s-9.077-2.117-15.712-6.172c-8.271-5.057-19.198-11.73-38.124-13.421 36.494-51.583 105.16-84.115 180.193-84.115zm160.698 226.327c-4.517 11.436-7.344 13.673-10.699 13.673h-299.998c-3.356 0-6.183-2.237-10.698-13.673l-28.678-72.615c5.289.037 8.996 2.149 15.572 6.169 9.546 5.835 22.618 13.828 47.445 13.828 24.828 0 37.899-7.992 47.444-13.828 6.634-4.056 10.346-6.172 15.711-6.172s9.077 2.117 15.711 6.172c9.545 5.835 22.617 13.828 47.444 13.828 24.828 0 37.9-7.992 47.444-13.828 6.635-4.056 10.347-6.172 15.712-6.172s9.077 2.117 15.711 6.172c9.545 5.835 22.617 13.828 47.444 13.828s37.899-7.992 47.444-13.828c6.615-4.044 10.325-6.159 15.666-6.171zm70.908-87.014c-5.2 5.2-13.313 5.885-19.287 1.632-.205-.146-.416-.285-.632-.415-5.468-3.3-12.149-6.821-22.268-6.821-11.244 0-18.818 4.63-26.144 9.109-8.758 5.354-17.813 10.891-37.012 10.891s-28.254-5.537-37.012-10.891c-7.325-4.479-14.899-9.109-26.144-9.109s-18.819 4.63-26.144 9.109c-8.758 5.354-17.814 10.891-37.013 10.891s-28.254-5.537-37.012-10.891c-7.325-4.479-14.899-9.109-26.144-9.109s-18.819 4.631-26.144 9.109c-8.758 5.354-17.813 10.891-37.012 10.891s-28.255-5.537-37.013-10.891c-7.325-4.479-14.899-9.109-26.144-9.109-10.306 0-16.88 3.515-23.81 7.762-6.471 3.952-15.12 2.276-19.694-3.821-2.388-3.185-3.394-7.108-2.83-11.048.563-3.94 2.627-7.426 5.811-9.812 11.416-8.558 25.43-13.081 40.523-13.081 19.198 0 28.255 5.537 37.013 10.891 7.324 4.479 14.898 9.109 26.144 9.109 11.244 0 18.818-4.63 26.143-9.109 8.758-5.354 17.814-10.891 37.013-10.891s28.254 5.537 37.012 10.891c7.325 4.479 14.899 9.109 26.144 9.109 11.244 0 18.818-4.63 26.144-9.108 8.758-5.355 17.813-10.892 37.013-10.892 19.197 0 28.254 5.537 37.012 10.891 7.324 4.478 14.898 9.109 26.144 9.109 11.244 0 18.818-4.63 26.144-9.109 8.758-5.354 17.813-10.891 37.012-10.891 13.647 0 33.161 5.387 42.187 14.396 2.833 2.833 4.394 6.599 4.394 10.604s-1.561 7.771-4.394 10.604z" fill="#c68a86"/></g></svg>