<svg id="Layer_1" enable-background="new 0 0 512.001 512.001" height="512" viewBox="0 0 512.001 512.001" width="512" xmlns="http://www.w3.org/2000/svg"><g><g><g clip-rule="evenodd" fill-rule="evenodd"><path d="m444.899 256.001h-377.796-13.216c-9.838 0-17.886 8.049-17.886 17.886v15.772c0 78.699 64.391 143.089 143.089 143.089h153.821c78.698 0 143.089-64.391 143.089-143.089v-15.772c0-9.837-8.048-17.886-17.886-17.886z" fill="#ffe0e6"/><path d="m179.09 432.748h153.821v43.252h-153.821z" fill="#ffbecb"/><path d="m67.103 256.001h377.796c6.307-7.272 9.008-17.444 6.328-27.442-2.678-9.998-10.103-17.456-19.201-20.6 4.21-8.657 4.186-19.182-.99-28.146-5.175-8.964-14.277-14.246-23.879-14.929.421-2.179.599-4.396.533-6.607-.218-7.378-3.142-14.692-8.774-20.323-5.099-5.099-11.576-7.978-18.233-8.639-2.898-.287-5.83-.154-8.697.399-.683-9.602-5.966-18.705-14.93-23.88-8.963-5.175-19.488-5.199-28.144-.989-3.145-9.098-10.604-16.523-20.602-19.202s-20.169.023-27.441 6.329c-5.392-7.974-14.519-13.216-24.87-13.216-10.35 0-19.476 5.242-24.868 13.216-7.272-6.307-17.444-9.008-27.442-6.329s-17.456 10.104-20.601 19.202c-8.657-4.21-19.182-4.186-28.145.99-8.964 5.175-14.246 14.278-14.929 23.88-2.867-.554-5.799-.687-8.697-.399-6.656.66-13.134 3.54-18.233 8.639-5.631 5.631-8.556 12.945-8.773 20.323-.065 2.211.113 4.427.533 6.606-9.602.683-18.705 5.965-23.88 14.93-5.175 8.964-5.198 19.488-.989 28.145-9.098 3.145-16.523 10.603-19.202 20.601-2.679 9.997.023 20.169 6.33 27.441z" fill="#fff"/><path d="m104.311 158.277c.217-7.378 3.142-14.692 8.773-20.323 5.099-5.099 11.577-7.979 18.233-8.639l-83.479-86.793c-8.443-8.778-22.704-8.612-31.317 0-8.612 8.612-8.777 22.874 0 31.316z" fill="#ffe0e6"/><path d="m464.163 42.522-83.48 86.793c6.656.66 13.134 3.54 18.233 8.639 5.632 5.632 8.556 12.945 8.774 20.323l87.79-84.438c8.777-8.443 8.612-22.704 0-31.317-8.613-8.612-22.874-8.778-31.317 0z" fill="#ffe0e6"/></g><g><path d="m186.164 209.883c-5.522 0-10.004-4.477-10.004-10s4.475-10 9.997-10h.007c5.522 0 10 4.477 10 10s-4.478 10-10 10z" fill="#e3eaef"/></g><g><path d="m240.665 154.883c-5.522 0-10.004-4.477-10.004-10s4.475-10 9.997-10h.007c5.522 0 10 4.477 10 10s-4.478 10-10 10z" fill="#e3eaef"/></g><g><path d="m363.665 215.884c-5.522 0-10.004-4.477-10.004-10s4.474-10 9.996-10h.008c5.522 0 10 4.477 10 10s-4.478 10-10 10z" fill="#e3eaef"/></g><g><path d="m290.665 208.883c-5.522 0-10.004-4.477-10.004-10s4.475-10 9.997-10h.007c5.522 0 10 4.477 10 10s-4.478 10-10 10z" fill="#e3eaef"/></g><path clip-rule="evenodd" d="m472.876 319.375h-433.751c3.874 18.158 11.22 35.07 21.303 50h391.146c10.082-14.93 17.428-31.842 21.302-50z" fill="#ffbecb" fill-rule="evenodd"/></g><path d="m512 58.64c.084-8.648-3.359-17.101-9.448-23.189-6.017-6.016-14.34-9.45-22.88-9.45-.103 0-.206 0-.31.001-8.582.083-16.539 3.489-22.405 9.588l-77.914 81.007c-3.318-8.068-9.22-14.94-16.985-19.423-8.599-4.965-18.593-6.499-28.089-4.535-5.326-8.103-13.479-14.085-23.069-16.655s-19.642-1.463-28.305 2.89c-7.242-6.448-16.665-10.117-26.594-10.117-9.928 0-19.351 3.669-26.593 10.117-8.665-4.354-18.715-5.458-28.306-2.889-9.59 2.569-17.742 8.552-23.068 16.654-9.497-1.962-19.492-.428-28.09 4.536-7.764 4.483-13.667 11.354-16.984 19.423l-77.915-81.008c-5.866-6.099-13.823-9.504-22.404-9.587-.104-.001-.207-.002-.311-.002-8.54 0-16.864 3.435-22.881 9.451-6.089 6.089-9.532 14.542-9.448 23.19.084 8.581 3.489 16.538 9.587 22.404l80.552 77.476c-7.38 3.416-13.649 9.041-17.835 16.291-4.965 8.599-6.499 18.593-4.536 28.089-8.103 5.327-14.085 13.479-16.654 23.069-1.8 6.714-1.781 13.65-.124 20.182-14.021 1.453-24.99 13.337-24.99 27.735v15.772c0 40.733 15.968 79.134 44.962 108.128 26.609 26.608 61.142 42.235 98.128 44.628v33.586c0 5.523 4.478 10 10 10h153.821c5.522 0 10-4.477 10-10v-33.586c36.986-2.393 71.519-18.02 98.127-44.628 28.994-28.994 44.962-67.395 44.962-108.127v-15.772c0-14.399-10.97-26.282-24.99-27.735 1.657-6.532 1.675-13.467-.125-20.181-2.568-9.59-8.551-17.742-16.653-23.069 1.963-9.496.429-19.491-4.536-28.089-4.186-7.25-10.455-12.875-17.835-16.292l80.551-77.476c6.098-5.868 9.504-13.825 9.587-22.407zm-491.999-.194c-.032-3.311 1.277-6.538 3.593-8.853 2.314-2.315 5.512-3.629 8.853-3.592 3.166.031 6.073 1.257 8.186 3.453l72.738 75.626c-2.641 1.622-5.114 3.56-7.357 5.803-2.64 2.64-4.862 5.596-6.637 8.772l-75.923-73.024c-2.197-2.111-3.422-5.018-3.453-8.185zm169.089 407.555v-23.252h133.821v23.252zm276.911-192.114v15.772c0 73.385-59.703 133.089-133.089 133.089h-153.822c-73.386 0-133.09-59.704-133.09-133.089v-15.772c0-4.348 3.538-7.886 7.887-7.886h404.228c4.348 0 7.886 3.538 7.886 7.886zm-42.968-70.302c-1.251 2.572-1.341 5.558-.246 8.2s3.269 4.69 5.973 5.625c6.3 2.178 11.088 7.313 12.809 13.738 1.355 5.055.658 10.365-1.825 14.854h-367.485c-2.483-4.489-3.18-9.799-1.826-14.854 1.722-6.425 6.511-11.561 12.81-13.738 2.704-.935 4.878-2.982 5.973-5.625s1.005-5.628-.246-8.2c-2.915-5.994-2.67-13.011.656-18.771 3.325-5.76 9.28-9.481 15.929-9.954 2.854-.203 5.483-1.618 7.225-3.887s2.428-5.176 1.885-7.984c-1.265-6.544.789-13.258 5.492-17.961 4.703-4.704 11.415-6.758 17.963-5.493 2.807.545 5.714-.143 7.984-1.885 2.27-1.741 3.685-4.371 3.887-7.225.473-6.648 4.194-12.603 9.954-15.928 5.764-3.326 12.781-3.57 18.772-.657 2.572 1.25 5.556 1.34 8.2.246 2.643-1.095 4.689-3.269 5.624-5.972 2.178-6.299 7.313-11.088 13.738-12.809 6.424-1.723 13.266-.143 18.302 4.225 2.161 1.873 5.024 2.731 7.856 2.359 2.836-.374 5.377-1.943 6.979-4.313 3.733-5.521 9.934-8.818 16.584-8.818 6.652 0 12.852 3.296 16.585 8.817 1.603 2.37 4.143 3.94 6.979 4.313 2.837.371 5.697-.486 7.857-2.36 5.036-4.367 11.878-5.945 18.301-4.225 6.426 1.722 11.562 6.511 13.739 12.81.935 2.704 2.981 4.877 5.624 5.972 2.645 1.095 5.628 1.005 8.2-.246 5.995-2.916 13.011-2.67 18.771.656 5.761 3.325 9.482 9.28 9.955 15.929.202 2.854 1.617 5.483 3.887 7.225s5.175 2.426 7.985 1.885c6.544-1.263 13.259.789 17.961 5.492 4.704 4.704 6.758 11.418 5.493 17.962-.543 2.809.144 5.715 1.885 7.984s4.371 3.685 7.225 3.887c6.648.473 12.604 4.194 15.929 9.955 3.327 5.76 3.572 12.777.657 18.771zm65.514-136.954-75.922 73.024c-1.776-3.176-3.998-6.132-6.638-8.772-2.243-2.243-4.716-4.181-7.356-5.803l72.739-75.625c2.112-2.196 5.02-3.422 8.186-3.453 3.313-.035 6.537 1.277 8.853 3.592 2.315 2.314 3.624 5.541 3.592 8.852-.031 3.166-1.257 6.073-3.454 8.185z" fill="#c1b0b5"/></g></svg>