<svg id="Layer_1" enable-background="new 0 0 512 512" height="512" viewBox="0 0 512 512" width="512" xmlns="http://www.w3.org/2000/svg"><g><g><g clip-rule="evenodd" fill-rule="evenodd"><path d="m173.5 71c-139 18-163.5 118-163.5 170v180c0 11 9 20 20 20 111.671-.007 253.931 0 452 0 11 0 20-9 20-20v-60c-16.569 0-30-13.432-30-30s13.432-30 30-30v-60c-151.105-78.197-251.579-130.193-328.5-170z" fill="#fffbe1"/><path d="m276.5 160c19.526 0 38.177-3.274 51.509-9.041l-85.747-44.372c-22.381 5.026-36.262 14.563-36.262 24.913 0 15.74 31.564 28.5 70.5 28.5z" fill="#ffe6b4"/><path d="m148 431c0-22.091-17.909-40-40-40s-40 17.909-40 40c0 3.373.426 6.732 1.27 10h77.46c.843-3.266 1.27-6.627 1.27-10z" fill="#ffe6b4"/><circle cx="348.504" cy="314.501" fill="#ffe6b4" r="30"/><circle cx="226.004" cy="375.001" fill="#ffe6b4" r="20"/><circle cx="125.005" cy="169.501" fill="#ffe6b4" r="20"/></g><g><path d="m85.006 327.502c-5.523 0-10.004-4.477-10.004-10s4.474-10 9.997-10h.007c5.523 0 10 4.477 10 10s-4.477 10-10 10z" fill="#ffe6b4"/></g><g><path d="m204.006 310.501c-5.523 0-10.004-4.477-10.004-10s4.474-10 9.997-10h.007c5.523 0 10 4.477 10 10s-4.477 10-10 10z" fill="#ffe6b4"/></g><g><path d="m222.006 205.502c-5.523 0-10.004-4.477-10.004-10s4.474-10 9.997-10h.007c5.523 0 10 4.477 10 10s-4.477 10-10 10z" fill="#ffe6b4"/></g><g><path d="m308.006 394.502c-5.523 0-10.004-4.477-10.004-10s4.474-10 9.997-10h.007c5.523 0 10 4.477 10 10s-4.477 10-10 10z" fill="#ffe6b4"/></g><g><path d="m425.006 395.502c-5.523 0-10.004-4.477-10.004-10s4.474-10 9.997-10h.007c5.523 0 10 4.477 10 10s-4.477 10-10 10z" fill="#ffe6b4"/></g><g><path d="m328.006 209.502c-5.523 0-10.004-4.477-10.004-10s4.474-10 9.997-10h.007c5.523 0 10 4.477 10 10s-4.477 10-10 10z" fill="#ffe6b4"/></g></g><path d="m502 311c5.523 0 10-4.477 10-10v-60c0-3.738-2.084-7.164-5.404-8.881l-328.5-170c-1.809-.936-3.863-1.298-5.88-1.036-63.861 8.27-111.232 33.993-140.797 76.454-27.337 39.259-31.419 81.674-31.419 103.464v180c0 16.542 13.458 30 30 30h452c16.542 0 30-13.458 30-30v-60c0-5.523-4.477-10-10-10-11.028 0-20-8.972-20-20 0-11.029 8.972-20.001 20-20.001zm-261.013-193.815 59.792 30.943c-7.641 1.217-15.887 1.872-24.279 1.872-39.299 0-60.5-13.131-60.5-18.5 0-2.85 7.379-9.747 24.987-14.315zm-69.279-35.853 45.239 23.411c-13.529 6.818-20.947 16.082-20.947 26.757 0 25.275 40.497 38.5 80.5 38.5 18.922 0 36.847-2.853 50.962-8.064l133.457 69.065h-440.594c2.538-40.467 22.804-131.626 151.383-149.669zm-93.708 349.668c0-16.542 13.458-30 30-30s30 13.458 30 30zm414-61.265v51.265c0 5.514-4.486 10-10 10h-324c0-27.57-22.43-50-50-50s-50 22.43-50 50h-28c-5.514 0-10-4.486-10-10v-170h472v41.265c-17.233 4.452-30 20.131-30 38.735s12.767 34.284 30 38.735z" fill="#ffc144"/></g></svg>