<svg id="Layer_1" enable-background="new 0 0 512.002 512.002" height="512" viewBox="0 0 512.002 512.002" width="512" xmlns="http://www.w3.org/2000/svg"><g><g><g clip-rule="evenodd" fill-rule="evenodd"><path d="m226.002 23.546c-7.33-8.306-18.052-13.546-30-13.546-22.091 0-40 17.909-40 40 0 11.948 5.24 22.67 13.546 30-8.306 7.329-13.546 18.052-13.546 30s5.24 22.67 13.546 30c-8.306 7.329-13.546 18.052-13.546 30 0 8.263 2.507 15.94 6.8 22.314 1.915 2.842 4.184 5.425 6.746 7.686-8.306 7.329-13.546 18.052-13.546 30s5.24 22.67 13.546 30c-8.306 7.329-13.546 18.052-13.546 30 0 22.091 17.909 40 40 40 11.948 0 22.67-5.24 30-13.546 7.33 8.306 18.052 13.546 30 13.546s22.67-5.24 30-13.546c7.33 8.306 18.052 13.546 30 13.546s22.67-5.24 30-13.546c1.004 1.138 2.072 2.218 3.198 3.236 7.093 6.407 16.491 10.31 26.802 10.31 11.948 0 22.67-5.24 30-13.546 7.329 8.306 18.052 13.546 30 13.546 22.091 0 40-17.909 40-40 0-11.948-5.24-22.67-13.546-30 8.306-7.33 13.546-18.052 13.546-30s-5.24-22.67-13.546-30c8.306-7.33 13.546-18.052 13.546-30s-5.24-22.67-13.546-30c8.306-7.33 13.546-18.052 13.546-30s-5.24-22.67-13.546-30c8.306-7.33 13.546-18.052 13.546-30 0-22.091-17.909-40-40-40-11.948 0-22.67 5.24-30 13.546-7.33-8.306-18.052-13.546-30-13.546s-22.67 5.24-30 13.546c-7.33-8.306-18.052-13.546-30-13.546s-22.67 5.24-30 13.546c-7.33-8.306-18.053-13.546-30.001-13.546-11.947 0-22.67 5.24-29.999 13.546z" fill="#ffe9da"/><path d="m162.802 192.314c-7.093-6.407-16.491-10.311-26.802-10.311-11.948 0-22.67 5.24-30 13.546-7.33-8.305-18.052-13.546-30-13.546-22.091 0-40 17.909-40 40 0 11.948 5.24 22.67 13.546 30-8.306 7.329-13.546 18.052-13.546 30s5.24 22.67 13.546 30c-8.306 7.329-13.546 18.052-13.546 30s5.24 22.67 13.546 30c-8.306 7.329-13.546 18.052-13.546 30s5.24 22.67 13.546 30c-8.306 7.33-13.546 18.052-13.546 30 0 22.091 17.909 40 40 40 11.948 0 22.67-5.24 30-13.546 7.33 8.306 18.052 13.546 30 13.546s22.67-5.24 30-13.546c7.33 8.306 18.052 13.546 30 13.546s22.67-5.24 30-13.546c7.329 8.306 18.052 13.546 30 13.546s22.67-5.24 30-13.546c7.33 8.306 18.052 13.546 30 13.546 22.091 0 40-17.909 40-40 0-11.948-5.24-22.67-13.546-30 8.305-7.329 13.546-18.052 13.546-30s-5.24-22.67-13.546-30c8.305-7.33 13.546-18.052 13.546-30 0-8.263-2.507-15.94-6.801-22.313-1.126-1.017-2.194-2.098-3.198-3.236-7.33 8.306-18.052 13.546-30 13.546s-22.67-5.24-30-13.546c-7.329 8.306-18.052 13.546-30 13.546s-22.67-5.24-30-13.546c-7.329 8.306-18.052 13.546-30 13.546-22.091 0-40-17.909-40-40 0-11.948 5.24-22.67 13.546-30-8.306-7.33-13.546-18.052-13.546-30s5.24-22.67 13.546-30c-2.561-2.261-4.83-4.844-6.745-7.686z" fill="#f3c9a6"/></g><g><path d="m106.001 262.002c-5.523 0-10.004-4.477-10.004-10s4.474-10 9.997-10h.007c5.523 0 10 4.477 10 10s-4.477 10-10 10z" fill="#ddb9a3"/></g><g><path d="m106.001 322.002c-5.523 0-10.004-4.477-10.004-10s4.474-10 9.997-10h.007c5.523 0 10 4.477 10 10s-4.477 10-10 10z" fill="#ddb9a3"/></g><g><path d="m106.001 382.002c-5.523 0-10.004-4.477-10.004-10s4.474-10 9.997-10h.007c5.523 0 10 4.477 10 10s-4.477 10-10 10z" fill="#ddb9a3"/></g><g><path d="m106.001 442.002c-5.523 0-10.004-4.477-10.004-10s4.474-10 9.997-10h.007c5.523 0 10 4.477 10 10s-4.477 10-10 10z" fill="#ddb9a3"/></g><g><path d="m166.001 382.002c-5.523 0-10.004-4.477-10.004-10s4.474-10 9.997-10h.007c5.523 0 10 4.477 10 10s-4.477 10-10 10z" fill="#ddb9a3"/></g><g><path d="m166.001 442.002c-5.523 0-10.004-4.477-10.004-10s4.474-10 9.997-10h.007c5.523 0 10 4.477 10 10s-4.477 10-10 10z" fill="#ddb9a3"/></g><g><path d="m226.008 382.002c-5.523 0-10.004-4.477-10.004-10s4.474-10 9.997-10h.007c5.523 0 10 4.477 10 10s-4.477 10-10 10z" fill="#ddb9a3"/></g><g><path d="m226.008 442.002c-5.523 0-10.004-4.477-10.004-10s4.474-10 9.997-10h.007c5.523 0 10 4.477 10 10s-4.477 10-10 10z" fill="#ddb9a3"/></g><g><path d="m286.008 382.002c-5.523 0-10.004-4.477-10.004-10s4.474-10 9.997-10h.007c5.523 0 10 4.477 10 10s-4.477 10-10 10z" fill="#ddb9a3"/></g><g><path d="m286.008 442.002c-5.523 0-10.004-4.477-10.004-10s4.474-10 9.997-10h.007c5.523 0 10 4.477 10 10s-4.477 10-10 10z" fill="#ddb9a3"/></g><g><path d="m226.002 90c-5.523 0-10.004-4.477-10.004-10s4.474-10 9.997-10h.007c5.523 0 10 4.477 10 10s-4.477 10-10 10z" fill="#f3c9a6"/></g><g><path d="m226.002 150c-5.523 0-10.004-4.477-10.004-10s4.474-10 9.997-10h.007c5.523 0 10 4.477 10 10s-4.477 10-10 10z" fill="#f3c9a6"/></g><g><path d="m226.002 210c-5.523 0-10.004-4.477-10.004-10s4.474-10 9.997-10h.007c5.523 0 10 4.477 10 10s-4.477 10-10 10z" fill="#f3c9a6"/></g><g><path d="m226.002 270c-5.523 0-10.004-4.477-10.004-10s4.474-10 9.997-10h.007c5.523 0 10 4.477 10 10s-4.477 10-10 10z" fill="#f3c9a6"/></g><g><path d="m286.001 90c-5.523 0-10.004-4.477-10.004-10s4.474-10 9.997-10h.007c5.523 0 10 4.477 10 10s-4.477 10-10 10z" fill="#f3c9a6"/></g><g><path d="m286.001 150c-5.523 0-10.004-4.477-10.004-10s4.474-10 9.997-10h.007c5.523 0 10 4.477 10 10s-4.477 10-10 10z" fill="#f3c9a6"/></g><g><path d="m286.001 210c-5.523 0-10.004-4.477-10.004-10s4.474-10 9.997-10h.007c5.523 0 10 4.477 10 10s-4.477 10-10 10z" fill="#f3c9a6"/></g><g><path d="m286.001 270c-5.523 0-10.004-4.477-10.004-10s4.474-10 9.997-10h.007c5.523 0 10 4.477 10 10s-4.477 10-10 10z" fill="#f3c9a6"/></g><g><path d="m346.009 90c-5.523 0-10.004-4.477-10.004-10s4.474-10 9.997-10h.007c5.523 0 10 4.477 10 10s-4.478 10-10 10z" fill="#f3c9a6"/></g><g><path d="m346.009 150c-5.523 0-10.004-4.477-10.004-10s4.474-10 9.997-10h.007c5.523 0 10 4.477 10 10s-4.478 10-10 10z" fill="#f3c9a6"/></g><g><path d="m346.009 210c-5.523 0-10.004-4.477-10.004-10s4.474-10 9.997-10h.007c5.523 0 10 4.477 10 10s-4.478 10-10 10z" fill="#f3c9a6"/></g><g><path d="m346.009 270c-5.523 0-10.004-4.477-10.004-10s4.474-10 9.997-10h.007c5.523 0 10 4.477 10 10s-4.478 10-10 10z" fill="#f3c9a6"/></g><g><path d="m406.009 90c-5.523 0-10.004-4.477-10.004-10s4.474-10 9.997-10h.007c5.523 0 10 4.477 10 10s-4.478 10-10 10z" fill="#f3c9a6"/></g><g><path d="m406.009 150c-5.523 0-10.004-4.477-10.004-10s4.474-10 9.997-10h.007c5.523 0 10 4.477 10 10s-4.478 10-10 10z" fill="#f3c9a6"/></g><g><path d="m406.009 210c-5.523 0-10.004-4.477-10.004-10s4.474-10 9.997-10h.007c5.523 0 10 4.477 10 10s-4.478 10-10 10z" fill="#f3c9a6"/></g><g><path d="m406.009 270c-5.523 0-10.004-4.477-10.004-10s4.474-10 9.997-10h.007c5.523 0 10 4.477 10 10s-4.478 10-10 10z" fill="#f3c9a6"/></g></g><path d="m475.995 80c6.438-8.586 10.005-19.1 10.005-30 0-27.57-22.43-50-50-50-10.9 0-21.414 3.567-30 10.005-8.585-6.438-19.099-10.005-29.999-10.005s-21.414 3.567-30 10.005c-8.586-6.438-19.1-10.005-30-10.005s-21.413 3.567-30 10.005c-8.586-6.438-19.099-10.005-29.999-10.005s-21.414 3.567-30 10.005c-8.587-6.438-19.1-10.005-30-10.005-27.57 0-50 22.43-50 50 0 10.899 3.567 21.413 10.006 30-6.438 8.587-10.006 19.101-10.006 30s3.567 21.413 10.006 30c-6.438 8.587-10.006 19.101-10.006 30 0 1.019.041 2.033.103 3.043-3.3-.679-6.681-1.041-10.104-1.041-10.899 0-21.413 3.567-30 10.006-8.587-6.438-19.1-10.006-30-10.006-27.57 0-50 22.43-50 50 0 10.9 3.567 21.414 10.005 30-6.438 8.586-10.005 19.1-10.005 30s3.567 21.413 10.005 30c-6.438 8.586-10.005 19.099-10.005 30 0 10.9 3.567 21.414 10.005 30-6.438 8.586-10.005 19.1-10.005 30s3.567 21.414 10.005 30c-6.438 8.586-10.005 19.1-10.005 30 0 27.57 22.43 50 50 50 10.899 0 21.413-3.567 30-10.006 8.587 6.438 19.101 10.006 30 10.006s21.413-3.567 30-10.006c8.587 6.438 19.101 10.006 30 10.006s21.413-3.567 30-10.006c8.586 6.439 19.1 10.006 30 10.006 10.899 0 21.413-3.567 30-10.006 8.587 6.438 19.101 10.006 30 10.006 27.57 0 50-22.43 50-50 0-10.9-3.567-21.414-10.005-30 6.438-8.586 10.005-19.1 10.005-30s-3.567-21.414-10.005-30c6.438-8.586 10.005-19.1 10.005-30 0-1.016-.038-2.028-.099-3.036 3.297.681 6.679 1.033 10.1 1.033 10.9 0 21.414-3.567 30-10.005 8.586 6.438 19.1 10.005 30 10.005 27.57 0 50-22.43 50-50 0-10.9-3.567-21.414-10.005-30 6.438-8.586 10.005-19.1 10.005-30s-3.567-21.414-10.005-30c6.438-8.586 10.005-19.1 10.005-30s-3.567-21.414-10.005-30c6.438-8.586 10.005-19.1 10.005-30s-3.568-21.413-10.007-29.999zm-140.157 299.5c6.458 5.699 10.163 13.901 10.163 22.502s-3.704 16.803-10.163 22.502c-2.151 1.898-3.383 4.629-3.383 7.498s1.232 5.6 3.383 7.498c6.458 5.699 10.163 13.901 10.163 22.502 0 16.542-13.458 30-30 30-8.601 0-16.802-3.704-22.502-10.163-1.898-2.151-4.629-3.383-7.498-3.383s-5.6 1.232-7.498 3.383c-5.7 6.459-13.902 10.163-22.502 10.163s-16.802-3.704-22.501-10.163c-1.898-2.151-4.629-3.383-7.498-3.383s-5.6 1.232-7.498 3.383c-5.7 6.459-13.902 10.163-22.502 10.163s-16.802-3.704-22.502-10.163c-1.898-2.151-4.629-3.383-7.498-3.383s-5.6 1.232-7.498 3.383c-5.7 6.459-13.902 10.163-22.502 10.163s-16.802-3.704-22.502-10.163c-1.898-2.151-4.629-3.383-7.498-3.383s-5.6 1.232-7.498 3.383c-5.7 6.459-13.902 10.163-22.502 10.163-16.542 0-30-13.458-30-30 0-8.601 3.704-16.803 10.163-22.502 2.151-1.898 3.383-4.629 3.383-7.498s-1.232-5.6-3.383-7.498c-6.458-5.699-10.163-13.901-10.163-22.502s3.704-16.803 10.163-22.502c2.151-1.898 3.383-4.629 3.383-7.498s-1.232-5.6-3.383-7.498c-6.458-5.699-10.163-13.901-10.163-22.502s3.703-16.802 10.162-22.502c2.151-1.898 3.383-4.629 3.383-7.498s-1.232-5.6-3.383-7.498c-6.458-5.699-10.163-13.901-10.163-22.502s3.704-16.802 10.163-22.502c2.151-1.898 3.383-4.629 3.383-7.498s-1.232-5.6-3.383-7.498c-6.458-5.699-10.163-13.901-10.163-22.502 0-16.542 13.458-30 30-30 8.6 0 16.802 3.704 22.502 10.163 1.898 2.151 4.629 3.383 7.498 3.383s5.6-1.232 7.498-3.383c5.7-6.459 13.902-10.163 22.502-10.163 7.113 0 13.946 2.515 19.356 7.092.216.302.428.608.651.905-6.438 8.587-10.006 19.101-10.006 30s3.567 21.413 10.006 30c-6.439 8.587-10.006 19.1-10.006 30 0 27.57 22.43 50 50 50 10.9 0 21.414-3.567 30-10.005 8.586 6.438 19.1 10.005 30 10.005s21.413-3.567 30-10.005c8.587 6.438 19.1 10.005 30 10.005 10.091 0 19.848-3.063 28.055-8.625 1.277 3.369 1.945 6.958 1.945 10.628 0 8.601-3.704 16.803-10.163 22.502-2.151 1.898-3.383 4.629-3.383 7.498s1.23 5.6 3.382 7.498zm120-292.002c6.458 5.699 10.163 13.901 10.163 22.502s-3.704 16.802-10.163 22.501c-2.151 1.898-3.383 4.629-3.383 7.498s1.232 5.6 3.383 7.498c6.458 5.699 10.163 13.901 10.163 22.502s-3.704 16.803-10.163 22.502c-2.151 1.898-3.383 4.629-3.383 7.498s1.232 5.6 3.383 7.498c6.458 5.699 10.163 13.901 10.163 22.502s-3.704 16.802-10.163 22.502c-2.151 1.898-3.383 4.629-3.383 7.498s1.232 5.6 3.383 7.498c6.458 5.699 10.163 13.9 10.163 22.501 0 16.542-13.458 30-30 30-8.601 0-16.803-3.704-22.502-10.163-1.898-2.151-4.629-3.383-7.498-3.383s-5.6 1.232-7.498 3.383c-5.699 6.458-13.901 10.163-22.502 10.163s-16.803-3.704-22.502-10.163c-1.898-2.151-4.629-3.383-7.498-3.383s-5.6 1.232-7.498 3.383c-5.699 6.458-13.901 10.163-22.502 10.163s-16.803-3.704-22.502-10.163c-1.898-2.151-4.629-3.383-7.498-3.383s-5.6 1.232-7.498 3.383c-5.699 6.458-13.9 10.163-22.501 10.163s-16.803-3.704-22.502-10.163c-1.898-2.151-4.629-3.383-7.498-3.383s-5.6 1.232-7.498 3.383c-5.699 6.458-13.901 10.163-22.502 10.163-16.542 0-30-13.458-30-30 0-8.601 3.704-16.802 10.163-22.501 2.151-1.898 3.383-4.629 3.383-7.498s-1.232-5.6-3.383-7.498c-6.459-5.701-10.163-13.902-10.163-22.502 0-8.601 3.704-16.802 10.163-22.502 2.151-1.898 3.383-4.629 3.383-7.498s-1.232-5.6-3.383-7.498c-6.459-5.7-10.163-13.902-10.163-22.502s3.704-16.802 10.163-22.502c2.151-1.898 3.383-4.629 3.383-7.498s-1.232-5.6-3.383-7.498c-6.459-5.7-10.163-13.902-10.163-22.502 0-8.601 3.704-16.802 10.163-22.502 2.151-1.898 3.383-4.629 3.383-7.498s-1.232-5.6-3.383-7.498c-6.459-5.7-10.163-13.902-10.163-22.502 0-16.542 13.458-30 30-30 8.601 0 16.803 3.704 22.502 10.163 1.898 2.151 4.629 3.383 7.498 3.383s5.6-1.232 7.498-3.383c5.699-6.458 13.901-10.162 22.502-10.162s16.802 3.704 22.501 10.163c1.898 2.151 4.629 3.383 7.498 3.383s5.6-1.232 7.498-3.383c5.699-6.459 13.901-10.163 22.502-10.163s16.803 3.704 22.502 10.163c1.898 2.151 4.629 3.383 7.498 3.383s5.6-1.232 7.498-3.383c5.699-6.459 13.901-10.163 22.502-10.163s16.803 3.704 22.502 10.163c1.898 2.151 4.629 3.383 7.498 3.383s5.6-1.232 7.498-3.383c5.699-6.459 13.901-10.163 22.502-10.163 16.542 0 30 13.458 30 30 0 8.601-3.704 16.803-10.163 22.502-2.151 1.898-3.383 4.629-3.383 7.498s1.232 5.6 3.383 7.498z" fill="#c68a86"/></g></svg>