<svg id="Layer_1" enable-background="new 0 0 512.002 512.002" height="512" viewBox="0 0 512.002 512.002" width="512" xmlns="http://www.w3.org/2000/svg"><g><g clip-rule="evenodd" fill-rule="evenodd"><circle cx="316.001" cy="260.001" fill="#ffcd69" r="90"/><path d="m226.001 260.001c0-49.706 40.294-90 90-90s90 40.294 90 90-40.294 90-90 90-90-40.294-90-90zm-69.999 0c0 115.98 71.634 169.999 160 169.999 1.545 0 3.084-.017 4.618-.05 86.23-1.858 155.382-55.996 155.382-169.949 0-115.98-71.634-250.001-160-250.001-47.458 0-90.091 38.658-119.392 92.417-25.257 46.337-40.608 103.894-40.608 157.584z" fill="#fff"/><path d="m316.001 430c-88.365 0-160-54.019-160-169.999 0-53.691 15.351-111.247 40.607-157.585-2.724-.27-5.466-.415-8.227-.415-84.158 0-152.381 127.64-152.381 238.097s68.223 161.904 152.381 161.904c56.576 0 105.95-23.252 132.237-72.052-1.533.033-3.072.05-4.617.05z" fill="#fff3db"/></g><path d="m316.002 0c-50.119 0-94.343 38.313-125.118 92.064-.836-.023-1.679-.063-2.502-.063-91.449 0-162.381 133.366-162.381 248.097 0 54.593 16.487 99.395 47.679 129.562 28.643 27.701 68.306 42.342 114.702 42.342 30.583 0 58.176-6.33 82.013-18.813 23.726-12.425 42.602-30.39 56.181-53.446 44.036-2.076 81.735-17.196 109.515-44.062 32.651-31.578 49.91-78.496 49.91-135.68 0-120.235-74.26-260.001-169.999-260.001zm-127.62 492.002c-89.154 0-142.381-56.787-142.381-151.904 0-99.714 59.163-219.41 134.195-227.633-21.556 45.055-34.195 97.952-34.195 147.536 0 57.184 17.259 104.102 49.911 135.68 27.217 26.322 63.951 41.376 106.843 43.928-24.658 33.919-64.631 52.393-114.373 52.393zm127.62-72.002c-93.925 0-150-59.813-150-159.999 0-108.707 66.91-240.001 150-240.001s149.999 131.295 149.999 240.001c0 100.187-56.074 159.999-149.999 159.999z" fill="#ffa96b"/></g></svg>