<svg id="Layer_1" enable-background="new 0 0 512.002 512.002" height="512" viewBox="0 0 512.002 512.002" width="512" xmlns="http://www.w3.org/2000/svg"><g><g><g clip-rule="evenodd" fill-rule="evenodd"><path d="m256.001 176.001c44.183 0 80 35.817 80 80s-35.817 80-80 80-80-35.817-80-80 35.817-80 80-80zm39.211-109.564-24.088-12.712-.008.014c-9.45-4.965-21.153-5.166-31.127.494l-20.434 11.664-25.588-2.383c-11.115-1.504-22.706 2.803-30.055 12.318l-14.294 18.441-25.871 7.998.011.034c-10.251 3.162-18.714 11.342-21.742 22.459l-6.12 22.4-20.954 17.383.052.063c-8.25 6.84-12.935 17.621-11.491 29.039l2.932 23.139-12.712 24.088.014.008c-4.965 9.45-5.166 21.153.494 31.127l11.664 20.434-2.383 25.588c-1.504 11.115 2.803 22.706 12.318 30.055l18.441 14.294 7.998 25.871.034-.01c3.162 10.251 11.342 18.714 22.459 21.742l22.4 6.12 17.383 20.954.063-.052c6.84 8.25 17.621 12.934 29.039 11.49l23.139-2.932 24.088 12.712.008-.014c9.45 4.965 21.153 5.166 31.127-.494l20.434-11.664 25.588 2.383c11.115 1.504 22.706-2.803 30.055-12.318l14.294-18.441 25.871-7.998-.01-.034c10.251-3.162 18.714-11.342 21.742-22.46l6.12-22.4 20.954-17.383-.052-.063c8.25-6.84 12.934-17.621 11.49-29.039l-2.932-23.139 12.712-24.088-.014-.008c4.965-9.45 5.166-21.153-.494-31.127l-11.664-20.434 2.383-25.588c1.504-11.115-2.803-22.706-12.318-30.055l-18.441-14.294-7.998-25.871-.034.01c-3.162-10.251-11.342-18.714-22.46-21.742l-22.4-6.12-17.383-20.954-.063.052c-6.84-8.25-17.621-12.934-29.039-11.49z" fill="#ffdfe5"/><path d="m409.73 123.749 7.998 25.871 18.441 14.294c9.514 7.348 13.822 18.939 12.318 30.055l-2.383 25.588 11.664 20.434c5.66 9.974 5.459 21.677.494 31.127l.014.008-12.712 24.088 2.932 23.139c1.444 11.419-3.241 22.199-11.49 29.039l.052.063-20.954 17.383-6.12 22.4c-3.027 11.117-11.491 19.297-21.742 22.46l.01.034-25.871 7.998-14.294 18.441c-7.348 9.514-18.939 13.822-30.055 12.318l-25.588-2.383-20.434 11.664c-9.974 5.66-21.677 5.459-31.127.494l-.008.014-24.088-12.712-23.139 2.932c-11.419 1.444-22.199-3.24-29.039-11.49l-.063.052-17.383-20.954-22.4-6.12c-11.117-3.027-19.297-11.491-22.459-21.742l-.034.01-7.998-25.871-18.441-14.294c-9.514-7.348-13.822-18.939-12.318-30.055l2.383-25.588-11.664-20.434c-5.66-9.974-5.459-21.677-.494-31.127l-.014-.008 12.712-24.088-2.932-23.139c-1.444-11.418 3.241-22.199 11.491-29.039l-.052-.063 20.954-17.383 6.12-22.4c3.027-11.117 11.49-19.297 21.742-22.459l-.011-.034 25.871-7.998 14.294-18.441c7.348-9.515 18.939-13.822 30.055-12.318l25.588 2.383 20.434-11.664c9.974-5.66 21.677-5.459 31.127-.494l.008-.014 24.088 12.712 23.139-2.932c11.418-1.444 22.199 3.24 29.039 11.49l.063-.052 17.383 20.954 22.4 6.12c11.117 3.027 19.297 11.491 22.46 21.742zm92.272 132.252c0-135.862-110.139-246.001-246.001-246.001s-246.001 110.139-246.001 246.001 110.138 246.001 246.001 246.001 246.001-110.138 246.001-246.001z" fill="#fffbe1"/></g><g><path d="m158.009 181.663c-3.457 0-6.817-1.793-8.67-5.001l-10-17.321c-2.762-4.783-1.123-10.899 3.66-13.66 4.785-2.762 10.898-1.122 13.66 3.66l10 17.321c2.762 4.783 1.123 10.899-3.66 13.66-1.575.909-3.293 1.341-4.99 1.341z" fill="#fff"/></g><g><path d="m380 220.001c-5.522 0-10-4.477-10-10v-20c0-5.523 4.478-10 10-10s10 4.477 10 10v20c0 5.523-4.477 10-10 10z" fill="#fff"/></g><g><path d="m136.651 321.003c-1.696 0-3.415-.432-4.99-1.342l-17.321-10c-4.783-2.761-6.422-8.877-3.66-13.66 2.761-4.782 8.876-6.423 13.66-3.66l17.321 10c4.783 2.761 6.422 8.877 3.66 13.66-1.852 3.208-5.214 5.002-8.67 5.002z" fill="#fff"/></g><g><path d="m286 134.001h-20c-5.522 0-10-4.477-10-10s4.478-10 10-10h20c5.522 0 10 4.477 10 10s-4.477 10-10 10z" fill="#fff"/></g><g><path d="m348.689 350.003c-3.457 0-6.818-1.794-8.67-5.002-2.762-4.783-1.123-10.899 3.66-13.661l17.321-10c4.786-2.759 10.9-1.121 13.66 3.661 2.762 4.783 1.123 10.899-3.66 13.661l-17.321 10c-1.575.909-3.294 1.341-4.99 1.341z" fill="#fff"/></g><g><path d="m243.991 409.663c-1.696 0-3.415-.433-4.99-1.342-4.783-2.761-6.422-8.877-3.66-13.66l10-17.32c2.761-4.782 8.875-6.421 13.66-3.66 4.783 2.761 6.422 8.877 3.66 13.66l-10 17.32c-1.852 3.208-5.214 5.002-8.67 5.002z" fill="#fff"/></g></g><g fill="#ffa96b"><path d="m256 0c-141.159 0-256 114.842-256 256.001s114.841 256.001 256 256.001 256.001-114.842 256.001-256.001-114.841-256.001-256.001-256.001zm0 492.002c-130.131 0-236-105.87-236-236.001s105.87-236.001 236-236.001 236.001 105.87 236.001 236.001-105.87 236.001-236.001 236.001z"/><path d="m256 166.001c-49.626 0-90 40.374-90 90s40.374 90 90 90 90-40.374 90-90-40.374-90-90-90zm0 160c-38.598 0-70-31.402-70-70s31.402-70 70-70 70 31.402 70 70-31.402 70-70 70z"/></g></g></svg>