<svg id="Layer_1" enable-background="new 0 0 512.021 512.021" height="512" viewBox="0 0 512.021 512.021" width="512" xmlns="http://www.w3.org/2000/svg"><g><g clip-rule="evenodd" fill-rule="evenodd"><path d="m164.329 177.981 169.706 169.706 162.137-162.137c7.778-7.778 7.778-20.506 0-28.284l-141.422-141.423c-7.778-7.778-20.506-7.778-28.284 0z" fill="#ffe9da"/><path d="m334.035 347.686-169.706-169.705c-3.889-3.889-10.253-3.889-14.142 0l-45.621 45.621c.7 4.579 1.399 9.157 6.335 14.092 9.871 9.871 18.314 2.799 28.185 12.67s2.799 18.314 12.67 28.185c9.87 9.87 18.314 2.799 28.185 12.67s2.799 18.314 12.67 28.185c9.87 9.871 18.314 2.799 28.185 12.67s2.799 18.314 12.67 28.185 18.314 2.799 28.185 12.67 2.799 18.314 12.67 28.185c4.935 4.935 9.514 5.635 14.092 6.335l45.621-45.621c3.889-3.888 3.89-10.252.001-14.142z" fill="#fff"/><path d="m192.612 319.404c-9.871-9.871-2.799-18.314-12.67-28.185s-18.314-2.799-28.185-12.67-2.799-18.314-12.67-28.185-18.314-2.799-28.185-12.67c-4.935-4.935-5.635-9.514-6.335-14.092l-88.729 88.728c-7.778 7.778-7.777 20.507 0 28.284l155.564 155.564c7.777 7.777 20.506 7.777 28.284 0l88.729-88.728c-4.578-.7-9.156-1.4-14.092-6.335-9.871-9.871-2.799-18.314-12.67-28.185s-18.314-2.799-28.185-12.67c-9.871-9.87-2.799-18.314-12.67-28.185-9.872-9.872-18.316-2.8-28.186-12.671z" fill="#99ebfa"/><g fill="#f3c9a6"><path d="m220.397 178.481 14.142 14.142c3.905 3.905 10.237 3.905 14.142 0l14.142-14.142c3.905-3.905 3.905-10.237 0-14.142l-14.142-14.142c-3.905-3.905-10.237-3.905-14.142 0l-14.142 14.142c-3.905 3.905-3.905 10.237 0 14.142z"/><path d="m284.037 199.694-14.142 14.142c-3.905 3.905-3.905 10.237 0 14.142l14.142 14.142c3.905 3.905 10.237 3.905 14.142 0l14.142-14.142c3.905-3.905 3.905-10.237 0-14.142l-14.142-14.142c-3.905-3.905-10.237-3.905-14.142 0z"/><path d="m333.535 249.192-14.142 14.142c-3.905 3.905-3.905 10.237 0 14.142l14.142 14.142c3.905 3.905 10.237 3.905 14.142 0l14.142-14.142c3.905-3.905 3.905-10.237 0-14.142l-14.142-14.142c-3.905-3.905-10.237-3.905-14.142 0z"/><path d="m368.891 227.979 14.142 14.142c3.905 3.905 10.237 3.905 14.142 0l14.142-14.142c3.905-3.905 3.905-10.237 0-14.142l-14.142-14.142c-3.905-3.905-10.237-3.905-14.142 0l-14.142 14.142c-3.906 3.905-3.906 10.237 0 14.142z"/><path d="m347.677 192.623 14.142-14.142c3.905-3.905 3.905-10.237 0-14.142l-14.142-14.142c-3.905-3.905-10.237-3.905-14.142 0l-14.142 14.142c-3.905 3.905-3.905 10.237 0 14.142l14.142 14.142c3.905 3.905 10.237 3.905 14.142 0z"/><path d="m298.179 143.125 14.142-14.142c3.905-3.905 3.905-10.237 0-14.142l-14.142-14.142c-3.905-3.905-10.237-3.905-14.142 0l-14.142 14.142c-3.905 3.905-3.905 10.237 0 14.142l14.142 14.142c3.905 3.905 10.237 3.905 14.142 0z"/><path d="m319.394 79.484 14.142 14.142c3.905 3.905 10.237 3.905 14.142 0l14.142-14.142c3.905-3.905 3.905-10.237 0-14.142l-14.142-14.142c-3.905-3.905-10.237-3.905-14.142 0l-14.142 14.142c-3.905 3.905-3.905 10.236 0 14.142z"/><path d="m383.034 100.697-14.142 14.142c-3.905 3.905-3.905 10.237 0 14.142l14.142 14.142c3.905 3.905 10.237 3.905 14.142 0l14.142-14.142c3.905-3.905 3.905-10.237 0-14.142l-14.142-14.142c-3.905-3.905-10.237-3.905-14.142 0z"/><path d="m432.532 150.195-14.142 14.142c-3.905 3.905-3.905 10.237 0 14.142l14.142 14.142c3.905 3.905 10.237 3.905 14.142 0l14.142-14.142c3.905-3.905 3.905-10.237 0-14.142l-14.142-14.142c-3.905-3.905-10.237-3.905-14.142 0z"/></g></g><path d="m503.243 150.194-141.422-141.422c-11.698-11.697-30.73-11.696-42.427 0l-156.978 156.979c-1.664-.44-3.39-.688-5.158-.688-5.35 0-10.372 2.076-14.142 5.846l-134.349 134.35c-5.65 5.65-8.763 13.184-8.762 21.213 0 8.029 3.111 15.563 8.762 21.213l155.563 155.564c5.849 5.849 13.529 8.772 21.213 8.772 7.682 0 15.365-2.925 21.214-8.772l134.35-134.35c5.221-5.221 6.927-12.63 5.157-19.3l156.98-156.979c11.697-11.697 11.697-30.729-.001-42.426zm-345.986 34.857s.001.001 0 0l169.692 169.691c.005.005.009.01.014.015l-41.798 41.798c-1.346-.482-2.461-1.201-3.772-2.512-2.617-2.617-2.92-4.594-3.521-8.533-.8-5.232-1.896-12.398-9.149-19.652s-14.42-8.35-19.652-9.149c-3.938-.602-5.916-.904-8.533-3.521-2.616-2.617-2.919-4.594-3.521-8.532-.8-5.232-1.896-12.398-9.149-19.652-7.254-7.254-14.42-8.35-19.652-9.15-3.939-.602-5.916-.904-8.532-3.52-2.616-2.617-2.919-4.594-3.521-8.532-.8-5.233-1.896-12.399-9.149-19.653-7.255-7.254-14.421-8.35-19.653-9.15-3.938-.602-5.915-.904-8.531-3.52-2.617-2.617-2.92-4.594-3.521-8.533-.8-5.232-1.896-12.398-9.149-19.652-7.255-7.254-14.421-8.35-19.653-9.149-3.938-.602-5.915-.904-8.532-3.521-1.312-1.312-2.031-2.428-2.513-3.773zm35.358 304.055c-3.899 3.899-10.243 3.899-14.143 0l-155.563-155.563c-1.873-1.873-2.904-4.384-2.904-7.071s1.031-5.198 2.904-7.07l77.993-77.995c.849 1.116 1.808 2.239 2.927 3.358 7.255 7.254 14.421 8.35 19.653 9.149 3.938.602 5.915.904 8.531 3.521 2.617 2.617 2.92 4.594 3.521 8.533.8 5.232 1.896 12.398 9.149 19.652s14.42 8.349 19.652 9.149c3.938.602 5.915.904 8.532 3.521s2.92 4.594 3.521 8.533c.8 5.232 1.896 12.398 9.149 19.652 7.254 7.253 14.419 8.349 19.651 9.148 3.938.602 5.916.904 8.532 3.521 2.617 2.617 2.92 4.594 3.521 8.533.8 5.232 1.896 12.398 9.149 19.652 7.255 7.254 14.421 8.35 19.653 9.15 3.938.602 5.915.904 8.531 3.521 2.617 2.617 2.92 4.594 3.521 8.533.8 5.232 1.896 12.398 9.149 19.652 1.12 1.12 2.242 2.078 3.358 2.927zm296.486-310.628-155.066 155.065-155.563-155.562 155.065-155.066c3.898-3.898 10.243-3.9 14.142 0l141.422 141.421c3.899 3.899 3.899 10.243 0 14.142z" fill="#c68a86"/></g></svg>