<svg id="Layer_1" enable-background="new 0 0 512.002 512.002" height="512" viewBox="0 0 512.002 512.002" width="512" xmlns="http://www.w3.org/2000/svg"><g><g><g clip-rule="evenodd" fill-rule="evenodd"><path d="m340.443 249.159c-17.648-2.322-37.98-5.646-60.187-8.372-21.858-2.683-45.533-4.787-70.256-4.787s-48.398 2.104-70.256 4.787c-22.207 2.726-42.539 6.049-60.187 8.372-24.557 3.231-43.92 4.524-55.914-.431-8.804 14.652-13.643 30.595-13.643 47.274 0 71.797 61.943 109.999 200 109.999 122.473 0 185.038-25.807 197.603-86.271-11.139-7.936-19.691-19.644-23.507-33.887-3.145-11.738-2.642-23.593.81-34.365-11.524 1.352-26.623.028-44.463-2.319z" fill="#fff"/><path d="m79.558 249.159c-29.889-24.884-11.896-92.59 3.762-117.585-49.973 24.549-73.32 62.504-73.32 94.426 0 12.082 4.835 19.089 13.643 22.728 11.994 4.954 31.357 3.662 55.915.431z" fill="#ffc8b8"/><path d="m83.319 131.574c-15.658 24.995-33.651 92.701-3.762 117.585 17.649-2.322 37.98-5.646 60.187-8.372-20.165-49.681 1.564-111.719 7.869-129.574-24.966 4.458-46.347 11.545-64.294 20.361z" fill="#ffe5dd"/><path d="m147.613 111.213c-6.304 17.855-28.033 79.893-7.869 129.574 21.858-2.683 45.534-4.787 70.256-4.787v-130c-22.861 0-43.635 1.865-62.387 5.213z" fill="#ffc8b8"/><path d="m210 106v130c24.723 0 48.398 2.104 70.256 4.787 20.165-49.681-1.564-111.719-7.869-129.574-18.751-3.348-39.525-5.213-62.387-5.213z" fill="#ffe5dd"/><path d="m272.387 111.213c6.304 17.855 28.033 79.893 7.869 129.574 22.207 2.726 42.539 6.049 60.187 8.372 29.889-24.884 11.896-92.59-3.762-117.585-17.947-8.816-39.327-15.903-64.294-20.361z" fill="#ffc8b8"/><path d="m336.681 131.574c15.658 24.995 33.651 92.701 3.762 117.585 17.84 2.347 32.939 3.671 44.463 2.32 15.988-1.874 25.094-8.897 25.094-25.479 0-2.31-.122-4.651-.368-7.016-3.149-30.329-26.594-64.638-72.951-87.41z" fill="#ffe5dd"/><path d="m410 226c0 16.582-9.107 23.605-25.094 25.479-3.453 10.771-3.955 22.627-.81 34.365 3.816 14.243 12.368 25.951 23.507 33.887 5.924 4.22 12.581 7.374 19.646 9.273 15.886-15.913 21.033-37.334 15.789-58.963 21.113 5.589 43.489-.341 58.963-15.789-5.471-20.349-21.342-37.307-43.16-43.153-17.463-4.679-35.184-1.288-49.21 7.885.247 2.365.369 4.706.369 7.016z" fill="#ffc8b8"/></g><g><path d="m87.11 311.133c-5.523 0-10.004-4.477-10.004-10s4.474-10 9.997-10h.007c5.523 0 10 4.477 10 10s-4.477 10-10 10z" fill="#e3eaef"/></g><g><path d="m155.518 349.534c-5.523 0-10.004-4.477-10.004-10s4.473-10 9.996-10h.008c5.523 0 10 4.477 10 10s-4.477 10-10 10z" fill="#e3eaef"/></g><g><path d="m219.718 311.133c-5.523 0-10.004-4.477-10.004-10s4.473-10 9.996-10h.008c5.523 0 10 4.477 10 10s-4.477 10-10 10z" fill="#e3eaef"/></g><g><path d="m333.111 342.934c-5.523 0-10.004-4.477-10.004-10s4.474-10 9.997-10h.007c5.523 0 10 4.477 10 10s-4.477 10-10 10z" fill="#e3eaef"/></g><g><path d="m238.318 368.134c-5.523 0-10.004-4.477-10.004-10s4.474-10 9.997-10h.007c5.523 0 10 4.477 10 10s-4.477 10-10 10z" fill="#e3eaef"/></g><g><path d="m291.118 293.133c-5.523 0-10.004-4.477-10.004-10s4.473-10 9.996-10h.008c5.523 0 10 4.477 10 10s-4.477 10-10 10z" fill="#e3eaef"/></g></g><path d="m511.659 251.655c-6.568-24.433-25.815-43.675-50.229-50.216-14.745-3.952-30.387-2.956-44.448 2.575-6.591-24.148-23.784-47.268-49.379-65.637-26.936-19.332-76.143-42.377-157.603-42.377s-130.667 23.045-157.602 42.377c-33.3 23.9-52.398 55.837-52.398 87.623 0 11.249 3.505 20.049 10.403 26.172-6.899 14.078-10.403 28.781-10.403 43.83 0 40.124 17.934 70.615 53.305 90.627 34.933 19.765 86.189 29.372 156.696 29.372 63.555 0 110.602-6.939 143.829-21.215 30.974-13.308 50.711-33.016 60.002-60.007 3.468 1.572 7.083 2.877 10.822 3.882.858.23 1.73.343 2.596.343 2.62 0 5.177-1.032 7.078-2.936 14.536-14.561 21.698-33.735 20.563-54.096 19.966 1.067 39.805-6.297 54.176-20.644 2.532-2.528 3.521-6.217 2.592-9.673zm-447.599-97.03c24.55-17.62 69.799-38.625 145.94-38.625s121.39 21.004 145.94 38.625c27.59 19.801 44.06 46.483 44.06 71.375 0 7.211-2.152 9.906-3.771 11.305-9.881 8.546-42.707 3.758-77.461-1.309-30.539-4.453-68.547-9.996-108.768-9.996s-78.229 5.542-108.769 9.996c-34.752 5.068-67.58 9.854-77.461 1.309-1.618-1.399-3.77-4.094-3.77-11.305 0-24.892 16.471-51.574 44.06-71.375zm145.94 241.376c-66.034 0-115.44-9.01-146.848-26.779-29.036-16.429-43.152-40.379-43.152-73.22 0-12.099 2.888-23.995 8.575-35.459 18.1 3.618 43.647-.106 75.543-4.756 31.458-4.587 67.113-9.787 105.882-9.787s74.425 5.199 105.883 9.787c22.009 3.209 40.984 5.97 56.587 6.19-1.007 8.816-.355 17.792 1.966 26.455 3.7 13.812 11.468 25.967 21.939 35.111-14.158 50.049-72.079 72.458-186.375 72.458zm235.598-135.628c-3.407-.902-7.037.057-9.556 2.522-2.518 2.466-3.552 6.075-2.722 9.5 4.072 16.794.822 32.576-9.142 45.063-14.834-5.93-26.242-18.598-30.423-34.205-2.026-7.56-2.28-15.447-.782-23.051 6.463-1.481 11.934-3.96 16.339-7.77 7.092-6.132 10.688-15.025 10.688-26.432 0-.484-.018-.968-.027-1.452 11.227-5.728 23.948-7.094 36.281-3.79 15.596 4.179 28.258 15.575 34.192 30.395-12.519 9.827-29.195 13.363-44.848 9.22z" fill="#ff9346"/></g></svg>