<svg id="Layer_1" enable-background="new 0 0 512 512" height="512" viewBox="0 0 512 512" width="512" xmlns="http://www.w3.org/2000/svg"><g><g clip-rule="evenodd" fill-rule="evenodd"><path d="m36 90h243.828 45.002 45.001 45.002 41.166v-40h-419.999z" fill="#f4e9e8"/><path d="m36 50h243.828 45.002 45.001 45.002 41.166v-40h-419.999z" fill="#f4e9e8"/><path d="m279.828 50c0 18.362-12.827 19.638-12.827 38 0 .69.018 1.356.053 2 .893 16.482 12.774 18.328 12.774 36 0 18.362-12.827 19.638-12.827 38s12.827 19.638 12.827 38h45.002c0-18.362-12.827-19.638-12.827-38s12.827-19.638 12.827-38-12.827-19.638-12.827-38 12.827-19.638 12.827-38z" fill="#fffbe1"/><path d="m312.002 88c0 18.362 12.827 19.638 12.827 38s-12.827 19.638-12.827 38 12.827 19.638 12.827 38h45.002c0-18.362-12.827-19.638-12.827-38s12.827-19.638 12.827-38-12.827-19.638-12.827-38 12.827-19.638 12.827-38h-45.001c0 18.362-12.828 19.638-12.828 38z" fill="#fff7bf"/><path d="m357.004 88c0 18.362 12.827 19.638 12.827 38s-12.827 19.638-12.827 38 12.827 19.638 12.827 38h45.001c0-18.362-12.827-19.638-12.827-38s12.827-19.638 12.827-38c0-17.672-11.881-19.518-12.774-36-.035-.644-.053-1.31-.053-2 0-18.362 12.827-19.638 12.827-38h-45.001c0 18.362-12.827 19.638-12.827 38z" fill="#fffbe1"/><path d="m414.833 202h-45.001-45.002-45.002-103.828c-11 0-20 9-20 20s9 20 20 20h280c11 0 20-9 20-20s-9-20-20-20z" fill="#fff"/><path d="m456 242h-280l3.333 40.001h273.334z" fill="#ffbdbc"/><path d="m452.667 282.001h-273.334l15 179.997h243.333zm-136.667 39.999c27.614 0 50 22.386 50 50s-22.386 50-50 50-50-22.386-50-50 22.386-50 50-50z" fill="#fff"/><ellipse cx="316" cy="372" fill="#ffbdbc" rx="50" ry="50" transform="matrix(.707 -.707 .707 .707 -170.489 332.402)"/><path d="m437.666 461.998h-243.332l1.666 20.002c.913 10.962 9.001 20 20 20h200c10.998 0 19.087-9.039 20-20z" fill="#ffbdbc"/><circle cx="316" cy="372" fill="#c1b0b5" r="20"/></g><g fill="#c1b0b5"><path d="m486 222c0-16.542-13.458-30-30-30h-32.168c-1.521-6.648-4.512-11.205-7.066-15.078-2.867-4.345-4.761-7.215-4.761-13.303s1.894-8.958 4.761-13.303c3.594-5.447 8.067-12.226 8.067-24.317s-4.473-18.87-8.067-24.317c-.385-.584-.752-1.141-1.1-1.683h40.334c5.523 0 10-4.477 10-10v-79.999c0-5.523-4.477-10-10-10h-420c-5.523 0-10 4.477-10 10v80c0 5.523 4.477 10 10 10h222.621c1.627 5.391 4.207 9.303 6.447 12.697 2.866 4.345 4.76 7.215 4.76 13.303s-1.894 8.958-4.761 13.303c-3.593 5.447-8.067 12.226-8.067 24.317s4.473 18.87 8.067 24.317c.964 1.461 1.815 2.757 2.524 4.063h-91.591c-16.542 0-30 13.458-30 30 0 13.287 8.685 24.577 20.674 28.509l19.361 232.322c1.385 16.628 14.267 29.169 29.965 29.169h200c15.698 0 28.581-12.541 29.965-29.169l19.361-232.322c11.989-3.932 20.674-15.222 20.674-28.509zm-152.171-30c-1.521-6.648-4.511-11.205-7.067-15.078-2.867-4.345-4.76-7.215-4.76-13.303 0-6.087 1.894-8.958 4.76-13.303 3.594-5.447 8.067-12.226 8.067-24.317s-4.473-18.87-8.067-24.317c-2.866-4.345-4.76-7.215-4.76-13.303 0-6.087 1.894-8.958 4.76-13.303 2.555-3.872 5.546-8.429 7.066-15.077h23.766c-.709 1.306-1.56 2.601-2.524 4.063-3.594 5.447-8.067 12.226-8.067 24.317s4.473 18.87 8.067 24.317c2.867 4.345 4.761 7.215 4.761 13.303s-1.894 8.958-4.761 13.303c-3.594 5.447-8.067 12.226-8.067 24.317s4.473 18.87 8.067 24.317c.964 1.461 1.815 2.757 2.524 4.063h-23.765zm45.002 0c-1.521-6.648-4.512-11.205-7.066-15.078-2.867-4.345-4.761-7.215-4.761-13.303s1.894-8.958 4.76-13.303c3.594-5.447 8.067-12.226 8.067-24.317s-4.473-18.87-8.067-24.317c-2.867-4.345-4.761-7.215-4.761-13.303 0-6.087 1.894-8.958 4.76-13.303 2.555-3.872 5.546-8.429 7.067-15.077h23.765c-.709 1.306-1.56 2.601-2.524 4.063-3.594 5.447-8.067 12.226-8.067 24.317s4.473 18.87 8.067 24.317c2.866 4.345 4.76 7.215 4.76 13.303s-1.894 8.958-4.761 13.303c-3.594 5.447-8.067 12.226-8.067 24.317s4.473 18.87 8.067 24.317c.964 1.461 1.815 2.757 2.524 4.063h-23.763zm34.968-112c.785-1.608 1.792-3.142 2.967-4.923 2.555-3.872 5.546-8.429 7.066-15.077h22.167v20zm32.201-60v20h-400v-20zm-400 40h221.591c-.709 1.306-1.56 2.601-2.524 4.063-2.664 4.038-5.807 8.814-7.257 15.937h-211.81zm235.761 116.923c-2.867-4.345-4.761-7.215-4.761-13.303s1.894-8.958 4.761-13.303c3.594-5.447 8.067-12.226 8.067-24.317s-4.473-18.87-8.067-24.317c-2.866-4.345-4.761-7.215-4.761-13.303 0-6.087 1.894-8.958 4.761-13.303 2.555-3.872 5.546-8.429 7.066-15.077h23.765c-.709 1.306-1.56 2.601-2.524 4.063-3.594 5.447-8.067 12.226-8.067 24.317s4.473 18.87 8.067 24.317c2.867 4.345 4.76 7.215 4.76 13.303s-1.894 8.958-4.76 13.303c-3.594 5.447-8.067 12.226-8.067 24.317s4.473 18.87 8.067 24.317c.964 1.462 1.815 2.757 2.524 4.063h-23.766c-1.519-6.648-4.51-11.205-7.065-15.077zm144.273 304.247c-.448 5.382-4.038 10.83-10.034 10.83h-200c-5.996 0-9.586-5.448-10.035-10.831l-19.097-229.169h258.265zm29.966-249.17h-280c-5.514 0-10-4.486-10-10s4.486-10 10-10h280c5.514 0 10 4.486 10 10s-4.486 10-10 10z"/><path d="m316 312c-33.084 0-60 26.916-60 60s26.916 60 60 60 60-26.916 60-60-26.916-60-60-60zm0 100c-22.056 0-40-17.944-40-40s17.944-40 40-40 40 17.944 40 40-17.943 40-40 40z"/></g></g></svg>