<svg id="Layer_1" enable-background="new 0 0 512.007 512.007" height="512" viewBox="0 0 512.007 512.007" width="512" xmlns="http://www.w3.org/2000/svg"><g><g><g clip-rule="evenodd" fill-rule="evenodd"><path d="m185.253 496.558c-31.855-31.855-49.668-72.831-53.777-116.021-43.192-4.108-84.171-21.926-116.027-53.783z" fill="#ffe6b4"/><path d="m131.476 380.536c62.765 5.97 130.206-17.011 181.128-67.933s73.903-118.363 67.933-181.128c-1.577-16.578-5.173-32.83-10.808-48.365-9.046-24.94-23.345-48.033-42.975-67.662-7.783-7.783-21.155-7.146-29.716 1.415l-280.175 280.174c-8.561 8.561-9.198 21.933-1.415 29.716 31.857 31.857 72.835 49.675 116.028 53.783z" fill="#fffbe1"/><path d="m312.604 312.603c-50.922 50.922-118.363 73.903-181.128 67.933 4.109 43.19 21.922 84.166 53.777 116.021 7.783 7.783 21.154 7.146 29.716-1.415l280.175-280.175c8.561-8.561 9.198-21.932 1.415-29.716-19.63-19.63-42.724-33.927-67.664-42.972-15.533-5.633-31.782-9.228-48.357-10.805 5.969 62.766-17.012 130.207-67.934 181.129z" fill="#fffbe1"/><path d="m380.537 131.475c16.575 1.577 32.825 5.172 48.357 10.805 3.464-6.388 5.279-13.539 5.279-20.806 0-24.102-19.539-43.641-43.641-43.641-7.265 0-14.416 1.814-20.803 5.277 5.635 15.535 9.231 31.787 10.808 48.365z" fill="#ffbecb"/><path d="m339.843 30.003c13.038 16.151 22.989 34.092 29.886 53.107 6.388-3.463 13.538-5.277 20.803-5.277 24.103 0 43.641 19.539 43.641 43.641 0 7.267-1.815 14.419-5.279 20.806 19.022 6.898 36.969 16.852 53.125 29.897l.783-.494c11.34-5.28 19.202-16.776 19.202-30.109s-7.862-24.829-19.202-30.109c7.18-10.243 8.241-24.129 1.574-35.676s-19.223-17.572-31.684-16.475c1.097-12.461-4.928-25.017-16.475-31.684s-25.434-5.606-35.677 1.574c-5.28-11.34-16.776-19.202-30.109-19.202s-24.829 7.862-30.109 19.202z" fill="#e0ef9b"/></g><g><path d="m295.291 140.181c-5.522 0-10.004-4.477-10.004-10s4.475-10 9.997-10h.007c5.522 0 10 4.477 10 10s-4.477 10-10 10z" fill="#ffe6b4"/></g><g><path d="m259.291 250.182c-5.523 0-10.003-4.477-10.003-10s4.474-10 9.997-10h.007c5.522 0 10 4.477 10 10s-4.478 10-10.001 10z" fill="#ffe6b4"/></g><g><path d="m151.291 272.182c-5.523 0-10.004-4.477-10.004-10s4.474-10 9.997-10h.007c5.523 0 10 4.477 10 10s-4.477 10-10 10z" fill="#ffe6b4"/></g><g><path d="m199.292 430.182c-5.523 0-10.004-4.477-10.004-10s4.473-10 9.996-10h.008c5.523 0 10 4.477 10 10s-4.478 10-10 10z" fill="#ffe6b4"/></g><g><path d="m419.291 216.181c-5.522 0-10.004-4.477-10.004-10s4.475-10 9.997-10h.007c5.522 0 10 4.477 10 10s-4.477 10-10 10z" fill="#ffe6b4"/></g></g><path d="m498.306 173.065c8.556-8.064 13.698-19.454 13.698-31.492 0-13.182-6.087-25.524-16.09-33.623 4.615-12.016 3.715-25.747-2.877-37.163-6.591-11.417-18.032-19.062-30.746-21.073-2.012-12.713-9.656-24.155-21.072-30.746-11.417-6.591-25.149-7.493-37.163-2.876-8.099-10.004-20.44-16.09-33.623-16.09-12.226 0-23.511 5.044-31.539 13.659-1.657-1.785-3.338-3.554-5.068-5.284-5.781-5.781-13.635-8.745-22.113-8.339-8.119.386-15.841 3.851-21.744 9.754l-280.177 280.175c-12.481 12.482-13.116 32.156-1.415 43.858l169.804 169.804c.003.003.007.006.011.01 5.602 5.596 13.027 8.368 20.617 8.368 8.265 0 16.725-3.288 23.23-9.792l280.175-280.176c12.481-12.482 13.116-32.156 1.415-43.858-1.744-1.745-3.523-3.446-5.323-5.116zm-127.873-153.063c8.987 0 17.247 5.269 21.044 13.422 1.249 2.682 3.62 4.672 6.478 5.438 2.856.766 5.906.227 8.328-1.471 7.365-5.163 17.154-5.596 24.937-1.103s12.302 13.187 11.513 22.146c-.259 2.947.8 5.856 2.891 7.948 2.092 2.092 5.006 3.151 7.948 2.89 8.96-.793 17.653 3.731 22.146 11.514s4.061 17.571-1.103 24.936c-1.698 2.422-2.236 5.471-1.471 8.329.766 2.857 2.757 5.229 5.438 6.477 8.154 3.797 13.423 12.057 13.423 21.044 0 7.428-3.451 14.187-9.224 18.518-26.873-20.179-58.555-33.015-93.18-37.635-4.55-34.367-17.396-66.194-37.686-93.222 4.333-5.773 11.102-9.231 18.518-9.231zm-346.498 284.107 280.175-280.175c2.378-2.377 5.415-3.77 8.553-3.918.182-.009.361-.013.539-.013 2.563 0 4.848.884 6.48 2.517 74.126 74.125 67.778 201.084-14.15 283.013-81.926 81.929-208.886 88.277-283.012 14.15-3.837-3.838-3.19-10.97 1.415-15.574zm98.52 85.487c1.806 13.534 4.86 26.621 9.124 39.144l-48.28-48.28c12.569 4.29 25.667 7.35 39.156 9.136zm365.617-181.7-280.174 280.176c-4.605 4.604-11.737 5.252-15.574 1.415-26.525-26.524-43.472-60.279-49.416-98.178 2.64.095 5.287.157 7.949.157 3.553 0 7.125-.085 10.714-.256 58.615-2.791 114.765-28.196 158.104-71.535s68.744-99.488 71.535-158.104c.299-6.278.319-12.499.097-18.661 37.898 5.945 71.659 22.893 98.18 49.414 3.837 3.836 3.19 10.968-1.415 15.572z" fill="#5cd0b3"/></g></svg>