<svg id="Layer_1" enable-background="new 0 0 512 512" height="512" viewBox="0 0 512 512" width="512" xmlns="http://www.w3.org/2000/svg"><g><g clip-rule="evenodd" fill-rule="evenodd"><g fill="#f3c9a6"><path d="m281 251.002v-134.102c-8.22-.597-16.561-.9-25-.9s-16.779.303-25 .901v134.101c0 13.75 11.249 25 25 25s25-11.249 25-25z"/><path d="m351.003 129.924v81.077c0 13.75 11.25 25 25 25s25-11.25 25-25v-59.764c-15.406-8.615-32.17-15.761-50-21.313z"/><path d="m160.998 211.001v-81.077c-17.83 5.553-34.594 12.698-50 21.313v59.764c0 13.75 11.25 25 25 25 13.75-.001 25-11.25 25-25z"/></g><path d="m160.998 129.924v81.077c0 13.75-11.25 25-25 25s-25-11.249-25-25v-59.764c-61.226 34.241-100.998 91.702-100.998 164.678 0 81.897 110.138 80.081 246 80.081s246 1.815 246-80.081c0-72.977-39.772-130.438-100.998-164.678v59.764c0 13.75-11.25 25-25 25s-25-11.249-25-25v-81.077c-21.905-6.821-45.419-11.239-70.002-13.024v134.102c0 13.75-11.25 25-25 25-13.751 0-25-11.249-25-25v-134.102c-24.583 1.785-48.097 6.202-70.002 13.024z" fill="#fff3db"/><path d="m256 339.597c-122.491 0-224.073 1.476-242.88-58.253-2.053 11.085-3.12 22.62-3.12 34.571 0 81.897 110.138 80.081 246 80.081s246 1.815 246-80.081c0-11.951-1.067-23.487-3.12-34.572-18.807 59.73-120.388 58.254-242.88 58.254z" fill="#f3c9a6"/></g><path d="m508.725 279.665c-.021-.123-.043-.245-.069-.367-3.286-17.635-8.979-34.494-17.078-50.392-12.924-25.368-31.587-47.697-55.471-66.368-46.642-36.459-110.605-56.538-180.107-56.538-69.501 0-133.465 20.079-180.106 56.539-23.885 18.67-42.548 41-55.472 66.368-13.551 26.598-20.422 55.872-20.422 87.008 0 41.64 25.172 67.759 76.954 79.85 43.979 10.269 102.584 10.256 170.396 10.232l8.65-.001 8.65.001c2.932.001 5.842.002 8.738.002 64.128 0 119.58-.409 161.657-10.234 51.782-12.091 76.954-38.21 76.954-79.85.001-12.397-1.107-24.494-3.274-36.25zm-252.725-153.665c121.726 0 213.74 63.288 232.487 154.809-18.46 48.847-113.782 48.827-223.829 48.79l-8.658-.002-8.658.001c-110.071.031-205.377.059-223.829-48.788 18.746-91.522 110.76-154.81 232.487-154.81zm174.498 250.289c-41.731 9.745-99.259 9.725-165.842 9.708l-8.656-.001-8.656.001c-66.591.02-124.109.035-165.842-9.708-42.534-9.931-61.502-28.551-61.502-60.374 0-1.451.027-2.893.061-4.333 19.077 19.204 48.125 26.633 70.941 30.634 40.283 7.063 92.475 7.383 148.043 7.383 2.76 0 5.528-.001 8.303-.001l8.652-.002 8.651.002c58.695.007 114.126.033 156.422-7.395 22.795-4.003 51.805-11.431 70.866-30.617.034 1.439.061 2.88.061 4.329 0 31.823-18.968 50.443-61.502 60.374z" fill="#c68a86"/></g></svg>