<svg id="Layer_1" enable-background="new 0 0 512.001 512.001" height="512" viewBox="0 0 512.001 512.001" width="512" xmlns="http://www.w3.org/2000/svg"><g><g><g clip-rule="evenodd" fill-rule="evenodd"><path d="m277.481 60.943c5.272-5.406 8.52-12.795 8.52-20.943 0-16.569-13.432-30-30-30-16.569 0-30 13.432-30 30 0 8.148 3.248 15.537 8.52 20.943 5.449 5.588 13.059 9.057 21.48 9.057 8.42 0 16.031-3.469 21.48-9.057z" fill="#ffbecb"/><path d="m159.621 502.002-18.13-225.715c-3.266-.821-6.921-1.297-11.115-1.297-30.401 0-32.514 25.012-62.916 25.012-.359 0-.719-.007-1.08-.024l24.621 182.024c1.474 10.901 9.004 20 20 20z" fill="#fff"/><path d="m141.491 276.286 18.13 225.715h63.896l-5.671-209.443c-6.27 4.174-13.563 7.443-24.554 7.443-26.207.001-31.393-18.587-51.801-23.715z" fill="#ffbecb"/><path d="m217.847 292.558 5.671 209.443h64.967l5.67-209.443c-10.993-7.319-18.838-17.422-37.945-17.568-19.411 0-27.29 10.196-38.363 17.568z" fill="#fff"/><path d="m294.154 292.558-5.67 209.443h63.897l18.13-225.715c-20.408 5.128-25.594 23.715-51.802 23.715-10.991.001-18.285-3.269-24.555-7.443z" fill="#ffbecb"/><path d="m370.511 276.286-18.13 225.715h48.62c10.996 0 18.526-9.103 20-20l24.621-182.022c-.36.015-.72.022-1.079.022-30.402 0-32.515-25.012-62.916-25.012-4.195.001-7.851.477-11.116 1.297z" fill="#fff"/><path d="m217.847 292.558c10.993-7.319 18.838-17.422 37.945-17.569 19.411 0 27.29 10.196 38.362 17.568 6.27 4.174 13.563 7.443 24.554 7.443 26.208 0 31.394-18.587 51.802-23.715 3.266-.821 6.921-1.297 11.115-1.297 30.402 0 32.514 25.012 62.916 25.012.359 0 .719-.007 1.079-.022 14.881-.599 30.379-13.6 30.379-42.158 0-102.736-87.1-187.171-198.52-196.878-5.447 5.589-13.058 9.058-21.478 9.058-8.421 0-16.031-3.47-21.478-9.058-111.421 9.709-198.522 94.144-198.522 196.88 0 28.558 15.498 41.56 30.38 42.158.36.015.72.022 1.079.022 30.402 0 32.515-25.012 62.916-25.012 4.194 0 7.849.476 11.115 1.297 20.409 5.128 25.594 23.715 51.802 23.715 10.991 0 18.284-3.269 24.554-7.444zm37.945-17.567c.139-.001.278-.002.418-.002z" fill="#f4e9e8"/><ellipse cx="167.696" cy="190.844" fill="#e8d0cf" rx="20" ry="20" transform="matrix(.987 -.159 .159 .987 -28.242 29.129)"/><circle cx="274.105" cy="139.523" fill="#e8d0cf" r="20"/><circle cx="339.605" cy="221.023" fill="#e8d0cf" r="20"/></g><g><path d="m100.104 225.523c-5.522 0-10.004-4.477-10.004-10s4.475-10 9.997-10h.007c5.522 0 10 4.477 10 10s-4.477 10-10 10z" fill="#d1a19e"/></g><g><path d="m193.104 138.523c-5.522 0-10.004-4.477-10.004-10s4.475-10 9.997-10h.007c5.522 0 10 4.477 10 10s-4.477 10-10 10z" fill="#d1a19e"/></g><g><path d="m251.104 223.523c-5.522 0-10.004-4.477-10.004-10s4.475-10 9.997-10h.007c5.522 0 10 4.477 10 10s-4.477 10-10 10z" fill="#d1a19e"/></g><g><path d="m348.104 156.523c-5.522 0-10.004-4.477-10.004-10s4.475-10 9.997-10h.007c5.522 0 10 4.477 10 10s-4.477 10-10 10z" fill="#d1a19e"/></g><g><path d="m409.105 210.023c-5.522 0-10.004-4.477-10.004-10s4.474-10 9.996-10h.008c5.522 0 10 4.477 10 10s-4.477 10-10 10z" fill="#d1a19e"/></g></g><path d="m486.001 257.821c0-52.169-21.472-102.048-60.46-140.449-34.92-34.393-81.207-56.992-131.66-64.552 1.367-4.028 2.119-8.336 2.119-12.82 0-22.056-17.944-40-40-40s-40 17.944-40 40c0 4.484.753 8.792 2.119 12.82-50.453 7.56-96.74 30.159-131.659 64.553-38.988 38.401-60.46 88.28-60.46 140.449 0 29.876 14.926 46.184 31.457 50.794l23.633 174.727c2.283 16.875 14.582 28.66 29.91 28.66h290c15.328 0 27.628-11.785 29.91-28.66l23.635-174.727c16.53-4.612 31.456-20.919 31.456-50.795zm-230-237.821c11.028 0 20 8.972 20 20s-8.972 20-20 20-20-8.972-20-20 8.971-20 20-20zm155.09 460.661c-.763 5.645-4.179 11.34-10.09 11.34h-290c-5.91 0-9.326-5.696-10.09-11.34l-23.206-171.568c12.473-2.28 20.559-8.478 27.31-13.672 7.576-5.829 13.561-10.432 25.36-10.432s17.784 4.604 25.361 10.432c8.444 6.496 18.953 14.58 37.556 14.58s29.111-8.084 37.556-14.58c7.532-5.794 13.49-10.377 25.152-10.432 11.662.054 17.62 4.638 25.152 10.432 8.444 6.496 18.953 14.58 37.556 14.58s29.111-8.084 37.556-14.58c7.577-5.829 13.562-10.432 25.361-10.432s17.784 4.604 25.36 10.432c6.752 5.194 14.838 11.392 27.312 13.672zm33.451-190.66c-11.8 0-17.784-4.604-25.36-10.432-8.444-6.496-18.954-14.58-37.556-14.58-18.603 0-29.111 8.084-37.556 14.58-7.577 5.829-13.562 10.432-25.361 10.432s-17.784-4.604-25.361-10.432c-8.339-6.414-18.689-14.377-36.86-14.576-.092-.003-.185-.004-.277-.004h-.418c-.093 0-.186.001-.277.004-18.171.198-28.521 8.162-36.86 14.576-7.577 5.829-13.562 10.432-25.361 10.432s-17.784-4.604-25.361-10.432c-8.444-6.496-18.953-14.58-37.556-14.58-18.602 0-29.111 8.084-37.556 14.58-7.576 5.829-13.561 10.432-25.36 10.432-10.682 0-21.459-9.951-21.459-32.18 0-95.878 79.302-175.393 185.16-186.504 6.827 5.428 15.457 8.683 24.838 8.683s18.011-3.255 24.84-8.682c105.858 11.111 185.16 90.626 185.16 186.504 0 22.229-10.778 32.179-21.459 32.179z" fill="#ffa96b"/></g></svg>