<svg id="Layer_1" enable-background="new 0 0 512.002 512.002" height="512" viewBox="0 0 512.002 512.002" width="512" xmlns="http://www.w3.org/2000/svg"><g><g><g><g clip-rule="evenodd" fill-rule="evenodd"><path d="m209.181 165.861c22.624 0 24.196-22.285 46.82-22.285s24.196 22.285 46.82 22.285 24.196-22.285 46.82-22.285c4.022-6.235 6.361-13.645 6.361-21.576 0-15.699-9.166-29.358-22.41-35.896 14.127-34.129-15.413-66.738-47.1-76.105-17.222 64.274-130.492 33.959-130.492 112.002 0 7.93 2.339 15.34 6.361 21.575 22.624 0 24.196 22.285 46.82 22.285z" fill="#ffbecb"/><path d="m256.001 143.576c-22.624 0-24.196 22.285-46.82 22.285s-24.196-22.285-46.82-22.285c-26.486 6.218-46.36 30.111-46.36 58.424v20h280v-20c0-28.312-19.874-52.206-46.36-58.424-22.624 0-24.196 22.285-46.82 22.285s-24.196-22.285-46.82-22.285z" fill="#cff5fd"/><path d="m396.001 222h-280c-11 0-20 9-20 20v20c0 11 9 20 20 20h280c11 0 20-9 20-20v-20c0-11-9-20-20-20z" fill="#f3c9a6"/><path d="m396.001 282h-280l20.001 192.459c1.558 14.996 13.502 27.543 27.8 27.543h184.399c14.299 0 26.242-12.547 27.8-27.543z" fill="#ffe9da"/></g><g><path d="m222.86 119.1c-5.523 0-10.003-4.477-10.003-10s4.473-10 9.996-10h.007c5.523 0 10 4.477 10 10s-4.477 10-10 10z" fill="#fff"/></g><g><path d="m289.468 100.8c-5.523 0-10.003-4.477-10.003-10s4.473-10 9.996-10h.007c5.523 0 10 4.477 10 10s-4.477 10-10 10z" fill="#fff"/></g><g><path d="m256.618 194.251c-5.523 0-10.003-4.477-10.003-10s4.473-10 9.996-10h.007c5.523 0 10 4.477 10 10s-4.477 10-10 10z" fill="#fff"/></g><g><path d="m161.217 193.651c-5.523 0-10.003-4.477-10.003-10s4.473-10 9.996-10h.007c5.523 0 10 4.477 10 10s-4.477 10-10 10z" fill="#fff"/></g><g><path d="m353.811 196.051c-5.523 0-10.003-4.477-10.003-10s4.473-10 9.996-10h.007c5.523 0 10 4.477 10 10s-4.478 10-10 10z" fill="#fff"/></g></g><g><path d="m182.285 457.088c-5.239 0-9.641-4.078-9.971-9.378l-6.87-110.173c-.344-5.512 3.846-10.259 9.358-10.603 5.504-.349 10.26 3.846 10.603 9.358l6.87 110.173c.344 5.512-3.846 10.259-9.358 10.603-.211.014-.422.02-.632.02z" fill="#f3c9a6"/></g><g><path d="m231.428 457.088c-5.426 0-9.881-4.341-9.994-9.792l-2.29-110.173c-.115-5.522 4.269-10.091 9.79-10.206 5.529-.092 10.091 4.269 10.206 9.79l2.29 110.173c.115 5.522-4.269 10.091-9.791 10.206-.07.001-.14.002-.211.002z" fill="#f3c9a6"/></g><g><path d="m280.574 457.088c-.071 0-.141 0-.212-.002-5.521-.115-9.905-4.684-9.79-10.206l2.29-110.173c.114-5.521 4.643-9.919 10.206-9.79 5.521.115 9.905 4.684 9.79 10.206l-2.29 110.173c-.113 5.45-4.568 9.792-9.994 9.792z" fill="#f3c9a6"/></g><g><path d="m329.717 457.088c-.209 0-.42-.007-.632-.02-5.512-.344-9.702-5.091-9.358-10.603l6.87-110.173c.343-5.512 5.085-9.703 10.603-9.358 5.512.344 9.702 5.091 9.358 10.603l-6.87 110.173c-.33 5.3-4.732 9.378-9.971 9.378z" fill="#f3c9a6"/></g></g><path d="m406.001 213.72v-11.72c0-15.835-5.489-31.378-15.457-43.766-7.233-8.989-16.593-16.061-27.067-20.576 1.666-5.022 2.524-10.3 2.524-15.658 0-15.904-7.811-30.918-20.451-40.267 3.222-12.813 1.807-26.013-4.214-38.623-9.37-19.625-29.299-35.986-52.01-42.7-2.586-.764-5.371-.452-7.724.866-2.352 1.318-4.073 3.531-4.771 6.135-6.597 24.62-31.863 32.943-58.614 41.754-16.879 5.56-34.334 11.31-47.892 21.569-16.367 12.387-24.325 29.157-24.325 51.267 0 5.357.859 10.634 2.524 15.657-10.474 4.514-19.834 11.586-27.067 20.575-9.967 12.388-15.457 27.931-15.457 43.767v11.721c-11.639 4.128-20 15.243-20 28.279v20c0 13.347 8.763 24.681 20.836 28.563l19.218 184.929c2.127 20.473 18.708 36.509 37.747 36.509h184.399c19.039 0 35.619-16.037 37.746-36.509l19.218-184.929c12.073-3.883 20.836-15.217 20.836-28.563v-20c.001-13.037-8.36-24.152-19.999-28.28zm-241.355-60.408c3.165-.743 5.771-2.978 6.988-5.992s.893-6.432-.87-9.164c-3.117-4.833-4.764-10.418-4.764-16.154 0-32.907 22.221-41.897 58.476-53.84 26.118-8.603 55.354-18.235 67.95-45.273 13.553 6.217 25.163 16.903 30.862 28.839 4.873 10.206 5.231 20.485 1.063 30.552-2.014 4.866.091 10.46 4.813 12.792 10.228 5.049 16.836 15.62 16.836 26.93 0 5.736-1.647 11.322-4.764 16.154-1.762 2.732-2.086 6.149-.87 9.164 1.217 3.014 3.823 5.249 6.988 5.992 22.393 5.256 38.646 25.733 38.646 48.688v10h-260v-10c.001-22.956 16.254-43.432 38.646-48.688zm-58.645 88.688c0-5.514 4.486-10 10-10h280c5.514 0 10 4.486 10 10v20c0 5.507-4.475 9.988-9.979 9.999-.014 0-.028.001-.042.001h-279.958c-.014 0-.028-.001-.042-.001-5.505-.011-9.98-4.492-9.98-9.999v-20zm260.054 231.425c-1.064 10.243-9.074 18.577-17.854 18.577h-184.399c-8.78 0-16.789-8.333-17.854-18.577l-18.854-181.425h257.815z" fill="#c68a86"/></g></svg>