<svg id="Layer_1" enable-background="new 0 0 512.002 512.002" height="512" viewBox="0 0 512.002 512.002" width="512" xmlns="http://www.w3.org/2000/svg"><g><g><g><path clip-rule="evenodd" d="m300.365 159.085c22.316 11.93 40.621 30.235 52.552 52.55l.008-.018c2.408-15.029 9.741-30.734 26.005-46.529 1.117-1.085 2.247-2.182 3.39-3.292 11.053-10.734 23.27-22.598 36.045-35.005 24.797-24.081 51.7-50.208 76.296-74.093 9.923-9.637 9.654-25.701-.001-35.355-9.654-9.654-25.718-9.924-35.355 0-23.886 24.596-50.012 51.499-74.093 76.296-12.407 12.775-24.271 24.992-35.005 36.045-1.11 1.143-2.207 2.273-3.292 3.39-15.795 16.264-31.501 23.597-46.53 26.005z" fill="#e3eaef" fill-rule="evenodd"/></g><g><path clip-rule="evenodd" d="m382.319 161.796c24.38 31.483 37.681 70.236 37.681 110.206 0 99.411-80.589 180-180 180s-180-80.589-180-180 80.589-180 180-180c39.995 0 78.742 13.319 110.204 37.683 10.735-11.054 22.599-23.271 35.007-36.047-40.94-33.332-92.205-51.636-145.211-51.636-127.026 0-230 102.974-230 230s102.974 230 230 230 230-102.974 230-230c0-52.947-18.268-104.222-51.638-145.21-12.774 12.406-24.99 24.27-36.043 35.004z" fill="#fff" fill-rule="evenodd"/></g><g><path clip-rule="evenodd" d="m352.916 211.635c-11.93-22.315-30.236-40.62-52.552-52.55l.02-.007c15.029-2.408 30.735-9.741 46.53-26.005 1.084-1.117 2.181-2.246 3.29-3.388-31.461-24.364-70.208-37.683-110.204-37.683-99.411 0-180 80.589-180 180s80.589 180 180 180 180-80.589 180-180c0-39.97-13.301-78.723-37.682-110.206-1.142 1.11-2.272 2.207-3.39 3.292-16.264 15.795-23.597 31.5-26.005 46.529z" fill="#fffbdf" fill-rule="evenodd"/></g><g><ellipse clip-rule="evenodd" cx="162.109" cy="344.006" fill="#e0c9ed" fill-rule="evenodd" rx="30" ry="30" transform="matrix(.972 -.235 .235 .972 -76.231 47.673)"/></g><g><ellipse clip-rule="evenodd" cx="313.609" cy="314.508" fill="#e0c9ed" fill-rule="evenodd" rx="25" ry="25" transform="matrix(.295 -.956 .956 .295 -79.411 521.393)"/></g><g><path clip-rule="evenodd" d="m147.11 248.507c13.77 0 25-11.23 25-25s-11.23-25-25-25-25 11.231-25 25c-.001 13.77 11.23 25 25 25z" fill="#e0c9ed" fill-rule="evenodd"/></g><g><ellipse clip-rule="evenodd" cx="280.109" cy="228.007" fill="#e0c9ed" fill-rule="evenodd" rx="30" ry="30" transform="matrix(.707 -.707 .707 .707 -79.183 264.849)"/></g><g><ellipse clip-rule="evenodd" cx="207.109" cy="275.508" fill="#fff2a0" fill-rule="evenodd" rx="20" ry="20" transform="matrix(.366 -.931 .931 .366 -125.069 367.466)"/></g><g><ellipse clip-rule="evenodd" cx="251.609" cy="386.008" fill="#ffad95" fill-rule="evenodd" rx="20" ry="20" transform="matrix(.99 -.141 .141 .99 -51.853 39.281)"/></g><g><ellipse clip-rule="evenodd" cx="207.109" cy="168.508" fill="#ffad95" fill-rule="evenodd" rx="20" ry="20" transform="matrix(.975 -.222 .222 .975 -32.24 50.183)"/></g><g><path d="m239.616 333.508c-5.523 0-10.004-4.477-10.004-10s4.474-10 9.997-10h.007c5.523 0 10 4.477 10 10s-4.477 10-10 10z" fill="#ddb9a3"/></g><g><path d="m109.616 292.508c-5.523 0-10.004-4.477-10.004-10s4.474-10 9.997-10h.007c5.523 0 10 4.477 10 10s-4.477 10-10 10z" fill="#ddb9a3"/></g><g><path d="m311.617 390.508c-5.522 0-10.004-4.477-10.004-10s4.474-10 9.996-10h.008c5.522 0 10 4.477 10 10s-4.478 10-10 10z" fill="#ddb9a3"/></g><g><path d="m375.617 292.508c-5.522 0-10.004-4.477-10.004-10s4.474-10 9.996-10h.008c5.522 0 10 4.477 10 10s-4.478 10-10 10z" fill="#ddb9a3"/></g></g><path d="m512.001 35.417c.068-9.385-3.675-18.551-10.27-25.146-6.596-6.595-15.771-10.344-25.146-10.27-9.339.068-18.023 3.752-24.454 10.374l-67.843 69.86c-41.439-31.157-92.327-48.233-144.287-48.233-64.106 0-124.376 24.964-169.706 70.294s-70.294 105.599-70.294 169.706 24.964 124.375 70.294 169.706c45.33 45.33 105.599 70.294 169.706 70.294s124.376-24.964 169.706-70.294 70.294-105.599 70.294-169.706c0-51.915-17.087-102.857-48.235-144.286l69.861-67.845c6.621-6.43 10.305-15.115 10.374-24.454zm-52 236.585c0 121.308-98.691 220-220 220-121.308 0-220-98.692-220-220s98.692-220 220-220c46.786 0 92.622 15.102 130.234 42.704l-30.493 31.4c-11.911 12.265-24.336 19.653-37.887 22.525-8.27-4.159-17.011-7.519-26.128-9.962-5.338-1.431-10.817 1.737-12.247 7.071-1.43 5.335 1.736 10.818 7.071 12.248 40.604 10.88 72.586 42.862 83.465 83.464 1.197 4.468 5.237 7.415 9.653 7.415.856 0 1.728-.111 2.594-.343 5.335-1.429 8.501-6.913 7.071-12.247-2.443-9.117-5.803-17.857-9.962-26.127 2.872-13.551 10.26-25.975 22.525-37.886l31.405-30.499c27.594 37.602 42.699 83.492 42.699 130.237zm27.692-226.478-115.73 112.391c-9.929 9.643-17.298 19.706-22.26 30.401-7.478-9.784-16.232-18.538-26.016-26.016 10.694-4.961 20.758-12.33 30.402-22.259l112.39-115.731c2.67-2.749 6.311-4.279 10.253-4.308 4.041-.033 8.023 1.578 10.857 4.413 2.834 2.833 4.442 6.791 4.413 10.857-.03 3.941-1.56 7.582-4.309 10.252z" fill="#c1b0b5"/></g></svg>