<svg id="Layer_1" enable-background="new 0 0 512.001 512.001" height="512" viewBox="0 0 512.001 512.001" width="512" xmlns="http://www.w3.org/2000/svg"><g><g><path clip-rule="evenodd" d="m135.999 252.001c-24.749 0-44.999-20.249-44.999-45 0-24.75 20.252-45 44.999-45h34.999c-24.75 0-45-20.249-45-45 0-24.75 20.25-45 45-45 56.668 0 126.222-14.299 139.004-62 105.141 21.351 100.268 152 31 152h34.999c24.749 0 44.999 20.25 44.999 45 0 24.751-20.25 45-44.999 45h34.999c24.747 0 45 20.251 45 45 0 24.75-20.25 45-45 45h-310c-24.75 0-44.999-20.25-44.999-45s20.251-45 44.999-45z" fill="#ffbecb" fill-rule="evenodd"/><path clip-rule="evenodd" d="m101.001 342.001h310 44.999c11.001 0 20 9 20 20 0 77-63 140-140 140h-159.999c-76.999 0-140-63.001-140-140 0-10.999 9-20 20-20z" fill="#fff" fill-rule="evenodd"/><g><path d="m315.006 105.001h-.007c-5.522 0-10-4.477-10-10s4.478-10 10-10 10.004 4.477 10.004 10-4.475 10-9.997 10z" fill="#ffe0e6"/></g><g><path d="m227.006 199.001h-.007c-5.522 0-10-4.477-10-10s4.478-10 10-10 10.004 4.477 10.004 10-4.475 10-9.997 10z" fill="#ffe0e6"/></g><g><path d="m337.006 225.001h-.007c-5.522 0-10-4.477-10-10s4.478-10 10-10 10.004 4.477 10.004 10-4.475 10-9.997 10z" fill="#ffe0e6"/></g><g><path d="m392.006 307.001h-.007c-5.522 0-10-4.477-10-10s4.478-10 10-10 10.004 4.477 10.004 10-4.475 10-9.997 10z" fill="#ffe0e6"/></g><g><path d="m238.006 307.001h-.007c-5.522 0-10-4.477-10-10s4.478-10 10-10 10.004 4.477 10.004 10-4.475 10-9.997 10z" fill="#ffe0e6"/></g><g><path d="m110.006 307.001h-.007c-5.522 0-10-4.477-10-10s4.478-10 10-10 10.004 4.477 10.004 10-4.475 10-9.997 10z" fill="#ffe0e6"/></g><path clip-rule="evenodd" d="m346.001 402.001h-20.579-289.141c4.335 14.436 10.949 27.91 19.421 40h269.72 20.579 104.72c8.472-12.09 15.086-25.564 19.421-40z" fill="#e3eaef" fill-rule="evenodd"/></g><path d="m456 332.001h-2.605c7.87-9.516 12.605-21.715 12.605-35 0-27.949-20.953-51.095-47.976-54.554 8.092-9.579 12.977-21.954 12.977-35.446 0-27.595-20.43-50.509-46.957-54.414 9.102-10.456 15.09-24.647 16.771-41.361 2.313-23.006-4.229-47.382-17.943-66.877-15.978-22.71-40.487-37.977-70.879-44.148-5.182-1.052-10.282 2.108-11.649 7.212-10.784 40.248-73.887 54.588-129.345 54.588-30.327 0-55 24.673-55 55 0 13.494 4.883 25.867 12.977 35.446-27.024 3.46-47.976 26.606-47.976 54.554 0 13.494 4.883 25.867 12.977 35.446-27.022 3.459-47.975 26.605-47.975 54.554 0 13.285 4.735 25.484 12.605 35h-2.606c-16.542 0-30 13.458-30 30 0 82.71 67.29 150 150 150h159.999c82.71 0 150-67.29 150-150 0-16.542-13.458-30-30-30zm-389.998-35c0-19.299 15.7-35 34.999-35h173.997c5.522 0 10-4.477 10-10s-4.478-10-10-10h-138.999c-19.299 0-34.999-15.701-34.999-35s15.7-35 34.999-35h34.999c5.522 0 10-4.477 10-10s-4.478-10-10-10c-19.299 0-35-15.701-35-35s15.701-35 35-35c23.672 0 58.396-2.38 89.396-13.721 28.472-10.416 47.284-26.014 56.066-46.446 48.868 13.683 67.808 54.031 64.454 87.392-1.983 19.732-13.626 42.775-39.912 42.775h-51.003c-5.522 0-10 4.477-10 10s4.478 10 10 10h86.002c19.299 0 35 15.701 35 35s-15.701 35-35 35c-5.522 0-10 4.477-10 10s4.478 10 10 10h35c19.299 0 34.999 15.701 34.999 35s-15.7 35-34.999 35h-310c-19.299 0-34.999-15.701-34.999-35zm269.998 195h-159.999c-71.683 0-130-58.318-130-130 0-5.514 4.486-10 10-10h399.999c5.514 0 10 4.486 10 10 0 71.683-58.317 130-130 130z" fill="#ff7d97"/></g></svg>