<svg id="Layer_1" enable-background="new 0 0 512 512" height="512" viewBox="0 0 512 512" width="512" xmlns="http://www.w3.org/2000/svg"><g><g><g clip-rule="evenodd" fill-rule="evenodd"><path d="m461 376.035h-410-21c-11 0-20 8.995-20 19.988 0 21.988 18.001 39.977 40 39.977h412c21.999 0 40-17.989 40-39.976 0-10.994-9-19.988-20-19.988h-21z" fill="#fffbe1"/><path d="m26 351.05c0 13.742 11.25 24.985 25 24.985h410c13.75 0 25-11.243 25-24.985s-11.25-24.985-25-24.985c-16.51 0-17.657-9.994-34.167-9.994s-17.657 9.994-34.167 9.994-17.657-9.994-34.167-9.994-17.657 9.994-34.167 9.994c-16.509 0-17.657-9.994-34.167-9.994s-17.657 9.994-34.167 9.994-17.657-9.994-34.167-9.994-17.657 9.994-34.167 9.994-17.657-9.994-34.167-9.994-17.657 9.994-34.167 9.994c-16.509 0-17.657-9.994-34.167-9.994-16.509 0-17.657 9.994-34.166 9.994-13.747-.001-24.997 11.242-24.997 24.985z" fill="#e0ef9b"/><path d="m187.666 234.354c16.51 0 17.657 9.994 34.167 9.994s17.657-9.994 34.167-9.994 17.657 9.994 34.167 9.994 17.657-9.994 34.167-9.994 17.657 9.994 34.167 9.994 17.657-9.994 34.167-9.994 17.657 9.994 34.167 9.994 17.657-9.994 34.167-9.994c13.75 0 25-11.243 25-24.985 0-8.707-4.518-16.409-11.325-20.885-11.848 5.417-26.141 7.515-39.915 7.515h-178.762-178.76c-13.774 0-28.067-2.098-39.915-7.515-6.807 4.476-11.325 12.178-11.325 20.885 0 13.742 11.25 24.985 25 24.985 16.51 0 17.657 9.994 34.166 9.994 16.51 0 17.658-9.994 34.167-9.994 16.51 0 17.657 9.994 34.167 9.994 16.509.001 17.657-9.994 34.166-9.994z" fill="#ff9eb1"/><path d="m77.24 195.999h178.76 178.76c13.774 0 28.067-2.098 39.915-7.515 15.851-7.247 27.325-20.434 27.325-42.484 0-38.66-44.772-70-100-70-28.801 0-54.753 8.526-73 22.165-18.247-13.639-44.199-22.165-73-22.165s-54.753 8.526-73 22.165c-18.247-13.639-44.199-22.165-73-22.165-55.228 0-100 31.34-100 70 0 22.05 11.474 35.237 27.325 42.484 11.847 5.417 26.14 7.515 39.915 7.515z" fill="#fffbe1"/></g><g><path d="m76.501 155.354c-5.522 0-10.004-4.477-10.004-10s4.474-10 9.996-10h.008c5.522 0 10 4.477 10 10s-4.478 10-10 10z" fill="#ffe6b4"/></g><g><path d="m127.501 128.354c-5.522 0-10.004-4.477-10.004-10s4.474-10 9.996-10h.008c5.522 0 10 4.477 10 10s-4.478 10-10 10z" fill="#ffe6b4"/></g><g><path d="m217.501 155.354c-5.522 0-10.004-4.477-10.004-10s4.475-10 9.997-10h.007c5.522 0 10 4.477 10 10s-4.478 10-10 10z" fill="#ffe6b4"/></g><g><path d="m280.501 128.354c-5.522 0-10.004-4.477-10.004-10s4.475-10 9.997-10h.007c5.522 0 10 4.477 10 10s-4.478 10-10 10z" fill="#ffe6b4"/></g><g><path d="m384.501 158.354c-5.522 0-10.004-4.477-10.004-10s4.475-10 9.997-10h.007c5.522 0 10 4.477 10 10s-4.478 10-10 10z" fill="#ffe6b4"/></g><g><path d="m440.501 127.354c-5.522 0-10.004-4.477-10.004-10s4.475-10 9.997-10h.007c5.522 0 10 4.477 10 10s-4.478 10-10 10z" fill="#ffe6b4"/></g><path clip-rule="evenodd" d="m461 326.064c42.907-22.204 35.903-71.387 0-91.71-16.51 0-17.657 9.994-34.167 9.994s-17.657-9.994-34.167-9.994-17.657 9.994-34.167 9.994-17.657-9.994-34.167-9.994c-16.509 0-17.657 9.994-34.167 9.994s-17.657-9.994-34.167-9.994-17.657 9.994-34.167 9.994-17.657-9.994-34.167-9.994-17.657 9.994-34.167 9.994-17.657-9.994-34.167-9.994c-16.509 0-17.657 9.994-34.167 9.994-16.509 0-17.657-9.994-34.166-9.994-35.903 20.322-42.907 69.506 0 91.71 16.51 0 17.657-9.994 34.166-9.994 16.51 0 17.658 9.994 34.167 9.994 16.51 0 17.657-9.994 34.167-9.994s17.657 9.994 34.167 9.994 17.657-9.994 34.167-9.994 17.657 9.994 34.167 9.994 17.657-9.994 34.167-9.994 17.657 9.994 34.167 9.994 17.657-9.994 34.167-9.994 17.657 9.994 34.167 9.994 17.657-9.994 34.167-9.994 17.657 9.994 34.167 9.994z" fill="#ddb9a3" fill-rule="evenodd"/></g><path d="m491.785 367.682c2.687-4.95 4.215-10.616 4.215-16.632 0-11.311-5.402-21.379-13.757-27.778 11.556-10.888 18.07-24.922 18.36-40.371.314-16.756-6.683-32.962-18.965-45.299 8.699-6.372 14.362-16.652 14.362-28.233 0-6.666-1.932-13.095-5.407-18.603 13.843-10.318 21.407-25.557 21.407-44.766 0-22.055-11.917-42.543-33.555-57.69-20.552-14.387-47.702-22.31-76.445-22.31-27.303 0-52.921 7.059-73 19.999-20.079-12.94-45.697-19.999-73-19.999s-52.921 7.059-73 19.999c-20.079-12.94-45.697-19.999-73-19.999-28.743 0-55.892 7.923-76.445 22.31-21.638 15.147-33.555 35.635-33.555 57.69 0 19.214 7.568 34.455 21.417 44.774-3.478 5.521-5.417 11.963-5.417 18.595 0 11.581 5.663 21.861 14.362 28.232-12.281 12.337-19.278 28.542-18.964 45.298.29 15.449 6.803 29.483 18.359 40.371-8.355 6.401-13.757 16.469-13.757 27.78 0 6.016 1.528 11.682 4.215 16.632-11.751 4.065-20.215 15.23-20.215 28.341 0 27.558 22.43 49.977 50 49.977h412c27.57 0 50-22.419 50-49.977 0-13.111-8.464-24.276-20.215-28.341zm-440.785-1.647c-8.271 0-15-6.723-15-14.985 0-8.256 6.717-14.972 14.978-14.984.005 0 .01.001.014.001.013 0 .025-.003.038-.003 10.87-.007 17.03-3.492 21.979-6.294 3.937-2.228 6.536-3.7 12.157-3.7 5.622 0 8.223 1.472 12.159 3.7 4.954 2.804 11.12 6.294 22.008 6.294 10.889 0 17.055-3.49 22.01-6.294 3.936-2.228 6.536-3.7 12.157-3.7s8.221 1.472 12.157 3.7c4.954 2.804 11.12 6.294 22.009 6.294 10.89 0 17.056-3.49 22.01-6.294 3.937-2.228 6.536-3.7 12.157-3.7s8.222 1.472 12.157 3.7c4.955 2.804 11.121 6.294 22.01 6.294s17.055-3.49 22.01-6.294c3.936-2.228 6.536-3.7 12.157-3.7s8.222 1.472 12.157 3.7c4.955 2.804 11.121 6.294 22.009 6.294 10.89 0 17.056-3.49 22.01-6.294 3.937-2.228 6.536-3.7 12.157-3.7s8.222 1.472 12.157 3.7c4.955 2.804 11.121 6.294 22.01 6.294s17.055-3.49 22.01-6.294c3.936-2.228 6.536-3.7 12.157-3.7s8.221 1.472 12.157 3.7c4.949 2.802 11.109 6.287 21.979 6.294.013 0 .025.003.038.003.005 0 .01-.001.014-.001 8.261.012 14.978 6.729 14.978 14.984 0 8.263-6.729 14.985-15 14.985zm12.157-117.981c4.954 2.804 11.12 6.294 22.009 6.294 10.89 0 17.056-3.49 22.011-6.294 3.936-2.228 6.536-3.7 12.156-3.7 5.621 0 8.222 1.472 12.157 3.7 4.955 2.804 11.121 6.294 22.01 6.294s17.055-3.49 22.009-6.294c3.937-2.228 6.536-3.7 12.157-3.7 5.622 0 8.222 1.472 12.158 3.7 4.954 2.804 11.12 6.294 22.009 6.294s17.055-3.49 22.01-6.294c3.936-2.228 6.536-3.7 12.157-3.7s8.222 1.472 12.157 3.7c4.955 2.804 11.121 6.294 22.01 6.294s17.055-3.49 22.01-6.294c3.936-2.228 6.536-3.7 12.156-3.7 5.622 0 8.222 1.472 12.158 3.7 4.954 2.804 11.12 6.294 22.009 6.294s17.055-3.49 22.01-6.294c3.936-2.228 6.536-3.7 12.157-3.7s8.222 1.472 12.157 3.7c4.955 2.804 11.121 6.294 22.01 6.294s17.055-3.49 22.009-6.294c3.282-1.857 5.64-3.186 9.589-3.577 14.017 8.892 22.452 23.248 22.174 38.048-.257 13.697-8.045 25.485-21.979 33.435-4.066-.367-6.449-1.708-9.784-3.595-4.954-2.804-11.12-6.294-22.009-6.294s-17.055 3.49-22.01 6.294c-3.936 2.228-6.536 3.7-12.157 3.7s-8.222-1.472-12.157-3.7c-4.955-2.805-11.121-6.294-22.01-6.294s-17.055 3.49-22.009 6.294c-3.937 2.228-6.536 3.7-12.158 3.7-5.62 0-8.221-1.472-12.156-3.7-4.955-2.804-11.121-6.294-22.01-6.294s-17.055 3.49-22.01 6.294c-3.936 2.228-6.536 3.7-12.157 3.7s-8.222-1.472-12.157-3.7c-4.955-2.805-11.121-6.294-22.01-6.294s-17.055 3.49-22.009 6.294c-3.937 2.228-6.536 3.7-12.158 3.7-5.621 0-8.221-1.472-12.157-3.7-4.954-2.804-11.12-6.294-22.009-6.294s-17.055 3.49-22.01 6.294c-3.936 2.228-6.536 3.7-12.157 3.7-5.62 0-8.221-1.472-12.156-3.7-4.955-2.804-11.121-6.294-22.011-6.294-10.889 0-17.055 3.49-22.009 6.294-3.335 1.888-5.718 3.229-9.784 3.595-13.934-7.95-21.722-19.738-21.979-33.435-.278-14.801 8.158-29.156 22.174-38.048 3.949.392 6.308 1.72 9.589 3.577zm-18.133-143.359c17.223-12.056 40.298-18.695 64.976-18.695 25.435 0 49.86 7.354 67.013 20.175 3.551 2.653 8.424 2.653 11.975 0 17.152-12.821 41.577-20.175 67.012-20.175s49.86 7.354 67.013 20.175c3.551 2.653 8.424 2.653 11.975 0 17.152-12.821 41.577-20.175 67.012-20.175 24.679 0 47.754 6.639 64.976 18.695 16.137 11.296 25.024 25.965 25.024 41.305 0 34.803-35.862 40-57.239 40h-357.522c-21.377 0-57.239-5.197-57.239-40 0-15.34 8.887-30.009 25.024-41.305zm32.215 101.305h357.521c14.501 0 27.235-2.031 37.979-5.867 2.072 2.618 3.261 5.853 3.261 9.237 0 8.263-6.729 14.985-15 14.985-10.889 0-17.055 3.49-22.009 6.294-3.937 2.228-6.536 3.7-12.157 3.7s-8.222-1.472-12.157-3.7c-4.955-2.804-11.121-6.294-22.01-6.294s-17.055 3.49-22.01 6.294c-3.936 2.228-6.536 3.7-12.157 3.7s-8.221-1.472-12.157-3.7c-4.954-2.804-11.12-6.294-22.01-6.294-10.888 0-17.054 3.49-22.009 6.294-3.936 2.228-6.536 3.7-12.157 3.7s-8.222-1.472-12.157-3.7c-4.955-2.804-11.121-6.294-22.01-6.294s-17.055 3.49-22.01 6.294c-3.936 2.228-6.536 3.7-12.157 3.7s-8.221-1.472-12.157-3.7c-4.954-2.804-11.12-6.294-22.01-6.294-10.889 0-17.055 3.49-22.009 6.294-3.937 2.228-6.536 3.7-12.157 3.7s-8.222-1.472-12.157-3.7c-4.955-2.804-11.121-6.294-22.01-6.294-10.888 0-17.054 3.49-22.008 6.294-3.937 2.228-6.537 3.7-12.159 3.7-5.621 0-8.221-1.472-12.157-3.7-4.954-2.804-11.12-6.294-22.009-6.294-8.271 0-15-6.723-15-14.985 0-3.365 1.188-6.614 3.259-9.237 10.744 3.836 23.478 5.867 37.98 5.867zm384.761 220h-412c-16.542 0-30-13.447-30-29.977 0-5.507 4.486-9.988 10-9.988h452c5.514 0 10 4.481 10 9.988 0 16.53-13.458 29.977-30 29.977z" fill="#c68a86"/></g></svg>