<svg id="Layer_1" enable-background="new 0 0 512.086 512.086" height="512" viewBox="0 0 512.086 512.086" width="512" xmlns="http://www.w3.org/2000/svg"><g><g clip-rule="evenodd" fill-rule="evenodd"><path d="m136.565 336.905 38.616 38.616 37.26 37.261c15.557 15.557 41.012 15.557 56.568 0l197.99-197.99c46.669-46.669 46.669-123.036 0-169.706-46.669-46.669-123.036-46.669-169.706 0l-197.99 197.99c-15.556 15.557-15.556 41.012 0 56.569z" fill="#eaf5bc"/><path d="m175.181 375.521-38.616-38.616-117.743 113.933c-11.858 11.474-11.667 30.759 0 42.426s30.952 11.857 42.426 0z" fill="#fff"/><g fill="#b8ecbc"><path d="m198.299 257.218c7.778 7.779 20.506 7.779 28.284 0l141.422-141.422c7.778-7.778 7.778-20.506 0-28.284-7.779-7.778-20.506-7.778-28.284 0l-141.423 141.422c-7.778 7.778-7.778 20.506.001 28.284z"/><path d="m396.29 144.082-141.422 141.421c-7.778 7.778-7.778 20.506 0 28.284 7.778 7.779 20.505 7.779 28.284 0l141.422-141.422c7.778-7.778 7.778-20.505 0-28.284-7.779-7.778-20.506-7.778-28.284.001z"/></g></g><path d="m474.071 38.015c-50.687-50.687-133.16-50.686-183.848 0l-197.991 197.99c-19.495 19.495-19.495 51.216 0 70.71l30.073 30.073-110.436 106.863c-7.565 7.32-11.779 17.229-11.867 27.901-.088 10.736 4.194 21.227 11.75 28.783 7.479 7.479 17.833 11.75 28.456 11.75.108 0 .218 0 .326-.001 10.673-.088 20.582-4.302 27.902-11.866l106.863-110.437 30.072 30.072c9.413 9.413 21.969 14.596 35.355 14.596s25.943-5.184 35.355-14.596l197.99-197.99c50.686-50.687 50.686-133.161 0-183.848zm-420.009 448.295c-3.562 3.681-8.425 5.731-13.693 5.775-5.388.048-10.687-2.104-14.475-5.893-3.79-3.789-5.937-9.065-5.893-14.475.043-5.269 2.094-10.132 5.775-13.693l110.673-107.091 24.704 24.704zm405.866-278.589-197.99 197.99c-5.635 5.635-13.168 8.738-21.213 8.738s-15.578-3.104-21.213-8.739l-113.137-113.137c-5.635-5.635-8.738-13.168-8.738-21.213s3.103-15.578 8.738-21.213l197.99-197.99c21.444-21.444 49.613-32.167 77.782-32.167 28.168 0 56.337 10.722 77.781 32.167l7.072-7.071-7.071 7.071c42.888 42.889 42.888 112.675-.001 155.564z" fill="#5cd0b3"/></g></svg>