<svg id="Layer_1" enable-background="new 0 0 512 512" height="512" viewBox="0 0 512 512" width="512" xmlns="http://www.w3.org/2000/svg"><g><g clip-rule="evenodd" fill-rule="evenodd"><path d="m322 125.647c-18.935-12.493-41.618-19.765-66-19.765-4.21 0-8.368.217-12.466.64-60.416 6.236-107.534 57.296-107.534 119.361h40c0-44.183 35.817-80 80-80s80 35.817 80 80h40c0-41.893-21.466-78.771-54-100.236z" fill="#fffbe1"/><path d="m336 225.883c0-44.183-35.817-80-80-80s-80 35.817-80 80h40c0-22.091 17.909-40 40-40s40 17.909 40 40z" fill="#fff2a0"/><path d="m428 225.883c-18.935-12.493-41.618-19.765-66-19.765-4.209 0-8.368.217-12.466.64-60.416 6.235-107.534 57.295-107.534 119.36h40c0-44.183 35.817-80 80-80s80 35.817 80 80h40c0-41.892-21.466-78.771-54-100.235z" fill="#fffbe1"/><path d="m442 326.118c0-44.183-35.817-80-80-80s-80 35.817-80 80h40c0-22.091 17.909-40 40-40s40 17.909 40 40z" fill="#fff2a0"/><path d="m402 326.118c0-22.091-17.909-40-40-40s-40 17.909-40 40z" fill="#fffbe1"/><path d="m216 225.883c-18.935-12.493-41.618-19.765-66-19.765-4.209 0-8.368.217-12.466.64-60.416 6.235-107.534 57.295-107.534 119.36h40c0-44.183 35.817-80 80-80s80 35.817 80 80h40c0-41.892-21.467-78.771-54-100.235z" fill="#fffbe1"/><path d="m230 326.118c0-44.183-35.817-80-80-80s-80 35.817-80 80h40c0-22.091 17.909-40 40-40s40 17.909 40 40z" fill="#fff2a0"/><path d="m190 326.118c0-22.091-17.909-40-40-40s-40 17.909-40 40z" fill="#fffbe1"/><path d="m216 225.883c16.732 11.039 30.537 26.156 40 43.935 3.772-7.087 8.233-13.75 13.296-19.901 4.354-5.298 9.132-10.183 14.269-14.619 3.931-3.398 8.084-6.544 12.436-9.415 0-22.091-17.909-40-40-40-22.092 0-40.001 17.908-40.001 40z" fill="#fffbe1"/><path d="m270 326.118h-28-12-40-80-40-40c-11 0-20 9-20 20s9 20 20 20h452c11 0 20-9 20-20s-9-20-20-20h-40-40-80-40z" fill="#fff"/><path d="m482 366.118h-452l20.001 39.999h411.998z" fill="#e3eaef"/></g><path d="m512 346.118c0-13.136-8.491-24.32-20.27-28.371-2.034-31.986-15.607-61.745-38.612-84.351-19.415-19.079-43.808-31.346-70.193-35.599-13.099-59.362-65.659-101.914-126.925-101.914s-113.826 42.552-126.926 101.913c-26.385 4.253-50.777 16.52-70.193 35.599-23.005 22.607-36.578 52.365-38.612 84.351-11.778 4.052-20.269 15.235-20.269 28.372 0 14.294 10.052 26.277 23.456 29.272l17.601 35.2c1.694 3.388 5.157 5.528 8.944 5.528h411.999c3.788 0 7.25-2.14 8.944-5.528l17.6-35.2c13.404-2.995 23.456-14.978 23.456-29.272zm-40.459-30h-191.931c-1.228-16.153-5.403-31.712-12.255-46.042 19.752-33.361 55.72-53.958 94.644-53.958 56.887 0 104.42 44.164 109.542 100zm-215.541-200.235c49.751 0 92.709 33.167 105.889 80.237-42.333.036-81.69 20.688-105.867 54.731-4.407-6.184-9.381-12.028-14.905-17.456-24.436-24.013-56.752-37.247-91.008-37.276 13.182-47.07 56.14-80.236 105.891-80.236zm-106 100.235c56.886 0 104.419 44.164 109.541 100h-219.082c5.123-55.836 52.655-100 109.541-100zm305.819 179.999h-399.638l-10-20h419.639zm26.181-40h-452c-5.514 0-10-4.486-10-10s4.486-10 10-10h452c5.514 0 10 4.486 10 10 0 5.515-4.486 10-10 10z" fill="#ffc144"/></g></svg>