<svg id="Layer_1" enable-background="new 0 0 512 512" height="512" viewBox="0 0 512 512" width="512" xmlns="http://www.w3.org/2000/svg"><g><g clip-rule="evenodd" fill-rule="evenodd"><path d="m273.541 115.614c6.857 1.833 13.327 5.11 18.555 9.604l16.816-62.759c9.429-.738 17.8-7.296 20.387-16.951 3.282-12.248-3.987-24.837-16.234-28.119-4.559-1.221-9.165-.98-13.321.434-2.892-3.303-6.76-5.815-11.319-7.036-12.247-3.282-24.837 3.987-28.119 16.234-2.587 9.655 1.384 19.522 9.181 24.874l-16.815 62.756c6.773-1.275 14.014-.877 20.869.963z" fill="#fff"/><path d="m292.097 125.215c-5.229-4.492-11.699-7.768-18.556-9.601-6.855-1.84-14.096-2.238-20.869-.963-12.402 2.335-23.234 10.278-27.243 25.241-11.708 43.695-29.579 32.114-39.648 60.809 12.545 8.243 23.027 6.766 35.235 27.912 4.093 7.089 6.631 14.694 7.681 22.388h17.38c-3.371-18.997 2.58-39.02 17.011-53.45 15.271-15.272 24.657-13.797 36.482-16.516.272-5.541 1.304-12.15 3.498-20.338 4.01-14.964-1.399-27.259-10.971-35.482z" fill="#f3c9a6"/><path d="m131.007 157.821-32.487-56.267c6.146-7.188 7.428-17.746 2.43-26.403-6.34-10.981-20.382-14.744-31.362-8.404-4.088 2.36-7.174 5.787-9.112 9.726-4.38-.291-8.892.668-12.979 3.028-10.981 6.34-14.743 20.381-8.403 31.363 4.998 8.657 14.782 12.825 24.08 11.097l32.485 56.266c3.888-5.691 9.29-10.531 15.438-14.077 6.144-3.551 13.036-5.81 19.91-6.329z" fill="#fff"/><path d="m131.005 157.819c-6.873.521-13.765 2.78-19.909 6.332-6.149 3.545-11.551 8.385-15.438 14.077-7.118 10.42-9.16 23.696-1.415 37.111 9.652 16.719 11.39 27.11 11.236 35.662h123.218c-1.051-7.694-3.589-15.299-7.681-22.388-12.208-21.146-22.69-19.669-35.235-27.912-6.564-4.312-13.692-11.286-21.928-25.551-7.746-13.416-20.264-18.285-32.848-17.331z" fill="#ffe9da"/><path d="m299.571 181.034c-11.826 2.718-21.211 1.244-36.483 16.515-14.431 14.431-20.382 34.454-17.011 53.45h122.372c1.883-8.75 5.812-18.744 20.528-33.461 3.762-3.763 6.405-7.808 8.084-11.98 3.209-7.975 2.897-16.415.154-24.232-2.282-6.504-6.247-12.577-11.269-17.593-5.016-5.021-11.088-8.986-17.591-11.269-11.908-4.179-25.26-2.716-36.214 8.238-14.219 14.22-24.031 18.37-32.57 20.332z" fill="#ffe9da"/><path d="m388.978 217.539c-14.717 14.716-18.645 24.711-20.528 33.461h62.563c5-17.824-8.249-42.941-33.951-45.441-1.679 4.172-4.322 8.218-8.084 11.98z" fill="#f3c9a6"/><g fill="#fff"><path d="m385.947 163.734c5.022 5.016 8.987 11.089 11.267 17.595l45.943-45.943c8.534 4.076 19.064 2.581 26.132-4.487 8.966-8.966 8.966-23.503 0-32.469-3.337-3.337-7.447-5.431-11.753-6.284-.853-4.306-2.947-8.416-6.284-11.753-8.966-8.966-23.503-8.966-32.469 0-7.068 7.068-8.563 17.598-4.486 26.132l-45.94 45.941c6.501 2.281 12.574 6.247 17.59 11.268z"/><path d="m431.013 251h-62.563-122.373-17.38-123.218-24.466c-13.75 0-25 11.25-25 25s11.25 25 25 25h67.851 65.5 78.041 65.5 67.851 5.258c13.75 0 25-11.25 25-25-.001-13.751-11.251-25-25.001-25z"/><path d="m425.755 301h-67.851l-6.734 201h44.584c10.999 0 19.393-9.017 20-20z"/></g><path d="m351.17 502 6.734-201h-65.5l-2.514 201z" fill="#99ebfa"/><path d="m289.89 502 2.514-201h-78.04l2.514 201z" fill="#fff"/><path d="m216.878 502-2.514-201h-65.501l6.734 201z" fill="#99ebfa"/><path d="m155.597 502-6.734-201h-67.85l10 181c.607 10.983 9 20 20 20z" fill="#fff"/></g><path d="m476.36 137.97c12.85-12.851 12.85-33.76-.001-46.612-3.126-3.125-6.801-5.562-10.829-7.207-1.645-4.029-4.082-7.704-7.208-10.829-6.225-6.226-14.502-9.654-23.306-9.654s-17.08 3.428-23.306 9.653c-8.08 8.08-11.275 19.664-8.859 30.505l-37.454 37.454c-1.391-.289-2.787-.518-4.187-.678-13.366-1.534-26.203 3.092-36.141 13.03-4.791 4.791-8.933 8.257-12.641 10.812.1-.387.194-.767.299-1.161 3.638-13.575 1.227-27.003-6.786-37.813-.839-1.132-1.735-2.227-2.68-3.286l13.709-51.164c10.598-3.328 19.031-11.887 21.988-22.925 4.704-17.554-5.75-35.662-23.306-40.367-4.271-1.144-8.671-1.417-12.982-.827-3.439-2.667-7.388-4.63-11.657-5.774-17.552-4.704-35.662 5.751-40.366 23.306-2.958 11.038.067 22.667 7.58 30.848l-13.709 51.163c-1.349.445-2.672.945-3.965 1.506-12.345 5.355-21.146 15.779-24.784 29.354-5.772 21.544-12.626 27.202-19.882 33.192-4.36 3.6-9.109 7.535-13.36 14.063-3.096-3.519-6.393-8.137-10.015-14.411-7.027-12.171-18.227-19.962-31.537-21.939-1.394-.207-2.802-.348-4.22-.429l-26.484-45.871c5.14-9.846 5.051-21.863-.662-31.759-4.402-7.624-11.51-13.078-20.013-15.356-8.504-2.279-17.386-1.11-25.01 3.293-3.829 2.21-7.134 5.129-9.766 8.595-4.317.546-8.498 1.949-12.325 4.159-7.625 4.402-13.078 11.509-15.357 20.013-2.278 8.504-1.109 17.386 3.292 25.009 5.713 9.896 16.075 15.982 27.172 16.454l26.484 45.872c-.639 1.268-1.221 2.558-1.738 3.868-4.943 12.515-3.795 26.11 3.231 38.281 5.167 8.949 7.659 15.562 8.852 20.662h-13.418c-19.299 0-35 15.701-35 35 0 15.993 10.787 29.505 25.464 33.669l9.552 172.884c.912 16.512 14.083 29.447 29.984 29.447h284.742c15.902 0 29.073-12.935 29.984-29.448l9.493-171.816c17.315-2.091 30.781-16.867 30.781-34.737 0-15.446-10.062-28.578-23.972-33.209-.078-8.709-2.841-17.746-8.031-25.596-6.091-9.211-14.734-15.823-24.889-19.224.33-3.115.326-6.291-.043-9.5-.161-1.399-.389-2.795-.678-4.185l37.455-37.455c10.836 2.416 22.423-.78 30.505-8.86zm-137.147 29.804c5.693-5.694 12.327-8.149 19.717-7.302 6.909.793 14.178 4.559 19.95 10.337 5.771 5.765 9.536 13.034 10.329 19.943.849 7.389-1.608 14.022-7.303 19.717-12.879 12.88-18.298 22.839-21.023 30.532h-105.722c-.155-13.522 5.132-26.513 14.999-36.38 10.053-10.053 16.076-11.064 24.412-12.464 10.848-1.823 24.348-4.09 44.641-24.383zm-69.247-138.165c1.85-6.902 8.979-11.011 15.871-9.164 2.489.667 4.697 2.039 6.386 3.966 2.668 3.046 6.91 4.184 10.744 2.878 2.423-.824 5.021-.907 7.51-.242 6.902 1.85 11.014 8.97 9.164 15.872-1.419 5.297-6.044 9.143-11.508 9.57-4.226.331-7.783 3.288-8.88 7.381l-13.304 49.652c-3.112-1.447-6.393-2.651-9.815-3.566-3.425-.92-6.871-1.518-10.292-1.821l13.304-49.652c1.097-4.094-.506-8.434-3.999-10.833-4.518-3.101-6.6-8.744-5.181-14.041zm-61.345 156.31c8.483-7.003 19.04-15.719 26.467-43.439 2.084-7.778 6.601-13.223 13.424-16.182 6.379-2.769 14.557-3.142 22.446-1.023 7.881 2.107 14.775 6.52 18.917 12.106 4.43 5.975 5.619 12.948 3.535 20.726-1.393 5.196-2.399 9.984-3.043 14.476-9.47 1.601-20.22 3.767-34.349 17.896-12.425 12.425-19.636 28.441-20.728 45.37-1.473-4.22-3.347-8.309-5.614-12.236-10.307-17.852-20.435-22.475-29.372-26.553-.523-.239-1.045-.477-1.565-.718 2.734-4.51 5.919-7.151 9.882-10.423zm-147.275-73.789c-5.389.997-10.851-1.517-13.593-6.266-1.73-2.998-2.19-6.49-1.294-9.833.896-3.344 3.04-6.138 6.038-7.869 2.231-1.289 4.76-1.882 7.317-1.71 4.037.262 7.845-1.928 9.634-5.563 1.131-2.297 2.908-4.193 5.141-5.481 6.188-3.572 14.129-1.444 17.702 4.743 2.742 4.75 2.191 10.739-1.37 14.905-2.754 3.221-3.179 7.828-1.06 11.499l25.701 44.516c-3.223 1.177-6.394 2.646-9.46 4.419-3.073 1.772-5.933 3.786-8.566 5.991l-25.702-44.516c-2.12-3.673-6.322-5.612-10.488-4.835zm41.557 98.208c-4.026-6.974-4.682-14.017-1.95-20.935 2.555-6.469 8.073-12.515 15.149-16.595 7.063-4.083 15.061-5.836 21.936-4.816 7.357 1.093 13.129 5.183 17.155 12.156 14.349 24.854 26.802 30.538 36.809 35.104 7.69 3.51 13.246 6.046 20.354 18.359 1.377 2.385 2.541 4.854 3.512 7.388h-101.082c-1.459-9.432-5.268-19.203-11.883-30.661zm292.852 281.662h-284.742c-5.377 0-9.683-4.536-10.015-10.551l-9.417-170.449h323.607l-9.417 170.449c-.334 6.015-4.639 10.551-10.016 10.551zm35.257-201h-350c-8.271 0-15-6.729-15-15s6.729-15 15-15h349.969c.012 0 .024.002.036.002.008 0 .016-.001.024-.001 8.258.016 14.971 6.737 14.971 14.999 0 8.271-6.728 15-15 15zm-13.685-62.775c2.629 3.976 4.22 8.48 4.626 12.775h-39.1c2.57-4.463 6.591-9.785 13.195-16.39 2.436-2.436 4.548-5.048 6.333-7.798 8.02 2.584 12.705 8.024 14.946 11.413zm18.759-99.911-36.348 36.347c-1.971-2.809-4.21-5.492-6.716-7.995-2.506-2.509-5.192-4.75-8.003-6.723l36.347-36.348c2.996-2.997 3.779-7.557 1.952-11.381-2.362-4.945-1.344-10.873 2.534-14.75 2.447-2.448 5.702-3.796 9.163-3.796 3.462 0 6.716 1.348 9.164 3.797 1.822 1.821 3.048 4.111 3.545 6.623.787 3.974 3.893 7.081 7.866 7.868 2.513.498 4.804 1.724 6.626 3.545 5.053 5.053 5.053 13.274 0 18.327-3.878 3.877-9.808 4.895-14.751 2.535-3.821-1.827-8.381-1.044-11.379 1.951z" fill="#c68a86"/></g></svg>