<svg id="Layer_1" enable-background="new 0 0 512.001 512.001" height="512" viewBox="0 0 512.001 512.001" width="512" xmlns="http://www.w3.org/2000/svg"><g><g><g><g><path clip-rule="evenodd" d="m300.364 159.084c22.316 11.93 40.621 30.235 52.552 52.55l.008-.018c2.407-15.029 9.741-30.734 26.005-46.529 1.117-1.085 2.247-2.182 3.39-3.292 11.053-10.734 23.27-22.598 36.045-35.005 24.797-24.081 51.7-50.207 76.296-74.093 9.923-9.637 9.654-25.701-.001-35.355-9.654-9.654-25.718-9.924-35.355 0-23.886 24.596-50.012 51.499-74.093 76.296-12.407 12.775-24.271 24.992-35.005 36.045-1.11 1.143-2.207 2.273-3.292 3.39-15.795 16.264-31.501 23.597-46.53 26.005z" fill="#ffe6b4" fill-rule="evenodd"/></g><g><path clip-rule="evenodd" d="m382.318 161.795c24.381 31.483 37.682 70.236 37.682 110.206 0 99.411-80.589 180-180 180s-180-80.589-180-180 80.589-180 180-180c39.995 0 78.742 13.319 110.204 37.683 10.735-11.054 22.599-23.271 35.007-36.047-40.94-33.332-92.206-51.636-145.211-51.636-127.026 0-230 102.974-230 230s102.974 230 230 230 230-102.974 230-230c0-52.947-18.268-104.222-51.638-145.21-12.775 12.407-24.991 24.27-36.044 35.004z" fill="#fff" fill-rule="evenodd"/></g><g><path clip-rule="evenodd" d="m352.916 211.634c-11.93-22.315-30.236-40.62-52.552-52.55l.02-.007c15.029-2.408 30.735-9.741 46.53-26.005 1.084-1.117 2.181-2.246 3.29-3.388-31.462-24.364-70.209-37.683-110.204-37.683-99.411 0-180 80.589-180 180s80.589 180 180 180 180-80.589 180-180c0-39.97-13.301-78.723-37.681-110.206-1.142 1.11-2.273 2.207-3.39 3.292-16.264 15.795-23.598 31.5-26.005 46.529z" fill="#fffbdf" fill-rule="evenodd"/></g><g><path clip-rule="evenodd" d="m281.569 309.895c-21.746-37.666-70.139-67.759-98.837-51.19-28.697 16.568-26.833 73.524-5.086 111.19 21.746 37.665 55.138 41.777 83.836 25.208 28.698-16.568 41.834-47.543 20.087-85.208zm-66.961 4.019c14.349-8.284 32.697-3.368 40.981 10.981 8.285 14.349 3.368 32.697-10.98 40.981-14.349 8.284-32.697 3.368-40.981-10.981-8.285-14.349-3.369-32.696 10.98-40.981z" fill="#fff" fill-rule="evenodd"/></g><g><ellipse clip-rule="evenodd" cx="229.608" cy="339.895" fill="#ffcd69" fill-rule="evenodd" rx="30" ry="30" transform="matrix(.982 -.189 .189 .982 -59.94 49.36)"/></g></g><g><path d="m116.108 306.895c-5.522 0-10.004-4.477-10.004-10s4.474-10 9.996-10h.008c5.522 0 10 4.477 10 10s-4.477 10-10 10z" fill="#ffe6b4"/></g><g><path d="m138.108 199.895c-5.522 0-10.004-4.477-10.004-10s4.474-10 9.996-10h.008c5.522 0 10 4.477 10 10s-4.477 10-10 10z" fill="#ffe6b4"/></g><g><path d="m219.108 215.895c-5.522 0-10.004-4.477-10.004-10s4.474-10 9.996-10h.008c5.522 0 10 4.477 10 10s-4.477 10-10 10z" fill="#ffe6b4"/></g><g><path d="m298.108 230.895c-5.522 0-10.004-4.477-10.004-10s4.475-10 9.997-10h.007c5.522 0 10 4.477 10 10s-4.477 10-10 10z" fill="#ffe6b4"/></g><g><path d="m322.108 290.895c-5.522 0-10.004-4.477-10.004-10s4.475-10 9.997-10h.007c5.522 0 10 4.477 10 10s-4.477 10-10 10z" fill="#ffe6b4"/></g><g><path d="m340.108 359.895c-5.522 0-10.004-4.477-10.004-10s4.475-10 9.997-10h.007c5.522 0 10 4.477 10 10s-4.477 10-10 10z" fill="#ffe6b4"/></g><g><path d="m208.108 149.895c-5.522 0-10.004-4.477-10.004-10s4.475-10 9.997-10h.007c5.522 0 10 4.477 10 10s-4.477 10-10 10z" fill="#ffe6b4"/></g></g><g><path d="m512 35.417c.068-9.385-3.675-18.55-10.27-25.146s-15.761-10.32-25.147-10.271c-9.339.068-18.023 3.753-24.453 10.374l-67.843 69.859c-41.44-31.156-92.327-48.232-144.287-48.232-64.106 0-124.376 24.964-169.706 70.294s-70.294 105.6-70.294 169.706 24.964 124.376 70.294 169.706 105.6 70.294 169.706 70.294 124.376-24.964 169.706-70.294 70.294-105.6 70.294-169.706c0-51.914-17.087-102.856-48.236-144.285l69.862-67.845c6.621-6.431 10.306-15.116 10.374-24.454zm-52 236.584c0 121.308-98.691 220-220 220s-220-98.692-220-220 98.691-220 220-220c46.785 0 92.621 15.101 130.233 42.704l-30.494 31.4c-11.91 12.265-24.334 19.653-37.887 22.525-8.27-4.159-17.01-7.519-26.127-9.962-5.336-1.431-10.817 1.737-12.247 7.071-1.43 5.335 1.736 10.818 7.071 12.248 40.603 10.88 72.585 42.862 83.465 83.465 1.197 4.468 5.237 7.414 9.653 7.414.856 0 1.728-.111 2.594-.343 5.335-1.429 8.501-6.913 7.071-12.248-2.443-9.117-5.803-17.857-9.962-26.127 2.872-13.552 10.26-25.976 22.525-37.887l31.405-30.499c27.596 37.606 42.7 83.495 42.7 130.239zm27.692-226.478-115.73 112.39c-9.929 9.643-17.298 19.707-22.26 30.401-7.478-9.784-16.232-18.538-26.016-26.016 10.694-4.961 20.758-12.33 30.401-22.26l112.391-115.73c2.67-2.749 6.311-4.279 10.252-4.308h.111c4.027 0 7.938 1.605 10.747 4.413 2.834 2.834 4.442 6.792 4.412 10.858-.028 3.941-1.559 7.582-4.308 10.252z" fill="#ff9346"/><g><path d="m229.489 414.373c-5.056 0-10.058-.609-14.958-1.834-18.207-4.554-33.956-17.57-45.545-37.643-11.531-19.973-18.152-45.655-17.711-68.698.51-26.655 9.906-46.597 26.457-56.152 16.55-9.555 38.521-7.722 61.858 5.163 20.177 11.139 39.107 29.714 50.639 49.688 11.589 20.073 14.987 40.22 9.828 58.265-4.755 16.627-16.365 30.667-33.575 40.604-12.182 7.031-24.744 10.607-36.993 10.607zm-41.757-147.008c-21.448 12.383-22.168 61.604-1.426 97.53 8.94 15.486 20.069 24.987 33.077 28.241 11.645 2.915 24.472.598 37.099-6.692 12.628-7.291 21.046-17.243 24.346-28.782 3.686-12.892 1.021-27.281-7.919-42.767-20.741-35.926-63.731-59.912-85.177-47.53z" fill="#ff9346"/></g></g></g></svg>