<svg id="Layer_1" enable-background="new 0 0 512.013 512.013" height="512" viewBox="0 0 512.013 512.013" width="512" xmlns="http://www.w3.org/2000/svg"><g><g><g clip-rule="evenodd" fill-rule="evenodd"><path d="m430.897 72.749c15.396 4.117 28.809 11.95 39.533 22.277 17.712-1.68 31.569-16.603 31.569-34.768 0-19.29-15.626-34.928-34.902-34.928-7.432 0-14.321 2.327-19.981 6.289-5.23-12.687-17.71-21.619-32.277-21.619-19.276 0-34.902 15.638-34.902 34.928 0 10.378 4.525 19.697 11.706 26.095 12.665-2.242 26.009-1.816 39.254 1.726z" fill="#ffe0e6"/><path d="m495.276 184.158c8.851-33.148-1.774-66.913-24.846-89.132-10.724-10.327-24.137-18.16-39.533-22.277-13.245-3.542-26.589-3.967-39.254-1.726-33.73 5.969-62.649 30.851-72.074 66.152-11.744 43.862-34.853 83.042-66.078 114.29s-70.377 54.374-114.207 66.126c-36.392 9.731-61.704 40.225-66.613 75.348-1.636 11.705-1.006 23.924 2.234 36.061 3.465 12.977 9.565 24.547 17.569 34.286 21.944 26.7 58.207 39.646 93.759 30.139 75.574-20.265 142.758-59.815 196.014-113.111 53.257-53.294 92.779-120.528 113.029-196.156z" fill="#ffbecb"/><path d="m92.474 463.286c-8.005-9.739-14.104-21.309-17.569-34.286-3.241-12.137-3.87-24.355-2.234-36.061-10.479-13.796-29.824-17.967-45.214-9.075-16.694 9.645-22.413 31.007-12.775 47.712 3.716 6.441 9.174 11.248 15.433 14.172-8.365 10.876-9.854 26.158-2.571 38.782 9.638 16.706 30.984 22.429 47.677 12.784 12.354-7.137 18.696-20.692 17.253-34.028z" fill="#ffe0e6"/></g><g><path d="m226.253 446.583c-2.509 0-5.021-.938-6.963-2.823-17.369-16.854-35.206-67.922-32.907-94.211.48-5.503 5.351-9.569 10.833-9.091 5.502.481 9.572 5.331 9.091 10.833-1.943 22.224 14.63 66.199 26.911 78.116 3.964 3.846 4.059 10.177.213 14.141-1.961 2.02-4.569 3.035-7.178 3.035z" fill="#ffe0e6"/></g><g><path d="m316.425 396.602c-1.563 0-3.147-.367-4.628-1.142-23.735-12.422-51.887-57.067-56.386-82.606-.958-5.439 2.675-10.625 8.113-11.583 5.432-.955 10.625 2.674 11.584 8.114 3.856 21.892 29.2 59.583 45.962 68.356 4.894 2.561 6.784 8.604 4.224 13.497-1.786 3.411-5.267 5.364-8.869 5.364z" fill="#ffe0e6"/></g><g><path d="m383.913 326.916c-.84 0-1.692-.106-2.543-.329-24.993-6.553-63.792-40.018-75.48-65.105-2.332-5.006-.165-10.955 4.841-13.288s10.955-.165 13.288 4.841c9.197 19.739 43.034 49.122 62.424 54.205 5.342 1.401 8.537 6.867 7.137 12.209-1.179 4.493-5.23 7.467-9.667 7.467z" fill="#ffe0e6"/></g><g><path d="m434.442 239.822c-.07 0-.141 0-.211-.002-26.289-.545-72.287-22.821-89.488-43.335-3.548-4.232-2.994-10.54 1.238-14.088 4.231-3.548 10.537-2.995 14.088 1.238 13.537 16.146 53.962 35.762 74.576 36.19 5.522.115 9.905 4.684 9.791 10.206-.113 5.449-4.567 9.791-9.994 9.791z" fill="#ffe0e6"/></g></g><path d="m511.999 60.258c0-24.773-20.144-44.928-44.902-44.928-5.559 0-10.986 1.01-16.074 2.963-8.329-11.362-21.633-18.293-36.184-18.293-24.759 0-44.902 20.154-44.902 44.928 0 7.066 1.679 13.96 4.788 20.155-6.128 2.113-12.097 4.831-17.833 8.15-23.339 13.506-40.024 35.298-46.982 61.354-11.072 41.351-33.027 79.322-63.492 109.809-30.465 30.486-68.407 52.457-109.717 63.534-34.405 9.2-59.919 35.225-70.07 66.873-13.42-7.383-30.222-7.661-44.177.403-21.439 12.386-28.811 39.916-16.434 61.367 2.78 4.819 6.37 9.02 10.607 12.453-5.672 12.898-5.02 27.893 2.255 40.501 5.996 10.394 15.68 17.829 27.265 20.935 3.869 1.038 7.795 1.551 11.696 1.551 7.781 0 15.461-2.042 22.381-6.04 8.769-5.066 15.377-12.857 19.081-21.896 4.038 3.251 8.35 6.219 12.922 8.864 15.568 9.009 32.852 13.612 50.366 13.612 8.745 0 17.549-1.148 26.223-3.467.003 0 .005-.001.007-.002 75.855-20.34 145.187-60.349 200.498-115.701 55.312-55.351 95.291-124.73 115.617-200.645 8.306-31.107 1.094-62.771-16.859-86.728 14.341-7.557 23.92-22.591 23.92-39.752zm-122.062-15.33c0-13.745 11.171-24.928 24.902-24.928 10.127 0 19.167 6.057 23.031 15.43 1.156 2.806 3.524 4.935 6.438 5.787 2.914.854 6.057.334 8.542-1.405 4.188-2.932 9.115-4.481 14.247-4.481 13.731 0 24.902 11.183 24.902 24.928 0 11.488-7.734 21.237-18.5 24.074-11.208-9.746-24.734-17.157-40.019-21.244-12.651-3.382-25.572-4.265-38.192-2.739-3.434-4.367-5.351-9.797-5.351-15.422zm-319.719 443.728c-5.758 3.327-12.468 4.21-18.892 2.489-6.425-1.723-11.794-5.847-15.12-11.612-5.067-8.782-4.347-19.65 1.835-27.688 1.849-2.404 2.507-5.517 1.789-8.464s-2.734-5.408-5.482-6.692c-4.632-2.165-8.438-5.661-11.004-10.11-6.869-11.905-2.78-27.183 9.115-34.056 9.73-5.62 21.938-3.914 29.786 3.721-1.076 11.555-.166 23.485 2.998 35.336 3.489 13.069 9.425 25.063 17.418 35.478-.006 8.833-4.705 17.127-12.443 21.598zm415.398-307.084c-19.418 72.522-57.608 138.802-110.442 191.674-52.833 52.871-119.063 91.088-191.531 110.521-20.881 5.581-42.687 2.693-61.398-8.136-18.716-10.831-32.097-28.308-37.679-49.21-11.521-43.152 14.183-87.64 57.308-99.171 44.704-11.987 85.747-35.749 118.69-68.717 32.942-32.965 56.687-74.036 68.667-118.779 5.582-20.903 18.963-38.38 37.679-49.21 12.481-7.223 26.339-10.914 40.382-10.914 7.011 0 14.068.92 21.023 2.78 43.117 11.529 68.822 56.016 57.301 99.162z" fill="#c68a86"/></g></svg>