<svg id="Layer_1" enable-background="new 0 0 512.002 512.002" height="512" viewBox="0 0 512.002 512.002" width="512" xmlns="http://www.w3.org/2000/svg"><g><g><g><path clip-rule="evenodd" d="m149.256 211.152-28.281 28.281-8.701 8.702c-15.189 15.189-24.446 34.153-27.771 53.944 31.62-31.62 83.44-17.218 105.553-4.45 7.462-7.462 13.11-17.535 16.896-28.781 11.722-34.819 5.593-80.889-19.826-95.565z" fill="#ffbecb" fill-rule="evenodd"/></g><g><path clip-rule="evenodd" d="m190.056 297.628c-22.114-12.768-73.933-27.17-105.553 4.45-5.187 30.882 4.07 63.775 27.772 87.477 0-27.577 33.589-62.829 70.074-62.829-2.709-10.045-.14-21.251 7.707-29.098z" fill="#ffe0e6" fill-rule="evenodd"/></g><g><path clip-rule="evenodd" d="m182.348 326.727c-36.485 0-70.074 35.252-70.074 62.829 25.625 25.625 61.996 34.365 94.951 26.221-16.086-9.288-25.252-49.861-6.316-68.797-3.967-1.448-7.684-3.756-10.853-6.925-3.82-3.821-6.39-8.437-7.708-13.328z" fill="#ffbecb" fill-rule="evenodd"/></g><g><path clip-rule="evenodd" d="m200.909 346.979c-18.936 18.936-9.77 59.51 6.316 68.797 17.06-4.215 33.205-12.956 46.47-26.221l8.701-8.702 19.58-19.58c3.163-3.163 5.301-6.963 6.415-10.987 2.324-8.397.185-17.769-6.415-24.37-6.601-6.6-15.973-8.739-24.37-6.415-4.024 1.114-7.823 3.252-10.986 6.415l-14.137 14.138c-8.499 8.499-20.936 10.807-31.574 6.925z" fill="#ffe0e6" fill-rule="evenodd"/></g><g><path clip-rule="evenodd" d="m267.86 375.39 14.116-14.116c3.163-3.163 5.301-6.963 6.415-10.987 2.324-8.397.185-17.769-6.415-24.37-6.601-6.6-15.973-8.739-24.37-6.415-4.024 1.114-7.823 3.252-10.986 6.415l-13.845 13.845c8.886 14.336 20.895 26.532 35.085 35.628z" fill="#ffbecb" fill-rule="evenodd"/></g><g><path clip-rule="evenodd" d="m310.256 297.633c3.831-14.297-.593-28.861-10.349-38.634-13.336 3.585-24.448 13.986-28.279 28.284s.593 28.862 10.349 38.634c9.773 9.756 24.336 14.18 38.634 10.349s24.699-14.944 28.284-28.279c-9.773-9.756-24.337-14.18-38.634-10.349l-.006.001z" fill="#ffe0e6" fill-rule="evenodd"/></g><g><path clip-rule="evenodd" d="m314.327 210.085c10.514 0 19.763-5.409 25.119-13.595 1.586-2.424 2.831-5.092 3.666-7.936 12.721 3.281 26.569-2.127 33.458-14.06 6.09-10.548 5.045-23.256-1.636-32.54-.794-1.103-1.667-2.158-2.618-3.155 9.202-9.376 11.443-24.073 4.553-36.005-6.814-11.802-20.434-17.22-33.039-14.164-3.519-12.657-15.126-21.946-28.905-21.946-5.69 0-11.01 1.584-15.543 4.336-6.323 3.838-11.114 9.947-13.243 17.195-12.721-3.281-26.569 2.127-33.458 14.06-6.814 11.802-4.696 26.307 4.253 35.695-9.202 9.376-11.443 24.073-4.553 36.005 6.814 11.802 20.434 17.221 33.039 14.164 3.521 12.657 15.128 21.946 28.907 21.946z" fill="#e0ef9b" fill-rule="evenodd"/></g><g><path clip-rule="evenodd" d="m340.357 197.502c-7.73 7.877-9.613 20.223-3.825 30.248 5.724 9.914 17.167 14.467 27.756 11.899 2.956 10.633 12.708 18.437 24.283 18.437 11.448 0 21.112-7.633 24.183-18.088 10.687 2.756 22.32-1.787 28.108-11.811.961-1.665 1.71-3.393 2.257-5.154 2.708-8.73.426-18.27-5.83-24.833 7.73-7.877 9.613-20.223 3.825-30.248-5.724-9.914-17.167-14.467-27.756-11.899-2.956-10.633-12.707-18.437-24.283-18.437-5.242 0-10.109 1.601-14.14 4.339 6.681 9.284 7.726 21.992 1.636 32.54-6.889 11.933-20.738 17.34-33.458 14.06-.835 2.843-2.08 5.511-3.667 7.935.293.344.597.682.911 1.012z" fill="#b8ecbb" fill-rule="evenodd"/></g><g><path clip-rule="evenodd" d="m389.075 137.616c11.575 0 21.327 7.803 24.283 18.437 10.589-2.568 22.032 1.984 27.756 11.899 5.788 10.025 3.905 22.371-3.825 30.248 6.256 6.563 8.538 16.102 5.829 24.832 1.913 10.857 2.883 21.889 2.883 32.97 0 104.934-85.066 190-190 190-39.925 0-76.966-12.324-107.548-33.362-13.225-4.825-25.615-12.52-36.179-23.084-14.247-14.247-23.274-31.814-27.083-50.27-12.287-25.147-19.189-53.409-19.189-83.284 0-104.934 85.066-190 190-190 14.627 0 29.184 1.69 43.383 5.019 4.533-2.751 9.852-4.336 15.543-4.336 13.779 0 25.386 9.289 28.905 21.946 12.605-3.057 26.226 2.362 33.039 14.164 6.889 11.933 4.648 26.629-4.553 36.005.95.997 1.824 2.052 2.618 3.155 4.029-2.738 8.896-4.339 14.138-4.339zm112.927 118.386c0-135.863-110.138-246.001-246.001-246.001s-246.001 110.138-246.001 246.001 110.138 246.001 246.001 246.001 246.001-110.139 246.001-246.001z" fill="#e3eaef" fill-rule="evenodd"/></g><g><path clip-rule="evenodd" d="m281.976 325.917c-9.756-9.772-14.18-24.336-10.349-38.634 3.831-14.297 14.944-24.698 28.279-28.284 9.756 9.772 14.18 24.337 10.349 38.634l-.002.006.006-.001c14.297-3.831 28.861.592 38.634 10.349-3.585 13.335-13.986 24.448-28.284 28.279-14.296 3.831-28.86-.593-38.633-10.349zm106.595-67.832c-11.575 0-21.327-7.804-24.283-18.437-10.589 2.568-22.032-1.984-27.756-11.899-5.788-10.025-3.905-22.371 3.825-30.248-.315-.33-.618-.668-.912-1.012-5.356 8.186-14.605 13.595-25.119 13.595-13.779 0-25.386-9.289-28.905-21.946-12.605 3.057-26.226-2.362-33.039-14.164-6.889-11.933-4.648-26.629 4.553-36.005-8.95-9.388-11.067-23.893-4.253-35.695 6.889-11.933 20.738-17.34 33.458-14.06 2.129-7.248 6.92-13.357 13.243-17.195-14.199-3.329-28.756-5.019-43.383-5.019-104.934 0-190 85.066-190 190 0 29.875 6.902 58.137 19.189 83.284-6.589-31.925 2.439-66.507 27.083-91.151l74.852-74.852c33.63 19.416 33.495 93.781 2.93 124.346-11.667 11.667-11.667 30.758.001 42.426 11.667 11.667 30.759 11.668 42.426 0l14.137-14.137c9.764-9.763 25.593-9.763 35.356 0 9.764 9.763 9.764 25.593 0 35.356l-28.282 28.282c-28.325 28.325-69.781 36.021-105.241 23.084 30.582 21.038 67.623 33.362 107.548 33.362 104.934 0 190-85.066 190-190 0-11.081-.97-22.113-2.882-32.97-.547 1.762-1.296 3.49-2.257 5.154-5.788 10.025-17.421 14.568-28.108 11.811-3.069 10.457-12.733 18.09-24.181 18.09z" fill="#fff" fill-rule="evenodd"/></g></g><g><path d="m355.959 300.91c-9.234-9.219-21.634-14.343-34.365-14.611-.269-12.729-5.393-25.13-14.61-34.363-2.528-2.533-6.218-3.522-9.673-2.593-17.196 4.623-30.739 18.169-35.342 35.352-2.135 7.969-2.19 16.215-.405 24.033-8.03.624-15.885 3.99-22.015 10.119l-14.137 14.138c-7.799 7.798-20.486 7.798-28.284 0s-7.798-20.485 0-28.283c19.059-19.06 28.919-54.229 24.536-87.517-3.263-24.781-13.752-43.448-29.538-52.562-3.921-2.264-8.871-1.61-12.071 1.589l-74.852 74.853c-20.698 20.698-32.097 48.321-32.097 77.782 0 29.46 11.399 57.083 32.097 77.781 21.445 21.444 49.613 32.166 77.782 32.166s56.337-10.722 77.782-32.166l28.282-28.282c6.125-6.126 9.492-13.976 10.118-22.001 3.653.834 7.398 1.274 11.168 1.274 4.295 0 8.621-.555 12.864-1.691 17.183-4.604 30.729-18.146 35.353-35.342.928-3.458-.06-7.148-2.593-9.676zm-81.054 53.292-28.282 28.282c-35.089 35.091-92.187 35.093-127.278 0-35.091-35.091-35.091-92.188 0-127.278l68.658-68.659c7.011 7.125 11.929 18.797 13.832 33.247 3.556 27.01-4.195 56.109-18.85 70.764-15.595 15.596-15.595 40.972.001 56.568s40.972 15.596 56.568 0l14.137-14.138c5.849-5.849 15.366-5.849 21.214 0 5.849 5.849 5.849 15.366 0 21.214zm43.117-27.595c-10.306 2.758-21.409-.213-28.963-7.75-.004-.004-.008-.008-.012-.012-.002-.002-.003-.003-.005-.004-7.545-7.566-10.517-18.666-7.756-28.97 2.223-8.295 7.919-15.178 15.438-18.997 4.589 7.048 6.085 15.827 3.89 24.102-.876 3.17-.136 6.582 1.999 9.112 2.247 2.663 5.722 3.964 9.167 3.435.36-.056.716-.13 1.068-.225 8.293-2.222 17.104-.73 24.171 3.871-3.819 7.519-10.702 13.216-18.997 15.438z" fill="#c1b0b5"/><g><path d="m173.865 253.114c-2.72 0-5.429-1.102-7.402-3.271-3.715-4.087-3.417-10.409.67-14.124l.005-.005c4.086-3.717 10.411-3.414 14.126.673 3.715 4.086 3.414 10.411-.673 14.126-1.915 1.742-4.324 2.601-6.726 2.601z" fill="#c1b0b5"/></g><g><path d="m256.001 512.002c-141.159 0-256.001-114.842-256.001-256.001s114.842-256.001 256.001-256.001 256 114.842 256 256.001-114.84 256.001-256 256.001zm0-492.002c-130.131 0-236.001 105.87-236.001 236.001s105.87 236.001 236.001 236.001 236-105.87 236-236.001-105.869-236.001-236-236.001z" fill="#c1b0b5"/></g><g><path clip-rule="evenodd" d="m299.382 71.021c-14.199-3.33-28.755-5.019-43.381-5.019-104.934 0-190 85.066-190 190 0 29.884 6.906 58.154 19.201 83.307m63.23 73.316c30.586 21.046 67.635 33.376 107.569 33.376 104.934 0 190-85.066 190-190 0-11.081-.97-22.111-2.883-32.967" fill="none"/></g><path d="m449.774 162.951c-6.282-10.88-17.926-17.43-30.13-17.591-6.078-10.601-17.445-17.531-30.027-17.727 2.493-9.872 1.245-20.605-4.087-29.839-7.327-12.689-21.079-20.218-35.336-19.988-6.854-12.763-20.348-21.122-35.268-21.122-14.651 0-28.025 8.153-34.978 20.609-14.479-.443-28.467 7.061-35.926 19.981-7.326 12.688-6.953 28.348.358 40.597-7.625 12.317-8.119 28.183-.658 41.104 7.326 12.69 21.029 20.223 35.337 19.987 6.854 12.761 20.348 21.122 35.267 21.122 3.095 0 6.127-.384 9.06-1.076.516 4.745 1.996 9.429 4.485 13.741 6.281 10.88 17.926 17.43 30.13 17.591 6.165 10.754 17.771 17.744 30.569 17.744 12.563 0 24.058-6.81 30.299-17.298h.108c12.356 0 24.164-6.55 30.543-17.602 6.281-10.879 6.131-24.239.169-34.889 6.232-10.715 6.484-24.261.085-35.344zm-154.717 22.509c-1.227-4.412-5.237-7.323-9.628-7.323-.78 0-1.573.092-2.364.284-8.556 2.074-17.613-1.81-22.021-9.445-4.476-7.753-3.23-17.622 3.03-24.001 3.778-3.85 3.822-10.001.101-13.905-6.076-6.373-7.24-16.157-2.831-23.794 4.477-7.753 13.644-11.605 22.301-9.377 5.221 1.354 10.573-1.689 12.092-6.864 2.481-8.449 10.373-14.35 19.19-14.35 8.952 0 16.876 6.014 19.271 14.625 1.445 5.196 6.75 8.31 11.992 7.04 8.557-2.076 17.612 1.81 22.022 9.445 4.476 7.752 3.229 17.622-3.03 24.001-3.778 3.849-3.822 10-.101 13.904 6.076 6.373 7.241 16.158 2.832 23.795-4.477 7.752-13.649 11.608-22.301 9.376-5.223-1.347-10.572 1.69-12.092 6.865-2.481 8.448-10.373 14.349-19.191 14.349-8.954 0-16.878-6.014-19.272-14.625zm134.993 19.64c4.618 4.844 5.503 12.281 2.151 18.086-3.402 5.894-10.37 8.822-16.949 7.129-5.223-1.354-10.573 1.689-12.093 6.864-1.886 6.422-7.885 10.906-14.588 10.906-6.806 0-12.829-4.57-14.648-11.114-1.444-5.197-6.748-8.31-11.992-7.041-6.503 1.584-13.387-1.375-16.739-7.18-3.402-5.894-2.456-13.396 2.302-18.244 1.411-1.437 2.293-3.194 2.661-5.032 14.175.137 27.763-7.313 35.075-19.979 5.676-9.831 6.711-21.438 3.498-31.867.116-.003.23-.013.346-.013 6.805 0 12.829 4.571 14.648 11.116 1.445 5.196 6.749 8.31 11.992 7.04 6.499-1.582 13.386 1.375 16.738 7.18 3.402 5.894 2.456 13.396-2.302 18.244-3.776 3.849-3.821 10-.1 13.905z" fill="#c1b0b5"/></g></g></svg>