<svg id="Layer_1" enable-background="new 0 0 512.027 512.027" height="512" viewBox="0 0 512.027 512.027" width="512" xmlns="http://www.w3.org/2000/svg"><g><g clip-rule="evenodd" fill-rule="evenodd"><path d="m347.643 209.636c13.974-13.974 9.35-20.605 23.23-34.542l.031-.031c-13.918 13.958-9.277 20.589-23.261 34.573zm-10.606-68.588-9.335 9.336zm-82.024 149.907c14.009-14.009 20.638-9.326 34.647-23.336 14.009-14.009 9.327-20.638 23.335-34.647 14.009-14.009 20.638-9.327 34.647-23.336 13.984-13.984 9.343-20.615 23.261-34.573l.074-.074 5.512-5.512c9.334-9.334 24.607-9.334 33.941.001 9.333 9.334 9.333 24.607 0 33.941l-43.132 43.132c-9.334 9.334-9.334 24.607 0 33.941.963.963 1.989 1.827 3.066 2.591 9.357 6.643 22.504 5.78 30.876-2.591l89.094-89.094c15.556-15.556 15.557-41.012 0-56.568l-113.137-113.138c-15.557-15.556-41.012-15.556-56.569 0-41.484 41.484-82.967 82.967-124.451 124.451-8.371 8.371-9.235 21.519-2.591 30.875.764 1.077 1.628 2.103 2.591 3.066 9.334 9.334 24.607 9.334 33.941 0l92.631-92.631c9.334-9.334 24.607-9.334 33.941 0s9.334 24.607 0 33.941l-19.654 19.654c-14.009 14.009-20.638 9.326-34.647 23.336-14.009 14.009-9.327 20.638-23.336 34.647s-20.638 9.326-34.647 23.335-9.327 20.638-23.336 34.647-20.638 9.327-34.647 23.336-9.327 20.638-23.335 34.647c-14.009 14.009-20.639 9.327-34.647 23.336-14.009 14.009-9.327 20.638-23.336 34.647s-20.638 9.327-34.647 23.336-9.327 20.638-23.336 34.647l33.942 33.941c14.009-14.009 20.638-9.327 34.647-23.336s9.327-20.638 23.335-34.647c14.009-14.009 20.639-9.327 34.647-23.335 14.009-14.009 9.326-20.638 23.336-34.647 14.009-14.009 20.638-9.327 34.647-23.336 14.01-14.009 9.327-20.638 23.337-34.647z" fill="#ffc8b8"/><path d="m128.441 338.332c14.009-14.009 20.638-9.327 34.647-23.336s9.326-20.638 23.335-34.647 20.638-9.327 34.647-23.336 9.327-20.638 23.336-34.647 20.638-9.327 34.647-23.335c14.009-14.009 9.327-20.639 23.336-34.647 14.009-14.009 20.638-9.327 34.647-23.336l19.654-19.654c9.334-9.334 9.334-24.607 0-33.941s-24.607-9.334-33.941 0l-92.631 92.631c-9.334 9.334-24.607 9.334-33.941 0-.963-.963-1.827-1.989-2.59-3.067l-171.919 171.921c-15.556 15.557-15.556 41.012 0 56.569l25.455 25.456c14.009-14.009 9.327-20.638 23.336-34.647s20.638-9.326 34.647-23.336 9.327-20.639 23.335-34.648z" fill="#f4e9e8"/><path d="m163.089 314.996c-14.009 14.009-20.639 9.327-34.647 23.336-14.009 14.009-9.327 20.638-23.336 34.647s-20.638 9.327-34.647 23.336-9.327 20.638-23.336 34.647l33.941 33.941c14.009-14.009 20.638-9.327 34.647-23.336s9.327-20.638 23.335-34.647c14.009-14.009 20.639-9.327 34.647-23.335 14.009-14.009 9.326-20.638 23.336-34.647 14.009-14.009 20.638-9.327 34.647-23.336s9.326-20.638 23.336-34.647c14.009-14.009 20.638-9.326 34.647-23.336 14.009-14.009 9.327-20.638 23.335-34.647 14.009-14.009 20.638-9.327 34.647-23.336 13.984-13.984 9.343-20.615 23.261-34.573l-9.261 9.262c-9.333 9.333-24.607 9.334-33.941 0s-9.334-24.608 0-33.941l9.335-9.336c-14.009 14.009-20.638 9.326-34.647 23.336-14.009 14.009-9.327 20.638-23.336 34.647s-20.638 9.326-34.647 23.335-9.327 20.638-23.336 34.647-20.638 9.327-34.647 23.336c-14.007 14.009-9.324 20.638-23.333 34.647z" fill="#e8d0cf"/><path d="m231.677 325.602c-14.009 14.009-20.638 9.327-34.647 23.336s-9.327 20.638-23.336 34.647-20.638 9.327-34.647 23.335c-14.009 14.009-9.326 20.638-23.335 34.647s-20.638 9.327-34.647 23.336l25.456 25.456c15.557 15.557 41.012 15.557 56.569 0l207.275-207.276c-1.076-.764-2.103-1.628-3.066-2.591-9.334-9.334-9.334-24.607 0-33.941l43.132-43.132c9.333-9.334 9.333-24.607 0-33.941-9.334-9.334-24.607-9.334-33.941-.001l-5.512 5.512-.074.074c-.01.01-.02.021-.031.031-13.881 13.937-9.257 20.568-23.23 34.542-14.009 14.009-20.638 9.326-34.647 23.336-14.009 14.009-9.327 20.638-23.335 34.647-14.009 14.009-20.638 9.327-34.647 23.336-14.011 14.009-9.328 20.638-23.337 34.647z" fill="#f4e9e8"/></g><path d="m497.406 127.757-113.137-113.136c-19.496-19.494-51.217-19.494-70.711 0l-124.452 124.451c-6.403 6.403-9.929 14.941-9.929 24.042 0 4.171.749 8.22 2.168 12.004l-166.749 166.749c-9.412 9.413-14.596 21.968-14.596 35.355 0 13.388 5.184 25.943 14.596 35.355l84.853 84.853c9.413 9.412 21.969 14.597 35.355 14.597s25.942-5.185 35.355-14.597l202.105-202.105c3.783 1.419 7.833 2.168 12.004 2.168 9.101 0 17.639-3.527 24.042-9.93l89.095-89.095c19.495-19.495 19.495-51.216.001-70.711zm-341.389 355.531c-11.696 11.697-30.729 11.697-42.426 0l-84.853-84.853c-5.634-5.635-8.738-13.168-8.738-21.213 0-8.044 3.104-15.578 8.739-21.213l164.991-164.991c5.647 3.938 12.361 6.068 19.418 6.068 9.101 0 17.639-3.526 24.042-9.93l92.631-92.632c2.625-2.626 6.141-4.071 9.899-4.071s7.273 1.446 9.899 4.072c5.458 5.458 5.458 14.34 0 19.798l-28.99 28.989c-13.256 13.257-13.256 34.827 0 48.084 6.403 6.403 14.941 9.93 24.042 9.93s17.639-3.526 24.042-9.93l14.847-14.847c5.458-5.459 14.341-5.459 19.799 0 5.459 5.458 5.459 14.341 0 19.799l-43.132 43.132c-11.808 11.808-13.089 30.208-3.861 43.458zm327.246-298.961-89.095 89.095c-2.625 2.626-6.141 4.071-9.899 4.071s-7.274-1.445-9.899-4.07c-5.458-5.46-5.459-14.342 0-19.8l43.132-43.132c13.256-13.257 13.256-34.827 0-48.084-6.628-6.628-15.335-9.942-24.042-9.942s-17.414 3.314-24.042 9.942l-14.847 14.847c-2.625 2.626-6.141 4.071-9.899 4.071s-7.273-1.445-9.899-4.071c-2.626-2.625-4.072-6.142-4.072-9.899 0-3.759 1.446-7.274 4.071-9.899l28.99-28.989c13.256-13.257 13.256-34.826 0-48.082-6.403-6.404-14.941-9.931-24.042-9.931 0 0 0 0-.001 0-9.1 0-17.638 3.526-24.041 9.929l-92.631 92.632c-2.625 2.626-6.141 4.071-9.899 4.071s-7.273-1.445-9.899-4.071c-2.625-2.626-4.072-6.142-4.072-9.899 0-3.759 1.446-7.274 4.071-9.899l124.452-124.454c5.635-5.636 13.168-8.738 21.213-8.738 8.044 0 15.578 3.103 21.213 8.738l113.137 113.137c11.697 11.696 11.697 30.729 0 42.427z" fill="#c68a86"/></g></svg>