<svg id="Layer_1" enable-background="new 0 0 512.001 512.001" height="512" viewBox="0 0 512.001 512.001" width="512" xmlns="http://www.w3.org/2000/svg"><g><g clip-rule="evenodd" fill-rule="evenodd"><path d="m233.346 110.003c-2-26.647 49.392-34.623 80.755-43.027 10.576-25.551-11.539-49.964-35.262-56.976-12.894 48.119-97.694 25.423-97.694 83.851 0 5.937 1.751 11.485 4.762 16.152z" fill="#fff"/><path d="m314.1 66.975c-31.363 8.404-82.755 16.38-80.755 43.027h92.77c9.641-14.946 4.056-35.093-12.015-43.027z" fill="#99ebfa"/><path d="m326.116 110.003c-30.923 0-61.847 0-92.77 0-15.813 0-31.626 0-47.439 0-3.302 0-6.604 0-9.906 0-11 0-20 8.999-20 20 0 18.848 8.371 29.632 14.282 45.295 1.127-.191 2.358-.297 3.72-.297 13.207 0 14.125 10 27.333 10 13.207 0 14.125-10 27.333-10 13.207 0 14.125 10 27.333 10 13.207 0 14.125-10 27.333-10 13.207 0 14.125 10 27.333 10s14.125-10 27.333-10c1.362 0 2.593.106 3.72.297 5.908-15.664 14.279-26.448 14.279-45.296 0-11-9-20-20-20-3.294.001-6.589.001-9.884.001z" fill="#cff5fd"/><path d="m283.333 175c-13.208 0-14.125 10-27.333 10-13.207 0-14.125-10-27.333-10s-14.125 10-27.333 10-14.125-10-27.333-10c-1.362 0-2.593.106-3.72.297 3.226 8.548 5.719 18.548 5.719 32.106 0 17.113-3.972 33.22-8.377 48.55 1.794-.587 3.863-.95 6.378-.95 13.207 0 14.125 10 27.333 10 13.207 0 14.125-10 27.333-10 13.207 0 14.125 10 27.333 10 13.207 0 14.125-10 27.333-10 13.207 0 14.125 10 27.332 10s14.125-10 27.333-10c2.515 0 4.584.363 6.377.95-4.404-15.33-8.376-31.437-8.376-48.55 0-13.558 2.493-23.558 5.719-32.106-1.128-.191-2.359-.297-3.72-.297-13.207 0-14.125 10-27.333 10-13.207 0-14.125-10-27.332-10z" fill="#ffbecb"/><path d="m283.333 255.002c-13.207 0-14.126 10-27.333 10s-14.125-10-27.333-10-14.125 10-27.333 10-14.125-10-27.333-10c-2.515 0-4.585.363-6.377.95-5.478 19.07-11.625 36.939-11.625 54.05 0 10.38 1.603 20.403 4.573 29.835 3.454-2.443 6.973-4.832 13.43-4.832 13.207 0 14.125 10 27.333 10 13.207 0 14.125-10 27.333-10 13.207 0 14.125 10 27.333 10 13.207 0 14.125-10 27.333-10 13.207 0 14.125 10 27.333 10s14.125-10 27.333-10c6.456 0 9.976 2.39 13.43 4.832 2.97-9.432 4.573-19.455 4.573-29.834 0-17.111-6.147-34.98-11.625-54.051-1.793-.587-3.862-.95-6.377-.95-13.208 0-14.125 10-27.333 10-13.21 0-14.128-10-27.335-10z" fill="#cff5fd"/><path d="m283.333 335.005c-13.208 0-14.125 10-27.333 10-13.207 0-14.125-10-27.333-10s-14.125 10-27.333 10-14.125-10-27.333-10c-6.456 0-9.976 2.39-13.429 4.832 10.81 34.328 39.732 60.822 75.427 68.142 6.467 1.326 13.156 2.023 20 2.023s13.533-.697 20-2.023c35.695-7.32 64.618-33.814 75.427-68.142-3.454-2.443-6.974-4.832-13.43-4.832-13.207 0-14.125 10-27.333 10-13.205 0-14.123-10-27.33-10z" fill="#ffbecb"/><path d="m276.001 407.979c-6.467 1.326-13.156 2.023-20 2.023s-13.533-.697-20-2.024v39.736l-50 14.286c-10.577 3.022-20 12.6-20 23.6v16.4h90 90v-16.4c0-11-9.423-20.578-20-23.6l-50-14.286z" fill="#fff"/></g><path d="m366.001 310.002c0-16.036-4.659-31.821-9.592-48.533-5.117-17.337-10.409-35.264-10.409-54.066 0-18.326 4.912-28.963 10.111-40.224 4.862-10.529 9.89-21.417 9.89-37.177 0-15.079-11.184-27.589-25.691-29.686.944-5.79.627-11.787-1.04-17.538-2.306-7.958-7.032-14.964-13.4-20.083 2.055-9.65.813-19.533-3.704-28.993-7.313-15.314-22.828-28.072-40.493-33.293-2.584-.763-5.369-.452-7.723.866-2.353 1.318-4.072 3.531-4.771 6.136-4.278 15.968-18.813 21.806-42.24 29.522-24.858 8.188-55.795 18.379-55.795 56.917 0 2.178.199 4.336.55 6.465-14.508 2.096-25.694 14.608-25.694 29.687 0 15.76 5.027 26.647 9.889 37.176 5.2 11.262 10.111 21.898 10.111 40.225 0 18.803-5.292 36.729-10.409 54.066-4.931 16.712-9.591 32.497-9.591 48.533 0 50.258 33.88 92.751 80 105.841v24.327l-42.748 12.214c-15.79 4.514-27.252 18.483-27.252 33.217v16.4c0 5.522 4.477 10 10 10h180c5.522 0 10-4.478 10-10v-16.4c0-14.734-11.461-28.703-27.252-33.216l-42.747-12.214v-24.328c46.12-13.09 80-55.583 80-105.841zm-132.804-254.072c19.343-6.372 40.908-13.475 51.238-32.926 8.671 4.502 15.97 11.538 19.684 19.316 3.329 6.971 3.579 13.979.743 20.831-2.015 4.866.091 10.46 4.813 12.791 5.112 2.523 8.801 6.928 10.387 12.4 1.135 3.918 1.047 7.932-.178 11.659h-127.745c-.648-1.977-.994-4.049-.994-6.151-.001-22.95 15.195-29.073 42.052-37.92zm-67.197 254.072c0-13.146 4.262-27.585 8.774-42.871 5.262-17.829 11.227-38.036 11.227-59.729 0-22.721-6.351-36.475-11.954-48.608-4.496-9.736-8.047-17.427-8.047-28.792 0-5.514 4.486-10 10-10h160c5.514 0 10 4.486 10 10 0 11.365-3.551 19.056-8.047 28.792-5.603 12.134-11.953 25.888-11.953 48.609 0 21.692 5.965 41.899 11.227 59.729 4.513 15.286 8.774 29.725 8.774 42.871 0 49.626-40.374 90-90 90-49.627-.001-90.001-40.375-90.001-90.001zm107.254 147.327 49.999 14.286c7.029 2.009 12.747 8.282 12.747 13.985v6.4h-160v-6.4c0-5.703 5.719-11.977 12.747-13.985l50-14.286c4.293-1.227 7.253-5.15 7.253-9.615v-28.171c3.295.298 6.629.459 10 .459s6.706-.161 10-.459v28.171c.001 4.465 2.961 8.389 7.254 9.615z" fill="#c1b0b5"/></g></svg>