<svg id="Layer_1" enable-background="new 0 0 512.012 512.012" height="512" viewBox="0 0 512.012 512.012" width="512" xmlns="http://www.w3.org/2000/svg"><g><g clip-rule="evenodd" fill-rule="evenodd"><path d="m229.241 297.195c10.704 2.633 21.516-3.911 24.148-14.615 1.453-5.901 1.929-8.397 6.435-12.903 10.513-10.513 24.006-2.786 44.562-23.342 20.555-20.556 12.83-34.049 23.342-44.562 10.513-10.513 24.005-2.786 44.562-23.342s12.828-34.049 23.342-44.562c3.878-3.878 7.733-5.127 11.585-6.107 9.405-1.635 16.557-9.837 16.557-19.71 0-13.27-12.348-22.44-24.775-19.381-9.785 2.41-19.573 4.822-31.658 16.907-20.556 20.555-12.83 34.05-23.342 44.562-10.513 10.513-24.007 2.786-44.562 23.342s-12.829 34.049-23.342 44.562-24.005 2.785-44.562 23.342c-10.153 10.154-13.959 19.68-16.907 31.659-2.632 10.705 3.911 21.517 14.615 24.15z" fill="#ffcd69"/><path d="m253.389 282.58c-2.633 10.704-13.444 17.248-24.148 14.615s-17.247-13.444-14.614-24.149c2.949-11.98 6.754-21.506 16.907-31.659 20.557-20.557 34.049-12.829 44.562-23.342s2.786-24.006 23.342-44.562c20.555-20.556 34.049-12.83 44.562-23.342 10.512-10.512 2.786-24.007 23.342-44.562 12.085-12.085 21.873-14.497 31.658-16.907 12.427-3.059 24.775 6.112 24.775 19.381 0 9.873-7.152 18.075-16.557 19.71-3.852.98-7.707 2.229-11.585 6.107-10.514 10.513-2.785 24.006-23.342 44.562-20.556 20.556-34.049 12.829-44.562 23.342-10.512 10.513-2.786 24.006-23.342 44.562-20.555 20.556-34.049 12.829-44.562 23.342-4.507 4.506-4.982 7.001-6.436 12.902zm221.472-118.818c37.502-32.019 34.871-91.932 0-126.803-33.555-33.556-94.141-38.255-126.802 0l-185.094 216.797c-18.95 22.195-24.821 53.516-11.871 78.865 2.955 5.783 6.889 11.255 11.871 16.237 5.022 5.022 10.586 9.001 16.497 11.982 24.867 12.542 55.881 7.419 78.605-11.982z" fill="#ffe5dd"/><path d="m179.462 360.84c-5.911-2.981-11.474-6.96-16.497-11.982-4.982-4.982-8.916-10.454-11.869-16.239l-135.251 135.252c-7.781 7.781-7.781 20.513 0 28.294 7.78 7.78 20.513 7.78 28.293 0z" fill="#fff"/></g><path d="m481.932 29.887c-19.785-19.786-48.579-30.93-77.046-29.809-25.684 1.011-48.565 11.803-64.433 30.387l-185.094 216.797c-13.15 15.403-20.671 34.563-21.176 53.948-.265 10.182 1.468 20.043 5.01 29.169l-130.419 130.421c-11.699 11.7-11.699 30.736.001 42.436 5.85 5.85 13.533 8.774 21.218 8.774 7.684 0 15.368-2.925 21.218-8.774l130.568-130.569c8.631 3.278 17.815 4.938 27.13 4.938 19.3 0 39.138-7.041 55.652-21.142l216.794-185.096c18.704-15.969 29.563-38.965 30.579-64.752 1.124-28.571-9.812-56.536-30.002-76.728zm-444.864 459.206c-3.9 3.9-10.249 3.903-14.151.001-3.901-3.902-3.901-10.251 0-14.152l126.469-126.469c1.993 2.6 4.151 5.099 6.508 7.456 2.432 2.431 5.002 4.64 7.673 6.663zm454.88-383.265c-.794 20.149-9.168 38.023-23.581 50.328l-216.794 185.095c-25.239 21.549-60.293 21.78-81.537.535-24.204-24.204-17.79-60.076.534-81.538l185.094-216.796c12.203-14.293 29.963-22.6 50.008-23.389 1.063-.042 2.124-.063 3.186-.063 21.928 0 43.755 8.853 58.932 24.029 16.02 16.021 25.051 39.123 24.158 61.799z" fill="#c68a86"/></g></svg>