<svg id="Layer_1" enable-background="new 0 0 511.969 511.969" height="512" viewBox="0 0 511.969 511.969" width="512" xmlns="http://www.w3.org/2000/svg"><g><g><g><g clip-rule="evenodd" fill-rule="evenodd"><ellipse cx="351.781" cy="160.188" fill="#fffbe1" rx="60.401" ry="203.607" transform="matrix(.707 -.707 .707 .707 -10.236 295.665)"/><path d="m495.753 304.159c-23.588 23.588-107.168-21.748-186.682-101.262-79.513-79.513-124.849-163.093-101.261-186.681-127.566 127.566-155.735 221.024-156.23 293.505-.495 72.48-70.042 137.006-28.19 178.858s106.378-27.695 178.858-28.19c72.481-.495 165.939-28.664 293.505-156.23z" fill="#e0c9ed"/></g><g><path d="m142.342 223.482c-5.522 0-10.004-4.478-10.004-10s4.474-10 9.996-10h.008c5.522 0 10 4.478 10 10s-4.478 10-10 10z" fill="#f0e5f7"/></g><g><path d="m114.342 373.482c-5.522 0-10.004-4.478-10.004-10s4.474-10 9.996-10h.008c5.522 0 10 4.478 10 10s-4.478 10-10 10z" fill="#f0e5f7"/></g><g><path d="m284.341 343.482c-5.522 0-10.004-4.478-10.004-10s4.475-10 9.997-10h.007c5.522 0 10 4.478 10 10s-4.478 10-10 10z" fill="#f0e5f7"/></g></g><g><path d="m268.316 285.275c-1.648 0-3.319-.408-4.861-1.268-11.917-6.646-28.784-25.287-34.805-36.29-2.65-4.846-.871-10.922 3.974-13.573 4.846-2.648 10.923-.87 13.573 3.974 4.916 8.988 19.299 24.128 26.998 28.421 4.823 2.69 6.554 8.781 3.864 13.604-1.83 3.282-5.236 5.132-8.743 5.132z" fill="#d1aee5"/></g><g><path d="m228.94 393.48c-1.648 0-3.319-.408-4.861-1.269-11.918-6.646-28.785-25.286-34.805-36.289-2.65-4.846-.871-10.922 3.974-13.573 4.846-2.649 10.923-.871 13.573 3.974 4.916 8.987 19.299 24.128 26.998 28.422 4.824 2.689 6.554 8.78 3.863 13.604-1.83 3.281-5.235 5.131-8.742 5.131z" fill="#d1aee5"/></g></g><path d="m492.575 227.023c-19.572-36.083-51.895-77.498-91.013-116.616s-80.533-71.44-116.616-91.013c-40.065-21.734-69.183-25.275-84.208-10.249-59.937 59.937-101.716 115.603-127.722 170.178-20.854 43.761-31.136 86.392-31.436 130.33-.192 28.133-11.611 55.194-22.655 81.365-8.027 19.021-15.608 36.987-18.086 53.989-3.008 20.652 2.055 37.219 15.479 50.644 10.932 10.931 23.944 16.318 39.552 16.318 3.56 0 7.256-.28 11.092-.839 17.002-2.478 34.968-10.059 53.989-18.086 26.171-11.044 53.232-22.463 81.365-22.655 43.938-.301 86.568-10.583 130.329-31.436 54.574-26.007 110.24-67.785 170.179-127.723 15.027-15.026 11.483-44.145-10.249-84.207zm-266.601-207.022c10.104 0 26.338 4.443 49.437 16.973 34.438 18.68 74.216 49.781 112.01 87.575s68.896 77.572 87.575 112.01c19.265 35.515 19.413 54.804 13.687 60.529-5.726 5.727-25.014 5.578-60.529-13.687-34.437-18.68-74.216-49.781-112.01-87.575s-68.896-77.573-87.575-112.01c-19.265-35.515-19.413-54.804-13.687-60.529 2.001-2.002 5.66-3.286 11.092-3.286zm-23.794 430.388c-18.679.128-36.719 4.501-53.794 10.35-7.975-5.919-19.47-18.442-23.761-26.283-2.649-4.846-8.727-6.624-13.572-3.973-4.846 2.65-6.624 8.728-3.973 13.572 3.754 6.861 11.724 16.689 20.082 24.729-4.76 1.942-9.426 3.909-13.986 5.834-39.067 16.486-63.964 25.642-82.715 6.891-18.749-18.749-9.597-43.646 6.891-82.715 11.254-26.668 24.009-56.896 24.229-89.004.083-12.232.892-26.04 3.414-41.502 4.56 6.887 9.488 13.059 13.402 16.514 1.902 1.678 4.263 2.502 6.613 2.502 2.77 0 5.525-1.144 7.502-3.383 3.654-4.142 3.26-10.461-.881-14.115-6.923-6.108-18.079-24.609-19.899-31.608 9.404-33.04 27.106-72.188 59.796-118.047 5.79 10.99 14.323 22.914 20.408 28.283 1.901 1.678 4.262 2.502 6.612 2.502 2.77 0 5.526-1.144 7.502-3.384 3.654-4.142 3.26-10.461-.882-14.114-6.969-6.149-18.232-24.863-19.938-31.753 13.558-17.571 29.29-36.071 47.507-55.521 2.372 13.319 8.458 29.14 18.25 47.19 19.572 36.083 51.895 77.498 91.013 116.616s80.533 71.44 116.616 91.013c18.049 9.791 33.869 15.88 47.187 18.252-31.312 29.326-60.152 52.19-86.642 69.974-8.7-3.034-25.083-14.254-31.584-21.736-3.622-4.17-9.937-4.612-14.107-.99-4.169 3.622-4.612 9.938-.99 14.107 5.498 6.329 16.459 14.956 27.025 21.164-68.596 41.491-120.194 48.381-157.325 48.635z" fill="#c68a86"/></g></svg>