<svg id="Layer_1" enable-background="new 0 0 511.987 511.987" height="512" viewBox="0 0 511.987 511.987" width="512" xmlns="http://www.w3.org/2000/svg"><g><g><g clip-rule="evenodd" fill-rule="evenodd"><path d="m104.426 244.298c3.268-13.259 2.205-27.68-4.016-41.021-6.221-13.34-16.584-23.425-28.842-29.444 5.174-11.704 6.778-25.073 3.825-38.408l-31.745 10.601c-23.575 7.873-38.391 31.257-32.246 55.09 18.739 72.273 56.215 138.141 108.771 190.697s118.424 90.032 190.697 108.771c23.834 6.144 47.217-8.671 55.09-32.246l10.601-31.745c-13.335-2.953-26.704-1.348-38.408 3.825-6.02-12.258-16.104-22.622-29.445-28.842-13.341-6.221-27.761-7.285-41.021-4.016-3.8-13.117-11.931-25.074-23.989-33.517s-26.075-11.994-39.7-11.079c-1.464-13.578-7.395-26.765-17.804-37.173-10.408-10.408-23.596-16.34-37.173-17.804.916-13.626-2.636-27.643-11.079-39.7-8.441-12.058-20.398-20.19-33.516-23.989z" fill="#fffbe1"/><path d="m129.601 117.322c-4.645 24.646 2.566 51.085 21.638 70.158 30.675 30.674 80.408 30.674 111.082 0 30.674-30.675 30.674-80.408 0-111.082-.864-.864-1.745-1.699-2.638-2.515z" fill="#ff9eb1"/><path d="m386.426 127.014c-26.527 26.527-26.527 69.534 0 96.06 15.016 15.016 35.313 21.528 54.912 19.544l39.221-117.45c-26.643-24.66-68.239-24.048-94.133 1.846z" fill="#ff9eb1"/><path d="m386.426 223.074c-26.527-26.526-26.527-69.533 0-96.06 25.894-25.894 67.49-26.507 94.133-1.846l19.783-59.241c4.47-16.037-.314-32.307-11.134-43.149-10.841-10.82-27.112-15.604-43.149-11.134l-186.376 62.238c.893.816 1.775 1.651 2.638 2.515 30.675 30.674 30.675 80.408 0 111.082s-80.408 30.674-111.082 0c-19.072-19.072-26.283-45.512-21.638-70.158l-54.208 18.102c2.953 13.335 1.348 26.704-3.825 38.408 12.258 6.02 22.621 16.104 28.842 29.444 6.221 13.341 7.284 27.761 4.016 41.021 13.118 3.8 25.074 11.931 33.517 23.989 8.443 12.057 11.994 26.074 11.079 39.7 13.578 1.464 26.765 7.395 37.173 17.804 10.409 10.408 16.34 23.596 17.804 37.173 13.626-.916 27.643 2.636 39.7 11.079s20.189 20.4 23.989 33.517c13.259-3.268 27.68-2.204 41.021 4.016 13.341 6.221 23.425 16.584 29.445 28.842 11.704-5.173 25.073-6.779 38.408-3.825l64.776-193.975c-19.6 1.986-39.896-4.526-54.912-19.542z" fill="#ffc8b8"/><ellipse cx="309.402" cy="244.584" fill="#b8ecbb" rx="20" ry="20" transform="matrix(.974 -.228 .228 .974 -47.582 76.913)"/><ellipse cx="334.902" cy="348.084" fill="#b8ecbb" rx="20" ry="20" transform="matrix(.974 -.228 .228 .974 -70.489 85.443)"/></g><g><path d="m335.403 107.585c-5.523 0-10.004-4.478-10.004-10s4.474-10 9.997-10h.007c5.523 0 10 4.478 10 10s-4.477 10-10 10z" fill="#ffe5dd"/></g><g><path d="m216.403 270.585c-5.523 0-10.004-4.478-10.004-10s4.474-10 9.997-10h.007c5.523 0 10 4.478 10 10 0 5.523-4.477 10-10 10z" fill="#ffe5dd"/></g><g><path d="m270.403 325.585c-5.523 0-10.004-4.478-10.004-10s4.474-10 9.997-10h.007c5.523 0 10 4.478 10 10s-4.477 10-10 10z" fill="#ffe5dd"/></g><g><path d="m370.403 294.585c-5.523 0-10.004-4.478-10.004-10s4.474-10 9.997-10h.007c5.523 0 10 4.478 10 10s-4.477 10-10 10z" fill="#ffe5dd"/></g><g><path d="m421.403 165.585c-5.523 0-10.003-4.478-10.003-10s4.474-10 9.997-10h.007c5.523 0 10 4.478 10 10s-4.478 10-10.001 10z" fill="#ffbecb"/></g><g><path d="m240.403 131.585c-5.523 0-10.004-4.478-10.004-10s4.474-10 9.997-10h.007c5.523 0 10 4.478 10 10s-4.477 10-10 10z" fill="#ffbecb"/></g><g><path d="m191.403 163.585c-5.523 0-10.004-4.478-10.004-10s4.474-10 9.997-10h.007c5.523 0 10 4.478 10 10s-4.477 10-10 10z" fill="#ffbecb"/></g></g><path d="m496.272 15.7c-13.736-13.709-34.003-18.953-52.898-13.689-.162.045-.323.095-.483.147l-402.41 134.382c-29.423 9.826-46.087 38.66-38.759 67.085 19.208 74.083 57.723 141.603 111.379 195.259 53.656 53.657 121.176 92.172 195.272 111.384 4.505 1.161 9.02 1.72 13.468 1.72 23.608-.001 45.336-15.726 53.604-40.483l134.382-402.41c.054-.159.103-.32.148-.482 5.265-18.894.02-39.164-13.703-52.913zm-139.796 449.469c-6.458 19.341-24.99 30.398-43.096 25.735-70.634-18.314-134.999-55.025-186.136-106.163-51.137-51.136-87.848-115.502-106.158-186.122-4.671-18.117 6.391-36.65 25.73-43.108l20.045-6.694c.005 7.173-1.482 14.283-4.439 20.972-2.169 4.908-.078 10.653 4.738 13.02 10.752 5.279 19.115 13.818 24.187 24.694 5.071 10.875 6.236 22.771 3.37 34.401-1.284 5.211 1.773 10.506 6.928 11.999 11.505 3.332 21.224 10.289 28.107 20.118 6.883 9.83 10.096 21.343 9.292 33.294-.36 5.354 3.57 10.038 8.906 10.613 11.909 1.284 22.689 6.447 31.174 14.933 8.485 8.484 13.648 19.265 14.933 31.175.575 5.335 5.249 9.273 10.613 8.905 11.949-.806 23.464 2.41 33.293 9.292 9.829 6.883 16.787 16.603 20.12 28.108 1.494 5.154 6.789 8.215 11.999 6.927 11.632-2.865 23.526-1.701 34.4 3.369 10.876 5.073 19.416 13.437 24.695 24.188 1.732 3.529 5.279 5.595 8.981 5.595 1.352 0 2.725-.275 4.038-.855 6.692-2.958 13.801-4.445 20.973-4.44zm134.296-402.154-121.025 362.413c-9.157-.853-18.328.056-27.133 2.7-7.299-11.048-17.594-19.98-29.679-25.616-12.088-5.637-25.553-7.784-38.714-6.267-5.27-12.153-13.86-22.744-24.785-30.395-10.927-7.65-23.814-12.101-37.038-12.896-3.08-12.884-9.7-24.806-19.131-34.236-9.431-9.431-21.353-16.052-34.236-19.131-.795-13.223-5.245-26.112-12.896-37.037-7.65-10.927-18.241-19.517-30.394-24.786 1.513-13.16-.631-26.627-6.268-38.715-5.635-12.083-14.567-22.378-25.615-29.678 2.642-8.805 3.55-17.977 2.698-27.132l362.415-121.025c11.895-3.228 24.584.071 33.159 8.629 8.57 8.587 11.871 21.276 8.642 33.172z" fill="#c68a86"/></g></svg>