<svg id="Layer_1" enable-background="new 0 0 512.002 512.002" height="512" viewBox="0 0 512.002 512.002" width="512" xmlns="http://www.w3.org/2000/svg"><g><g><g clip-rule="evenodd" fill-rule="evenodd"><circle cx="256.001" cy="40" fill="#f0e5f7" r="30"/><path d="m410.546 70h-154.545-154.545c-8.5 0-15.454 6.8-15.454 15.112v29.954c0 10.697 6.03 22.614 20.001 24.635 1.353.196 2.781.299 4.285.299 23.47 0 25.101-19.107 48.571-19.107s25.101 19.107 48.572 19.107 25.101-19.107 48.571-19.107 25.1 19.107 48.57 19.107 25.101-19.107 48.572-19.107c23.47 0 25.101 19.107 48.571 19.107 1.504 0 2.932-.103 4.285-.299 13.971-2.021 20.001-13.938 20.001-24.635v-29.954c0-8.311-6.955-15.112-15.455-15.112z" fill="#fff"/><path d="m304.572 140c-23.47 0-25.101-19.107-48.571-19.107s-25.101 19.107-48.571 19.107-25.101-19.107-48.572-19.107c-23.47 0-25.101 19.107-48.571 19.107-1.504 0-2.932-.103-4.285-.301v111.304h299.998v-111.302c-1.353.196-2.781.299-4.285.299-23.47 0-25.101-19.107-48.571-19.107-23.47.001-25.101 19.107-48.572 19.107z" fill="#ffe0e6"/><path d="m406 251.003h-299.998-50.001c-11 0-20 8.743-20 19.429v38.513c0 12.158 6.098 25.54 20.001 30.278 3.349 1.141 7.15 1.78 11.428 1.78 30.373 0 32.484-24.566 62.857-24.566 30.374 0 32.484 24.566 62.857 24.566s32.484-24.566 62.857-24.566 32.484 24.566 62.857 24.566c30.374 0 32.484-24.566 62.857-24.566s32.484 24.566 62.857 24.566c4.278 0 8.079-.639 11.428-1.78 13.903-4.737 20.001-18.12 20.001-30.278v-38.513c0-10.686-9-19.429-20-19.429z" fill="#fff"/><path d="m193.144 341.003c-30.374 0-32.484-24.566-62.857-24.566s-32.484 24.566-62.857 24.566c-4.278 0-8.079-.639-11.428-1.784v90.201c24.16 0 25.839-17.619 50-17.619s25.84 17.619 50 17.619 25.839-17.619 50-17.619 25.839 17.619 50 17.619c24.16 0 25.839-17.619 50-17.619 24.16 0 25.839 17.619 50 17.619 24.16 0 25.839-17.619 50-17.619s25.839 17.619 50 17.619v-90.198c-3.349 1.141-7.15 1.78-11.428 1.78-30.373 0-32.484-24.566-62.857-24.566-30.374 0-32.484 24.566-62.857 24.566s-32.484-24.566-62.857-24.566c-30.375.001-32.486 24.567-62.859 24.567z" fill="#f0e5f7"/><path d="m156.001 429.42c-24.16 0-25.839-17.619-50-17.619-24.16 0-25.839 17.619-50 17.619v52.582c0 11 9.001 20 20 20h359.999c10.999 0 20-9.001 20-20v-52.582c-24.161 0-25.839-17.619-50-17.619s-25.839 17.619-50 17.619c-24.16 0-25.839-17.619-50-17.619s-25.84 17.619-50 17.619c-24.161 0-25.839-17.619-50-17.619-24.16 0-25.838 17.619-49.999 17.619z" fill="#ffbecb"/><g fill="#fff"><ellipse cx="158.858" cy="195.351" rx="20" ry="20" transform="matrix(.707 -.707 .707 .707 -91.606 169.547)"/><ellipse cx="256.001" cy="195.351" rx="20" ry="20" transform="matrix(.707 -.707 .707 .707 -63.153 238.237)"/><circle cx="353.144" cy="195.351" r="20"/></g></g><g><path d="m130.286 380.504c-5.523 0-10.004-4.478-10.004-10s4.474-10 9.997-10h.007c5.523 0 10 4.478 10 10s-4.477 10-10 10z" fill="#fff"/></g><g><path d="m256.009 380.504c-5.523 0-10.004-4.478-10.004-10s4.474-10 9.997-10h.007c5.523 0 10 4.478 10 10s-4.478 10-10 10z" fill="#fff"/></g><g><path d="m381.723 380.504c-5.523 0-10.004-4.478-10.004-10s4.474-10 9.997-10h.007c5.523 0 10 4.478 10 10s-4.477 10-10 10z" fill="#fff"/></g><g><path d="m106.001 475.505c-5.523 0-10.004-4.478-10.004-10s4.474-10 9.997-10h.007c5.523 0 10 4.478 10 10s-4.477 10-10 10z" fill="#fff"/></g><g><path d="m206.001 475.505c-5.523 0-10.004-4.478-10.004-10s4.474-10 9.997-10h.007c5.523 0 10 4.478 10 10s-4.477 10-10 10z" fill="#fff"/></g><g><path d="m306.009 475.505c-5.523 0-10.004-4.478-10.004-10s4.474-10 9.997-10h.007c5.523 0 10 4.478 10 10s-4.478 10-10 10z" fill="#fff"/></g><g><path d="m406.008 475.505c-5.523 0-10.004-4.478-10.004-10s4.474-10 9.997-10h.007c5.523 0 10 4.478 10 10s-4.477 10-10 10z" fill="#fff"/></g></g><path d="m456.001 241.003h-40.001v-93.783c13.175-5.621 20-18.945 20-32.153v-29.955c0-13.847-11.419-25.112-25.454-25.112h-119.925c3.415-5.888 5.381-12.717 5.381-20 0-22.056-17.944-40-40-40s-40 17.944-40 40c0 7.283 1.966 14.112 5.381 20h-119.928c-14.035 0-25.454 11.266-25.454 25.112v29.954c0 13.208 6.825 26.532 20 32.153v93.783h-40c-16.542 0-30 13.202-30 29.43v38.513c0 14.453 6.809 29.023 20 36.641v136.416c0 16.542 13.458 30 30 30h359.999c16.542 0 30-13.458 30-30v-136.416c13.192-7.618 20-22.188 20-36.641v-38.513c.001-16.227-13.457-29.429-29.999-29.429zm-220-201.003c0-11.028 8.972-20 20-20s20 8.972 20 20c0 11.022-8.962 19.989-19.981 20h-.039c-11.018-.011-19.98-8.978-19.98-20zm-140 45.112c0-2.771 2.498-5.112 5.454-5.112h154.508c.013 0 .026.001.039.001s.025-.001.038-.001h154.506c2.957 0 5.454 2.341 5.454 5.112v29.954c0 2.494-.688 14.934-14.286 14.934-8.362 0-12.501-3.15-18.229-7.51-6.787-5.167-15.234-11.597-30.342-11.597s-23.555 6.43-30.342 11.597c-5.728 4.359-9.867 7.51-18.229 7.51s-12.501-3.15-18.229-7.511c-6.788-5.166-15.234-11.596-30.342-11.596s-23.555 6.43-30.343 11.597c-5.728 4.359-9.867 7.51-18.229 7.51s-12.501-3.15-18.229-7.51c-6.787-5.167-15.234-11.597-30.343-11.597-15.108 0-23.555 6.43-30.342 11.596-5.728 4.36-9.867 7.511-18.229 7.511-13.597 0-14.286-12.439-14.286-14.934v-29.954zm20.001 64.553c11.617-1.372 18.749-6.787 24.627-11.262 5.728-4.359 9.867-7.51 18.229-7.51 8.363 0 12.501 3.15 18.229 7.511 6.788 5.166 15.235 11.596 30.342 11.596 15.108 0 23.555-6.43 30.343-11.597 5.728-4.359 9.867-7.51 18.229-7.51s12.5 3.15 18.229 7.51c6.787 5.167 15.234 11.597 30.343 11.597 15.108 0 23.555-6.43 30.342-11.597 5.728-4.359 9.867-7.51 18.229-7.51s12.501 3.15 18.229 7.51c5.878 4.475 13.01 9.89 24.627 11.262v91.338h-279.998zm329.998 332.337c0 5.514-4.486 10-10 10h-359.998c-5.514 0-10-4.486-10-10v-131.034c.475.013.945.035 1.428.035 18.542 0 29.032-7.933 37.46-14.307 7.579-5.731 13.565-10.259 25.396-10.259 11.832 0 17.818 4.527 25.397 10.259 8.429 6.374 18.918 14.307 37.46 14.307s29.032-7.933 37.46-14.307c7.579-5.731 13.565-10.259 25.397-10.259 11.831 0 17.817 4.527 25.397 10.259 8.428 6.374 18.918 14.307 37.46 14.307s29.032-7.933 37.46-14.307c7.579-5.731 13.565-10.259 25.397-10.259 11.831 0 17.817 4.527 25.396 10.259 8.429 6.374 18.918 14.307 37.46 14.307.483 0 .953-.022 1.428-.035v131.034zm20.001-173.057c0 2.258-.601 22.058-21.428 22.058-11.832 0-17.818-4.527-25.397-10.259-8.429-6.374-18.918-14.307-37.46-14.307s-29.032 7.933-37.46 14.307c-7.579 5.731-13.565 10.259-25.397 10.259-11.831 0-17.817-4.527-25.396-10.259-8.429-6.374-18.918-14.307-37.46-14.307s-29.032 7.933-37.46 14.307c-7.579 5.731-13.565 10.259-25.397 10.259s-17.818-4.527-25.397-10.259c-8.429-6.374-18.918-14.307-37.46-14.307s-29.032 7.933-37.46 14.307c-7.58 5.731-13.566 10.259-25.397 10.259-20.827 0-21.428-19.8-21.428-22.058v-38.513c0-5.199 4.486-9.43 10-9.43h400c5.514 0 10 4.23 10 9.43v38.513z" fill="#ff7d97"/></g></svg>