<svg id="Layer_1" enable-background="new 0 0 511.962 511.962" height="512" viewBox="0 0 511.962 511.962" width="512" xmlns="http://www.w3.org/2000/svg"><g><g clip-rule="evenodd" fill-rule="evenodd"><path d="m323.218 209.528c3.334 6.235 13.09 3.465 12.044-9.551-1.784-22.213 15.55-35.305 30.033-37.774 0-5.598-1.035-11.017-2.908-16.081-8.878-24.002-36.579-39.998-62.066-28.991 4.253-26.339-16.197-51.161-44.336-51.161s-41.335 24.322-41.335 42.91c-19.657-12.657-41.041-1.826-42.619 17.577 18.308 2.241 34.304 15.304 39.371 34.213 1.529 5.705 2.779 13.389 3.43 21.944 31.264-46.157 88.452-19.397 87.197 16.031 9.242-.12 17.817 4.578 21.189 10.883z" fill="#b8ecbb"/><path d="m335.262 199.977c1.046 13.015-8.71 15.786-12.044 9.551-3.371-6.305-11.947-11.003-21.189-10.88-10.705.143-22.304 6.752-27.746 24.821-2.741 9.102-.174 16.165.567 22.199 2.514 3.276 5.095 6.72 7.713 10.303h148.523l-.03-.027c-6.187-5.546-2.816-13.482 4.591-14.183 24.852-2.353 28.953-29.392 18.103-44.946-8.045-17.174-33.512-27.14-47.976-6.795-4.311 6.064-12.869 5.015-14.578-3.115-.568-2.704-1.014-6.398-2.17-10.151-1.622-5.266-4.643-10.649-11.364-13.583-3.338-1.457-7.705-1.763-12.367-.968-14.483 2.469-31.818 15.561-30.033 37.774z" fill="#cff2d2"/><path d="m431.086 255.971h-148.523-10.163-1.1-137.949-64.167-15.313c-9.838 0-17.886 8.049-17.886 17.886v15.772c0 78.699 64.391 143.089 143.089 143.089h153.821c78.698 0 143.089-64.391 143.089-143.089v-15.772c0-9.837-8.048-17.886-17.886-17.886z" fill="#fff"/><path d="m274.85 245.668c-9.631-12.554-18.26-22.622-24.071-28.434-27.036-27.036-70.871-27.036-97.907 0-10.912 10.912-17.418 24.561-19.521 38.737h137.949l2.867-2.867c.982-2.337 1.009-4.787.683-7.436z" fill="#ffd4b5"/><path d="m362.387 146.123c1.873 5.063 2.908 10.483 2.908 16.081 4.662-.795 9.029-.489 12.367.968 6.721 2.934 9.742 8.317 11.364 13.583l106.438-102.825c8.759-8.461 8.612-22.704 0-31.317s-22.777-8.932-31.305-.239z" fill="#fff"/><path d="m215.261 198.266c13.014 2.562 25.434 8.885 35.518 18.968 5.812 5.812 14.44 15.881 24.072 28.434-.741-6.033-3.309-13.096-.568-22.199 5.442-18.069 17.041-24.679 27.746-24.821 1.254-35.429-55.934-62.188-87.197-16.031.374 4.92.549 10.128.464 15.413z" fill="#fff2a0"/><path d="m154.32 127.716c-5.91 1.583-11.247 4.236-15.863 7.692l-1.769-1.816-.266 1.296c13.157 13.625 32.868 44.272 34.789 68.677l.199.41c13.701-6.699 29.154-8.603 43.851-5.709l.034-.236c.085-5.285-.09-10.493-.464-15.413-.65-8.555-1.901-16.24-3.43-21.944-5.067-18.91-21.063-31.973-39.371-34.213-5.763-.706-11.757-.339-17.71 1.256z" fill="#e0ef9b"/><path d="m136.688 133.592-88.878-91.218c-8.499-8.722-22.693-8.374-31.305.239-8.612 8.612-8.777 22.874 0 31.316l58.022 55.807c18.263-13.808 44.373-12.387 61.021 4.261.288.288.579.584.873.889z" fill="#fff"/><path d="m135.548 133.998c-16.648-16.648-42.758-18.069-61.021-4.261-1.703 1.288-3.338 2.708-4.891 4.261-18.201 18.201-18.201 47.711 0 65.912 13.114 13.114 44.494 33.619 69.422 35.651l.642.036c3.265-6.63 7.655-12.846 13.172-18.363 5.565-5.565 11.842-9.985 18.538-13.259l-.199-.41c-1.921-24.405-21.632-55.052-34.789-68.677-.295-.306-.586-.602-.874-.89z" fill="#eaf5bc"/><path d="m139.058 235.561c-23.685-1.931-53.193-20.537-67.326-33.636l-.151.194c-3.717 4.773-6.563 10.352-8.227 16.563-3.541 13.214-1.032 26.624 5.829 37.289h64.167c1.04-7.009 3.156-13.89 6.349-20.375z" fill="#e0ef9b"/><g fill="#e3eaef"><path d="m179.074 432.718h153.822v43.252h-153.822z"/><path d="m451.557 369.345c10.083-14.93 17.429-31.842 21.303-50h-433.751c3.874 18.158 11.22 35.07 21.303 50z"/></g></g><path d="m511.962 58.44c.03-8.666-3.312-16.798-9.41-22.897-6.104-6.104-14.597-9.557-23.186-9.539-8.513.041-16.442 3.368-22.329 9.368l-92.233 94.024c-4.658-6.743-10.7-12.619-17.803-17.068-11.347-7.106-24.091-9.923-36.466-8.297-1.219-10.498-5.537-20.537-12.587-28.816-10.412-12.229-25.702-19.242-41.947-19.242-26.222 0-43.833 17.913-49.425 38.638-8.496-2.075-17.199-1.363-24.844 2.259-8.276 3.922-14.478 10.854-17.573 19.301-4.147.172-8.304.787-12.411 1.888-4.106 1.1-8.029 2.644-11.739 4.598l-85.021-87.261c-5.854-6.009-13.765-9.348-22.272-9.403-.069 0-.138-.001-.207-.001-8.588 0-16.982 3.475-23.06 9.551-6.088 6.089-9.532 14.541-9.448 23.189.083 8.582 3.488 16.539 9.587 22.405l50.451 48.525c-18.317 20.883-18.662 52.12-1.027 73.389-7.372 13.129-9.152 28.591-5.145 42.921-15.368.01-27.867 12.516-27.867 27.886v15.771c0 40.733 15.968 79.134 44.962 108.128 26.608 26.608 61.141 42.235 98.127 44.628v33.586c0 5.522 4.477 10 10 10h153.821c5.522 0 10-4.478 10-10v-33.586c36.986-2.393 71.519-18.02 98.128-44.629 28.994-28.993 44.962-67.394 44.962-108.127v-15.771c0-15.377-12.51-27.887-27.886-27.887h-4.463c5.282-3.424 9.488-8.227 12.231-14.149 5.728-12.371 4.331-28.339-3.434-40.02-6.232-12.564-19.362-21.758-32.94-22.982-7.648-.696-14.966 1.143-21.281 5.189l94.273-92.957c6.071-5.986 9.431-14.017 9.462-22.612zm-321.667 56.503c5.605-2.656 12.515-1.801 18.956 2.347 3.077 1.983 6.99 2.123 10.203.372 3.212-1.753 5.211-5.12 5.211-8.779 0-12.724 8.507-32.91 31.335-32.91 10.527 0 20.017 4.336 26.72 12.209 6.496 7.629 9.318 17.601 7.743 27.357-.582 3.604.847 7.24 3.729 9.483 2.881 2.244 6.758 2.738 10.108 1.291 10.288-4.443 21.982-3.361 32.085 2.965 9.382 5.876 15.985 15.367 18.145 25.642-3.637 1.435-7.199 3.333-10.518 5.701-12.01 8.568-18.736 21.483-18.856 35.901-6.885-5.663-16.595-8.672-26.367-7.696-15.39 1.532-27.433 12.241-33.333 29.501-2.76-3.132-5.322-5.897-7.59-8.164-9.267-9.268-20.429-15.949-32.609-19.699-.333-11.847-1.828-23.599-4.181-32.379-3.913-14.604-13.28-26.812-26.375-34.372-3.125-1.804-6.375-3.282-9.708-4.449 1.371-1.815 3.152-3.302 5.302-4.321zm-115.174 131.028c-4.205-9.178-4.397-19.595-.716-28.809 13.755 10.49 33.033 21.557 51.538 26.243-.254.85-.488 1.706-.714 2.566zm1.603-104.902c14.271-14.273 37.496-14.274 51.77 0 11.254 11.254 27.867 36.931 31.948 57.547-2.73 1.68-5.365 3.534-7.896 5.554l-13.986-13.986c-3.905-3.904-10.237-3.904-14.143 0-3.905 3.905-3.905 10.237 0 14.143l14.162 14.162c-1.54 2.037-2.981 4.137-4.31 6.302-20.778-4.055-46.097-20.504-57.545-31.953-14.274-14.271-14.274-37.496 0-51.769zm83.236 83.236c11.187-11.188 26.061-17.349 41.882-17.349s30.695 6.161 41.882 17.349c4.053 4.052 10.609 11.445 18.7 21.666h-116.264c2.93-8.095 7.598-15.465 13.8-21.666zm24.743-83.273c8.468 4.89 14.525 12.783 17.056 22.228 1.383 5.162 2.811 13.623 3.349 23.776-1.086-.044-2.173-.079-3.266-.079-7.831 0-15.486 1.135-22.784 3.315-4.679-18.504-15.718-37.75-26.238-51.526 1.335-.531 2.701-.994 4.105-1.37 9.445-2.53 19.308-1.233 27.778 3.656zm-164.702-82.495c-.032-3.312 1.277-6.538 3.592-8.853 2.35-2.35 5.594-3.693 8.914-3.693.026 0 .053 0 .08.001 3.117.02 5.986 1.214 8.078 3.36l59.513 61.079c-8.411.358-16.752 2.581-24.355 6.66l-52.369-50.368c-2.196-2.113-3.422-5.02-3.453-8.186zm169.089 407.434v-23.253h133.821v23.253zm276.911-192.113v15.771c0 73.386-59.704 133.089-133.09 133.089h-153.821c-73.386 0-133.089-59.703-133.089-133.089v-15.771c0-4.349 3.538-7.887 7.886-7.887h404.229c4.348 0 7.885 3.538 7.885 7.887zm-52.06-78.043c3.688-5.187 8.314-7.566 13.772-7.076 6.901.622 13.891 5.688 16.997 12.319.242.517.527 1.011.854 1.479 4.189 6.007 5.082 14.593 2.17 20.881-2.3 4.967-6.679 7.789-13.013 8.389-7.187.681-13.197 5.042-15.688 11.384-.359.915-.627 1.845-.824 2.781h-44.018l5.857-7.18c3.491-4.279 2.852-10.579-1.428-14.07-4.279-3.492-10.58-2.853-14.07 1.428l-15.5 19c-.218.267-.419.541-.604.822h-60.818c-1.09-1.464-2.178-2.908-3.264-4.337-.116-.672-.235-1.336-.353-1.984-.841-4.584-1.567-8.543-.136-13.297 3.238-10.754 9.081-16.849 16.896-17.627 6.63-.655 12.181 2.78 13.645 5.517 3.578 6.693 11.007 9.923 18.065 7.849 6.582-1.933 13.876-9.094 12.766-22.915-.934-11.622 5.131-18.528 10.383-22.276 7.059-5.035 15.013-5.886 18.049-4.563 4.811 2.1 5.97 6.769 7.189 13.651.189 1.07.369 2.07.559 2.973 1.584 7.539 6.897 13.124 13.867 14.577 6.956 1.445 14.279-1.582 18.647-7.725zm74.518-129.006-96.251 94.909c-2.572-3.016-5.972-5.722-10.53-7.711-2.253-.983-4.725-1.615-7.323-1.948-.198-1.053-.425-2.102-.684-3.143l97.643-99.538c2.12-2.161 5.013-3.359 8.147-3.374h.059c3.311 0 6.547 1.34 8.889 3.681 2.303 2.304 3.564 5.388 3.553 8.685-.012 3.226-1.256 6.224-3.503 8.439z" fill="#5cd0b3"/></g></svg>