<svg id="Layer_1" enable-background="new 0 0 512 512" height="512" viewBox="0 0 512 512" width="512" xmlns="http://www.w3.org/2000/svg"><g><g><g clip-rule="evenodd" fill-rule="evenodd"><path d="m496.984 129.371c-19.837-64.575-92.852-102.138-137.729-97.849 4.115 4.706 7.846 10.28 11.113 16.814 11.817 23.635 33.343 116.065 25.324 135.058-.578 1.368-1.192 2.751-1.854 4.141 0 0 36.885-5.407 57.988-3.719 21.101 1.688 64.994 10.13 45.158-54.445z" fill="#fff3db"/><path d="m395.69 183.394c8.019-18.993-13.506-111.423-25.324-135.058-3.267-6.534-6.998-12.108-11.113-16.814-38.293-43.798-109.805-12.404-149.32 20.49 5.447 3.502 10.067 8.857 14.321 15.71 30.157 48.57 60.314 97.14 90.471 145.71 2.807 4.521 4.713 9.469 5.042 14.249 49.001-3.161 65.533-22.237 74.068-40.146.663-1.39 1.278-2.773 1.855-4.141z" fill="#fff3db"/><path d="m314.726 213.432c-30.157-48.57-60.314-97.14-90.471-145.71-4.255-6.853-8.875-12.208-14.321-15.71-5.742-3.691-12.403-5.322-20.523-4.475-34.482 3.595-68.516 16.454-96.968 44.906s-41.31 62.486-44.906 96.968c-.847 8.121.784 14.781 4.475 20.523 3.502 5.447 8.857 10.067 15.71 14.322 48.57 30.157 97.14 60.314 145.71 90.471 4.521 2.807 9.469 4.713 14.249 5.042 5.05.347 9.913-1.067 13.887-5.042 24.386-24.386 48.772-48.772 73.157-73.157 3.975-3.975 5.389-8.838 5.042-13.888-.328-4.781-2.235-9.729-5.041-14.25z" fill="#fff3db"/><path d="m213.432 314.726c-48.57-30.157-97.14-60.314-145.71-90.471-6.852-4.255-12.208-8.875-15.71-14.322-32.894 39.515-64.288 111.027-20.49 149.321 4.706 4.115 10.28 7.846 16.814 11.113 23.635 11.817 116.065 33.342 135.058 25.324 1.368-.578 2.751-1.192 4.141-1.854 17.909-8.535 36.985-25.067 40.146-74.068-4.78-.33-9.728-2.237-14.249-5.043z" fill="#fff3db"/><path d="m183.394 395.69c-18.993 8.019-111.423-13.506-135.058-25.324-6.534-3.267-12.108-6.998-16.814-11.113-4.289 44.877 33.274 117.893 97.848 137.729 64.575 19.837 56.133-24.057 54.445-45.16s3.719-57.988 3.719-57.988c-1.389.664-2.772 1.279-4.14 1.856z" fill="#fff3db"/><path d="m137.88 267.816c-23.386-14.521-46.772-29.041-70.158-43.561-6.852-4.255-12.208-8.875-15.71-14.322-32.894 39.515-64.288 111.027-20.49 149.321 2.166 1.893 4.515 3.706 7.057 5.429 3.234-7.421 3.774-14.042 12.961-23.229 14.009-14.009 22.053-7.911 36.063-21.92 14.009-14.009 7.911-22.053 21.92-36.062 11.237-11.238 18.637-9.54 28.357-15.656z" fill="#ffd4b5"/><path d="m52.012 209.933c3.502 5.447 8.857 10.067 15.71 14.322 23.386 14.52 46.772 29.04 70.158 43.561 2.397-1.509 4.934-3.493 7.706-6.265 14.009-14.009 7.911-22.053 21.92-36.062s22.053-7.911 36.062-21.92 7.911-22.054 21.921-36.063c14.009-14.009 22.053-7.911 36.062-21.92 2.771-2.771 4.756-5.309 6.265-7.706-14.52-23.386-29.041-46.772-43.561-70.158-4.255-6.853-8.875-12.208-14.321-15.71-5.742-3.691-12.403-5.322-20.523-4.475-34.482 3.595-68.516 16.454-96.968 44.906s-41.31 62.486-44.906 96.968c-.848 8.12.784 14.78 4.475 20.522z" fill="#ffd4b5"/><path d="m224.255 67.721c14.52 23.386 29.04 46.772 43.561 70.158 6.119-9.719 4.418-17.119 15.655-28.357 14.009-14.009 22.054-7.911 36.063-21.92s7.911-22.054 21.92-36.062c9.187-9.187 15.809-9.727 23.229-12.961-1.723-2.542-3.535-4.891-5.429-7.057-38.294-43.798-109.806-12.404-149.321 20.49 5.447 3.501 10.067 8.857 14.322 15.709z" fill="#ffd4b5"/></g><g><path d="m173.38 116.89c-5.522 0-10.004-4.478-10.004-10s4.475-10 9.997-10h.007c5.522 0 10 4.478 10 10s-4.478 10-10 10z" fill="#fff"/></g><g><path d="m132.573 192.49c-5.522 0-10.004-4.478-10.004-10s4.474-10 9.996-10h.008c5.522 0 10 4.478 10 10s-4.477 10-10 10z" fill="#fff"/></g><g><path d="m341.973 139.69c-5.522 0-10.004-4.478-10.004-10s4.474-10 9.996-10h.008c5.522 0 10 4.478 10 10 0 5.523-4.477 10-10 10z" fill="#ffd4b5"/></g><g><path d="m239.373 235.091c-5.522 0-10.004-4.478-10.004-10s4.475-10 9.997-10h.007c5.522 0 10 4.478 10 10s-4.478 10-10 10z" fill="#ffd4b5"/></g><g><path d="m59.973 307.091c-5.522 0-10.004-4.478-10.004-10s4.474-10 9.996-10h.008c5.522 0 10 4.478 10 10s-4.477 10-10 10z" fill="#fff"/></g><g><path d="m154.173 352.091c-5.522 0-10.004-4.478-10.004-10s4.475-10 9.997-10h.007c5.522 0 10 4.478 10 10s-4.478 10-10 10z" fill="#ffd4b5"/></g><g><path d="m109.37 440.631c-5.522 0-10.004-4.478-10.004-10s4.475-10 9.997-10h.007c5.522 0 10 4.478 10 10s-4.478 10-10 10z" fill="#ffd4b5"/></g><g><path d="m440.981 125.89c-5.522 0-10.004-4.478-10.004-10s4.474-10 9.996-10h.008c5.522 0 10 4.478 10 10s-4.477 10-10 10z" fill="#ffd4b5"/></g></g><path d="m506.543 126.434c-9.701-31.579-32.27-60.052-63.549-80.174-25.947-16.693-55.295-25.851-79.626-25.017-9.895-9.947-21.98-16.469-36.16-19.446-40.407-8.484-87.817 14.527-118.464 38.349-5.688-2.276-12.398-3.387-20.371-2.557-40.908 4.266-75.563 20.342-103.002 47.781-27.439 27.438-43.516 62.094-47.781 103.002-.832 7.975.279 14.686 2.555 20.375-23.823 30.648-46.831 78.047-38.347 118.458 2.977 14.181 9.499 26.267 19.446 36.162-.834 24.328 8.323 53.676 25.014 79.623 20.123 31.281 48.597 53.852 80.177 63.553 11.84 3.637 22.084 5.457 30.836 5.457 10.425-.001 18.732-2.584 25.087-7.757 15.246-12.411 13.175-34.442 11.804-49.021-.139-1.476-.271-2.882-.377-4.196-1.093-13.67 1.11-36.432 2.958-50.691 17.754-9.864 35.547-28.312 40.208-71.63 4.348-1.236 8.32-3.539 11.69-6.908l73.156-73.157c3.369-3.369 5.67-7.342 6.906-11.689 43.315-4.663 61.765-22.452 71.632-40.21 14.271-1.85 37.005-4.05 50.692-2.957 1.314.105 2.721.238 4.196.377 14.579 1.373 36.61 3.443 49.021-11.804 9.516-11.689 10.268-29.982 2.299-55.923zm-336.812 362.298c-5.858 4.771-19.149 4.307-37.424-1.309-52.43-16.105-84.586-69.428-90.224-109.054.596.312 1.172.638 1.78.942 12.373 6.187 41.868 14.802 71.726 20.95 23.159 4.77 41.287 7.16 54.219 7.16 2.141 0 4.124-.073 5.98-.204-1.434 13.069-3.009 32.043-1.94 45.402.111 1.402.252 2.901.4 4.475.973 10.343 2.443 25.973-4.517 31.638zm9.774-102.255c-3.594 1.519-20.733 2.259-59.881-5.805-27.896-5.744-55.996-13.841-66.815-19.25-17.586-8.793-27.869-21.33-31.438-38.327-6.321-30.109 10.208-68.951 31.145-97.551 3.293 2.862 6.742 5.225 9.932 7.206l145.71 90.471c2.926 1.817 5.876 3.232 8.806 4.293-4.431 39.578-20.538 51.819-37.459 58.963zm128.149-151.979-73.155 73.156c-4.665 4.665-12.6.559-15.792-1.425l-145.71-90.47c-14.151-8.787-16.437-16.474-15.515-25.313 3.777-36.228 17.919-66.822 42.031-90.934 24.111-24.112 54.706-38.254 90.934-42.031 1.09-.113 2.16-.179 3.219-.179 7.53 0 14.39 3.286 22.093 15.692l90.471 145.71c1.982 3.195 6.09 11.128 1.424 15.794zm19.877-17.534c-1.061-2.93-2.493-5.882-4.309-8.808l-90.472-145.71c-1.98-3.189-4.344-6.638-7.206-9.929 28.597-20.937 67.438-37.465 97.555-31.146 16.996 3.569 29.532 13.852 38.324 31.437 5.409 10.82 13.506 38.92 19.25 66.816 8.063 39.146 7.322 56.287 5.805 59.881-7.146 16.923-19.387 33.03-58.947 37.459zm161.201-47.233c-5.664 6.958-21.294 5.49-31.638 4.518-1.573-.148-3.072-.289-4.474-.4-13.37-1.073-32.323.5-45.4 1.937.921-13.061-1.401-33.208-6.96-60.196-6.148-29.857-14.764-59.352-20.95-71.726-.304-.607-.629-1.183-.94-1.778 39.637 5.639 92.948 37.791 109.053 90.221 5.615 18.274 6.08 31.565 1.309 37.424z" fill="#ffa96b"/></g></svg>