<svg id="Layer_1" enable-background="new 0 0 512.036 512.036" height="512" viewBox="0 0 512.036 512.036" width="512" xmlns="http://www.w3.org/2000/svg"><g><g><g clip-rule="evenodd" fill-rule="evenodd"><path d="m302.843 29.647-28.765-15.18-.009.017c-11.286-5.929-25.261-6.169-37.172.59l-24.401 13.929-30.557-2.845c-13.274-1.796-27.115 3.348-35.89 14.709l-17.069 22.021-30.894 9.552.012.041c-12.241 3.776-22.348 13.544-25.963 26.82l-7.308 26.75-25.023 20.759.063.076c-9.852 8.168-15.446 21.042-13.722 34.678l3.501 27.632-15.18 28.765.017.009c-5.929 11.286-6.169 25.261.59 37.172l13.929 24.401-2.845 30.557c-1.796 13.273 3.348 27.115 14.71 35.89l22.022 17.069 9.551 30.894.041-.012c3.776 12.241 13.544 22.348 26.82 25.963l26.75 7.308 20.759 25.023.076-.063c8.168 9.852 21.042 15.447 34.678 13.722l27.632-3.501 28.765 15.18.009-.017c11.286 5.929 25.261 6.169 37.172-.59l24.401-13.929 30.557 2.845c13.273 1.796 27.115-3.348 35.89-14.71l17.069-22.022 30.894-9.551-.012-.041c12.241-3.776 22.348-13.544 25.963-26.82l7.308-26.75 25.023-20.759-.063-.076c9.852-8.168 15.447-21.042 13.722-34.678l-3.501-27.632 15.18-28.765-.017-.009c5.929-11.286 6.169-25.261-.59-37.172l-13.929-24.401 2.845-30.557c1.796-13.273-3.348-27.115-14.71-35.89l-22.022-17.069-9.551-30.894-.041.012c-3.776-12.241-13.544-22.348-26.82-25.963l-26.75-7.308-20.759-25.023-.076.063c-8.168-9.852-21.042-15.447-34.678-13.722z" fill="#ffe9da"/><circle cx="199.559" cy="160.264" fill="#f3c9a6" r="30"/><circle cx="183.559" cy="363.265" fill="#f3c9a6" r="30"/><circle cx="361.559" cy="260.265" fill="#f3c9a6" r="30"/><circle cx="118.56" cy="259.265" fill="#f3c9a6" r="20"/><ellipse cx="310.56" cy="378.265" fill="#f3c9a6" rx="20" ry="20" transform="matrix(.973 -.23 .23 .973 -78.6 81.471)"/><circle cx="331.56" cy="139.265" fill="#f3c9a6" r="20"/></g><g><path d="m256.018 266.019c-5.522 0-10.004-4.478-10.004-10s4.475-10 9.997-10h.007c5.522 0 10 4.478 10 10s-4.477 10-10 10z" fill="#ddb9a3"/></g><g><path d="m245.567 439.265c-5.522 0-10.004-4.478-10.004-10s4.475-10 9.997-10h.007c5.522 0 10 4.478 10 10s-4.477 10-10 10z" fill="#ddb9a3"/></g><g><path d="m390.567 354.265c-5.522 0-10.004-4.478-10.004-10s4.475-10 9.997-10h.007c5.522 0 10 4.478 10 10s-4.477 10-10 10z" fill="#ddb9a3"/></g><g><path d="m103.567 179.265c-5.522 0-10.004-4.478-10.004-10s4.474-10 9.996-10h.008c5.522 0 10 4.478 10 10s-4.477 10-10 10z" fill="#ddb9a3"/></g><g><path d="m399.567 181.265c-5.522 0-10.004-4.478-10.004-10s4.475-10 9.997-10h.007c5.522 0 10 4.478 10 10s-4.477 10-10 10z" fill="#ddb9a3"/></g><g><path d="m261.567 101.265c-5.522 0-10.004-4.478-10.004-10s4.475-10 9.997-10h.007c5.522 0 10 4.478 10 10s-4.477 10-10 10z" fill="#ddb9a3"/></g></g><g><path d="m505.648 231.94-12.363-21.658 2.534-27.218c2.242-17.157-4.847-34.355-18.522-44.917l-19.526-15.136-8.618-27.878c-.103-.331-.221-.653-.354-.967-5.156-15.56-17.585-27.362-33.426-31.677l-23.705-6.477-18.743-22.592c-.337-.406-.7-.779-1.085-1.117-10.704-12.119-26.52-18.11-42.621-16.078l-24.5 3.104-25.974-13.706c-.211-.111-.424-.215-.639-.31-14.645-7.438-31.842-7.056-46.167 1.075l-21.658 12.363-27.218-2.534c-17.163-2.244-34.357 4.847-44.917 18.522l-15.136 19.528-27.879 8.619c-.325.101-.644.218-.954.351-15.567 5.152-27.375 17.584-31.689 33.428l-6.476 23.704-22.592 18.744c-.406.337-.779.7-1.117 1.085-12.119 10.704-18.115 26.519-16.078 42.622l3.104 24.5-13.706 25.972c-.111.211-.215.424-.31.639-7.438 14.646-7.054 31.843 1.075 46.166l12.363 21.66-2.534 27.218c-2.242 17.158 4.847 34.355 18.522 44.917l19.526 15.136 8.619 27.878c.1.322.215.638.347.945 5.15 15.57 17.583 27.383 33.433 31.698l23.704 6.476 18.743 22.594c.337.406.7.779 1.086 1.117 10.704 12.119 26.521 18.113 42.621 16.078l24.5-3.104 25.973 13.706c.211.111.424.215.639.31 6.98 3.544 14.538 5.312 22.09 5.312 8.294 0 16.58-2.133 24.076-6.388l21.66-12.363 27.218 2.534c17.163 2.249 34.354-4.846 44.917-18.521l15.135-19.527 27.878-8.618c.326-.101.645-.218.956-.351 15.566-5.152 27.373-17.583 31.688-33.43l6.476-23.704 22.594-18.742c.396-.328.763-.687 1.098-1.069 12.132-10.702 18.135-26.524 16.097-42.638l-3.104-24.5 13.706-25.974c.112-.211.215-.425.31-.64 7.435-14.646 7.052-31.844-1.077-46.167zm-16.946 37.479c-.094.178-.181.356-.263.537l-14.892 28.221c-.959 1.817-1.335 3.886-1.077 5.924l3.5 27.63c1.238 9.795-2.568 19.411-10.183 25.725-.357.296-.691.616-.999.957l-23.964 19.879c-1.581 1.312-2.721 3.079-3.262 5.062l-7.31 26.757c-2.598 9.536-9.798 16.973-19.263 19.893-.296.091-.586.196-.87.313l-30.018 9.28c-1.964.606-3.692 1.804-4.951 3.428l-17.079 22.036c-6.262 8.106-16.471 12.287-26.634 10.911-.138-.019-.276-.034-.414-.047l-30.557-2.846c-2.048-.185-4.101.255-5.885 1.272l-24.38 13.916c-8.553 4.854-18.863 5.017-27.586.436-.177-.094-.356-.181-.536-.262l-28.221-14.893c-1.817-.96-3.889-1.334-5.924-1.077l-27.63 3.501c-9.786 1.239-19.411-2.567-25.725-10.184-.303-.365-.627-.703-.969-1.013l-19.868-23.95c-1.312-1.581-3.079-2.721-5.062-3.262l-26.757-7.31c-9.536-2.598-16.973-9.798-19.893-19.263-.09-.293-.194-.58-.311-.861l-9.283-30.026c-.606-1.963-1.804-3.691-3.428-4.949l-22.035-17.08c-8.106-6.262-12.288-16.468-10.912-26.636.019-.138.034-.275.047-.413l2.846-30.557c.19-2.046-.254-4.101-1.272-5.885l-13.916-24.38c-4.854-8.553-5.017-18.865-.435-27.585.094-.178.181-.357.263-.538l14.892-28.22c.959-1.817 1.335-3.886 1.077-5.924l-3.501-27.63c-1.238-9.794 2.568-19.411 10.184-25.725.365-.303.702-.627 1.013-.968l23.949-19.869c1.581-1.312 2.721-3.079 3.262-5.061l7.31-26.758c2.597-9.535 9.798-16.972 19.263-19.892.297-.091.587-.196.87-.313l30.019-9.281c1.963-.606 3.691-1.804 4.949-3.428l17.081-22.035c6.26-8.107 16.465-12.292 26.635-10.912.138.019.275.034.413.047l30.558 2.846c2.043.189 4.101-.254 5.885-1.272l24.378-13.916c8.552-4.853 18.864-5.018 27.585-.435.179.094.358.182.54.264l28.219 14.891c1.817.96 3.889 1.333 5.924 1.077l27.63-3.501c9.787-1.234 19.41 2.567 25.724 10.184.303.365.627.703.969 1.013l19.868 23.949c1.312 1.581 3.079 2.72 5.061 3.262l26.758 7.311c9.536 2.598 16.973 9.798 19.893 19.263.093.299.198.592.315.876l9.278 30.012c.606 1.963 1.804 3.691 3.428 4.949l22.035 17.08c8.106 6.262 12.288 16.468 10.912 26.636-.019.138-.034.275-.047.413l-2.846 30.558c-.19 2.045.254 4.1 1.272 5.885l13.916 24.378c4.855 8.552 5.018 18.864.437 27.585z" fill="#c68a86"/></g></g></svg>