<svg id="Layer_1" enable-background="new 0 0 512 512" height="512" viewBox="0 0 512 512" width="512" xmlns="http://www.w3.org/2000/svg"><g><g clip-rule="evenodd" fill-rule="evenodd"><path d="m296 96c0-22.091-17.909-40-40-40s-40 17.908-40 40c0 22.041 17.826 39.918 39.848 40h.152.152c22.022-.082 39.848-17.959 39.848-40z" fill="#ffbecb"/><path d="m255.848 136h-139.847c-10.998 0-18.033 9.18-20 20l-11.492 63.205c55.168-28.524 98.183-16.065 98.183 27.23 0 19.783-2.715 71.711 33.061 71.711 42.496 0 28.14-62.529 35.525-87.558 8.629-29.246 40.158-35.145 71.802-10.186 33.639 26.532 78.158 20.197 104.761.721l-11.842-65.123c-1.967-10.823-9.002-20-20-20h-139.847c-.051 0-.102 0-.152 0-.051 0-.102 0-.152 0z" fill="#f3c9a6"/><path d="m182.692 246.435c0-43.295-43.015-55.754-98.183-27.23l-28.509 156.795h400l-28.16-154.878c-26.603 19.475-71.122 25.81-104.761-.721-31.644-24.958-63.173-19.06-71.802 10.186-7.384 25.029 6.971 87.558-35.525 87.558-35.775 0-33.06-51.927-33.06-71.71z" fill="#ffe9da"/><path d="m456 376h-400-26c-11 0-20 9-20 20s9 20 20 20h452c11 0 20-9 20-20s-9-20-20-20z" fill="#fffbe1"/><path d="m482 416h-452l20.001 40h411.998z" fill="#fff7bf"/></g><path d="m512 396c0-16.542-13.458-30-30-30h-17.654l-38.509-211.788c-3.066-16.875-15.058-28.212-29.838-28.212h-100.026c6.292-8.363 10.027-18.753 10.027-30 0-27.57-22.43-50-50-50s-50 22.43-50 50c0 11.247 3.735 21.637 10.027 30h-100.026c-14.779 0-26.77 11.337-29.839 28.211l-38.508 211.789h-17.654c-16.542 0-30 13.458-30 30 0 14.294 10.052 26.277 23.456 29.272l17.601 35.2c1.693 3.388 5.156 5.528 8.943 5.528h411.999c3.788 0 7.25-2.14 8.944-5.527l17.601-35.2c13.404-2.996 23.456-14.979 23.456-29.273zm-286-300c0-16.542 13.458-30 30-30s30 13.458 30 30-13.458 30-30 30-30-13.458-30-30zm-120.16 61.789c.358-1.969 2.53-11.789 10.161-11.789h279.998c7.632 0 9.803 9.82 10.161 11.789l37.858 208.211h-376.035zm349.979 288.211h-399.638l-10-20h419.638zm26.181-40h-452c-5.514 0-10-4.486-10-10s4.486-10 10-10h452c5.514 0 10 4.486 10 10s-4.486 10-10 10z" fill="#c68a86"/></g></svg>