<svg id="Layer_1" enable-background="new 0 0 511.959 511.959" height="512" viewBox="0 0 511.959 511.959" width="512" xmlns="http://www.w3.org/2000/svg"><g><g><path clip-rule="evenodd" d="m195.36 165.737c27.13-59.754 81.571-95.363 147.695-89.034 36.764 3.519 69.202 19.002 91.501 48.966 28.264 37.979 33.086 89.148 21.604 134.074-14.913 58.345-55.197 104.575-107.283 133.533-67.789 37.69-161.544 52.431-237.177 36.277-42.988-9.181-79.852-50.306-51.607-93.169 6.088-9.239 13.225-16.956 21.301-24.47 17.713-16.482 35.48-30.365 52.009-48.53 26.308-28.912 45.847-62.165 61.957-97.647zm-92.016 302.934c80.481 17.188 184.69 4.198 264.969-40.435 194.123-107.93 167.982-373.219-21.447-391.351-81.343-7.786-152.866 35.091-187.928 112.316-49.935 109.986-97.731 112.795-132.246 165.174-44.746 67.902 6.977 139.415 76.652 154.296z" fill="#f3c9a6" fill-rule="evenodd"/><path clip-rule="evenodd" d="m343.055 76.703c-66.124-6.329-120.565 29.28-147.695 89.034-16.109 35.482-35.648 68.735-61.957 97.647-16.53 18.165-34.296 32.048-52.009 48.53-8.076 7.514-15.213 15.231-21.301 24.47-28.245 42.863 8.619 83.988 51.607 93.169 75.633 16.153 169.389 1.412 237.177-36.277 52.086-28.959 92.371-75.189 107.283-133.533 11.483-44.926 6.66-96.095-21.604-134.074-22.3-29.964-54.738-45.447-91.501-48.966z" fill="#ffe9da" fill-rule="evenodd"/><g><path d="m175.099 373.987c-2.559 0-5.119-.977-7.071-2.929l-27.734-27.734c-3.905-3.905-3.905-10.237 0-14.143 3.905-3.904 10.237-3.904 14.143 0l27.734 27.734c3.905 3.905 3.905 10.237 0 14.143-1.953 1.952-4.513 2.929-7.072 2.929z" fill="#f3c9a6"/></g><g><path d="m245.182 367.703c-2.559 0-5.119-.977-7.071-2.929l-58.577-58.576c-3.905-3.905-3.905-10.237 0-14.143 3.905-3.904 10.237-3.904 14.143 0l58.577 58.576c3.905 3.905 3.905 10.237 0 14.143-1.953 1.952-4.513 2.929-7.072 2.929z" fill="#f3c9a6"/></g><g><path d="m302.454 348.607c-2.559 0-5.119-.977-7.071-2.929l-82.672-82.672c-3.905-3.905-3.905-10.237 0-14.143 3.905-3.904 10.237-3.904 14.143 0l82.672 82.672c3.905 3.905 3.905 10.237 0 14.143-1.953 1.953-4.513 2.929-7.072 2.929z" fill="#f3c9a6"/></g><g><path d="m348.029 317.815c-2.559 0-5.119-.977-7.071-2.929l-100.936-100.935c-3.905-3.905-3.905-10.237 0-14.143 3.905-3.904 10.237-3.904 14.143 0l100.936 100.936c3.905 3.905 3.905 10.237 0 14.143-1.953 1.952-4.513 2.928-7.072 2.928z" fill="#f3c9a6"/></g><g><path d="m379.298 272.717c-2.559 0-5.119-.977-7.071-2.929l-100.574-100.573c-3.905-3.905-3.905-10.237 0-14.143 3.905-3.904 10.237-3.904 14.143 0l100.574 100.573c3.905 3.905 3.905 10.237 0 14.143-1.953 1.952-4.513 2.929-7.072 2.929z" fill="#f3c9a6"/></g><g><path d="m384.547 201.598c-2.559 0-5.119-.977-7.071-2.929l-40.652-40.651c-3.905-3.905-3.905-10.237 0-14.143 3.905-3.904 10.236-3.904 14.143 0l40.652 40.651c3.905 3.905 3.905 10.237 0 14.143-1.953 1.953-4.513 2.929-7.072 2.929z" fill="#f3c9a6"/></g></g><path d="m507.468 170.001c-7.945-38.02-26.01-71.25-52.243-96.099-28.188-26.701-65.328-42.943-107.406-46.971-85.33-8.173-161.195 37.1-197.987 118.137-30.701 67.619-60.538 93.51-86.863 116.353-16.045 13.923-31.2 27.073-44.629 47.452-19.849 30.121-23.734 63.909-10.938 95.139 15.066 36.77 51.028 65.293 93.854 74.439 23.717 5.065 48.944 7.522 74.689 7.522 68.262 0 140.166-17.272 197.227-48.997 52.457-29.165 92.641-71.425 116.207-122.21 21.494-46.319 27.918-97.731 18.089-144.765zm-144.015 249.495c-74.597 41.476-175.875 56.938-258.021 39.396-35.903-7.668-67.118-32.187-79.523-62.464-7.226-17.635-11.507-45.231 9.131-76.551 11.915-18.081 25.41-29.791 41.036-43.351 27.871-24.185 59.461-51.596 91.966-123.191 30.596-67.389 91.002-107.34 160.321-107.34 5.79 0 11.646.279 17.549.844 73.726 7.058 126.802 54.628 141.978 127.252 16.422 78.584-15.686 184.941-124.437 245.405z" fill="#c68a86"/></g></svg>