<svg id="Layer_1" enable-background="new 0 0 512.002 512.002" height="512" viewBox="0 0 512.002 512.002" width="512" xmlns="http://www.w3.org/2000/svg"><g><g clip-rule="evenodd" fill-rule="evenodd"><path d="m256.001 135.905h50c5.5 0 10-4.5 10-10v-20c0-5.5-4.5-10-10-10h-50-50c-5.5 0-10 4.5-10 10v20c0 5.5 4.5 10 10 10z" fill="#fffbdf"/><g fill="#fff"><path d="m306.001 135.905h-50-50v40h50 50z"/><path d="m299.001 292.453h67v93h-67z"/><path d="m256.001 95.905h29.728l-.006-.109-19.724-85.796h-9.998-9.999l-19.724 85.796-.005.109z"/></g><path d="m206.001 175.905h50 50 20c22.001 0 40 18 40 40v76.548h-67v-23.547c0-23.65-19.35-43-43-43s-43 19.35-43 43v23.547h-67v-76.548c0-22 18-40 40-40z" fill="#fffbdf"/><path d="m256.001 452c-23.65 0-43-19.35-43-43v-23.547-93-23.547c0-23.65 19.35-43 43-43s43 19.35 43 43v23.547 93 23.547c0 23.651-19.35 43-43 43z" fill="#fff"/><path d="m146.001 292.453h67v93h-67z" fill="#fff"/><path d="m146.001 385.454h67v23.547c0 23.65 19.35 43 43 43s43-19.35 43-43v-23.547h67v106.549c0 5.5-4.501 10-10 10h-100-100c-5.5 0-10-4.5-10-10z" fill="#fffbdf"/></g><g fill="#ffc144"><path d="m326 165.905h-9.999v-22.706c5.967-3.465 9.999-9.91 9.999-17.294v-20c0-11.028-8.972-20-19.999-20h-12.291l-17.965-78.145c-1.044-4.541-5.086-7.76-9.746-7.76h-19.997c-4.66 0-8.702 3.219-9.746 7.76l-17.964 78.146h-12.291c-11.028 0-20 8.972-20 20v20c0 7.384 4.032 13.829 10 17.294v22.706h-10c-27.57 0-50 22.43-50 50v276.097c0 11.028 8.972 20 20 20h200c11.028 0 20-8.972 20-20v-276.098c0-27.57-22.43-50-50.001-50zm-72.036-145.905h4.073l15.151 65.905h-34.375zm-47.963 85.905h100l.003 20h-100.003zm10 40h80v20h-80zm140 346.097h-200v-276.097c0-16.542 13.458-30 30-30h140c16.543 0 30.001 13.458 30.001 30v276.097z"/><path d="m256.001 215.906c-29.224 0-53 23.775-53 53v140.095c0 29.224 23.776 52.999 53 52.999s53-23.775 53-52.999v-140.095c-.001-29.224-23.776-53-53-53zm32.999 193.095c0 18.195-14.804 32.999-33 32.999s-33-14.804-33-32.999v-140.095c0-18.196 14.804-33 33-33s33 14.804 33 33z"/></g></g></svg>