<svg id="Layer_1" enable-background="new 0 0 512.019 512.019" height="512" viewBox="0 0 512.019 512.019" width="512" xmlns="http://www.w3.org/2000/svg"><g><g clip-rule="evenodd" fill="#f5eeec" fill-rule="evenodd"><path d="m190.008 235.695c2.813 0 5.628-.021 8.446-.06 23.365-44.372 69.923-74.627 123.556-74.627 1.482 0 2.958.023 4.428.069-13.541-62.91-69.471-110.067-136.43-110.067-69.51 0-127.144 50.816-137.799 117.323-3.476-.864-6.951-1.761-10.424-2.691-13.473-3.6-27.315 4.404-30.915 17.877s4.404 27.315 17.877 30.915c52.217 13.991 107.202 21.261 161.261 21.261z"/><path d="m198.454 235.635c-6.627 12.585-11.388 26.306-13.916 40.794 1.815-.07 3.638-.105 5.47-.105 51.443 0 96.381 27.833 120.585 69.261 3.809.072 7.615.109 11.416.109 54.06 0 109.045-7.27 161.261-21.261 13.473-3.6 21.477-17.441 17.877-30.915-3.6-13.473-17.441-21.477-30.915-17.877-3.473.931-6.948 1.828-10.424 2.691-10.428-65.09-65.853-115.15-133.371-117.254-1.471-.046-2.947-.069-4.428-.069-53.632-.001-100.19 30.254-123.555 74.626z"/><path d="m310.594 345.585c-24.204-41.428-69.142-69.261-120.585-69.261-1.832 0-3.656.035-5.47.105-67.045 2.584-121.955 52.464-132.329 117.218-3.476-.864-6.951-1.761-10.424-2.691-13.473-3.6-27.315 4.404-30.915 17.877s4.404 27.315 17.877 30.915c52.216 13.991 107.201 21.261 161.261 21.261s109.045-7.27 161.261-21.261c13.473-3.6 21.477-17.441 17.877-30.915-3.6-13.473-17.441-21.477-30.915-17.877-3.473.931-6.948 1.828-10.424 2.691-2.77-17.286-8.713-33.513-17.214-48.062z"/></g><g><path d="m190.009 349.862c-5.522 0-10-4.478-10-10v-23.537c0-5.522 4.478-10 10-10s10 4.478 10 10v23.537c0 5.523-4.478 10-10 10z" fill="#ebddd9"/></g><g><path d="m148.459 362.507c-4.416 0-8.456-2.946-9.653-7.414l-6.093-22.735c-1.43-5.335 1.736-10.818 7.07-12.248 5.34-1.43 10.818 1.736 12.248 7.07l6.093 22.735c1.43 5.335-1.736 10.818-7.07 12.248-.867.233-1.738.344-2.595.344z" fill="#ebddd9"/></g><g><path d="m231.167 365.479c-.856 0-1.727-.111-2.594-.344-5.335-1.43-8.501-6.913-7.071-12.247l6.092-22.735c1.43-5.334 6.911-8.502 12.247-7.071 5.335 1.43 8.501 6.913 7.071 12.247l-6.092 22.735c-1.197 4.467-5.237 7.415-9.653 7.415z" fill="#ebddd9"/></g><g><path d="m322.01 234.547c-5.522 0-10-4.478-10-10v-23.537c0-5.522 4.478-10 10-10s10 4.478 10 10v23.537c0 5.522-4.478 10-10 10z" fill="#ebddd9"/></g><g><path d="m280.46 247.191c-4.416 0-8.456-2.947-9.653-7.415l-6.092-22.735c-1.43-5.334 1.736-10.817 7.071-12.247 5.332-1.432 10.817 1.737 12.247 7.071l6.092 22.735c1.43 5.334-1.736 10.817-7.071 12.247-.866.233-1.738.344-2.594.344z" fill="#ebddd9"/></g><g><path d="m363.169 250.162c-.856 0-1.727-.111-2.594-.344-5.335-1.429-8.501-6.912-7.071-12.247l6.091-22.734c1.428-5.334 6.909-8.501 12.247-7.071 5.335 1.429 8.501 6.912 7.071 12.247l-6.091 22.734c-1.196 4.468-5.238 7.415-9.653 7.415z" fill="#ebddd9"/></g><g><path d="m190.009 124.548c-5.522 0-10-4.478-10-10v-23.536c0-5.522 4.478-10 10-10s10 4.478 10 10v23.536c0 5.522-4.478 10-10 10z" fill="#ebddd9"/></g><g><path d="m148.459 137.192c-4.416 0-8.456-2.946-9.653-7.414l-6.093-22.734c-1.43-5.335 1.736-10.818 7.07-12.248 5.34-1.431 10.818 1.736 12.248 7.07l6.093 22.734c1.43 5.335-1.736 10.818-7.07 12.248-.867.233-1.738.344-2.595.344z" fill="#ebddd9"/></g><g><path d="m231.167 140.164c-.856 0-1.728-.111-2.594-.344-5.335-1.43-8.501-6.913-7.071-12.247l6.092-22.734c1.43-5.334 6.916-8.5 12.247-7.071 5.335 1.43 8.501 6.913 7.071 12.247l-6.092 22.734c-1.197 4.468-5.237 7.415-9.653 7.415z" fill="#ebddd9"/></g><path d="m510.809 290.937c-2.431-9.097-8.258-16.703-16.41-21.417-8.15-4.713-17.648-5.973-26.755-3.538-.031.009-.062.017-.093.025-7.239-30.512-24.042-58.204-48.049-78.857-23.947-20.603-53.783-33.015-85.101-35.619-8.128-30.043-25.695-57.168-50.002-76.971-26.555-21.635-60.077-33.55-94.391-33.55-35.78 0-70.403 12.835-97.492 36.141-24.007 20.654-40.811 48.347-48.05 78.858-.033-.01-.067-.019-.101-.027-9.097-2.431-18.596-1.173-26.747 3.54-8.151 4.714-13.979 12.32-16.409 21.416-2.431 9.098-1.174 18.597 3.54 26.748s12.319 13.979 21.41 16.408c51.181 13.714 103.855 20.942 156.684 21.543-2.696 6.857-4.91 13.977-6.593 21.326-30.818 2.847-60.136 15.2-83.734 35.503-24.007 20.654-40.811 48.346-48.05 78.857-.033-.01-.066-.019-.101-.027-18.776-5.018-38.139 6.178-43.156 24.956-2.431 9.098-1.174 18.597 3.54 26.748s12.319 13.979 21.41 16.408c53.494 14.334 108.62 21.602 163.849 21.602 55.228 0 110.354-7.268 163.843-21.6 18.777-5.019 29.973-24.379 24.956-43.158-5.019-18.777-24.372-29.975-43.165-24.954-.031.009-.062.017-.093.025-2.095-8.83-5.016-17.413-8.656-25.669 53.593-.416 107.047-7.65 158.958-21.559 9.097-2.431 16.702-8.259 21.416-16.41s5.972-17.652 3.542-26.748zm-320.8-65.242c-53.481 0-106.866-7.038-158.679-20.922-3.937-1.052-7.228-3.573-9.267-7.1s-2.583-7.637-1.531-11.573 3.572-7.226 7.099-9.266c3.525-2.038 7.636-2.586 11.565-1.533 3.469.93 7.035 1.851 10.6 2.736 2.721.677 5.594.183 7.928-1.362 2.335-1.544 3.917-3.995 4.359-6.76 10.11-63.103 63.911-108.905 127.926-108.905 56.432 0 106.57 37.309 123.469 90.248-51.24 2.889-96.294 31.632-121.01 74.421-.819.004-1.64.016-2.459.016zm140.209 177.658c3.516-.873 7.083-1.794 10.595-2.735 8.126-2.169 16.501 2.673 18.673 10.797 2.171 8.125-2.673 16.502-10.804 18.675-51.808 13.882-105.192 20.92-158.673 20.92s-106.866-7.038-158.679-20.922c-3.937-1.052-7.228-3.573-9.267-7.1s-2.583-7.637-1.531-11.573c1.82-6.812 8.002-11.316 14.736-11.316 1.298 0 2.616.167 3.928.518 3.52.943 7.087 1.864 10.603 2.737 2.716.673 5.591.18 7.926-1.363 2.335-1.544 3.916-3.996 4.358-6.76 10.11-63.104 63.911-108.905 127.926-108.905s117.814 45.802 127.925 108.905c.442 2.764 2.023 5.216 4.358 6.76 2.335 1.541 5.214 2.034 7.926 1.362zm159.737-95.681c-2.039 3.526-5.33 6.048-9.272 7.102-51.807 13.881-105.191 20.92-158.673 20.92-1.92 0-3.862-.012-5.808-.031-7.837-12.314-17.468-23.533-28.701-33.198-25.326-21.788-57.236-34.422-90.519-35.975 15.144-55.944 66.056-95.481 125.028-95.481 64.016 0 117.815 45.801 127.925 108.905.442 2.764 2.023 5.216 4.359 6.76 2.335 1.545 5.214 2.035 7.927 1.363 3.553-.884 7.119-1.805 10.593-2.735 8.123-2.168 16.502 2.671 18.673 10.798 1.051 3.935.507 8.045-1.532 11.572z" fill="#c1b0b5"/></g></svg>