<svg id="Layer_1" enable-background="new 0 0 512.005 512.005" height="512" viewBox="0 0 512.005 512.005" width="512" xmlns="http://www.w3.org/2000/svg"><g><g><g clip-rule="evenodd" fill-rule="evenodd"><path d="m444.901 256.008h-377.796-13.216c-9.838 0-17.886 8.049-17.886 17.886v15.772c0 78.699 64.391 143.089 143.089 143.089h153.821c78.698 0 143.089-64.391 143.089-143.089v-15.772c0-9.837-8.048-17.886-17.886-17.886z" fill="#fff"/><path d="m39.136 319.381c3.874 18.157 11.214 35.07 21.296 50h391.141c10.082-14.93 17.422-31.843 21.296-50z" fill="#dae6e6"/><path d="m179.092 432.755h153.821v43.252h-153.821z" fill="#dae6e6"/><path d="m117.114 149.121-12.687-47.348c-2.442-9.655-14.639-13.208-21.838-5.98l-67.872 67.872c-8.051 6.653-5.396 19.923 4.954 22.697l37.585 10.071 29.985 8.035c8.873-12.897 22.047-22.605 37.455-27.049z" fill="#fff7bf"/><path d="m195.07 83.449 30.218 30.218 20.193 20.193c11.188-17.475 30.094-29.533 51.909-31.37l13.375-49.919c2.712-9.583-6.074-18.758-15.922-16.097l-92.715 24.843c-10.299 1.735-14.635 14.555-7.058 22.132z" fill="#fff7bf"/><path d="m407.578 94.442-13.258 49.48-5.854 21.847c16.05 5.371 29.452 16.523 37.733 30.983l18.321-4.909 47.814-12.812c10.35-2.773 13.005-16.044 4.954-22.697l-67.872-67.872c-7.199-7.228-19.396-3.674-21.838 5.98z" fill="#fff7bf"/><path d="m394.32 143.923c-14.106-20.856-42.607-19.681-53.857-14.431-4.085-16.511-23.25-28.002-43.073-27.002-21.815 1.837-40.721 13.895-51.909 31.37l-20.193-20.193c-35.675 0-46.825 32.824-46.825 32.824-13-13-43.36-15.36-61.349 2.63l7.582 28.298c-15.408 4.444-28.582 14.152-37.455 27.049l-29.985-8.035c-12.238 18.312-10.545 42.747-3.368 59.575h404.228c7.646-21.936 4.108-46.46-13.597-64.165l-18.321 4.909c-8.281-14.46-21.682-25.612-37.733-30.983z" fill="#e8f9ea"/></g><g><path d="m155.973 228.77c-5.522 0-10.004-4.478-10.004-10s4.474-10 9.996-10h.008c5.522 0 10 4.478 10 10s-4.477 10-10 10z" fill="#b8ecbb"/></g><g><path d="m221.972 195.27c-5.522 0-10.004-4.478-10.004-10s4.475-10 9.997-10h.007c5.522 0 10 4.478 10 10s-4.477 10-10 10z" fill="#b8ecbb"/></g><g><path d="m280.473 222.77c-5.522 0-10.004-4.478-10.004-10s4.474-10 9.996-10h.008c5.522 0 10 4.478 10 10s-4.477 10-10 10z" fill="#b8ecbb"/></g><g><path d="m358.474 218.271c-5.522 0-10.004-4.478-10.004-10s4.474-10 9.996-10h.008c5.522 0 10 4.478 10 10s-4.477 10-10 10z" fill="#b8ecbb"/></g><g><path d="m314.966 174.269c-5.522 0-10.004-4.478-10.004-10s4.475-10 9.997-10h.007c5.522 0 10 4.478 10 10s-4.477 10-10 10z" fill="#b8ecbb"/></g></g><path d="m504.07 148.975-67.567-67.568c-5.92-5.943-14.283-8.169-22.367-5.947-7.975 2.188-14.188 8.488-16.232 16.452l-8.848 33.021c-13.774-9.021-30.568-9.973-42.789-7.61-6.939-12.278-20.42-21.222-36.07-23.992l10.213-38.116c2.21-7.92-.021-16.481-5.833-22.363-5.893-5.964-14.245-8.219-22.321-6.036l-92.322 24.737c-8.284 1.595-14.996 7.558-17.588 15.674-2.635 8.247-.469 17.173 5.653 23.295l16.703 16.703c-14.223 5.209-24.079 15.301-30.012 24.543-14.656-7.267-34.907-7.899-51.66.794l-8.927-33.317c-2.044-7.966-8.258-14.267-16.234-16.455-8.087-2.22-16.447.005-22.351 5.933l-67.583 67.582c-6.378 5.524-9.209 14.044-7.396 22.369 1.842 8.46 8.181 15.107 16.544 17.348l25.667 6.877c-5.993 15.67-5.265 32.619-1.708 46.256-8.927 4.655-15.04 13.993-15.04 24.738v15.771c0 40.733 15.968 79.134 44.962 108.128 26.608 26.609 61.142 42.236 98.128 44.629v33.585c0 5.522 4.478 10 10 10h153.821c5.522 0 10-4.478 10-10v-33.585c36.986-2.393 71.519-18.02 98.127-44.629 28.994-28.994 44.962-67.395 44.962-108.128v-15.771c0-10.958-6.356-20.455-15.572-25.011 3.724-18.217.63-36.229-8.688-51.302l33.181-8.891c8.362-2.241 14.701-8.888 16.543-17.348 1.813-8.323-1.018-16.843-7.396-22.366zm-302.673-75.663c.175-.55.76-1.859 2.393-2.134.312-.053.621-.12.926-.202l92.736-24.849c.303-.081.585-.117.848-.117.938 0 1.616.459 2.052.899.472.477 1.201 1.493.792 2.938-.013.045-.025.09-.037.136l-11.649 43.475c-17.345 3.107-33.289 12.093-44.994 25.242l-42.321-42.321c-1.082-1.081-1.003-2.265-.746-3.067zm-181.315 101.107c-.123-.564-.271-1.99 1.006-3.045.243-.201.478-.414.701-.638l67.887-67.887c.681-.684 1.41-.893 2.048-.893.313 0 .603.051.854.119.646.178 1.786.692 2.155 2.148.011.046.023.091.035.136l17.892 66.772c-11.316 4.887-21.392 12.418-29.315 21.938l-61.085-16.367c-1.476-.394-2-1.46-2.178-2.283zm169.01 291.588v-23.252h133.821v23.252zm276.91-176.342c0 73.386-59.703 133.09-133.089 133.09h-153.821c-73.386 0-133.09-59.704-133.09-133.09v-15.771c0-4.342 3.526-7.873 7.865-7.885.009 0 .017.002.026.002.02 0 .039-.003.059-.003h404.094c.023 0 .047.003.07.003.011 0 .022-.001.033-.001 4.333.018 7.853 3.546 7.853 7.884zm-15.422-43.657h-389.669c-3.427-11.535-3.945-25.863 1.316-37.89l22.426 6.009c.858.23 1.728.342 2.588.342 3.237 0 6.343-1.577 8.238-4.333 7.685-11.169 19.044-19.376 31.988-23.109 5.235-1.51 8.298-6.934 6.888-12.196l-5.944-22.183c14.383-10.088 35.042-7.023 42.979.916 2.443 2.443 5.968 3.479 9.331 2.696 3.365-.784 6.078-3.223 7.189-6.494.358-1.012 8.681-23.683 33.425-25.906l17.072 17.072c1.886 1.885 4.434 2.929 7.07 2.929.358 0 .719-.02 1.078-.059 3.011-.326 5.712-1.999 7.345-4.549 9.747-15.223 26.253-25.224 44.18-26.781 15.23-.666 29.846 7.993 32.674 19.422.718 2.903 2.697 5.332 5.396 6.621 2.695 1.289 5.831 1.305 8.54.039 6.783-3.164 27.018-4.902 38.672 7.627l-4.555 17.002c-1.368 5.105 1.474 10.394 6.485 12.071 13.617 4.557 25.063 13.957 32.229 26.469 1.813 3.166 5.157 5.031 8.677 5.031.859 0 1.729-.111 2.589-.342l12.399-3.322c9.52 11.898 12.871 27.292 9.394 42.918zm41.343-78.92c-.179.824-.702 1.889-2.177 2.284l-59.082 15.83c-7.778-10.922-18.186-19.647-30.252-25.38l16.824-62.792c.013-.045.024-.09.035-.136.369-1.456 1.509-1.971 2.155-2.148.763-.209 1.888-.246 2.918.788l67.871 67.871c.224.224.458.437.701.638 1.279 1.055 1.13 2.482 1.007 3.045z" fill="#88df8e"/></g></svg>