<svg id="Layer_1" enable-background="new 0 0 512.003 512.003" height="512" viewBox="0 0 512.003 512.003" width="512" xmlns="http://www.w3.org/2000/svg"><g><g clip-rule="evenodd" fill-rule="evenodd"><g fill="#ffe9da"><path d="m176.002 402.002h160l-10 80.001c-1.364 10.915-9 20-20 20h-99.999c-11 0-18.636-9.085-20-20z"/><path d="m336.001 402.002h-160c-11 0-20-9-20-20s9-20 20-20h160c11 0 20 9 20 20s-9 20-20 20z"/><path d="m336.001 362.002h-160c-24.753-14.291-40-40.701-40-69.282h240c.001 28.581-15.247 54.991-40 69.282z"/><path d="m376.002 292.72h-240c-11 0-20-9-20-20s9-20 20-20h240c11 0 20 9 20 20-.001 11-9 20-20 20z"/></g><path d="m376.002 252.72h-240c-16.5-36.501 13.5-51.718 13.5-51.718 39.5-20.5 151.5 12.498 197.5-42.501 38.499 17.5 45.499 57.719 29 94.219z" fill="#fff"/><path d="m347.001 158.501c-46 54.999-158 22.001-197.5 42.501-16-77.5 41-91.001 41-91.001 56.002 0 99.999-11 119.5-36.5 58 23 37 85 37 85z" fill="#e0ef9b"/><path d="m310.001 73.501c-19.501 25.5-63.499 36.5-119.5 36.5-20.5-51.5 37-63 57-100 69 11.5 62.5 63.5 62.5 63.5z" fill="#fff"/></g><path d="m385.597 301.138c11.849-4.012 20.405-15.23 20.405-28.417 0-11.739-6.781-21.919-16.628-26.844 5.644-17.17 6.538-34.572 2.412-49.978-4.896-18.281-16.285-32.886-33.144-42.644 1.439-7.054 2.843-17.831 1.55-29.711-1.985-18.235-10.675-42.262-40.085-56.52-.298-6.206-1.691-15.44-6.483-25.323-7.416-15.295-24.622-34.921-64.48-41.564-4.216-.703-8.41 1.351-10.441 5.109-6.115 11.313-17.013 20.538-27.551 29.459-10.779 9.125-21.926 18.56-28.65 30.691-6.572 11.856-8.052 24.584-4.453 38.676-6.093 2.898-14.049 7.749-21.342 15.526-12.143 12.948-24.772 36.623-18.223 76.81-3.19 2.552-7.03 6.276-10.305 11.316-5.25 8.078-9.824 20.777-5.274 38.01-9.997 4.872-16.903 15.136-16.903 26.986 0 13.187 8.556 24.405 20.405 28.417 2.139 22.599 12.806 43.546 29.535 58.58-6.098 5.495-9.94 13.449-9.94 22.284 0 13.407 8.842 24.787 21 28.619l9.078 72.623c2.082 16.664 14.667 28.76 29.922 28.76h100c15.255 0 27.84-12.095 29.923-28.76l9.078-72.623c12.158-3.832 21-15.211 21-28.619 0-8.836-3.842-16.789-9.94-22.284 16.728-15.033 27.395-35.981 29.534-58.579zm-9.596-18.417h-240c-5.514 0-10-4.486-10-10 0-5.508 4.475-9.989 9.979-10 .009 0 .018.002.026.002.019 0 .037-.003.056-.003h239.685.02.233c5.514 0 10 4.486 10 10.001.001 5.513-4.484 10-9.999 10zm-231.426-63.505c3.808-6.231 9.454-9.296 9.45-9.296 4.127-1.993 6.196-6.451 5.27-10.939-13.739-66.548 31.639-78.776 33.511-79.249 2.829-.67 5.226-2.537 6.567-5.115s1.494-5.613.419-8.313c-10.158-25.518 1.971-37.446 24.282-56.333 10.142-8.585 20.577-17.418 28.337-28.833 21.188 4.726 35.575 14.291 42.818 28.487 5.962 11.686 4.852 22.603 4.849 22.637-.565 4.522 2 8.855 6.237 10.536 48.295 19.151 31.926 70.354 31.215 72.496-1.647 4.864.658 10.187 5.333 12.312 34.486 15.675 36.087 48.967 26.428 75.115h-226.437c-2.859-9.048-2.292-16.937 1.721-23.505zm2.158 83.505h218.537c-2.932 20.17-14.61 38.324-32.052 49.281h-154.433c-17.442-10.957-29.119-29.111-32.052-49.281zm159.268 189.282h-100c-5.991 0-9.377-5.646-10.077-11.24l-8.595-68.761h137.344l-8.595 68.761c-.699 5.594-4.086 11.24-10.077 11.24zm30-100.001h-160c-5.514 0-10-4.486-10-10 0-5.506 4.474-9.987 9.978-9.999.004 0 .009.001.013.001.01 0 .02-.002.03-.002h159.958c.01 0 .02.002.03.002.004 0 .009-.001.013-.001 5.504.012 9.978 4.493 9.978 9.999 0 5.514-4.485 10-10 10z" fill="#88df8e"/></g></svg>