<svg id="Layer_1" enable-background="new 0 0 512.02 512.02" height="512" viewBox="0 0 512.02 512.02" width="512" xmlns="http://www.w3.org/2000/svg"><g><g clip-rule="evenodd" fill-rule="evenodd"><path d="m251.477 201.517c0-38.66 31.34-70 70-70s70 31.34 70 70-31.34 70-70 70c-38.659 0-70-31.341-70-70zm-212.811 161.288c-18.282 83.405 60.269 143.497 134.926 138.972 429.183-26.01 347.505-536.049 89.023-488.652-84.615 15.515-145.813 82.23-160.89 174.927-21.471 132.021-48.163 106.795-63.059 174.753z" fill="#fff"/><ellipse cx="321.477" cy="201.517" fill="#ffcd69" rx="70" ry="70" transform="matrix(.988 -.157 .157 .988 -27.616 52.887)"/></g><g><g><path d="m165.546 512.02c-42.467 0-84.48-18.741-111.32-50.108-24.395-28.51-33.39-64.467-25.327-101.247 6.385-29.13 14.936-42.377 23.988-56.401 12.411-19.228 26.479-41.021 38.969-117.816 15.736-96.753 80.476-166.935 168.956-183.159 35.33-6.479 68.84-3.374 99.603 9.225 28.505 11.675 53.384 30.899 73.945 57.139 26.813 34.216 44.522 79.262 49.868 126.839 5.586 49.723-2.076 99.599-22.16 144.234-26.532 58.969-99.21 159.601-287.871 171.033-2.88.174-5.77.261-8.651.261zm130.31-491.988c-10.257 0-20.749.969-31.437 2.929-79.925 14.655-138.484 78.53-152.823 166.697-13.161 80.921-28.433 104.579-41.906 125.452-8.394 13.005-15.644 24.235-21.255 49.837-8.572 39.105 6.682 67.243 20.987 83.962 24.296 28.394 64.953 45.224 103.566 42.887 132.042-8.002 228.229-64.567 270.841-159.276 37.331-82.969 27.199-183.649-25.211-250.531-31.8-40.581-74.609-61.957-122.762-61.957z" fill="#ffa96b"/></g></g></g></svg>