<svg id="Layer_1" enable-background="new 0 0 512 512" height="512" viewBox="0 0 512 512" width="512" xmlns="http://www.w3.org/2000/svg"><g><g clip-rule="evenodd" fill-rule="evenodd"><path d="m116.001 90h280v-60c0-11-9-20-20-20h-240.001c-11 0-20 9-20 20z" fill="#fff"/><path d="m396 90h-279.999l-70.001 112v40.001h280v-40.001z" fill="#fff"/><path d="m396 90-70 112v40.001h140v-40.001z" fill="#f3f0f1"/><path d="m326 242.001h140v179.996h-140z" fill="#99ebfa"/><path d="m326 421.997v-179.996h-280v179.996zm-140-139.998c27.614 0 50 22.386 50 50s-22.386 50-50 50-50-22.386-50-50 22.386-50 50-50z" fill="#99ebfa"/><circle cx="186" cy="331.999" fill="#e8e7f9" r="50"/><circle cx="186" cy="331.999" fill="#c1b0b5" r="20"/><path d="m326 421.997h-280v60.003c0 11 9 20 20 20h260z" fill="#fff"/><path d="m326 421.997v80.003h120c11 0 20-9 20-20v-60.003z" fill="#f3f0f1"/></g><g fill="#c1b0b5"><path d="m474.48 196.7-68.479-109.568v-57.132c0-16.542-13.458-30-30-30h-240.001c-16.542 0-30 13.458-30 30v57.132l-68.48 109.568c-.993 1.589-1.52 3.426-1.52 5.3v280c0 16.542 13.458 30 30 30h380c16.542 0 30-13.458 30-30v-280c0-1.874-.527-3.711-1.52-5.3zm-338.48-176.7h240c5.514 0 10 4.486 10 10v50h-260v-50c0-5.514 4.486-10 10-10zm-80 462v-277.132l65.543-104.868h256.416l-60.439 96.7c-.994 1.589-1.521 3.426-1.521 5.3v289.999.001h-249.999c-5.514 0-10-4.486-10-10zm400 0c0 5.514-4.485 10-9.999 10h-110.001v-.001-287.131l60-96 60 96z"/><path d="m186.001 271.999c-33.084 0-60 26.916-60 60s26.916 60 60 60 60-26.916 60-60-26.916-60-60-60zm0 100c-22.056 0-40-17.944-40-40s17.944-40 40-40 40 17.944 40 40-17.944 40-40 40z"/></g></g></svg>