<svg id="Layer_1" enable-background="new 0 0 512 512" height="512" viewBox="0 0 512 512" width="512" xmlns="http://www.w3.org/2000/svg"><g><g clip-rule="evenodd" fill-rule="evenodd"><path d="m88.86 216.984 42.142-16.443v-19.466l-16.364-61.072c-1.423-5.313-6.935-8.494-12.246-7.071l-28.979 7.765c-5.312 1.423-8.494 6.934-7.07 12.247z" fill="#fffbe1"/><path d="m131.002 181.075v19.466l47.52-18.541c.693 2.691 1.522 5.327 2.48 7.901v-89.898c0-5.5-4.5-10-9.999-10h-30.001c-5.499 0-9.999 4.499-9.999 10v81.072z" fill="#fff7bf"/><path d="m181.002 100.003v89.898c8.447 22.696 26.902 40.523 50 48.115v-178.015c0-5.5-4.5-10-9.999-10h-30.001c-5.499 0-9.999 4.499-9.999 10v40.002z" fill="#fffbe1"/><path d="m231.002 60.001v178.014c7.865 2.585 16.269 3.984 25 3.984 8.73 0 17.134-1.399 25-3.984v-178.014-40.001c0-5.5-4.5-10-9.999-10h-30.001c-5.499 0-9.999 4.499-9.999 10v40.001z" fill="#fff7bf"/><path d="m281.002 60.001v178.014c23.098-7.592 41.553-25.418 50-48.115v-89.898-40.001c0-5.5-4.5-10-9.999-10h-30.001c-5.501 0-10 4.5-10 10z" fill="#fffbe1"/><path d="m331.001 100.003v89.898c.958-2.574 1.787-5.21 2.479-7.901l47.52 18.541v-19.466-81.072c0-5.5-4.5-10-9.999-10h-30.001c-5.499 0-9.999 4.499-9.999 10z" fill="#fff7bf"/><path d="m397.365 120.003-16.364 61.072v19.466l42.142 16.443 22.518-84.04c1.424-5.313-1.758-10.824-7.07-12.247l-28.979-7.765c-5.312-1.423-10.823 1.758-12.247 7.071z" fill="#fffbe1"/><path d="m423.143 216.984-42.142-16.443-47.52-18.541c-.693 2.691-1.522 5.327-2.479 7.901-8.447 22.696-26.902 40.523-50 48.115-7.866 2.585-16.269 3.984-25 3.984-8.73 0-17.134-1.399-25-3.984-23.098-7.592-41.553-25.418-50-48.115-.958-2.573-1.787-5.209-2.479-7.9l-47.52 18.541-42.143 16.442-12.858 5.017 6.232 40.506 76.693-29.925c22.085 30.325 57.804 49.417 97.075 49.417s74.99-19.092 97.075-49.417l76.693 29.925 6.232-40.506z" fill="#fff"/><path d="m429.769 262.507-76.693-29.925c-22.085 30.325-57.804 49.417-97.075 49.417s-74.99-19.092-97.075-49.417l-76.693 29.925 27.615 179.492h292.304z" fill="#ff9eb1"/><path d="m402.154 441.999h-292.304l6.154 40.001c1.672 10.872 11.705 20 22.7 20h234.596c10.995 0 21.028-9.13 22.7-20z" fill="#fff"/></g><path d="m441.179 111.038-28.979-7.765c-5.149-1.379-10.537-.666-15.171 2.008-2.393 1.382-4.425 3.206-6.028 5.35v-10.629c0-11.028-8.972-20-20-20h-30v-20.001c0-11.028-8.972-20-19.999-20h-30.001v-20.001c0-11.028-8.972-20-19.999-20h-30.001c-11.028 0-20 8.972-20 20v20.001h-30c-11.027 0-19.999 8.972-19.999 20v20.002h-30.001c-11.027 0-19.999 8.972-19.999 20v10.629c-1.604-2.145-3.636-3.969-6.029-5.351-4.634-2.676-10.022-3.388-15.169-2.008l-28.979 7.765c-5.149 1.379-9.458 4.69-12.134 9.324-2.675 4.634-3.388 10.021-2.008 15.17l20.201 75.39-4.516 1.762c-4.364 1.703-6.961 6.207-6.249 10.837l40.001 259.999c2.456 15.971 16.768 28.48 32.583 28.48h234.596c15.815 0 30.128-12.51 32.584-28.479l40.001-259.999c.712-4.63-1.885-9.134-6.249-10.837l-4.515-1.762 20.201-75.392c2.853-10.652-3.491-21.64-14.142-24.493zm-70.178-11.035v85.902l-30-11.705v-74.197zm-50-40.002v128.051c-5.912 14.795-16.614 26.856-30 34.577v-162.628zm-80-40.001h30v210.376c-4.852 1.061-9.872 1.623-15 1.623s-10.148-.562-15-1.623zm-20 39.999v.002 162.627c-13.385-7.721-24.087-19.781-29.999-34.575l-.001-88.037c0-.005.001-.009.001-.013s-.001-.009-.001-.013v-39.989zm-49.999 40.002v.002 74.196l-30 11.706-.001-85.902zm-95.002 30.355 28.979-7.766 16.023 59.8v11.317l-25.373 9.9zm310.116 350.123c-.944 6.138-6.933 11.521-12.816 11.521h-234.597c-5.883 0-11.872-5.383-12.815-11.521l-38.783-252.076 85.197-33.242c13.417 33.956 46.396 56.838 83.699 56.838 37.304 0 70.283-22.882 83.7-56.838l85.196 33.242zm30.259-276.87-25.373-9.9v-11.316l16.022-59.801 28.979 7.765z" fill="#ffc144"/></g></svg>