<svg id="Layer_1" enable-background="new 0 0 511.994 511.994" height="512" viewBox="0 0 511.994 511.994" width="512" xmlns="http://www.w3.org/2000/svg"><g><g clip-rule="evenodd" fill-rule="evenodd"><path d="m256.019 365.168c75.98 0 147.205-20.334 208.551-55.84l-129.975-225.037c-7.292 4.514-15.89 7.122-25.097 7.122-25.825 0-46.859-20.499-47.725-46.114-6.943 3.937-14.968 6.186-23.519 6.186-13.188 0-25.127-5.345-33.769-13.988-52.31 90.627-104.587 181.274-156.971 271.858 61.335 35.49 132.544 55.813 208.505 55.813z" fill="#ffbecb"/><path d="m464.57 309.328c-61.346 35.506-132.572 55.84-208.551 55.84-75.961 0-147.17-20.323-208.505-55.813-10.952 18.938-21.908 37.874-32.871 56.805-9.503 16.408-3.905 37.416 12.504 46.919 69.557 40.157 148.542 61.417 228.872 61.417 79.677 0 157.71-20.844 226.879-60.351 17.753-8.773 24.437-30.824 14.497-47.985z" fill="#eaf5bc"/><g fill="#8aa7bd"><path d="m256.013 296.559c10.962.042 20-9.327 20-20.271 0-13.217-15.299-30.395-20-30.395s-20 17.178-20 30.395c.001 10.944 9.038 20.314 20 20.271z"/><path d="m193.456 221.165c9.472 5.518 21.984 1.923 27.456-7.555 6.608-11.446 1.948-33.973-2.123-36.323s-25.909 4.877-32.518 16.323c-5.472 9.478-2.33 22.111 7.185 27.555z"/><path d="m293.238 177.287c-4.071 2.35-8.732 24.877-2.123 36.323 5.472 9.478 17.984 13.073 27.456 7.555 9.514-5.445 12.657-18.077 7.185-27.555-6.609-11.446-28.448-18.673-32.518-16.323z"/></g></g><path d="m506.048 361.149-162.795-281.86c-1.353-2.343-3.597-4.037-6.221-4.697s-5.402-.229-7.702 1.196c-5.943 3.679-12.802 5.624-19.834 5.624-20.466 0-37.039-16.012-37.73-36.451-.118-3.496-2.055-6.677-5.107-8.387-3.051-1.711-6.775-1.701-9.818.025-5.638 3.196-12.065 4.886-18.587 4.886-10.085 0-19.566-3.928-26.697-11.059-2.199-2.2-5.302-3.251-8.377-2.843-3.083.405-5.801 2.223-7.355 4.915l-36.816 63.794c-50.112 86.835-101.929 176.625-153.02 264.857-5.935 10.247-7.524 22.192-4.475 33.636s10.373 21.014 20.632 26.955c71.114 41.056 151.985 62.757 233.872 62.757 80.943 0 161.021-21.275 231.595-61.527 10.798-5.435 18.987-15.181 22.494-26.787 3.536-11.706 2.057-24.476-4.059-35.034zm-329.718-254.86 31.018-53.744c9.157 5.822 19.792 8.94 30.906 8.94 5.297 0 10.556-.73 15.617-2.149 6.792 24.442 29.066 42.076 55.626 42.076 7.278 0 14.439-1.365 21.131-3.995l120.218 208.143c-59.471 32.473-126.633 49.608-194.827 49.608-68.159 0-135.333-17.124-194.779-49.574 38.639-66.828 77.348-133.904 115.09-199.305zm314.631 284.109c-1.972 6.525-6.409 11.775-12.494 14.783-.179.089-.355.183-.529.281-67.617 38.62-144.356 59.034-221.92 59.034-78.381 0-155.794-20.774-223.86-60.07-5.625-3.258-9.645-8.511-11.317-14.792-1.675-6.28-.802-12.838 2.456-18.463 9.29-16.043 18.604-32.138 27.927-48.257 62.486 34.205 133.127 52.254 204.796 52.254 71.701 0 142.324-18.059 204.833-52.283l27.884 48.277c.002.003.004.007.006.01 3.401 5.874 4.189 12.702 2.218 19.226z" fill="#5cd0b3"/></g></svg>