<svg id="Layer_1" enable-background="new 0 0 512 512" height="512" viewBox="0 0 512 512" width="512" xmlns="http://www.w3.org/2000/svg"><g><g><g clip-rule="evenodd" fill-rule="evenodd"><path d="m166.064 227.565c.881-23.461 10.742-44.625 26.246-60.152-16.4-22.093-42.681-36.412-72.31-36.412-49.704 0-89.997 40.291-90 89.995h.044c14.46 0 15.464 11.184 29.924 11.184s15.464-11.184 29.924-11.184 15.464 11.184 29.924 11.184c14.459 0 15.464-11.184 29.924-11.184 8.075 0 11.954 3.489 16.324 6.569z" fill="#f3c9a6"/><path d="m149.739 220.996c-14.46 0-15.465 11.184-29.924 11.184s-15.464-11.184-29.924-11.184c-14.459 0-15.464 11.184-29.924 11.184-14.459 0-15.464-11.184-29.924-11.184-.014 0-.029 0-.044 0v.005c0 34.831 19.788 65.038 48.734 80h82.509c8.374-4.316 15.925-9.877 22.447-16.414-11.113-14.97-17.689-33.509-17.689-53.586 0 0 0-.003 0-.005 0-1.149.021-2.293.064-3.431-4.37-3.08-8.249-6.569-16.325-6.569z" fill="#fffbe1"/><path d="m192.309 167.412c-15.504 15.528-25.364 36.692-26.245 60.153-.043 1.138-.064 2.283-.065 3.431h.044c14.46 0 15.465 11.183 29.924 11.183 14.46 0 15.464-11.183 29.924-11.183s15.464 11.183 29.924 11.183c14.459 0 15.464-11.183 29.924-11.183 14.459 0 15.464 11.183 29.924 11.183 14.459 0 15.464-11.183 29.924-11.183.14 0 .276.003.414.005 0-1.236-.025-2.467-.074-3.692-.943-23.359-10.788-44.426-26.236-59.898-16.291-16.316-38.812-26.411-63.69-26.411-24.88.001-47.401 10.096-63.692 26.412z" fill="#f3c9a6"/><path d="m225.891 230.996c-14.459 0-15.464 11.183-29.924 11.183s-15.464-11.183-29.924-11.183c-.015 0-.029 0-.044 0v.003c0 5.951.577 11.765 1.679 17.391 2.371 12.102 7.182 23.406 13.975 33.34.66.966 1.339 1.918 2.036 2.856 4.538 6.113 9.833 11.63 15.746 16.414h113.137c20.648-16.7 33.428-42.162 33.428-69.999-.138-.002-.274-.005-.414-.005-14.46 0-15.464 11.183-29.924 11.183s-15.464-11.183-29.924-11.183-15.465 11.183-29.924 11.183c-14.458.001-15.463-11.183-29.923-11.183z" fill="#fffbe1"/><path d="m319.69 167.412c15.447 15.472 25.293 36.538 26.236 59.898 4.227-3.014 8.111-6.314 15.965-6.314 14.46 0 15.464 11.184 29.924 11.184 14.459 0 15.464-11.184 29.924-11.184 14.459 0 15.464 11.184 29.924 11.184 14.459 0 15.464-11.184 29.924-11.184.14 0 .276.003.414.005 0-49.706-40.294-90-90-90-29.63 0-55.911 14.318-72.311 36.411z" fill="#f3c9a6"/><path d="m421.739 220.996c-14.46 0-15.465 11.184-29.924 11.184-14.46 0-15.464-11.184-29.924-11.184-7.854 0-11.738 3.299-15.965 6.314.049 1.224.074 2.455.074 3.692 0 27.837-12.779 53.299-33.428 69.999h38.158 82.509c29.473-15.184 48.76-45.8 48.76-80-.137-.002-.274-.005-.414-.005-14.46 0-15.464 11.184-29.924 11.184-14.458-.001-15.463-11.184-29.922-11.184z" fill="#fffbe1"/><path d="m433.239 301h-82.509-38.158-113.136-38.192-82.51-48.734c-11 0-20 9-20 20s9 20 20 20h452c11 0 20-9 20-20s-9-20-20-20z" fill="#e0c9ed"/><path d="m482 341h-452l20.001 40h411.998z" fill="#f0e5f7"/></g><g><path d="m91.822 184.679c-5.523 0-10.004-4.478-10.004-10s4.474-10 9.997-10h.007c5.523 0 10 4.478 10 10s-4.477 10-10 10z" fill="#ffe9da"/></g><g><path d="m134.822 195.679c-5.523 0-10.004-4.478-10.004-10s4.474-10 9.997-10h.007c5.523 0 10 4.478 10 10s-4.477 10-10 10z" fill="#ffe9da"/></g><g><path d="m230.315 204.929c-5.523 0-10.004-4.478-10.004-10s4.474-10 9.997-10h.007c5.523 0 10 4.478 10 10s-4.477 10-10 10z" fill="#ffe9da"/></g><g><path d="m289.315 201.429c-5.523 0-10.004-4.478-10.004-10s4.474-10 9.997-10h.007c5.523 0 10 4.478 10 10s-4.477 10-10 10z" fill="#ffe9da"/></g><g><path d="m376.322 182.429c-5.523 0-10.004-4.478-10.004-10s4.474-10 9.997-10h.007c5.523 0 10 4.478 10 10s-4.477 10-10 10z" fill="#ffe9da"/></g><g><path d="m424.823 195.929c-5.523 0-10.004-4.478-10.004-10s4.474-10 9.997-10h.007c5.523 0 10 4.478 10 10s-4.477 10-10 10z" fill="#ffe9da"/></g></g><path d="m512 321c0-16.542-13.458-30-30-30h-18.537c18.047-18.382 28.537-43.323 28.537-70 0-55.141-44.86-100-100-100-27.853 0-54.572 11.839-73.381 32.096-17.151-13.813-38.934-22.095-62.619-22.095-23.676 0-45.452 8.276-62.6 22.08-18.885-20.502-45.101-32.081-73.4-32.081-55.14 0-100 44.86-100 100 0 26.693 10.488 51.614 28.54 70h-18.54c-16.542 0-30 13.458-30 30 0 14.294 10.052 26.277 23.456 29.272l17.601 35.199c1.693 3.389 5.156 5.529 8.943 5.529h411.999c3.788 0 7.25-2.14 8.944-5.527l17.601-35.199c13.404-2.996 23.456-14.98 23.456-29.274zm-120-180c44.112 0 80 35.888 80 80 0 29.261-15.775 55.911-41.283 70h-77.456c-4.17-2.313-8.116-4.991-11.807-8.005 9.424-15.457 14.546-33.351 14.546-51.994 0-24.272-8.695-46.549-23.13-63.888 15.139-16.682 36.281-26.113 59.13-26.113zm-56 90.001c0 23.114-9.837 44.792-27.093 59.999h-105.804c-17.262-15.215-27.103-36.898-27.103-59.999 0-44.112 35.888-80 80-80s80 35.888 80 80zm-296-10.001c0-44.112 35.888-80 80-80 22.841 0 43.989 9.431 59.13 26.113-14.435 17.339-23.13 39.616-23.13 63.888 0 18.635 5.125 36.528 14.552 51.99-3.697 3.018-7.655 5.696-11.838 8.009h-77.459c-25.504-14.128-41.255-40.737-41.255-70zm415.819 150h-399.638l-10-19.999h419.638zm26.181-40h-452c-5.514 0-10-4.486-10-10s4.486-10 10-10h452c5.514 0 10 4.486 10 10s-4.486 10-10 10z" fill="#c68a86"/></g></svg>