<svg id="Layer_1" enable-background="new 0 0 512.002 512.002" height="512" viewBox="0 0 512.002 512.002" width="512" xmlns="http://www.w3.org/2000/svg"><g><g><g><path clip-rule="evenodd" d="m300.365 159.084c22.316 11.93 40.621 30.235 52.552 52.55l.008-.018c2.408-15.029 9.741-30.734 26.005-46.529 1.117-1.085 2.247-2.182 3.39-3.292 11.053-10.734 23.27-22.598 36.045-35.005 24.797-24.081 51.7-50.208 76.296-74.093 9.923-9.637 9.654-25.701-.001-35.355-9.654-9.654-25.718-9.923-35.355 0-23.885 24.596-50.012 51.499-74.093 76.296-12.407 12.775-24.271 24.992-35.005 36.045-1.11 1.143-2.207 2.273-3.292 3.39-15.795 16.264-31.5 23.597-46.53 26.005z" fill="#e3eaef" fill-rule="evenodd"/></g><g><path clip-rule="evenodd" d="m382.319 161.795c24.38 31.484 37.681 70.237 37.681 110.207 0 99.411-80.589 180-180 180s-180-80.589-180-180 80.589-180 180-180c39.995 0 78.742 13.319 110.204 37.683 10.735-11.054 22.599-23.271 35.006-36.047-40.939-33.332-92.204-51.636-145.21-51.636-127.026 0-230 102.974-230 230s102.974 230 230 230 230-102.974 230-230c0-52.947-18.268-104.222-51.638-145.209-12.774 12.405-24.99 24.268-36.043 35.002z" fill="#fff" fill-rule="evenodd"/></g><g><path clip-rule="evenodd" d="m352.917 211.635c-11.931-22.315-30.236-40.62-52.552-52.55l.02-.007c15.029-2.408 30.735-9.741 46.53-26.005 1.084-1.117 2.181-2.246 3.29-3.388-31.462-24.364-70.209-37.683-110.205-37.683-99.411 0-180 80.589-180 180s80.589 180 180 180 180-80.589 180-180c0-39.97-13.301-78.723-37.681-110.206-1.142 1.11-2.273 2.207-3.39 3.292-16.264 15.795-23.598 31.5-26.005 46.529z" fill="#ffe5dd" fill-rule="evenodd"/></g><g><circle clip-rule="evenodd" cx="135.676" cy="262.864" fill="#b8ecbb" fill-rule="evenodd" r="20"/></g><g><ellipse clip-rule="evenodd" cx="270.676" cy="285.864" fill="#b8ecbb" fill-rule="evenodd" rx="20" ry="20" transform="matrix(.974 -.228 .228 .974 -58.004 69.177)"/></g><g><ellipse clip-rule="evenodd" cx="287.177" cy="372.864" fill="#b8ecbb" fill-rule="evenodd" rx="20" ry="20" transform="matrix(.378 -.926 .926 .378 -166.584 497.763)"/></g><g><path d="m213.692 380.213c-.856 0-1.727-.111-2.594-.344-18.908-5.064-36.22-15.06-50.063-28.902-3.905-3.905-3.905-10.237 0-14.143 3.905-3.904 10.237-3.904 14.143 0 11.364 11.364 25.574 19.568 41.095 23.727 5.335 1.429 8.501 6.912 7.072 12.247-1.197 4.468-5.238 7.415-9.653 7.415z" fill="#ffc8b8"/></g><g><path d="m194.269 236.271c-2.559 0-5.119-.977-7.071-2.929-3.905-3.905-3.905-10.237 0-14.143 14.104-14.104 32.856-21.871 52.803-21.871 6.525 0 13.027.855 19.327 2.544 5.334 1.43 8.5 6.913 7.071 12.247-1.429 5.335-6.913 8.503-12.248 7.071-4.612-1.235-9.373-1.862-14.15-1.862-14.604 0-28.334 5.688-38.66 16.014-1.954 1.952-4.513 2.929-7.072 2.929z" fill="#ffc8b8"/></g><g><path d="m328.043 332.841c-1.697 0-3.416-.433-4.991-1.342-4.783-2.762-6.422-8.877-3.66-13.66 4.004-6.936 7.085-14.374 9.158-22.11 1.429-5.336 6.911-8.499 12.248-7.071 5.334 1.43 8.5 6.913 7.071 12.247-2.525 9.425-6.278 18.486-11.156 26.935-1.853 3.207-5.214 5.001-8.67 5.001z" fill="#ffc8b8"/></g><g><path d="m185.685 182.365c-5.523 0-10.004-4.478-10.004-10s4.474-10 9.997-10h.007c5.523 0 10 4.478 10 10s-4.477 10-10 10z" fill="#ff9eb1"/></g><g><path d="m201.185 294.865c-5.523 0-10.004-4.478-10.004-10s4.474-10 9.997-10h.007c5.523 0 10 4.478 10 10s-4.477 10-10 10z" fill="#ff9eb1"/></g><g><path d="m309.178 253.365c-5.523 0-10.004-4.478-10.004-10s4.474-10 9.997-10h.007c5.523 0 10 4.478 10 10s-4.477 10-10 10z" fill="#ff9eb1"/></g><g><path d="m121.178 327.865c-5.523 0-10.004-4.478-10.004-10s4.474-10 9.997-10h.007c5.523 0 10 4.478 10 10s-4.477 10-10 10z" fill="#ff9eb1"/></g><g><path d="m238.678 417.865c-5.523 0-10.004-4.478-10.004-10s4.474-10 9.997-10h.007c5.523 0 10 4.478 10 10s-4.477 10-10 10z" fill="#ff9eb1"/></g></g><path d="m512.001 35.418c.069-9.386-3.675-18.552-10.27-25.147-6.536-6.537-15.595-10.271-24.892-10.271-.084 0-.169 0-.254.001-9.339.068-18.023 3.753-24.454 10.374l-67.843 69.859c-41.439-31.156-92.326-48.232-144.288-48.232-64.106 0-124.375 24.964-169.706 70.294s-70.294 105.6-70.294 169.706 24.964 124.376 70.294 169.706 105.6 70.294 169.706 70.294 124.376-24.964 169.706-70.294 70.294-105.6 70.294-169.706c0-51.916-17.087-102.857-48.235-144.285l69.862-67.845c6.621-6.431 10.305-15.115 10.374-24.454zm-52.001 236.584c0 121.309-98.692 220-220 220s-220-98.691-220-220 98.692-220 220-220c46.786 0 92.622 15.102 130.233 42.704l-30.493 31.399c-11.912 12.265-24.336 19.654-37.888 22.525-8.27-4.158-17.01-7.519-26.126-9.961-5.332-1.428-10.818 1.735-12.247 7.071-1.43 5.334 1.736 10.817 7.071 12.247 40.604 10.88 72.585 42.861 83.464 83.464 1.197 4.468 5.237 7.415 9.653 7.415.857 0 1.728-.111 2.595-.344 5.334-1.43 8.5-6.913 7.071-12.247-2.443-9.117-5.803-17.857-9.962-26.127 2.871-13.551 10.259-25.975 22.525-37.887l31.405-30.499c27.596 37.606 42.699 83.494 42.699 130.24zm27.693-226.479-115.73 112.391c-9.93 9.643-17.299 19.707-22.26 30.401-7.478-9.784-16.232-18.538-26.016-26.016 10.694-4.961 20.758-12.33 30.401-22.26l112.39-115.73c2.67-2.749 6.311-4.279 10.253-4.308.037-.001.074-.001.111-.001 4.027 0 7.938 1.604 10.746 4.413 2.834 2.834 4.443 6.792 4.413 10.858-.029 3.942-1.559 7.583-4.308 10.252z" fill="#ff764e"/></g></svg>