<svg id="Layer_1" enable-background="new 0 0 512 512" height="512" viewBox="0 0 512 512" width="512" xmlns="http://www.w3.org/2000/svg"><g><g><g><path clip-rule="evenodd" d="m421.366 58.648c-26.219-19.432-57.189-30.66-90.366-30.66s-64.147 11.227-90.366 30.659v.017 94.445c0 7.646 6.256 13.902 13.902 13.902h152.927c7.646 0 13.902-6.256 13.902-13.902v-54.685-39.776z" fill="#beece1" fill-rule="evenodd"/></g><g><path clip-rule="evenodd" d="m421.366 58.648v94.463c0 7.646-6.256 13.902-13.902 13.902h-152.928c-7.646 0-13.902-6.256-13.902-13.902v-94.463c-43.127 31.963-73.378 86.131-79.477 149.036 7.01-.356 14.076-.15 20.837-.053 7.147.103 14.252-.081 21.213 1.83 6.925 1.901 13.288 5.358 20.126 7.51 6.557 2.063 13.796 1.929 20.025 4.969 7.01 3.421 10.752 10.087 16.671 14.753 6.422 5.062 14.632 8.263 21.813 12.108 7.436 3.981 14.831 8.392 21.027 14.175 6.085 5.679 10.507 12.526 14.427 19.709 2.036 2.942 3.897 6.005 5.596 9.124.792 1.455 1.549 2.928 2.286 4.41 1.933-.038 3.873-.06 5.821-.06 94.441 0 171 47.261 171-64.965.001-72.803-32.216-136.663-80.633-172.546z" fill="#fff" fill-rule="evenodd"/></g></g><g><path d="m301.805 219.643c-5.522 0-10.003-4.478-10.003-10s4.476-10 9.998-10h.005c5.522 0 10 4.478 10 10s-4.478 10-10 10z" fill="#e3eaef"/></g><g><path d="m358.109 259.961c-5.522 0-10.003-4.478-10.003-10s4.476-10 9.998-10h.005c5.522 0 10 4.478 10 10s-4.477 10-10 10z" fill="#e3eaef"/></g><g><path d="m401.902 209.912c-5.522 0-10.003-4.478-10.003-10s4.476-10 9.998-10h.005c5.522 0 10 4.478 10 10s-4.477 10-10 10z" fill="#e3eaef"/></g><g><path d="m449.866 256.485c-5.522 0-10.003-4.478-10.003-10s4.475-10 9.997-10h.006c5.522 0 10 4.478 10 10s-4.477 10-10 10z" fill="#e3eaef"/></g></g><g><g><g><g><path clip-rule="evenodd" d="m271.366 236.648c-26.219-19.432-57.189-30.659-90.366-30.659s-64.147 11.227-90.366 30.659v.017 94.445c0 7.646 6.256 13.902 13.902 13.902h152.927c7.646 0 13.902-6.256 13.902-13.902v-54.686-39.776z" fill="#beece1" fill-rule="evenodd"/></g><g><path clip-rule="evenodd" d="m90.634 331.11v-39.393-55.069c-48.417 35.883-80.634 99.743-80.634 172.545 0 112.227 76.56 64.966 171 64.966s171 47.261 171-64.966c0-72.802-32.217-136.662-80.634-172.545v.017 94.445c0 7.646-6.256 13.902-13.902 13.902h-152.928c-7.646.001-13.902-6.255-13.902-13.902z" fill="#fff" fill-rule="evenodd"/></g></g><g><path d="m99.671 441.436c-5.522 0-10.003-4.478-10.003-10s4.476-10 9.998-10h.005c5.522 0 10 4.478 10 10s-4.478 10-10 10z" fill="#e3eaef"/></g><g><path d="m151.805 397.643c-5.522 0-10.003-4.478-10.003-10s4.476-10 9.998-10h.005c5.522 0 10 4.478 10 10s-4.478 10-10 10z" fill="#e3eaef"/></g><g><path d="m208.109 437.961c-5.522 0-10.003-4.478-10.003-10s4.476-10 9.998-10h.005c5.522 0 10 4.478 10 10s-4.477 10-10 10z" fill="#e3eaef"/></g><g><path d="m251.902 387.912c-5.522 0-10.003-4.478-10.003-10s4.476-10 9.998-10h.005c5.522 0 10 4.478 10 10s-4.477 10-10 10z" fill="#e3eaef"/></g><g><path d="m299.866 434.485c-5.522 0-10.003-4.478-10.003-10s4.475-10 9.997-10h.006c5.522 0 10 4.478 10 10s-4.477 10-10 10z" fill="#e3eaef"/></g><g><path d="m63.524 389.302c-5.522 0-10.003-4.478-10.003-10s4.476-10 9.998-10h.005c5.522 0 10 4.478 10 10s-4.477 10-10 10z" fill="#e3eaef"/></g></g><path d="m459.566 81.066c-34.23-40.676-79.889-63.078-128.566-63.078s-94.336 22.402-128.566 63.078c-27.252 32.385-44.619 73.308-50.336 117.617-37.657 7.06-72.311 27.879-99.664 60.383-33.813 40.181-52.434 93.496-52.434 150.126 0 35.001 7.077 57.515 22.271 70.85 21.711 19.053 55.057 14.689 93.672 9.636 19.77-2.587 42.178-5.52 65.058-5.52s45.288 2.933 65.058 5.52c17.075 2.234 33.118 4.335 47.583 4.334 18.246 0 33.979-3.342 46.089-13.97 15.192-13.335 22.269-35.849 22.269-70.85 0-36.565-7.774-71.743-22.378-102.901 19.863.6 39.157 3.125 56.435 5.386 17.075 2.234 33.118 4.335 47.583 4.334 18.246 0 33.979-3.342 46.089-13.97 15.194-13.334 22.271-35.848 22.271-70.849 0-56.63-18.621-109.945-52.434-150.126zm-133.03 383.944c-14.901 13.08-42.694 9.441-77.883 4.837-20.376-2.666-43.471-5.688-67.653-5.688s-47.277 3.022-67.653 5.688c-35.188 4.605-62.981 8.242-77.883-4.837-10.405-9.132-15.464-27.39-15.464-55.818 0-106.533 72.225-193.204 161-193.204s161 86.671 161 193.204c0 28.428-5.059 46.686-15.464 55.818zm150-178c-14.901 13.079-42.694 9.441-77.883 4.837-20.376-2.666-43.471-5.688-67.653-5.688-.701 0-1.395.016-2.094.021-5.751-9.56-12.203-18.632-19.34-27.113-34.23-40.677-79.89-63.078-128.566-63.078-2.785 0-5.558.083-8.322.228 13.755-89.89 79.5-158.228 158.322-158.228 88.775 0 161 86.671 161 193.204 0 28.427-5.059 46.685-15.464 55.817z" fill="#c1b0b5"/></g></svg>