<svg id="Layer_1" enable-background="new 0 0 512.05 512.05" height="512" viewBox="0 0 512.05 512.05" width="512" xmlns="http://www.w3.org/2000/svg"><g><g clip-rule="evenodd" fill-rule="evenodd"><path d="m447.238 64.864c-25.838-25.838-68.118-25.838-93.957 0l-288.418 288.417c-25.838 25.838-25.838 68.119 0 93.957 25.821 25.82 68.06 25.838 93.903.054l.054-.054 288.418-288.418c25.838-25.838 25.838-68.118 0-93.956z" fill="#ddb9a3"/><path d="m166.379 360.338c10.704 2.633 21.516-3.911 24.148-14.615 1.453-5.901 1.929-8.397 6.435-12.903 10.513-10.513 24.006-2.786 44.562-23.342s12.83-34.049 23.342-44.562c10.513-10.513 24.006-2.786 44.562-23.342 20.557-20.556 12.828-34.049 23.342-44.562 3.878-3.878 7.733-5.127 11.585-6.107 9.405-1.635 16.557-9.837 16.557-19.71 0-13.27-12.348-22.44-24.775-19.381-9.785 2.41-19.573 4.822-31.658 16.907-20.556 20.555-12.83 34.05-23.342 44.562-10.513 10.513-24.007 2.786-44.561 23.342-20.555 20.556-12.829 34.049-23.342 44.562s-24.005 2.785-44.561 23.342c-10.153 10.154-13.959 19.68-16.907 31.659-2.635 10.705 3.909 21.517 14.613 24.15z" fill="#ffee80"/><g fill="#fffbe1"><path d="m64.863 353.281 288.417-288.417c7.265-7.265 7.265-19.152 0-26.416l-6.604-6.604c-29.057-29.057-76.606-29.057-105.663 0l-209.17 209.17c-29.057 29.057-29.058 76.605 0 105.663l6.604 6.604c7.265 7.264 19.152 7.264 26.416 0z"/><path d="m447.238 158.821-288.418 288.417c-.018.018-.036.036-.054.054-7.21 7.269-7.192 19.115.054 26.362l6.604 6.604c29.057 29.057 76.606 29.057 105.663 0l209.17-209.17c29.057-29.057 29.057-76.606 0-105.663l-6.604-6.604c-7.264-7.265-19.151-7.265-26.415 0z"/></g></g><path d="m487.329 158.353-6.604-6.604c-3.266-3.266-7.193-5.638-11.481-7.008 13.511-28.401 8.542-63.472-14.935-86.949-14.386-14.386-33.581-22.308-54.05-22.308-11.591 0-22.771 2.545-32.903 7.36-1.371-4.284-3.741-8.206-7.004-11.469l-6.604-6.604c-33.031-33.029-86.774-33.029-119.806 0l-209.17 209.17c-33.029 33.03-33.029 86.775 0 119.806l6.604 6.604c3.263 3.263 7.185 5.633 11.469 7.004-4.816 10.132-7.361 21.312-7.36 32.903 0 20.47 7.922 39.665 22.308 54.05 14.385 14.386 33.58 22.308 54.05 22.308 11.591 0 22.771-2.545 32.903-7.361 1.371 4.284 3.741 8.206 7.004 11.469l6.604 6.604c15.942 15.942 37.217 24.722 59.903 24.722s43.96-8.779 59.902-24.722l209.17-209.17c15.942-15.942 24.722-37.216 24.722-59.902s-8.78-43.961-24.722-59.903zm-441.81 187.856-6.604-6.604c-25.231-25.232-25.231-66.288 0-91.521l209.17-209.17c25.231-25.232 66.289-25.232 91.521 0l6.604 6.604c3.384 3.384 3.384 8.89 0 12.273l-288.418 288.418c-.002.002-.004.004-.006.006-3.384 3.379-8.886 3.377-12.267-.006zm26.416 93.958c-10.608-10.607-16.45-24.78-16.45-39.907 0-15.122 5.839-29.291 16.44-39.897l.01-.01c.003-.003.006-.007.009-.01l288.408-288.408c10.607-10.608 24.78-16.45 39.907-16.45 15.126 0 29.3 5.842 39.907 16.45 22.005 22.005 22.005 57.81 0 79.814l-288.416 288.418c-10.607 10.608-24.781 16.45-39.907 16.45-15.128 0-29.301-5.842-39.908-16.45zm401.251-176.151-209.17 209.17c-12.164 12.165-28.415 18.864-45.76 18.864s-33.596-6.699-45.761-18.864l-6.604-6.604c-3.384-3.384-3.384-8.89 0-12.273l288.417-288.417c3.383-3.385 8.891-3.385 12.273 0l6.604 6.604c12.165 12.165 18.864 28.416 18.864 45.761s-6.698 33.595-18.863 45.759z" fill="#c68a86"/></g></svg>