<svg id="line_color" height="512" viewBox="0 0 74 74" width="512" xmlns="http://www.w3.org/2000/svg" data-name="line color"><path d="m71 50.25v4.23a4.724 4.724 0 0 1 -4.73 4.72h-36.42a3.806 3.806 0 0 1 -2.1-.63c-3.07-2.03-13.3-8.22-24.75-8.99l9.79-7.36s5.45.87 18.42 6.98a7.436 7.436 0 0 0 2.4.69l2.58.29a7.33 7.33 0 0 0 .81.05 5.143 5.143 0 0 0 .56.02z" fill="#fed19a"/><path d="m66.27 59.7h-36.42a4.293 4.293 0 0 1 -2.376-.713c-2.867-1.9-13.108-8.141-24.508-8.908a.5.5 0 0 1 -.267-.9l9.79-7.36a.493.493 0 0 1 .379-.094c.226.036 5.668.951 18.554 7.022a7 7 0 0 0 2.241.645l2.582.29a6.846 6.846 0 0 0 .755.048 5.417 5.417 0 0 0 .56.02h33.44a.5.5 0 0 1 .5.5v4.23a5.231 5.231 0 0 1 -5.23 5.22zm-61.923-10.507c11.108 1.145 20.87 7.1 23.679 8.959a3.3 3.3 0 0 0 1.824.547h36.42a4.23 4.23 0 0 0 4.23-4.22v-3.729h-32.94a5.654 5.654 0 0 1 -.615-.023 7.485 7.485 0 0 1 -.81-.05l-2.581-.29a7.993 7.993 0 0 1 -2.561-.736c-11.373-5.358-16.98-6.674-18.08-6.9z" fill="#323c6b"/><path d="m28.21 49.2a7.436 7.436 0 0 0 2.4.69l2.58.29a7.33 7.33 0 0 0 .81.05 5.143 5.143 0 0 0 .56.02h3a5.143 5.143 0 0 1 -.56-.02 7.33 7.33 0 0 1 -.81-.05l-2.58-.29a7.436 7.436 0 0 1 -2.4-.69c-12.97-6.11-18.42-6.98-18.42-6.98l-.74.556a110.473 110.473 0 0 1 16.16 6.424z" fill="#fed19a"/><path d="m68 50.25v4.23a4.724 4.724 0 0 1 -4.73 4.72h3a4.724 4.724 0 0 0 4.73-4.72v-4.23z" fill="#9dceb2"/><path d="m69.91 34.19-1.08 16.06h-31.27a5.143 5.143 0 0 1 -.56-.02l-.38-13.61h21.58l2.6 4.6 1.92-5.19z" fill="#dbd8dd"/><path d="m68.83 50.75h-31.27a5.654 5.654 0 0 1 -.615-.023.5.5 0 0 1 -.445-.483l-.38-13.61a.5.5 0 0 1 .5-.514h21.58a.5.5 0 0 1 .435.254l2.065 3.662 1.546-4.179a.5.5 0 0 1 .345-.311l7.19-1.84a.5.5 0 0 1 .623.518l-1.08 16.06a.5.5 0 0 1 -.494.466zm-31.343-1h30.876l1-14.9-6.263 1.6-1.829 4.943a.5.5 0 0 1 -.9.073l-2.462-4.346h-20.775z" fill="#323c6b"/><path d="m67.875 34.711-1.045 15.539h2l1.08-16.06z" fill="#bbbbcd"/><path d="m66.065 20.837a6.532 6.532 0 0 1 -2.252-.429.5.5 0 0 1 .346-.938 5.54 5.54 0 0 0 1.907.367.5.5 0 0 1 0 1z" fill="#323c6b"/><path d="m60.295 18.072a.5.5 0 0 1 -.335-.129 23.326 23.326 0 0 0 -6.88-4.358.5.5 0 0 1 .371-.929 24.326 24.326 0 0 1 7.179 4.544.5.5 0 0 1 -.335.871z" fill="#323c6b"/><path d="m69.315 22.558c-2.1 7.431-5.612 9.24-8.348 9.364a7.44 7.44 0 0 1 -4.976-1.913 24.017 24.017 0 0 0 -5.661-3.684c-5.977-3.014-10.095 4.675-10.095 4.675s-5.809-5.319-1.523-11.882 13.209-5.077 19.57.682 11.033 2.758 11.033 2.758z" fill="#b6d2dd"/><path d="m60.711 32.428a8.131 8.131 0 0 1 -5.039-2.033 23.927 23.927 0 0 0 -5.528-3.6c-5.509-2.771-9.311 4.147-9.47 4.443a.5.5 0 0 1 -.778.132c-.061-.056-6.07-5.686-1.6-12.524a9.665 9.665 0 0 1 7.03-4.449c4.235-.545 9.208 1.335 13.294 5.034 5.976 5.409 10.25 2.823 10.429 2.711a.5.5 0 0 1 .749.558c-2.206 7.811-6.006 9.6-8.806 9.728-.092-.002-.192 0-.281 0zm-13.147-7.3a6.584 6.584 0 0 1 2.991.754 24.31 24.31 0 0 1 5.754 3.744 6.977 6.977 0 0 0 4.635 1.8c3.322-.15 5.928-2.9 7.574-7.962-1.8.608-5.722 1.1-10.572-3.294-3.872-3.5-8.544-5.3-12.5-4.783a8.693 8.693 0 0 0 -6.321 4 8.564 8.564 0 0 0 1.012 10.8c.932-1.438 3.647-5.062 7.426-5.062z" fill="#323c6b"/><path d="m39.429 30.1a8.793 8.793 0 0 0 .806.891 14.05 14.05 0 0 1 2.299-2.991 8.844 8.844 0 0 0 -3.105 2.1z" fill="#acc6cc"/><path d="m58.282 19.8c-5.771-5.224-13.638-6.909-18.25-2.283 4.577-1.84 10.6.069 15.25 4.283 6.362 5.759 11.033 2.762 11.033 2.762a16.7 16.7 0 0 1 -3.546 7.021c2.344-.793 4.886-3.147 6.546-9.021 0-.004-4.671 2.993-11.033-2.762z" fill="#acc6cc"/><g fill="#323c6b"><path d="m41.942 23.41a.5.5 0 0 1 -.468-.676c.018-.047 1.817-4.71 6.61-4.239a.5.5 0 1 1 -.1 1c-4.02-.389-5.562 3.556-5.577 3.6a.5.5 0 0 1 -.465.315z"/><path d="m68.83 50.75h-31.27a5.654 5.654 0 0 1 -.615-.023.5.5 0 0 1 -.445-.483l-.38-13.61a.5.5 0 0 1 .5-.514h21.58a.5.5 0 0 1 .435.254l2.065 3.662 1.546-4.179a.5.5 0 0 1 .345-.311l7.19-1.84a.5.5 0 0 1 .623.518l-1.08 16.06a.5.5 0 0 1 -.494.466zm-31.343-1h30.876l1-14.9-6.263 1.6-1.829 4.943a.5.5 0 0 1 -.9.073l-2.462-4.346h-20.775z"/><path d="m18.444 57.355a.5.5 0 0 1 -.208-.045 49.2 49.2 0 0 0 -10.936-3.631.5.5 0 1 1 .193-.981 50.215 50.215 0 0 1 11.161 3.7.5.5 0 0 1 -.209.955z"/><path d="m22.184 59.232a.5.5 0 0 1 -.239-.061q-.472-.257-.984-.526a.5.5 0 1 1 .463-.886q.52.271 1 .534a.5.5 0 0 1 -.24.939z"/></g><path d="m71 50.25v4.23a4.724 4.724 0 0 1 -4.73 4.72h-36.42a3.806 3.806 0 0 1 -2.1-.63c-3.07-2.03-13.3-8.22-24.75-8.99l9.79-7.36s5.45.87 18.42 6.98a7.436 7.436 0 0 0 2.4.69l2.58.29a7.33 7.33 0 0 0 .81.05 5.143 5.143 0 0 0 .56.02z" fill="#fed19a"/><path d="m66.27 59.7h-36.42a4.293 4.293 0 0 1 -2.376-.713c-2.867-1.9-13.108-8.141-24.508-8.908a.5.5 0 0 1 -.267-.9l9.79-7.36a.493.493 0 0 1 .379-.094c.226.036 5.668.951 18.554 7.022a7 7 0 0 0 2.241.645l2.582.29a6.846 6.846 0 0 0 .755.048 5.417 5.417 0 0 0 .56.02h33.44a.5.5 0 0 1 .5.5v4.23a5.231 5.231 0 0 1 -5.23 5.22zm-61.923-10.507c11.108 1.145 20.87 7.1 23.679 8.959a3.3 3.3 0 0 0 1.824.547h36.42a4.23 4.23 0 0 0 4.23-4.22v-3.729h-32.94a5.654 5.654 0 0 1 -.615-.023 7.485 7.485 0 0 1 -.81-.05l-2.581-.29a7.993 7.993 0 0 1 -2.561-.736c-11.373-5.358-16.98-6.674-18.08-6.9z" fill="#323c6b"/><path d="m60.711 32.428a8.131 8.131 0 0 1 -5.039-2.033 23.927 23.927 0 0 0 -5.528-3.6c-5.509-2.771-9.311 4.147-9.47 4.443a.5.5 0 0 1 -.778.132c-.061-.056-6.07-5.686-1.6-12.524a9.665 9.665 0 0 1 7.03-4.449c4.235-.545 9.208 1.335 13.294 5.034 5.976 5.409 10.25 2.823 10.429 2.711a.5.5 0 0 1 .749.558c-2.206 7.811-6.006 9.6-8.806 9.728-.092-.002-.192 0-.281 0zm-13.147-7.3a6.584 6.584 0 0 1 2.991.754 24.31 24.31 0 0 1 5.754 3.744 6.977 6.977 0 0 0 4.635 1.8c3.322-.15 5.928-2.9 7.574-7.962-1.8.608-5.722 1.1-10.572-3.294-3.872-3.5-8.544-5.3-12.5-4.783a8.693 8.693 0 0 0 -6.321 4 8.564 8.564 0 0 0 1.012 10.8c.932-1.438 3.647-5.062 7.426-5.062z" fill="#323c6b"/><g fill="#fff" opacity=".78"><path d="m52.8 55.541h9.723a.759.759 0 0 1 .766.756.766.766 0 0 1 -.76.769h-9.729a.735.735 0 0 1 -.766-.727.792.792 0 0 1 .766-.798z"/><path d="m65.186 55.541h.408a.75.75 0 0 1 .766.744.776.776 0 0 1 -.76.781h-.408a.775.775 0 0 1 -.766-.774.751.751 0 0 1 .76-.751z"/></g></svg>