<svg id="line_color" height="512" viewBox="0 0 74 74" width="512" xmlns="http://www.w3.org/2000/svg" data-name="line color"><path d="m45.813 14.5h-1.192a.5.5 0 0 1 0-1h1.192a.5.5 0 0 1 0 1z" fill="#323c6b"/><path d="m42.125 14.5h-8.437a.5.5 0 0 1 0-1h8.438a.5.5 0 0 1 0 1z" fill="#323c6b"/><path d="m69.01 30.23v38.06l-2.72 1.638a3.565 3.565 0 0 1 -3.59.052 6.111 6.111 0 0 0 -6 0l-.06.034a3.565 3.565 0 0 1 -3.5 0l-.06-.034a6.111 6.111 0 0 0 -6 0l-.064.036a3.565 3.565 0 0 1 -3.494 0l-.072-.04a6.089 6.089 0 0 0 -5.99 0l-.038.024a3.565 3.565 0 0 1 -3.544-.033l-2.868-1.677v-31.56c0-10.74-4.82-19.73-10.79-19.73h35.87a12.926 12.926 0 0 1 11.92 7.75 12.507 12.507 0 0 1 1 5.48z" fill="#eeefee"/><path d="m45.246 70.968a4.02 4.02 0 0 1 -1.969-.511 5.659 5.659 0 0 0 -5.572-.041 4.1 4.1 0 0 1 -4.081-.016l-2.868-1.678a.5.5 0 0 1 -.248-.432v-31.56c0-10.424-4.712-19.23-10.29-19.23a.5.5 0 1 1 0-1h35.872a13.4 13.4 0 0 1 12.379 8.053 12.931 12.931 0 0 1 1.041 5.687v38.05a.5.5 0 0 1 -.242.428l-2.72 1.638a4.069 4.069 0 0 1 -4.093.059 5.644 5.644 0 0 0 -5.509 0 4.12 4.12 0 0 1 -4.052.034 5.675 5.675 0 0 0 -5.568-.034 4.236 4.236 0 0 1 -2.08.553zm-4.78-2.268a6.569 6.569 0 0 1 3.23.843 3.12 3.12 0 0 0 3.074.036 6.68 6.68 0 0 1 6.556-.036 3.113 3.113 0 0 0 3.069.034 6.676 6.676 0 0 1 6.551-.034 3.071 3.071 0 0 0 3.086-.044l2.478-1.493v-37.8a11.941 11.941 0 0 0 -.959-5.261 12.405 12.405 0 0 0 -11.461-7.445h-32.361c4.513 2.651 7.781 10.27 7.781 19.23v31.27l2.62 1.533a3.074 3.074 0 0 0 3.047.029 6.693 6.693 0 0 1 3.289-.862z" fill="#323c6b"/><path d="m34.46 69.98-.038.02c-.079.045-.163.079-.245.117a3.561 3.561 0 0 0 3.245-.117l.038-.022a6.09 6.09 0 0 1 1.495-.6 6.087 6.087 0 0 0 -4.495.602z" fill="#dbd8dd"/><path d="m44.08 69.98-.064.036c-.081.046-.167.081-.25.12a3.56 3.56 0 0 0 3.25-.12l.064-.036a6.1 6.1 0 0 1 1.5-.6 6.109 6.109 0 0 0 -4.5.6z" fill="#dbd8dd"/><path d="m53.7 69.98-.06.034c-.081.046-.167.081-.25.12a3.56 3.56 0 0 0 3.25-.12l.06-.034a6.1 6.1 0 0 1 1.5-.6 6.109 6.109 0 0 0 -4.5.6z" fill="#dbd8dd"/><path d="m68.01 24.75a12.926 12.926 0 0 0 -11.92-7.75h-3a12.926 12.926 0 0 1 11.92 7.75 12.507 12.507 0 0 1 1 5.48v38.06l-2.72 1.638a3.552 3.552 0 0 1 -.336.173 3.56 3.56 0 0 0 3.336-.173l2.72-1.638v-38.06a12.507 12.507 0 0 0 -1-5.48z" fill="#dbd8dd"/><path d="m8.715 49.889a.5.5 0 0 1 -.463-.312 31.389 31.389 0 0 1 -1.943-7.432.5.5 0 0 1 .99-.139 30.394 30.394 0 0 0 1.88 7.194.5.5 0 0 1 -.463.688z" fill="#323c6b"/><path d="m10.322 53.12a.5.5 0 0 1 -.429-.242q-.3-.494-.577-1.018a.5.5 0 1 1 .882-.471q.267.5.552.972a.5.5 0 0 1 -.428.758z" fill="#323c6b"/><path d="m31.01 36.73c0 10.75-4.82 19.45-10.79 19.45-5.9 0-10.7-8.55-10.78-19.18v-.27c0-10.69 4.78-19.64 10.69-19.73h.09c5.97 0 10.79 8.99 10.79 19.73z" fill="#dbd8dd"/><path d="m20.22 56.68c-6.242 0-11.2-8.643-11.28-19.676v-.274c0-11.061 5.017-20.136 11.182-20.23 6.323 0 11.388 9.075 11.388 20.23 0 11-5.065 19.95-11.29 19.95zm0-39.18c-5.61.084-10.28 8.89-10.28 19.23v.27c.078 10.3 4.689 18.68 10.28 18.68 5.674 0 10.29-8.5 10.29-18.95 0-10.424-4.71-19.23-10.29-19.23z" fill="#323c6b"/><path d="m15.547 36.744c0 5.041 1.952 9.128 4.353 9.128s4.353-4.088 4.353-9.128-1.943-9.119-4.353-9.119-4.353 4.087-4.353 9.119z" fill="#fff"/><g fill="#323c6b"><path d="m19.9 46.372c-2.721 0-4.853-4.229-4.853-9.628s2.132-9.619 4.853-9.619 4.854 4.225 4.854 9.619-2.132 9.628-4.854 9.628zm0-18.247c-2.088 0-3.853 3.947-3.853 8.619s1.765 8.628 3.853 8.628 3.854-3.951 3.854-8.628-1.765-8.619-3.854-8.619z"/><path d="m24.251 37.5h-19.24a.5.5 0 0 1 -.5-.5v-29.893a3.917 3.917 0 0 1 .958-3.122 4.423 4.423 0 0 1 3.343-1.485h55.088a4.612 4.612 0 0 1 4.607 4.607v17.659h-1v-17.659a3.611 3.611 0 0 0 -3.607-3.607h-55.088a3.421 3.421 0 0 0 -2.589 1.143 2.983 2.983 0 0 0 -.716 2.4v29.46h18.74z"/><path d="m33.326 41.576h2.565v1h-2.565z"/><path d="m40.853 41.576h2.565v1h-2.565z"/><path d="m48.38 41.576h2.565v1h-2.565z"/><path d="m55.907 41.576h2.565v1h-2.565z"/><path d="m63.434 41.576h2.565v1h-2.565z"/><path d="m20.22 17.5h-.09v-1z"/><path d="m45.246 70.968a4.02 4.02 0 0 1 -1.969-.511 5.659 5.659 0 0 0 -5.572-.041 4.1 4.1 0 0 1 -4.081-.016l-2.868-1.678a.5.5 0 0 1 -.248-.432v-31.56c0-10.424-4.712-19.23-10.29-19.23a.5.5 0 1 1 0-1h35.872a13.4 13.4 0 0 1 12.379 8.053 12.931 12.931 0 0 1 1.041 5.687v38.05a.5.5 0 0 1 -.242.428l-2.72 1.638a4.069 4.069 0 0 1 -4.093.059 5.644 5.644 0 0 0 -5.509 0 4.12 4.12 0 0 1 -4.052.034 5.675 5.675 0 0 0 -5.568-.034 4.236 4.236 0 0 1 -2.08.553zm-4.78-2.268a6.569 6.569 0 0 1 3.23.843 3.12 3.12 0 0 0 3.074.036 6.68 6.68 0 0 1 6.556-.036 3.113 3.113 0 0 0 3.069.034 6.676 6.676 0 0 1 6.551-.034 3.071 3.071 0 0 0 3.086-.044l2.478-1.493v-37.8a11.941 11.941 0 0 0 -.959-5.261 12.405 12.405 0 0 0 -11.461-7.445h-32.361c4.513 2.651 7.781 10.27 7.781 19.23v31.27l2.62 1.533a3.074 3.074 0 0 0 3.047.029 6.693 6.693 0 0 1 3.289-.862z"/></g><path d="m31.01 36.73v19.45h-10.79c5.97 0 10.79-8.7 10.79-19.45z" fill="#dbd8dd"/><path d="m31.01 56.68h-10.79a.5.5 0 1 1 0-1c5.674 0 10.29-8.5 10.29-18.95a.5.5 0 0 1 1 0v19.45a.5.5 0 0 1 -.5.5zm-7.257-1h6.757v-10.743c-1.296 5.051-3.749 8.987-6.758 10.743z" fill="#323c6b"/><g fill="#bbbbcd" opacity=".78"><path d="m33.792 64.838v-10.4a.813.813 0 0 1 .809-.819.82.82 0 0 1 .823.813v10.4a.787.787 0 0 1 -.778.819.847.847 0 0 1 -.854-.813z"/><path d="m33.792 51.58v-.437a.8.8 0 0 1 .8-.819.83.83 0 0 1 .836.813v.437a.829.829 0 0 1 -.828.819.8.8 0 0 1 -.808-.813z"/></g></svg>