<svg id="line_color" height="512" viewBox="0 0 74 74" width="512" xmlns="http://www.w3.org/2000/svg" data-name="line color"><path d="m70.85 4.44a2.932 2.932 0 0 1 -2.94 2.94h-61.76a2.94 2.94 0 1 1 0-5.88h61.76a2.938 2.938 0 0 1 2.94 2.94z" fill="#fed19a"/><path d="m67.91 7.88h-61.76a3.44 3.44 0 1 1 0-6.88h61.76a3.44 3.44 0 1 1 0 6.88zm-61.76-5.88a2.427 2.427 0 0 0 -1.727.713 2.442 2.442 0 0 0 1.727 4.167h61.76a2.44 2.44 0 1 0 0-4.88z" fill="#323c6b"/><path d="m67.91 1.5h-3a2.94 2.94 0 1 1 0 5.88h3a2.94 2.94 0 1 0 0-5.88z" fill="#f4bb87"/><path d="m31.49 73h-.9a.5.5 0 0 1 0-1h.9a.5.5 0 0 1 0 1z" fill="#323c6b"/><path d="m49.78 73h-14.625a.5.5 0 0 1 0-1h14.625a.5.5 0 0 1 0 1z" fill="#323c6b"/><path d="m70.85 66.56a2.938 2.938 0 0 1 -2.94 2.94h-61.76a2.94 2.94 0 1 1 0-5.88h61.76a2.932 2.932 0 0 1 2.94 2.94z" fill="#fed19a"/><path d="m67.91 70h-61.76a3.44 3.44 0 1 1 0-6.88h61.76a3.44 3.44 0 1 1 0 6.88zm-61.76-5.88a2.44 2.44 0 1 0 0 4.88h61.76a2.44 2.44 0 1 0 0-4.88z" fill="#323c6b"/><path d="m67.91 63.62h-3a2.94 2.94 0 1 1 0 5.88h3a2.94 2.94 0 1 0 0-5.88z" fill="#f4bb87"/><path d="m3.15 24.917a.5.5 0 0 1 -.5-.5v-11.709a.5.5 0 0 1 1 0v11.709a.5.5 0 0 1 -.5.5z" fill="#323c6b"/><path d="m3.15 28.792a.5.5 0 0 1 -.5-.5v-.75a.5.5 0 0 1 1 0v.75a.5.5 0 0 1 -.5.5z" fill="#323c6b"/><path d="m6.15 7.38h25.34v56.24h-25.34z" fill="#b6d2dd"/><path d="m31.49 64.12h-25.34a.5.5 0 0 1 -.5-.5v-56.24a.5.5 0 0 1 .5-.5h25.34a.5.5 0 0 1 .5.5v56.24a.5.5 0 0 1 -.5.5zm-24.84-1h24.34v-55.24h-24.34z" fill="#323c6b"/><path d="m31.49 7.38h36.42v56.24h-36.42z" fill="#eeefee"/><path d="m67.91 64.12h-36.42a.5.5 0 0 1 -.5-.5v-56.24a.5.5 0 0 1 .5-.5h36.42a.5.5 0 0 1 .5.5v56.24a.5.5 0 0 1 -.5.5zm-35.92-1h35.42v-55.24h-35.42z" fill="#323c6b"/><path d="m64.91 7.38h3v56.24h-3z" fill="#dbd8dd"/><path d="m25.094 40.588a.5.5 0 0 1 -.5-.5v-9.176a.5.5 0 0 1 1 0v9.176a.5.5 0 0 1 -.5.5z" fill="#323c6b"/><path d="m48.519 18.444a.5.5 0 0 1 -.5-.5l-.008-5.431a.5.5 0 0 1 .5-.5h19.4a.5.5 0 0 1 0 1h-18.9l.007 4.93a.5.5 0 0 1 -.5.5z" fill="#323c6b"/><path d="m54.075 23.5v.485h-11.112v-.485a5.556 5.556 0 0 1 5.556-5.556 5.556 5.556 0 0 1 5.556 5.556z" fill="#dbd8dd"/><g fill="#323c6b"><path d="m54.075 24.485h-11.112a.5.5 0 0 1 -.5-.5v-.485a6.056 6.056 0 1 1 12.112 0v.485a.5.5 0 0 1 -.5.5zm-10.612-1h10.112a5.056 5.056 0 0 0 -10.112 0z"/><path d="m67.911 33.2h-5.389a.5.5 0 0 1 0-1h5.389a.5.5 0 0 1 0 1z"/><path d="m62.522 36.6a.5.5 0 0 1 -.5-.5v-6.806a.5.5 0 1 1 1 0v6.806a.5.5 0 0 1 -.5.5z"/><path d="m53.176 30.548a.5.5 0 0 1 -.5-.5v-2.49a.5.5 0 0 1 1 0v2.49a.5.5 0 0 1 -.5.5z"/><path d="m53.176 36a.5.5 0 0 1 -.5-.5v-1.526a.5.5 0 0 1 1 0v1.526a.5.5 0 0 1 -.5.5z"/><path d="m53.176 42.062a.5.5 0 0 1 -.5-.5v-2.49a.5.5 0 1 1 1 0v2.49a.5.5 0 0 1 -.5.5z"/><path d="m53.176 47.515a.5.5 0 0 1 -.5-.5v-1.526a.5.5 0 0 1 1 0v1.526a.5.5 0 0 1 -.5.5z"/><path d="m43.878 35.728a.5.5 0 0 1 -.5-.5v-1.528a.5.5 0 0 1 1 0v1.526a.5.5 0 0 1 -.5.502z"/><path d="m43.862 30.548a.5.5 0 0 1 -.5-.5v-2.49a.5.5 0 0 1 1 0v2.49a.5.5 0 0 1 -.5.5z"/><path d="m43.878 47.242a.5.5 0 0 1 -.5-.5v-1.526a.5.5 0 0 1 1 0v1.526a.5.5 0 0 1 -.5.5z"/><path d="m43.862 42.062a.5.5 0 0 1 -.5-.5v-2.49a.5.5 0 1 1 1 0v2.49a.5.5 0 0 1 -.5.5z"/><path d="m48.462 29.584a.5.5 0 0 1 -.5-.5v-1.526a.5.5 0 0 1 1 0v1.526a.5.5 0 0 1 -.5.5z"/><path d="m48.462 36a.5.5 0 0 1 -.5-.5v-2.49a.5.5 0 0 1 1 0v2.49a.5.5 0 0 1 -.5.5z"/><path d="m48.462 41.1a.5.5 0 0 1 -.5-.5v-1.528a.5.5 0 1 1 1 0v1.528a.5.5 0 0 1 -.5.5z"/><path d="m48.462 47.515a.5.5 0 0 1 -.5-.5v-2.49a.5.5 0 0 1 1 0v2.49a.5.5 0 0 1 -.5.5z"/><path d="m67.91 7.88h-61.76a3.44 3.44 0 1 1 0-6.88h61.76a3.44 3.44 0 1 1 0 6.88zm-61.76-5.88a2.427 2.427 0 0 0 -1.727.713 2.442 2.442 0 0 0 1.727 4.167h61.76a2.44 2.44 0 1 0 0-4.88z"/><path d="m67.91 70h-61.76a3.44 3.44 0 1 1 0-6.88h61.76a3.44 3.44 0 1 1 0 6.88zm-61.76-5.88a2.44 2.44 0 1 0 0 4.88h61.76a2.44 2.44 0 1 0 0-4.88z"/><path d="m67.91 64.12h-36.42a.5.5 0 0 1 -.5-.5v-56.24a.5.5 0 0 1 .5-.5h36.42a.5.5 0 0 1 .5.5v56.24a.5.5 0 0 1 -.5.5zm-35.92-1h35.42v-55.24h-35.42z"/></g><path d="m18.1 60.113a.84.84 0 0 1 -.841.841h-.025a.841.841 0 0 1 0-1.681h.025a.84.84 0 0 1 .841.84z" fill="#f9f9f9"/><path d="m15.24 60.113a.84.84 0 0 1 -.841.841h-4.699a.84.84 0 0 1 -.841-.841v-6.987a.841.841 0 1 1 1.681 0v6.146h3.86a.84.84 0 0 1 .84.841z" fill="#f9f9f9"/></svg>