<svg id="line_color" height="512" viewBox="0 0 74 74" width="512" xmlns="http://www.w3.org/2000/svg" data-name="line color"><path d="m52.05 32.22v18.39a2.77 2.77 0 0 1 -2.77 2.77h-18.4a2.768 2.768 0 0 1 -2.76-2.77v-18.39a2.768 2.768 0 0 1 2.76-2.77h18.4a2.77 2.77 0 0 1 2.77 2.77z" fill="#dbd8dd"/><path d="m49.28 53.88h-18.4a3.269 3.269 0 0 1 -3.26-3.27v-18.39a3.268 3.268 0 0 1 3.26-3.27h18.4a3.273 3.273 0 0 1 3.27 3.27v18.39a3.273 3.273 0 0 1 -3.27 3.27zm-18.4-23.93a2.267 2.267 0 0 0 -2.26 2.27v18.39a2.268 2.268 0 0 0 2.26 2.27h18.4a2.272 2.272 0 0 0 2.27-2.27v-18.39a2.272 2.272 0 0 0 -2.27-2.27z" fill="#323c6b"/><path d="m49.28 29.45h-3a2.77 2.77 0 0 1 2.77 2.77v18.39a2.77 2.77 0 0 1 -2.77 2.77h3a2.77 2.77 0 0 0 2.77-2.77v-18.39a2.77 2.77 0 0 0 -2.77-2.77z" fill="#bbbbcd"/><path d="m71 26.3v30.24h-6.23a2.768 2.768 0 0 1 -2.76-2.77v-24.71a2.759 2.759 0 0 1 2.76-2.76z" fill="#dbd8dd"/><path d="m71 57.04h-6.23a3.269 3.269 0 0 1 -3.26-3.27v-24.71a3.264 3.264 0 0 1 3.26-3.26h6.23a.5.5 0 0 1 .5.5v30.24a.5.5 0 0 1 -.5.5zm-6.23-30.24a2.263 2.263 0 0 0 -2.26 2.26v24.71a2.268 2.268 0 0 0 2.26 2.27h5.73v-29.24z" fill="#323c6b"/><path d="m68 26.3h3v30.24h-3z" fill="#bbbbcd"/><path d="m10.509 39.479a.5.5 0 0 1 -.354-.854 27.619 27.619 0 0 1 7.982-5.567.5.5 0 0 1 .419.908 26.618 26.618 0 0 0 -7.694 5.366.5.5 0 0 1 -.353.147z" fill="#323c6b"/><path d="m7.917 42.469a.5.5 0 0 1 -.4-.8q.288-.385.59-.761a.5.5 0 1 1 .779.626c-.193.241-.383.485-.567.732a.5.5 0 0 1 -.402.203z" fill="#323c6b"/><path d="m28.12 34.07v14.97h-2.03a8.427 8.427 0 0 0 -8.44 8.43v.74h-12.11a24.2 24.2 0 0 1 22.58-24.14z" fill="#eeefee"/><path d="m17.65 58.71h-12.11a.5.5 0 0 1 -.5-.5 24.7 24.7 0 0 1 23.047-24.639.5.5 0 0 1 .533.5v14.969a.5.5 0 0 1 -.5.5h-2.03a7.944 7.944 0 0 0 -7.94 7.93v.74a.5.5 0 0 1 -.5.5zm-11.6-1h11.1v-.24a8.945 8.945 0 0 1 8.94-8.93h1.53v-13.93a23.7 23.7 0 0 0 -21.575 23.1z" fill="#323c6b"/><path d="m52.05 34.01h9.96v15.03h-9.96z" fill="#eeefee"/><path d="m62.01 49.54h-9.96a.5.5 0 0 1 -.5-.5v-15.03a.5.5 0 0 1 .5-.5h9.96a.5.5 0 0 1 .5.5v15.03a.5.5 0 0 1 -.5.5zm-9.46-1h8.96v-14.03h-8.96z" fill="#323c6b"/><path d="m43.23 20.31v9.14h-6.31v-9.14c.25-.01.5-.02.76-.02h4.8c.25 0 .5.01.75.02z" fill="#eeefee"/><path d="m43.23 29.95h-6.31a.5.5 0 0 1 -.5-.5v-9.14a.5.5 0 0 1 .479-.5c.257-.011.514-.021.781-.021h4.8c.257 0 .514.01.771.021a.5.5 0 0 1 .479.5v9.14a.5.5 0 0 1 -.5.5zm-5.81-1h5.31v-8.157h-.25-4.8-.26z" fill="#323c6b"/><path d="m42.48 20.29h-3c.25 0 .5.01.75.02v9.14h3v-9.14c-.25-.01-.5-.02-.75-.02z" fill="#dbd8dd"/><path d="m43.23 14.53v1.87c-.25.01-.5.02-.75.02h-4.8c-.26 0-.51-.01-.76-.02v-1.87a3.155 3.155 0 1 1 6.31 0z" fill="#eeefee"/><path d="m42.48 16.92h-4.8c-.267 0-.524-.01-.781-.021a.5.5 0 0 1 -.479-.5v-1.869a3.655 3.655 0 1 1 7.31 0v1.87a.5.5 0 0 1 -.479.5c-.257.01-.514.02-.771.02zm-5.06-1.003h.26 4.8.25v-1.387a2.63 2.63 0 0 0 -.764-1.877 2.675 2.675 0 0 0 -4.546 1.877z" fill="#323c6b"/><path d="m42.32 12.3a3.154 3.154 0 0 0 -3.732-.522 3.169 3.169 0 0 1 .732.522 3.135 3.135 0 0 1 .91 2.23v1.87c-.25.01-.5.02-.75.02h3c.25 0 .5-.01.75-.02v-1.87a3.135 3.135 0 0 0 -.91-2.23z" fill="#dbd8dd"/><path d="m58.408 20.112a.516.516 0 0 1 -.09-.008.5.5 0 0 1 -.4-.582 6.563 6.563 0 0 0 .1-1.172.5.5 0 0 1 1 0 7.609 7.609 0 0 1 -.118 1.35.5.5 0 0 1 -.492.412z" fill="#323c6b"/><path d="m58.037 16.285a.5.5 0 0 1 -.465-.317 6.639 6.639 0 0 0 -4.8-4.044.5.5 0 1 1 .2-.979 7.546 7.546 0 0 1 5.528 4.655.5.5 0 0 1 -.465.683z" fill="#323c6b"/><path d="m55.52 18.35a4.074 4.074 0 0 1 -4.07 4.07 3.941 3.941 0 0 1 -1.86-.46 14.978 14.978 0 0 0 -6.36-1.65c-.25-.01-.5-.02-.75-.02h-2.4v-3.87h2.4c.25 0 .5-.01.75-.02a14.989 14.989 0 0 0 6.36-1.66 4.07 4.07 0 0 1 5.93 3.61z" fill="#dbd8dd"/><path d="m51.45 22.92a4.457 4.457 0 0 1 -2.1-.519 14.552 14.552 0 0 0 -6.145-1.591c-.243-.01-.486-.02-.729-.02h-2.4a.5.5 0 0 1 -.5-.5v-3.87a.5.5 0 0 1 .5-.5h2.4c.243 0 .486-.01.729-.02a14.562 14.562 0 0 0 6.148-1.6 4.566 4.566 0 1 1 2.097 8.62zm-10.87-3.13h1.9c.257 0 .514.01.771.021a15.557 15.557 0 0 1 6.572 1.707 3.459 3.459 0 0 0 1.628.4 3.565 3.565 0 1 0 -1.63-6.736 15.559 15.559 0 0 1 -6.571 1.718c-.257.011-.514.021-.771.021h-1.9z" fill="#323c6b"/><path d="m51.45 14.29a4.063 4.063 0 0 0 -1.5.292 4.052 4.052 0 0 1 0 7.543 3.969 3.969 0 0 0 1.5.295 4.065 4.065 0 1 0 0-8.13z" fill="#bbbbcd"/><path d="m40.08 16.42v3.87h-2.4c-.26 0-.51.01-.76.02a15.229 15.229 0 0 0 -6.35 1.65 3.912 3.912 0 0 1 -1.86.46 4.065 4.065 0 1 1 0-8.13 4.024 4.024 0 0 1 1.86.45 15.092 15.092 0 0 0 6.35 1.66c.25.01.5.02.76.02z" fill="#dbd8dd"/><g fill="#323c6b"><path d="m28.71 22.92a4.565 4.565 0 1 1 0-9.13 4.5 4.5 0 0 1 2.09.506 14.506 14.506 0 0 0 6.143 1.6c.241.01.484.02.738.02h2.4a.5.5 0 0 1 .5.5v3.87a.5.5 0 0 1 -.5.5h-2.4c-.253 0-.5.01-.74.02a14.637 14.637 0 0 0 -6.141 1.594 4.388 4.388 0 0 1 -2.09.52zm0-8.13a3.565 3.565 0 1 0 0 7.13 3.4 3.4 0 0 0 1.624-.4 15.633 15.633 0 0 1 6.566-1.709c.259-.011.516-.021.783-.021h1.9v-2.87h-1.9c-.267 0-.524-.01-.781-.021a15.5 15.5 0 0 1 -6.562-1.716 3.506 3.506 0 0 0 -1.63-.393z"/><path d="m51.45 22.92a4.457 4.457 0 0 1 -2.1-.519 14.552 14.552 0 0 0 -6.145-1.591c-.243-.01-.486-.02-.729-.02h-2.4a.5.5 0 0 1 -.5-.5v-3.87a.5.5 0 0 1 .5-.5h2.4c.243 0 .486-.01.729-.02a14.562 14.562 0 0 0 6.148-1.6 4.566 4.566 0 1 1 2.097 8.62zm-10.87-3.13h1.9c.257 0 .514.01.771.021a15.557 15.557 0 0 1 6.572 1.707 3.459 3.459 0 0 0 1.628.4 3.565 3.565 0 1 0 -1.63-6.736 15.559 15.559 0 0 1 -6.571 1.718c-.257.011-.514.021-.771.021h-1.9z"/><path d="m71 57.04h-6.23a3.269 3.269 0 0 1 -3.26-3.27v-24.71a3.264 3.264 0 0 1 3.26-3.26h6.23a.5.5 0 0 1 .5.5v30.24a.5.5 0 0 1 -.5.5zm-6.23-30.24a2.263 2.263 0 0 0 -2.26 2.26v24.71a2.268 2.268 0 0 0 2.26 2.27h5.73v-29.24z"/><path d="m49.28 53.88h-18.4a3.269 3.269 0 0 1 -3.26-3.27v-18.39a3.268 3.268 0 0 1 3.26-3.27h18.4a3.273 3.273 0 0 1 3.27 3.27v18.39a3.273 3.273 0 0 1 -3.27 3.27zm-18.4-23.93a2.267 2.267 0 0 0 -2.26 2.27v18.39a2.268 2.268 0 0 0 2.26 2.27h18.4a2.272 2.272 0 0 0 2.27-2.27v-18.39a2.272 2.272 0 0 0 -2.27-2.27z"/><path d="m43.23 29.95h-6.31a.5.5 0 0 1 -.5-.5v-9.14a.5.5 0 0 1 .479-.5c.257-.011.514-.021.781-.021h4.8c.257 0 .514.01.771.021a.5.5 0 0 1 .479.5v9.14a.5.5 0 0 1 -.5.5zm-5.81-1h5.31v-8.157h-.25-4.8-.26z"/><path d="m42.48 16.92h-4.8c-.267 0-.524-.01-.781-.021a.5.5 0 0 1 -.479-.5v-1.869a3.655 3.655 0 1 1 7.31 0v1.87a.5.5 0 0 1 -.479.5c-.257.01-.514.02-.771.02zm-5.06-1.003h.26 4.8.25v-1.387a2.63 2.63 0 0 0 -.764-1.877 2.675 2.675 0 0 0 -4.546 1.877z"/></g><path d="m19.96 60.41a2.194 2.194 0 0 1 -2.2 2.2h-12.56a2.2 2.2 0 0 1 -2.2-2.2 2.22 2.22 0 0 1 2.2-2.2h.34v.01h12.11v-.01h.11a2.2 2.2 0 0 1 2.2 2.2z" fill="#dbd8dd"/><path d="m17.76 63.11h-12.56a2.692 2.692 0 0 1 -1.9-4.6 2.676 2.676 0 0 1 1.9-.8h.34a.5.5 0 0 1 .1.01h11.913a.485.485 0 0 1 .1-.01h.11a2.7 2.7 0 1 1 0 5.4zm-12.56-4.4a1.719 1.719 0 0 0 -1.7 1.7 1.7 1.7 0 0 0 1.7 1.7h12.56a1.7 1.7 0 1 0 0-3.4h-.013a.485.485 0 0 1 -.1.01h-12.107a.5.5 0 0 1 -.1-.01z" fill="#323c6b"/><path d="m5.54 58.22v-.01h-.34c-.033 0-.064.008-.1.01z" fill="#bbbbcd"/><path d="m17.76 58.21h-.11v.01h-2.791a2.2 2.2 0 0 1 -.1 4.39h3a2.2 2.2 0 1 0 0-4.4z" fill="#bbbbcd"/><path d="m17.65 58.72h-12.11a.5.5 0 0 1 -.5-.5.508.508 0 0 1 .5-.51h12.11a.5.5 0 0 1 .5.5v.01a.5.5 0 0 1 -.5.5z" fill="#323c6b"/><path d="m17.76 63.11h-12.56a2.692 2.692 0 0 1 -1.9-4.6 2.676 2.676 0 0 1 1.9-.8h.34a.5.5 0 0 1 .1.01h11.913a.485.485 0 0 1 .1-.01h.11a2.7 2.7 0 1 1 0 5.4zm-12.56-4.4a1.719 1.719 0 0 0 -1.7 1.7 1.7 1.7 0 0 0 1.7 1.7h12.56a1.7 1.7 0 1 0 0-3.4h-.013a.485.485 0 0 1 -.1.01h-12.107a.5.5 0 0 1 -.1-.01z" fill="#323c6b"/><path d="m31.653 41.415a.84.84 0 0 1 -.841-.841v-.025a.841.841 0 0 1 1.681 0v.025a.84.84 0 0 1 -.84.841z" fill="#f9f9f9"/><path d="m31.653 38.553a.84.84 0 0 1 -.841-.841v-4.7a.84.84 0 0 1 .841-.841h6.987a.841.841 0 0 1 0 1.681h-6.147v3.858a.84.84 0 0 1 -.84.843z" fill="#f9f9f9"/></svg>