<?xml version="1.0"?>
<svg xmlns="http://www.w3.org/2000/svg" id="line_color" data-name="line color" viewBox="0 0 74 74" width="512" height="512"><path d="M5.69,18.5a.5.5,0,0,1-.5-.5V15.41a15.772,15.772,0,0,1,3.1-9.421.5.5,0,0,1,.8.594,14.777,14.777,0,0,0-2.9,8.828V18A.5.5,0,0,1,5.69,18.5Z" fill="#323c6b"/><path d="M5.69,23.875a.5.5,0,0,1-.5-.5v-1.75a.5.5,0,0,1,1,0v1.75A.5.5,0,0,1,5.69,23.875Z" fill="#323c6b"/><path d="M36.67,33.19a7.282,7.282,0,0,0,2.93,5.83,7.342,7.342,0,0,0-2.59,5.61,7.422,7.422,0,0,0,4.49,6.81,7.3,7.3,0,0,0,2.92.6,7.4,7.4,0,0,0,5.36-2.29v8.84A12.415,12.415,0,0,1,37.37,71H21.1A12.415,12.415,0,0,1,8.69,58.59V15.41A12.415,12.415,0,0,1,21.1,3H37.37A12.415,12.415,0,0,1,49.78,15.41v5.41a7.274,7.274,0,0,0-2.95,5.66,7.256,7.256,0,0,0-2.85-.58,7.033,7.033,0,0,0-2.48.44A7.276,7.276,0,0,0,36.67,33.19Z" fill="#b1dcc1"/><path d="M37.37,71.5H21.1A12.925,12.925,0,0,1,8.19,58.59V15.41A12.925,12.925,0,0,1,21.1,2.5H37.37A12.925,12.925,0,0,1,50.28,15.41v5.662l-.2.15a6.742,6.742,0,0,0-2.748,5.271l-.019.738-.679-.292A6.788,6.788,0,0,0,39.9,38.62l.5.374-.475.406A6.893,6.893,0,0,0,41.7,50.981,6.914,6.914,0,0,0,49.419,49.4l.861-.9V58.59A12.925,12.925,0,0,1,37.37,71.5ZM21.1,3.5A11.924,11.924,0,0,0,9.19,15.41V58.59A11.924,11.924,0,0,0,21.1,70.5H37.37A11.924,11.924,0,0,0,49.28,58.59V50.875A7.9,7.9,0,0,1,38.836,39.045a7.795,7.795,0,0,1,7.542-13.268,7.727,7.727,0,0,1,2.9-5.2V15.41A11.924,11.924,0,0,0,37.37,3.5Z" fill="#323c6b"/><path d="M47.78,55.59A12.415,12.415,0,0,1,35.37,68H19.1a12.365,12.365,0,0,1-9.21-4.117A12.4,12.4,0,0,0,21.1,71H37.37A12.415,12.415,0,0,0,49.78,58.59V49.75a7.445,7.445,0,0,1-2,1.477Z" fill="#9dceb2"/><path d="M35.01,41.63A7.371,7.371,0,0,0,37.449,47.1,7.31,7.31,0,0,1,39.6,39.02a7.32,7.32,0,0,1-2.241-2.771A7.325,7.325,0,0,0,35.01,41.63Z" fill="#9dceb2"/><path d="M46.58,7.117a12.33,12.33,0,0,1,1.2,5.293v5.41a7.274,7.274,0,0,0-2.95,5.66,7.256,7.256,0,0,0-2.85-.58,7.033,7.033,0,0,0-2.48.44,7.259,7.259,0,0,0-2.415,12.247A7.244,7.244,0,0,1,41.5,26.34a7.033,7.033,0,0,1,2.48-.44,7.256,7.256,0,0,1,2.85.58,7.274,7.274,0,0,1,2.95-5.66V15.41A12.348,12.348,0,0,0,46.58,7.117Z" fill="#9dceb2"/><path d="M40,20.03a5.486,5.486,0,0,1-5.5-5.48,5.426,5.426,0,0,1,.66-2.6c-.67-.05-1.47-.08-1.8-.08H24.81A8.139,8.139,0,0,0,16.67,20V54a8.139,8.139,0,0,0,8.14,8.13h8.55A8.139,8.139,0,0,0,41.5,54V51.44a7.422,7.422,0,0,1-4.49-6.81,7.342,7.342,0,0,1,2.59-5.61,7.269,7.269,0,0,1,1.9-12.68V19.82A5.278,5.278,0,0,1,40,20.03Z" fill="#9dceb2"/><path d="M33.36,62.63H24.81A8.645,8.645,0,0,1,16.17,54V20a8.645,8.645,0,0,1,8.64-8.63h8.55c.363,0,1.188.033,1.838.082l.772.058-.371.68a4.936,4.936,0,0,0-.6,2.36,5,5,0,0,0,5,4.98,4.754,4.754,0,0,0,1.357-.189L42,19.149v7.544l-.333.118A6.769,6.769,0,0,0,39.9,38.62l.5.374-.475.406A6.893,6.893,0,0,0,41.7,50.981l.3.13V54A8.645,8.645,0,0,1,33.36,62.63ZM24.81,12.37A7.644,7.644,0,0,0,17.17,20V54a7.644,7.644,0,0,0,7.64,7.63h8.55A7.644,7.644,0,0,0,41,54V51.761a7.892,7.892,0,0,1-2.164-12.716A7.768,7.768,0,0,1,41,26V20.448A5.981,5.981,0,0,1,34.4,12.4c-.444-.022-.844-.034-1.04-.034Z" fill="#323c6b"/><path d="M45.48,14.55a5.46,5.46,0,0,1-3.98,5.27,5.278,5.278,0,0,1-1.5.21,5.486,5.486,0,0,1-5.5-5.48,5.49,5.49,0,1,1,10.98,0Z" fill="#eeefee"/><path d="M40,20.53a5.984,5.984,0,1,1,1.635-.229A5.727,5.727,0,0,1,40,20.53ZM40,9.55a4.99,4.99,0,1,0,0,9.98,4.754,4.754,0,0,0,1.357-.189A4.991,4.991,0,0,0,40,9.55Z" fill="#323c6b"/><path d="M40,9.05a5.467,5.467,0,0,0-4.84,2.9,5.4,5.4,0,0,0-.485,1.228,5.458,5.458,0,0,1,8.615,5.741A5.485,5.485,0,0,0,40,9.05Z" fill="#dbd8dd"/><path d="M63.744,10.252a3.175,3.175,0,1,1-3.18-3.18A3.176,3.176,0,0,1,63.744,10.252Z" fill="#eeefee"/><path d="M60.564,13.922a3.675,3.675,0,1,1,3.68-3.67A3.674,3.674,0,0,1,60.564,13.922Zm0-6.35a2.675,2.675,0,1,0,2.68,2.68A2.678,2.678,0,0,0,60.564,7.572Z" fill="#323c6b"/><path d="M60.564,7.072a3.165,3.165,0,0,0-3.137,2.845,3.144,3.144,0,0,1,2.137-.845,3.178,3.178,0,0,1,3.18,3.18,3.1,3.1,0,0,1-.033.325,3.165,3.165,0,0,0-2.147-5.5Z" fill="#dbd8dd"/><circle cx="58.717" cy="57.396" r="5.001" fill="#eeefee"/><path d="M58.717,62.9a5.5,5.5,0,1,1,5.5-5.5A5.507,5.507,0,0,1,58.717,62.9Zm0-10a4.5,4.5,0,1,0,4.5,4.5A4.507,4.507,0,0,0,58.717,52.895Z" fill="#323c6b"/><path d="M58.717,52.394a4.975,4.975,0,0,0-4.377,2.625,4.967,4.967,0,0,1,6.754,6.754,4.987,4.987,0,0,0-2.377-9.378Z" fill="#dbd8dd"/><path d="M67.582,37.5a.5.5,0,0,1-.465-.684c.1-.254.191-.513.271-.776a.5.5,0,1,1,.957.289q-.131.434-.3.854A.5.5,0,0,1,67.582,37.5Z" fill="#323c6b"/><path d="M68.31,33.69a.5.5,0,0,1-.5-.5,9.821,9.821,0,0,0-3.848-7.85.5.5,0,0,1-.188-.312l-.042-.23a.5.5,0,1,1,.982-.187l.01.056A10.814,10.814,0,0,1,68.81,33.19.5.5,0,0,1,68.31,33.69Z" fill="#323c6b"/><path d="M65.31,33.19a7.4,7.4,0,0,1-5.32,7.11,6.636,6.636,0,0,1-6.17,4.15,7.016,7.016,0,0,1-2-.3,3.849,3.849,0,0,1,.02.48A7.418,7.418,0,0,1,41.5,51.44a7.422,7.422,0,0,1-4.49-6.81,7.342,7.342,0,0,1,2.59-5.61,7.269,7.269,0,0,1,1.9-12.68,7.033,7.033,0,0,1,2.48-.44,7.256,7.256,0,0,1,2.85.58,7.291,7.291,0,0,1,14.58.18A7.363,7.363,0,0,1,65.31,33.19Z" fill="#eeefee"/><path d="M44.42,52.54A7.8,7.8,0,0,1,41.3,51.9a7.893,7.893,0,0,1-2.465-12.854,7.795,7.795,0,0,1,7.542-13.268,7.791,7.791,0,0,1,15.526.586A7.915,7.915,0,0,1,60.36,40.709,7.135,7.135,0,0,1,52.338,44.8,7.922,7.922,0,0,1,44.42,52.54ZM43.98,26.4a6.513,6.513,0,0,0-2.3.408A6.77,6.77,0,0,0,39.9,38.62l.5.374-.475.406A6.893,6.893,0,0,0,41.7,50.981,6.919,6.919,0,0,0,51.34,44.63a3.323,3.323,0,0,0-.016-.418l-.095-.759.733.217a6.162,6.162,0,0,0,7.565-3.558l.091-.225.233-.068A6.913,6.913,0,0,0,61.175,27.1l-.265-.141v-.3a6.791,6.791,0,0,0-13.58-.167l-.019.738-.679-.292A6.762,6.762,0,0,0,43.98,26.4Z" fill="#323c6b"/><path d="M43.878,25.909a7.2,7.2,0,0,0-1.369.155,7.092,7.092,0,0,1,1.32.416C43.835,26.287,43.859,26.1,43.878,25.909Z" fill="#dbd8dd"/><path d="M61.41,26.66a7.2,7.2,0,0,0-8.732-7.125A7.264,7.264,0,0,1,58.41,26.66,7.414,7.414,0,0,1,56.99,40.3a6.623,6.623,0,0,1-4.671,3.963,6.813,6.813,0,0,0,1.5.187,6.636,6.636,0,0,0,6.17-4.15,7.414,7.414,0,0,0,1.42-13.64Z" fill="#dbd8dd"/><path d="M50.82,44.45a7.016,7.016,0,0,1-2-.3,3.849,3.849,0,0,1,.02.48,7.421,7.421,0,0,1-5.926,7.257A7.434,7.434,0,0,0,49.78,49.75a7.348,7.348,0,0,0,2.06-5.12c0-.086-.008-.171-.011-.257A6.759,6.759,0,0,1,50.82,44.45Z" fill="#dbd8dd"/><path d="M58.717,62.9a5.5,5.5,0,1,1,5.5-5.5A5.507,5.507,0,0,1,58.717,62.9Zm0-10a4.5,4.5,0,1,0,4.5,4.5A4.507,4.507,0,0,0,58.717,52.895Z" fill="#323c6b"/><path d="M44.42,52.54A7.8,7.8,0,0,1,41.3,51.9a7.893,7.893,0,0,1-2.465-12.854,7.795,7.795,0,0,1,7.542-13.268,7.791,7.791,0,0,1,15.526.586A7.915,7.915,0,0,1,60.36,40.709,7.135,7.135,0,0,1,52.338,44.8,7.922,7.922,0,0,1,44.42,52.54ZM43.98,26.4a6.513,6.513,0,0,0-2.3.408A6.77,6.77,0,0,0,39.9,38.62l.5.374-.475.406A6.893,6.893,0,0,0,41.7,50.981,6.919,6.919,0,0,0,51.34,44.63a3.323,3.323,0,0,0-.016-.418l-.095-.759.733.217a6.162,6.162,0,0,0,7.565-3.558l.091-.225.233-.068A6.913,6.913,0,0,0,61.175,27.1l-.265-.141v-.3a6.791,6.791,0,0,0-13.58-.167l-.019.738-.679-.292A6.762,6.762,0,0,0,43.98,26.4Z" fill="#323c6b"/><path d="M60.564,13.922a3.675,3.675,0,1,1,3.68-3.67A3.674,3.674,0,0,1,60.564,13.922Zm0-6.35a2.675,2.675,0,1,0,2.68,2.68A2.678,2.678,0,0,0,60.564,7.572Z" fill="#323c6b"/><path d="M40,20.53a5.984,5.984,0,1,1,1.635-.229A5.727,5.727,0,0,1,40,20.53ZM40,9.55a4.99,4.99,0,1,0,0,9.98,4.754,4.754,0,0,0,1.357-.189A4.991,4.991,0,0,0,40,9.55Z" fill="#323c6b"/><path d="M37.37,71.5H21.1A12.925,12.925,0,0,1,8.19,58.59V15.41A12.925,12.925,0,0,1,21.1,2.5H37.37A12.925,12.925,0,0,1,50.28,15.41v5.662l-.2.15a6.742,6.742,0,0,0-2.748,5.271l-.019.738-.679-.292A6.788,6.788,0,0,0,39.9,38.62l.5.374-.475.406A6.893,6.893,0,0,0,41.7,50.981,6.914,6.914,0,0,0,49.419,49.4l.861-.9V58.59A12.925,12.925,0,0,1,37.37,71.5ZM21.1,3.5A11.924,11.924,0,0,0,9.19,15.41V58.59A11.924,11.924,0,0,0,21.1,70.5H37.37A11.924,11.924,0,0,0,49.28,58.59V50.875A7.9,7.9,0,0,1,38.836,39.045a7.795,7.795,0,0,1,7.542-13.268,7.727,7.727,0,0,1,2.9-5.2V15.41A11.924,11.924,0,0,0,37.37,3.5Z" fill="#323c6b"/><ellipse cx="25.838" cy="41.73" rx="3.395" ry="3.4" fill="#eeefee"/><path d="M25.84,45.63a3.9,3.9,0,1,1,3.89-3.9A3.9,3.9,0,0,1,25.84,45.63Zm0-6.8a2.9,2.9,0,1,0,2.89,2.9A2.9,2.9,0,0,0,25.84,38.83Z" fill="#323c6b"/><path d="M25.84,38.33a3.388,3.388,0,0,0-3.178,2.222,3.375,3.375,0,0,1,4.347,4.359A3.4,3.4,0,0,0,25.84,38.33Z" fill="#dbd8dd"/><path d="M25.84,45.63a3.9,3.9,0,1,1,3.89-3.9A3.9,3.9,0,0,1,25.84,45.63Zm0-6.8a2.9,2.9,0,1,0,2.89,2.9A2.9,2.9,0,0,0,25.84,38.83Z" fill="#323c6b"/></svg>
