<svg id="line_color" height="512" viewBox="0 0 74 74" width="512" xmlns="http://www.w3.org/2000/svg" data-name="line color"><path d="m70.86 32.86a3.107 3.107 0 0 1 -3.11 3.11h-61.5a3.1 3.1 0 1 1 0-6.21h61.5a3.1 3.1 0 0 1 3.11 3.1z" fill="#dbd8dd"/><path d="m67.75 36.47h-61.5a3.614 3.614 0 0 1 -3.61-3.61 3.608 3.608 0 0 1 3.61-3.6h61.5a3.6 3.6 0 1 1 0 7.21zm-61.5-6.21a2.6 2.6 0 1 0 0 5.21h61.5a2.6 2.6 0 1 0 0-5.21z" fill="#323c6b"/><path d="m67.75 29.76h-3a3.1 3.1 0 1 1 0 6.21h3a3.1 3.1 0 1 0 0-6.21z" fill="#bbbbcd"/><path d="m59.2 54.917a.5.5 0 0 1 -.231-.943q.571-.3 1.121-.631a.5.5 0 1 1 .518.855q-.576.349-1.176.663a.5.5 0 0 1 -.232.056z" fill="#323c6b"/><path d="m63.167 52.224a.5.5 0 0 1 -.326-.878 20.388 20.388 0 0 0 5.9-8.609.5.5 0 0 1 .943.334 21.39 21.39 0 0 1 -6.19 9.032.5.5 0 0 1 -.327.121z" fill="#323c6b"/><path d="m67.4 35.97a17.8 17.8 0 0 1 -17.8 17.8h-24.26a17.8 17.8 0 0 1 -16.96-12.39l-1.72-5.41z" fill="#eeefee"/><path d="m49.6 54.27h-24.26a18.253 18.253 0 0 1 -17.44-12.738l-1.72-5.411a.5.5 0 0 1 .477-.651h60.743a.5.5 0 0 1 .5.5 18.321 18.321 0 0 1 -18.3 18.3zm-42.256-17.8 1.513 4.759a17.254 17.254 0 0 0 16.483 12.041h24.26a17.321 17.321 0 0 0 17.294-16.8z" fill="#323c6b"/><path d="m63.4 35.97a17.8 17.8 0 0 1 -17.8 17.8h4a17.8 17.8 0 0 0 17.8-17.8z" fill="#dbd8dd"/><path d="m47.15 53.77-2.29 17.23h-15.66l-2.3-17.23z" fill="#dbd8dd"/><path d="m44.86 71.5h-15.66a.5.5 0 0 1 -.5-.434l-2.3-17.23a.5.5 0 0 1 .5-.566h20.25a.5.5 0 0 1 .5.566l-2.29 17.23a.5.5 0 0 1 -.5.434zm-15.223-1h14.786l2.156-16.23h-19.107z" fill="#323c6b"/><path d="m44.15 53.77-2.29 17.23h3l2.29-17.23z" fill="#bbbbcd"/><path d="m32.921 6.689a.492.492 0 0 1 -.222-.052.5.5 0 0 1 -.227-.67 11.686 11.686 0 0 1 4.618-4.952.5.5 0 1 1 .5.865 10.687 10.687 0 0 0 -4.221 4.531.5.5 0 0 1 -.448.278z" fill="#323c6b"/><path d="m31.967 9.451a.522.522 0 0 1 -.1-.01.5.5 0 0 1 -.388-.591c.055-.267.119-.53.192-.79a.5.5 0 0 1 .963.272q-.1.355-.177.72a.5.5 0 0 1 -.49.399z" fill="#323c6b"/><path d="m50.84 11.06v.49a1.842 1.842 0 0 1 -1.84 1.84h-.94a1.835 1.835 0 0 1 -1.84-1.84v-.35a3.52 3.52 0 0 0 -2.76-3.51 3.44 3.44 0 0 0 -4.12 3.37v18.7h-4.62v-18.42a8.236 8.236 0 0 1 7-8.27 8.073 8.073 0 0 1 9.12 7.99z" fill="#eeefee"/><path d="m39.34 30.26h-4.62a.5.5 0 0 1 -.5-.5v-18.42a8.721 8.721 0 0 1 7.437-8.766 8.573 8.573 0 0 1 9.683 8.486v.49a2.343 2.343 0 0 1 -2.34 2.34h-.94a2.343 2.343 0 0 1 -2.34-2.34v-.35a3.005 3.005 0 0 0 -2.353-3.019 2.94 2.94 0 0 0 -3.527 2.879v18.7a.5.5 0 0 1 -.5.5zm-4.12-1h3.62v-18.2a3.94 3.94 0 0 1 4.717-3.86 4 4 0 0 1 3.163 4v.35a1.341 1.341 0 0 0 1.34 1.34h.94a1.341 1.341 0 0 0 1.34-1.34v-.49a7.562 7.562 0 0 0 -2.572-5.673 7.483 7.483 0 0 0 -5.984-1.821 7.718 7.718 0 0 0 -6.564 7.774z" fill="#323c6b"/><path d="m41.742 3.068a8.069 8.069 0 0 1 7.1 7.992v.49a1.835 1.835 0 0 1 -1.314 1.75 1.833 1.833 0 0 0 .532.087h.94a1.842 1.842 0 0 0 1.84-1.84v-.49a8.072 8.072 0 0 0 -9.098-7.989z" fill="#dbd8dd"/><path d="m41.46 7.69a3.44 3.44 0 0 0 -4.12 3.37v18.7h2v-18.7a3.437 3.437 0 0 1 2.437-3.278 3.12 3.12 0 0 0 -.317-.092z" fill="#dbd8dd"/><path d="m53.53 21.54a3.828 3.828 0 0 1 -1.11 2.69 3.786 3.786 0 0 1 -2.69 1.11h-1.48l-.01 4.42h-3.79v-5.48a2.744 2.744 0 0 1 2.74-2.74z" fill="#eeefee"/><path d="m48.24 30.26h-3.79a.5.5 0 0 1 -.5-.5v-5.48a3.244 3.244 0 0 1 3.24-3.24h6.34a.5.5 0 0 1 .5.5 4.289 4.289 0 0 1 -4.3 4.3h-.981l-.009 3.921a.5.5 0 0 1 -.5.499zm-3.29-1h2.791l.009-3.921a.5.5 0 0 1 .5-.5h1.48a3.279 3.279 0 0 0 2.336-.963 3.323 3.323 0 0 0 .926-1.836h-5.8a2.243 2.243 0 0 0 -2.24 2.24z" fill="#323c6b"/><path d="m51.53 21.54a3.828 3.828 0 0 1 -1.11 2.69 3.786 3.786 0 0 1 -2.69 1.11h-1.48l-.01 4.42h2l.01-4.42h1.48a3.786 3.786 0 0 0 2.69-1.11 3.828 3.828 0 0 0 1.11-2.69z" fill="#dbd8dd"/><path d="m29.26 24.28v5.48h-3.8l-.01-4.42h-1.48a3.786 3.786 0 0 1 -2.69-1.11 3.828 3.828 0 0 1 -1.11-2.69h6.34a2.746 2.746 0 0 1 2.75 2.74z" fill="#eeefee"/><g fill="#323c6b"><path d="m29.26 30.26h-3.8a.5.5 0 0 1 -.5-.5l-.009-3.921h-.981a4.29 4.29 0 0 1 -4.3-4.3.5.5 0 0 1 .5-.5h6.34a3.249 3.249 0 0 1 3.25 3.24v5.481a.5.5 0 0 1 -.5.5zm-3.3-1h2.8v-4.98a2.248 2.248 0 0 0 -2.25-2.24h-5.8a3.323 3.323 0 0 0 .928 1.839 3.279 3.279 0 0 0 2.334.961h1.48a.5.5 0 0 1 .5.5z"/><path d="m48.24 30.26h-3.79a.5.5 0 0 1 -.5-.5v-5.48a3.244 3.244 0 0 1 3.24-3.24h6.34a.5.5 0 0 1 .5.5 4.289 4.289 0 0 1 -4.3 4.3h-.981l-.009 3.921a.5.5 0 0 1 -.5.499zm-3.29-1h2.791l.009-3.921a.5.5 0 0 1 .5-.5h1.48a3.279 3.279 0 0 0 2.336-.963 3.323 3.323 0 0 0 .926-1.836h-5.8a2.243 2.243 0 0 0 -2.24 2.24z"/><path d="m67.75 36.47h-61.5a3.614 3.614 0 0 1 -3.61-3.61 3.608 3.608 0 0 1 3.61-3.6h61.5a3.6 3.6 0 1 1 0 7.21zm-61.5-6.21a2.6 2.6 0 1 0 0 5.21h61.5a2.6 2.6 0 1 0 0-5.21z"/><path d="m49.6 54.27h-24.26a18.253 18.253 0 0 1 -17.44-12.738l-1.72-5.411a.5.5 0 0 1 .477-.651h60.743a.5.5 0 0 1 .5.5 18.321 18.321 0 0 1 -18.3 18.3zm-42.256-17.8 1.513 4.759a17.254 17.254 0 0 0 16.483 12.041h24.26a17.321 17.321 0 0 0 17.294-16.8z"/><path d="m44.86 71.5h-15.66a.5.5 0 0 1 -.5-.434l-2.3-17.23a.5.5 0 0 1 .5-.566h20.25a.5.5 0 0 1 .5.566l-2.29 17.23a.5.5 0 0 1 -.5.434zm-15.223-1h14.786l2.156-16.23h-19.107z"/><path d="m39.34 30.26h-4.62a.5.5 0 0 1 -.5-.5v-18.42a8.721 8.721 0 0 1 7.437-8.766 8.573 8.573 0 0 1 9.683 8.486v.49a2.343 2.343 0 0 1 -2.34 2.34h-.94a2.343 2.343 0 0 1 -2.34-2.34v-.35a3.005 3.005 0 0 0 -2.353-3.019 2.94 2.94 0 0 0 -3.527 2.879v18.7a.5.5 0 0 1 -.5.5zm-4.12-1h3.62v-18.2a3.94 3.94 0 0 1 4.717-3.86 4 4 0 0 1 3.163 4v.35a1.341 1.341 0 0 0 1.34 1.34h.94a1.341 1.341 0 0 0 1.34-1.34v-.49a7.562 7.562 0 0 0 -2.572-5.673 7.483 7.483 0 0 0 -5.984-1.821 7.718 7.718 0 0 0 -6.564 7.774z"/></g><path d="m12.433 39.695c-.019.012-.039.025-.058.039-.4.289-.654.644-.31 1.188.557.88-.008.005.566.874.309.467.793.4 1.2.114a.889.889 0 0 0 .173-1.246l-.449-.672a.82.82 0 0 0 -1.122-.297z" fill="#dbd8dd"/><path d="m14.9 43.288a.875.875 0 0 0 -.292.133 1.006 1.006 0 0 0 -.308 1.293c3.086 5.476 8.02 5.486 8.23 5.486.471-.006.944-.111 1.116-.6s-.026-1.245-.492-1.174c-.083.013-4.593.175-7.361-4.742a.794.794 0 0 0 -.893-.396z" fill="#dbd8dd"/></svg>