<svg id="line_color" height="512" viewBox="0 0 74 74" width="512" xmlns="http://www.w3.org/2000/svg" data-name="line color"><rect fill="#dbd8dd" height="5.36" rx="1" width="67.66" x="3.17" y="40.96"/><path d="m69.83 46.82h-65.66a1.5 1.5 0 0 1 -1.5-1.5v-3.36a1.5 1.5 0 0 1 1.5-1.5h65.66a1.5 1.5 0 0 1 1.5 1.5v3.36a1.5 1.5 0 0 1 -1.5 1.5zm-65.66-5.36a.5.5 0 0 0 -.5.5v3.36a.5.5 0 0 0 .5.5h65.66a.5.5 0 0 0 .5-.5v-3.36a.5.5 0 0 0 -.5-.5z" fill="#323c6b"/><path d="m69.83 40.96h-3a1 1 0 0 1 1 1v3.36a1 1 0 0 1 -1 1h3a1 1 0 0 0 1-1v-3.36a1 1 0 0 0 -1-1z" fill="#bbbbcd"/><path d="m57.751 66.1a.5.5 0 0 1 -.167-.971 20.017 20.017 0 0 0 8.694-6.078.5.5 0 1 1 .77.639 21.016 21.016 0 0 1 -9.13 6.382.5.5 0 0 1 -.167.028z" fill="#323c6b"/><path d="m68.832 56.7a.5.5 0 0 1 -.437-.743q.306-.552.577-1.125a.5.5 0 0 1 .9.428q-.286.6-.606 1.182a.5.5 0 0 1 -.434.258z" fill="#323c6b"/><path d="m68.38 46.32a17.447 17.447 0 0 1 -17.45 17.45h-27.86a17.447 17.447 0 0 1 -17.45-17.45z" fill="#eeefee"/><path d="m50.93 64.27h-27.86a17.971 17.971 0 0 1 -17.95-17.95.5.5 0 0 1 .5-.5h62.76a.5.5 0 0 1 .5.5 17.971 17.971 0 0 1 -17.95 17.95zm-44.803-17.45a16.971 16.971 0 0 0 16.943 16.45h27.86a16.971 16.971 0 0 0 16.943-16.45z" fill="#323c6b"/><path d="m65.38 46.32a17.447 17.447 0 0 1 -17.45 17.45h3a17.447 17.447 0 0 0 17.45-17.45z" fill="#dbd8dd"/><path d="m28.167 63.77h18.167v7.23h-18.167z" fill="#dbd8dd"/><path d="m46.333 71.5h-18.166a.5.5 0 0 1 -.5-.5v-7.23a.5.5 0 0 1 .5-.5h18.166a.5.5 0 0 1 .5.5v7.23a.5.5 0 0 1 -.5.5zm-17.666-1h17.166v-6.23h-17.166z" fill="#323c6b"/><path d="m43.333 63.77h3v7.23h-3z" fill="#bbbbcd"/><path d="m3.95 18.5a.5.5 0 0 1 -.5-.5v-11a.5.5 0 0 1 1 0v11a.5.5 0 0 1 -.5.5z" fill="#323c6b"/><path d="m3.95 22.645a.5.5 0 0 1 -.5-.5v-1.155a.5.5 0 0 1 1 0v1.155a.5.5 0 0 1 -.5.5z" fill="#323c6b"/><path d="m67.36 7v33.96h-4.96v-33h-50.49v33h-4.96v-33.96a4 4 0 0 1 4-4h52.41a4 4 0 0 1 4 4z" fill="#fed19a"/><path d="m67.36 41.46h-4.96a.5.5 0 0 1 -.5-.5v-32.5h-49.49v32.5a.5.5 0 0 1 -.5.5h-4.96a.5.5 0 0 1 -.5-.5v-33.96a4.5 4.5 0 0 1 4.5-4.5h52.41a4.5 4.5 0 0 1 4.5 4.5v33.96a.5.5 0 0 1 -.5.5zm-4.46-1h3.96v-33.46a3.5 3.5 0 0 0 -3.5-3.5h-52.41a3.5 3.5 0 0 0 -3.5 3.5v33.46h3.96v-32.5a.5.5 0 0 1 .5-.5h50.49a.5.5 0 0 1 .5.5z" fill="#323c6b"/><path d="m9.91 7.96h2v33h-2z" fill="#f4bb87"/><path d="m63.36 3h-2a4 4 0 0 1 4 4v33.96h2v-33.96a4 4 0 0 0 -4-4z" fill="#f4bb87"/><path d="m62.4 7.96v33h-4.27v-4.63h-9.56v4.63h-7.62v-6.94h-7.59v6.94h-7.62v-4.63h-9.57v4.63h-4.26v-33z" fill="#b6d2dd"/><path d="m62.4 41.46h-4.27a.5.5 0 0 1 -.5-.5v-4.13h-8.56v4.13a.5.5 0 0 1 -.5.5h-7.62a.5.5 0 0 1 -.5-.5v-6.44h-6.59v6.44a.5.5 0 0 1 -.5.5h-7.62a.5.5 0 0 1 -.5-.5v-4.13h-8.57v4.13a.5.5 0 0 1 -.5.5h-4.26a.5.5 0 0 1 -.5-.5v-33a.5.5 0 0 1 .5-.5h50.49a.5.5 0 0 1 .5.5v33a.5.5 0 0 1 -.5.5zm-3.771-1h3.271v-32h-49.49v32h3.26v-4.13a.5.5 0 0 1 .5-.5h9.57a.5.5 0 0 1 .5.5v4.13h6.62v-6.44a.5.5 0 0 1 .5-.5h7.59a.5.5 0 0 1 .5.5v6.44h6.62v-4.13a.5.5 0 0 1 .5-.5h9.56a.5.5 0 0 1 .5.5z" fill="#323c6b"/><path d="m16.17 36.33h9.57v4.63h-9.57z" fill="#eeefee"/><path d="m25.74 41.46h-9.57a.5.5 0 0 1 -.5-.5v-4.63a.5.5 0 0 1 .5-.5h9.57a.5.5 0 0 1 .5.5v4.63a.5.5 0 0 1 -.5.5zm-9.07-1h8.57v-3.63h-8.57z" fill="#323c6b"/><path d="m23.74 36.33h2v4.63h-2z" fill="#dbd8dd"/><path d="m48.57 36.33h9.56v4.63h-9.56z" fill="#eeefee"/><path d="m58.13 41.46h-9.56a.5.5 0 0 1 -.5-.5v-4.63a.5.5 0 0 1 .5-.5h9.56a.5.5 0 0 1 .5.5v4.63a.5.5 0 0 1 -.5.5zm-9.06-1h8.56v-3.63h-8.56z" fill="#323c6b"/><path d="m56.13 36.33h2v4.63h-2z" fill="#dbd8dd"/><path d="m58.13 41.46h-9.56a.5.5 0 0 1 -.5-.5v-4.63a.5.5 0 0 1 .5-.5h9.56a.5.5 0 0 1 .5.5v4.63a.5.5 0 0 1 -.5.5zm-9.06-1h8.56v-3.63h-8.56z" fill="#323c6b"/><path d="m25.74 41.46h-9.57a.5.5 0 0 1 -.5-.5v-4.63a.5.5 0 0 1 .5-.5h9.57a.5.5 0 0 1 .5.5v4.63a.5.5 0 0 1 -.5.5zm-9.07-1h8.57v-3.63h-8.57z" fill="#323c6b"/><path d="m33.36 34.02h7.59v6.94h-7.59z" fill="#eeefee"/><path d="m40.95 41.46h-7.59a.5.5 0 0 1 -.5-.5v-6.94a.5.5 0 0 1 .5-.5h7.59a.5.5 0 0 1 .5.5v6.94a.5.5 0 0 1 -.5.5zm-7.09-1h6.59v-5.94h-6.59z" fill="#323c6b"/><path d="m38.95 34.02h2v6.94h-2z" fill="#dbd8dd"/><g fill="#323c6b"><path d="m43.46 34.52h-2.51a.5.5 0 0 1 0-1h2.51a.5.5 0 0 1 0 1z"/><path d="m33.36 34.52h-2.51a.5.5 0 0 1 0-1h2.51a.5.5 0 0 1 0 1z"/><path d="m40.95 41.46h-7.59a.5.5 0 0 1 -.5-.5v-6.94a.5.5 0 0 1 .5-.5h7.59a.5.5 0 0 1 .5.5v6.94a.5.5 0 0 1 -.5.5zm-7.09-1h6.59v-5.94h-6.59z"/><path d="m67.36 41.46h-4.96a.5.5 0 0 1 -.5-.5v-32.5h-49.49v32.5a.5.5 0 0 1 -.5.5h-4.96a.5.5 0 0 1 -.5-.5v-33.96a4.5 4.5 0 0 1 4.5-4.5h52.41a4.5 4.5 0 0 1 4.5 4.5v33.96a.5.5 0 0 1 -.5.5zm-4.46-1h3.96v-33.46a3.5 3.5 0 0 0 -3.5-3.5h-52.41a3.5 3.5 0 0 0 -3.5 3.5v33.46h3.96v-32.5a.5.5 0 0 1 .5-.5h50.49a.5.5 0 0 1 .5.5z"/><path d="m69.83 46.82h-65.66a1.5 1.5 0 0 1 -1.5-1.5v-3.36a1.5 1.5 0 0 1 1.5-1.5h65.66a1.5 1.5 0 0 1 1.5 1.5v3.36a1.5 1.5 0 0 1 -1.5 1.5zm-65.66-5.36a.5.5 0 0 0 -.5.5v3.36a.5.5 0 0 0 .5.5h65.66a.5.5 0 0 0 .5-.5v-3.36a.5.5 0 0 0 -.5-.5z"/><path d="m50.93 64.27h-27.86a17.971 17.971 0 0 1 -17.95-17.95.5.5 0 0 1 .5-.5h62.76a.5.5 0 0 1 .5.5 17.971 17.971 0 0 1 -17.95 17.95zm-44.803-17.45a16.971 16.971 0 0 0 16.943 16.45h27.86a16.971 16.971 0 0 0 16.943-16.45z"/><path d="m46.333 71.5h-18.166a.5.5 0 0 1 -.5-.5v-7.23a.5.5 0 0 1 .5-.5h18.166a.5.5 0 0 1 .5.5v7.23a.5.5 0 0 1 -.5.5zm-17.666-1h17.166v-6.23h-17.166z"/></g><g fill="#eeefee" opacity=".5"><path d="m33.95 8.46-8.66 27.37h-1.92l8.66-27.37z"/><path d="m32.7 34.519-1.87 5.931h-.99l1.87-5.931z"/><path d="m40.95 8.46-7.93 25.06h-.99l7.93-25.06z"/><path d="m28.36 8.46-8.66 27.37h-1.91l8.66-27.37z"/></g><path d="m10 49.005c-.019.012-.039.025-.058.039-.4.289-.654.644-.31 1.188.557.88-.008.005.566.874.309.467.793.4 1.2.114a.889.889 0 0 0 .173-1.246l-.449-.672a.82.82 0 0 0 -1.122-.297z" fill="#dbd8dd"/><path d="m12.466 52.6a.875.875 0 0 0 -.292.133 1.006 1.006 0 0 0 -.308 1.293c3.082 5.476 8.016 5.486 8.227 5.484.471-.006.944-.111 1.116-.6s-.026-1.245-.492-1.174c-.083.013-4.593.175-7.361-4.742a.794.794 0 0 0 -.89-.394z" fill="#dbd8dd"/></svg>