<?xml version="1.0"?>
<svg xmlns="http://www.w3.org/2000/svg" id="line_color" data-name="line color" viewBox="0 0 74 74" width="512" height="512"><path d="M68.79,32.5a.5.5,0,0,1-.5-.5v-.833a.5.5,0,0,1,1,0V32A.5.5,0,0,1,68.79,32.5Z" fill="#323c6b"/><path d="M68.79,28.833a.5.5,0,0,1-.5-.5V17.25a.5.5,0,0,1,1,0V28.333A.5.5,0,0,1,68.79,28.833Z" fill="#323c6b"/><path d="M26.61,63.577a.5.5,0,0,1-.491-.6,10.566,10.566,0,0,0,.211-2.1v-.4l-6.08.02a.5.5,0,0,1,0-1h6.1a.97.97,0,0,1,.98.98v.4a11.539,11.539,0,0,1-.23,2.3A.5.5,0,0,1,26.61,63.577Z" fill="#323c6b"/><path d="M25.366,66.9a.492.492,0,0,1-.245-.064.5.5,0,0,1-.19-.681q.218-.386.4-.787a.5.5,0,1,1,.906.423q-.2.435-.439.855A.5.5,0,0,1,25.366,66.9Z" fill="#323c6b"/><path d="M65.79,15V50.75A6.246,6.246,0,0,1,59.54,57H50.27a3.483,3.483,0,0,0-3.48,3.48A14.187,14.187,0,0,0,51.45,71H25.6l.07-.07a14.18,14.18,0,0,0,4.16-10.05v-.4A3.476,3.476,0,0,0,26.35,57H16.06A10.273,10.273,0,0,1,5.79,46.73V41.78A3.287,3.287,0,0,0,6.96,42H40.21a4.579,4.579,0,0,0,4.58-4.58V9H59.8A6,6,0,0,1,65.79,15Z" fill="#eeefee"/><path d="M51.45,71.5H25.6a.5.5,0,0,1-.353-.855A13.828,13.828,0,0,0,29.33,60.88v-.4a2.984,2.984,0,0,0-2.98-2.98H16.06A10.782,10.782,0,0,1,5.29,46.73V41.78a.5.5,0,0,1,.677-.468,2.805,2.805,0,0,0,.993.188H40.21a4.084,4.084,0,0,0,4.08-4.08V9a.5.5,0,0,1,.5-.5H59.8A6.5,6.5,0,0,1,66.29,15V50.75a6.758,6.758,0,0,1-6.75,6.75H50.27a2.983,2.983,0,0,0-2.979,2.98,13.715,13.715,0,0,0,4.5,10.149.5.5,0,0,1-.336.871Zm-24.7-1H50.231A14.725,14.725,0,0,1,46.29,60.48,3.983,3.983,0,0,1,50.27,56.5H59.54a5.756,5.756,0,0,0,5.75-5.75V15A5.5,5.5,0,0,0,59.8,9.5H45.29V37.42a5.086,5.086,0,0,1-5.08,5.08H6.96a3.694,3.694,0,0,1-.67-.062V46.73a9.781,9.781,0,0,0,9.77,9.77H26.35a3.985,3.985,0,0,1,3.98,3.98v.4A14.806,14.806,0,0,1,26.753,70.5Z" fill="#323c6b"/><path d="M6.96,42a3.287,3.287,0,0,1-1.17-.22V42Z" fill="#dbd8dd"/><path d="M59.8,9h-3a6,6,0,0,1,5.99,6V50.75A6.246,6.246,0,0,1,56.54,57h3a6.246,6.246,0,0,0,6.25-6.25V15A6,6,0,0,0,59.8,9Z" fill="#dbd8dd"/><path d="M47.81,58.02A3.469,3.469,0,0,1,50.27,57h-3a3.483,3.483,0,0,0-3.48,3.48A14.187,14.187,0,0,0,48.45,71h3a14.187,14.187,0,0,1-4.66-10.52A3.469,3.469,0,0,1,47.81,58.02Z" fill="#dbd8dd"/><path d="M55.83,5.43V9H50.97V5.43a2.43,2.43,0,1,1,4.86,0Z" fill="#dbd8dd"/><path d="M55.83,9.5H50.97a.5.5,0,0,1-.5-.5V5.43a2.93,2.93,0,1,1,5.86,0V9A.5.5,0,0,1,55.83,9.5Zm-4.36-1h3.86V5.43a1.93,1.93,0,1,0-3.86,0Z" fill="#323c6b"/><path d="M55.12,3.71A2.416,2.416,0,0,0,52.4,3.22,2.4,2.4,0,0,1,53.83,5.43V9h2V5.43A2.426,2.426,0,0,0,55.12,3.71Z" fill="#bbbbcd"/><path d="M44.79,9V37.42A4.579,4.579,0,0,1,40.21,42H6.96a3.287,3.287,0,0,1-1.17-.22,2.975,2.975,0,0,1,1-5.78h32V9.17a3.119,3.119,0,0,1,2.78-3.16,2.954,2.954,0,0,1,2.34.87A2.993,2.993,0,0,1,44.79,9Z" fill="#dbd8dd"/><path d="M40.21,42.5H6.96a3.813,3.813,0,0,1-1.347-.252A3.494,3.494,0,0,1,3.3,39.257a3.563,3.563,0,0,1,1.013-2.728A3.478,3.478,0,0,1,6.79,35.5h31.5V9.17a3.6,3.6,0,0,1,3.246-3.659A3.5,3.5,0,0,1,45.29,9V37.42A5.086,5.086,0,0,1,40.21,42.5Zm-33.42-6a2.482,2.482,0,0,0-1.767.733,2.456,2.456,0,0,0,.944,4.08,2.806,2.806,0,0,0,.992.187H40.21a4.084,4.084,0,0,0,4.08-4.08V9a2.5,2.5,0,0,0-2.682-2.492A2.63,2.63,0,0,0,39.29,9.17V36a.5.5,0,0,1-.5.5Z" fill="#323c6b"/><path d="M43.91,6.88a2.945,2.945,0,0,0-2.12-.862v28.4A4.579,4.579,0,0,1,37.21,39H3.96c-.051,0-.1-.012-.15-.014,0,.079-.015.154-.01.234a3.017,3.017,0,0,0,1.99,2.56A3.287,3.287,0,0,0,6.96,42H40.21a4.579,4.579,0,0,0,4.58-4.58V9A2.993,2.993,0,0,0,43.91,6.88Z" fill="#bbbbcd"/><path d="M40.21,42.5H6.96a3.813,3.813,0,0,1-1.347-.252A3.494,3.494,0,0,1,3.3,39.257a3.563,3.563,0,0,1,1.013-2.728A3.478,3.478,0,0,1,6.79,35.5h31.5V9.17a3.6,3.6,0,0,1,3.246-3.659A3.5,3.5,0,0,1,45.29,9V37.42A5.086,5.086,0,0,1,40.21,42.5Zm-33.42-6a2.482,2.482,0,0,0-1.767.733,2.456,2.456,0,0,0,.944,4.08,2.806,2.806,0,0,0,.992.187H40.21a4.084,4.084,0,0,0,4.08-4.08V9a2.5,2.5,0,0,0-2.682-2.492A2.63,2.63,0,0,0,39.29,9.17V36a.5.5,0,0,1-.5.5Z" fill="#323c6b"/><path d="M25.6,71.5H3.21a.5.5,0,1,1,0-1H25.6a.5.5,0,1,1,0,1Z" fill="#323c6b"/><path d="M70.79,71.5H51.45a.5.5,0,0,1,0-1H70.79a.5.5,0,0,1,0,1Z" fill="#323c6b"/><path d="M51.45,71.5H25.6a.5.5,0,0,1-.353-.855A13.828,13.828,0,0,0,29.33,60.88v-.4a2.984,2.984,0,0,0-2.98-2.98H16.06A10.782,10.782,0,0,1,5.29,46.73V41.78a.5.5,0,0,1,.677-.468,2.805,2.805,0,0,0,.993.188H40.21a4.084,4.084,0,0,0,4.08-4.08V9a.5.5,0,0,1,.5-.5H59.8A6.5,6.5,0,0,1,66.29,15V50.75a6.758,6.758,0,0,1-6.75,6.75H50.27a2.983,2.983,0,0,0-2.979,2.98,13.715,13.715,0,0,0,4.5,10.149.5.5,0,0,1-.336.871Zm-24.7-1H50.231A14.725,14.725,0,0,1,46.29,60.48,3.983,3.983,0,0,1,50.27,56.5H59.54a5.756,5.756,0,0,0,5.75-5.75V15A5.5,5.5,0,0,0,59.8,9.5H45.29V37.42a5.086,5.086,0,0,1-5.08,5.08H6.96a3.694,3.694,0,0,1-.67-.062V46.73a9.781,9.781,0,0,0,9.77,9.77H26.35a3.985,3.985,0,0,1,3.98,3.98v.4A14.806,14.806,0,0,1,26.753,70.5Z" fill="#323c6b"/><path d="M55.83,9.5H50.97a.5.5,0,0,1-.5-.5V5.43a2.93,2.93,0,1,1,5.86,0V9A.5.5,0,0,1,55.83,9.5Zm-4.36-1h3.86V5.43a1.93,1.93,0,1,0-3.86,0Z" fill="#323c6b"/><path d="M9.029,45.954l-.058.02c-.4.16-.7.407-.522.945.283.87-.008,0,.292.867.161.465.589.513,1,.359a.781.781,0,0,0,.418-1.024l-.237-.67A.721.721,0,0,0,9.029,45.954Z" fill="#dbd8dd"/><path d="M10.652,49.215a.769.769,0,0,0-.257.117.884.884,0,0,0-.271,1.137c2.709,4.814,7.047,3.985,7.232,3.983.414-.005.83-.1.981-.528s-.022-1.094-.433-1.032c-.073.011-4.038.992-6.471-3.331A.7.7,0,0,0,10.652,49.215Z" fill="#dbd8dd"/></svg>
