<?xml version="1.0" encoding="iso-8859-1"?>
<!-- Generator: Adobe Illustrator 24.1.2, SVG Export Plug-In . SVG Version: 6.00 Build 0)  -->
<svg xmlns="http://www.w3.org/2000/svg" xmlns:xlink="http://www.w3.org/1999/xlink" version="1.1" id="line_color" x="0px" y="0px" viewBox="0 0 512 512" style="enable-background:new 0 0 512 512;" xml:space="preserve" width="512" height="512">
<g>
	<path style="fill:#323C6B;" d="M222.27,13.459h-8.213c-1.911,0-3.459-1.549-3.459-3.459s1.549-3.459,3.459-3.459h8.22   c1.911,0,3.459,1.549,3.459,3.459s-1.549,3.459-3.459,3.459C222.275,13.459,222.273,13.459,222.27,13.459z"/>
	<path style="fill:#323C6B;" d="M139.243,38.561c-1.85,0.002-3.374-1.452-3.459-3.3l-1.155-25.102   c-0.035-0.947,0.32-1.868,0.982-2.546c0.645-0.676,1.536-1.063,2.47-1.072h55.649c1.911,0,3.459,1.549,3.459,3.459   s-1.549,3.459-3.459,3.459h-52.03l0.996,21.449c0.086,1.906-1.387,3.522-3.293,3.612L139.243,38.561z"/>
	<path style="fill:#EEEFEE;" d="M352.173,30.757l-1.522,32.934H161.349l-1.522-32.934H352.173z"/>
	<path style="fill:#323C6B;" d="M350.651,67.15H161.349c-1.85,0.002-3.374-1.452-3.459-3.3l-1.522-32.934   c-0.088-1.909,1.388-3.527,3.297-3.615c0.054-0.002,0.109-0.004,0.163-0.004h192.346c1.911-0.002,3.461,1.545,3.463,3.456   c0,0.054-0.001,0.109-0.004,0.163l-1.529,32.934C354.018,65.695,352.498,67.149,350.651,67.15z M164.67,60.231H347.33l1.211-26.015   H163.446L164.67,60.231z"/>
	<path style="fill:#DBD8DD;" d="M331.063,30.757l-1.522,32.934h21.11l1.522-32.934H331.063z"/>
	<path style="fill:#323C6B;" d="M365.81,187.816h-0.152c-1.909-0.086-3.386-1.703-3.3-3.612c0,0,0,0,0,0l0.284-6.331   c-0.05-1.784,1.355-3.271,3.139-3.321c0.156-0.004,0.311,0.002,0.466,0.021c1.909,0.086,3.386,1.703,3.3,3.612c0,0,0,0,0,0   l-0.284,6.331C369.178,186.361,367.658,187.814,365.81,187.816z"/>
	<path style="fill:#323C6B;" d="M367.104,162.154h-0.152c-1.909-0.086-3.386-1.703-3.3-3.612c0,0,0,0,0,0l2.857-62.81   c0.021-1.849,1.538-3.331,3.387-3.31c0.073,0.001,0.145,0.004,0.218,0.01c1.909,0.086,3.386,1.703,3.3,3.612c0,0,0,0,0,0   l-2.857,62.81C370.472,160.699,368.951,162.152,367.104,162.154z"/>
	<path style="fill:#B6D2DD;" d="M350.651,63.691l-13.907,305.263H175.256L161.349,63.691L350.651,63.691z"/>
	<path style="fill:#323C6B;" d="M336.744,372.413H175.256c-1.85,0.002-3.374-1.452-3.459-3.3L157.89,63.85   c-0.088-1.909,1.388-3.527,3.297-3.615c0.054-0.002,0.109-0.004,0.163-0.004h189.302c1.911-0.002,3.461,1.545,3.463,3.456   c0,0.054-0.001,0.109-0.004,0.163l-13.914,305.242C340.122,370.946,338.599,372.411,336.744,372.413z M178.563,365.494h154.873   L347.025,67.15H164.975L178.563,365.494z"/>
	<path style="fill:#ACC6CC;" d="M329.085,63.691l-13.907,305.263h21.566l13.907-305.263L329.085,63.691z"/>
	<path style="fill:#EEEFEE;" d="M336.64,368.981l-36.055,58.326h-89.171l-36.054-58.326H336.64z"/>
	<path style="fill:#323C6B;" d="M300.579,430.767h-89.157c-1.2,0.002-2.316-0.619-2.947-1.64l-36.054-58.326   c-1.005-1.625-0.502-3.757,1.123-4.762c0.548-0.339,1.18-0.518,1.825-0.517h161.266c1.911-0.003,3.462,1.544,3.465,3.454   c0.001,0.645-0.178,1.277-0.517,1.825l-36.054,58.326C302.895,430.148,301.779,430.769,300.579,430.767z M213.345,423.848h85.31   l31.779-51.408H181.566L213.345,423.848z"/>
	<path style="fill:#DBD8DD;" d="M315.883,368.981l-29.191,58.326h13.893l36.054-58.326H315.883z"/>
	<path style="fill:#DBD8DD;" d="M300.752,427.308l-13.845,73.936h-61.606l-13.852-73.936H300.752z"/>
	<path style="fill:#323C6B;" d="M286.907,504.703h-61.578c-1.664-0.002-3.091-1.187-3.397-2.823l-13.838-73.936   c-0.352-1.878,0.886-3.685,2.764-4.037c0.209-0.039,0.421-0.059,0.633-0.059h89.268c1.911,0.002,3.458,1.552,3.456,3.463   c0,0.212-0.02,0.424-0.059,0.633l-13.838,73.936C290.011,503.52,288.576,504.708,286.907,504.703L286.907,504.703z    M228.172,497.784h55.863l12.551-67.017h-80.951L228.172,497.784z"/>
	<path style="fill:#BBBBCD;" d="M286.692,427.308l-13.845,73.936h14.059l13.845-73.936H286.692z"/>
	<path style="fill:#323C6B;" d="M265.742,504.703h-0.249c-1.906-0.133-3.343-1.786-3.211-3.692c0-0.001,0-0.002,0-0.003   l5.155-73.936c0.108-1.885,1.724-3.325,3.608-3.216c0.029,0.002,0.058,0.004,0.086,0.006c1.906,0.133,3.343,1.786,3.211,3.692   c0,0.001,0,0.002,0,0.003l-5.155,73.936C269.057,503.3,267.554,504.7,265.742,504.703z"/>
	<path style="fill:#323C6B;" d="M246.466,504.703c-1.82,0.004-3.332-1.402-3.459-3.217l-5.155-73.936   c-0.132-1.911,1.31-3.566,3.221-3.698c1.911-0.132,3.566,1.31,3.698,3.221l5.155,73.936c0.135,1.906-1.301,3.56-3.207,3.694   c-0.001,0-0.002,0-0.003,0H246.466z"/>
	<path style="fill:#EEEFEE;" d="M298.143,214.855l-0.035,0.048c-3.851,5.296-6.538,11.346-7.888,17.754l-4.843,23.054   c-1.212,5.551-6.695,9.069-12.247,7.856c-2.994-0.654-5.54-2.608-6.946-5.331L256,238.359l-10.205,19.878   c-2.592,5.035-8.775,7.015-13.81,4.423c-2.734-1.408-4.693-3.969-5.335-6.976l-4.892-23.012   c-1.365-6.432-4.069-12.505-7.936-17.823c-7.274-9.972-7.507-23.437-0.581-33.654c5.647-8.378,15.034-13.466,25.136-13.623   c3.678-0.012,7.32,0.725,10.704,2.166c2.66,1.038,5.033,2.699,6.919,4.843c1.871-2.161,4.248-3.825,6.919-4.843   c3.376-1.435,7.008-2.169,10.676-2.159c10.102,0.157,19.49,5.245,25.136,13.623C305.655,191.42,305.42,204.885,298.143,214.855   L298.143,214.855z"/>
	<g>
		<path style="fill:#323C6B;" d="M236.765,267.273c-0.627,0-1.253-0.042-1.875-0.125c-5.77-0.722-10.438-5.041-11.603-10.738    l-4.885-23.012c-1.263-5.967-3.777-11.598-7.376-16.522c-8.106-11.157-8.366-26.194-0.65-37.625    c8.828-12.982,25.395-18.232,40.088-12.703c1.977,0.828,3.838,1.909,5.535,3.217c1.695-1.31,3.556-2.39,5.535-3.21    c14.674-5.505,31.209-0.263,40.033,12.689c7.731,11.422,7.494,26.46-0.595,37.632c-3.584,4.904-6.082,10.515-7.327,16.46    l-4.843,23.054c-1.605,7.421-8.922,12.137-16.343,10.532c-4.014-0.868-7.43-3.485-9.312-7.135L256,245.935l-7.113,13.838    C246.595,264.369,241.901,267.273,236.765,267.273L236.765,267.273z M238.405,171.038c-8.957,0.173-17.27,4.692-22.286,12.115    c-6.084,9.012-5.877,20.868,0.519,29.661c4.159,5.71,7.064,12.234,8.524,19.145l4.885,23.012c0.782,3.67,4.391,6.012,8.061,5.23    c1.996-0.425,3.696-1.726,4.628-3.541l10.198-19.878c0.59-1.151,1.772-1.877,3.065-1.882c1.296,0.003,2.481,0.729,3.072,1.882    l10.15,19.878c1.736,3.349,5.857,4.656,9.205,2.921c1.797-0.931,3.088-2.612,3.525-4.588l4.843-23.047    c1.441-6.891,4.332-13.396,8.483-19.082v-0.055c6.396-8.799,6.601-20.661,0.512-29.675c-6.922-10.277-19.969-14.497-31.599-10.219    c-2.128,0.797-4.029,2.104-5.535,3.805c-0.651,0.82-1.638,1.3-2.685,1.308c-1.076,0.171-2.147-0.331-2.705-1.266    c-1.542-1.709-3.467-3.028-5.618-3.847C244.724,171.676,241.581,171.039,238.405,171.038L238.405,171.038z"/>
		<path style="fill:#323C6B;" d="M336.744,372.413H175.256c-1.85,0.002-3.374-1.452-3.459-3.3L157.89,63.85    c-0.088-1.909,1.388-3.527,3.297-3.615c0.054-0.002,0.109-0.004,0.163-0.004h189.302c1.911-0.002,3.461,1.545,3.463,3.456    c0,0.054-0.001,0.109-0.004,0.163l-13.914,305.242C340.122,370.946,338.599,372.411,336.744,372.413z M178.563,365.494h154.873    L347.025,67.15H164.975L178.563,365.494z"/>
		<path style="fill:#323C6B;" d="M350.651,67.15H161.349c-1.85,0.002-3.374-1.452-3.459-3.3l-1.522-32.934    c-0.088-1.909,1.388-3.527,3.297-3.615c0.054-0.002,0.109-0.004,0.163-0.004h192.346c1.911-0.002,3.461,1.545,3.463,3.456    c0,0.054-0.001,0.109-0.004,0.163l-1.529,32.934C354.018,65.695,352.498,67.149,350.651,67.15z M164.67,60.231H347.33    l1.211-26.015H163.446L164.67,60.231z"/>
		<path style="fill:#323C6B;" d="M300.579,430.767h-89.157c-1.2,0.002-2.316-0.619-2.947-1.64l-36.054-58.326    c-1.005-1.625-0.502-3.757,1.123-4.762c0.548-0.339,1.18-0.518,1.825-0.517h161.266c1.911-0.003,3.462,1.544,3.465,3.454    c0.001,0.645-0.178,1.277-0.517,1.825l-36.054,58.326C302.895,430.148,301.779,430.769,300.579,430.767z M213.345,423.848h85.31    l31.779-51.408H181.566L213.345,423.848z"/>
		<path style="fill:#323C6B;" d="M286.907,504.703h-61.578c-1.664-0.002-3.091-1.187-3.397-2.823l-13.838-73.936    c-0.352-1.878,0.886-3.685,2.764-4.037c0.209-0.039,0.421-0.059,0.633-0.059h89.268c1.911,0.002,3.458,1.552,3.456,3.463    c0,0.212-0.02,0.424-0.059,0.633l-13.838,73.936C290.011,503.52,288.576,504.708,286.907,504.703L286.907,504.703z     M228.172,497.784h55.863l12.551-67.017h-80.951L228.172,497.784z"/>
	</g>
	<g style="opacity:0.78;">
		<path style="fill:#FFFFFF;" d="M179.982,157.297l-3.01-56.735c-0.15-2.443,1.708-4.546,4.151-4.698    c2.461-0.142,4.574,1.733,4.726,4.193l3.01,56.735c0.223,2.363-1.512,4.458-3.874,4.681c-0.042,0.004-0.083,0.007-0.125,0.01    C182.371,161.632,180.213,159.779,179.982,157.297L179.982,157.297z"/>
		<path style="fill:#FFFFFF;" d="M176.149,85.043l-0.125-2.38c-0.18-2.412,1.629-4.514,4.041-4.694    c0.021-0.002,0.041-0.003,0.062-0.004c2.471-0.147,4.603,1.717,4.788,4.186l0.125,2.38c0.102,2.474-1.803,4.571-4.276,4.705    c-2.419,0.128-4.484-1.729-4.613-4.148C176.15,85.072,176.149,85.058,176.149,85.043z"/>
	</g>
</g>
</svg>
