<?xml version="1.0" encoding="iso-8859-1"?>
<!-- Generator: Adobe Illustrator 24.1.2, SVG Export Plug-In . SVG Version: 6.00 Build 0)  -->
<svg xmlns="http://www.w3.org/2000/svg" xmlns:xlink="http://www.w3.org/1999/xlink" version="1.1" id="line_color" x="0px" y="0px" viewBox="0 0 512 512" style="enable-background:new 0 0 512 512;" xml:space="preserve" width="512" height="512">
<g>
	<path style="fill:#323C6B;" d="M324.034,506.459h-10.953c-1.911,0-3.459-1.549-3.459-3.459c0-1.911,1.549-3.459,3.459-3.459h10.953   c1.911,0,3.459,1.549,3.459,3.459C327.493,504.911,325.944,506.459,324.034,506.459z"/>
	<path style="fill:#323C6B;" d="M347.676,506.459c-1.911,0-3.459-1.549-3.459-3.459c0-1.911,1.549-3.459,3.459-3.459   c17.035-0.019,30.839-13.824,30.858-30.858v-25.648c0-1.911,1.549-3.459,3.459-3.459c1.911,0,3.459,1.549,3.459,3.459v25.648   C385.43,489.537,368.53,506.437,347.676,506.459z"/>
	<path style="fill:#B1DCC1;" d="M361.237,177.742v290.941c0.011,7.478-6.041,13.55-13.52,13.561c-0.014,0-0.028,0-0.042,0H164.324   c-7.478,0.011-13.55-6.041-13.561-13.52c0-0.014,0-0.028,0-0.042v-79.844h116.722V225.067H150.763v-47.325   c-0.05-24.181,17.132-44.968,40.891-49.47c3.099-0.614,6.251-0.915,9.41-0.899h109.872c3.159-0.016,6.311,0.285,9.41,0.899h0.069   C344.121,132.845,361.246,153.599,361.237,177.742L361.237,177.742z"/>
	<path style="fill:#323C6B;" d="M347.676,485.703H164.324c-9.395-0.011-17.009-7.625-17.021-17.021v-79.844   c0-1.911,1.549-3.459,3.459-3.459h113.263V228.527H150.763c-1.911,0-3.459-1.549-3.459-3.459v-47.325   c-0.046-25.846,18.32-48.061,43.714-52.874c3.308-0.653,6.674-0.973,10.046-0.955h109.872c3.316-0.015,6.625,0.296,9.88,0.927   h0.249c25.349,4.888,43.656,27.086,43.631,52.902v290.941C364.685,478.078,357.071,485.691,347.676,485.703L347.676,485.703z    M154.223,392.297v76.385c0.004,5.577,4.524,10.098,10.102,10.102h183.351c5.577-0.004,10.098-4.524,10.102-10.102V177.742   c0.012-22.484-15.935-41.814-38.013-46.073c-2.908-0.568-5.865-0.848-8.829-0.837H201.064c-2.926-0.014-5.847,0.264-8.718,0.83   c-22.144,4.183-38.165,23.551-38.123,46.087v43.866h113.263c1.911,0,3.459,1.549,3.459,3.459v163.764   c0,1.911-1.549,3.459-3.459,3.459H154.223z"/>
	<path style="fill:#323C6B;" d="M130.007,312.73c-1.911,0-3.459-1.549-3.459-3.459v-57.372c0-1.911,1.549-3.459,3.459-3.459   c1.911,0,3.459,1.549,3.459,3.459v57.372C133.466,311.181,131.917,312.73,130.007,312.73z"/>
	<path style="fill:#323C6B;" d="M130.007,335.507c-1.911,0-3.459-1.549-3.459-3.459v-4.899c0-1.911,1.549-3.459,3.459-3.459   c1.911,0,3.459,1.549,3.459,3.459v4.899C133.466,333.958,131.917,335.507,130.007,335.507z"/>
	<path style="fill:#EEEFEE;" d="M150.763,225.067h116.722v163.771H150.763V225.067z"/>
	<path style="fill:#323C6B;" d="M267.485,392.297H150.763c-1.911,0-3.459-1.549-3.459-3.459V225.067   c0-1.911,1.549-3.459,3.459-3.459h116.722c1.911,0,3.459,1.549,3.459,3.459v163.771   C270.945,390.748,269.396,392.297,267.485,392.297z M154.223,385.378h109.803V228.527H154.223L154.223,385.378z"/>
	<path style="fill:#EEEFEE;" d="M320.415,97.413v30.858h-0.069c-3.099-0.614-6.251-0.915-9.41-0.899H201.064   c-3.159-0.016-6.311,0.285-9.41,0.899V97.413c-0.008-3.508,2.83-6.358,6.338-6.365c0.009,0,0.018,0,0.028,0h116.03   C317.559,91.063,320.4,93.904,320.415,97.413L320.415,97.413z"/>
	<path style="fill:#323C6B;" d="M191.654,131.731c-1.911,0-3.459-1.549-3.459-3.459V97.413c0.008-5.423,4.402-9.817,9.825-9.825   h116.03c5.423,0.008,9.817,4.402,9.825,9.825v30.858c-0.057,1.963-1.695,3.509-3.658,3.452c-0.189-0.005-0.377-0.026-0.563-0.061   c-2.871-0.566-5.792-0.845-8.718-0.83H201.064c-2.926-0.014-5.847,0.264-8.718,0.83   C192.118,131.708,191.886,131.731,191.654,131.731L191.654,131.731z M201.064,123.912h109.872c2.011-0.003,4.021,0.106,6.019,0.325   V97.413c-0.022-1.596-1.31-2.884-2.906-2.906h-116.03c-1.59-0.015-2.891,1.261-2.906,2.85c0,0.019,0,0.037,0,0.056v26.818   C197.09,124.015,199.076,123.909,201.064,123.912L201.064,123.912z"/>
	<path style="fill:#EEEFEE;" d="M231.784,11.757h48.502v56.943h-48.502V11.757z"/>
	<path style="fill:#323C6B;" d="M280.285,72.159h-48.502c-1.911,0-3.459-1.549-3.459-3.459V11.757c0-1.911,1.549-3.459,3.459-3.459   h48.502c1.911,0,3.459,1.549,3.459,3.459v56.943C283.745,70.61,282.196,72.159,280.285,72.159L280.285,72.159z M235.243,65.24   h41.583V15.216h-41.583V65.24z"/>
	<path style="fill:#BBBBCD;" d="M244.515,68.699h22.971v22.348h-22.971V68.699z"/>
	<g>
		<path style="fill:#323C6B;" d="M267.485,94.507h-22.971c-1.911,0-3.459-1.549-3.459-3.459V68.699c0-1.911,1.549-3.459,3.459-3.459    h22.971c1.911,0,3.459,1.549,3.459,3.459v22.348C270.945,92.958,269.396,94.507,267.485,94.507z M247.974,87.588h16.052V72.159    h-16.052V87.588z"/>
		<path style="fill:#323C6B;" d="M307.255,28.231c-1.911,0.004-3.463-1.542-3.466-3.453c-0.002-1.195,0.612-2.307,1.626-2.941    l18.301-11.465c1.62-1.015,3.756-0.524,4.771,1.097s0.524,3.756-1.097,4.771l-18.301,11.465    C308.539,28.048,307.904,28.231,307.255,28.231z"/>
		<path style="fill:#323C6B;" d="M325.549,70.609c-0.648,0-1.284-0.182-1.834-0.526l-18.301-11.465    c-1.62-1.015-2.111-3.15-1.097-4.771c1.014-1.62,3.15-2.111,4.771-1.097l18.301,11.465c1.62,1.013,2.113,3.147,1.1,4.767    C327.856,69.997,326.744,70.611,325.549,70.609z"/>
		<path style="fill:#323C6B;" d="M345.053,43.729l-20.757-0.069c-1.911,0-3.459-1.549-3.459-3.459c0-1.911,1.549-3.459,3.459-3.459    l20.757,0.069c1.911,0,3.459,1.549,3.459,3.459C348.513,42.18,346.964,43.729,345.053,43.729z"/>
		<path style="fill:#323C6B;" d="M287.682,43.653h-7.403c-1.911,0-3.459-1.549-3.459-3.459c0-1.911,1.549-3.459,3.459-3.459h7.403    c1.911,0,3.459,1.549,3.459,3.459C291.141,42.104,289.592,43.653,287.682,43.653z"/>
	</g>
	<g style="opacity:0.78;">
		<path style="fill:#FFFFFF;" d="M333.596,281.747V209.79c-0.023-3.107,2.477-5.644,5.583-5.667c0.005,0,0.009,0,0.014,0    c3.123-0.012,5.668,2.503,5.694,5.625v71.957c0.122,3.005-2.214,5.54-5.219,5.662c-0.055,0.002-0.109,0.004-0.164,0.004    C336.339,287.401,333.723,284.91,333.596,281.747L333.596,281.747z"/>
		<path style="fill:#FFFFFF;" d="M333.596,185.906v-3.024c-0.073-3.056,2.346-5.592,5.402-5.665    c0.044-0.001,0.089-0.002,0.133-0.002c3.142-0.023,5.72,2.483,5.784,5.625v3.024c-0.038,3.138-2.591,5.663-5.729,5.667    c-3.057,0.031-5.56-2.422-5.591-5.479C333.595,186.003,333.595,185.955,333.596,185.906z"/>
	</g>
</g>
</svg>
