<?xml version="1.0" encoding="iso-8859-1"?>
<!-- Generator: Adobe Illustrator 24.1.2, SVG Export Plug-In . SVG Version: 6.00 Build 0)  -->
<svg xmlns="http://www.w3.org/2000/svg" xmlns:xlink="http://www.w3.org/1999/xlink" version="1.1" id="line_color" x="0px" y="0px" viewBox="0 0 512 512" style="enable-background:new 0 0 512 512;" xml:space="preserve" width="512" height="512">
<g>
	<path style="fill:#323C6B;" d="M503,103.784c-1.911,0-3.459-1.549-3.459-3.459v-27.24h-45.928c-1.911,0-3.459-1.549-3.459-3.459   c0-1.911,1.549-3.459,3.459-3.459H503c1.911,0,3.459,1.549,3.459,3.459v30.699C506.459,102.235,504.911,103.784,503,103.784z"/>
	<path style="fill:#323C6B;" d="M433.237,73.085h-6.919c-1.911,0-3.459-1.549-3.459-3.459c0-1.911,1.549-3.459,3.459-3.459h6.919   c1.911,0,3.459,1.549,3.459,3.459C436.696,71.536,435.147,73.085,433.237,73.085z"/>
	<path style="fill:#323C6B;" d="M226.243,445.834H148.98c-1.911,0-3.459-1.549-3.459-3.459s1.549-3.459,3.459-3.459h77.264   c1.911,0,3.459,1.549,3.459,3.459S228.154,445.834,226.243,445.834z"/>
	<path style="fill:#323C6B;" d="M253.345,445.834h-5.916c-1.911,0-3.459-1.549-3.459-3.459s1.549-3.459,3.459-3.459h5.916   c1.911,0,3.459,1.549,3.459,3.459S255.255,445.834,253.345,445.834z"/>
	<path style="fill:#DBD8DD;" d="M11.757,90.382h470.487v35.695l-21.905,8.656c-11.846,4.678-17.656,18.074-12.978,29.919   c3.48,8.811,11.994,14.598,21.467,14.59h13.416v153.531h-13.409c-12.732-0.031-23.079,10.266-23.109,22.998   c-0.023,9.497,5.781,18.036,14.62,21.511l21.898,8.642v35.695H11.757v-35.695l21.905-8.656   c11.846-4.678,17.656-18.074,12.978-29.919c-3.48-8.811-11.994-14.598-21.467-14.59H11.757V179.235h13.409   c12.732,0.031,23.079-10.266,23.109-22.998c0.023-9.497-5.781-18.036-14.62-21.511l-21.898-8.649V90.382z"/>
	<path style="fill:#323C6B;" d="M482.243,425.078H11.757c-1.911,0-3.459-1.549-3.459-3.459v-35.695c0-1.419,0.867-2.695,2.186-3.217   l21.905-8.656c10.069-3.976,15.008-15.362,11.032-25.431c-2.958-7.49-10.196-12.409-18.249-12.402H11.757   c-1.911,0-3.459-1.549-3.459-3.459V179.235c0-1.911,1.549-3.459,3.459-3.459h13.409c10.822,0.026,19.615-8.726,19.641-19.547   c0.019-8.074-4.916-15.334-12.432-18.285l-21.891-8.649c-1.32-0.522-2.187-1.798-2.186-3.217V90.382   c0-1.911,1.549-3.459,3.459-3.459h470.487c1.911,0,3.459,1.549,3.459,3.459v35.695c0,1.419-0.867,2.695-2.186,3.217l-21.905,8.656   c-10.069,3.976-15.008,15.362-11.032,25.431c2.958,7.49,10.196,12.409,18.249,12.402h13.416c1.911,0,3.459,1.549,3.459,3.459   v153.524c0,1.911-1.549,3.459-3.459,3.459h-13.409c-10.822-0.026-19.615,8.726-19.641,19.547   c-0.019,8.074,4.916,15.334,12.432,18.285l21.891,8.649c1.32,0.522,2.187,1.798,2.186,3.217v35.695   C485.703,423.529,484.154,425.078,482.243,425.078z M15.216,418.159h463.568v-29.883l-19.712-7.791   c-13.63-5.361-20.334-20.757-14.973-34.387c3.997-10.163,13.815-16.836,24.735-16.813h9.949V182.694h-9.949   c-14.643,0.055-26.558-11.771-26.612-26.414c-0.041-10.947,6.65-20.794,16.843-24.786l19.719-7.77V93.841H15.216v29.883   l19.712,7.791c13.63,5.361,20.334,20.757,14.973,34.387c-3.997,10.163-13.815,16.836-24.735,16.813h-9.949v146.591h9.949   c14.643-0.055,26.558,11.771,26.612,26.414c0.041,10.947-6.65,20.794-16.843,24.786l-19.719,7.77V418.159z"/>
	<path style="fill:#BBBBCD;" d="M460.338,134.725l21.905-8.649V90.382h-20.757v35.695l-21.905,8.656   c-11.846,4.678-17.656,18.074-12.978,29.919c3.48,8.811,11.994,14.598,21.467,14.59h13.416v153.531h-13.409   c-12.732-0.031-23.079,10.266-23.109,22.998c-0.023,9.497,5.781,18.036,14.62,21.511l21.898,8.642v35.695h20.757v-35.695   l-21.905-8.656c-11.846-4.678-17.656-18.074-12.978-29.919c3.48-8.811,11.994-14.598,21.467-14.59h13.416V179.235h-13.409   c-12.732,0.031-23.079-10.266-23.109-22.998c-0.023-9.497,5.781-18.036,14.62-21.511H460.338z"/>
	<path style="fill:#323C6B;" d="M414.645,146.342H79.355c-1.911,0-3.459-1.549-3.459-3.459c0-1.911,1.549-3.459,3.459-3.459h335.291   c1.911,0,3.459,1.549,3.459,3.459C418.105,144.793,416.556,146.342,414.645,146.342z"/>
	<path style="fill:#323C6B;" d="M414.645,372.577H79.355c-1.911,0-3.459-1.549-3.459-3.459c0-1.911,1.549-3.459,3.459-3.459h335.291   c1.911,0,3.459,1.549,3.459,3.459C418.105,371.028,416.556,372.577,414.645,372.577z"/>
	<path style="fill:#FFFFFF;" d="M315.262,237.54h45.035v-4.269c0-10.214,8.28-18.494,18.494-18.494   c10.214,0,18.494,8.28,18.494,18.494v4.269h14.211c10.184,0,18.439,8.255,18.439,18.439s-8.255,18.439-18.439,18.439h-14.211v7.459   c0,10.214-8.28,18.494-18.494,18.494c-10.214,0-18.494-8.28-18.494-18.494v-7.459h-44.973   c-10.212,37.484-48.877,59.593-86.361,49.381c-24.046-6.551-42.83-25.335-49.381-49.381h-44.973v7.459   c0,10.214-8.28,18.494-18.494,18.494s-18.494-8.28-18.494-18.494v-7.459h-14.26c-10.184,0.009-18.446-8.24-18.455-18.423   c-0.009-10.184,8.24-18.446,18.423-18.455c0.01,0,0.021,0,0.031,0h14.191v-4.269c0-10.214,8.28-18.494,18.494-18.494   s18.494,8.28,18.494,18.494v4.269h45.077c10.185-37.448,48.799-59.549,86.247-49.364c24.043,6.539,42.825,25.321,49.364,49.364   H315.262z"/>
	<path style="fill:#323C6B;" d="M247.443,329.742c-32.307-0.046-60.845-21.057-70.483-51.892h-38.947v3.999   c0,12.125-9.829,21.954-21.954,21.954s-21.954-9.829-21.954-21.954v-3.999H83.361c-12.094,0.009-21.906-9.788-21.915-21.882   c-0.009-12.094,9.788-21.906,21.882-21.915c0.011,0,0.022,0,0.033,0h10.731v-0.81c0-12.125,9.829-21.954,21.954-21.954   s21.954,9.829,21.954,21.954v0.81h39.016c12.071-38.888,53.382-60.628,92.27-48.557c23.196,7.2,41.357,25.362,48.557,48.557h38.981   v-0.81c0-12.125,9.829-21.954,21.954-21.954c12.125,0,21.954,9.829,21.954,21.954v0.81h10.752c12.094,0,21.898,9.804,21.898,21.898   s-9.804,21.898-21.898,21.898h-10.738v3.999c0,12.125-9.829,21.954-21.954,21.954c-12.125,0-21.954-9.829-21.954-21.954v-3.999   h-38.947C308.266,308.68,279.74,329.692,247.443,329.742z M134.554,270.931h44.973c1.56,0.002,2.926,1.047,3.335,2.553   c9.711,35.64,46.475,56.661,82.115,46.95c22.862-6.229,40.721-24.089,46.95-46.95c0.409-1.506,1.775-2.551,3.335-2.553h44.973   c1.911,0,3.459,1.549,3.459,3.459v7.486c0,8.303,6.731,15.035,15.035,15.035s15.035-6.731,15.035-15.035v-7.459   c0-1.911,1.549-3.459,3.459-3.459h14.211c8.273,0.008,14.986-6.692,14.994-14.965c0.008-8.273-6.692-14.986-14.965-14.994   c-0.009,0-0.019,0-0.028,0h-14.149c-1.911,0-3.459-1.549-3.459-3.459v-4.269c0-8.303-6.731-15.035-15.035-15.035   c-8.303,0-15.035,6.731-15.035,15.035v4.269c0,1.911-1.549,3.459-3.459,3.459h-45.035c-1.56-0.002-2.926-1.047-3.335-2.553   c-9.656-35.612-46.353-56.653-81.964-46.997c-22.9,6.209-40.788,24.098-46.997,46.997c-0.409,1.506-1.775,2.551-3.335,2.553   h-45.077c-1.911,0-3.459-1.549-3.459-3.459v-4.269c0-8.303-6.731-15.035-15.035-15.035s-15.035,6.731-15.035,15.035v4.269   c0,1.911-1.549,3.459-3.459,3.459H83.361c-8.273,0-14.979,6.707-14.979,14.979s6.707,14.979,14.979,14.979h14.191   c1.911,0,3.459,1.549,3.459,3.459v7.459c0.003,4.001,1.593,7.838,4.421,10.669c5.877,5.866,15.397,5.856,21.262-0.021   c2.82-2.825,4.4-6.656,4.393-10.648v-7.459c0-1.911,1.549-3.459,3.459-3.459c0.002,0,0.005,0,0.007,0V270.931z"/>
	<path style="fill:#323C6B;" d="M482.243,425.078H11.757c-1.911,0-3.459-1.549-3.459-3.459v-35.695c0-1.419,0.867-2.695,2.186-3.217   l21.905-8.656c10.069-3.976,15.008-15.362,11.032-25.431c-2.958-7.49-10.196-12.409-18.249-12.402H11.757   c-1.911,0-3.459-1.549-3.459-3.459V179.235c0-1.911,1.549-3.459,3.459-3.459h13.409c10.822,0.026,19.615-8.726,19.641-19.547   c0.019-8.074-4.916-15.334-12.432-18.285l-21.891-8.649c-1.32-0.522-2.187-1.798-2.186-3.217V90.382   c0-1.911,1.549-3.459,3.459-3.459h470.487c1.911,0,3.459,1.549,3.459,3.459v35.695c0,1.419-0.867,2.695-2.186,3.217l-21.905,8.656   c-10.069,3.976-15.008,15.362-11.032,25.431c2.958,7.49,10.196,12.409,18.249,12.402h13.416c1.911,0,3.459,1.549,3.459,3.459   v153.524c0,1.911-1.549,3.459-3.459,3.459h-13.409c-10.822-0.026-19.615,8.726-19.641,19.547   c-0.019,8.074,4.916,15.334,12.432,18.285l21.891,8.649c1.32,0.522,2.187,1.798,2.186,3.217v35.695   C485.703,423.529,484.154,425.078,482.243,425.078z M15.216,418.159h463.568v-29.883l-19.712-7.791   c-13.63-5.361-20.334-20.757-14.973-34.387c3.997-10.163,13.815-16.836,24.735-16.813h9.949V182.694h-9.949   c-14.643,0.055-26.558-11.771-26.612-26.414c-0.041-10.947,6.65-20.794,16.843-24.786l19.719-7.77V93.841H15.216v29.883   l19.712,7.791c13.63,5.361,20.334,20.757,14.973,34.387c-3.997,10.163-13.815,16.836-24.735,16.813h-9.949v146.591h9.949   c14.643-0.055,26.558,11.771,26.612,26.414c0.041,10.947-6.65,20.794-16.843,24.786l-19.719,7.77V418.159z"/>
	<g style="opacity:0.8;">
		<path style="fill:#FFFFFF;" d="M97.759,103.355h71.957c3.107-0.023,5.644,2.477,5.667,5.583c0,0.005,0,0.009,0,0.014l0,0    c0.012,3.123-2.503,5.668-5.625,5.694H97.8c-3.005,0.122-5.54-2.214-5.662-5.219c-0.002-0.055-0.004-0.109-0.004-0.164l0,0    C92.105,106.098,94.596,103.482,97.759,103.355z"/>
		<path style="fill:#FFFFFF;" d="M189.49,103.355h3.024c3.056-0.073,5.592,2.346,5.665,5.402c0.001,0.044,0.002,0.089,0.002,0.133    l0,0c0.023,3.142-2.483,5.72-5.625,5.784h-3.024c-3.138-0.038-5.663-2.591-5.667-5.729l0,0c-0.031-3.057,2.422-5.56,5.479-5.591    C189.392,103.354,189.441,103.354,189.49,103.355z"/>
	</g>
</g>
</svg>
