<svg id="line_color" height="512" viewBox="0 0 74 74" width="512" xmlns="http://www.w3.org/2000/svg" data-name="line color"><path d="m56.867 59.989a.5.5 0 0 1 -.473-.338q-.213-.623-.465-1.229a.5.5 0 1 1 .923-.385q.265.636.489 1.29a.5.5 0 0 1 -.473.662z" fill="#323c6b"/><path d="m54.832 55.7a.5.5 0 0 1 -.425-.236 20.419 20.419 0 0 0 -5.9-6.156.5.5 0 1 1 .563-.827 21.42 21.42 0 0 1 6.183 6.456.5.5 0 0 1 -.424.764z" fill="#323c6b"/><path d="m55 66.28h-36a17.993 17.993 0 0 1 18.01-18.01 17.82 17.82 0 0 1 7.48 1.63 18 18 0 0 1 10.51 16.38z" fill="#eeefee"/><path d="m55 66.78h-36a.5.5 0 0 1 -.5-.5 18.585 18.585 0 0 1 10.8-16.834 18.525 18.525 0 0 1 15.4 0 18.562 18.562 0 0 1 10.8 16.834.5.5 0 0 1 -.5.5zm-35.493-1h34.986a17.562 17.562 0 0 0 -10.211-15.426 17.526 17.526 0 0 0 -14.563 0 17.586 17.586 0 0 0 -10.212 15.426z" fill="#323c6b"/><path d="m44.49 49.9a17.82 17.82 0 0 0 -7.48-1.63c-.508 0-1.006.04-1.5.081a17.765 17.765 0 0 1 5.98 1.549 18 18 0 0 1 10.51 16.38h3a18 18 0 0 0 -10.51-16.38z" fill="#dbd8dd"/><path d="m59.86 68.64a2.366 2.366 0 0 1 -2.37 2.36h-40.98a2.366 2.366 0 0 1 -2.37-2.36 2.333 2.333 0 0 1 .69-1.67 2.374 2.374 0 0 1 1.68-.69h40.98a2.36 2.36 0 0 1 2.37 2.36z" fill="#bbbbcd"/><path d="m57.49 71.5h-40.98a2.86 2.86 0 1 1 0-5.72h40.98a2.86 2.86 0 1 1 0 5.72zm-40.98-4.72a1.886 1.886 0 0 0 -1.326.543 1.825 1.825 0 0 0 -.543 1.317 1.867 1.867 0 0 0 1.87 1.86h40.979a1.86 1.86 0 1 0 0-3.72z" fill="#323c6b"/><path d="m57.49 66.28h-3a2.36 2.36 0 1 1 0 4.72h3a2.36 2.36 0 1 0 0-4.72z" fill="#9a9eaf"/><path d="m24.1 61.66a.492.492 0 0 1 -.185-.036.5.5 0 0 1 -.28-.649 14.408 14.408 0 0 1 7.04-7.612.5.5 0 1 1 .441.9 13.412 13.412 0 0 0 -6.553 7.084.5.5 0 0 1 -.463.313z" fill="#323c6b"/><path d="m44.49 45.6v4.3a18.023 18.023 0 0 0 -14.98 0v-4.3a3.288 3.288 0 0 1 3.29-3.3h8.39a3.29 3.29 0 0 1 3.3 3.3z" fill="#bbbbcd"/><path d="m44.49 50.4a.5.5 0 0 1 -.209-.046 17.527 17.527 0 0 0 -14.562 0 .5.5 0 0 1 -.709-.454v-4.3a3.8 3.8 0 0 1 3.79-3.8h8.39a3.8 3.8 0 0 1 3.8 3.8v4.3a.5.5 0 0 1 -.5.5zm-11.69-7.6a2.8 2.8 0 0 0 -2.79 2.8v3.537a18.622 18.622 0 0 1 13.98 0v-3.537a2.8 2.8 0 0 0 -2.8-2.8z" fill="#323c6b"/><path d="m34.01 48.27a18.009 18.009 0 0 0 -4.5.588v1.042a17.8 17.8 0 0 1 6-1.549c-.498-.041-.994-.081-1.5-.081z" fill="#9a9eaf"/><path d="m41.19 42.3h-3a3.29 3.29 0 0 1 3.3 3.3v3.256a17.743 17.743 0 0 1 3 1.044v-4.3a3.29 3.29 0 0 0 -3.3-3.3z" fill="#9a9eaf"/><path d="m29.51 50.405a.5.5 0 0 1 -.5-.5v-.005a.5.5 0 1 1 .5.505z" fill="#323c6b"/><path d="m44.49 50.405a.5.5 0 0 1 -.5-.5v-.005a.5.5 0 1 1 .5.505z" fill="#323c6b"/><path d="m44.1 14a.5.5 0 0 1 -.5-.5v-1.068a.5.5 0 0 1 1 0v1.068a.5.5 0 0 1 -.5.5z" fill="#323c6b"/><path d="m44.1 10.083a.5.5 0 0 1 -.5-.5v-2.483a6.555 6.555 0 0 0 -1.932-4.667 6.7 6.7 0 0 0 -1.176-.933.5.5 0 1 1 .53-.848 7.66 7.66 0 0 1 1.353 1.079 7.547 7.547 0 0 1 2.225 5.369v2.483a.5.5 0 0 1 -.5.5z" fill="#323c6b"/><path d="m41.1 7.1v35.2h-8.2v-35.2a4.1 4.1 0 1 1 8.2 0z" fill="#fed19a"/><path d="m41.1 42.8h-8.2a.5.5 0 0 1 -.5-.5v-35.2a4.6 4.6 0 1 1 9.2 0v35.2a.5.5 0 0 1 -.5.5zm-7.7-1h7.2v-34.7a3.6 3.6 0 0 0 -7.2 0z" fill="#323c6b"/><path d="m39.9 4.2a4.07 4.07 0 0 0 -4.4-.908 4.062 4.062 0 0 1 2.6 3.808v35.2h3v-35.2a4.079 4.079 0 0 0 -1.2-2.9z" fill="#f4bb87"/><g fill="#323c6b"><path d="m41.1 11.932h-8.2a.5.5 0 0 1 0-1h8.2a.5.5 0 0 1 0 1z"/><path d="m55 66.78h-36a.5.5 0 0 1 -.5-.5 18.585 18.585 0 0 1 10.8-16.834 18.525 18.525 0 0 1 15.4 0 18.562 18.562 0 0 1 10.8 16.834.5.5 0 0 1 -.5.5zm-35.493-1h34.986a17.562 17.562 0 0 0 -10.211-15.426 17.526 17.526 0 0 0 -14.563 0 17.586 17.586 0 0 0 -10.212 15.426z"/><path d="m44.49 50.4a.5.5 0 0 1 -.209-.046 17.527 17.527 0 0 0 -14.562 0 .5.5 0 0 1 -.709-.454v-4.3a3.8 3.8 0 0 1 3.79-3.8h8.39a3.8 3.8 0 0 1 3.8 3.8v4.3a.5.5 0 0 1 -.5.5zm-11.69-7.6a2.8 2.8 0 0 0 -2.79 2.8v3.537a18.622 18.622 0 0 1 13.98 0v-3.537a2.8 2.8 0 0 0 -2.8-2.8z"/><path d="m57.49 71.5h-40.98a2.86 2.86 0 1 1 0-5.72h40.98a2.86 2.86 0 1 1 0 5.72zm-40.98-4.72a1.886 1.886 0 0 0 -1.326.543 1.825 1.825 0 0 0 -.543 1.317 1.867 1.867 0 0 0 1.87 1.86h40.979a1.86 1.86 0 1 0 0-3.72z"/><path d="m41.1 42.8h-8.2a.5.5 0 0 1 -.5-.5v-35.2a4.6 4.6 0 1 1 9.2 0v35.2a.5.5 0 0 1 -.5.5zm-7.7-1h7.2v-34.7a3.6 3.6 0 0 0 -7.2 0z"/></g><g fill="#fff" opacity=".78"><path d="m34.452 23.93v-7.916a.618.618 0 0 1 .616-.623.624.624 0 0 1 .626.619v7.916a.6.6 0 0 1 -.592.623.645.645 0 0 1 -.65-.619z"/><path d="m34.452 13.842v-.332a.61.61 0 0 1 .606-.623.632.632 0 0 1 .636.619v.333a.631.631 0 0 1 -.63.623.611.611 0 0 1 -.612-.62z"/></g></svg>