<svg id="line_color" height="512" viewBox="0 0 74 74" width="512" xmlns="http://www.w3.org/2000/svg" data-name="line color"><path d="m28.65 16.81a3.2 3.2 0 1 1 -3.21-3.19 3.2 3.2 0 0 1 3.21 3.19z" fill="#bbbbcd"/><path d="m25.44 20.5a3.69 3.69 0 1 1 3.71-3.69 3.694 3.694 0 0 1 -3.71 3.69zm0-6.38a2.69 2.69 0 1 0 2.71 2.69 2.693 2.693 0 0 0 -2.71-2.69z" fill="#323c6b"/><path d="m35.29 5.01s-.01.62-.03 1.75c-11.21 4.18-19.09.29-19.62.02-.02-1.14-.03-1.77-.03-1.77l1.85-2.01s6.95 4.43 15.97 0z" fill="#eeefee"/><path d="m24.989 9.19a22.068 22.068 0 0 1 -9.576-1.965.5.5 0 0 1 -.273-.437l-.03-1.77a.5.5 0 0 1 .132-.346l1.85-2.01a.5.5 0 0 1 .637-.083 16.573 16.573 0 0 0 15.48-.027.5.5 0 0 1 .588.109l1.86 2.01a.5.5 0 0 1 .133.348l-.03 1.751a.5.5 0 0 1 -.325.459 29.786 29.786 0 0 1 -10.446 1.961zm-8.854-2.726c1.6.742 8.717 3.526 18.631-.055l.021-1.209-1.474-1.589a17.424 17.424 0 0 1 -15.757.023l-1.443 1.566z" fill="#323c6b"/><path d="m17.46 4.583s6.95 4.43 15.97 0l1.833 1.981c.018-1 .027-1.555.027-1.555l-1.86-2.009c-9.02 4.43-15.97 0-15.97 0l-1.85 2.01s.009.555.026 1.555z" fill="#dbd8dd"/><path d="m13.706 46.754a.5.5 0 0 1 -.5-.479l-.027-.7a.5.5 0 0 1 .481-.519.489.489 0 0 1 .519.48l.027.693a.5.5 0 0 1 -.479.521zm-.112-2.938a.5.5 0 0 1 -.5-.481c-.1-2.745-.194-5.52-.279-8.253a.5.5 0 0 1 .484-.516.476.476 0 0 1 .516.484c.085 2.731.178 5.5.279 8.247a.5.5 0 0 1 -.481.518z" fill="#323c6b"/><path d="m27.84 12.55 2.1-1.3a.58.58 0 0 1 .81.21c1.43 2.54 2.86 5.12 4.27 7.71.12-5.61.2-10.09.24-12.41-11.21 4.18-19.09.29-19.62.02.16 9.32 1.01 52.69 2.7 64.22h14.21c.74-5.03 1.32-13.73 1.75-25.96-2.1-3.4-4.09-6.6-5.91-9.53v25.18a1.6 1.6 0 0 1 -1.6 1.59h-2.68a1.6 1.6 0 0 1 -1.6-1.59v-34.66c-2.27-3.65-3.84-6.19-4.45-7.17a.572.572 0 0 1 .16-.77l2.07-1.46a.569.569 0 0 1 .8.15l5.34 7.76 5.51-3.92-4.3-7.29a.579.579 0 0 1 .2-.78zm.81 4.26a3.2 3.2 0 1 1 -3.21-3.19 3.2 3.2 0 0 1 3.21 3.19z" fill="#dbd8dd"/><path d="m32.55 71.5h-14.21a.5.5 0 0 1 -.5-.428c-1.757-12.029-2.609-58.972-2.7-64.283a.5.5 0 0 1 .727-.455c.827.421 8.39 4 19.219-.042a.5.5 0 0 1 .675.477c-.04 2.32-.12 6.8-.24 12.412a.5.5 0 0 1 -.939.228c-1.408-2.587-2.837-5.166-4.266-7.7l-.374-.455.263.425-2.1 1.3h-.007a.082.082 0 0 0 -.019.108l4.294 7.278a.5.5 0 0 1 -.141.661l-5.511 3.92a.494.494 0 0 1 -.377.085.5.5 0 0 1 -.325-.209l-5.34-7.76-.388-.433.288.409-2.07 1.46a.073.073 0 0 0 -.021.1l4.448 7.167a.505.505 0 0 1 .075.264v34.661a1.1 1.1 0 0 0 1.1 1.09h2.68a1.1 1.1 0 0 0 1.1-1.09v-25.18a.5.5 0 0 1 .925-.264l.705 1.135c1.625 2.615 3.374 5.43 5.206 8.4a.506.506 0 0 1 .074.28c-.432 12.281-1.022 21.034-1.755 26.015a.5.5 0 0 1 -.496.424zm-13.775-1h13.341c.7-4.991 1.261-13.506 1.679-25.326-1.721-2.785-3.367-5.436-4.905-7.912v23.428a2.1 2.1 0 0 1 -2.1 2.09h-2.68a2.1 2.1 0 0 1 -2.1-2.09v-34.518l-4.375-7.048a1.07 1.07 0 0 1 .293-1.44l2.072-1.463a1.079 1.079 0 0 1 .818-.175 1.058 1.058 0 0 1 .686.457l.244.355v-.048a3.7 3.7 0 0 1 5.452-3.25 1.088 1.088 0 0 1 .384-1.437l2.1-1.3a1.1 1.1 0 0 1 .847-.124 1.065 1.065 0 0 1 .663.518c1.126 2 2.254 4.028 3.372 6.066.087-4.217.15-7.656.188-9.808-9.354 3.26-16.3 1.043-18.594.086.14 7.973.968 50.814 2.614 62.939zm5.3-50.261 2.477 3.6 4.723-3.359-2.127-3.6a3.707 3.707 0 0 1 -5.072 3.365zm1.365-6.119a2.69 2.69 0 1 0 2.71 2.69 2.693 2.693 0 0 0 -2.71-2.69z" fill="#323c6b"/><path d="m33.248 7.435c-.033 1.864-.084 4.714-.155 8.226q.967 1.749 1.927 3.509c.12-5.61.2-10.09.24-12.41-.684.255-1.354.478-2.012.675z" fill="#bbbbcd"/><path d="m28.39 38.73q1.873 3.017 3.91 6.31c-.43 12.23-1.01 20.93-1.75 25.96h2c.74-5.03 1.32-13.73 1.75-25.96-2.1-3.4-4.09-6.6-5.91-9.53z" fill="#bbbbcd"/><path d="m24.019 8.661a21.217 21.217 0 0 1 -8.379-1.881c0 .238.009.513.014.794a24.271 24.271 0 0 0 8.365 1.087z" fill="#bbbbcd"/><path d="m25.44 13.62a3.176 3.176 0 0 0 -2.34 1.034 3.123 3.123 0 0 1 .336-.034 3.2 3.2 0 0 1 3.21 3.19 3.156 3.156 0 0 1 -.855 2.155 3.181 3.181 0 0 0 -.355-6.345z" fill="#9a9eaf"/><path d="m59.57 68.6a.5.5 0 0 1 -.255-.93 3.223 3.223 0 0 0 1.258-4.153c-.2-.418-1.331-2.76-3.151-6.45a.5.5 0 1 1 .9-.442c1.823 3.694 2.954 6.039 3.143 6.43a4.237 4.237 0 0 1 -1.636 5.476.5.5 0 0 1 -.259.069z" fill="#323c6b"/><path d="m55.81 53.188a.5.5 0 0 1 -.447-.277l-.663-1.324a.5.5 0 0 1 .895-.447l.661 1.326a.5.5 0 0 1 -.447.723z" fill="#323c6b"/><path d="m58.04 65.52-7.57 4.42a.709.709 0 0 1 -.96-.24c-5.23-8.5-10.51-17.05-15.21-24.66-2.1-3.4-4.09-6.6-5.91-9.53-2.25-3.63-4.24-6.85-5.88-9.48-2.27-3.65-3.84-6.19-4.45-7.17a.572.572 0 0 1 .16-.77l2.07-1.46a.569.569 0 0 1 .8.15l5.34 7.76 5.51-3.92-4.3-7.29a.579.579 0 0 1 .2-.78l2.1-1.3a.58.58 0 0 1 .81.21c1.43 2.54 2.86 5.12 4.27 7.71 11.26 20.65 21.49 41.67 23.3 45.43a.71.71 0 0 1 -.28.92z" fill="#eeefee"/><path d="m50.116 70.534a1.208 1.208 0 0 1 -1.034-.574c-5.228-8.5-10.508-17.047-15.208-24.657-1.831-2.965-3.579-5.779-5.2-8.394l-2.6-4.2c-1.48-2.392-2.818-4.551-3.98-6.415l-4.451-7.17a1.07 1.07 0 0 1 .293-1.44l2.064-1.463a1.079 1.079 0 0 1 .818-.175 1.056 1.056 0 0 1 .686.457l5.048 7.335 4.723-3.359-4.067-6.9a1.09 1.09 0 0 1 .375-1.464l2.094-1.3a1.1 1.1 0 0 1 .847-.124 1.065 1.065 0 0 1 .663.518c1.429 2.539 2.861 5.121 4.271 7.713 12.056 22.115 22.858 44.518 23.313 45.461a1.2 1.2 0 0 1 -.476 1.567l-7.57 4.42a1.209 1.209 0 0 1 -.609.164zm-29.826-53.904.288.409-2.07 1.46a.073.073 0 0 0 -.021.1l4.448 7.167c1.162 1.864 2.5 4.024 3.982 6.417l2.6 4.2c1.625 2.615 3.374 5.43 5.206 8.4 4.7 7.61 9.98 16.161 15.21 24.661a.209.209 0 0 0 .285.068l7.565-4.417a.208.208 0 0 0 .084-.271c-.454-.943-11.247-23.325-23.29-45.409-1.408-2.588-2.837-5.166-4.266-7.7l-.374-.455.263.425-2.1 1.3a.083.083 0 0 0 -.025.113l4.294 7.278a.5.5 0 0 1 -.141.661l-5.511 3.92a.494.494 0 0 1 -.377.085.5.5 0 0 1 -.325-.209l-5.34-7.76z" fill="#323c6b"/><path d="m58.32 64.6c-1.81-3.76-12.04-24.78-23.3-45.43-1.41-2.59-2.84-5.17-4.27-7.71a.58.58 0 0 0 -.81-.21l-1.3.8q1.7 3.036 3.38 6.116c11.26 20.654 21.49 41.674 23.3 45.434a.71.71 0 0 1 -.28.92l-6.413 3.745.883 1.435a.709.709 0 0 0 .96.24l7.57-4.42a.71.71 0 0 0 .28-.92z" fill="#dbd8dd"/><path d="m23.43 23.54 1.552-1.1-3.892-5.66a.569.569 0 0 0 -.8-.15l-1.09.77z" fill="#dbd8dd"/><path d="m28.39 35.51v25.18a1.6 1.6 0 0 1 -1.6 1.59h-2.68a1.6 1.6 0 0 1 -1.6-1.59v-34.66c1.64 2.63 3.63 5.85 5.88 9.48z" fill="#bbbbcd"/><g fill="#323c6b"><path d="m26.79 62.78h-2.68a2.1 2.1 0 0 1 -2.1-2.09v-34.66a.5.5 0 0 1 .924-.265c1.163 1.865 2.5 4.025 3.983 6.418l1.9 3.063a.5.5 0 0 1 .075.263v25.181a2.1 2.1 0 0 1 -2.102 2.09zm-3.78-35v32.91a1.1 1.1 0 0 0 1.1 1.09h2.68a1.1 1.1 0 0 0 1.1-1.09v-25.038l-1.823-2.942c-1.103-1.781-2.127-3.434-3.057-4.931z"/><path d="m28.39 36a.491.491 0 0 1 -.5-.49v-.02a.5.5 0 0 1 1 0 .508.508 0 0 1 -.5.51z"/><path d="m15.64 7.28a.5.5 0 0 1 -.224-.053.727.727 0 0 1 -.168-.123.511.511 0 1 1 .392.175z"/><path d="m50.116 70.534a1.208 1.208 0 0 1 -1.034-.574c-5.228-8.5-10.508-17.047-15.208-24.657-1.831-2.965-3.579-5.779-5.2-8.394l-2.6-4.2c-1.48-2.392-2.818-4.551-3.98-6.415l-4.451-7.17a1.07 1.07 0 0 1 .293-1.44l2.064-1.463a1.079 1.079 0 0 1 .818-.175 1.056 1.056 0 0 1 .686.457l5.048 7.335 4.723-3.359-4.067-6.9a1.09 1.09 0 0 1 .375-1.464l2.094-1.3a1.1 1.1 0 0 1 .847-.124 1.065 1.065 0 0 1 .663.518c1.429 2.539 2.861 5.121 4.271 7.713 12.056 22.115 22.858 44.518 23.313 45.461a1.2 1.2 0 0 1 -.476 1.567l-7.57 4.42a1.209 1.209 0 0 1 -.609.164zm-29.826-53.904.288.409-2.07 1.46a.073.073 0 0 0 -.021.1l4.448 7.167c1.162 1.864 2.5 4.024 3.982 6.417l2.6 4.2c1.625 2.615 3.374 5.43 5.206 8.4 4.7 7.61 9.98 16.161 15.21 24.661a.209.209 0 0 0 .285.068l7.565-4.417a.208.208 0 0 0 .084-.271c-.454-.943-11.247-23.325-23.29-45.409-1.408-2.588-2.837-5.166-4.266-7.7l-.374-.455.263.425-2.1 1.3a.083.083 0 0 0 -.025.113l4.294 7.278a.5.5 0 0 1 -.141.661l-5.511 3.92a.494.494 0 0 1 -.377.085.5.5 0 0 1 -.325-.209l-5.34-7.76z"/><path d="m32.55 71.5h-14.21a.5.5 0 0 1 -.5-.428c-1.757-12.029-2.609-58.972-2.7-64.283a.5.5 0 0 1 .727-.455c.827.421 8.39 4 19.219-.042a.5.5 0 0 1 .675.477c-.04 2.32-.12 6.8-.24 12.412a.5.5 0 0 1 -.939.228c-1.408-2.587-2.837-5.166-4.266-7.7l-.374-.455.263.425-2.1 1.3h-.007a.082.082 0 0 0 -.019.108l4.294 7.278a.5.5 0 0 1 -.141.661l-5.511 3.92a.494.494 0 0 1 -.377.085.5.5 0 0 1 -.325-.209l-5.34-7.76-.388-.433.288.409-2.07 1.46a.073.073 0 0 0 -.021.1l4.448 7.167a.505.505 0 0 1 .075.264v34.661a1.1 1.1 0 0 0 1.1 1.09h2.68a1.1 1.1 0 0 0 1.1-1.09v-25.18a.5.5 0 0 1 .925-.264l.705 1.135c1.625 2.615 3.374 5.43 5.206 8.4a.506.506 0 0 1 .074.28c-.432 12.281-1.022 21.034-1.755 26.015a.5.5 0 0 1 -.496.424zm-13.775-1h13.341c.7-4.991 1.261-13.506 1.679-25.326-1.721-2.785-3.367-5.436-4.905-7.912v23.428a2.1 2.1 0 0 1 -2.1 2.09h-2.68a2.1 2.1 0 0 1 -2.1-2.09v-34.518l-4.375-7.048a1.07 1.07 0 0 1 .293-1.44l2.072-1.463a1.079 1.079 0 0 1 .818-.175 1.058 1.058 0 0 1 .686.457l5.048 7.335 4.723-3.359-4.067-6.9a1.09 1.09 0 0 1 .371-1.461l2.1-1.3a1.1 1.1 0 0 1 .847-.124 1.065 1.065 0 0 1 .663.518c1.126 2 2.254 4.028 3.372 6.066.087-4.217.15-7.656.188-9.808-9.354 3.26-16.3 1.043-18.594.086.145 7.978.973 50.819 2.619 62.944z"/><path d="m24.989 9.19a22.068 22.068 0 0 1 -9.576-1.965.5.5 0 0 1 -.273-.437l-.03-1.77a.5.5 0 0 1 .132-.346l1.85-2.01a.5.5 0 0 1 .637-.083 16.573 16.573 0 0 0 15.48-.027.5.5 0 0 1 .588.109l1.86 2.01a.5.5 0 0 1 .133.348l-.03 1.751a.5.5 0 0 1 -.325.459 29.786 29.786 0 0 1 -10.446 1.961zm-8.854-2.726c1.6.742 8.717 3.526 18.631-.055l.021-1.209-1.474-1.589a17.424 17.424 0 0 1 -15.757.023l-1.443 1.566z"/><path d="m25.44 20.5a3.69 3.69 0 1 1 3.71-3.69 3.694 3.694 0 0 1 -3.71 3.69zm0-6.38a2.69 2.69 0 1 0 2.71 2.69 2.693 2.693 0 0 0 -2.71-2.69z"/></g><g fill="#bbbbcd" opacity=".78"><path d="m35.313 41.607-5.387-8.9a.813.813 0 0 1 .268-1.12.82.82 0 0 1 1.125.269l5.387 8.9a.787.787 0 0 1 -.241 1.1.847.847 0 0 1 -1.152-.249z"/><path d="m28.449 30.265-.226-.374a.8.8 0 0 1 .257-1.113.83.83 0 0 1 1.136.263l.226.374a.829.829 0 0 1 -.284 1.13.8.8 0 0 1 -1.109-.28z"/></g></svg>