<svg id="line_color" height="512" viewBox="0 0 74 74" width="512" xmlns="http://www.w3.org/2000/svg" data-name="line color"><path d="m20.5 27.25h33v27.5h-33z" fill="#b6d2dd"/><path d="m53.5 55.25h-33a.5.5 0 0 1 -.5-.5v-27.5a.5.5 0 0 1 .5-.5h33a.5.5 0 0 1 .5.5v27.5a.5.5 0 0 1 -.5.5zm-32.5-1h32v-26.5h-32z" fill="#323c6b"/><path d="m50.5 27.25h3v27.5h-3z" fill="#acc6cc"/><path d="m18.473 21.455a.5.5 0 0 1 -.461-.694 12.989 12.989 0 0 1 5.588-6.253.5.5 0 1 1 .49.872 11.98 11.98 0 0 0 -5.153 5.77.5.5 0 0 1 -.464.305z" fill="#323c6b"/><path d="m17.523 25.5h-.03a.5.5 0 0 1 -.469-.529 12.83 12.83 0 0 1 .232-1.77.5.5 0 0 1 .98.2 11.74 11.74 0 0 0 -.215 1.631.5.5 0 0 1 -.498.468z" fill="#323c6b"/><path d="m53.5 25.76v1.49h-33v-1.49a9.4 9.4 0 0 1 4.81-8.2 7.633 7.633 0 0 0 3.66-6.43v-.14h16.06v.14a7.633 7.633 0 0 0 3.66 6.43 9.4 9.4 0 0 1 4.81 8.2z" fill="#eeefee"/><path d="m53.5 27.75h-33a.5.5 0 0 1 -.5-.5v-1.49a9.917 9.917 0 0 1 5.064-8.636 7.1 7.1 0 0 0 3.406-5.994v-.14a.5.5 0 0 1 .5-.5h16.06a.5.5 0 0 1 .5.5v.14a7.1 7.1 0 0 0 3.4 5.994 9.918 9.918 0 0 1 5.07 8.636v1.49a.5.5 0 0 1 -.5.5zm-32.5-1h32v-.99a8.916 8.916 0 0 0 -4.555-7.76 8.149 8.149 0 0 1 -3.906-6.506h-15.078a8.15 8.15 0 0 1 -3.907 6.506 8.916 8.916 0 0 0 -4.554 7.76z" fill="#323c6b"/><path d="m48.69 17.56a7.633 7.633 0 0 1 -3.66-6.43v-.14h-3v.14a7.633 7.633 0 0 0 3.66 6.43 9.4 9.4 0 0 1 4.81 8.2v1.49h3v-1.49a9.4 9.4 0 0 0 -4.81-8.2z" fill="#dbd8dd"/><path d="m50.39 74.5a.5.5 0 0 1 0-1 5.616 5.616 0 0 0 5.61-5.61v-.953a.5.5 0 0 1 1 0v.953a6.618 6.618 0 0 1 -6.61 6.61z" fill="#323c6b"/><path d="m56.5 64.117a.5.5 0 0 1 -.5-.5v-.8a.5.5 0 0 1 1 0v.8a.5.5 0 0 1 -.5.5z" fill="#323c6b"/><path d="m20.5 54.75h33v13.14a3.107 3.107 0 0 1 -3.11 3.11h-26.78a3.107 3.107 0 0 1 -3.11-3.11z" fill="#eeefee"/><path d="m50.39 71.5h-26.78a3.614 3.614 0 0 1 -3.61-3.61v-13.14a.5.5 0 0 1 .5-.5h33a.5.5 0 0 1 .5.5v13.14a3.614 3.614 0 0 1 -3.61 3.61zm-29.39-16.25v12.64a2.613 2.613 0 0 0 2.61 2.61h26.78a2.613 2.613 0 0 0 2.61-2.61v-12.64z" fill="#323c6b"/><path d="m50.5 54.75v13.14a3.107 3.107 0 0 1 -3.11 3.11h3a3.107 3.107 0 0 0 3.11-3.11v-13.14z" fill="#dbd8dd"/><rect fill="#9a9eaf" height="7.984" rx=".807" width="21" x="26.5" y="3"/><path d="m46.693 11.484h-19.386a1.308 1.308 0 0 1 -1.307-1.307v-6.37a1.308 1.308 0 0 1 1.307-1.307h19.386a1.308 1.308 0 0 1 1.307 1.307v6.37a1.308 1.308 0 0 1 -1.307 1.307zm-19.386-7.984a.307.307 0 0 0 -.307.307v6.37a.307.307 0 0 0 .307.307h19.386a.307.307 0 0 0 .307-.307v-6.37a.307.307 0 0 0 -.307-.307z" fill="#323c6b"/><path d="m46.693 3h-19.386a.807.807 0 0 0 -.807.807v1.193h18.193a.807.807 0 0 1 .807.807v5.177h1.193a.807.807 0 0 0 .807-.807v-6.37a.807.807 0 0 0 -.807-.807z" fill="#828a9e"/><path d="m43.092 40.878-.426.585a3.284 3.284 0 0 0 -.57 1.277l-.851 4.044a1.487 1.487 0 0 1 -2.774.365l-1.471-2.873-1.475 2.873a1.481 1.481 0 0 1 -2.767-.365l-.858-4.043a3.284 3.284 0 0 0 -.57-1.277l-.426-.585a4.228 4.228 0 0 1 -.084-4.864 4.465 4.465 0 0 1 3.633-1.969 3.915 3.915 0 0 1 1.547.311 2.583 2.583 0 0 1 1 .7 2.5 2.5 0 0 1 1-.7 3.915 3.915 0 0 1 1.543-.312 4.465 4.465 0 0 1 3.633 1.969 4.228 4.228 0 0 1 -.084 4.864z" fill="#eeefee"/><g fill="#323c6b"><path d="m39.784 48.455a1.964 1.964 0 0 1 -1.758-1.077l-1.023-2-1.028 2a1.982 1.982 0 0 1 -3.7-.489l-.859-4.043a2.768 2.768 0 0 0 -.481-1.083l-.429-.589a4.74 4.74 0 0 1 -.094-5.438 4.915 4.915 0 0 1 5.788-1.836 3.567 3.567 0 0 1 .8.465 3.5 3.5 0 0 1 .8-.464 4.912 4.912 0 0 1 5.786 1.835 4.743 4.743 0 0 1 -.093 5.441l-.426.584a2.768 2.768 0 0 0 -.484 1.087l-.852 4.042a1.957 1.957 0 0 1 -1.675 1.549 2.028 2.028 0 0 1 -.272.016zm-2.784-4.679a.5.5 0 0 1 .444.272l1.467 2.873a.987.987 0 0 0 1.84-.241l.852-4.042a3.769 3.769 0 0 1 .656-1.471l.424-.582a3.737 3.737 0 0 0 .074-4.289 3.889 3.889 0 0 0 -4.567-1.477 2.01 2.01 0 0 0 -.8.55.5.5 0 0 1 -.388.189.5.5 0 0 1 -.387-.183 2.1 2.1 0 0 0 -.812-.556 3.889 3.889 0 0 0 -4.566 1.481 3.735 3.735 0 0 0 .075 4.287l.426.586a3.76 3.76 0 0 1 .654 1.467l.859 4.043a.981.981 0 0 0 1.833.24l1.474-2.873a.5.5 0 0 1 .442-.274z"/><path d="m46.693 11.484h-19.386a1.308 1.308 0 0 1 -1.307-1.307v-6.37a1.308 1.308 0 0 1 1.307-1.307h19.386a1.308 1.308 0 0 1 1.307 1.307v6.37a1.308 1.308 0 0 1 -1.307 1.307zm-19.386-7.984a.307.307 0 0 0 -.307.307v6.37a.307.307 0 0 0 .307.307h19.386a.307.307 0 0 0 .307-.307v-6.37a.307.307 0 0 0 -.307-.307z"/><path d="m53.5 27.75h-33a.5.5 0 0 1 -.5-.5v-1.49a9.917 9.917 0 0 1 5.064-8.636 7.1 7.1 0 0 0 3.406-5.994v-.14a.5.5 0 0 1 .5-.5h16.06a.5.5 0 0 1 .5.5v.14a7.1 7.1 0 0 0 3.4 5.994 9.918 9.918 0 0 1 5.07 8.636v1.49a.5.5 0 0 1 -.5.5zm-32.5-1h32v-.99a8.916 8.916 0 0 0 -4.555-7.76 8.149 8.149 0 0 1 -3.906-6.506h-15.078a8.15 8.15 0 0 1 -3.907 6.506 8.916 8.916 0 0 0 -4.554 7.76z"/><path d="m53.5 55.25h-33a.5.5 0 0 1 -.5-.5v-27.5a.5.5 0 0 1 .5-.5h33a.5.5 0 0 1 .5.5v27.5a.5.5 0 0 1 -.5.5zm-32.5-1h32v-26.5h-32z"/><path d="m50.39 71.5h-26.78a3.614 3.614 0 0 1 -3.61-3.61v-13.14a.5.5 0 0 1 .5-.5h33a.5.5 0 0 1 .5.5v13.14a3.614 3.614 0 0 1 -3.61 3.61zm-29.39-16.25v12.64a2.613 2.613 0 0 0 2.61 2.61h26.78a2.613 2.613 0 0 0 2.61-2.61v-12.64z"/></g><path d="m24.482 58.565a.84.84 0 0 0 -.841.841v.025a.841.841 0 0 0 1.681 0v-.025a.84.84 0 0 0 -.84-.841z" fill="#dbd8dd"/><path d="m24.482 61.427a.84.84 0 0 0 -.841.841v4.7a.84.84 0 0 0 .841.841h6.987a.841.841 0 1 0 0-1.681h-6.146v-3.86a.84.84 0 0 0 -.841-.841z" fill="#dbd8dd"/></svg>