<svg id="line_color" height="512" viewBox="0 0 74 74" width="512" xmlns="http://www.w3.org/2000/svg" data-name="line color"><g fill="#323c6b"><path d="m15.579 13.889a.494.494 0 0 1 -.265-.076.5.5 0 0 1 -.159-.689 31.727 31.727 0 0 1 9.337-9.775.5.5 0 0 1 .547.838 30.708 30.708 0 0 0 -9.039 9.467.5.5 0 0 1 -.421.235z"/><path d="m13.327 18.042a.5.5 0 0 1 -.453-.711q.284-.611.589-1.207a.5.5 0 1 1 .891.453q-.294.58-.573 1.176a.5.5 0 0 1 -.454.289z"/><path d="m60.368 57.073a.494.494 0 0 1 -.289-.092.5.5 0 0 1 -.118-.7l.708-1a.5.5 0 1 1 .816.576l-.71 1a.5.5 0 0 1 -.407.216z"/><path d="m62.1 53.507a.512.512 0 0 1 -.171-.03.5.5 0 0 1 -.3-.641 45.518 45.518 0 0 0 2.459-10.857.513.513 0 0 1 .548-.446.5.5 0 0 1 .446.549 46.474 46.474 0 0 1 -2.514 11.1.5.5 0 0 1 -.468.325z"/></g><ellipse cx="37.002" cy="37.002" fill="#fed19a" rx="24.843" ry="34"/><path d="m37 71.5c-13.974 0-25.344-15.475-25.344-34.5s11.37-34.5 25.344-34.5 25.344 15.478 25.344 34.5-11.368 34.5-25.344 34.5zm0-68c-13.422 0-24.344 15.029-24.344 33.5s10.922 33.5 24.344 33.5 24.344-15.027 24.344-33.5-10.919-33.5-24.344-33.5z" fill="#323c6b"/><path d="m37 3c-.451 0-.9.019-1.344.051 13.1.955 23.5 15.787 23.5 33.952s-10.4 32.991-23.5 33.946c.445.032.893.051 1.344.051 13.72 0 24.84-15.221 24.84-34s-11.117-34-24.84-34z" fill="#f4bb87"/><path d="m37 9c-10.475 0-19 12.562-19 28s8.525 28 19 28 19-12.56 19-28-8.522-28-19-28z" fill="#b6d2dd"/><path d="m37 65.5c-10.751 0-19.5-12.784-19.5-28.5s8.749-28.5 19.5-28.5 19.5 12.786 19.5 28.5-8.746 28.5-19.5 28.5zm0-56c-10.2 0-18.5 12.338-18.5 27.5s8.3 27.5 18.5 27.5 18.5-12.335 18.5-27.5-8.3-27.5-18.5-27.5z" fill="#323c6b"/><path d="m48.17 13.66-.62.76a23.159 23.159 0 0 1 3.09 4.04l.66-.8a24.3 24.3 0 0 0 -3.13-4zm4.46 6.35-.68.84a31.024 31.024 0 0 1 1.56 3.77l.73-.89a30.433 30.433 0 0 0 -1.61-3.72zm2.04 4.96-.75.92a38.782 38.782 0 0 1 1.58 11.11c0 15.17-8.3 27.5-18.5 27.5a14.722 14.722 0 0 1 -10.68-5.06l-.63.77c3.19 3.33 7.1 5.29 11.31 5.29 10.75 0 19.5-12.78 19.5-28.5a39.339 39.339 0 0 0 -1.83-12.03zm-31.3 30.6-.66.8a24.121 24.121 0 0 0 2.33 3.12l.63-.77a22.789 22.789 0 0 1 -2.3-3.15zm13.63-47.07c-10.75 0-19.5 12.79-19.5 28.5a39.386 39.386 0 0 0 1.32 10.26l.78-.95a39.386 39.386 0 0 1 -1.1-9.31c0-15.16 8.3-27.5 18.5-27.5a14.232 14.232 0 0 1 9.48 3.89l.62-.76a15.134 15.134 0 0 0 -10.1-4.13z" fill="#323c6b"/><path d="m37 71.5c-13.974 0-25.344-15.475-25.344-34.5s11.37-34.5 25.344-34.5 25.344 15.478 25.344 34.5-11.368 34.5-25.344 34.5zm0-68c-13.422 0-24.344 15.029-24.344 33.5s10.922 33.5 24.344 33.5 24.344-15.027 24.344-33.5-10.919-33.5-24.344-33.5z" fill="#323c6b"/><g opacity=".5"><path d="m51.95 20.85-28.58 34.72c-.43-.7-.85-1.44-1.23-2.21l28.5-34.9a22.83 22.83 0 0 1 1.31 2.39z" fill="#eeefee"/></g><g opacity=".5"><path d="m47.55 14.42-27.54 33.45c-.15-.51-.29-1.03-.41-1.56l26.88-32.92c.37.33.72.67 1.07 1.03z" fill="#eeefee"/></g><g opacity=".5"><path d="m53.92 25.89-27.6 33.55c-.23-.23-.44-.47-.65-.72l27.84-34.1c.15.42.28.84.41 1.27z" fill="#eeefee"/></g></svg>