<svg id="line_color" height="512" viewBox="0 0 74 74" width="512" xmlns="http://www.w3.org/2000/svg" data-name="line color"><path d="m61.346 1.471a.5.5 0 0 1 -.163-.971l.376-.125a.5.5 0 1 1 .3.953l-.353.117a.506.506 0 0 1 -.16.026z" fill="#323c6b"/><path d="m54.88 5.6a.5.5 0 0 1 -.365-.842 15.986 15.986 0 0 1 4.691-3.442.5.5 0 0 1 .438.9 14.982 14.982 0 0 0 -4.4 3.227.5.5 0 0 1 -.364.157z" fill="#323c6b"/><path d="m66.739 3.059v27.83a.054.054 0 0 1 -.059.059c-.721 0-8.3-.177-11.8-7.355v-13.238c3.504-7.164 11.079-7.355 11.8-7.355a.054.054 0 0 1 .059.059z" fill="#bbbbcd"/><path d="m66.68 31.448c-.872 0-8.627-.214-12.246-7.635l-.051-.1v-13.474l.051-.1c3.627-7.425 11.375-7.639 12.246-7.639h.5l.06.559v28.33zm-11.3-7.971a12.828 12.828 0 0 0 10.856 6.958v-26.922a12.836 12.836 0 0 0 -10.856 6.958z" fill="#323c6b"/><path d="m66.68 3a13.556 13.556 0 0 0 -2.941.4v27.155a13.563 13.563 0 0 0 2.941.393.054.054 0 0 0 .059-.059v-27.83a.054.054 0 0 0 -.059-.059z" fill="#9a9eaf"/><rect fill="#dbd8dd" height="5.09" rx="2.545" width="39.723" x="7.261" y="43.453"/><path d="m44.439 49.042h-34.633a3.045 3.045 0 0 1 0-6.09h34.633a3.045 3.045 0 0 1 0 6.09zm-34.633-5.089a2.045 2.045 0 1 0 0 4.09h34.633a2.045 2.045 0 0 0 0-4.09z" fill="#323c6b"/><path d="m44.439 43.453h-3a2.545 2.545 0 1 1 0 5.089h3a2.545 2.545 0 1 0 0-5.089z" fill="#bbbbcd"/><path d="m45.276 35.949a.5.5 0 0 1 -.437-.256c-.067-.121-.136-.24-.206-.358a.5.5 0 0 1 .861-.51q.111.189.218.38a.5.5 0 0 1 -.437.744z" fill="#323c6b"/><path d="m43.891 33.851a.5.5 0 0 1 -.4-.194 15.965 15.965 0 0 0 -7.134-5.227.5.5 0 1 1 .344-.939 16.973 16.973 0 0 1 7.581 5.554.5.5 0 0 1 -.4.806z" fill="#323c6b"/><path d="m44.35 43.45h-34.45a13.475 13.475 0 0 1 12.68-13.46q.4-.03.81-.03h7.47q.405 0 .81.03a13.48 13.48 0 0 1 12.68 13.46z" fill="#eeefee"/><path d="m44.85 43.95h-35.45v-.5a13.973 13.973 0 0 1 13.152-13.959c.272-.021.556-.031.838-.031h7.47c.282 0 .565.01.848.032a13.994 13.994 0 0 1 13.142 13.958zm-34.439-1h33.429a13 13 0 0 0 -12.2-12.461c-.266-.02-.523-.029-.78-.029h-7.47c-.257 0-.515.009-.771.029a12.972 12.972 0 0 0 -12.209 12.461z" fill="#323c6b"/><path d="m31.67 29.99q-.4-.03-.81-.03h-4q.405 0 .81.03a13.48 13.48 0 0 1 12.68 13.46h4a13.48 13.48 0 0 0 -12.68-13.46z" fill="#dbd8dd"/><path d="m44.85 43.95h-35.45v-.5a13.973 13.973 0 0 1 13.152-13.959c.272-.021.556-.031.838-.031h7.47c.282 0 .565.01.848.032a13.994 13.994 0 0 1 13.142 13.958zm-34.439-1h33.429a13 13 0 0 0 -12.2-12.461c-.266-.02-.523-.029-.78-.029h-7.47c-.257 0-.515.009-.771.029a12.972 12.972 0 0 0 -12.209 12.461z" fill="#323c6b"/><path d="m44.439 49.042h-34.633a3.045 3.045 0 0 1 0-6.09h34.633a3.045 3.045 0 0 1 0 6.09zm-34.633-5.089a2.045 2.045 0 1 0 0 4.09h34.633a2.045 2.045 0 0 0 0-4.09z" fill="#323c6b"/><path d="m31.67 29.76v.23q-.4-.03-.81-.03h-7.47q-.405 0-.81.03v-.23a4.552 4.552 0 0 1 7.07-3.79 5.274 5.274 0 0 1 .68.57 4.527 4.527 0 0 1 1.34 3.22z" fill="#dbd8dd"/><path d="m32.17 30.53-.538-.041c-.257-.02-.515-.029-.771-.029h-7.471c-.257 0-.515.009-.771.029l-.538.041v-.77a5.036 5.036 0 0 1 2.254-4.207 5.14 5.14 0 0 1 5.594 0 6.005 6.005 0 0 1 .756.633 5.054 5.054 0 0 1 1.485 3.574zm-5.04-4.82a4.046 4.046 0 0 0 -4.039 3.754q.149 0 .3 0h7.469q.149 0 .3 0a4.046 4.046 0 0 0 -1.181-2.564 4.875 4.875 0 0 0 -.618-.519 4.028 4.028 0 0 0 -2.231-.671z" fill="#323c6b"/><path d="m30.33 26.54a5.274 5.274 0 0 0 -.68-.57 4.505 4.505 0 0 0 -4.02-.5 4.525 4.525 0 0 1 1.02.5 5.274 5.274 0 0 1 .68.57 4.527 4.527 0 0 1 1.34 3.22v.2h2.19q.405 0 .81.03v-.23a4.527 4.527 0 0 0 -1.34-3.22z" fill="#bbbbcd"/><path d="m22.58 29.99q.4-.03.81-.03h-.81z" fill="#bbbbcd"/><path d="m54.88 14.46v5.04h-25.23v6.47a4.558 4.558 0 0 0 -5.04 0v-6.58a4.934 4.934 0 0 1 4.93-4.93z" fill="#eeefee"/><path d="m24.11 26.9v-7.51a5.436 5.436 0 0 1 5.43-5.43h25.84v6.04h-25.23v6.9l-.777-.517a4.122 4.122 0 0 0 -4.485 0zm3.02-2.194a5.048 5.048 0 0 1 2.021.419v-6.125h25.229v-4.04h-24.84a4.435 4.435 0 0 0 -4.43 4.43v5.739a5.043 5.043 0 0 1 2.02-.419z" fill="#323c6b"/><path d="m29.54 14.46a4.934 4.934 0 0 0 -4.93 4.93v2a4.934 4.934 0 0 1 4.93-4.93h25.34v-2z" fill="#dbd8dd"/><g fill="#323c6b"><path d="m43.153 60.131a.5.5 0 0 1 -.5-.5v-7.231a.5.5 0 0 1 1 0v7.232a.5.5 0 0 1 -.5.499z"/><path d="m43.153 68.65a.5.5 0 0 1 -.5-.5v-3.861a.5.5 0 0 1 1 0v3.861a.5.5 0 0 1 -.5.5z"/><path d="m38.572 55.273a.5.5 0 0 1 -.5-.5v-2.373a.5.5 0 0 1 1 0v2.375a.5.5 0 0 1 -.5.498z"/><path d="m38.572 66.352a.5.5 0 0 1 -.5-.5v-7.493a.5.5 0 0 1 1 0v7.493a.5.5 0 0 1 -.5.5z"/><path d="m38.572 71.5a.5.5 0 0 1 -.5-.5v-1.471a.5.5 0 0 1 1 0v1.471a.5.5 0 0 1 -.5.5z"/><path d="m33.993 60.131a.5.5 0 0 1 -.5-.5v-7.231a.5.5 0 0 1 1 0v7.232a.5.5 0 0 1 -.5.499z"/><path d="m33.993 68.65a.5.5 0 0 1 -.5-.5v-3.861a.5.5 0 0 1 1 0v3.861a.5.5 0 0 1 -.5.5z"/><path d="m29.412 55.273a.5.5 0 0 1 -.5-.5v-2.373a.5.5 0 0 1 1 0v2.375a.5.5 0 0 1 -.5.498z"/><path d="m29.412 66.352a.5.5 0 0 1 -.5-.5v-7.493a.5.5 0 0 1 1 0v7.493a.5.5 0 0 1 -.5.5z"/><path d="m29.412 71.5a.5.5 0 0 1 -.5-.5v-1.471a.5.5 0 0 1 1 0v1.471a.5.5 0 0 1 -.5.5z"/><path d="m24.833 60.131a.5.5 0 0 1 -.5-.5v-7.231a.5.5 0 0 1 1 0v7.232a.5.5 0 0 1 -.5.499z"/><path d="m24.833 68.65a.5.5 0 0 1 -.5-.5v-3.861a.5.5 0 0 1 1 0v3.861a.5.5 0 0 1 -.5.5z"/><path d="m20.252 55.273a.5.5 0 0 1 -.5-.5v-2.373a.5.5 0 0 1 1 0v2.375a.5.5 0 0 1 -.5.498z"/><path d="m20.252 66.352a.5.5 0 0 1 -.5-.5v-7.493a.5.5 0 0 1 1 0v7.493a.5.5 0 0 1 -.5.5z"/><path d="m20.252 71.5a.5.5 0 0 1 -.5-.5v-1.471a.5.5 0 0 1 1 0v1.471a.5.5 0 0 1 -.5.5z"/><path d="m15.673 60.131a.5.5 0 0 1 -.5-.5v-7.231a.5.5 0 0 1 1 0v7.232a.5.5 0 0 1 -.5.499z"/><path d="m15.673 68.65a.5.5 0 0 1 -.5-.5v-3.861a.5.5 0 0 1 1 0v3.861a.5.5 0 0 1 -.5.5z"/><path d="m11.092 55.273a.5.5 0 0 1 -.5-.5v-2.373a.5.5 0 0 1 1 0v2.375a.5.5 0 0 1 -.5.498z"/><path d="m11.092 66.352a.5.5 0 0 1 -.5-.5v-7.493a.5.5 0 0 1 1 0v7.493a.5.5 0 0 1 -.5.5z"/><path d="m11.092 71.5a.5.5 0 0 1 -.5-.5v-1.471a.5.5 0 0 1 1 0v1.471a.5.5 0 0 1 -.5.5z"/><path d="m66.68 31.448c-.872 0-8.627-.214-12.246-7.635l-.051-.1v-13.474l.051-.1c3.627-7.425 11.375-7.639 12.246-7.639h.5l.06.559v28.33zm-11.3-7.971a12.828 12.828 0 0 0 10.856 6.958v-26.922a12.836 12.836 0 0 0 -10.856 6.958z"/><path d="m24.11 26.9v-7.51a5.436 5.436 0 0 1 5.43-5.43h25.84v6.04h-25.23v6.9l-.777-.517a4.122 4.122 0 0 0 -4.485 0zm3.02-2.194a5.048 5.048 0 0 1 2.021.419v-6.125h25.229v-4.04h-24.84a4.435 4.435 0 0 0 -4.43 4.43v5.739a5.043 5.043 0 0 1 2.02-.419z"/><path d="m32.17 30.53-.538-.041c-.257-.02-.515-.029-.771-.029h-7.471c-.257 0-.515.009-.771.029l-.538.041v-.77a5.036 5.036 0 0 1 2.254-4.207 5.14 5.14 0 0 1 5.594 0 6.005 6.005 0 0 1 .756.633 5.054 5.054 0 0 1 1.485 3.574zm-5.04-4.82a4.046 4.046 0 0 0 -4.039 3.754q.149 0 .3 0h7.469q.149 0 .3 0a4.046 4.046 0 0 0 -1.181-2.564 4.875 4.875 0 0 0 -.618-.519 4.028 4.028 0 0 0 -2.231-.671z"/></g><path d="m22.249 33.129c0-.018-.011-.036-.017-.054-.135-.372-.353-.652-.851-.507-.807.234 0-.007-.8.242-.432.134-.488.525-.359.908a.718.718 0 0 0 .927.414l.622-.2a.662.662 0 0 0 .478-.803z" fill="#dbd8dd"/><path d="m19.207 34.521a.706.706 0 0 0 -.1-.239.812.812 0 0 0 -1.035-.282 7.986 7.986 0 0 0 -4.642 6.494c-.007.38.065.765.455.917s1.005.012.961-.366a6.875 6.875 0 0 1 4.021-5.815.641.641 0 0 0 .34-.709z" fill="#dbd8dd"/></svg>