<?xml version="1.0" encoding="iso-8859-1"?>
<!-- Generator: Adobe Illustrator 24.1.2, SVG Export Plug-In . SVG Version: 6.00 Build 0)  -->
<svg xmlns="http://www.w3.org/2000/svg" xmlns:xlink="http://www.w3.org/1999/xlink" version="1.1" id="line_color" x="0px" y="0px" viewBox="0 0 512 512" style="enable-background:new 0 0 512 512;" xml:space="preserve" width="512" height="512">
<g>
	<path style="fill:#323C6B;" d="M141.942,41.35c-1.911,0.007-3.465-1.537-3.471-3.447c-0.002-0.48,0.097-0.956,0.289-1.396   c0.677-1.592,1.439-3.146,2.283-4.656c0.886-1.693,2.977-2.346,4.669-1.46c1.693,0.886,2.346,2.977,1.46,4.669   c-0.028,0.054-0.058,0.108-0.089,0.16c-0.722,1.298-1.376,2.633-1.958,3.999C144.589,40.505,143.335,41.345,141.942,41.35z    M154.008,24.744c-1.911-0.002-3.458-1.553-3.455-3.463c0.001-0.995,0.431-1.942,1.179-2.597   c8.879-7.8,20.286-12.114,32.104-12.143h14.218c1.911,0,3.459,1.549,3.459,3.459s-1.549,3.459-3.459,3.459h-14.218   c-10.143,0.031-19.929,3.741-27.544,10.441c-0.633,0.551-1.444,0.854-2.283,0.851L154.008,24.744z"/>
	<path style="fill:#EEEFEE;" d="M311.144,155.366H200.787c0-8.441-0.138-32.104,0.069-35.563c0.452-7.141,6.337-12.724,13.492-12.8   c9.133-0.069,18.266,0,27.814,0V58.432h-55.559c0,4.082,0.761,8.372,0.692,12.385c-0.069,6.435-1.868,8.303-8.164,8.372   c-3.944,0-8.649,0.069-12.592-0.069c-4.843-0.069-7.265-2.214-7.403-6.85c0,0,0-18.612,0.069-18.612v-0.277   c1.105-12.786,11.798-22.608,24.631-22.625h106.136c4.027-0.023,7.311,3.223,7.334,7.251c0,0.028,0,0.056,0,0.083v13.354   c-0.163,3.821-3.302,6.838-7.126,6.85c-6.642,0.069-13.284,0-20.342,0v48.709c3.875,0,22.902-0.069,28.714,0.069   c6.869,0.176,12.385,5.723,12.523,12.592C311.282,131.496,311.144,143.328,311.144,155.366L311.144,155.366z"/>
	<path style="fill:#323C6B;" d="M311.144,158.826H200.787c-1.911,0-3.459-1.549-3.459-3.459v-8.51   c-0.042-13.43-0.055-24.749,0.097-27.254c0.558-8.956,7.937-15.96,16.91-16.052c6.075-0.048,12.15,0,18.342,0h6.026V61.892h-48.488   c0.055,0.726,0.125,1.46,0.187,2.193c0.233,2.255,0.351,4.52,0.353,6.787c-0.09,8.268-3.459,11.679-11.582,11.762h-3.024   c-3.245,0-6.698,0-9.721-0.076c-5.346,0.569-10.141-3.304-10.71-8.65c-0.054-0.51-0.068-1.023-0.042-1.535   c0-10.24,0-15.747,0.346-18.716h-0.277c1.092-14.751,13.3-26.207,28.091-26.361h106.136c5.958,0.008,10.786,4.836,10.794,10.794   v13.354c-0.203,5.715-4.868,10.257-10.586,10.309c-4.38,0.048-8.794,0-13.326,0h-3.556v41.776c6.919,0,20.549,0,25.309,0.076   c8.742,0.174,15.777,7.24,15.914,15.983c0.145,8.448,0.125,16.889,0.09,25.399v10.378c0,1.911-1.549,3.459-3.459,3.459   C311.148,158.826,311.146,158.826,311.144,158.826z M204.24,151.907h103.452v-6.919c0-8.462,0.055-16.854-0.09-25.247   c-0.133-4.998-4.136-9.029-9.133-9.195c-4.739-0.111-18.245-0.083-25.143-0.076h-3.487c-1.911,0-3.459-1.549-3.459-3.459V58.294   c0-1.911,1.549-3.459,3.459-3.459h7.037h13.264c1.975,0.01,3.609-1.535,3.709-3.508V38.091c0.023-2.117-1.674-3.852-3.791-3.875   c-0.028,0-0.056,0-0.083,0H183.836c-11.011,0.088-20.167,8.499-21.186,19.463v0.214c-0.055,1.328-0.055,18.377-0.055,18.377   c0.069,2.318,0.643,3.342,3.992,3.39c3.003,0.104,6.372,0.09,9.52,0.076h3.024c4.151-0.042,4.65-0.208,4.705-4.947   c-0.004-2.034-0.112-4.066-0.325-6.089c-0.159-2.117-0.367-4.193-0.367-6.269c0-1.911,1.549-3.459,3.459-3.459h55.559   c1.911,0,3.459,1.549,3.459,3.459v48.571c0,1.911-1.549,3.459-3.459,3.459h-9.527c-6.172,0-12.219,0-18.259,0   c-5.34,0.051-9.734,4.218-10.067,9.548c-0.152,2.505-0.111,17.145-0.083,26.825L204.24,151.907z"/>
	<path style="fill:#DBD8DD;" d="M256,58.294v48.709h13.838V58.308L256,58.294z"/>
	<path style="fill:#DBD8DD;" d="M283.468,38.091v13.354c-0.163,3.821-3.302,6.838-7.126,6.85c-1.066,0-2.138,0-3.203,0   c5.826,0,11.458,0.048,17.041,0c3.825-0.011,6.964-3.029,7.126-6.85V38.091c0.023-4.027-3.223-7.311-7.251-7.334   c-0.028,0-0.056,0-0.083,0h-13.838c4.027-0.023,7.311,3.223,7.334,7.251C283.468,38.035,283.468,38.063,283.468,38.091z"/>
	<path style="fill:#DBD8DD;" d="M311.075,119.665c-0.138-6.87-5.654-12.416-12.523-12.592c-4.29-0.104-15.761-0.09-23.04-0.076   c3.819,0,7.272,0,9.202,0.076c6.869,0.176,12.385,5.723,12.523,12.592c0.208,11.831,0.069,23.663,0.069,35.702h13.838   C311.144,143.328,311.282,131.496,311.075,119.665L311.075,119.665z"/>
	<path style="fill:#323C6B;" d="M145.297,283.228h-0.069c-1.911-0.019-3.444-1.583-3.425-3.494c0.019-1.911,1.583-3.444,3.494-3.425   c1.911,0.019,3.444,1.583,3.425,3.494C148.703,281.687,147.181,283.209,145.297,283.228z"/>
	<path style="fill:#EEEFEE;" d="M290.525,295.198v93.751c0.889,7.591-4.544,14.464-12.135,15.353   c-1.048,0.123-2.107,0.125-3.156,0.007H145.228c0-38.884,0-86.971,0.069-124.541h129.591c7.654-0.97,14.645,4.449,15.615,12.102   C290.643,292.975,290.651,294.092,290.525,295.198z"/>
	<path style="fill:#323C6B;" d="M275.235,407.769H145.228c-1.911,0-3.459-1.549-3.459-3.459c0-38.891,0-86.978,0.069-124.541   c0-1.911,1.549-3.459,3.459-3.459h129.591c9.591-0.946,18.132,6.062,19.078,15.653c0.106,1.074,0.112,2.155,0.018,3.229v93.758   c0.878,9.513-6.122,17.936-15.634,18.814C277.314,407.859,276.271,407.861,275.235,407.769L275.235,407.769z M148.688,400.85   h126.547c5.701,0.838,11.002-3.104,11.84-8.805c0.151-1.026,0.148-2.07-0.009-3.095v-93.751c0.818-5.804-3.224-11.173-9.029-11.991   c-1.045-0.147-2.106-0.138-3.148,0.028H148.757C148.694,319.13,148.688,363.799,148.688,400.85L148.688,400.85z"/>
	<path style="fill:#323C6B;" d="M387.459,331.301c-1.911,0-3.459-1.549-3.459-3.459v-7.784c0-1.911,1.549-3.459,3.459-3.459   s3.459,1.549,3.459,3.459v7.784C390.919,329.752,389.37,331.301,387.459,331.301z"/>
	<path style="fill:#323C6B;" d="M387.459,305.784c-1.911,0-3.459-1.549-3.459-3.459v-75.243c0-1.911,1.549-3.459,3.459-3.459   s3.459,1.549,3.459,3.459v75.243C390.919,304.235,389.37,305.784,387.459,305.784z"/>
	<path style="fill:#B6D2DD;" d="M366.772,218.744c-0.069,86.832,0,166.746-0.069,253.509c0.803,15.214-10.879,28.198-26.093,29.001   c-1.034,0.055-2.071,0.051-3.104-0.011H174.426c-15.198,0.885-28.236-10.717-29.121-25.915c-0.06-1.024-0.062-2.051-0.007-3.075   c0-6.711,0-33.764-0.069-67.944h130.006c7.595,0.854,14.444-4.61,15.298-12.204c0.118-1.049,0.116-2.108-0.007-3.156v-93.751   c0.867-7.666-4.644-14.584-12.31-15.451c-1.106-0.125-2.223-0.118-3.327,0.022H145.297v-61.302   c-0.583-15.274,11.326-28.128,26.6-28.711c0.681-0.026,1.363-0.027,2.044-0.002H337.92c15.382-0.555,28.302,11.464,28.857,26.845   C366.803,217.314,366.801,218.029,366.772,218.744L366.772,218.744z"/>
	<path style="fill:#323C6B;" d="M337.505,504.703H174.426c-17.176,0.819-31.763-12.442-32.582-29.618   c-0.045-0.943-0.047-1.888-0.006-2.832c0-6.711,0-33.757-0.069-67.937c0-1.911,1.549-3.459,3.459-3.459h130.006   c5.701,0.838,11.002-3.104,11.84-8.805c0.151-1.027,0.148-2.07-0.009-3.095v-93.758c0.818-5.804-3.224-11.173-9.029-11.991   c-1.045-0.147-2.106-0.138-3.148,0.028H145.297c-1.911,0-3.459-1.549-3.459-3.459v-61.309   c-0.609-17.158,12.806-31.561,29.964-32.171c0.713-0.025,1.427-0.026,2.14-0.002H337.92c17.286-0.562,31.754,12.995,32.316,30.281   c0.023,0.723,0.022,1.446-0.005,2.169v126.775c0,0,0,83.352,0,126.734c0.749,17.179-12.57,31.713-29.749,32.462   C339.49,504.759,338.497,504.754,337.505,504.703L337.505,504.703z M148.694,407.769c0.062,32.519,0.062,57.994,0.062,64.484   c-0.751,13.353,9.464,24.787,22.817,25.539c0.95,0.053,1.902,0.051,2.852-0.008h163.079c13.231,0.976,24.749-8.959,25.725-22.19   c0.082-1.112,0.087-2.228,0.014-3.341c0-43.389,0-85.054,0-126.727s0-83.366,0-126.782c0.655-13.439-9.709-24.863-23.147-25.518   c-0.748-0.036-1.497-0.038-2.245-0.006H173.942c-13.315-0.596-24.592,9.715-25.188,23.03c-0.033,0.741-0.032,1.483,0.003,2.224   v57.842h126.132c9.591-0.946,18.132,6.062,19.078,15.653c0.106,1.073,0.112,2.155,0.018,3.229v93.751   c0.878,9.513-6.122,17.936-15.634,18.814c-1.036,0.096-2.079,0.098-3.116,0.006H148.694z"/>
	<path style="fill:#ACC6CC;" d="M337.92,189.754h-20.757c15.382-0.555,28.302,11.464,28.857,26.845   c0.026,0.715,0.024,1.43-0.005,2.145c-0.069,86.832,0,166.746-0.069,253.509c0.803,15.214-10.879,28.198-26.093,29.001   c-1.034,0.055-2.071,0.051-3.104-0.011h20.757c15.208,0.912,28.275-10.678,29.187-25.886c0.062-1.034,0.066-2.07,0.011-3.104   c0.069-86.763,0-166.677,0.069-253.509c0.629-15.379-11.328-28.356-26.707-28.985C339.35,189.729,338.635,189.728,337.92,189.754   L337.92,189.754z"/>
	<path style="fill:#DBD8DD;" d="M332.385,172.941v16.813c-50.923-0.069-101.847-0.069-152.77,0v-16.813   c-0.019-9.687,7.818-17.555,17.505-17.574c0,0,0,0,0,0h117.76C324.567,155.386,332.404,163.254,332.385,172.941   C332.385,172.941,332.385,172.941,332.385,172.941z"/>
	<path style="fill:#323C6B;" d="M332.385,193.213c-50.923-0.074-101.847-0.074-152.77,0c-1.911,0-3.459-1.549-3.459-3.459v-16.813   c-0.004-11.591,9.373-20.999,20.964-21.034h117.76c11.591,0.034,20.968,9.442,20.964,21.034v16.813   C335.844,191.664,334.295,193.213,332.385,193.213z M256,186.239c24.308,0,48.617,0.016,72.925,0.048v-13.347   c0.012-7.773-6.272-14.088-14.045-14.115H197.12c-7.773,0.027-14.057,6.342-14.045,14.115v13.354   C207.383,186.257,231.692,186.239,256,186.239z"/>
	<path style="fill:#BBBBCD;" d="M314.88,155.366h-20.757c9.687,0.019,17.524,7.887,17.505,17.574c0,0,0,0,0,0v16.813h20.757v-16.813   C332.404,163.254,324.567,155.386,314.88,155.366C314.88,155.366,314.88,155.366,314.88,155.366L314.88,155.366z"/>
	<g>
		<path style="fill:#323C6B;" d="M249.655,325.101h-70.061c-1.911,0-3.459-1.549-3.459-3.459c0-1.911,1.549-3.459,3.459-3.459    h70.061c1.911,0,3.459,1.549,3.459,3.459C253.115,323.553,251.566,325.101,249.655,325.101z"/>
		<path style="fill:#323C6B;" d="M223.135,365.888h-43.541c-1.911,0-3.459-1.549-3.459-3.459s1.549-3.459,3.459-3.459h43.541    c1.911,0,3.459,1.549,3.459,3.459S225.046,365.888,223.135,365.888z"/>
		<path style="fill:#323C6B;" d="M311.144,158.826H200.787c-1.911,0-3.459-1.549-3.459-3.459v-8.51    c-0.042-13.43-0.055-24.749,0.097-27.254c0.558-8.956,7.937-15.96,16.91-16.052c6.075-0.048,12.15,0,18.342,0h6.026V61.892    h-48.488c0.055,0.726,0.125,1.46,0.187,2.193c0.233,2.255,0.351,4.52,0.353,6.787c-0.09,8.268-3.459,11.679-11.582,11.762h-3.024    c-3.245,0-6.698,0-9.721-0.076c-5.346,0.569-10.141-3.304-10.71-8.65c-0.054-0.51-0.068-1.023-0.042-1.535    c0-10.24,0-15.747,0.346-18.716h-0.277c1.092-14.751,13.3-26.207,28.091-26.361h106.136c5.958,0.008,10.786,4.836,10.794,10.794    v13.354c-0.203,5.715-4.868,10.257-10.586,10.309c-4.38,0.048-8.794,0-13.326,0h-3.556v41.776c6.919,0,20.549,0,25.309,0.076    c8.742,0.174,15.777,7.24,15.914,15.983c0.145,8.448,0.125,16.889,0.09,25.399v10.378c0,1.911-1.549,3.459-3.459,3.459    C311.148,158.826,311.146,158.826,311.144,158.826z M204.24,151.907h103.452v-6.919c0-8.462,0.055-16.854-0.09-25.247    c-0.133-4.998-4.136-9.029-9.133-9.195c-4.739-0.111-18.245-0.083-25.143-0.076h-3.487c-1.911,0-3.459-1.549-3.459-3.459V58.294    c0-1.911,1.549-3.459,3.459-3.459h7.037h13.264c1.975,0.01,3.609-1.535,3.709-3.508V38.091c0.023-2.117-1.674-3.852-3.791-3.875    c-0.028,0-0.056,0-0.083,0H183.836c-11.011,0.088-20.167,8.499-21.186,19.463v0.214c-0.055,1.328-0.055,18.377-0.055,18.377    c0.069,2.318,0.643,3.342,3.992,3.39c3.003,0.104,6.372,0.09,9.52,0.076h3.024c4.151-0.042,4.65-0.208,4.705-4.947    c-0.004-2.034-0.112-4.066-0.325-6.089c-0.159-2.117-0.367-4.193-0.367-6.269c0-1.911,1.549-3.459,3.459-3.459h55.559    c1.911,0,3.459,1.549,3.459,3.459v48.571c0,1.911-1.549,3.459-3.459,3.459h-9.527c-6.172,0-12.219,0-18.259,0    c-5.34,0.051-9.734,4.218-10.067,9.548c-0.152,2.505-0.111,17.145-0.083,26.825L204.24,151.907z"/>
		<path style="fill:#323C6B;" d="M332.385,193.213c-50.923-0.074-101.847-0.074-152.77,0c-1.911,0-3.459-1.549-3.459-3.459v-16.813    c-0.004-11.591,9.373-20.999,20.964-21.034h117.76c11.591,0.034,20.968,9.442,20.964,21.034v16.813    C335.844,191.664,334.295,193.213,332.385,193.213z M256,186.239c24.308,0,48.617,0.016,72.925,0.048v-13.347    c0.012-7.773-6.272-14.088-14.045-14.115H197.12c-7.773,0.027-14.057,6.342-14.045,14.115v13.354    C207.383,186.257,231.692,186.239,256,186.239z"/>
		<path style="fill:#323C6B;" d="M337.505,504.703H174.426c-17.176,0.819-31.763-12.442-32.582-29.618    c-0.045-0.943-0.047-1.888-0.006-2.832c0-6.711,0-33.757-0.069-67.937c0-1.911,1.549-3.459,3.459-3.459h130.006    c5.701,0.838,11.002-3.104,11.84-8.805c0.151-1.027,0.148-2.07-0.009-3.095v-93.758c0.818-5.804-3.224-11.173-9.029-11.991    c-1.045-0.147-2.106-0.138-3.148,0.028H145.297c-1.911,0-3.459-1.549-3.459-3.459v-61.309    c-0.609-17.158,12.806-31.561,29.964-32.171c0.713-0.025,1.427-0.026,2.14-0.002H337.92c17.286-0.562,31.754,12.995,32.316,30.281    c0.023,0.723,0.022,1.446-0.005,2.169v126.775c0,0,0,83.352,0,126.734c0.749,17.179-12.57,31.713-29.749,32.462    C339.49,504.759,338.497,504.754,337.505,504.703L337.505,504.703z M148.694,407.769c0.062,32.519,0.062,57.994,0.062,64.484    c-0.751,13.353,9.464,24.787,22.817,25.539c0.95,0.053,1.902,0.051,2.852-0.008h163.079c13.231,0.976,24.749-8.959,25.725-22.19    c0.082-1.112,0.087-2.228,0.014-3.341c0-43.389,0-85.054,0-126.727s0-83.366,0-126.782c0.655-13.439-9.709-24.863-23.147-25.518    c-0.748-0.036-1.497-0.038-2.245-0.006H173.942c-13.315-0.596-24.592,9.715-25.188,23.03c-0.033,0.741-0.032,1.483,0.003,2.224    v57.842h126.132c9.591-0.946,18.132,6.062,19.078,15.653c0.106,1.073,0.112,2.155,0.018,3.229v93.751    c0.878,9.513-6.122,17.936-15.634,18.814c-1.036,0.096-2.079,0.098-3.116,0.006H148.694z"/>
	</g>
	<path style="fill:#FFFFFF;" d="M285.184,484.403h-71.957c-3.107,0.023-5.644-2.477-5.667-5.583c0-0.005,0-0.009,0-0.014   c-0.012-3.123,2.503-5.668,5.625-5.694h71.957c3.005-0.122,5.54,2.214,5.662,5.219c0.002,0.055,0.004,0.109,0.004,0.164   C290.838,481.659,288.347,484.276,285.184,484.403z"/>
	<path style="fill:#FFFFFF;" d="M189.343,484.403h-3.024c-3.056,0.073-5.592-2.346-5.665-5.402   c-0.001-0.044-0.002-0.089-0.002-0.133c-0.023-3.142,2.483-5.72,5.625-5.784h3.024c3.138,0.038,5.663,2.591,5.667,5.729   c0.031,3.057-2.422,5.56-5.479,5.591C189.441,484.404,189.392,484.403,189.343,484.403z"/>
</g>
</svg>
