<svg id="line_color" height="512" viewBox="0 0 74 74" width="512" xmlns="http://www.w3.org/2000/svg" data-name="line color"><path d="m58.09 5.93v11.65a2.036 2.036 0 0 1 -2.01 2.04l-4.12.06v-15.92l4.15.13a2.043 2.043 0 0 1 1.98 2.04z" fill="#eeefee"/><path d="m51.96 20.18a.5.5 0 0 1 -.5-.5v-15.92a.5.5 0 0 1 .152-.359.483.483 0 0 1 .364-.141l4.15.13a2.554 2.554 0 0 1 2.464 2.54v11.65a2.542 2.542 0 0 1 -2.505 2.54l-4.117.06zm.5-15.9v14.9l3.613-.053a1.54 1.54 0 0 0 1.517-1.54v-11.657a1.548 1.548 0 0 0 -1.49-1.54z" fill="#323c6b"/><path d="m56.11 3.89-4.15-.13v.094l1.15.036a2.043 2.043 0 0 1 1.98 2.04v11.65a2.036 2.036 0 0 1 -2.01 2.04l-1.12.016v.044l4.12-.06a2.036 2.036 0 0 0 2.01-2.04v-11.65a2.043 2.043 0 0 0 -1.98-2.04z" fill="#dbd8dd"/><path d="m41.923.956h-.016l-.756-.023a.5.5 0 0 1 -.485-.515.516.516 0 0 1 .515-.485l.757.023a.5.5 0 0 1 -.015 1z" fill="#323c6b"/><path d="m38.664.858h-.016l-9.574-.289a.5.5 0 0 1 -.485-.515.51.51 0 0 1 .511-.485l9.575.289a.5.5 0 0 1 -.015 1z" fill="#323c6b"/><path d="m51.96 3.76v15.92l-19.46.27a14.846 14.846 0 1 1 -14.66-17.22z" fill="#bbbbcd"/><path d="m17.84 32.91a15.34 15.34 0 0 1 0-30.68l34.135 1.03a.5.5 0 0 1 .485.5v15.92a.5.5 0 0 1 -.493.5l-19.045.264a15.368 15.368 0 0 1 -15.082 12.466zm-.015-29.68a14.334 14.334 0 1 0 14.181 16.641.5.5 0 0 1 .487-.42l18.967-.263v-14.943z" fill="#323c6b"/><path d="m48.96 19.258-19.46.27a14.736 14.736 0 0 1 -13.145 12.8 14.843 14.843 0 0 0 16.145-12.378l19.46-.27" fill="#9a9eaf"/><path d="m66.72 6.257h-5.22a.5.5 0 0 1 0-1h5.22a.5.5 0 0 1 0 1z" fill="#323c6b"/><path d="m66.72 15.151h-5.22a.5.5 0 0 1 0-1h5.22a.5.5 0 0 1 0 1z" fill="#323c6b"/><path d="m71 10.7h-9.5a.5.5 0 1 1 0-1h9.5a.5.5 0 1 1 0 1z" fill="#323c6b"/><path d="m9.088 17.572a8.733 8.733 0 1 0 8.739-8.728 8.729 8.729 0 0 0 -8.739 8.728z" fill="#eeefee"/><g fill="#323c6b"><path d="m17.827 26.8a9.228 9.228 0 1 1 9.228-9.228 9.244 9.244 0 0 1 -9.228 9.228zm0-17.456a8.228 8.228 0 1 0 8.228 8.228 8.243 8.243 0 0 0 -8.228-8.228z"/><path d="m25.075 13.208h-14.508a.5.5 0 0 1 0-1h14.508a.5.5 0 0 1 0 1z"/><path d="m25.075 22.936h-14.508a.5.5 0 0 1 0-1h14.508a.5.5 0 0 1 0 1z"/><path d="m26.552 18.072h-17.462a.5.5 0 1 1 0-1h17.462a.5.5 0 0 1 0 1z"/><path d="m11 46.049a.5.5 0 0 1 -.5-.479l-.4-9.3a.5.5 0 0 1 1-.043l.4 9.3a.5.5 0 0 1 -.478.521z"/><path d="m11.19 50.336a.5.5 0 0 1 -.5-.478l-.043-1a.5.5 0 0 1 .478-.521.489.489 0 0 1 .521.478l.043 1a.5.5 0 0 1 -.478.521z"/></g><path d="m25.12 30.5v26.63a3.474 3.474 0 0 1 -4.16 3.4l-3.88-.79a3.257 3.257 0 0 1 -2.59-3.03l-1.08-24.98a14.807 14.807 0 0 0 11.71-1.23z" fill="#dbd8dd"/><path d="m21.649 61.1a4.025 4.025 0 0 1 -.787-.078l-3.881-.79a3.751 3.751 0 0 1 -2.99-3.5l-1.08-24.982a.5.5 0 0 1 .649-.5 14.421 14.421 0 0 0 11.313-1.188.5.5 0 0 1 .747.435v26.633a3.974 3.974 0 0 1 -3.971 3.97zm-7.709-28.7 1.05 24.285a2.75 2.75 0 0 0 2.192 2.562l3.878.79a2.975 2.975 0 0 0 3.561-2.91v-25.8a15.436 15.436 0 0 1 -10.681 1.073z" fill="#323c6b"/><path d="m14.84 32.41a15.006 15.006 0 0 0 1.515-.084 14.783 14.783 0 0 1 -2.945-.6l.026.606c.464.048.93.078 1.404.078z" fill="#dbd8dd"/><path d="m22.12 31.776v25.354a3.449 3.449 0 0 1 -2.171 3.194l1.011.206a3.474 3.474 0 0 0 4.16-3.4v-26.63a14.622 14.622 0 0 1 -3 1.276z" fill="#bbbbcd"/><path d="m15.318 71.769a.5.5 0 0 1 -.393-.809l1.005-1.278a13.212 13.212 0 0 0 2.814-8.131v-1.375a.5.5 0 0 1 1 0v1.374a14.215 14.215 0 0 1 -3.028 8.75l-1.005 1.278a.5.5 0 0 1 -.393.191z" fill="#323c6b"/><path d="m28.3 39.68v2.17a1.218 1.218 0 0 1 -1.22 1.22h-1.96v-4.61h1.96a1.212 1.212 0 0 1 1.22 1.22z" fill="#eeefee"/><path d="m27.08 43.57h-1.96a.5.5 0 0 1 -.5-.5v-4.61a.5.5 0 0 1 .5-.5h1.96a1.722 1.722 0 0 1 1.72 1.72v2.17a1.722 1.722 0 0 1 -1.72 1.72zm-1.46-1h1.46a.72.72 0 0 0 .72-.72v-2.17a.712.712 0 0 0 -.72-.72h-1.46z" fill="#323c6b"/><path d="m51.96 20.18a.5.5 0 0 1 -.5-.5v-15.92a.5.5 0 0 1 .152-.359.483.483 0 0 1 .364-.141l4.15.13a2.554 2.554 0 0 1 2.464 2.54v11.65a2.542 2.542 0 0 1 -2.505 2.54l-4.117.06zm.5-15.9v14.9l3.613-.053a1.54 1.54 0 0 0 1.517-1.54v-11.657a1.548 1.548 0 0 0 -1.49-1.54z" fill="#323c6b"/><path d="m21.649 61.1a4.025 4.025 0 0 1 -.787-.078l-3.881-.79a3.751 3.751 0 0 1 -2.99-3.5l-1.08-24.982a.5.5 0 0 1 .649-.5 14.421 14.421 0 0 0 11.313-1.188.5.5 0 0 1 .747.435v26.633a3.974 3.974 0 0 1 -3.971 3.97zm-7.709-28.7 1.05 24.285a2.75 2.75 0 0 0 2.192 2.562l3.878.79a2.975 2.975 0 0 0 3.561-2.91v-25.8a15.436 15.436 0 0 1 -10.681 1.073z" fill="#323c6b"/><path d="m17.84 32.91a15.34 15.34 0 0 1 0-30.68l34.135 1.03a.5.5 0 0 1 .485.5v15.92a.5.5 0 0 1 -.493.5l-19.045.264a15.368 15.368 0 0 1 -15.082 12.466zm-.015-29.68a14.334 14.334 0 1 0 14.181 16.641.5.5 0 0 1 .487-.42l18.967-.263v-14.943z" fill="#323c6b"/><g fill="#fff" opacity=".79"><path d="m48.692 17.141h-10.4a.813.813 0 0 1 -.819-.809.82.82 0 0 1 .813-.823h10.4a.787.787 0 0 1 .819.778.847.847 0 0 1 -.813.854z"/><path d="m34.84 17.141h-.44a.8.8 0 0 1 -.819-.8.83.83 0 0 1 .813-.836h.437a.829.829 0 0 1 .819.828.8.8 0 0 1 -.81.808z"/></g></svg>