<svg id="line_color" height="512" viewBox="0 0 74 74" width="512" xmlns="http://www.w3.org/2000/svg" data-name="line color"><rect fill="#fed19a" height="4.37" rx=".78" width="39.87" x="17.62" y="37.81"/><path d="m56.71 42.68h-38.31a1.281 1.281 0 0 1 -1.28-1.28v-2.81a1.281 1.281 0 0 1 1.28-1.28h38.31a1.281 1.281 0 0 1 1.28 1.28v2.81a1.282 1.282 0 0 1 -1.28 1.28zm-38.31-4.37a.28.28 0 0 0 -.28.28v2.81a.28.28 0 0 0 .28.28h38.31a.28.28 0 0 0 .28-.28v-2.81a.28.28 0 0 0 -.28-.28z" fill="#323c6b"/><path d="m56.71 37.81h-3a.781.781 0 0 1 .78.78v2.81a.781.781 0 0 1 -.78.78h3a.781.781 0 0 0 .78-.78v-2.81a.781.781 0 0 0 -.78-.78z" fill="#f4bb87"/><path d="m15.63 53.417a.5.5 0 0 1 -.5-.5v-7.167a.5.5 0 0 1 1 0v7.167a.5.5 0 0 1 -.5.5z" fill="#323c6b"/><path d="m15.63 56.583a.5.5 0 0 1 -.5-.5v-.75a.5.5 0 0 1 1 0v.75a.5.5 0 0 1 -.5.5z" fill="#323c6b"/><path d="m56.48 42.18v29.15h-4.21v-6.67h-29.43v6.67h-4.21v-29.15h4.21v18.23h29.43v-18.23z" fill="#fed19a"/><path d="m56.48 71.83h-4.21a.5.5 0 0 1 -.5-.5v-6.17h-28.43v6.17a.5.5 0 0 1 -.5.5h-4.21a.5.5 0 0 1 -.5-.5v-29.15a.5.5 0 0 1 .5-.5h4.21a.5.5 0 0 1 .5.5v17.73h28.43v-17.73a.5.5 0 0 1 .5-.5h4.21a.5.5 0 0 1 .5.5v29.15a.5.5 0 0 1 -.5.5zm-3.71-1h3.21v-28.15h-3.21v17.73a.5.5 0 0 1 -.5.5h-29.43a.5.5 0 0 1 -.5-.5v-17.73h-3.21v28.15h3.21v-6.17a.5.5 0 0 1 .5-.5h29.43a.5.5 0 0 1 .5.5z" fill="#323c6b"/><path d="m54.48 42.18h2v29.15h-2z" fill="#f4bb87"/><path d="m22.84 42.18h14.71v18.23h-14.71z" fill="#e6b17d"/><path d="m37.55 60.91h-14.71a.5.5 0 0 1 -.5-.5v-18.23a.5.5 0 0 1 .5-.5h14.71a.5.5 0 0 1 .5.5v18.23a.5.5 0 0 1 -.5.5zm-14.21-1h13.71v-17.23h-13.71z" fill="#323c6b"/><path d="m37.55 42.18h14.72v18.23h-14.72z" fill="#e6b17d"/><g fill="#323c6b"><path d="m52.27 60.91h-14.72a.5.5 0 0 1 -.5-.5v-18.23a.5.5 0 0 1 .5-.5h14.72a.5.5 0 0 1 .5.5v18.23a.5.5 0 0 1 -.5.5zm-14.22-1h13.72v-17.23h-13.72z"/><path d="m43.264 48.033a1.015 1.015 0 0 1 -1.021 1.021 1.028 1.028 0 0 1 -1.021-1.021 1.016 1.016 0 0 1 1.021-1.021 1 1 0 0 1 1.021 1.021z"/><path d="m33.886 48.033a1.015 1.015 0 0 1 -1.021 1.021 1.028 1.028 0 0 1 -1.021-1.021 1.016 1.016 0 0 1 1.021-1.021 1 1 0 0 1 1.021 1.021z"/></g><path d="m34.492 34h6.164v3.808h-6.164z" fill="#dbd8dd"/><path d="m40.656 38.308h-6.164a.5.5 0 0 1 -.5-.5v-3.808a.5.5 0 0 1 .5-.5h6.164a.5.5 0 0 1 .5.5v3.808a.5.5 0 0 1 -.5.5zm-5.664-1h5.164v-2.808h-5.164z" fill="#323c6b"/><path d="m46.674 3.582a.5.5 0 0 1 -.274-.082q-.421-.28-.861-.533a.5.5 0 0 1 .5-.867q.467.269.915.566a.5.5 0 0 1 -.277.917z" fill="#323c6b"/><path d="m53.79 14.144a.5.5 0 0 1 -.49-.4 15.99 15.99 0 0 0 -4.594-8.388.5.5 0 1 1 .7-.719 16.985 16.985 0 0 1 4.879 8.91.5.5 0 0 1 -.392.588.486.486 0 0 1 -.103.009z" fill="#323c6b"/><path d="m51.131 16.9a13.576 13.576 0 1 1 -13.586-13.566 13.582 13.582 0 0 1 13.586 13.566z" fill="#f6b863"/><path d="m37.545 30.986a14.076 14.076 0 1 1 14.086-14.086 14.092 14.092 0 0 1 -14.086 14.086zm0-27.152a13.076 13.076 0 1 0 13.086 13.066 13.081 13.081 0 0 0 -13.086-13.066z" fill="#323c6b"/><path d="m37.545 3.334c-.337 0-.668.026-1 .051a13.561 13.561 0 0 1 0 27.052c.331.024.662.051 1 .051a13.576 13.576 0 1 0 0-27.153z" fill="#eaa14e"/><path d="m37.546 27.487a10.577 10.577 0 1 1 10.585-10.587 10.588 10.588 0 0 1 -10.585 10.587z" fill="#b6d2dd"/><path d="m37.546 27.986a11.076 11.076 0 1 1 11.085-11.086 11.089 11.089 0 0 1 -11.085 11.086zm0-21.153a10.076 10.076 0 1 0 10.085 10.067 10.079 10.079 0 0 0 -10.085-10.067z" fill="#323c6b"/><g fill="#eeefee" opacity=".6"><path d="m41.9 7.82-9.59 17.69a8.45 8.45 0 0 1 -.73-.49l9.5-17.54a6.455 6.455 0 0 1 .82.34z"/><path d="m36.02 26.87 9.04-16.68a6.252 6.252 0 0 0 -.57-.58l-9.27 17.1z"/><path d="m39.14 6.96-9.04 16.71a9.056 9.056 0 0 1 -1.01-1.3l8.41-15.54h.05a9.309 9.309 0 0 1 1.59.13z"/></g><path d="m37.545 30.986a14.076 14.076 0 1 1 14.086-14.086 14.092 14.092 0 0 1 -14.086 14.086zm0-27.152a13.076 13.076 0 1 0 13.086 13.066 13.081 13.081 0 0 0 -13.086-13.066z" fill="#323c6b"/><path d="m56.48 71.83h-4.21a.5.5 0 0 1 -.5-.5v-6.17h-28.43v6.17a.5.5 0 0 1 -.5.5h-4.21a.5.5 0 0 1 -.5-.5v-29.15a.5.5 0 0 1 .5-.5h4.21a.5.5 0 0 1 .5.5v17.73h28.43v-17.73a.5.5 0 0 1 .5-.5h4.21a.5.5 0 0 1 .5.5v29.15a.5.5 0 0 1 -.5.5zm-3.71-1h3.21v-28.15h-3.21v17.73a.5.5 0 0 1 -.5.5h-29.43a.5.5 0 0 1 -.5-.5v-17.73h-3.21v28.15h3.21v-6.17a.5.5 0 0 1 .5-.5h29.43a.5.5 0 0 1 .5.5z" fill="#323c6b"/><path d="m56.71 42.68h-38.31a1.281 1.281 0 0 1 -1.28-1.28v-2.81a1.281 1.281 0 0 1 1.28-1.28h38.31a1.281 1.281 0 0 1 1.28 1.28v2.81a1.282 1.282 0 0 1 -1.28 1.28zm-38.31-4.37a.28.28 0 0 0 -.28.28v2.81a.28.28 0 0 0 .28.28h38.31a.28.28 0 0 0 .28-.28v-2.81a.28.28 0 0 0 -.28-.28z" fill="#323c6b"/><path d="m30.562 39.995h-4.585a.358.358 0 0 1 -.361-.357.361.361 0 0 1 .358-.363h4.586a.347.347 0 0 1 .361.343.373.373 0 0 1 -.359.377z" fill="#fff"/><path d="m24.458 39.995h-.193a.354.354 0 0 1 -.361-.351.366.366 0 0 1 .358-.368h.193a.365.365 0 0 1 .361.365.354.354 0 0 1 -.358.354z" fill="#fff"/></svg>