<svg id="line_color" height="512" viewBox="0 0 74 74" width="512" xmlns="http://www.w3.org/2000/svg" data-name="line color"><path d="m.822 25.769a.5.5 0 0 1 -.493-.42 26.027 26.027 0 0 1 -.17-7 24.254 24.254 0 0 1 .741-3.855.5.5 0 0 1 .963.269 23.224 23.224 0 0 0 -.713 3.7 25.011 25.011 0 0 0 .164 6.73.5.5 0 0 1 -.414.574.507.507 0 0 1 -.078.002z" fill="#323c6b"/><path d="m1.529 30.255a.5.5 0 0 1 -.494-.425l-.145-.943a.5.5 0 1 1 .988-.152l.145.945a.5.5 0 0 1 -.495.575z" fill="#323c6b"/><path d="m18.5 71c6.469 0 11.731-6.355 11.731-14.167v-.959c0-12.044.87-21.516 2.738-29.81a21.993 21.993 0 0 0 .531-4.826c0-6.1-2.481-11.77-6.637-15.16a13.084 13.084 0 0 0 -10.136-2.957c-6.693.931-12.2 7.5-13.089 15.61a22.5 22.5 0 0 0 .147 6.057c1.55 9.543 2.984 19.826 2.984 30.363v1.682c-.001 7.812 5.262 14.167 11.731 14.167z" fill="#b1dcc1"/><path d="m18.5 71.5c-6.745 0-12.232-6.58-12.232-14.667v-1.682c0-10.5-1.431-20.761-2.978-30.283a23 23 0 0 1 -.15-6.192c.917-8.338 6.6-15.088 13.518-16.05a13.57 13.57 0 0 1 10.521 3.064c4.271 3.484 6.821 9.296 6.821 15.548a22.507 22.507 0 0 1 -.543 4.936c-1.859 8.258-2.726 17.7-2.726 29.7v.959c0 8.087-5.486 14.667-12.231 14.667zm-.027-68a12.2 12.2 0 0 0 -1.677.116c-6.469.901-11.796 7.284-12.661 15.17a21.984 21.984 0 0 0 .143 5.922c1.553 9.564 2.99 19.872 2.99 30.443v1.682c0 7.536 5.039 13.667 11.232 13.667s11.231-6.131 11.231-13.667v-.959c0-12.081.874-21.588 2.75-29.92a21.5 21.5 0 0 0 .519-4.716c0-5.954-2.413-11.477-6.453-14.772a12.745 12.745 0 0 0 -8.074-2.966z" fill="#323c6b"/><path d="m26.863 6.078a13.084 13.084 0 0 0 -10.136-2.957 13.349 13.349 0 0 0 -6.86 3.221 12.507 12.507 0 0 1 3.86-1.221 13.084 13.084 0 0 1 10.136 2.957c4.156 3.39 6.637 9.057 6.637 15.16a21.992 21.992 0 0 1 -.531 4.826c-1.868 8.294-2.738 17.766-2.738 29.81v.959a15.3 15.3 0 0 1 -4.643 11.262c4.456-2.01 7.643-7.188 7.643-13.262v-.959c0-12.044.87-21.516 2.738-29.81a21.992 21.992 0 0 0 .531-4.826c0-6.104-2.481-11.771-6.637-15.16z" fill="#9dceb2"/><g fill="#323c6b"><path d="m30.921 39.826a.5.5 0 0 1 -.5-.447 26.141 26.141 0 0 0 -12.07-19.806 26.157 26.157 0 0 0 -12.026 19.806.5.5 0 1 1 -.994-.105 27.02 27.02 0 0 1 12.794-20.718.5.5 0 0 1 .458 0 27.011 27.011 0 0 1 12.836 20.717.5.5 0 0 1 -.444.55z"/><path d="m18.354 19.5a.5.5 0 0 1 -.5-.5v-6a.5.5 0 0 1 1 0v6a.5.5 0 0 1 -.5.5z"/><path d="m18.5 71.5c-6.745 0-12.232-6.58-12.232-14.667v-1.682c0-10.5-1.431-20.761-2.978-30.283a23 23 0 0 1 -.15-6.192c.917-8.338 6.6-15.088 13.518-16.05a13.57 13.57 0 0 1 10.521 3.064c4.271 3.484 6.821 9.296 6.821 15.548a22.507 22.507 0 0 1 -.543 4.936c-1.859 8.258-2.726 17.7-2.726 29.7v.959c0 8.087-5.486 14.667-12.231 14.667zm-.027-68a12.2 12.2 0 0 0 -1.677.116c-6.469.901-11.796 7.284-12.661 15.17a21.984 21.984 0 0 0 .143 5.922c1.553 9.564 2.99 19.872 2.99 30.443v1.682c0 7.536 5.039 13.667 11.232 13.667s11.231-6.131 11.231-13.667v-.959c0-12.081.874-21.588 2.75-29.92a21.5 21.5 0 0 0 .519-4.716c0-5.954-2.413-11.477-6.453-14.772a12.745 12.745 0 0 0 -8.074-2.966z"/><path d="m72.095 13.5a.5.5 0 0 1 -.471-.331c-.091-.254-.187-.5-.287-.753a.5.5 0 1 1 .928-.373q.157.39.3.787a.5.5 0 0 1 -.471.669z"/><path d="m70.668 10.325a.5.5 0 0 1 -.439-.26 19.764 19.764 0 0 0 -5.815-6.658.5.5 0 0 1 .579-.815 20.774 20.774 0 0 1 6.114 6.994.5.5 0 0 1 -.438.74z"/><path d="m40.631 48.579a.5.5 0 0 1 -.5-.481c-.106-2.85-.277-5.585-.509-8.131a.5.5 0 1 1 1-.091c.234 2.563.406 5.317.512 8.185a.5.5 0 0 1 -.481.518z"/><path d="m40.759 52.25a.5.5 0 0 1 -.5-.5l-.012-1.081a.5.5 0 0 1 .493-.507h.007a.5.5 0 0 1 .5.493l.012 1.085a.5.5 0 0 1 -.5.5z"/></g><path d="m55.5 71c-6.469 0-11.731-6.355-11.731-14.167v-.959c0-12.044-.87-21.516-2.738-29.81a21.993 21.993 0 0 1 -.531-4.826c0-6.1 2.481-11.77 6.637-15.16a13.084 13.084 0 0 1 10.136-2.957c6.693.931 12.2 7.5 13.089 15.61a22.5 22.5 0 0 1 -.147 6.057c-1.55 9.543-2.984 19.826-2.984 30.363v1.682c.001 7.812-5.262 14.167-11.731 14.167z" fill="#b1dcc1"/><path d="m55.5 71.5c-6.745 0-12.231-6.58-12.231-14.667v-.959c0-12-.866-21.442-2.726-29.7a22.507 22.507 0 0 1 -.543-4.936c0-6.251 2.55-12.064 6.821-15.548a13.58 13.58 0 0 1 10.521-3.064c6.917.962 12.6 7.712 13.518 16.05a23 23 0 0 1 -.15 6.192c-1.546 9.522-2.978 19.782-2.978 30.283v1.682c0 8.087-5.487 14.667-12.232 14.667zm.027-68a12.744 12.744 0 0 0 -8.074 2.965c-4.04 3.296-6.453 8.819-6.453 14.773a21.5 21.5 0 0 0 .519 4.716c1.876 8.332 2.75 17.839 2.75 29.92v.959c0 7.536 5.039 13.667 11.231 13.667s11.232-6.131 11.232-13.667v-1.682c0-10.572 1.437-20.879 2.99-30.443a21.984 21.984 0 0 0 .143-5.922c-.865-7.886-6.192-14.269-12.665-15.17a12.2 12.2 0 0 0 -1.673-.116z" fill="#323c6b"/><path d="m70.362 18.731c-.891-8.114-6.4-14.678-13.089-15.61a13.084 13.084 0 0 0 -10.136 2.957c-.116.095-.226.2-.34.3a12.775 12.775 0 0 1 7.476-1.253c6.693.931 12.2 7.5 13.089 15.61a22.5 22.5 0 0 1 -.147 6.057c-1.55 9.543-2.984 19.826-2.984 30.363v1.682a15.294 15.294 0 0 1 -4.643 11.262c4.456-2.011 7.643-7.188 7.643-13.262v-1.686c0-10.537 1.434-20.82 2.984-30.363a22.5 22.5 0 0 0 .147-6.057z" fill="#9dceb2"/><path d="m68.172 39.826a.5.5 0 0 1 -.5-.447 26.157 26.157 0 0 0 -12.03-19.806 26.141 26.141 0 0 0 -12.07 19.806.5.5 0 1 1 -.994-.105 27.011 27.011 0 0 1 12.839-20.719.5.5 0 0 1 .458 0 27.02 27.02 0 0 1 12.794 20.718.5.5 0 0 1 -.444.55z" fill="#323c6b"/><path d="m55.646 19.5a.5.5 0 0 1 -.5-.5v-6a.5.5 0 0 1 1 0v6a.5.5 0 0 1 -.5.5z" fill="#323c6b"/><path d="m55.5 71.5c-6.745 0-12.231-6.58-12.231-14.667v-.959c0-12-.866-21.442-2.726-29.7a22.507 22.507 0 0 1 -.543-4.936c0-6.251 2.55-12.064 6.821-15.548a13.58 13.58 0 0 1 10.521-3.064c6.917.962 12.6 7.712 13.518 16.05a23 23 0 0 1 -.15 6.192c-1.546 9.522-2.978 19.782-2.978 30.283v1.682c0 8.087-5.487 14.667-12.232 14.667zm.027-68a12.744 12.744 0 0 0 -8.074 2.965c-4.04 3.296-6.453 8.819-6.453 14.773a21.5 21.5 0 0 0 .519 4.716c1.876 8.332 2.75 17.839 2.75 29.92v.959c0 7.536 5.039 13.667 11.231 13.667s11.232-6.131 11.232-13.667v-1.682c0-10.572 1.437-20.879 2.99-30.443a21.984 21.984 0 0 0 .143-5.922c-.865-7.886-6.192-14.269-12.665-15.17a12.2 12.2 0 0 0 -1.673-.116z" fill="#323c6b"/><path d="m10.562 51.555-.069-.006c-.49-.019-.912.1-.98.739-.11 1.035-.009 0-.1 1.036-.048.558.374.806.873.837a.889.889 0 0 0 .909-.869l.065-.805a.82.82 0 0 0 -.698-.932z" fill="#eeefee"/><path d="m10.535 55.621a.875.875 0 0 0 -.316-.057 1.006 1.006 0 0 0 -.989.888c-.581 6.257 3.471 9.073 3.646 9.19a1.05 1.05 0 0 0 1.26.141c.42-.3.687-1.038.263-1.246-.076-.037-3.877-2.469-3.356-8.088a.794.794 0 0 0 -.508-.828z" fill="#eeefee"/><path d="m48.186 51.555-.069-.006c-.49-.019-.912.1-.98.739-.11 1.035-.009 0-.1 1.036-.048.558.374.806.873.837a.889.889 0 0 0 .909-.869l.065-.805a.82.82 0 0 0 -.698-.932z" fill="#eeefee"/><path d="m48.16 55.621a.875.875 0 0 0 -.316-.057 1.006 1.006 0 0 0 -.989.888c-.581 6.257 3.471 9.073 3.646 9.19a1.05 1.05 0 0 0 1.26.141c.42-.3.687-1.038.263-1.246-.076-.037-3.877-2.469-3.356-8.088a.794.794 0 0 0 -.508-.828z" fill="#eeefee"/></svg>