<svg id="line_color" height="512" viewBox="0 0 74 74" width="512" xmlns="http://www.w3.org/2000/svg" data-name="line color"><path d="m7.725 66.442a.5.5 0 0 1 -.354-.147 24.642 24.642 0 0 1 -4.336-5.871c-.41-.777-.789-1.575-1.128-2.372a.5.5 0 0 1 .92-.392c.328.771.7 1.544 1.093 2.3a23.629 23.629 0 0 0 4.16 5.633.5.5 0 0 1 -.354.853z" fill="#323c6b"/><path d="m10.771 69.055a.5.5 0 0 1 -.295-.1q-.526-.384-1.029-.791a.5.5 0 1 1 .629-.777c.322.261.653.515.99.761a.5.5 0 0 1 -.295.9z" fill="#323c6b"/><path d="m71.335 48.917a.5.5 0 0 1 -.488-.4q-.107-.5-.241-1a.5.5 0 0 1 .965-.262q.142.521.255 1.048a.5.5 0 0 1 -.385.593.484.484 0 0 1 -.106.021z" fill="#323c6b"/><path d="m70.053 44.97a.5.5 0 0 1 -.458-.3 21.523 21.523 0 0 0 -5.27-7.247.5.5 0 0 1 .67-.743 22.553 22.553 0 0 1 5.516 7.587.5.5 0 0 1 -.458.7z" fill="#323c6b"/><path d="m68.72 53.5a18.236 18.236 0 0 1 -1.98 6.97c-5.01 9.91-14.51 9.2-14.51 9.2h-29.92a14.575 14.575 0 0 1 -6.72-1.65 23.183 23.183 0 0 1 -5.44-3.9 21.232 21.232 0 0 1 -4.02-5.33c-8.85-16.79 3.9-33.57 3.9-33.57 8.79 13.08 25.55 9.4 25.55 9.4s-11.35-13.28-5.11-24.01c4.13-7.12 11.92-6.77 16.68-5.73 3.76.82 7.06 5.32 8.31 8.96a13.46 13.46 0 0 1 .44 2.05 1.425 1.425 0 0 0 -.63.18c-2.02 1.1-6.18 2.31-3.76 9.46a5.3 5.3 0 0 0 1.79 2.65 5 5 0 0 0 -.1 2.13 6.153 6.153 0 0 0 3.06 4.28 37.559 37.559 0 0 1 6.39 4.69 17.619 17.619 0 0 1 6.07 14.22z" fill="#fed19a"/><path d="m52.574 70.178c-.236 0-.37-.008-.381-.009h-29.883a15.148 15.148 0 0 1 -6.95-1.706 23.653 23.653 0 0 1 -5.56-3.984 21.689 21.689 0 0 1 -4.115-5.456c-8.893-16.877 3.815-33.936 3.947-34.106a.561.561 0 0 1 .413-.2.5.5 0 0 1 .4.221c7.407 11.022 20.78 9.842 24.211 9.332-2.247-2.884-10.23-14.264-4.619-23.914 4.357-7.513 12.66-6.964 17.22-5.967 3.894.849 7.313 5.314 8.676 9.286a13.326 13.326 0 0 1 .462 2.138.5.5 0 0 1 -.472.575.922.922 0 0 0 -.413.119c-.2.107-.411.214-.638.328-2.085 1.042-4.94 2.47-2.889 8.534a4.855 4.855 0 0 0 1.617 2.411.5.5 0 0 1 .183.53 4.507 4.507 0 0 0 -.089 1.918 5.659 5.659 0 0 0 2.814 3.927 37.716 37.716 0 0 1 6.478 4.753 18.208 18.208 0 0 1 6.233 14.626 18.8 18.8 0 0 1 -2.032 7.16 16.476 16.476 0 0 1 -14.613 9.484zm-42.547-44.086c-2.071 3.054-11.151 17.863-3.455 32.465a20.691 20.691 0 0 0 3.926 5.2 22.652 22.652 0 0 0 5.322 3.816 14.153 14.153 0 0 0 6.49 1.597h29.92c.411.028 9.27.557 14.063-8.926a17.8 17.8 0 0 0 1.927-6.779 17.2 17.2 0 0 0 -5.905-13.812 36.71 36.71 0 0 0 -6.3-4.627 6.666 6.666 0 0 1 -3.3-4.634 5.514 5.514 0 0 1 .033-2.019 5.981 5.981 0 0 1 -1.7-2.682c-2.331-6.888 1.25-8.678 3.389-9.748.216-.108.42-.209.605-.311a2 2 0 0 1 .3-.134 10.423 10.423 0 0 0 -.344-1.5c-1.241-3.615-4.447-7.87-7.942-8.633-4.295-.936-12.1-1.47-16.142 5.493-5.992 10.3 4.946 23.3 5.058 23.435a.5.5 0 0 1 -.272.813c-.181.039-16.692 3.494-25.673-9.014z" fill="#323c6b"/><path d="m11.314 26.93c-.442-.539-.874-1.1-1.284-1.71 0 0-.093.124-.246.341.497.493 1.009.945 1.53 1.369z" fill="#f4bb87"/><path d="m62.65 39.28c-.27-.244-.577-.5-.875-.757a17.127 17.127 0 0 1 3.945 11.977 18.236 18.236 0 0 1 -1.98 6.97c-5.01 9.91-14.51 9.2-14.51 9.2h-29.92a14.575 14.575 0 0 1 -6.72-1.65 23.516 23.516 0 0 1 -4.07-2.686 21.976 21.976 0 0 0 1.63 1.786 23.183 23.183 0 0 0 5.44 3.9 14.575 14.575 0 0 0 6.72 1.65h29.92s9.5.71 14.51-9.2a18.236 18.236 0 0 0 1.98-6.97 17.619 17.619 0 0 0 -6.07-14.22z" fill="#f4bb87"/><path d="m53.3 28.675a.5.5 0 0 1 -.5-.495v-.01a.5.5 0 1 1 .5.5z" fill="#323c6b"/><path d="m70.97 19.81a.189.189 0 0 0 -.02.08 8.2 8.2 0 0 1 -3.55 4.9c-3.52 2.3-10.46 6.14-14.1 3.39a5.3 5.3 0 0 1 -1.79-2.65c-2.42-7.15 1.74-8.36 3.76-9.46a1.425 1.425 0 0 1 .63-.18 1.53 1.53 0 0 1 1.11.37c1.37 1.18 4.41 1.59 6.92 2.17a11.021 11.021 0 0 0 5.39-.16 1.316 1.316 0 0 1 1.65 1.54z" fill="#f4bb87"/><path d="m56.474 29.629a5.625 5.625 0 0 1 -3.474-1.05 5.82 5.82 0 0 1 -1.962-2.89c-2.331-6.888 1.25-8.678 3.389-9.748.216-.108.42-.209.605-.311a1.927 1.927 0 0 1 .848-.24 2.034 2.034 0 0 1 1.454.487c1 .863 3.107 1.3 5.144 1.727.532.111 1.06.221 1.566.338a10.582 10.582 0 0 0 5.146-.155 1.813 1.813 0 0 1 1.752.435 1.777 1.777 0 0 1 .518 1.7.4.4 0 0 1 -.013.047c0 .013 0 .026-.008.039a8.668 8.668 0 0 1 -3.764 5.2c-2.85 1.862-7.45 4.42-11.201 4.421zm-.459-13.243h-.076a.943.943 0 0 0 -.429.12c-.2.107-.411.214-.638.328-2.085 1.042-4.94 2.47-2.889 8.534a4.855 4.855 0 0 0 1.617 2.412c3.479 2.627 10.619-1.509 13.527-3.409a7.672 7.672 0 0 0 3.337-4.6c0-.024.011-.05.018-.074a.778.778 0 0 0 -.231-.75.818.818 0 0 0 -.794-.2 11.606 11.606 0 0 1 -5.64.167c-.5-.116-1.021-.225-1.546-.334-2.161-.451-4.395-.917-5.588-1.945a1.028 1.028 0 0 0 -.668-.249z" fill="#323c6b"/><path d="m57.742 16.738a4.024 4.024 0 0 1 -.732-.478 1.53 1.53 0 0 0 -1.11-.37 1.414 1.414 0 0 0 -.538.142 16.234 16.234 0 0 0 2.38.706z" fill="#e6b17d"/><path d="m69.32 18.27a12.018 12.018 0 0 1 -1.327.282 1.276 1.276 0 0 1 -.023.258.189.189 0 0 0 -.02.08 8.2 8.2 0 0 1 -3.55 4.9c-2.718 1.776-7.469 4.457-11.171 4.327.025.019.046.045.071.063 3.64 2.75 10.58-1.09 14.1-3.39a8.2 8.2 0 0 0 3.55-4.9.189.189 0 0 1 .02-.08 1.316 1.316 0 0 0 -1.65-1.54z" fill="#e6b17d"/><circle cx="44.972" cy="13.889" fill="#eeefee" r="2.599"/><g fill="#323c6b"><path d="m44.972 16.988a3.1 3.1 0 1 1 3.1-3.1 3.1 3.1 0 0 1 -3.1 3.1zm0-5.2a2.1 2.1 0 1 0 2.1 2.1 2.1 2.1 0 0 0 -2.1-2.098z"/><path d="m37.636 63.979q-.34 0-.681-.018a40.911 40.911 0 0 1 -6.393-.818.5.5 0 1 1 .209-.978 39.881 39.881 0 0 0 6.236.8 11.494 11.494 0 0 0 8.593-3.188 11.933 11.933 0 0 0 3.706-8.623v-5.054a.5.5 0 0 1 1 0v5.053a12.937 12.937 0 0 1 -4.016 9.347 12.487 12.487 0 0 1 -8.654 3.479z"/><path d="m28.511 59.774a9.5 9.5 0 0 1 -7.666-3.937.5.5 0 0 1 .844-.537c.155.243 3.9 5.912 11.766 2.267a.5.5 0 1 1 .42.907 12.722 12.722 0 0 1 -5.364 1.3z"/><path d="m23.549 52.8a8.118 8.118 0 0 1 -7.23-4.165.5.5 0 0 1 .9-.43c.121.251 3.055 6.109 11.47 2.347a.5.5 0 0 1 .408.913 13.646 13.646 0 0 1 -5.548 1.335z"/><path d="m52.574 70.178c-.236 0-.37-.008-.381-.009h-29.883a15.148 15.148 0 0 1 -6.95-1.706 23.653 23.653 0 0 1 -5.56-3.984 21.689 21.689 0 0 1 -4.115-5.456c-8.893-16.877 3.815-33.936 3.947-34.106a.561.561 0 0 1 .413-.2.5.5 0 0 1 .4.221c7.407 11.022 20.78 9.842 24.211 9.332-2.247-2.884-10.23-14.264-4.619-23.914 4.357-7.513 12.66-6.964 17.22-5.967 3.894.849 7.313 5.314 8.676 9.286a13.326 13.326 0 0 1 .462 2.138.5.5 0 0 1 -.472.575.922.922 0 0 0 -.413.119c-.2.107-.411.214-.638.328-2.085 1.042-4.94 2.47-2.889 8.534a4.855 4.855 0 0 0 1.617 2.411.5.5 0 0 1 .183.53 4.507 4.507 0 0 0 -.089 1.918 5.659 5.659 0 0 0 2.814 3.927 37.716 37.716 0 0 1 6.478 4.753 18.208 18.208 0 0 1 6.233 14.626 18.8 18.8 0 0 1 -2.032 7.16 16.476 16.476 0 0 1 -14.613 9.484zm-42.547-44.086c-2.071 3.054-11.151 17.863-3.455 32.465a20.691 20.691 0 0 0 3.926 5.2 22.652 22.652 0 0 0 5.322 3.816 14.153 14.153 0 0 0 6.49 1.597h29.92c.411.028 9.27.557 14.063-8.926a17.8 17.8 0 0 0 1.927-6.779 17.2 17.2 0 0 0 -5.905-13.812 36.71 36.71 0 0 0 -6.3-4.627 6.666 6.666 0 0 1 -3.3-4.634 5.514 5.514 0 0 1 .033-2.019 5.981 5.981 0 0 1 -1.7-2.682c-2.331-6.888 1.25-8.678 3.389-9.748.216-.108.42-.209.605-.311a2 2 0 0 1 .3-.134 10.423 10.423 0 0 0 -.344-1.5c-1.241-3.615-4.447-7.87-7.942-8.633-4.295-.936-12.1-1.47-16.142 5.493-5.992 10.3 4.946 23.3 5.058 23.435a.5.5 0 0 1 -.272.813c-.181.039-16.692 3.494-25.673-9.014z"/><path d="m56.474 29.629a5.625 5.625 0 0 1 -3.474-1.05 5.82 5.82 0 0 1 -1.962-2.89c-2.331-6.888 1.25-8.678 3.389-9.748.216-.108.42-.209.605-.311a1.927 1.927 0 0 1 .848-.24 2.034 2.034 0 0 1 1.454.487c1 .863 3.107 1.3 5.144 1.727.532.111 1.06.221 1.566.338a10.582 10.582 0 0 0 5.146-.155 1.813 1.813 0 0 1 1.752.435 1.777 1.777 0 0 1 .518 1.7.4.4 0 0 1 -.013.047c0 .013 0 .026-.008.039a8.668 8.668 0 0 1 -3.764 5.2c-2.85 1.862-7.45 4.42-11.201 4.421zm-.459-13.243h-.076a.943.943 0 0 0 -.429.12c-.2.107-.411.214-.638.328-2.085 1.042-4.94 2.47-2.889 8.534a4.855 4.855 0 0 0 1.617 2.412c3.479 2.627 10.619-1.509 13.527-3.409a7.672 7.672 0 0 0 3.337-4.6c0-.024.011-.05.018-.074a.778.778 0 0 0 -.231-.75.818.818 0 0 0 -.794-.2 11.606 11.606 0 0 1 -5.64.167c-.5-.116-1.021-.225-1.546-.334-2.161-.451-4.395-.917-5.588-1.945a1.028 1.028 0 0 0 -.668-.249z"/></g><path d="m7.76 38.827-.068-.014c-.484-.081-.918-.016-1.065.61-.239 1.013-.009 0-.228 1.016-.118.547.27.846.761.94a.889.889 0 0 0 1.01-.749l.165-.791a.82.82 0 0 0 -.575-1.012z" fill="#e6b17d"/><path d="m7.233 43.136a.875.875 0 0 0 -.31-.084 1.006 1.006 0 0 0 -1.063.8 14.753 14.753 0 0 0 2.205 10.859 1.05 1.05 0 0 0 1.242.251.83.83 0 0 0 .372-1.218 13.527 13.527 0 0 1 -2.013-9.738.794.794 0 0 0 -.433-.87z" fill="#e6b17d"/></svg>