<svg id="line_color" height="512" viewBox="0 0 74 74" width="512" xmlns="http://www.w3.org/2000/svg" data-name="line color"><path d="m7.457 18.6a.492.492 0 0 1 -.228-.055.5.5 0 0 1 -.218-.673 34.064 34.064 0 0 1 9.889-11.699.5.5 0 0 1 .6.8 33.043 33.043 0 0 0 -9.6 11.358.5.5 0 0 1 -.443.269z" fill="#323c6b"/><path d="m5.655 22.824a.5.5 0 0 1 -.164-.028.5.5 0 0 1 -.309-.636c.086-.246.173-.491.265-.734a.5.5 0 1 1 .936.351q-.132.354-.255.711a.5.5 0 0 1 -.473.336z" fill="#323c6b"/><path d="m67.164 33.164a30.164 30.164 0 1 1 -30.164-30.164 30.155 30.155 0 0 1 30.164 30.164z" fill="#bbbbcd"/><path d="m37 63.814a30.657 30.657 0 1 1 30.664-30.65 30.692 30.692 0 0 1 -30.664 30.65zm0-60.314a29.657 29.657 0 1 0 29.664 29.664 29.7 29.7 0 0 0 -29.664-29.664z" fill="#323c6b"/><path d="m37 3a30.024 30.024 0 0 0 -18.2 6.116 30.156 30.156 0 0 1 33.41 50.084 30.154 30.154 0 0 0 -15.21-56.2z" fill="#9a9eaf"/><path d="m37 54.633a21.476 21.476 0 1 1 21.483-21.469 21.5 21.5 0 0 1 -21.483 21.469z" fill="#eeefee"/><path d="m37 55.133a21.976 21.976 0 1 1 21.983-21.969 22 22 0 0 1 -21.983 21.969zm0-42.952a20.976 20.976 0 1 0 20.983 20.983 21.007 21.007 0 0 0 -20.983-20.983z" fill="#323c6b"/><path d="m43.02 33.16a5.867 5.867 0 0 1 -.75 2.89 5.97 5.97 0 0 1 -1.53 1.82 6.038 6.038 0 0 1 -3.74 1.3 6.1 6.1 0 0 1 -2.89-.73v-.01a6.005 6.005 0 0 1 -2.39-8.16h.01a5.833 5.833 0 0 1 1.53-1.82 6.021 6.021 0 0 1 9.76 4.71z" fill="#eeefee"/><path d="m37 39.67a6.562 6.562 0 0 1 -3.126-.789.56.56 0 0 1 -.082-.055 6.416 6.416 0 0 1 -1.892-1.615 6.547 6.547 0 0 1 -1.42-4.051 6.458 6.458 0 0 1 .8-3.13.467.467 0 0 1 .056-.082 6.328 6.328 0 0 1 1.616-1.893 6.5 6.5 0 0 1 9.148 1.058 6.509 6.509 0 0 1 -5.1 10.557zm-2.579-1.631a5.6 5.6 0 0 0 6.011-.562 5.453 5.453 0 0 0 1.4-1.663 5.473 5.473 0 0 0 -.511-6.083 5.5 5.5 0 0 0 -7.747-.89 5.357 5.357 0 0 0 -1.4 1.667.557.557 0 0 1 -.053.079 5.459 5.459 0 0 0 -.637 2.573 5.54 5.54 0 0 0 1.2 3.429 5.426 5.426 0 0 0 1.667 1.4.464.464 0 0 1 .07.05z" fill="#323c6b"/><path d="m42.63 18.14a21.565 21.565 0 0 0 -2.74 9.74 6 6 0 0 0 -6.63.57l-1.38-4.46a6.008 6.008 0 0 1 5.74-7.79h3.84a1.322 1.322 0 0 1 1.17 1.94z" fill="#fed19a"/><path d="m33.26 28.95a.509.509 0 0 1 -.147-.022.5.5 0 0 1 -.33-.33l-1.38-4.46a6.508 6.508 0 0 1 6.217-8.438h3.84a1.816 1.816 0 0 1 1.576.9 1.778 1.778 0 0 1 .031 1.777 21.2 21.2 0 0 0 -2.678 9.491.5.5 0 0 1 -.74.445 5.552 5.552 0 0 0 -6.078.522.5.5 0 0 1 -.311.115zm4.36-12.25a5.509 5.509 0 0 0 -5.263 7.142l1.176 3.8a6.557 6.557 0 0 1 5.885-.538 22.606 22.606 0 0 1 2.774-9.204.773.773 0 0 0 -.018-.784.825.825 0 0 0 -.715-.413z" fill="#323c6b"/><path d="m35 27.14a5.968 5.968 0 0 0 -2.035.358l.295.952a6 6 0 0 1 2.715-1.221 5.984 5.984 0 0 0 -.975-.089z" fill="#f4bb87"/><path d="m41.46 16.2h-2a1.322 1.322 0 0 1 1.17 1.94 22.156 22.156 0 0 0 -2.715 9.077 6.016 6.016 0 0 1 1.975.663 21.565 21.565 0 0 1 2.74-9.74 1.322 1.322 0 0 0 -1.17-1.94z" fill="#f4bb87"/><path d="m32.29 36.9-4.46 1.38a6 6 0 0 1 -7.78-5.74v-3.84a1.314 1.314 0 0 1 1.93-1.17 21.822 21.822 0 0 0 9.74 2.74 6 6 0 0 0 .57 6.63z" fill="#fed19a"/><path d="m26.032 39.056a6.518 6.518 0 0 1 -6.482-6.516v-3.84a1.818 1.818 0 0 1 .9-1.578 1.768 1.768 0 0 1 1.769-.03 21.455 21.455 0 0 0 9.5 2.678.5.5 0 0 1 .438.74 5.477 5.477 0 0 0 -.678 2.65 5.54 5.54 0 0 0 1.2 3.429.5.5 0 0 1 -.244.789l-4.46 1.38a6.548 6.548 0 0 1 -1.943.298zm-4.667-11.187a.791.791 0 0 0 -.4.114.827.827 0 0 0 -.411.717v3.84a5.5 5.5 0 0 0 7.128 5.26l3.8-1.176a6.535 6.535 0 0 1 -1-3.466 6.435 6.435 0 0 1 .466-2.421 22.775 22.775 0 0 1 -9.208-2.772.766.766 0 0 0 -.375-.096z" fill="#323c6b"/><path d="m36.38 50.11h-3.84a1.314 1.314 0 0 1 -1.17-1.93 21.708 21.708 0 0 0 2.74-9.74 6.1 6.1 0 0 0 2.89.73 6.038 6.038 0 0 0 3.74-1.3l1.38 4.45a6.008 6.008 0 0 1 -5.74 7.79z" fill="#fed19a"/><path d="m36.38 50.61h-3.84a1.817 1.817 0 0 1 -1.578-.9 1.766 1.766 0 0 1 -.029-1.768 21.431 21.431 0 0 0 2.678-9.5.5.5 0 0 1 .736-.442 5.6 5.6 0 0 0 6.085-.522.5.5 0 0 1 .786.245l1.38 4.45a6.508 6.508 0 0 1 -6.218 8.437zm-1.8-11.4a22.727 22.727 0 0 1 -2.772 9.214.763.763 0 0 0 .016.775.825.825 0 0 0 .717.412h3.84a5.509 5.509 0 0 0 5.263-7.142l-1.177-3.793a6.6 6.6 0 0 1 -5.887.532z" fill="#323c6b"/><path d="m42.12 42.32-1.38-4.45a6.1 6.1 0 0 1 -1.707.945l1.087 3.505a6.008 6.008 0 0 1 -5.74 7.79h2a6.008 6.008 0 0 0 5.74-7.79z" fill="#f4bb87"/><path d="m35 39.17a6.023 6.023 0 0 0 1.024-.088 6.16 6.16 0 0 1 -1.914-.642c0 .037 0 .273-.026.653a6.027 6.027 0 0 0 .916.077z" fill="#f4bb87"/><path d="m53.95 33.77v3.84a1.311 1.311 0 0 1 -1.93 1.17 21.651 21.651 0 0 0 -9.75-2.73 5.867 5.867 0 0 0 .75-2.89 5.986 5.986 0 0 0 -1.31-3.74l4.46-1.38a6 6 0 0 1 7.78 5.73z" fill="#fed19a"/><path d="m52.639 39.441a1.781 1.781 0 0 1 -.86-.224 21.228 21.228 0 0 0 -9.5-2.668.446.446 0 0 1 -.437-.246.5.5 0 0 1 0-.5 5.377 5.377 0 0 0 .686-2.644 5.449 5.449 0 0 0 -1.2-3.429.5.5 0 0 1 .244-.789l4.46-1.38a6.5 6.5 0 0 1 8.418 6.209v3.84a1.818 1.818 0 0 1 -.9 1.58 1.787 1.787 0 0 1 -.911.251zm-9.588-3.863a22.681 22.681 0 0 1 9.211 2.764.767.767 0 0 0 .78-.014.825.825 0 0 0 .408-.718v-3.84a5.5 5.5 0 0 0 -7.132-5.252l-3.8 1.176a6.487 6.487 0 0 1 .533 5.885z" fill="#323c6b"/><path d="m46.959 27.854a6.005 6.005 0 0 1 4.991 5.916v3.84a1.321 1.321 0 0 1 -.38.935c.15.078.3.151.45.235a1.311 1.311 0 0 0 1.93-1.17v-3.84a6 6 0 0 0 -6.991-5.916z" fill="#f4bb87"/><path d="m67.188 68.208a.5.5 0 0 1 -.5-.5v-.984a.5.5 0 0 1 1 0v.984a.5.5 0 0 1 -.5.5z" fill="#323c6b"/><path d="m66.89 65.384a.5.5 0 0 1 -.475-.342 5.324 5.324 0 0 0 -3.115-3.28.5.5 0 1 1 .365-.931 6.325 6.325 0 0 1 3.7 3.9.5.5 0 0 1 -.475.658z" fill="#323c6b"/><path d="m64.187 66.725v4.275h-5.657v-4.275a2.828 2.828 0 0 1 2.829-2.825 2.828 2.828 0 0 1 2.828 2.825z" fill="#dbd8dd"/><path d="m64.188 71.5h-5.658a.5.5 0 0 1 -.5-.5v-4.275a3.329 3.329 0 1 1 6.657 0v4.275a.5.5 0 0 1 -.499.5zm-5.157-1h4.657v-3.775a2.329 2.329 0 1 0 -4.657 0z" fill="#323c6b"/><path d="m61.359 63.9a2.807 2.807 0 0 0 -1 .191 2.822 2.822 0 0 1 1.828 2.638v4.271h2v-4.275a2.828 2.828 0 0 0 -2.828-2.825z" fill="#bbbbcd"/><g fill="#323c6b"><path d="m61.358 64.4a.5.5 0 0 1 -.5-.5v-12.7a.5.5 0 0 1 1 0v12.7a.5.5 0 0 1 -.5.5z"/><path d="m37 63.814a30.657 30.657 0 1 1 30.664-30.65 30.692 30.692 0 0 1 -30.664 30.65zm0-60.314a29.657 29.657 0 1 0 29.664 29.664 29.7 29.7 0 0 0 -29.664-29.664z"/><path d="m64.188 71.5h-5.658a.5.5 0 0 1 -.5-.5v-4.275a3.329 3.329 0 1 1 6.657 0v4.275a.5.5 0 0 1 -.499.5zm-5.157-1h4.657v-3.775a2.329 2.329 0 1 0 -4.657 0z"/><path d="m52.639 39.441a1.781 1.781 0 0 1 -.86-.224 21.228 21.228 0 0 0 -9.5-2.668.446.446 0 0 1 -.437-.246.5.5 0 0 1 0-.5 5.377 5.377 0 0 0 .686-2.644 5.449 5.449 0 0 0 -1.2-3.429.5.5 0 0 1 .244-.789l4.46-1.38a6.5 6.5 0 0 1 8.418 6.209v3.84a1.818 1.818 0 0 1 -.9 1.58 1.787 1.787 0 0 1 -.911.251zm-9.588-3.863a22.681 22.681 0 0 1 9.211 2.764.767.767 0 0 0 .78-.014.825.825 0 0 0 .408-.718v-3.84a5.5 5.5 0 0 0 -7.132-5.252l-3.8 1.176a6.487 6.487 0 0 1 .533 5.885z"/><path d="m33.26 28.95a.509.509 0 0 1 -.147-.022.5.5 0 0 1 -.33-.33l-1.38-4.46a6.508 6.508 0 0 1 6.217-8.438h3.84a1.816 1.816 0 0 1 1.576.9 1.778 1.778 0 0 1 .031 1.777 21.2 21.2 0 0 0 -2.678 9.491.5.5 0 0 1 -.74.445 5.552 5.552 0 0 0 -6.078.522.5.5 0 0 1 -.311.115zm4.36-12.25a5.509 5.509 0 0 0 -5.263 7.142l1.176 3.8a6.557 6.557 0 0 1 5.885-.538 22.606 22.606 0 0 1 2.774-9.204.773.773 0 0 0 -.018-.784.825.825 0 0 0 -.715-.413z"/><path d="m36.38 50.61h-3.84a1.817 1.817 0 0 1 -1.578-.9 1.766 1.766 0 0 1 -.029-1.768 21.431 21.431 0 0 0 2.678-9.5.5.5 0 0 1 .736-.442 5.6 5.6 0 0 0 6.085-.522.5.5 0 0 1 .786.245l1.38 4.45a6.508 6.508 0 0 1 -6.218 8.437zm-1.8-11.4a22.727 22.727 0 0 1 -2.772 9.214.763.763 0 0 0 .016.775.825.825 0 0 0 .717.412h3.84a5.509 5.509 0 0 0 5.263-7.142l-1.177-3.793a6.6 6.6 0 0 1 -5.887.532z"/></g></svg>