<?xml version="1.0" encoding="iso-8859-1"?>
<!-- Generator: Adobe Illustrator 24.1.2, SVG Export Plug-In . SVG Version: 6.00 Build 0)  -->
<svg xmlns="http://www.w3.org/2000/svg" xmlns:xlink="http://www.w3.org/1999/xlink" version="1.1" id="line_color" x="0px" y="0px" viewBox="0 0 512 512" style="enable-background:new 0 0 512 512;" xml:space="preserve" width="512" height="512">
<g>
	<path style="fill:#BBBBCD;" d="M104.199,127.414h303.602c3.974,0,7.196,3.222,7.196,7.196v27.814c0,3.974-3.222,7.196-7.196,7.196   H104.199c-3.974,0-7.196-3.222-7.196-7.196V134.61C97.003,130.636,100.225,127.414,104.199,127.414z"/>
	<path style="fill:#323C6B;" d="M407.794,173.079H104.199c-5.882-0.008-10.648-4.774-10.655-10.655v-27.745   c-0.012-5.901,4.755-10.698,10.655-10.724h303.602c5.903,0.023,10.674,4.821,10.662,10.724v27.745   C418.456,168.311,413.681,173.079,407.794,173.079z M104.192,130.874c-2.081,0.023-3.752,1.724-3.736,3.805v27.745   c0.026,2.053,1.684,3.71,3.736,3.736h303.602c2.054-0.026,3.713-1.683,3.743-3.736v-27.745c0.012-2.082-1.661-3.783-3.743-3.805   H104.192z"/>
	<path style="fill:#9A9EAF;" d="M407.801,127.414h-20.757c3.988,0.03,7.203,3.276,7.196,7.265v27.745   c-0.023,3.965-3.231,7.173-7.196,7.196h20.757c3.965-0.023,7.173-3.231,7.196-7.196v-27.745   C415.004,130.69,411.789,127.444,407.801,127.414z"/>
	<path style="fill:#323C6B;" d="M386.027,38.554c-1.538,0-2.891-1.015-3.321-2.491c-3.934-13.361-16.176-22.553-30.104-22.604   h-25.247c-1.911,0-3.459-1.549-3.459-3.459s1.549-3.459,3.459-3.459h25.247c17.002,0.059,31.948,11.277,36.753,27.586   c0.535,1.834-0.518,3.755-2.352,4.29c-0.315,0.092-0.641,0.138-0.969,0.138H386.027z"/>
	<path style="fill:#323C6B;" d="M308.757,13.459h-7.784c-1.911,0-3.459-1.549-3.459-3.459s1.549-3.459,3.459-3.459h7.784   c1.911,0,3.459,1.549,3.459,3.459S310.667,13.459,308.757,13.459z"/>
	<path style="fill:#DBD8DD;" d="M366.094,40.886l25.157,86.549h-270.53l25.185-86.549c1.745-6.001,7.243-10.129,13.492-10.129   h193.204C358.851,30.758,364.349,34.885,366.094,40.886L366.094,40.886z"/>
	<path style="fill:#323C6B;" d="M391.258,130.901h-270.53c-1.911,0-3.459-1.549-3.459-3.459c0-0.328,0.047-0.654,0.138-0.969   l25.164-86.556c2.202-7.464,9.045-12.596,16.827-12.62h193.204c7.779,0.027,14.618,5.159,16.82,12.62l25.164,86.556   c0.535,1.834-0.518,3.755-2.352,4.29c-0.315,0.092-0.641,0.138-0.969,0.138H391.258z M125.35,123.982h261.3l-23.877-82.155   c-1.338-4.504-5.472-7.598-10.171-7.611H159.398c-4.699,0.013-8.833,3.107-10.171,7.611L125.35,123.982z"/>
	<path style="fill:#BBBBCD;" d="M366.094,40.886c-1.745-6.001-7.243-10.129-13.492-10.129h-20.757   c6.249,0.001,11.747,4.128,13.492,10.129l25.157,86.556h20.757L366.094,40.886z"/>
	<path style="fill:#BBBBCD;" d="M311.317,30.757l-5.514,59.44h-99.605l-5.514-59.44H311.317z"/>
	<path style="fill:#323C6B;" d="M305.816,93.657h-99.632c-1.793,0.008-3.295-1.356-3.459-3.141l-5.535-59.44   c-0.176-1.903,1.224-3.587,3.126-3.763c0.111-0.01,0.222-0.015,0.333-0.015h110.703c1.911-0.008,3.466,1.534,3.474,3.445   c0,0.111-0.004,0.222-0.015,0.333l-5.535,59.44C309.111,92.301,307.609,93.664,305.816,93.657z M209.367,86.738h93.281   l4.843-52.522H204.482L209.367,86.738z"/>
	<path style="fill:#323C6B;" d="M108.357,320.473c-1.837,0.003-3.357-1.431-3.459-3.266l-4.899-87.268   c-0.106-1.906,1.352-3.538,3.259-3.646c1.875-0.135,3.505,1.275,3.64,3.15c0.003,0.036,0.005,0.072,0.006,0.108l4.899,87.268   c0.106,1.906-1.352,3.538-3.259,3.646L108.357,320.473z"/>
	<path style="fill:#323C6B;" d="M110.267,354.382c-1.837,0.003-3.357-1.431-3.459-3.266l-0.443-7.901   c-0.106-1.906,1.352-3.538,3.259-3.646c1.804-0.199,3.428,1.103,3.627,2.907c0.013,0.117,0.019,0.234,0.02,0.352l0.443,7.901   c0.106,1.906-1.352,3.538-3.259,3.646L110.267,354.382z"/>
	<path style="fill:#DBD8DD;" d="M391.126,169.619l-17.09,304.432c-0.869,15.261-13.497,27.19-28.783,27.191H166.746   c-15.285-0.001-27.913-11.931-28.783-27.191l-17.09-304.432H391.126z"/>
	<path style="fill:#323C6B;" d="M345.254,504.703H166.746c-17.121,0.016-31.27-13.349-32.228-30.443l-17.097-304.432   c-0.107-1.908,1.353-3.541,3.26-3.648c0.066-0.004,0.133-0.006,0.199-0.005h270.246c1.911-0.003,3.462,1.543,3.465,3.454   c0,0.066-0.002,0.133-0.005,0.199l-17.09,304.432C376.527,491.354,362.376,504.715,345.254,504.703L345.254,504.703z    M124.541,173.079l16.882,300.779c0.746,13.435,11.867,23.943,25.323,23.926h178.508c13.455,0.01,24.574-10.492,25.33-23.926   l16.875-300.779H124.541z"/>
	<path style="fill:#BBBBCD;" d="M370.37,169.619l-17.09,304.432c-0.869,15.261-13.497,27.19-28.783,27.191h20.757   c15.285-0.001,27.913-11.931,28.783-27.191l17.09-304.432H370.37z"/>
	<path style="fill:#323C6B;" d="M391.126,173.044c-1.911,0-3.459-1.549-3.459-3.459v-0.069c0-1.911,1.549-3.459,3.459-3.459   c1.911,0,3.459,1.549,3.459,3.459c0,1.911-1.549,3.459-3.459,3.459V173.044z"/>
	<path style="fill:#323C6B;" d="M120.874,173.044c-1.911,0-3.459-1.549-3.459-3.459v-0.069c0-1.911,1.549-3.459,3.459-3.459   s3.459,1.549,3.459,3.459c0,1.911-1.549,3.459-3.459,3.459V173.044z"/>
	<path style="fill:#BBBBCD;" d="M333.651,248.924v252.319h-51.006V248.924c0-14.085,11.418-25.503,25.503-25.503l0,0   C322.233,223.421,333.651,234.839,333.651,248.924L333.651,248.924z"/>
	<path style="fill:#323C6B;" d="M333.658,504.703h-51.013c-1.911,0-3.459-1.549-3.459-3.459V248.924   c0.247-15.998,13.416-28.766,29.413-28.519c15.649,0.242,28.277,12.869,28.519,28.519v252.319   C337.117,503.154,335.569,504.703,333.658,504.703z M286.104,497.784h44.094v-248.86c-0.216-12.176-10.261-21.872-22.438-21.657   c-11.873,0.21-21.447,9.784-21.657,21.657V497.784z"/>
	<path style="fill:#BBBBCD;" d="M229.355,248.924v252.319h-51.006V248.924c0-14.085,11.418-25.503,25.503-25.503h0   C217.937,223.421,229.355,234.839,229.355,248.924z"/>
	<g>
		<path style="fill:#323C6B;" d="M229.355,504.703h-51.013c-1.911,0-3.459-1.549-3.459-3.459V248.924    c0.247-15.998,13.416-28.766,29.413-28.519c15.649,0.242,28.277,12.869,28.519,28.519v252.319    C232.815,503.154,231.266,504.703,229.355,504.703z M181.801,497.784h44.094v-248.86c-0.216-12.176-10.261-21.872-22.438-21.657    c-11.873,0.21-21.447,9.784-21.657,21.657V497.784z"/>
		<path style="fill:#323C6B;" d="M345.254,504.703H166.746c-17.121,0.016-31.27-13.349-32.228-30.443l-17.097-304.432    c-0.107-1.908,1.353-3.541,3.26-3.648c0.066-0.004,0.133-0.006,0.199-0.005h270.246c1.911-0.003,3.462,1.543,3.465,3.454    c0,0.066-0.002,0.133-0.005,0.199l-17.09,304.432C376.527,491.354,362.376,504.715,345.254,504.703L345.254,504.703z     M124.541,173.079l16.882,300.779c0.746,13.435,11.867,23.943,25.323,23.926h178.508c13.455,0.01,24.574-10.492,25.33-23.926    l16.875-300.779H124.541z"/>
		<path style="fill:#323C6B;" d="M407.794,173.079H104.199c-5.882-0.008-10.648-4.774-10.655-10.655v-27.745    c-0.012-5.901,4.755-10.698,10.655-10.724h303.602c5.903,0.023,10.674,4.821,10.662,10.724v27.745    C418.456,168.311,413.681,173.079,407.794,173.079z M104.192,130.874c-2.081,0.023-3.752,1.724-3.736,3.805v27.745    c0.026,2.053,1.684,3.71,3.736,3.736h303.602c2.054-0.026,3.713-1.683,3.743-3.736v-27.745c0.012-2.082-1.661-3.783-3.743-3.805    H104.192z"/>
		<path style="fill:#323C6B;" d="M391.258,130.901h-270.53c-1.911,0-3.459-1.549-3.459-3.459c0-0.328,0.047-0.654,0.138-0.969    l25.164-86.556c2.202-7.464,9.045-12.596,16.827-12.62h193.204c7.779,0.027,14.618,5.159,16.82,12.62l25.164,86.556    c0.535,1.834-0.518,3.755-2.352,4.29c-0.315,0.092-0.641,0.138-0.969,0.138H391.258z M125.35,123.982h261.3l-23.877-82.155    c-1.338-4.504-5.472-7.598-10.171-7.611H159.398c-4.699,0.013-8.833,3.107-10.171,7.611L125.35,123.982z"/>
	</g>
	<path style="fill:#FFFFFF;" d="M142.066,109.764l12.087-46.032c0.504-1.989,2.525-3.193,4.514-2.689   c0.006,0.001,0.012,0.003,0.018,0.005c1.999,0.516,3.206,2.551,2.698,4.553l-12.094,46.032c-0.425,1.941-2.343,3.17-4.284,2.745   c-0.037-0.008-0.073-0.017-0.109-0.026C142.869,113.836,141.617,111.806,142.066,109.764z"/>
	<path style="fill:#FFFFFF;" d="M158.16,48.476l0.505-1.93c0.472-1.97,2.451-3.184,4.42-2.712c0.019,0.005,0.038,0.009,0.056,0.014   c2.017,0.508,3.251,2.543,2.768,4.566l-0.505,1.93c-0.55,2.001-2.607,3.189-4.615,2.664c-1.965-0.505-3.15-2.507-2.645-4.472   C158.149,48.516,158.154,48.496,158.16,48.476z"/>
</g>
</svg>
