<svg id="line_color" height="512" viewBox="0 0 74 74" width="512" xmlns="http://www.w3.org/2000/svg" data-name="line color"><rect fill="#b6d2dd" height="8.529" rx="4.264" width="39.566" x="17.217" y="31.622"/><path d="m52.519 40.65h-31.038a4.764 4.764 0 1 1 0-9.528h31.038a4.764 4.764 0 1 1 0 9.528zm-31.038-8.528a3.764 3.764 0 1 0 0 7.528h31.038a3.764 3.764 0 1 0 0-7.528z" fill="#323c6b"/><rect fill="#b6d2dd" height="8.529" rx="4.264" width="39.566" x="17.217" y="31.622"/><path d="m52.519 40.65h-31.038a4.764 4.764 0 1 1 0-9.528h31.038a4.764 4.764 0 1 1 0 9.528zm-31.038-8.528a3.764 3.764 0 1 0 0 7.528h31.038a3.764 3.764 0 1 0 0-7.528z" fill="#323c6b"/><path d="m52.519 31.622h-4a4.264 4.264 0 0 1 0 8.529h4a4.264 4.264 0 0 0 0-8.529z" fill="#acc6cc"/><path d="m26.089 14.4a.5.5 0 0 1 -.388-.815 15.5 15.5 0 0 1 7.436-5.047.5.5 0 1 1 .3.955 14.5 14.5 0 0 0 -6.957 4.723.5.5 0 0 1 -.391.184z" fill="#323c6b"/><path d="m23.741 18.434a.5.5 0 0 1 -.466-.681q.242-.623.533-1.218a.5.5 0 0 1 .9.44q-.274.557-.5 1.14a.5.5 0 0 1 -.467.319z" fill="#323c6b"/><path d="m42.769 11.334v8.508h-4.795a3.714 3.714 0 0 0 -3.714 3.714v8.065h-8.527v-8.274a12.012 12.012 0 0 1 12.012-12.013z" fill="#b6d2dd"/><path d="m34.261 32.122h-8.529a.5.5 0 0 1 -.5-.5v-8.275a12.527 12.527 0 0 1 12.513-12.513h5.025a.5.5 0 0 1 .5.5v8.508a.5.5 0 0 1 -.5.5h-4.795a3.217 3.217 0 0 0 -3.214 3.213v8.065a.5.5 0 0 1 -.5.502zm-8.028-1h7.528v-7.566a4.219 4.219 0 0 1 4.214-4.213h4.295v-7.509h-4.525a11.526 11.526 0 0 0 -11.513 11.513z" fill="#323c6b"/><path d="m31.261 23.556v8.065h3v-8.065a3.714 3.714 0 0 1 3.714-3.714h-3a3.714 3.714 0 0 0 -3.714 3.714z" fill="#acc6cc"/><rect fill="#b6d2dd" height="8.529" rx="4.264" width="56.211" x="8.895" y="40.15"/><path d="m60.841 49.179h-47.682a4.764 4.764 0 1 1 0-9.529h47.682a4.764 4.764 0 1 1 0 9.529zm-47.682-8.529a3.764 3.764 0 1 0 0 7.529h47.682a3.764 3.764 0 1 0 0-7.529z" fill="#323c6b"/><path d="m60.841 40.15h-4a4.264 4.264 0 0 1 4.264 4.264 4.264 4.264 0 0 1 -4.264 4.264h4a4.264 4.264 0 0 0 4.264-4.264 4.264 4.264 0 0 0 -4.264-4.264z" fill="#acc6cc"/><rect fill="#b6d2dd" height="8.529" rx="4.264" width="61.729" x="6.135" y="48.679"/><path d="m63.6 57.707h-53.2a4.764 4.764 0 0 1 0-9.528h53.2a4.764 4.764 0 0 1 0 9.528zm-53.2-8.528a3.764 3.764 0 0 0 0 7.528h53.2a3.764 3.764 0 0 0 0-7.528z" fill="#323c6b"/><path d="m63.6 48.679h-4a4.264 4.264 0 0 1 0 8.529h4a4.264 4.264 0 0 0 0-8.529z" fill="#acc6cc"/><path d="m16.125 69.236h-8.86a.5.5 0 1 1 0-1h8.86a.5.5 0 0 1 0 1z" fill="#323c6b"/><path d="m19 69.236h-.625a.5.5 0 0 1 0-1h.625a.5.5 0 0 1 0 1z" fill="#323c6b"/><rect fill="#b6d2dd" height="8.529" rx="4.264" width="68" x="3" y="57.207"/><path d="m66.735 66.236h-59.47a4.764 4.764 0 1 1 0-9.529h59.47a4.764 4.764 0 1 1 0 9.529zm-59.47-8.529a3.764 3.764 0 1 0 0 7.529h59.47a3.764 3.764 0 1 0 0-7.529z" fill="#323c6b"/><path d="m66.736 57.207h-4a4.264 4.264 0 1 1 0 8.529h4a4.264 4.264 0 1 0 0-8.529z" fill="#acc6cc"/><rect fill="#fed19a" height="14.49" rx="1" width="5.74" x="42.77" y="8.26"/><path d="m47.51 23.25h-3.74a1.5 1.5 0 0 1 -1.5-1.5v-12.49a1.5 1.5 0 0 1 1.5-1.5h3.74a1.5 1.5 0 0 1 1.5 1.5v12.49a1.5 1.5 0 0 1 -1.5 1.5zm-3.74-14.49a.5.5 0 0 0 -.5.5v12.49a.5.5 0 0 0 .5.5h3.74a.5.5 0 0 0 .5-.5v-12.49a.5.5 0 0 0 -.5-.5z" fill="#323c6b"/><path d="m65.49 11.96v7.09l-5.74 1v-9.09z" fill="#fed19a"/><path d="m59.75 20.55a.5.5 0 0 1 -.5-.5v-9.09a.5.5 0 0 1 .178-.383.5.5 0 0 1 .408-.11l5.74 1a.5.5 0 0 1 .414.493v7.09a.5.5 0 0 1 -.414.493l-5.74 1a.511.511 0 0 1 -.086.007zm.5-9v7.9l4.74-.826v-6.244z" fill="#323c6b"/><path d="m59.75 10.96v.348l3.74.652v7.09l-3.74.652v.348l5.74-1v-7.09z" fill="#f4bb87"/><path d="m59.75 11.84v7.33l-11.24 1.95v-11.22z" fill="#f4bb87"/><g fill="#323c6b"><path d="m48.51 21.62a.5.5 0 0 1 -.5-.5v-11.22a.5.5 0 0 1 .585-.493l11.24 1.94a.5.5 0 0 1 .415.493v7.33a.5.5 0 0 1 -.414.493l-11.236 1.95a.519.519 0 0 1 -.09.007zm.5-11.126v10.032l10.24-1.777v-6.488z"/><path d="m66.735 66.236h-59.47a4.764 4.764 0 1 1 0-9.529h59.47a4.764 4.764 0 1 1 0 9.529zm-59.47-8.529a3.764 3.764 0 1 0 0 7.529h59.47a3.764 3.764 0 1 0 0-7.529z"/><path d="m63.6 57.707h-53.2a4.764 4.764 0 0 1 0-9.528h53.2a4.764 4.764 0 0 1 0 9.528zm-53.2-8.528a3.764 3.764 0 0 0 0 7.528h53.2a3.764 3.764 0 0 0 0-7.528z"/><path d="m60.841 49.179h-47.682a4.764 4.764 0 1 1 0-9.529h47.682a4.764 4.764 0 1 1 0 9.529zm-47.682-8.529a3.764 3.764 0 1 0 0 7.529h47.682a3.764 3.764 0 1 0 0-7.529z"/><path d="m52.519 40.65h-31.038a4.764 4.764 0 1 1 0-9.528h31.038a4.764 4.764 0 1 1 0 9.528zm-31.038-8.528a3.764 3.764 0 1 0 0 7.528h31.038a3.764 3.764 0 1 0 0-7.528z"/><path d="m59.75 20.55a.5.5 0 0 1 -.5-.5v-9.09a.5.5 0 0 1 .178-.383.5.5 0 0 1 .408-.11l5.74 1a.5.5 0 0 1 .414.493v7.09a.5.5 0 0 1 -.414.493l-5.74 1a.511.511 0 0 1 -.086.007zm.5-9v7.9l4.74-.826v-6.244z"/><path d="m34.261 32.122h-8.529a.5.5 0 0 1 -.5-.5v-8.275a12.527 12.527 0 0 1 12.513-12.513h5.025a.5.5 0 0 1 .5.5v8.508a.5.5 0 0 1 -.5.5h-4.795a3.217 3.217 0 0 0 -3.214 3.213v8.065a.5.5 0 0 1 -.5.502zm-8.028-1h7.528v-7.566a4.219 4.219 0 0 1 4.214-4.213h4.295v-7.509h-4.525a11.526 11.526 0 0 0 -11.513 11.513z"/></g><path d="m24.92 52.943h-10.4a.813.813 0 0 1 -.819-.809.82.82 0 0 1 .813-.823h10.4a.787.787 0 0 1 .819.778.847.847 0 0 1 -.813.854z" fill="#fff"/><path d="m11.068 52.943h-.437a.8.8 0 0 1 -.819-.8.83.83 0 0 1 .813-.836h.437a.829.829 0 0 1 .819.828.8.8 0 0 1 -.813.808z" fill="#fff"/></svg>