<svg id="line_color" height="512" viewBox="0 0 74 74" width="512" xmlns="http://www.w3.org/2000/svg" data-name="line color"><path d="m74 56.625a.5.5 0 0 1 -.5-.5v-1.375a.5.5 0 0 1 1 0v1.375a.5.5 0 0 1 -.5.5z" fill="#323c6b"/><path d="m74 51.375a.5.5 0 0 1 -.5-.5v-11.125a.5.5 0 0 1 1 0v11.125a.5.5 0 0 1 -.5.5z" fill="#323c6b"/><path d="m3 30.9v31.865a4.691 4.691 0 0 0 4.691 4.691h58.618a4.691 4.691 0 0 0 4.691-4.691v-31.865z" fill="#b1dcc1"/><path d="m66.309 67.956h-58.618a5.2 5.2 0 0 1 -5.191-5.191v-31.865a.5.5 0 0 1 .5-.5h68a.5.5 0 0 1 .5.5v31.865a5.2 5.2 0 0 1 -5.191 5.191zm-62.809-36.556v31.365a4.2 4.2 0 0 0 4.191 4.191h58.618a4.2 4.2 0 0 0 4.191-4.191v-31.365z" fill="#323c6b"/><path d="m68 30.9v31.865a4.691 4.691 0 0 1 -4.691 4.691h3a4.691 4.691 0 0 0 4.691-4.691v-31.865z" fill="#9dceb2"/><path d="m6.34 24.21h61.32v6.69h-61.32z" fill="#9dceb2"/><path d="m67.66 31.4h-61.32a.5.5 0 0 1 -.5-.5v-6.69a.5.5 0 0 1 .5-.5h61.32a.5.5 0 0 1 .5.5v6.69a.5.5 0 0 1 -.5.5zm-60.82-1h60.32v-5.69h-60.32z" fill="#323c6b"/><path d="m64.66 24.21h3v6.69h-3z" fill="#97c4a9"/><path d="m19.035 11.445a.5.5 0 0 1 -.225-.947 80.336 80.336 0 0 1 10.827-4.373.5.5 0 1 1 .313.95 79.3 79.3 0 0 0 -10.69 4.317.5.5 0 0 1 -.225.053z" fill="#323c6b"/><path d="m14.94 13.754a.5.5 0 0 1 -.27-.921q.387-.247.785-.488a.5.5 0 0 1 .518.855q-.387.234-.764.475a.5.5 0 0 1 -.269.079z" fill="#323c6b"/><path d="m64.41 24.21h-54.82c.95-10.39 28.42-16.93 31.39-17.61-1.99.69-.13 7.36 9.85 8.13a15.8 15.8 0 0 1 13.58 9.48z" fill="#fed19a"/><path d="m64.41 24.71h-54.82a.5.5 0 0 1 -.5-.545c.96-10.48 26.64-16.876 31.779-18.052a.5.5 0 0 1 .275.959c-.349.122-.412.643-.354 1.09.277 2.148 3.19 5.538 10.079 6.069a16.438 16.438 0 0 1 14.011 9.806.5.5 0 0 1 -.469.673zm-54.246-1h53.472a15.449 15.449 0 0 0 -12.844-8.481c-7.483-.578-10.675-4.465-10.994-6.938a2.89 2.89 0 0 1 .017-.9c-6.092 1.498-27.99 7.472-29.651 16.319z" fill="#323c6b"/><path d="m38.98 10.6c-1.99.69-.13 7.36 9.85 8.13a15.725 15.725 0 0 1 11.062 5.48h4.518a15.8 15.8 0 0 0 -13.58-9.48c-9.98-.77-11.84-7.44-9.85-8.13-2.928.67-29.657 7.041-31.316 17.178 6.616-7.796 26.794-12.601 29.316-13.178z" fill="#f4bb87"/><path d="m41.061 7.08a.53.53 0 0 1 -.516-.353.464.464 0 0 1 .3-.607c.06-.017.113-.029.158-.039a1.245 1.245 0 0 1 .239-.043.5.5 0 0 1 .153.976c-.017.005-.088.022-.131.031l-.041.009h-.02a.537.537 0 0 1 -.142.026z" fill="#323c6b"/><path d="m3 44.553v9.247h25.56a9.623 9.623 0 0 0 16.88 0h25.56v-9.25h-25.56a9.623 9.623 0 0 0 -16.88 0z" fill="#eeefee"/><g fill="#323c6b"><path d="m37 59.3a10.115 10.115 0 0 1 -8.731-5h-25.269a.5.5 0 0 1 -.5-.5v-9.25a.5.5 0 0 1 .5-.5h25.269a10.123 10.123 0 0 1 17.462 0h25.269a.5.5 0 0 1 .5.5v9.25a.5.5 0 0 1 -.5.5h-25.269a10.115 10.115 0 0 1 -8.731 5zm-33.5-6h25.06a.5.5 0 0 1 .438.26 9.124 9.124 0 0 0 16 0 .5.5 0 0 1 .438-.26h25.064v-8.25h-25.06a.5.5 0 0 1 -.438-.26 9.123 9.123 0 0 0 -16 0 .5.5 0 0 1 -.438.26h-25.064z"/><path d="m64.41 24.71h-54.82a.5.5 0 0 1 -.5-.545c.96-10.48 26.64-16.876 31.779-18.052a.5.5 0 0 1 .275.959c-.349.122-.412.643-.354 1.09.277 2.148 3.19 5.538 10.079 6.069a16.438 16.438 0 0 1 14.011 9.806.5.5 0 0 1 -.469.673zm-54.246-1h53.472a15.449 15.449 0 0 0 -12.844-8.481c-7.483-.578-10.675-4.465-10.994-6.938a2.89 2.89 0 0 1 .017-.9c-6.092 1.498-27.99 7.472-29.651 16.319z"/><path d="m67.66 31.4h-61.32a.5.5 0 0 1 -.5-.5v-6.69a.5.5 0 0 1 .5-.5h61.32a.5.5 0 0 1 .5.5v6.69a.5.5 0 0 1 -.5.5zm-60.82-1h60.32v-5.69h-60.32z"/><path d="m66.309 67.956h-58.618a5.2 5.2 0 0 1 -5.191-5.191v-31.865a.5.5 0 0 1 .5-.5h68a.5.5 0 0 1 .5.5v31.865a5.2 5.2 0 0 1 -5.191 5.191zm-62.809-36.556v31.365a4.2 4.2 0 0 0 4.191 4.191h58.618a4.2 4.2 0 0 0 4.191-4.191v-31.365z"/></g><path d="m7.107 55.687a.84.84 0 0 0 -.841.841v.025a.841.841 0 1 0 1.681 0v-.025a.84.84 0 0 0 -.84-.841z" fill="#f9f9f9"/><path d="m7.107 58.55a.84.84 0 0 0 -.841.841v3.7a.84.84 0 0 0 .841.841h6.987a.841.841 0 1 0 0-1.681h-6.146v-2.861a.84.84 0 0 0 -.841-.84z" fill="#f9f9f9"/></svg>