<svg id="line_color" height="512" viewBox="0 0 74 74" width="512" xmlns="http://www.w3.org/2000/svg" data-name="line color"><path d="m19.448 11.683a.5.5 0 0 1 -.454-.708 19.691 19.691 0 0 1 5.486-7.075.5.5 0 1 1 .63.776 18.7 18.7 0 0 0 -5.21 6.714.5.5 0 0 1 -.452.293z" fill="#323c6b"/><path d="m17.5 15.621a.5.5 0 0 1 -.395-.806 4.709 4.709 0 0 0 .559-.923.5.5 0 0 1 .909.415 5.658 5.658 0 0 1 -.678 1.12.5.5 0 0 1 -.395.194z" fill="#323c6b"/><path d="m17.35 15.8a.5.5 0 0 1 -.381-.823l.135-.167a.5.5 0 0 1 .789.614c-.052.066-.105.133-.16.2a.5.5 0 0 1 -.383.176z" fill="#323c6b"/><path d="m58.68 66.309a.5.5 0 0 1 -.341-.866q.56-.522 1.088-1.062a.5.5 0 1 1 .714.7q-.543.555-1.121 1.093a.5.5 0 0 1 -.34.135z" fill="#323c6b"/><path d="m62.046 62.672a.5.5 0 0 1 -.391-.811 28.924 28.924 0 0 0 2.918-4.424 17.166 17.166 0 0 0 1.741-5.223.5.5 0 0 1 .986.165 18.176 18.176 0 0 1 -1.844 5.527 29.923 29.923 0 0 1 -3.019 4.577.5.5 0 0 1 -.391.189z" fill="#323c6b"/><path d="m41.2 70.828a51.376 51.376 0 0 1 -8.4 0c-10.074-.828-17.851-8.31-21.164-14.561a15.291 15.291 0 0 1 -1.671-6.016l-2.229-29.419 6.531-.726a8.231 8.231 0 0 0 6.578-4.761l1.332-2.917a16.129 16.129 0 0 1 14.672-9.428h.151a16.364 16.364 0 0 1 14.885 9.566l1.269 2.779a8.231 8.231 0 0 0 6.578 4.761l6.531.726-2.228 29.419a15.291 15.291 0 0 1 -1.671 6.016c-3.313 6.251-11.09 13.733-21.164 14.561z" fill="#eeefee"/><path d="m37 71.5c-1.417 0-2.834-.058-4.242-.173-9.9-.812-17.963-8.032-21.563-14.826a15.715 15.715 0 0 1 -1.728-6.212l-2.229-29.419a.5.5 0 0 1 .443-.535l6.531-.726a7.77 7.77 0 0 0 6.179-4.472l1.332-2.917a16.668 16.668 0 0 1 15.126-9.72h.151a16.9 16.9 0 0 1 15.34 9.859l1.27 2.779a7.77 7.77 0 0 0 6.179 4.472l6.531.726a.5.5 0 0 1 .443.535l-2.229 29.418a15.72 15.72 0 0 1 -1.728 6.211c-3.6 6.793-11.664 14.013-21.563 14.825-1.409.117-2.826.175-4.243.175zm-28.729-50.224 2.192 28.937a14.72 14.72 0 0 0 1.615 5.819c3.473 6.553 11.239 13.516 20.762 14.3a50.9 50.9 0 0 0 8.32 0c9.523-.781 17.289-7.744 20.762-14.3a14.724 14.724 0 0 0 1.615-5.82l2.192-28.937-6.051-.675a8.773 8.773 0 0 1 -6.978-5.047l-1.27-2.779a15.9 15.9 0 0 0 -14.43-9.274h-.151a15.668 15.668 0 0 0 -14.217 9.136l-1.332 2.917a8.773 8.773 0 0 1 -6.978 5.047z" fill="#323c6b"/><path d="m59.733 20.107a8.231 8.231 0 0 1 -6.578-4.761l-1.269-2.779a16.364 16.364 0 0 0 -14.886-9.567h-.151c-.477 0-.949.028-1.419.069a16.36 16.36 0 0 1 13.455 9.5l1.269 2.779a8.231 8.231 0 0 0 6.578 4.761l6.531.726-2.228 29.416a15.29 15.29 0 0 1 -1.671 6.016c-3.313 6.251-11.09 13.733-21.164 14.561-.9.074-1.8.115-2.7.141a51.4 51.4 0 0 0 5.7-.141c10.073-.826 17.85-8.31 21.162-14.561a15.29 15.29 0 0 0 1.671-6.016l2.229-29.418z" fill="#dbd8dd"/><g fill="#323c6b"><path d="m65.819 27.207a.434.434 0 0 1 -.062 0l-8.438-1.041a.5.5 0 0 1 -.435-.557.5.5 0 0 1 .557-.435l8.438 1.041a.5.5 0 0 1 -.061 1z"/><path d="m65.438 32.233h-.056l-8.058-.906a.5.5 0 0 1 -.441-.553.509.509 0 0 1 .553-.441l8.058.906a.5.5 0 0 1 -.055 1z"/><path d="m65.033 37.586h-.038l-7.652-.577a.5.5 0 1 1 .075-1l7.652.577a.5.5 0 0 1 -.037 1z"/><path d="m64.586 43.482h-.051l-7.793-.79a.5.5 0 0 1 -.447-.548.509.509 0 0 1 .548-.447l7.793.79a.5.5 0 0 1 -.05 1z"/><path d="m64.161 49.093h-.053l-7.369-.783a.5.5 0 0 1 -.444-.55.494.494 0 0 1 .55-.444l7.369.783a.5.5 0 0 1 -.052 1z"/><path d="m8.181 27.207a.5.5 0 0 1 -.061-1l8.438-1.041a.5.5 0 1 1 .122.992l-8.437 1.042a.434.434 0 0 1 -.062.007z"/><path d="m8.562 32.233a.5.5 0 0 1 -.055-1l8.058-.906a.507.507 0 0 1 .553.441.5.5 0 0 1 -.441.553l-8.058.906z"/><path d="m8.967 37.586a.5.5 0 0 1 -.037-1l7.652-.577a.5.5 0 0 1 .075 1l-7.652.577z"/><path d="m9.414 43.482a.5.5 0 0 1 -.05-1l7.793-.79a.5.5 0 1 1 .1 1l-7.793.79z"/><path d="m9.839 49.093a.5.5 0 0 1 -.052-1l7.369-.783a.5.5 0 1 1 .105.994l-7.369.783z"/></g><path d="m36.82 64.79c-11.338 0-14.3-18.158-15-24.74a36.779 36.779 0 0 1 -.2-3.9v-1.7a36.445 36.445 0 0 1 3.11-15.079c2.3-5.073 6.1-10.146 12.09-10.146s9.787 5.073 12.09 10.146a36.445 36.445 0 0 1 3.108 15.078v1.7a36.779 36.779 0 0 1 -.2 3.9c-.7 6.581-3.66 24.74-15 24.74" fill="#dbd8dd"/><path d="m36.82 65.291c-11.567 0-14.69-17.614-15.5-25.187a37.026 37.026 0 0 1 -.2-3.954v-1.7a36.711 36.711 0 0 1 3.153-15.284c3.1-6.83 7.437-10.44 12.545-10.44s9.445 3.61 12.544 10.44a36.711 36.711 0 0 1 3.153 15.284v1.7a37.026 37.026 0 0 1 -.2 3.954c-.806 7.573-3.928 25.187-15.495 25.187zm0-55.566c-4.753 0-8.667 3.315-11.635 9.853a35.725 35.725 0 0 0 -3.063 14.871v1.7a36.082 36.082 0 0 0 .2 3.848c.606 5.7 3.444 24.292 14.5 24.292s13.892-18.589 14.499-24.289a36.082 36.082 0 0 0 .2-3.848v-1.7a35.725 35.725 0 0 0 -3.063-14.871c-2.971-6.541-6.885-9.856-11.638-9.856z" fill="#323c6b"/><path d="m42.27 50a5.6 5.6 0 1 1 -5.593-5.592 5.609 5.609 0 0 1 5.593 5.592z" fill="#eeefee"/><path d="m36.677 56.111a6.1 6.1 0 1 1 6.093-6.111 6.119 6.119 0 0 1 -6.093 6.111zm0-11.2a5.1 5.1 0 1 0 5.093 5.089 5.108 5.108 0 0 0 -5.093-5.093z" fill="#323c6b"/><path d="m37 71.5c-1.417 0-2.834-.058-4.242-.173-9.9-.812-17.963-8.032-21.563-14.826a15.715 15.715 0 0 1 -1.728-6.212l-2.229-29.419a.5.5 0 0 1 .443-.535l6.531-.726a7.77 7.77 0 0 0 6.179-4.472l1.332-2.917a16.668 16.668 0 0 1 15.126-9.72h.151a16.9 16.9 0 0 1 15.34 9.859l1.27 2.779a7.77 7.77 0 0 0 6.179 4.472l6.531.726a.5.5 0 0 1 .443.535l-2.229 29.418a15.72 15.72 0 0 1 -1.728 6.211c-3.6 6.793-11.664 14.013-21.563 14.825-1.409.117-2.826.175-4.243.175zm-28.729-50.224 2.192 28.937a14.72 14.72 0 0 0 1.615 5.819c3.473 6.553 11.239 13.516 20.762 14.3a50.9 50.9 0 0 0 8.32 0c9.523-.781 17.289-7.744 20.762-14.3a14.724 14.724 0 0 0 1.615-5.82l2.192-28.937-6.051-.675a8.773 8.773 0 0 1 -6.978-5.047l-1.27-2.779a15.9 15.9 0 0 0 -14.43-9.274h-.151a15.668 15.668 0 0 0 -14.217 9.136l-1.332 2.917a8.773 8.773 0 0 1 -6.978 5.047z" fill="#323c6b"/><path d="m35.684 12.937c-.012-.019-.025-.039-.039-.058-.293-.394-.65-.648-1.191-.3-.874.565-.005-.008-.868.574-.464.313-.392.8-.1 1.2a.889.889 0 0 0 1.247.161l.667-.455a.82.82 0 0 0 .284-1.122z" fill="#eeefee"/><path d="m32.683 15.081a.875.875 0 0 0 -.195-.255 1.006 1.006 0 0 0 -1.329-.013 15.9 15.9 0 0 0 -5.028 10.087.924.924 0 0 0 .834.955.867.867 0 0 0 1.035-.746 14.533 14.533 0 0 1 4.5-9.073.794.794 0 0 0 .183-.955z" fill="#eeefee"/></svg>