<svg id="line_color" height="512" viewBox="0 0 74 74" width="512" xmlns="http://www.w3.org/2000/svg" data-name="line color"><path d="m42.714 9.435v3.37h-11.345v-3.37a2.1 2.1 0 0 1 2.1-2.1h7.151a2.1 2.1 0 0 1 2.094 2.1z" fill="#fed19a"/><path d="m42.714 13.305h-11.345a.5.5 0 0 1 -.5-.5v-3.37a2.6 2.6 0 0 1 2.6-2.6h7.151a2.6 2.6 0 0 1 2.6 2.6v3.371a.5.5 0 0 1 -.506.499zm-10.845-1h10.345v-2.87a1.6 1.6 0 0 0 -1.6-1.6h-7.148a1.6 1.6 0 0 0 -1.6 1.6z" fill="#323c6b"/><path d="m40.617 7.337h-3a2.1 2.1 0 0 1 2.1 2.1v3.371h3v-3.373a2.1 2.1 0 0 0 -2.1-2.098z" fill="#f4bb87"/><path d="m40.693 5.739v1.6h-7.3v-1.6a2.739 2.739 0 0 1 2.735-2.739h1.826a2.739 2.739 0 0 1 2.739 2.739z" fill="#f4bb87"/><path d="m40.693 7.837h-7.3a.5.5 0 0 1 -.5-.5v-1.6a3.243 3.243 0 0 1 3.235-3.237h1.826a3.243 3.243 0 0 1 3.239 3.239v1.6a.5.5 0 0 1 -.5.498zm-6.8-1h6.3v-1.1a2.242 2.242 0 0 0 -2.239-2.237h-1.826a2.242 2.242 0 0 0 -2.239 2.239z" fill="#323c6b"/><path d="m37.954 3h-1.826a2.739 2.739 0 0 0 -.587.067 2.738 2.738 0 0 1 2.152 2.673v1.6h3v-1.6a2.739 2.739 0 0 0 -2.739-2.74z" fill="#e6b17d"/><path d="m18.135 61.488a.5.5 0 0 1 -.5-.5v-2.388a23.371 23.371 0 0 1 .48-4.71.5.5 0 1 1 .979.2 22.367 22.367 0 0 0 -.46 4.508v2.388a.5.5 0 0 1 -.499.502z" fill="#323c6b"/><path d="m18.135 64.667a.5.5 0 0 1 -.5-.5v-.917a.5.5 0 0 1 1 0v.917a.5.5 0 0 1 -.5.5z" fill="#323c6b"/><path d="m55.552 31.69a.5.5 0 0 1 -.5-.48q-.023-.552-.071-1.1a.5.5 0 0 1 1-.089q.051.573.074 1.15a.5.5 0 0 1 -.479.52z" fill="#323c6b"/><path d="m54.965 27.34a.5.5 0 0 1 -.486-.387c-.157-.675-.346-1.348-.562-2a22.821 22.821 0 0 0 -3.613-6.8.5.5 0 0 1 .792-.611 23.817 23.817 0 0 1 3.771 7.1c.225.68.422 1.382.586 2.086a.5.5 0 0 1 -.374.6.506.506 0 0 1 -.114.012z" fill="#323c6b"/><path d="m42.325 12.805h-10.868a1.413 1.413 0 0 0 -1.135.572l-4.78 6.454a19.136 19.136 0 0 0 -3.759 11.39v2.912c0 .953.736 6.389 1.092 8.962a14.538 14.538 0 0 1 .153 2.731 27.216 27.216 0 0 1 -.524 4.109l-.96 4.663a19.843 19.843 0 0 0 -.408 4v9.987a2.414 2.414 0 0 0 2.413 2.415h26.9a2.414 2.414 0 0 0 2.414-2.414v-11.314a21.441 21.441 0 0 0 -.41-4.175l-.517-2.6a34.606 34.606 0 0 1 -.662-6.739 34.606 34.606 0 0 1 .672-6.787l.284-1.422a17.435 17.435 0 0 0 .339-3.419 20.374 20.374 0 0 0 -1.028-6.389 20.374 20.374 0 0 0 -3.218-6.06l-4.881-6.324a1.413 1.413 0 0 0 -1.117-.552z" fill="#b6d2dd"/><path d="m50.451 71.5h-26.9a2.917 2.917 0 0 1 -2.914-2.914v-9.986a20.361 20.361 0 0 1 .418-4.1l.96-4.663a26.839 26.839 0 0 0 .515-4.033 13.9 13.9 0 0 0 -.149-2.636c-.41-2.959-1.1-8.068-1.1-9.031v-2.916a19.767 19.767 0 0 1 3.856-11.687l4.783-6.454a1.919 1.919 0 0 1 1.537-.774h10.868a1.925 1.925 0 0 1 1.514.744l4.882 6.324a20.877 20.877 0 0 1 4.35 12.754 17.973 17.973 0 0 1 -.349 3.518l-.284 1.422a34.1 34.1 0 0 0 -.01 13.331l.517 2.6a21.989 21.989 0 0 1 .42 4.272v11.315a2.917 2.917 0 0 1 -2.914 2.914zm-18.994-58.195a.916.916 0 0 0 -.733.369l-4.781 6.455a18.761 18.761 0 0 0 -3.66 11.092v2.912c0 .65.406 3.975 1.087 8.894a14.857 14.857 0 0 1 .158 2.824 27.875 27.875 0 0 1 -.534 4.184l-.96 4.663a19.354 19.354 0 0 0 -.4 3.9v9.987a1.916 1.916 0 0 0 1.915 1.915h26.9a1.916 1.916 0 0 0 1.914-1.914v-11.314a21 21 0 0 0 -.4-4.078l-.517-2.6a35.088 35.088 0 0 1 .01-13.721l.284-1.422a16.99 16.99 0 0 0 .329-3.321 19.866 19.866 0 0 0 -4.142-12.143l-4.88-6.327a.918.918 0 0 0 -.722-.355z" fill="#323c6b"/><path d="m52.455 53.1-.517-2.6a34.606 34.606 0 0 1 .01-13.526l.284-1.422a17.435 17.435 0 0 0 .339-3.419 20.374 20.374 0 0 0 -4.246-12.449l-4.881-6.324a1.413 1.413 0 0 0 -1.118-.55h-3a1.413 1.413 0 0 1 1.118.55l4.881 6.324a20.374 20.374 0 0 1 4.246 12.449 17.435 17.435 0 0 1 -.339 3.419l-.284 1.422a34.606 34.606 0 0 0 -.01 13.526l.517 2.6a21.443 21.443 0 0 1 .41 4.175v11.311a2.414 2.414 0 0 1 -2.414 2.414h3a2.414 2.414 0 0 0 2.414-2.414v-11.314a21.443 21.443 0 0 0 -.41-4.172z" fill="#acc6cc"/><rect fill="#eeefee" height="19.299" rx="1.642" width="14.723" x="29.638" y="41.688"/><path d="m42.719 61.488h-11.438a2.145 2.145 0 0 1 -2.143-2.143v-16.014a2.145 2.145 0 0 1 2.143-2.142h11.438a2.145 2.145 0 0 1 2.143 2.142v16.014a2.145 2.145 0 0 1 -2.143 2.143zm-11.438-19.3a1.144 1.144 0 0 0 -1.143 1.142v16.015a1.144 1.144 0 0 0 1.143 1.143h11.438a1.144 1.144 0 0 0 1.143-1.143v-16.014a1.144 1.144 0 0 0 -1.143-1.142z" fill="#323c6b"/><path d="m34.491 26.842c-1.833 4.437-4.735 7.535-6.417 6.834s-1.774-4.717.336-9.368c1.68-3.7 3.642-4.914 5.325-4.212s2.309 2.987.756 6.746z" fill="#f9f9f9"/><g fill="#323c6b"><path d="m28.586 34.276a1.807 1.807 0 0 1 -.7-.139 2.323 2.323 0 0 1 -1.22-1.367c-.756-1.921-.261-5.243 1.293-8.669 2.4-5.281 4.975-4.883 5.973-4.467.817.34 3.307 1.881 1.026 7.4-1.452 3.516-3.573 6.276-5.4 7.033a2.533 2.533 0 0 1 -.972.209zm4.225-13.869c-1.334 0-2.737 1.443-3.945 4.107-1.62 3.571-1.807 6.536-1.273 7.889a1.347 1.347 0 0 0 .674.811 1.18 1.18 0 0 0 .9-.072c1.547-.64 3.546-3.309 4.861-6.491 1.281-3.1 1.094-5.436-.487-6.095a1.893 1.893 0 0 0 -.73-.149z"/><path d="m40.75 46.833h-7.5a.5.5 0 0 1 0-1h7.5a.5.5 0 0 1 0 1z"/><path d="m40.75 51.838h-7.5a.5.5 0 0 1 0-1h7.5a.5.5 0 0 1 0 1z"/><path d="m40.75 56.843h-7.5a.5.5 0 0 1 0-1h7.5a.5.5 0 0 1 0 1z"/><path d="m50.451 71.5h-26.9a2.917 2.917 0 0 1 -2.914-2.914v-9.986a20.361 20.361 0 0 1 .418-4.1l.96-4.663a26.839 26.839 0 0 0 .515-4.033 13.9 13.9 0 0 0 -.149-2.636c-.41-2.959-1.1-8.068-1.1-9.031v-2.916a19.767 19.767 0 0 1 3.856-11.687l4.783-6.454a1.919 1.919 0 0 1 1.537-.774h10.868a1.925 1.925 0 0 1 1.514.744l4.882 6.324a20.877 20.877 0 0 1 4.35 12.754 17.973 17.973 0 0 1 -.349 3.518l-.284 1.422a34.1 34.1 0 0 0 -.01 13.331l.517 2.6a21.989 21.989 0 0 1 .42 4.272v11.315a2.917 2.917 0 0 1 -2.914 2.914zm-18.994-58.195a.916.916 0 0 0 -.733.369l-4.781 6.455a18.761 18.761 0 0 0 -3.66 11.092v2.912c0 .65.406 3.975 1.087 8.894a14.857 14.857 0 0 1 .158 2.824 27.875 27.875 0 0 1 -.534 4.184l-.96 4.663a19.354 19.354 0 0 0 -.4 3.9v9.987a1.916 1.916 0 0 0 1.915 1.915h26.9a1.916 1.916 0 0 0 1.914-1.914v-11.314a21 21 0 0 0 -.4-4.078l-.517-2.6a35.088 35.088 0 0 1 .01-13.721l.284-1.422a16.99 16.99 0 0 0 .329-3.321 19.866 19.866 0 0 0 -4.142-12.143l-4.88-6.327a.918.918 0 0 0 -.722-.355z"/><path d="m42.714 13.305h-11.345a.5.5 0 0 1 -.5-.5v-3.37a2.6 2.6 0 0 1 2.6-2.6h7.151a2.6 2.6 0 0 1 2.6 2.6v3.371a.5.5 0 0 1 -.506.499zm-10.845-1h10.345v-2.87a1.6 1.6 0 0 0 -1.6-1.6h-7.148a1.6 1.6 0 0 0 -1.6 1.6z"/><path d="m40.693 7.837h-7.3a.5.5 0 0 1 -.5-.5v-1.6a3.243 3.243 0 0 1 3.235-3.237h1.826a3.243 3.243 0 0 1 3.239 3.239v1.6a.5.5 0 0 1 -.5.498zm-6.8-1h6.3v-1.1a2.242 2.242 0 0 0 -2.239-2.237h-1.826a2.242 2.242 0 0 0 -2.239 2.239z"/></g><path d="m33.25 67.2a.84.84 0 0 1 -.841.841h-.025a.841.841 0 1 1 0-1.681h.025a.84.84 0 0 1 .841.84z" fill="#f9f9f9"/><path d="m30.388 67.2a.84.84 0 0 1 -.841.841h-4.7a.84.84 0 0 1 -.841-.841v-6.985a.841.841 0 0 1 1.681 0v6.146h3.858a.84.84 0 0 1 .843.839z" fill="#f9f9f9"/></svg>