<svg id="line_color" height="512" viewBox="0 0 74 74" width="512" xmlns="http://www.w3.org/2000/svg" data-name="line color"><rect fill="#eeefee" height="5.79" rx="1" width="63.3" x="5.35" y="28.29"/><path d="m67.65 34.58h-61.3a1.5 1.5 0 0 1 -1.5-1.5v-3.79a1.5 1.5 0 0 1 1.5-1.5h61.3a1.5 1.5 0 0 1 1.5 1.5v3.79a1.5 1.5 0 0 1 -1.5 1.5zm-61.3-5.79a.5.5 0 0 0 -.5.5v3.79a.5.5 0 0 0 .5.5h61.3a.5.5 0 0 0 .5-.5v-3.79a.5.5 0 0 0 -.5-.5z" fill="#323c6b"/><path d="m67.65 28.29h-3a1 1 0 0 1 1 1v3.79a1 1 0 0 1 -1 1h3a1 1 0 0 0 1-1v-3.79a1 1 0 0 0 -1-1z" fill="#dbd8dd"/><path d="m55.608 62.443a3.034 3.034 0 0 1 -.556-.052 2.9 2.9 0 0 1 -2.216-2.191 3 3 0 0 1 .22-1.837 20.116 20.116 0 0 0 2.058-6.592l.021-.2a.5.5 0 0 1 .5-.45.5.5 0 0 1 .5.45 17.512 17.512 0 0 0 1.958 6.662 3 3 0 0 1 .352 1.374 2.836 2.836 0 0 1 -2.837 2.836zm0-7.945a24.437 24.437 0 0 1 -1.65 4.3 1.983 1.983 0 0 0 -.139 1.216 1.886 1.886 0 0 0 1.428 1.393 1.979 1.979 0 0 0 .362.033 1.835 1.835 0 0 0 1.831-1.83 2 2 0 0 0 -.235-.9 17.317 17.317 0 0 1 -1.597-4.21zm-12.408 7.945a3.046 3.046 0 0 1 -.556-.051 2.9 2.9 0 0 1 -2.219-2.186 2.978 2.978 0 0 1 .214-1.826 19.647 19.647 0 0 0 2.065-6.617l.019-.192a.5.5 0 0 1 .5-.451.5.5 0 0 1 .5.45 17.6 17.6 0 0 0 1.973 6.693 2.873 2.873 0 0 1 .338 1.347 2.835 2.835 0 0 1 -2.834 2.833zm0-7.935a23.833 23.833 0 0 1 -1.662 4.306 1.966 1.966 0 0 0 -.132 1.2 1.891 1.891 0 0 0 1.431 1.393 2.037 2.037 0 0 0 .361.032 1.833 1.833 0 0 0 1.83-1.833 1.867 1.867 0 0 0 -.219-.874 17.475 17.475 0 0 1 -1.609-4.224zm-12.4 7.935a3.052 3.052 0 0 1 -.556-.052 2.9 2.9 0 0 1 -2.218-2.191 3 3 0 0 1 .22-1.836 20.116 20.116 0 0 0 2.054-6.588l.021-.2a.5.5 0 0 1 .5-.45.5.5 0 0 1 .5.45 17.512 17.512 0 0 0 1.958 6.662 3 3 0 0 1 .352 1.374 2.835 2.835 0 0 1 -2.831 2.831zm0-7.945a24.437 24.437 0 0 1 -1.65 4.3 1.983 1.983 0 0 0 -.139 1.216 1.885 1.885 0 0 0 1.428 1.393 1.98 1.98 0 0 0 .362.033 1.834 1.834 0 0 0 1.829-1.83 2 2 0 0 0 -.235-.9 17.317 17.317 0 0 1 -1.595-4.21zm-12.409 7.945a3.046 3.046 0 0 1 -.556-.051 2.9 2.9 0 0 1 -2.219-2.192 2.972 2.972 0 0 1 .214-1.824 19.634 19.634 0 0 0 2.07-6.613l.019-.189a.5.5 0 0 1 .5-.452.5.5 0 0 1 .5.447 17.607 17.607 0 0 0 1.974 6.7 2.864 2.864 0 0 1 .337 1.346 2.834 2.834 0 0 1 -2.839 2.828zm0-7.934a23.807 23.807 0 0 1 -1.662 4.306 1.987 1.987 0 0 0 -.132 1.2 1.89 1.89 0 0 0 1.431 1.394 2.037 2.037 0 0 0 .361.032 1.833 1.833 0 0 0 1.831-1.831 1.857 1.857 0 0 0 -.22-.872 17.508 17.508 0 0 1 -1.608-4.229zm50.569 6.116a.5.5 0 0 1 -.5-.5v-.875a.5.5 0 0 1 1 0v.875a.5.5 0 0 1 -.5.5zm0-4.375a.5.5 0 0 1 -.5-.5v-14.375a.5.5 0 0 1 1 0v14.375a.5.5 0 0 1 -.5.5z" fill="#323c6b"/><path d="m58.62 34.08v17.27a15.179 15.179 0 0 0 1.69 5.74 5.468 5.468 0 0 1 .63 2.52 5.333 5.333 0 0 1 -10.56 1.06 5.5 5.5 0 0 1 .43-3.4 17.81 17.81 0 0 0 1.82-5.77h-.03v-17.42h-6.39v17.27a15.178 15.178 0 0 0 1.69 5.74 5.335 5.335 0 1 1 -9.93 3.58 5.5 5.5 0 0 1 .43-3.4 17.337 17.337 0 0 0 1.82-5.77h-.03v-17.42h-6.38v17.27a15.179 15.179 0 0 0 1.69 5.74 5.468 5.468 0 0 1 .63 2.52 5.333 5.333 0 0 1 -10.56 1.06 5.5 5.5 0 0 1 .43-3.4 17.81 17.81 0 0 0 1.82-5.77h-.03v-17.42h-6.39v17.27a15.178 15.178 0 0 0 1.69 5.74 5.335 5.335 0 1 1 -9.93 3.58 5.5 5.5 0 0 1 .43-3.4 17.337 17.337 0 0 0 1.82-5.77h-.03v-17.42h-7.34v31.96a4.959 4.959 0 0 0 4.96 4.96h48a4.959 4.959 0 0 0 4.96-4.96v-31.96z" fill="#b6d2dd"/><path d="m61 71.5h-48a5.466 5.466 0 0 1 -5.46-5.46v-31.96a.5.5 0 0 1 .5-.5h7.34a.5.5 0 0 1 .5.5v17.27a.445.445 0 0 1 .027.2 17.684 17.684 0 0 1 -1.869 5.938 4.981 4.981 0 0 0 -.387 3.086 4.834 4.834 0 1 0 9-3.251 15.612 15.612 0 0 1 -1.751-5.923v-17.32a.5.5 0 0 1 .5-.5h6.39a.5.5 0 0 1 .5.5v17.272a.449.449 0 0 1 .027.2 18.179 18.179 0 0 1 -1.867 5.934 4.983 4.983 0 0 0 -.389 3.088 4.834 4.834 0 0 0 9.569-.967 4.991 4.991 0 0 0 -.573-2.289 15.6 15.6 0 0 1 -1.744-5.918v-17.32a.5.5 0 0 1 .5-.5h6.38a.5.5 0 0 1 .5.5v17.271a.449.449 0 0 1 .027.2 17.7 17.7 0 0 1 -1.868 5.938 4.984 4.984 0 0 0 -.388 3.086 4.834 4.834 0 1 0 9-3.251 15.62 15.62 0 0 1 -1.752-5.924v-17.32a.5.5 0 0 1 .5-.5h6.388a.5.5 0 0 1 .5.5v17.272a.449.449 0 0 1 .027.2 18.179 18.179 0 0 1 -1.867 5.934 4.983 4.983 0 0 0 -.389 3.088 4.834 4.834 0 0 0 9.569-.967 4.991 4.991 0 0 0 -.573-2.289 15.6 15.6 0 0 1 -1.744-5.918v-17.32a.5.5 0 0 1 .5-.5h7.34a.5.5 0 0 1 .5.5v31.96a5.466 5.466 0 0 1 -5.463 5.46zm-52.46-36.92v31.46a4.465 4.465 0 0 0 4.46 4.46h48a4.465 4.465 0 0 0 4.46-4.46v-31.46h-6.34v16.77a14.6 14.6 0 0 0 1.629 5.5 6 6 0 0 1 .69 2.758 5.833 5.833 0 0 1 -11.551 1.155 5.982 5.982 0 0 1 .47-3.709 17.454 17.454 0 0 0 1.755-5.446.45.45 0 0 1 -.013-.108v-16.92h-5.39v16.77a14.6 14.6 0 0 0 1.629 5.5 5.835 5.835 0 1 1 -10.861 3.913 5.988 5.988 0 0 1 .47-3.709 16.977 16.977 0 0 0 1.752-5.442.447.447 0 0 1 -.014-.112v-16.92h-5.376v16.77a14.6 14.6 0 0 0 1.629 5.5 6 6 0 0 1 .69 2.758 5.833 5.833 0 0 1 -11.551 1.154 5.981 5.981 0 0 1 .47-3.709 17.454 17.454 0 0 0 1.752-5.444.45.45 0 0 1 -.014-.109v-16.92h-5.386v16.77a14.6 14.6 0 0 0 1.629 5.5 5.835 5.835 0 1 1 -10.86 3.913 5.98 5.98 0 0 1 .469-3.709 16.964 16.964 0 0 0 1.756-5.442.437.437 0 0 1 -.015-.113v-16.919z" fill="#323c6b"/><g fill="#acc6cc"><path d="m38.22 51.5a17.337 17.337 0 0 1 -1.82 5.77 5.474 5.474 0 0 0 -.4 1.23 5.24 5.24 0 0 1 .128 1.107 5.319 5.319 0 0 1 -.128 1.17 5.3 5.3 0 0 0 6.18 4.068l-.04-.005a5.378 5.378 0 0 1 -4.17-4.17 5.5 5.5 0 0 1 .43-3.4 17.337 17.337 0 0 0 1.82-5.77h-.03v-17.42h-2v17.42z"/><path d="m50.63 51.5a17.81 17.81 0 0 1 -1.82 5.77 5.475 5.475 0 0 0 -.4 1.251 5.1 5.1 0 0 1 -.005 2.235 5.3 5.3 0 0 0 6.184 4.089l-.038-.005a5.365 5.365 0 0 1 -4.17-4.17 5.5 5.5 0 0 1 .43-3.4 17.81 17.81 0 0 0 1.82-5.77h-.031v-17.42h-2v17.42z"/><path d="m25.82 51.5a17.81 17.81 0 0 1 -1.82 5.77 5.476 5.476 0 0 0 -.4 1.251 5.1 5.1 0 0 1 -.005 2.234 5.3 5.3 0 0 0 6.184 4.09l-.038-.005a5.365 5.365 0 0 1 -4.17-4.17 5.5 5.5 0 0 1 .43-3.4 17.81 17.81 0 0 0 1.82-5.77h-.03v-17.42h-2v17.42z"/><path d="m63.96 34.08v31.96a4.959 4.959 0 0 1 -4.96 4.96h2a4.959 4.959 0 0 0 4.96-4.96v-31.96z"/><path d="m13.41 51.5a17.337 17.337 0 0 1 -1.82 5.77 5.5 5.5 0 0 0 -.43 3.4 5.306 5.306 0 0 0 6.21 4.175l-.04-.005a5.378 5.378 0 0 1 -4.17-4.17 5.5 5.5 0 0 1 .43-3.4 17.337 17.337 0 0 0 1.82-5.77h-.03v-17.42h-2v17.42z"/></g><path d="m60.94 8.33a5.468 5.468 0 0 1 -.63 2.52 15.179 15.179 0 0 0 -1.69 5.74v-.15h-5.99a17.811 17.811 0 0 0 -1.82-5.77 5.5 5.5 0 0 1 -.43-3.4 5.333 5.333 0 0 1 10.56 1.06z" fill="#eeefee"/><path d="m58.621 17.09h-.021a.5.5 0 0 1 -.332-.149h-5.638a.5.5 0 0 1 -.5-.445 17.2 17.2 0 0 0 -1.772-5.606 5.981 5.981 0 0 1 -.472-3.712 5.834 5.834 0 0 1 11.554 1.152 5.992 5.992 0 0 1 -.687 2.751 14.633 14.633 0 0 0 -1.636 5.559.5.5 0 0 1 -.496.45zm-5.55-1.15h5.122a15.349 15.349 0 0 1 1.678-5.328 4.983 4.983 0 0 0 .569-2.282 4.833 4.833 0 0 0 -9.569-.965 4.982 4.982 0 0 0 .391 3.09 18.787 18.787 0 0 1 1.808 5.485z" fill="#323c6b"/><path d="m54.587 3.095a5.341 5.341 0 0 1 4.353 5.235 5.468 5.468 0 0 1 -.63 2.52 15.107 15.107 0 0 0 -1.669 5.59h1.979v.15a15.179 15.179 0 0 1 1.69-5.74 5.468 5.468 0 0 0 .63-2.52 5.342 5.342 0 0 0 -6.353-5.235z" fill="#dbd8dd"/><path d="m52.6 16.44h6.02v11.85h-6.02z" fill="#fed19a"/><path d="m58.62 28.79h-6.02a.5.5 0 0 1 -.5-.5v-11.85a.5.5 0 0 1 .5-.5h6.02a.5.5 0 0 1 .5.5v11.85a.5.5 0 0 1 -.5.5zm-5.52-1h5.02v-10.85h-5.02z" fill="#323c6b"/><path d="m56.62 16.44h2v11.85h-2z" fill="#f4bb87"/><path d="m58.621 17.09h-.021a.5.5 0 0 1 -.332-.149h-5.638a.5.5 0 0 1 -.5-.445 17.2 17.2 0 0 0 -1.772-5.606 5.981 5.981 0 0 1 -.472-3.712 5.834 5.834 0 0 1 11.554 1.152 5.992 5.992 0 0 1 -.687 2.751 14.633 14.633 0 0 0 -1.636 5.559.5.5 0 0 1 -.496.45zm-5.55-1.15h5.122a15.349 15.349 0 0 1 1.678-5.328 4.983 4.983 0 0 0 .569-2.282 4.833 4.833 0 0 0 -9.569-.965 4.982 4.982 0 0 0 .391 3.09 18.787 18.787 0 0 1 1.808 5.485z" fill="#323c6b"/><path d="m58.62 28.79h-6.02a.5.5 0 0 1 -.5-.5v-11.85a.5.5 0 0 1 .5-.5h6.02a.5.5 0 0 1 .5.5v11.85a.5.5 0 0 1 -.5.5zm-5.52-1h5.02v-10.85h-5.02z" fill="#323c6b"/><path d="m60.94 59.61a5.333 5.333 0 0 1 -10.56 1.06 5.5 5.5 0 0 1 .43-3.4 17.81 17.81 0 0 0 1.82-5.77h5.99v-.15a15.179 15.179 0 0 0 1.69 5.74 5.468 5.468 0 0 1 .63 2.52z" fill="#eeefee"/><path d="m55.6 65.441a5.986 5.986 0 0 1 -1.144-.111 5.856 5.856 0 0 1 -4.565-4.566 5.982 5.982 0 0 1 .47-3.709 17.213 17.213 0 0 0 1.774-5.61.5.5 0 0 1 .5-.445h5.633a.5.5 0 0 1 .854.3 14.624 14.624 0 0 0 1.632 5.551 6 6 0 0 1 .69 2.758 5.839 5.839 0 0 1 -5.844 5.832zm-2.53-13.441a18.786 18.786 0 0 1 -1.811 5.489 4.983 4.983 0 0 0 -.389 3.088 4.834 4.834 0 0 0 9.569-.967 4.991 4.991 0 0 0 -.573-2.289 15.335 15.335 0 0 1 -1.674-5.321z" fill="#323c6b"/><path d="m60.31 57.09a15.179 15.179 0 0 1 -1.69-5.74v.15h-1.979a15.106 15.106 0 0 0 1.669 5.59 5.468 5.468 0 0 1 .63 2.52 5.341 5.341 0 0 1 -4.352 5.235 5.342 5.342 0 0 0 6.352-5.235 5.468 5.468 0 0 0 -.63-2.52z" fill="#dbd8dd"/><path d="m52.6 34.08h6.02v17.42h-6.02z" fill="#fed19a"/><path d="m58.62 52h-6.02a.5.5 0 0 1 -.5-.5v-17.42a.5.5 0 0 1 .5-.5h6.02a.5.5 0 0 1 .5.5v17.42a.5.5 0 0 1 -.5.5zm-5.52-1h5.02v-16.42h-5.02z" fill="#323c6b"/><path d="m56.62 34.08h2v17.42h-2z" fill="#f4bb87"/><path d="m58.62 52h-6.02a.5.5 0 0 1 -.5-.5v-17.42a.5.5 0 0 1 .5-.5h6.02a.5.5 0 0 1 .5.5v17.42a.5.5 0 0 1 -.5.5zm-5.52-1h5.02v-16.42h-5.02z" fill="#323c6b"/><path d="m55.6 65.441a5.986 5.986 0 0 1 -1.144-.111 5.856 5.856 0 0 1 -4.565-4.566 5.982 5.982 0 0 1 .47-3.709 17.213 17.213 0 0 0 1.774-5.61.5.5 0 0 1 .5-.445h5.633a.5.5 0 0 1 .854.3 14.624 14.624 0 0 0 1.632 5.551 6 6 0 0 1 .69 2.758 5.839 5.839 0 0 1 -5.844 5.832zm-2.53-13.441a18.786 18.786 0 0 1 -1.811 5.489 4.983 4.983 0 0 0 -.389 3.088 4.834 4.834 0 0 0 9.569-.967 4.991 4.991 0 0 0 -.573-2.289 15.335 15.335 0 0 1 -1.674-5.321z" fill="#323c6b"/><path d="m48.53 8.33a5.348 5.348 0 0 1 -.63 2.52 15.178 15.178 0 0 0 -1.69 5.74v-.15h-5.99a17.338 17.338 0 0 0 -1.82-5.77 5.5 5.5 0 0 1 -.43-3.4 5.333 5.333 0 0 1 10.56 1.06z" fill="#eeefee"/><path d="m46.21 17.09h-.025a.5.5 0 0 1 -.332-.149h-5.633a.5.5 0 0 1 -.5-.448 16.738 16.738 0 0 0 -1.771-5.6 5.989 5.989 0 0 1 -.473-3.714 5.834 5.834 0 1 1 10.863 3.909 14.623 14.623 0 0 0 -1.634 5.554.5.5 0 0 1 -.495.448zm-5.548-1.15h5.12a15.357 15.357 0 0 1 1.678-5.328 4.873 4.873 0 0 0 .57-2.282 4.833 4.833 0 0 0 -9.569-.965 4.985 4.985 0 0 0 .391 3.09 18.268 18.268 0 0 1 1.81 5.485z" fill="#323c6b"/><path d="m42.18 3.095a5.332 5.332 0 0 1 3.72 7.755 15.106 15.106 0 0 0 -1.669 5.59h1.979v.15a15.178 15.178 0 0 1 1.69-5.74 5.337 5.337 0 0 0 -5.72-7.755z" fill="#dbd8dd"/><path d="m40.19 16.44h6.02v11.85h-6.02z" fill="#fed19a"/><path d="m46.21 28.79h-6.02a.5.5 0 0 1 -.5-.5v-11.85a.5.5 0 0 1 .5-.5h6.02a.5.5 0 0 1 .5.5v11.85a.5.5 0 0 1 -.5.5zm-5.52-1h5.02v-10.85h-5.02z" fill="#323c6b"/><path d="m44.21 16.44h2v11.85h-2z" fill="#f4bb87"/><path d="m46.21 17.09h-.025a.5.5 0 0 1 -.332-.149h-5.633a.5.5 0 0 1 -.5-.448 16.738 16.738 0 0 0 -1.771-5.6 5.989 5.989 0 0 1 -.473-3.714 5.834 5.834 0 1 1 10.863 3.909 14.623 14.623 0 0 0 -1.634 5.554.5.5 0 0 1 -.495.448zm-5.548-1.15h5.12a15.357 15.357 0 0 1 1.678-5.328 4.873 4.873 0 0 0 .57-2.282 4.833 4.833 0 0 0 -9.569-.965 4.985 4.985 0 0 0 .391 3.09 18.268 18.268 0 0 1 1.81 5.485z" fill="#323c6b"/><path d="m46.21 28.79h-6.02a.5.5 0 0 1 -.5-.5v-11.85a.5.5 0 0 1 .5-.5h6.02a.5.5 0 0 1 .5.5v11.85a.5.5 0 0 1 -.5.5zm-5.52-1h5.02v-10.85h-5.02z" fill="#323c6b"/><path d="m48.53 59.61a5.333 5.333 0 0 1 -10.56 1.06 5.5 5.5 0 0 1 .43-3.4 17.337 17.337 0 0 0 1.82-5.77h5.99v-.15a15.178 15.178 0 0 0 1.69 5.74 5.348 5.348 0 0 1 .63 2.52z" fill="#eeefee"/><path d="m43.19 65.441a6 6 0 0 1 -1.145-.111 5.861 5.861 0 0 1 -4.566-4.566 5.988 5.988 0 0 1 .47-3.709 16.751 16.751 0 0 0 1.774-5.607.5.5 0 0 1 .5-.448h5.633a.5.5 0 0 1 .854.3 14.626 14.626 0 0 0 1.632 5.551 5.834 5.834 0 0 1 -5.149 8.59zm-2.528-13.441a18.291 18.291 0 0 1 -1.813 5.491 4.984 4.984 0 0 0 -.388 3.086 4.834 4.834 0 1 0 9-3.251 15.364 15.364 0 0 1 -1.679-5.326z" fill="#323c6b"/><path d="m47.9 57.09a15.178 15.178 0 0 1 -1.69-5.74v.15h-1.978a15.1 15.1 0 0 0 1.668 5.59 5.332 5.332 0 0 1 -3.72 7.755 5.337 5.337 0 0 0 5.72-7.755z" fill="#dbd8dd"/><path d="m40.19 34.08h6.02v17.42h-6.02z" fill="#fed19a"/><path d="m46.21 52h-6.02a.5.5 0 0 1 -.5-.5v-17.42a.5.5 0 0 1 .5-.5h6.02a.5.5 0 0 1 .5.5v17.42a.5.5 0 0 1 -.5.5zm-5.52-1h5.02v-16.42h-5.02z" fill="#323c6b"/><path d="m44.21 34.08h2v17.42h-2z" fill="#f4bb87"/><path d="m46.21 52h-6.02a.5.5 0 0 1 -.5-.5v-17.42a.5.5 0 0 1 .5-.5h6.02a.5.5 0 0 1 .5.5v17.42a.5.5 0 0 1 -.5.5zm-5.52-1h5.02v-16.42h-5.02z" fill="#323c6b"/><path d="m43.19 65.441a6 6 0 0 1 -1.145-.111 5.861 5.861 0 0 1 -4.566-4.566 5.988 5.988 0 0 1 .47-3.709 16.751 16.751 0 0 0 1.774-5.607.5.5 0 0 1 .5-.448h5.633a.5.5 0 0 1 .854.3 14.626 14.626 0 0 0 1.632 5.551 5.834 5.834 0 0 1 -5.149 8.59zm-2.528-13.441a18.291 18.291 0 0 1 -1.813 5.491 4.984 4.984 0 0 0 -.388 3.086 4.834 4.834 0 1 0 9-3.251 15.364 15.364 0 0 1 -1.679-5.326z" fill="#323c6b"/><path d="m36.13 8.33a5.468 5.468 0 0 1 -.63 2.52 15.179 15.179 0 0 0 -1.69 5.74v-.15h-5.99a17.811 17.811 0 0 0 -1.82-5.77 5.5 5.5 0 0 1 -.43-3.4 5.333 5.333 0 0 1 10.56 1.06z" fill="#eeefee"/><path d="m33.811 17.09h-.025a.5.5 0 0 1 -.332-.149h-5.634a.5.5 0 0 1 -.5-.445 17.2 17.2 0 0 0 -1.772-5.606 5.981 5.981 0 0 1 -.472-3.712 5.834 5.834 0 0 1 11.554 1.152 5.992 5.992 0 0 1 -.687 2.751 14.633 14.633 0 0 0 -1.636 5.559.5.5 0 0 1 -.496.45zm-5.55-1.15h5.122a15.349 15.349 0 0 1 1.678-5.328 4.983 4.983 0 0 0 .569-2.282 4.833 4.833 0 0 0 -9.569-.966 4.984 4.984 0 0 0 .391 3.091 18.787 18.787 0 0 1 1.808 5.485z" fill="#323c6b"/><path d="m29.777 3.095a5.341 5.341 0 0 1 4.353 5.235 5.468 5.468 0 0 1 -.63 2.52 15.107 15.107 0 0 0 -1.669 5.59h1.979v.15a15.179 15.179 0 0 1 1.69-5.74 5.468 5.468 0 0 0 .63-2.52 5.342 5.342 0 0 0 -6.353-5.235z" fill="#dbd8dd"/><path d="m27.79 16.44h6.02v11.85h-6.02z" fill="#fed19a"/><path d="m33.81 28.79h-6.02a.5.5 0 0 1 -.5-.5v-11.85a.5.5 0 0 1 .5-.5h6.02a.5.5 0 0 1 .5.5v11.85a.5.5 0 0 1 -.5.5zm-5.52-1h5.02v-10.85h-5.02z" fill="#323c6b"/><path d="m31.81 16.44h2v11.85h-2z" fill="#f4bb87"/><path d="m33.811 17.09h-.025a.5.5 0 0 1 -.332-.149h-5.634a.5.5 0 0 1 -.5-.445 17.2 17.2 0 0 0 -1.772-5.606 5.981 5.981 0 0 1 -.472-3.712 5.834 5.834 0 0 1 11.554 1.152 5.992 5.992 0 0 1 -.687 2.751 14.633 14.633 0 0 0 -1.636 5.559.5.5 0 0 1 -.496.45zm-5.55-1.15h5.122a15.349 15.349 0 0 1 1.678-5.328 4.983 4.983 0 0 0 .569-2.282 4.833 4.833 0 0 0 -9.569-.966 4.984 4.984 0 0 0 .391 3.091 18.787 18.787 0 0 1 1.808 5.485z" fill="#323c6b"/><path d="m33.81 28.79h-6.02a.5.5 0 0 1 -.5-.5v-11.85a.5.5 0 0 1 .5-.5h6.02a.5.5 0 0 1 .5.5v11.85a.5.5 0 0 1 -.5.5zm-5.52-1h5.02v-10.85h-5.02z" fill="#323c6b"/><path d="m36.13 59.61a5.333 5.333 0 0 1 -10.56 1.06 5.5 5.5 0 0 1 .43-3.4 17.81 17.81 0 0 0 1.82-5.77h5.99v-.15a15.179 15.179 0 0 0 1.69 5.74 5.468 5.468 0 0 1 .63 2.52z" fill="#eeefee"/><path d="m30.788 65.441a5.985 5.985 0 0 1 -1.144-.111 5.855 5.855 0 0 1 -4.566-4.566 5.981 5.981 0 0 1 .47-3.709 17.213 17.213 0 0 0 1.774-5.61.5.5 0 0 1 .5-.445h5.633a.5.5 0 0 1 .332-.149.493.493 0 0 1 .522.45 14.624 14.624 0 0 0 1.632 5.551 6 6 0 0 1 .69 2.758 5.838 5.838 0 0 1 -5.842 5.832zm-2.528-13.441a18.786 18.786 0 0 1 -1.811 5.489 4.983 4.983 0 0 0 -.389 3.088 4.834 4.834 0 0 0 9.569-.967 4.991 4.991 0 0 0 -.573-2.289 15.335 15.335 0 0 1 -1.674-5.321z" fill="#323c6b"/><path d="m35.5 57.09a15.179 15.179 0 0 1 -1.69-5.74v.15h-1.979a15.106 15.106 0 0 0 1.669 5.59 5.468 5.468 0 0 1 .63 2.52 5.341 5.341 0 0 1 -4.352 5.235 5.342 5.342 0 0 0 6.352-5.235 5.468 5.468 0 0 0 -.63-2.52z" fill="#dbd8dd"/><path d="m27.79 34.08h6.02v17.42h-6.02z" fill="#fed19a"/><path d="m33.81 52h-6.02a.5.5 0 0 1 -.5-.5v-17.42a.5.5 0 0 1 .5-.5h6.02a.5.5 0 0 1 .5.5v17.42a.5.5 0 0 1 -.5.5zm-5.52-1h5.02v-16.42h-5.02z" fill="#323c6b"/><path d="m31.81 34.08h2v17.42h-2z" fill="#f4bb87"/><path d="m33.81 52h-6.02a.5.5 0 0 1 -.5-.5v-17.42a.5.5 0 0 1 .5-.5h6.02a.5.5 0 0 1 .5.5v17.42a.5.5 0 0 1 -.5.5zm-5.52-1h5.02v-16.42h-5.02z" fill="#323c6b"/><path d="m30.788 65.441a5.985 5.985 0 0 1 -1.144-.111 5.855 5.855 0 0 1 -4.566-4.566 5.981 5.981 0 0 1 .47-3.709 17.213 17.213 0 0 0 1.774-5.61.5.5 0 0 1 .5-.445h5.633a.5.5 0 0 1 .332-.149.493.493 0 0 1 .522.45 14.624 14.624 0 0 0 1.632 5.551 6 6 0 0 1 .69 2.758 5.838 5.838 0 0 1 -5.842 5.832zm-2.528-13.441a18.786 18.786 0 0 1 -1.811 5.489 4.983 4.983 0 0 0 -.389 3.088 4.834 4.834 0 0 0 9.569-.967 4.991 4.991 0 0 0 -.573-2.289 15.335 15.335 0 0 1 -1.674-5.321z" fill="#323c6b"/><path d="m10.753 5.483a.5.5 0 0 1 -.457-.7 8.917 8.917 0 0 1 4.288-4.422.5.5 0 1 1 .434.9 7.913 7.913 0 0 0 -3.807 3.923.5.5 0 0 1 -.458.299z" fill="#323c6b"/><path d="m10.145 7.627a.484.484 0 0 1 -.07 0 .5.5 0 0 1 -.426-.564c.021-.147.045-.294.073-.441a.5.5 0 1 1 .978.178c-.025.131-.046.262-.065.394a.5.5 0 0 1 -.49.433z" fill="#323c6b"/><path d="m23.72 8.33a5.348 5.348 0 0 1 -.63 2.52 15.178 15.178 0 0 0 -1.69 5.74v-.15h-5.99a17.338 17.338 0 0 0 -1.82-5.77 5.5 5.5 0 0 1 -.43-3.4 5.333 5.333 0 0 1 10.56 1.06z" fill="#eeefee"/><path d="m21.4 17.09h-.025a.5.5 0 0 1 -.332-.149h-5.633a.5.5 0 0 1 -.5-.448 16.722 16.722 0 0 0 -1.772-5.6 5.982 5.982 0 0 1 -.472-3.714 5.833 5.833 0 1 1 10.862 3.909 14.631 14.631 0 0 0 -1.628 5.552.5.5 0 0 1 -.5.45zm-5.548-1.15h5.12a15.357 15.357 0 0 1 1.678-5.328 4.835 4.835 0 1 0 -9-3.248 4.982 4.982 0 0 0 .39 3.091 18.262 18.262 0 0 1 1.813 5.485z" fill="#323c6b"/><path d="m17.37 3.095a5.332 5.332 0 0 1 3.72 7.755 15.106 15.106 0 0 0 -1.669 5.59h1.979v.15a15.178 15.178 0 0 1 1.69-5.74 5.337 5.337 0 0 0 -5.72-7.755z" fill="#dbd8dd"/><path d="m15.38 16.44h6.02v11.85h-6.02z" fill="#fed19a"/><path d="m21.4 28.79h-6.02a.5.5 0 0 1 -.5-.5v-11.85a.5.5 0 0 1 .5-.5h6.02a.5.5 0 0 1 .5.5v11.85a.5.5 0 0 1 -.5.5zm-5.52-1h5.02v-10.85h-5.02z" fill="#323c6b"/><path d="m19.4 16.44h2v11.85h-2z" fill="#f4bb87"/><path d="m21.4 17.09h-.025a.5.5 0 0 1 -.332-.149h-5.633a.5.5 0 0 1 -.5-.448 16.722 16.722 0 0 0 -1.772-5.6 5.982 5.982 0 0 1 -.472-3.714 5.833 5.833 0 1 1 10.862 3.909 14.631 14.631 0 0 0 -1.628 5.552.5.5 0 0 1 -.5.45zm-5.548-1.15h5.12a15.357 15.357 0 0 1 1.678-5.328 4.835 4.835 0 1 0 -9-3.248 4.982 4.982 0 0 0 .39 3.091 18.262 18.262 0 0 1 1.813 5.485z" fill="#323c6b"/><path d="m21.4 28.79h-6.02a.5.5 0 0 1 -.5-.5v-11.85a.5.5 0 0 1 .5-.5h6.02a.5.5 0 0 1 .5.5v11.85a.5.5 0 0 1 -.5.5zm-5.52-1h5.02v-10.85h-5.02z" fill="#323c6b"/><path d="m23.72 59.61a5.333 5.333 0 0 1 -10.56 1.06 5.5 5.5 0 0 1 .43-3.4 17.337 17.337 0 0 0 1.82-5.77h5.99v-.15a15.178 15.178 0 0 0 1.69 5.74 5.348 5.348 0 0 1 .63 2.52z" fill="#eeefee"/><path d="m18.38 65.441a6 6 0 0 1 -1.145-.111 5.859 5.859 0 0 1 -4.566-4.566 5.98 5.98 0 0 1 .469-3.709 16.735 16.735 0 0 0 1.775-5.607.5.5 0 0 1 .5-.448h5.633a.5.5 0 0 1 .854.3 14.626 14.626 0 0 0 1.632 5.551 5.835 5.835 0 0 1 -5.149 8.59zm-2.527-13.441a18.271 18.271 0 0 1 -1.814 5.491 4.981 4.981 0 0 0 -.387 3.086 4.834 4.834 0 1 0 9-3.251 15.354 15.354 0 0 1 -1.68-5.326z" fill="#323c6b"/><path d="m23.09 57.09a15.178 15.178 0 0 1 -1.69-5.74v.15h-1.978a15.1 15.1 0 0 0 1.669 5.59 5.332 5.332 0 0 1 -3.72 7.755 5.337 5.337 0 0 0 5.72-7.755z" fill="#dbd8dd"/><path d="m15.38 34.08h6.02v17.42h-6.02z" fill="#fed19a"/><path d="m21.4 52h-6.02a.5.5 0 0 1 -.5-.5v-17.42a.5.5 0 0 1 .5-.5h6.02a.5.5 0 0 1 .5.5v17.42a.5.5 0 0 1 -.5.5zm-5.52-1h5.02v-16.42h-5.02z" fill="#323c6b"/><path d="m19.4 34.08h2v17.42h-2z" fill="#f4bb87"/><path d="m21.4 52h-6.02a.5.5 0 0 1 -.5-.5v-17.42a.5.5 0 0 1 .5-.5h6.02a.5.5 0 0 1 .5.5v17.42a.5.5 0 0 1 -.5.5zm-5.52-1h5.02v-16.42h-5.02z" fill="#323c6b"/><path d="m18.38 65.441a6 6 0 0 1 -1.145-.111 5.859 5.859 0 0 1 -4.566-4.566 5.98 5.98 0 0 1 .469-3.709 16.735 16.735 0 0 0 1.775-5.607.5.5 0 0 1 .5-.448h5.633a.5.5 0 0 1 .854.3 14.626 14.626 0 0 0 1.632 5.551 5.835 5.835 0 0 1 -5.149 8.59zm-2.527-13.441a18.271 18.271 0 0 1 -1.814 5.491 4.981 4.981 0 0 0 -.387 3.086 4.834 4.834 0 1 0 9-3.251 15.354 15.354 0 0 1 -1.68-5.326z" fill="#323c6b"/><path d="m67.65 34.58h-61.3a1.5 1.5 0 0 1 -1.5-1.5v-3.79a1.5 1.5 0 0 1 1.5-1.5h61.3a1.5 1.5 0 0 1 1.5 1.5v3.79a1.5 1.5 0 0 1 -1.5 1.5zm-61.3-5.79a.5.5 0 0 0 -.5.5v3.79a.5.5 0 0 0 .5.5h61.3a.5.5 0 0 0 .5-.5v-3.79a.5.5 0 0 0 -.5-.5z" fill="#323c6b"/><path d="m61 71.5h-48a5.466 5.466 0 0 1 -5.46-5.46v-31.96a.5.5 0 0 1 .5-.5h7.34a.5.5 0 0 1 .5.5v17.27a.445.445 0 0 1 .027.2 17.684 17.684 0 0 1 -1.869 5.938 4.981 4.981 0 0 0 -.387 3.086 4.834 4.834 0 1 0 9-3.251 15.612 15.612 0 0 1 -1.751-5.923v-17.32a.5.5 0 0 1 .5-.5h6.39a.5.5 0 0 1 .5.5v17.272a.449.449 0 0 1 .027.2 18.179 18.179 0 0 1 -1.867 5.934 4.983 4.983 0 0 0 -.389 3.088 4.834 4.834 0 0 0 9.569-.967 4.991 4.991 0 0 0 -.573-2.289 15.6 15.6 0 0 1 -1.744-5.918v-17.32a.5.5 0 0 1 .5-.5h6.38a.5.5 0 0 1 .5.5v17.271a.449.449 0 0 1 .027.2 17.7 17.7 0 0 1 -1.868 5.938 4.984 4.984 0 0 0 -.388 3.086 4.834 4.834 0 1 0 9-3.251 15.62 15.62 0 0 1 -1.752-5.924v-17.32a.5.5 0 0 1 .5-.5h6.388a.5.5 0 0 1 .5.5v17.272a.449.449 0 0 1 .027.2 18.179 18.179 0 0 1 -1.867 5.934 4.983 4.983 0 0 0 -.389 3.088 4.834 4.834 0 0 0 9.569-.967 4.991 4.991 0 0 0 -.573-2.289 15.6 15.6 0 0 1 -1.744-5.918v-17.32a.5.5 0 0 1 .5-.5h7.34a.5.5 0 0 1 .5.5v31.96a5.466 5.466 0 0 1 -5.463 5.46zm-52.46-36.92v31.46a4.465 4.465 0 0 0 4.46 4.46h48a4.465 4.465 0 0 0 4.46-4.46v-31.46h-6.34v16.77a14.6 14.6 0 0 0 1.629 5.5 6 6 0 0 1 .69 2.758 5.833 5.833 0 0 1 -11.551 1.155 5.982 5.982 0 0 1 .47-3.709 17.454 17.454 0 0 0 1.755-5.446.45.45 0 0 1 -.013-.108v-16.92h-5.39v16.77a14.6 14.6 0 0 0 1.629 5.5 5.835 5.835 0 1 1 -10.861 3.913 5.988 5.988 0 0 1 .47-3.709 16.977 16.977 0 0 0 1.752-5.442.447.447 0 0 1 -.014-.112v-16.92h-5.376v16.77a14.6 14.6 0 0 0 1.629 5.5 6 6 0 0 1 .69 2.758 5.833 5.833 0 0 1 -11.551 1.154 5.981 5.981 0 0 1 .47-3.709 17.454 17.454 0 0 0 1.752-5.444.45.45 0 0 1 -.014-.109v-16.92h-5.386v16.77a14.6 14.6 0 0 0 1.629 5.5 5.835 5.835 0 1 1 -10.86 3.913 5.98 5.98 0 0 1 .469-3.709 16.964 16.964 0 0 0 1.756-5.442.437.437 0 0 1 -.015-.113v-16.919z" fill="#323c6b"/><path d="m28.3 5.79-.021-.013c-.151-.084-.3-.113-.425.077-.2.308 0 0-.2.31-.1.168-.01.313.142.4a.313.313 0 0 0 .424-.13l.148-.243a.289.289 0 0 0 -.068-.401z" fill="#dbd8dd"/><path d="m27.709 7.055a.308.308 0 0 0 -.106-.04.354.354 0 0 0 -.4.245 3.484 3.484 0 0 0 .683 3.414.37.37 0 0 0 .428.128c.165-.079.3-.316.17-.415a3 3 0 0 1 -.652-3.014.28.28 0 0 0 -.123-.318z" fill="#dbd8dd"/></svg>