<svg id="line_color" height="512" viewBox="0 0 74 74" width="512" xmlns="http://www.w3.org/2000/svg" data-name="line color"><path d="m47.267 54.708a.5.5 0 0 1 -.442-.267l-2.076-3.947a1.012 1.012 0 0 0 -.9-.539.99.99 0 0 0 -.5.135l-2.13 1.223a.5.5 0 0 1 -.5-.867l2.13-1.223a1.976 1.976 0 0 1 1-.268 2.011 2.011 0 0 1 1.781 1.073l2.076 3.947a.5.5 0 0 1 -.442.733z" fill="#323c6b"/><path d="m48.322 56.715a.5.5 0 0 1 -.442-.267l-.248-.471a.5.5 0 0 1 .885-.466l.248.471a.5.5 0 0 1 -.442.733z" fill="#323c6b"/><path d="m38.791 15.019a.5.5 0 0 1 -.373-.167l-.232-.261a.5.5 0 0 1 .748-.664l.23.259a.5.5 0 0 1 -.373.833z" fill="#323c6b"/><path d="m37.013 13.045a.5.5 0 0 1 -.369-.163c-2.343-2.564-4.6-4.885-6.71-6.9a.5.5 0 1 1 .689-.724c2.127 2.028 4.4 4.364 6.759 6.945a.5.5 0 0 1 -.369.837z" fill="#323c6b"/><path d="m6.145 19.376 13.027-9.815 3.135 4.161-13.027 9.815 1.914 2.541 13.026-9.815 2.95 3.915-13.025 9.815 2.155 2.861 13.026-9.815 2.95 3.915-13.025 9.816 1.986 2.635 13.026-9.815 2.894 3.84-13.026 9.815 2.1 2.786 13.026-9.815 3.007 3.991-13.027 9.815a2.959 2.959 0 0 0 1.951 1.149l1.61.226a2.959 2.959 0 0 0 1.886-.364l6.928-3.979a4.507 4.507 0 0 1 6.234 1.81l9.804 18.636a6.545 6.545 0 0 0 9.731 2.18 6.545 6.545 0 0 0 1.519-8.843l-13.925-21s-16.354-23.368-30.38-35.309a6.255 6.255 0 0 0 -3.584-1.515h-.075a4.77 4.77 0 0 0 -3.454 1.245l-10.815 9.722a3.868 3.868 0 0 0 -1.263 2.5l-.019.193a3.868 3.868 0 0 0 .76 2.706z" fill="#eeefee"/><path d="m63.445 71.5a7.05 7.05 0 0 1 -6.238-3.766l-9.807-18.634a4.008 4.008 0 0 0 -5.543-1.609l-6.928 3.979a3.492 3.492 0 0 1 -2.2.426l-1.609-.226a3.436 3.436 0 0 1 -2.281-1.344.5.5 0 0 1 .1-.7l12.627-9.514-2.406-3.192-12.63 9.511a.5.5 0 0 1 -.7-.1l-2.1-2.786a.5.5 0 0 1 .1-.7l12.627-9.515-2.292-3.04-12.627 9.51a.5.5 0 0 1 -.7-.1l-1.986-2.635a.5.5 0 0 1 .1-.7l12.627-9.515-2.349-3.117-12.63 9.521a.5.5 0 0 1 -.7-.1l-2.156-2.861a.5.5 0 0 1 .1-.7l12.628-9.515-2.35-3.117-12.622 9.516a.5.5 0 0 1 -.7-.1l-1.919-2.539a.5.5 0 0 1 .1-.7l12.627-9.515-2.533-3.362-12.629 9.514a.5.5 0 0 1 -.7-.1 4.362 4.362 0 0 1 -.859-3.056l.021-.194a4.349 4.349 0 0 1 1.426-2.818l10.814-9.726a5.3 5.3 0 0 1 3.817-1.373 6.849 6.849 0 0 1 3.953 1.638c13.913 11.846 30.3 35.171 30.463 35.405l13.932 21.01a7.046 7.046 0 0 1 -5.868 10.939zm-19.6-25.547a5.029 5.029 0 0 1 1.406.2 4.963 4.963 0 0 1 3.035 2.477l9.8 18.637a6.045 6.045 0 1 0 10.388-6.155l-13.925-21c-.149-.22-16.463-23.442-30.278-35.203a5.792 5.792 0 0 0 -3.3-1.4 4.348 4.348 0 0 0 -3.158 1.113l-10.813 9.73a3.355 3.355 0 0 0 -1.1 2.174l-.021.194a3.365 3.365 0 0 0 .392 1.934l12.6-9.493a.509.509 0 0 1 .37-.1.5.5 0 0 1 .33.194l3.135 4.161a.5.5 0 0 1 -.1.7l-12.626 9.52 1.313 1.742 12.627-9.515a.5.5 0 0 1 .7.1l2.951 3.916a.5.5 0 0 1 -.1.7l-12.626 9.513 1.555 2.062 12.626-9.514a.5.5 0 0 1 .7.1l2.95 3.916a.5.5 0 0 1 -.1.7l-12.625 9.512 1.385 1.837 12.627-9.515a.5.5 0 0 1 .7.1l2.894 3.84a.5.5 0 0 1 -.1.7l-12.626 9.514 1.5 1.987 12.627-9.515a.5.5 0 0 1 .7.1l3.008 3.991a.5.5 0 0 1 -.1.7l-12.587 9.482a2.478 2.478 0 0 0 1.279.587l1.609.226a2.485 2.485 0 0 0 1.567-.3l6.928-3.979a4.97 4.97 0 0 1 2.485-.67z" fill="#323c6b"/><g fill="#dbd8dd"><path d="m22.889 39.141h13.51v.394h-13.51z" transform="matrix(.799 -.602 .602 .799 -17.704 25.76)"/><path d="m40.026 41.892-10.79 8.13a2.928 2.928 0 0 0 .268.291l10.758-8.106z"/><path d="m18.01 32.665h13.51v.394h-13.51z" transform="matrix(.799 -.602 .602 .799 -14.79 21.519)"/><path d="m68.9 60.837-13.925-21s-16.354-23.368-30.38-35.309a6.255 6.255 0 0 0 -3.584-1.515h-.075a4.77 4.77 0 0 0 -3.454 1.245l-10.815 9.722a3.844 3.844 0 0 0 -.648.784l9.463-8.511a4.77 4.77 0 0 1 3.454-1.245h.075a6.255 6.255 0 0 1 3.584 1.515c14.026 11.946 30.377 35.316 30.377 35.316l13.925 21a6.542 6.542 0 0 1 .067 7.124c.14-.09.282-.177.417-.279a6.545 6.545 0 0 0 1.519-8.847z"/><path d="m12.903 25.888h13.51v.394h-13.51z" transform="matrix(.799 -.602 .602 .799 -11.74 17.082)"/><path d="m8.039 19.432h13.51v.394h-13.51z" transform="matrix(.799 -.602 .602 .799 -8.834 12.855)"/></g><path d="m63.331 66.975a3.057 3.057 0 0 1 -1.845-5.5 3.058 3.058 0 1 1 1.845 5.5zm-1.544-5.1.3.4a2.058 2.058 0 0 0 -.4 2.882 2.061 2.061 0 1 0 .4-2.882z" fill="#323c6b"/><path d="m63.445 71.5a7.05 7.05 0 0 1 -6.238-3.766l-9.807-18.634a4.008 4.008 0 0 0 -5.543-1.609l-6.928 3.979a3.492 3.492 0 0 1 -2.2.426l-1.609-.226a3.436 3.436 0 0 1 -2.281-1.344.5.5 0 0 1 .1-.7l12.627-9.514-2.406-3.192-12.63 9.511a.5.5 0 0 1 -.7-.1l-2.1-2.786a.5.5 0 0 1 .1-.7l12.627-9.515-2.292-3.04-12.627 9.51a.5.5 0 0 1 -.7-.1l-1.986-2.635a.5.5 0 0 1 .1-.7l12.627-9.515-2.349-3.117-12.63 9.521a.5.5 0 0 1 -.7-.1l-2.156-2.861a.5.5 0 0 1 .1-.7l12.628-9.515-2.35-3.117-12.622 9.516a.5.5 0 0 1 -.7-.1l-1.919-2.539a.5.5 0 0 1 .1-.7l12.627-9.515-2.533-3.362-12.629 9.514a.5.5 0 0 1 -.7-.1 4.362 4.362 0 0 1 -.859-3.056l.021-.194a4.349 4.349 0 0 1 1.426-2.818l10.814-9.726a5.3 5.3 0 0 1 3.817-1.373 6.849 6.849 0 0 1 3.953 1.638c13.913 11.846 30.3 35.171 30.463 35.405l13.932 21.01a7.046 7.046 0 0 1 -5.868 10.939zm-19.6-25.547a5.029 5.029 0 0 1 1.406.2 4.963 4.963 0 0 1 3.035 2.477l9.8 18.637a6.045 6.045 0 1 0 10.388-6.155l-13.925-21c-.149-.22-16.463-23.442-30.278-35.203a5.792 5.792 0 0 0 -3.3-1.4 4.348 4.348 0 0 0 -3.158 1.113l-10.813 9.73a3.355 3.355 0 0 0 -1.1 2.174l-.021.194a3.365 3.365 0 0 0 .392 1.934l12.6-9.493a.509.509 0 0 1 .37-.1.5.5 0 0 1 .33.194l3.135 4.161a.5.5 0 0 1 -.1.7l-12.626 9.52 1.313 1.742 12.627-9.515a.5.5 0 0 1 .7.1l2.951 3.916a.5.5 0 0 1 -.1.7l-12.626 9.513 1.555 2.062 12.626-9.514a.5.5 0 0 1 .7.1l2.95 3.916a.5.5 0 0 1 -.1.7l-12.625 9.512 1.385 1.837 12.627-9.515a.5.5 0 0 1 .7.1l2.894 3.84a.5.5 0 0 1 -.1.7l-12.626 9.514 1.5 1.987 12.627-9.515a.5.5 0 0 1 .7.1l3.008 3.991a.5.5 0 0 1 -.1.7l-12.587 9.482a2.478 2.478 0 0 0 1.279.587l1.609.226a2.485 2.485 0 0 0 1.567-.3l6.928-3.979a4.97 4.97 0 0 1 2.485-.67z" fill="#323c6b"/></svg>