<svg id="line_color" height="512" viewBox="0 0 74 74" width="512" xmlns="http://www.w3.org/2000/svg" data-name="line color"><rect fill="#9dceb2" height="6.026" rx="1" width="42.193" x="15.904" y="21.448"/><path d="m57.1 27.975h-40.2a1.5 1.5 0 0 1 -1.5-1.5v-4.027a1.5 1.5 0 0 1 1.5-1.5h40.2a1.5 1.5 0 0 1 1.5 1.5v4.026a1.5 1.5 0 0 1 -1.5 1.501zm-40.2-6.027a.5.5 0 0 0 -.5.5v4.026a.5.5 0 0 0 .5.5h40.2a.5.5 0 0 0 .5-.5v-4.026a.5.5 0 0 0 -.5-.5z" fill="#323c6b"/><path d="m57.1 21.448h-3a1 1 0 0 1 1 1v4.026a1 1 0 0 1 -1 1h3a1 1 0 0 0 1-1v-4.026a1 1 0 0 0 -1-1z" fill="#95c1a7"/><path d="m55.636 64.78h-.036a.5.5 0 0 1 -.463-.535l.046-.631a.5.5 0 0 1 1 .072l-.046.631a.5.5 0 0 1 -.501.463z" fill="#323c6b"/><path d="m55.88 61.44h-.037a.5.5 0 0 1 -.463-.535l.855-11.677a.511.511 0 0 1 .535-.462.5.5 0 0 1 .463.535l-.855 11.677a.5.5 0 0 1 -.498.462z" fill="#323c6b"/><path d="m55.322 27.479-3.168 36.244a3.573 3.573 0 0 1 -3.563 3.312h-23.182a3.573 3.573 0 0 1 -3.563-3.312l-3.168-36.244z" fill="#b1dcc1"/><path d="m48.591 67.535h-23.182a4.089 4.089 0 0 1 -4.062-3.775l-3.167-36.238a.5.5 0 0 1 .5-.543h36.642a.5.5 0 0 1 .5.543l-3.17 36.245a4.087 4.087 0 0 1 -4.061 3.768zm-29.367-39.556 3.12 35.7a3.086 3.086 0 0 0 3.065 2.855h23.182a3.084 3.084 0 0 0 3.064-2.849l3.121-35.708z" fill="#323c6b"/><path d="m52.322 27.479-3.168 36.244a3.573 3.573 0 0 1 -3.563 3.312h3a3.573 3.573 0 0 0 3.563-3.312l3.168-36.244z" fill="#9dceb2"/><rect fill="#dbd8dd" height="5.148" rx="2.574" width="15.645" x="29.207" y="43.29"/><path d="m42.278 48.938h-10.5a3.074 3.074 0 0 1 0-6.148h10.5a3.074 3.074 0 0 1 0 6.148zm-10.5-5.148a2.074 2.074 0 0 0 0 4.148h10.5a2.074 2.074 0 0 0 0-4.148z" fill="#323c6b"/><path d="m31.781 45.29h10.5a2.575 2.575 0 0 1 2.372 1.574 2.575 2.575 0 0 0 -2.372-3.574h-10.5a2.575 2.575 0 0 0 -2.372 3.574 2.575 2.575 0 0 1 2.372-1.574z" fill="#bbbbcd"/><g fill="#323c6b"><path d="m29.209 46.371h-.6a16.13 16.13 0 0 1 -16.109-16.112v-4.807a1.5 1.5 0 0 1 1.5-1.5h1.9a.5.5 0 1 1 0 1h-1.9a.5.5 0 0 0 -.5.5v4.807a15.129 15.129 0 0 0 15.112 15.112h.6a.5.5 0 1 1 0 1z"/><path d="m45.388 46.371h-.537a.5.5 0 0 1 0-1h.537a15.129 15.129 0 0 0 15.112-15.112v-4.807a.5.5 0 0 0 -.5-.5h-1.9a.5.5 0 0 1 0-1h1.9a1.5 1.5 0 0 1 1.5 1.5v4.807a16.13 16.13 0 0 1 -16.112 16.112z"/><path d="m27.374 5.482a.5.5 0 0 1 -.085-.993q.294-.051.595-.084a.5.5 0 1 1 .109.994c-.179.02-.357.044-.532.075a.531.531 0 0 1 -.087.008z"/><path d="m19.915 12.09a.5.5 0 0 1 -.479-.644 9.987 9.987 0 0 1 5.405-6.2.5.5 0 0 1 .416.909 8.991 8.991 0 0 0 -4.864 5.576.5.5 0 0 1 -.478.359z"/></g><path d="m55.67 20.364a5.565 5.565 0 0 1 -.109 1.084h-37a2.042 2.042 0 0 1 -.02-.348 5.243 5.243 0 0 1 4.2-5.121 6.574 6.574 0 0 1 -.219-1.671 6.469 6.469 0 0 1 12.937 0c0 .2-.01.408-.03.607a4.377 4.377 0 0 1 1.571-.288 4.477 4.477 0 0 1 4.226 3.013 3.623 3.623 0 0 1 1.392-.278 3.685 3.685 0 0 1 2.6 1.064 5.4 5.4 0 0 1 10.452 1.938z" fill="#eeefee"/><path d="m55.561 21.948h-37a.5.5 0 0 1 -.493-.419 2.531 2.531 0 0 1 -.026-.429 5.75 5.75 0 0 1 4.1-5.487 6.969 6.969 0 1 1 13.814-1.376 4.985 4.985 0 0 1 5.563 2.776 4.2 4.2 0 0 1 3.516.607 5.851 5.851 0 0 1 5.229-3.166 5.916 5.916 0 0 1 5.909 5.909 6.055 6.055 0 0 1 -.119 1.182.5.5 0 0 1 -.493.403zm-36.519-1h36.093a4.907 4.907 0 0 0 -4.874-5.493 4.863 4.863 0 0 0 -4.575 3.145.5.5 0 0 1 -.817.177 3.226 3.226 0 0 0 -3.444-.68.5.5 0 0 1 -.665-.3 3.978 3.978 0 0 0 -3.76-2.67 3.854 3.854 0 0 0 -1.4.254.5.5 0 0 1 -.679-.515c.019-.183.028-.375.028-.558a5.969 5.969 0 0 0 -11.937 0 6.037 6.037 0 0 0 .2 1.542.5.5 0 0 1 -.384.618 4.749 4.749 0 0 0 -3.786 4.48z" fill="#323c6b"/><path d="m28.99 9.845a6.476 6.476 0 0 1 6.464 6.464c0 .2-.01.408-.03.607a4.378 4.378 0 0 1 1.581-.288 4.477 4.477 0 0 1 4.226 3.013 3.624 3.624 0 0 1 1.392-.278 3.685 3.685 0 0 1 2.6 1.064 5.4 5.4 0 0 1 10.355.938 5.516 5.516 0 0 0 .1-1 5.4 5.4 0 0 0 -10.451-1.939 3.685 3.685 0 0 0 -2.6-1.064 3.624 3.624 0 0 0 -1.392.278 4.477 4.477 0 0 0 -4.226-3.013 4.378 4.378 0 0 0 -1.581.288c.02-.2.03-.408.03-.607a6.469 6.469 0 1 0 -12.851 1 6.477 6.477 0 0 1 6.383-5.463z" fill="#dbd8dd"/><path d="m18.819 21.448a5.252 5.252 0 0 1 3.916-3.469 6.572 6.572 0 0 1 -.219-1.671c0-.091.01-.179.014-.269a5.232 5.232 0 0 0 -3.991 5.06 2.037 2.037 0 0 0 .02.348z" fill="#dbd8dd"/><path d="m48.591 67.535h-23.182a4.089 4.089 0 0 1 -4.062-3.775l-3.167-36.238a.5.5 0 0 1 .5-.543h36.642a.5.5 0 0 1 .5.543l-3.17 36.245a4.087 4.087 0 0 1 -4.061 3.768zm-29.367-39.556 3.12 35.7a3.086 3.086 0 0 0 3.065 2.855h23.182a3.084 3.084 0 0 0 3.064-2.849l3.121-35.708z" fill="#323c6b"/><path d="m57.1 27.975h-40.2a1.5 1.5 0 0 1 -1.5-1.5v-4.027a1.5 1.5 0 0 1 1.5-1.5h40.2a1.5 1.5 0 0 1 1.5 1.5v4.026a1.5 1.5 0 0 1 -1.5 1.501zm-40.2-6.027a.5.5 0 0 0 -.5.5v4.026a.5.5 0 0 0 .5.5h40.2a.5.5 0 0 0 .5-.5v-4.026a.5.5 0 0 0 -.5-.5z" fill="#323c6b"/><path d="m55.561 21.948h-37a.5.5 0 0 1 -.493-.419 2.531 2.531 0 0 1 -.026-.429 5.75 5.75 0 0 1 4.1-5.487 6.969 6.969 0 1 1 13.814-1.376 4.985 4.985 0 0 1 5.563 2.776 4.2 4.2 0 0 1 3.516.607 5.851 5.851 0 0 1 5.229-3.166 5.916 5.916 0 0 1 5.909 5.909 6.055 6.055 0 0 1 -.119 1.182.5.5 0 0 1 -.493.403zm-36.519-1h36.093a4.907 4.907 0 0 0 -4.874-5.493 4.863 4.863 0 0 0 -4.575 3.145.5.5 0 0 1 -.817.177 3.226 3.226 0 0 0 -3.444-.68.5.5 0 0 1 -.665-.3 3.978 3.978 0 0 0 -3.76-2.67 3.854 3.854 0 0 0 -1.4.254.5.5 0 0 1 -.679-.515c.019-.183.028-.375.028-.558a5.969 5.969 0 0 0 -11.937 0 6.037 6.037 0 0 0 .2 1.542.5.5 0 0 1 -.384.618 4.749 4.749 0 0 0 -3.786 4.48z" fill="#323c6b"/><path d="m42.278 48.938h-10.5a3.074 3.074 0 0 1 0-6.148h10.5a3.074 3.074 0 0 1 0 6.148zm-10.5-5.148a2.074 2.074 0 0 0 0 4.148h10.5a2.074 2.074 0 0 0 0-4.148z" fill="#323c6b"/><path d="m24.359 63.128-.6-8.642a.677.677 0 0 1 .625-.727.682.682 0 0 1 .731.628l.6 8.642a.655.655 0 0 1 -.6.726.706.706 0 0 1 -.756-.627z" fill="#fff"/><path d="m23.557 51.622-.025-.363a.668.668 0 0 1 .614-.727.692.692 0 0 1 .741.627l.025.363a.69.69 0 0 1 -.64.728.669.669 0 0 1 -.715-.628z" fill="#fff"/></svg>