<svg id="line_color" height="512" viewBox="0 0 74 74" width="512" xmlns="http://www.w3.org/2000/svg" data-name="line color"><rect fill="#f4bb87" height="7.06" rx="1" width="64.54" x="4.73" y="35.77"/><path d="m68.27 43.33h-62.54a1.5 1.5 0 0 1 -1.5-1.5v-5.06a1.5 1.5 0 0 1 1.5-1.5h62.54a1.5 1.5 0 0 1 1.5 1.5v5.06a1.5 1.5 0 0 1 -1.5 1.5zm-62.54-7.06a.5.5 0 0 0 -.5.5v5.06a.5.5 0 0 0 .5.5h62.54a.5.5 0 0 0 .5-.5v-5.06a.5.5 0 0 0 -.5-.5z" fill="#323c6b"/><path d="m68.27 35.77h-3a1 1 0 0 1 1 1v5.06a1 1 0 0 1 -1 1h3a1 1 0 0 0 1-1v-5.06a1 1 0 0 0 -1-1z" fill="#e6b17d"/><path d="m73.373 57.238a.5.5 0 0 1 -.486-.382l-.161-.666a.5.5 0 0 1 .973-.235l.161.666a.5.5 0 0 1 -.369.6.487.487 0 0 1 -.118.017z" fill="#323c6b"/><path d="m72.592 54.018a.5.5 0 0 1 -.486-.382l-2.021-8.328a.5.5 0 0 1 .973-.236l2.02 8.328a.5.5 0 0 1 -.368.6.5.5 0 0 1 -.118.018z" fill="#323c6b"/><path d="m71 59.68h-68l4.09-16.85h59.82z" fill="#eeefee"/><path d="m71 60.18h-68a.5.5 0 0 1 -.486-.618l4.086-16.85a.5.5 0 0 1 .486-.382h59.824a.5.5 0 0 1 .486.382l4.09 16.85a.5.5 0 0 1 -.486.618zm-67.364-1h66.728l-3.847-15.85h-59.034z" fill="#323c6b"/><path d="m66.91 42.83h-3l4.09 16.85h3z" fill="#dbd8dd"/><g fill="#323c6b"><path d="m60.587 60.181a.5.5 0 0 1 -.488-.392l-2.199-9.919a.5.5 0 1 1 .977-.216l2.2 9.919a.5.5 0 0 1 -.38.6.526.526 0 0 1 -.11.008z"/><path d="m49.922 60.181a.5.5 0 0 1 -.494-.428l-1.388-9.48a.5.5 0 0 1 .99-.145l1.388 9.479a.5.5 0 0 1 -.423.567.462.462 0 0 1 -.073.007z"/><path d="m13.413 60.181a.526.526 0 0 1 -.108-.012.5.5 0 0 1 -.38-.6l2.2-9.919a.5.5 0 1 1 .977.216l-2.2 9.919a.5.5 0 0 1 -.489.396z"/><path d="m24.078 60.181a.462.462 0 0 1 -.078-.006.5.5 0 0 1 -.423-.567l1.388-9.479a.5.5 0 0 1 .99.145l-1.388 9.479a.5.5 0 0 1 -.489.428z"/><path d="m37 60.181a.5.5 0 0 1 -.5-.5v-9.481a.5.5 0 0 1 1 0v9.479a.5.5 0 0 1 -.5.502z"/><path d="m20.715 15.006a.5.5 0 0 1 -.351-.856 11.585 11.585 0 0 1 8.176-3.33.5.5 0 0 1 0 1 10.589 10.589 0 0 0 -7.475 3.043.5.5 0 0 1 -.35.143z"/><path d="m18.716 17.671a.5.5 0 0 1 -.44-.737l.162-.291a.5.5 0 0 1 .869.5l-.15.269a.5.5 0 0 1 -.441.259z"/></g><path d="m66.32 35.77h-58.52l.09-.75a6.309 6.309 0 0 1 6.28-5.58h.5a3.32 3.32 0 0 0 3.06-2.06l3.24-7.96a8.154 8.154 0 0 1 7.57-5.1h23.35a3.209 3.209 0 0 1 3.2 3.19 3.2 3.2 0 0 1 -3.2 3.21h-21.92a4.442 4.442 0 0 0 -4.3 3.3l-.38 1.39a3.36 3.36 0 0 0 3.24 4.22h31.65a6.141 6.141 0 0 1 6.14 6.14z" fill="#fed19a"/><path d="m66.32 36.27h-58.52a.5.5 0 0 1 -.5-.56l.09-.75a6.814 6.814 0 0 1 6.78-6.02h.5a2.807 2.807 0 0 0 2.6-1.75l3.238-7.958a8.627 8.627 0 0 1 8.032-5.412h23.35a3.7 3.7 0 0 1 2.626 6.308 3.679 3.679 0 0 1 -2.626 1.092h-21.92a3.953 3.953 0 0 0 -3.816 2.929l-.381 1.393a2.86 2.86 0 0 0 2.757 3.588h31.65a6.647 6.647 0 0 1 6.641 6.64.5.5 0 0 1 -.501.5zm-57.957-1h57.437a5.65 5.65 0 0 0 -5.619-5.14h-31.651a3.86 3.86 0 0 1 -3.724-4.847l.381-1.4a4.955 4.955 0 0 1 4.783-3.663h21.92a2.7 2.7 0 0 0 2.7-2.707 2.708 2.708 0 0 0 -2.7-2.693h-23.35a7.631 7.631 0 0 0 -7.106 4.788l-3.24 7.961a3.8 3.8 0 0 1 -3.524 2.371h-.5a5.815 5.815 0 0 0 -5.783 5.138z" fill="#323c6b"/><path d="m52.09 17.51a3.2 3.2 0 0 1 -3.2 3.21h3a3.2 3.2 0 0 0 3.2-3.21 3.209 3.209 0 0 0 -3.2-3.19h-3a3.209 3.209 0 0 1 3.2 3.19z" fill="#f4bb87"/><path d="m25.29 25.41.38-1.39a4.442 4.442 0 0 1 4.3-3.3h-3a4.442 4.442 0 0 0 -4.3 3.3l-.38 1.39a3.36 3.36 0 0 0 3.24 4.22h3a3.36 3.36 0 0 1 -3.24-4.22z" fill="#f4bb87"/><path d="m60.18 29.63h-3a6.141 6.141 0 0 1 6.14 6.14h3a6.141 6.141 0 0 0 -6.14-6.14z" fill="#f4bb87"/><path d="m66.32 36.27h-58.52a.5.5 0 0 1 -.5-.56l.09-.75a6.814 6.814 0 0 1 6.78-6.02h.5a2.807 2.807 0 0 0 2.6-1.75l3.238-7.958a8.627 8.627 0 0 1 8.032-5.412h23.35a3.7 3.7 0 0 1 2.626 6.308 3.679 3.679 0 0 1 -2.626 1.092h-21.92a3.953 3.953 0 0 0 -3.816 2.929l-.381 1.393a2.86 2.86 0 0 0 2.757 3.588h31.65a6.647 6.647 0 0 1 6.641 6.64.5.5 0 0 1 -.501.5zm-57.957-1h57.437a5.65 5.65 0 0 0 -5.619-5.14h-31.651a3.86 3.86 0 0 1 -3.724-4.847l.381-1.4a4.955 4.955 0 0 1 4.783-3.663h21.92a2.7 2.7 0 0 0 2.7-2.707 2.708 2.708 0 0 0 -2.7-2.693h-23.35a7.631 7.631 0 0 0 -7.106 4.788l-3.24 7.961a3.8 3.8 0 0 1 -3.524 2.371h-.5a5.815 5.815 0 0 0 -5.783 5.138z" fill="#323c6b"/><path d="m68.27 43.33h-62.54a1.5 1.5 0 0 1 -1.5-1.5v-5.06a1.5 1.5 0 0 1 1.5-1.5h62.54a1.5 1.5 0 0 1 1.5 1.5v5.06a1.5 1.5 0 0 1 -1.5 1.5zm-62.54-7.06a.5.5 0 0 0 -.5.5v5.06a.5.5 0 0 0 .5.5h62.54a.5.5 0 0 0 .5-.5v-5.06a.5.5 0 0 0 -.5-.5z" fill="#323c6b"/><path d="m71 60.18h-68a.5.5 0 0 1 -.486-.618l4.086-16.85a.5.5 0 0 1 .486-.382h59.824a.5.5 0 0 1 .486.382l4.09 16.85a.5.5 0 0 1 -.486.618zm-67.364-1h66.728l-3.847-15.85h-59.034z" fill="#323c6b"/><path d="m18.28 39.019h-7.58a.592.592 0 0 1 -.6-.589.6.6 0 0 1 .592-.6h7.575a.573.573 0 0 1 .6.566.617.617 0 0 1 -.587.623z" fill="#fff"/><path d="m8.195 39.019h-.319a.584.584 0 0 1 -.6-.58.6.6 0 0 1 .592-.609h.322a.6.6 0 0 1 .6.6.585.585 0 0 1 -.595.589z" fill="#fff"/></svg>