<svg id="line_color" height="512" viewBox="0 0 74 74" width="512" xmlns="http://www.w3.org/2000/svg" data-name="line color"><path d="m20.46 41.4v6.24h-14.35a3.12 3.12 0 0 1 0-6.24z" fill="#dbd8dd"/><path d="m20.46 48.14h-14.35a3.62 3.62 0 0 1 0-7.24h14.35a.5.5 0 0 1 .5.5v6.24a.5.5 0 0 1 -.5.5zm-14.35-6.24a2.62 2.62 0 0 0 0 5.24h13.85v-5.24z" fill="#323c6b"/><path d="m63.239 55.645a.508.508 0 0 1 -.18-.033.5.5 0 0 1 -.287-.646l.174-.452a.5.5 0 1 1 .934.358l-.174.452a.5.5 0 0 1 -.467.321z" fill="#323c6b"/><path d="m64.256 53a.5.5 0 0 1 -.467-.679l2.835-7.386a.5.5 0 0 1 .934.358l-2.835 7.386a.5.5 0 0 1 -.467.321z" fill="#323c6b"/><path d="m66.14 39.22-8.3 21.62a5.324 5.324 0 0 1 -4.99 3.44h-36.66a5.334 5.334 0 0 1 -5.12-3.8l-3.91-12.84h13.3v10.89h16.73v-10.89h2.18a15.474 15.474 0 0 0 6.78-1.58l12.47-6.09a7.522 7.522 0 0 1 3.26-.75z" fill="#eeefee"/><path d="m52.85 64.78h-36.66a5.87 5.87 0 0 1 -5.6-4.157l-3.908-12.837a.5.5 0 0 1 .479-.646h13.3a.5.5 0 0 1 .5.5v10.39h15.728v-10.39a.5.5 0 0 1 .5-.5h2.181a15.049 15.049 0 0 0 6.561-1.529l12.47-6.09a7.978 7.978 0 0 1 3.479-.8h4.26a.5.5 0 0 1 .467.679l-8.3 21.62a5.845 5.845 0 0 1 -5.457 3.76zm-45.015-16.64 3.714 12.194a4.864 4.864 0 0 0 4.641 3.446h36.66a4.842 4.842 0 0 0 4.522-3.115l8.04-20.945h-3.532a6.977 6.977 0 0 0 -3.043.7l-12.467 6.089a16.062 16.062 0 0 1 -7 1.631h-1.681v10.39a.5.5 0 0 1 -.5.5h-16.729a.5.5 0 0 1 -.5-.5v-10.39z" fill="#323c6b"/><path d="m63.14 39.22-8.3 21.62a5.324 5.324 0 0 1 -4.99 3.44h3a5.324 5.324 0 0 0 4.99-3.44l8.3-21.62z" fill="#dbd8dd"/><path d="m17.46 47.64h3v10.89h-3z" fill="#dbd8dd"/><path d="m71 36.15a3.066 3.066 0 0 1 -3.08 3.07h-6.04a7.522 7.522 0 0 0 -3.26.75l-12.47 6.09a15.474 15.474 0 0 1 -6.78 1.58h-2.18v-6.24h1.81a10.075 10.075 0 0 0 4.41-1.02l11.04-5.44a17.977 17.977 0 0 1 7.98-1.86h5.49a3.073 3.073 0 0 1 3.08 3.07z" fill="#dbd8dd"/><path d="m39.37 48.14h-2.181a.5.5 0 0 1 -.5-.5v-6.24a.5.5 0 0 1 .5-.5h1.811a9.521 9.521 0 0 0 4.191-.97l11.038-5.439a18.547 18.547 0 0 1 8.2-1.911h5.49a3.574 3.574 0 0 1 3.58 3.57 3.579 3.579 0 0 1 -3.58 3.57h-6.039a6.977 6.977 0 0 0 -3.043.7l-12.467 6.089a16.062 16.062 0 0 1 -7 1.631zm-1.681-1h1.681a15.049 15.049 0 0 0 6.561-1.529l12.47-6.09a7.978 7.978 0 0 1 3.479-.8h6.04a2.578 2.578 0 0 0 2.58-2.57 2.574 2.574 0 0 0 -2.58-2.57h-5.49a17.542 17.542 0 0 0 -7.757 1.808l-11.042 5.44a10.516 10.516 0 0 1 -4.631 1.071h-1.311z" fill="#323c6b"/><path d="m55.62 39.97-12.47 6.09a15.5 15.5 0 0 1 -5.96 1.532v.048h2.18a15.474 15.474 0 0 0 6.78-1.58l12.47-6.09a7.522 7.522 0 0 1 3.26-.75h-3a7.522 7.522 0 0 0 -3.26.75z" fill="#bbbbcd"/><path d="m70.1 33.98a3.033 3.033 0 0 0 -2.18-.9h-3a3.073 3.073 0 0 1 3.08 3.07 3.066 3.066 0 0 1 -3.08 3.07h3a3.066 3.066 0 0 0 3.08-3.07 3.028 3.028 0 0 0 -.9-2.17z" fill="#bbbbcd"/><path d="m7.16 48.135a.5.5 0 0 1 -.5-.495v-.01a.5.5 0 1 1 .5.5z" fill="#323c6b"/><path d="m9.18 36.51h5.86v4.89h-5.86z" fill="#eeefee"/><path d="m15.04 41.9h-5.86a.5.5 0 0 1 -.5-.5v-4.89a.5.5 0 0 1 .5-.5h5.86a.5.5 0 0 1 .5.5v4.89a.5.5 0 0 1 -.5.5zm-5.36-1h4.86v-3.89h-4.86z" fill="#323c6b"/><path d="m13.04 36.51h2v4.89h-2z" fill="#dbd8dd"/><path d="m34.276 19.961v.787h-10.926v-.787a5.463 5.463 0 0 1 5.463-5.461 5.463 5.463 0 0 1 5.463 5.461z" fill="#bbbbcd"/><path d="m34.275 21.248h-10.925a.5.5 0 0 1 -.5-.5v-.787a5.963 5.963 0 0 1 11.926 0v.787a.5.5 0 0 1 -.501.5zm-10.426-1h9.926v-.287a4.963 4.963 0 0 0 -9.926 0z" fill="#323c6b"/><path d="m28.813 14.5a5.435 5.435 0 0 0 -3.393 1.186 5.438 5.438 0 0 1 6.845 5.064h2.011v-.787a5.463 5.463 0 0 0 -5.463-5.463z" fill="#9a9eaf"/><path d="m11.223 8.26a.5.5 0 0 1 -.407-.79 11.884 11.884 0 0 1 6.7-4.613.5.5 0 1 1 .248.969 10.879 10.879 0 0 0 -6.134 4.224.5.5 0 0 1 -.407.21z" fill="#323c6b"/><path d="m9.639 11.435a.488.488 0 0 1 -.15-.023.5.5 0 0 1 -.326-.627q.1-.314.215-.622a.5.5 0 0 1 .936.354q-.107.281-.2.569a.5.5 0 0 1 -.475.349z" fill="#323c6b"/><path d="m12.117 26.023a.5.5 0 0 1 -.5-.5v-11.181a8.846 8.846 0 1 1 17.692 0v.16a.5.5 0 0 1 -1 0v-.16a7.846 7.846 0 1 0 -15.692 0v11.181a.5.5 0 0 1 -.5.5z" fill="#323c6b"/><path d="m12.117 37a.5.5 0 0 1 -.5-.5v-5.657a.5.5 0 0 1 1 0v5.657a.5.5 0 0 1 -.5.5z" fill="#323c6b"/><path d="m14.772 28.182a2.659 2.659 0 1 1 -2.659-2.659 2.663 2.663 0 0 1 2.659 2.659z" fill="#bbbbcd"/><path d="m12.113 31.341a3.159 3.159 0 1 1 3.158-3.159 3.162 3.162 0 0 1 -3.158 3.159zm0-5.317a2.159 2.159 0 1 0 2.158 2.159 2.161 2.161 0 0 0 -2.158-2.16z" fill="#323c6b"/><path d="m12.113 25.523a2.663 2.663 0 0 0 -1 .2 2.655 2.655 0 0 1 0 4.922 2.657 2.657 0 1 0 1-5.119z" fill="#9a9eaf"/><path d="m17.644 28.682h-2.873a.5.5 0 0 1 0-1h2.872a.5.5 0 0 1 0 1z" fill="#323c6b"/><path d="m9.454 28.682h-2.872a.5.5 0 0 1 0-1h2.872a.5.5 0 0 1 0 1z" fill="#323c6b"/><path d="m20.46 52.89h16.73v5.64h-16.73z" fill="#f4bb87"/><path d="m37.189 59.03h-16.729a.5.5 0 0 1 -.5-.5v-5.64a.5.5 0 0 1 .5-.5h16.729a.5.5 0 0 1 .5.5v5.64a.5.5 0 0 1 -.5.5zm-16.229-1h15.729v-4.64h-15.729z" fill="#323c6b"/><path d="m35.19 52.89h2v5.64h-2z" fill="#e6b17d"/><path d="m20.46 41.4h16.73v11.49h-16.73z" fill="#fed19a"/><path d="m37.189 53.39h-16.729a.5.5 0 0 1 -.5-.5v-11.49a.5.5 0 0 1 .5-.5h16.729a.5.5 0 0 1 .5.5v11.49a.5.5 0 0 1 -.5.5zm-16.229-1h15.729v-10.49h-15.729z" fill="#323c6b"/><path d="m35.19 41.4h2v11.49h-2z" fill="#f4bb87"/><path d="m51.38 64.28v2.73a1 1 0 0 1 -1 1h-4.1a1 1 0 0 1 -1-1v-2.73z" fill="#bbbbcd"/><path d="m50.38 68.51h-4.1a1.5 1.5 0 0 1 -1.5-1.5v-2.73a.5.5 0 0 1 .5-.5h6.1a.5.5 0 0 1 .5.5v2.73a1.5 1.5 0 0 1 -1.5 1.5zm-4.6-3.73v2.23a.5.5 0 0 0 .5.5h4.1a.5.5 0 0 0 .5-.5v-2.23z" fill="#323c6b"/><path d="m49.38 64.28v2.73a1 1 0 0 1 -1 1h2a1 1 0 0 0 1-1v-2.73z" fill="#9a9eaf"/><path d="m22.74 64.28v2.73a1 1 0 0 1 -1 1h-4.1a1 1 0 0 1 -1-1v-2.73z" fill="#bbbbcd"/><g fill="#323c6b"><path d="m21.74 68.51h-4.1a1.5 1.5 0 0 1 -1.5-1.5v-2.73a.5.5 0 0 1 .5-.5h6.1a.5.5 0 0 1 .5.5v2.73a1.5 1.5 0 0 1 -1.5 1.5zm-4.6-3.73v2.23a.5.5 0 0 0 .5.5h4.1a.5.5 0 0 0 .5-.5v-2.23z"/><path d="m50.38 68.51h-4.1a1.5 1.5 0 0 1 -1.5-1.5v-2.73a.5.5 0 0 1 .5-.5h6.1a.5.5 0 0 1 .5.5v2.73a1.5 1.5 0 0 1 -1.5 1.5zm-4.6-3.73v2.23a.5.5 0 0 0 .5.5h4.1a.5.5 0 0 0 .5-.5v-2.23z"/><path d="m39.37 48.14h-2.181a.5.5 0 0 1 -.5-.5v-6.24a.5.5 0 0 1 .5-.5h1.811a9.521 9.521 0 0 0 4.191-.97l11.038-5.439a18.547 18.547 0 0 1 8.2-1.911h5.49a3.574 3.574 0 0 1 3.58 3.57 3.579 3.579 0 0 1 -3.58 3.57h-6.039a6.977 6.977 0 0 0 -3.043.7l-12.467 6.089a16.062 16.062 0 0 1 -7 1.631zm-1.681-1h1.681a15.049 15.049 0 0 0 6.561-1.529l12.47-6.09a7.978 7.978 0 0 1 3.479-.8h6.04a2.578 2.578 0 0 0 2.58-2.57 2.574 2.574 0 0 0 -2.58-2.57h-5.49a17.542 17.542 0 0 0 -7.757 1.808l-11.042 5.44a10.516 10.516 0 0 1 -4.631 1.071h-1.311z"/><path d="m52.85 64.78h-36.66a5.87 5.87 0 0 1 -5.6-4.157l-3.908-12.837a.5.5 0 0 1 .479-.646h13.3a.5.5 0 0 1 .5.5v10.39h15.728v-10.39a.5.5 0 0 1 .5-.5h2.181a15.049 15.049 0 0 0 6.561-1.529l12.47-6.09a7.978 7.978 0 0 1 3.479-.8h4.26a.5.5 0 0 1 .467.679l-8.3 21.62a5.845 5.845 0 0 1 -5.457 3.76zm-45.015-16.64 3.714 12.194a4.864 4.864 0 0 0 4.641 3.446h36.66a4.842 4.842 0 0 0 4.522-3.115l8.04-20.945h-3.532a6.977 6.977 0 0 0 -3.043.7l-12.467 6.089a16.062 16.062 0 0 1 -7 1.631h-1.681v10.39a.5.5 0 0 1 -.5.5h-16.729a.5.5 0 0 1 -.5-.5v-10.39z"/><path d="m37.189 53.39h-16.729a.5.5 0 0 1 -.5-.5v-11.49a.5.5 0 0 1 .5-.5h16.729a.5.5 0 0 1 .5.5v11.49a.5.5 0 0 1 -.5.5zm-16.229-1h15.729v-10.49h-15.729z"/><path d="m37.189 59.03h-16.729a.5.5 0 0 1 -.5-.5v-5.64a.5.5 0 0 1 .5-.5h16.729a.5.5 0 0 1 .5.5v5.64a.5.5 0 0 1 -.5.5zm-16.229-1h15.729v-4.64h-15.729z"/><path d="m15.04 41.9h-5.86a.5.5 0 0 1 -.5-.5v-4.89a.5.5 0 0 1 .5-.5h5.86a.5.5 0 0 1 .5.5v4.89a.5.5 0 0 1 -.5.5zm-5.36-1h4.86v-3.89h-4.86z"/><path d="m34.275 21.248h-10.925a.5.5 0 0 1 -.5-.5v-.787a5.963 5.963 0 0 1 11.926 0v.787a.5.5 0 0 1 -.501.5zm-10.426-1h9.926v-.287a4.963 4.963 0 0 0 -9.926 0z"/><path d="m12.113 31.341a3.159 3.159 0 1 1 3.158-3.159 3.162 3.162 0 0 1 -3.158 3.159zm0-5.317a2.159 2.159 0 1 0 2.158 2.159 2.161 2.161 0 0 0 -2.158-2.16z"/></g><path d="m16.964 44.506h-8.1a.632.632 0 0 1 -.638-.63.638.638 0 0 1 .633-.641h8.1a.612.612 0 0 1 .638.605.659.659 0 0 1 -.633.666z" fill="#fff"/><path d="m6.184 44.506h-.34a.624.624 0 0 1 -.638-.62.646.646 0 0 1 .633-.65h.34a.645.645 0 0 1 .638.644.625.625 0 0 1 -.633.626z" fill="#fff"/></svg>