<svg id="line_color" height="512" viewBox="0 0 74 74" width="512" xmlns="http://www.w3.org/2000/svg" data-name="line color"><path d="m55.369 30.021a.5.5 0 0 1 -.354-.146l-.45-.45a.5.5 0 0 1 .707-.707l.45.45a.5.5 0 0 1 -.354.854z" fill="#323c6b"/><path d="m52.861 27.513a.5.5 0 0 1 -.354-.146l-6.594-6.594a.5.5 0 0 1 .707-.707l6.594 6.594a.5.5 0 0 1 -.354.854z" fill="#323c6b"/><path d="m5.581 9.769a.5.5 0 0 1 -.354-.854l.531-.531a.5.5 0 0 1 .707.707l-.531.531a.5.5 0 0 1 -.353.147z" fill="#323c6b"/><path d="m0 19.43a.5.5 0 0 1 -.5-.5 10.28 10.28 0 0 1 3.032-7.32l.86-.86a.5.5 0 0 1 .707.707l-.86.86a9.288 9.288 0 0 0 -2.739 6.613.5.5 0 0 1 -.5.5z" fill="#323c6b"/><path d="m50.225 68.993 12.92-12.92a3.426 3.426 0 0 0 0-4.845l-40.374-40.373a3.426 3.426 0 0 0 -4.845 0l-12.919 12.92a6.852 6.852 0 0 1 0-9.69l8.075-8.075a10.277 10.277 0 0 1 14.535 0l40.373 40.374a10.277 10.277 0 0 1 0 14.535l-8.075 8.075a6.852 6.852 0 0 1 -9.69-.001z" fill="#fed19a"/><path d="m55.07 71.5a7.3 7.3 0 0 1 -5.2-2.153.5.5 0 0 1 0-.707l12.922-12.92a2.926 2.926 0 0 0 0-4.138l-40.375-40.374a3 3 0 0 0 -4.138 0l-12.919 12.92a.5.5 0 0 1 -.707 0 7.351 7.351 0 0 1 0-10.4l8.075-8.075a10.777 10.777 0 0 1 15.242 0l40.373 40.377a10.777 10.777 0 0 1 0 15.242l-8.075 8.075a7.3 7.3 0 0 1 -5.198 2.153zm-4.124-2.521a6.352 6.352 0 0 0 8.615-.34l8.075-8.075a9.789 9.789 0 0 0 0-13.828l-40.373-40.372a9.788 9.788 0 0 0 -13.828 0l-8.075 8.074a6.352 6.352 0 0 0 -.34 8.615l12.553-12.553a4.019 4.019 0 0 1 5.552 0l40.375 40.375a3.925 3.925 0 0 1 0 5.552z" fill="#323c6b"/><path d="m14.926 10.855-11.18 11.18a6.836 6.836 0 0 0 1.26 1.74l12.92-12.92a3.392 3.392 0 0 1 .922-.642 3.415 3.415 0 0 0 -3.922.642z" fill="#f4bb87"/><path d="m67.99 46.384-40.374-40.374a10.251 10.251 0 0 0 -8.767-2.889 10.218 10.218 0 0 1 5.767 2.889l40.374 40.374a10.277 10.277 0 0 1 0 14.535l-8.075 8.075a6.811 6.811 0 0 1 -3.345 1.835 6.84 6.84 0 0 0 6.345-1.835l8.075-8.075a10.277 10.277 0 0 0 0-14.535z" fill="#f4bb87"/><g fill="#323c6b"><path d="m9.852 29.12a.5.5 0 0 1 -.354-.854l15.342-15.342a.5.5 0 0 1 .707.707l-15.342 15.342a.5.5 0 0 1 -.353.147z"/><path d="m7.4 26.671a.5.5 0 0 1 -.354-.854l15.346-15.341a.5.5 0 0 1 .707.707l-15.342 15.342a.5.5 0 0 1 -.357.146z"/><path d="m12.39 31.657a.5.5 0 0 1 -.354-.854l15.342-15.341a.5.5 0 0 1 .707.707l-15.342 15.342a.5.5 0 0 1 -.353.146z"/><path d="m14.927 34.195a.5.5 0 0 1 -.354-.854l15.343-15.341a.5.5 0 0 1 .707.707l-15.342 15.341a.5.5 0 0 1 -.354.147z"/><path d="m17.234 36.5a.5.5 0 0 1 -.354-.854l15.342-15.34a.5.5 0 0 1 .707.707l-15.342 15.342a.5.5 0 0 1 -.353.145z"/><path d="m20 39.271a.5.5 0 0 1 -.354-.854l15.345-15.342a.5.5 0 0 1 .707.707l-15.342 15.342a.5.5 0 0 1 -.356.147z"/><path d="m22.541 41.809a.5.5 0 0 1 -.354-.854l15.342-15.342a.5.5 0 0 1 .707.707l-15.342 15.342a.5.5 0 0 1 -.353.147z"/><path d="m25.078 44.346a.5.5 0 0 1 -.354-.854l15.343-15.342a.5.5 0 0 1 .707.707l-15.342 15.343a.5.5 0 0 1 -.354.146z"/><path d="m27.616 46.884a.5.5 0 0 1 -.354-.854l15.338-15.342a.5.5 0 0 1 .707.707l-15.337 15.342a.5.5 0 0 1 -.354.147z"/><path d="m30.154 49.422a.5.5 0 0 1 -.354-.854l15.343-15.342a.5.5 0 0 1 .707.707l-15.343 15.342a.5.5 0 0 1 -.353.147z"/><path d="m32.691 51.959a.5.5 0 0 1 -.354-.854l15.343-15.341a.5.5 0 0 1 .707.707l-15.342 15.342a.5.5 0 0 1 -.354.146z"/><path d="m35.229 54.5a.5.5 0 0 1 -.354-.854l15.343-15.346a.5.5 0 0 1 .707.707l-15.342 15.344a.5.5 0 0 1 -.354.149z"/><path d="m37.721 56.989a.5.5 0 0 1 -.354-.854l15.342-15.342a.5.5 0 0 1 .707.707l-15.341 15.342a.5.5 0 0 1 -.354.147z"/><path d="m40.305 59.573a.5.5 0 0 1 -.354-.854l15.342-15.342a.5.5 0 0 1 .707.707l-15.341 15.342a.5.5 0 0 1 -.354.147z"/><path d="m42.843 62.11a.5.5 0 0 1 -.354-.854l15.342-15.341a.5.5 0 0 1 .707.707l-15.338 15.342a.5.5 0 0 1 -.357.146z"/><path d="m45.38 64.648a.5.5 0 0 1 -.354-.854l15.343-15.341a.5.5 0 0 1 .707.707l-15.342 15.34a.5.5 0 0 1 -.354.148z"/><path d="m48.041 67.308a.5.5 0 0 1 -.354-.854l15.342-15.341a.5.5 0 0 1 .707.707l-15.342 15.342a.5.5 0 0 1 -.353.146z"/><path d="m55.07 71.5a7.3 7.3 0 0 1 -5.2-2.153.5.5 0 0 1 0-.707l12.922-12.92a2.926 2.926 0 0 0 0-4.138l-40.375-40.374a3 3 0 0 0 -4.138 0l-12.919 12.92a.5.5 0 0 1 -.707 0 7.351 7.351 0 0 1 0-10.4l8.075-8.075a10.777 10.777 0 0 1 15.242 0l40.373 40.377a10.777 10.777 0 0 1 0 15.242l-8.075 8.075a7.3 7.3 0 0 1 -5.198 2.153zm-4.124-2.521a6.352 6.352 0 0 0 8.615-.34l8.075-8.075a9.789 9.789 0 0 0 0-13.828l-40.373-40.372a9.788 9.788 0 0 0 -13.828 0l-8.075 8.074a6.352 6.352 0 0 0 -.34 8.615l12.553-12.553a4.019 4.019 0 0 1 5.552 0l40.375 40.375a3.925 3.925 0 0 1 0 5.552z"/></g><path d="m64.517 59.259-6.141 6.141a.678.678 0 0 1 -.961.006.684.684 0 0 1 -.006-.966l6.141-6.14a.657.657 0 0 1 .942-.025.707.707 0 0 1 .025.984z" fill="#fff"/><path d="m56.341 67.434-.258.258a.67.67 0 0 1 -.954.013.693.693 0 0 1 -.013-.973l.258-.258a.692.692 0 0 1 .972.005.671.671 0 0 1 -.005.955z" fill="#fff"/></svg>