<svg id="line_color" height="512" viewBox="0 0 74 74" width="512" xmlns="http://www.w3.org/2000/svg" data-name="line color"><path d="m10.38 33.5a.5.5 0 0 1 -.5-.5v-13.228a.5.5 0 1 1 1 0v13.228a.5.5 0 0 1 -.5.5z" fill="#323c6b"/><path d="m10.38 38.25a.5.5 0 0 1 -.5-.5v-1.375a.5.5 0 1 1 1 0v1.375a.5.5 0 0 1 -.5.5z" fill="#323c6b"/><path d="m57.26 66.668a.5.5 0 0 1 -.124-.984q.342-.087.673-.2a.5.5 0 1 1 .323.946q-.368.126-.748.223a.5.5 0 0 1 -.124.015z" fill="#323c6b"/><path d="m60.791 64.915a.5.5 0 0 1 -.312-.892 8.9 8.9 0 0 0 3.391-7.005.5.5 0 0 1 1 0 9.9 9.9 0 0 1 -3.77 7.788.5.5 0 0 1 -.309.109z" fill="#323c6b"/><path d="m19.822 4.329h35.106a6.442 6.442 0 0 1 6.442 6.442v46.247a6.442 6.442 0 0 1 -6.442 6.442h-35.105a6.443 6.443 0 0 1 -6.443-6.443v-46.245a6.442 6.442 0 0 1 6.442-6.443z" fill="#dbd8dd"/><path d="m54.928 63.96h-35.106a6.95 6.95 0 0 1 -6.942-6.942v-46.246a6.951 6.951 0 0 1 6.942-6.943h35.106a6.951 6.951 0 0 1 6.942 6.943v46.246a6.95 6.95 0 0 1 -6.942 6.942zm-35.106-59.131a5.949 5.949 0 0 0 -5.942 5.943v46.246a5.949 5.949 0 0 0 5.942 5.942h35.106a5.949 5.949 0 0 0 5.942-5.942v-46.246a5.949 5.949 0 0 0 -5.942-5.943z" fill="#323c6b"/><path d="m54.928 4.329h-3a6.442 6.442 0 0 1 6.443 6.443v46.246a6.442 6.442 0 0 1 -6.443 6.443h3a6.442 6.442 0 0 0 6.443-6.443v-46.246a6.442 6.442 0 0 0 -6.443-6.443z" fill="#bbbbcd"/><path d="m45.749 43.806v19.647h-16.749v-19.647a8.374 8.374 0 0 1 8.374-8.374 8.374 8.374 0 0 1 8.375 8.374z" fill="#bbbbcd"/><path d="m45.749 63.953h-16.749a.5.5 0 0 1 -.5-.5v-19.647a8.874 8.874 0 0 1 17.748 0v19.647a.5.5 0 0 1 -.499.5zm-16.248-1h15.748v-19.147a7.874 7.874 0 0 0 -15.748 0z" fill="#323c6b"/><path d="m37.375 35.432a8.332 8.332 0 0 0 -4.725 1.463 8.358 8.358 0 0 1 11.1 7.912v18.646h2v-19.647a8.374 8.374 0 0 0 -8.375-8.374z" fill="#9a9eaf"/><path d="m40.911 54.872a3.543 3.543 0 1 1 -3.543-3.543 3.541 3.541 0 0 1 3.543 3.543z" fill="#dbd8dd"/><path d="m37.369 58.916a4.043 4.043 0 1 1 4.043-4.043 4.047 4.047 0 0 1 -4.043 4.043zm0-7.086a3.043 3.043 0 1 0 3.043 3.043 3.047 3.047 0 0 0 -3.043-3.043z" fill="#323c6b"/><path d="m40.911 43.671a3.543 3.543 0 1 1 -3.543-3.543 3.541 3.541 0 0 1 3.543 3.543z" fill="#dbd8dd"/><path d="m37.369 47.714a4.043 4.043 0 1 1 4.043-4.043 4.047 4.047 0 0 1 -4.043 4.043zm0-7.086a3.043 3.043 0 1 0 3.043 3.043 3.047 3.047 0 0 0 -3.043-3.043z" fill="#323c6b"/><path d="m48.281 63.453v3.542a.9.9 0 0 1 -.9.9h-19.781a.9.9 0 0 1 -.9-.9v-3.542z" fill="#bbbbcd"/><path d="m47.378 68.4h-19.778a1.4 1.4 0 0 1 -1.4-1.4v-3.547a.5.5 0 0 1 .5-.5h21.58a.5.5 0 0 1 .5.5v3.542a1.4 1.4 0 0 1 -1.402 1.405zm-20.178-4.447v3.042a.4.4 0 0 0 .4.4h19.778a.4.4 0 0 0 .4-.4v-3.042z" fill="#323c6b"/><path d="m45.281 63.453v3.542a.9.9 0 0 1 -.9.9h3a.9.9 0 0 0 .9-.9v-3.542z" fill="#9a9eaf"/><path d="m45.021 67.9v3.144a1.288 1.288 0 0 1 -1.288 1.288h-2.177a1.288 1.288 0 0 1 -1.288-1.288v-3.144z" fill="#bbbbcd"/><path d="m43.733 72.829h-2.177a1.79 1.79 0 0 1 -1.789-1.788v-3.141a.5.5 0 0 1 .5-.5h4.754a.5.5 0 0 1 .5.5v3.144a1.79 1.79 0 0 1 -1.788 1.785zm-2.966-4.429v2.644a.789.789 0 0 0 .789.788h2.177a.789.789 0 0 0 .788-.788v-2.644z" fill="#323c6b"/><path d="m43.021 67.9v3.143a1.288 1.288 0 0 1 -1.288 1.288h2a1.288 1.288 0 0 0 1.288-1.288v-3.143z" fill="#9a9eaf"/><path d="m34.715 67.9v3.144a1.288 1.288 0 0 1 -1.288 1.288h-2.178a1.288 1.288 0 0 1 -1.288-1.288v-3.144z" fill="#bbbbcd"/><path d="m33.426 72.829h-2.177a1.79 1.79 0 0 1 -1.789-1.788v-3.141a.5.5 0 0 1 .5-.5h4.754a.5.5 0 0 1 .5.5v3.144a1.79 1.79 0 0 1 -1.788 1.785zm-2.966-4.429v2.644a.789.789 0 0 0 .789.788h2.177a.789.789 0 0 0 .789-.788v-2.644z" fill="#323c6b"/><path d="m32.715 67.9v3.143a1.288 1.288 0 0 1 -1.288 1.288h2a1.288 1.288 0 0 0 1.288-1.288v-3.143z" fill="#9a9eaf"/><path d="m43.14 10.309h12.561v4.535h-12.561z" fill="#b6d2dd"/><path d="m55.7 15.344h-12.56a.5.5 0 0 1 -.5-.5v-4.534a.5.5 0 0 1 .5-.5h12.56a.5.5 0 0 1 .5.5v4.535a.5.5 0 0 1 -.5.499zm-12.061-1h11.561v-3.534h-11.56z" fill="#323c6b"/><path d="m53.701 10.309h2v4.535h-2z" fill="#acc6cc"/><g fill="#323c6b"><path d="m54.928 63.96h-35.106a6.95 6.95 0 0 1 -6.942-6.942v-46.246a6.951 6.951 0 0 1 6.942-6.943h35.106a6.951 6.951 0 0 1 6.942 6.943v46.246a6.95 6.95 0 0 1 -6.942 6.942zm-35.106-59.131a5.949 5.949 0 0 0 -5.942 5.943v46.246a5.949 5.949 0 0 0 5.942 5.942h35.106a5.949 5.949 0 0 0 5.942-5.942v-46.246a5.949 5.949 0 0 0 -5.942-5.943z"/><path d="m55.7 15.344h-12.56a.5.5 0 0 1 -.5-.5v-4.534a.5.5 0 0 1 .5-.5h12.56a.5.5 0 0 1 .5.5v4.535a.5.5 0 0 1 -.5.499zm-12.061-1h11.561v-3.534h-11.56z"/><path d="m45.749 63.953h-16.749a.5.5 0 0 1 -.5-.5v-19.647a8.874 8.874 0 0 1 17.748 0v19.647a.5.5 0 0 1 -.499.5zm-16.248-1h15.748v-19.147a7.874 7.874 0 0 0 -15.748 0z"/><path d="m47.378 68.4h-19.778a1.4 1.4 0 0 1 -1.4-1.4v-3.547a.5.5 0 0 1 .5-.5h21.58a.5.5 0 0 1 .5.5v3.542a1.4 1.4 0 0 1 -1.402 1.405zm-20.178-4.447v3.042a.4.4 0 0 0 .4.4h19.778a.4.4 0 0 0 .4-.4v-3.042z"/><path d="m43.733 72.829h-2.177a1.79 1.79 0 0 1 -1.789-1.788v-3.141a.5.5 0 0 1 .5-.5h4.754a.5.5 0 0 1 .5.5v3.144a1.79 1.79 0 0 1 -1.788 1.785zm-2.966-4.429v2.644a.789.789 0 0 0 .789.788h2.177a.789.789 0 0 0 .788-.788v-2.644z"/><path d="m33.426 72.829h-2.177a1.79 1.79 0 0 1 -1.789-1.788v-3.141a.5.5 0 0 1 .5-.5h4.754a.5.5 0 0 1 .5.5v3.144a1.79 1.79 0 0 1 -1.788 1.785zm-2.966-4.429v2.644a.789.789 0 0 0 .789.788h2.177a.789.789 0 0 0 .789-.788v-2.644z"/></g><path d="m19.036 20.481a1.078 1.078 0 0 1 -1.078-1.081v-.03a1.078 1.078 0 1 1 2.157 0v.03a1.078 1.078 0 0 1 -1.079 1.081z" fill="#f9f9f9"/><path d="m19.036 16.809a1.078 1.078 0 0 1 -1.078-1.078v-6.031a1.078 1.078 0 0 1 1.078-1.078h8.964a1.078 1.078 0 1 1 0 2.157h-7.886v4.95a1.078 1.078 0 0 1 -1.078 1.08z" fill="#f9f9f9"/></svg>