<?xml version="1.0" encoding="iso-8859-1"?>
<!-- Generator: Adobe Illustrator 24.1.2, SVG Export Plug-In . SVG Version: 6.00 Build 0)  -->
<svg xmlns="http://www.w3.org/2000/svg" xmlns:xlink="http://www.w3.org/1999/xlink" version="1.1" id="line_color" x="0px" y="0px" viewBox="0 0 512 512" style="enable-background:new 0 0 512 512;" xml:space="preserve" width="512" height="512">
<g>
	<path style="fill:#323C6B;" d="M484.324,48.054c-1.911,0-3.459-1.549-3.459-3.459c0-17.195-13.94-31.135-31.135-31.135h-29.834   c-1.911,0-3.459-1.549-3.459-3.459s1.549-3.459,3.459-3.459h29.834c21.007,0.023,38.031,17.047,38.054,38.054   C487.784,46.505,486.235,48.054,484.324,48.054z"/>
	<path style="fill:#323C6B;" d="M395.679,13.459h-6.919c-1.911,0-3.459-1.549-3.459-3.459s1.549-3.459,3.459-3.459h6.919   c1.911,0,3.459,1.549,3.459,3.459S397.59,13.459,395.679,13.459z"/>
	<path style="fill:#9A9EAF;" d="M463.568,44.595v83.027H48.432V44.595c0.023-7.633,6.205-13.815,13.838-13.838H449.73   C457.363,30.78,463.545,36.962,463.568,44.595z"/>
	<path style="fill:#323C6B;" d="M463.568,131.081H48.432c-1.911,0-3.459-1.549-3.459-3.459V44.595   c0-9.553,7.744-17.297,17.297-17.297H449.73c9.553,0,17.297,7.744,17.297,17.297v83.027   C467.027,129.532,465.478,131.081,463.568,131.081z M51.892,124.162h408.216V44.595c0-5.732-4.647-10.378-10.378-10.378H62.27   c-5.732,0-10.378,4.647-10.378,10.378V124.162z"/>
	<path style="fill:#828A9E;" d="M449.73,30.757h-20.757c7.633,0.023,13.815,6.205,13.838,13.838v83.027h20.757V44.595   C463.545,36.962,457.363,30.78,449.73,30.757z"/>
	<path style="fill:#323C6B;" d="M27.676,285.892c-1.911,0-3.459-1.549-3.459-3.459v-84.757c0-1.911,1.549-3.459,3.459-3.459   s3.459,1.549,3.459,3.459v84.757C31.135,284.343,29.586,285.892,27.676,285.892z"/>
	<path style="fill:#323C6B;" d="M27.676,321.351c-1.911,0-3.459-1.549-3.459-3.459v-10.378c0-1.911,1.549-3.459,3.459-3.459   s3.459,1.549,3.459,3.459v10.378C31.135,319.802,29.586,321.351,27.676,321.351z"/>
	<path style="fill:#DBD8DD;" d="M463.568,127.622v359.784c-0.023,7.633-6.205,13.815-13.838,13.838H62.27   c-7.633-0.023-13.815-6.205-13.838-13.838V127.622H463.568z"/>
	<path style="fill:#323C6B;" d="M449.73,504.703H62.27c-9.553,0-17.297-7.744-17.297-17.297V127.622   c0-1.911,1.549-3.459,3.459-3.459h415.135c1.911,0,3.459,1.549,3.459,3.459v359.784   C467.027,496.958,459.283,504.703,449.73,504.703z M51.892,131.081v356.324c0,5.732,4.647,10.378,10.378,10.378H449.73   c5.732,0,10.378-4.647,10.378-10.378V131.081H51.892z"/>
	<path style="fill:#BBBBCD;" d="M442.811,127.622v359.784c-0.023,7.633-6.205,13.815-13.838,13.838h20.757   c7.633-0.023,13.815-6.205,13.838-13.838V127.622H442.811z"/>
	<path style="fill:#323C6B;" d="M422.054,99.157c-1.911,0-3.459-1.549-3.459-3.459V62.681c0-1.911,1.549-3.459,3.459-3.459   c1.911,0,3.459,1.549,3.459,3.459v33.01c0.004,1.911-1.542,3.463-3.453,3.466C422.059,99.157,422.056,99.157,422.054,99.157z"/>
	<path style="fill:#323C6B;" d="M359.784,99.157c-1.911,0-3.459-1.549-3.459-3.459V62.681c0-1.911,1.549-3.459,3.459-3.459   c1.911,0,3.459,1.549,3.459,3.459v33.01c0.004,1.911-1.542,3.463-3.453,3.466C359.788,99.157,359.786,99.157,359.784,99.157z"/>
	<path style="fill:#323C6B;" d="M297.514,99.157c-1.911,0-3.459-1.549-3.459-3.459V62.681c0-1.911,1.549-3.459,3.459-3.459   s3.459,1.549,3.459,3.459v33.01c0.004,1.911-1.542,3.463-3.453,3.466C297.518,99.157,297.516,99.157,297.514,99.157z"/>
	<circle style="fill:#9A9EAF;" cx="228.324" cy="321.351" r="131.459"/>
	<path style="fill:#323C6B;" d="M228.324,456.27c-74.514,0-134.919-60.405-134.919-134.919s60.405-134.919,134.919-134.919   s134.919,60.405,134.919,134.919C363.159,395.83,302.803,456.186,228.324,456.27z M228.324,193.351c-70.692,0-128,57.308-128,128   s57.308,128,128,128s128-57.308,128-128C356.244,250.692,298.984,193.431,228.324,193.351z"/>
	<path style="fill:#828A9E;" d="M228.324,189.892c-22.737-0.007-45.083,5.916-64.83,17.187   c67.022-27.914,143.984,3.79,171.898,70.812c25.478,61.174,1.44,131.749-56.082,164.653   c66.932-28.129,98.388-105.192,70.259-172.125C329.057,221.611,281.267,189.871,228.324,189.892z"/>
	<path style="fill:#B6D2DD;" d="M318.27,321.351c0.036,49.676-40.205,89.975-89.88,90.011c-42.42,0.031-79.095-29.58-88.005-71.054   c9.479-11.278,37.362-35.632,86.21-12.108c48.086,23.109,79.152-6.435,90.638-20.688   C317.927,312.093,318.274,316.719,318.27,321.351z"/>
	<path style="fill:#323C6B;" d="M228.324,414.757c-43.947-0.165-81.897-30.798-91.33-73.721c-0.225-1.045,0.046-2.136,0.733-2.954   c10.164-12.101,39.334-37.577,90.361-13.001c44.281,21.262,73.147-3.238,86.445-19.747c1.202-1.485,3.38-1.715,4.865-0.514   c0.67,0.542,1.114,1.315,1.244,2.167c0.727,4.753,1.09,9.555,1.086,14.364C321.673,372.914,279.887,414.7,228.324,414.757z    M144.142,341.25c10.952,46.493,57.519,75.304,104.012,64.353c39.082-9.206,66.689-44.1,66.657-84.252   c0-1.91-0.055-3.792-0.173-5.653c-14.779,15.422-45.388,36.843-89.538,15.623C180.196,309.7,154.174,330.014,144.142,341.25z"/>
	<path style="fill:#FFFFFF;" d="M317.232,307.444v0.069c-11.485,14.253-42.551,43.797-90.638,20.688   c-48.848-23.524-76.731,0.83-86.21,12.108c-9.737-48.712,21.859-96.095,70.571-105.831c48.712-9.737,96.095,21.859,105.831,70.571   C316.946,305.845,317.095,306.644,317.232,307.444z"/>
	<path style="fill:#323C6B;" d="M140.385,343.769c-0.282-0.001-0.563-0.036-0.837-0.104c-1.283-0.32-2.271-1.343-2.546-2.636   c-10.137-50.581,22.649-99.802,73.229-109.939s99.802,22.649,109.939,73.229c0.172,0.86,0.332,1.721,0.48,2.586   c0.027,0.176,0.041,0.354,0.042,0.533v0.076c0,0.791-0.271,1.557-0.768,2.173c-11.762,14.53-44.475,45.831-94.831,21.635   c-46.668-22.473-72.939,0.353-82.058,11.216C142.377,343.319,141.407,343.77,140.385,343.769z M187.503,314.765   c14.131,0.325,28.003,3.852,40.573,10.316c43.202,20.757,71.784-2.117,85.476-18.563c-7.281-47.211-51.456-79.581-98.667-72.299   c-47.211,7.281-79.581,51.456-72.299,98.667C154.598,321.182,170.732,314.673,187.503,314.765z"/>
	<path style="fill:#323C6B;" d="M228.324,456.27c-74.514,0-134.919-60.405-134.919-134.919s60.405-134.919,134.919-134.919   s134.919,60.405,134.919,134.919C363.159,395.83,302.803,456.186,228.324,456.27z M228.324,193.351c-70.692,0-128,57.308-128,128   s57.308,128,128,128s128-57.308,128-128C356.244,250.692,298.984,193.431,228.324,193.351z"/>
	<path style="fill:#323C6B;" d="M408.216,366.324h-6.919c-1.911,0-3.459-1.549-3.459-3.459s1.549-3.459,3.459-3.459h6.919   c5.732,0,10.378-4.647,10.378-10.378v-48.432c0-5.732-4.647-10.378-10.378-10.378h-6.919c-1.911,0-3.459-1.549-3.459-3.459   c0-1.911,1.549-3.459,3.459-3.459h6.919c9.553,0,17.297,7.744,17.297,17.297v48.432   C425.514,358.58,417.769,366.324,408.216,366.324z"/>
	<circle style="fill:#EEEFEE;" cx="110.703" cy="79.189" r="20.757"/>
	<path style="fill:#323C6B;" d="M110.703,103.405c-13.374,0-24.216-10.842-24.216-24.216s10.842-24.216,24.216-24.216   s24.216,10.842,24.216,24.216S124.077,103.405,110.703,103.405z M110.703,61.892c-9.553,0-17.297,7.744-17.297,17.297   s7.744,17.297,17.297,17.297S128,88.742,128,79.189S120.256,61.892,110.703,61.892z"/>
	<circle style="fill:#EEEFEE;" cx="200.649" cy="79.189" r="20.757"/>
	<path style="fill:#323C6B;" d="M200.649,103.405c-13.374,0-24.216-10.842-24.216-24.216s10.842-24.216,24.216-24.216   s24.216,10.842,24.216,24.216S214.023,103.405,200.649,103.405z M200.649,61.892c-9.553,0-17.297,7.744-17.297,17.297   s7.744,17.297,17.297,17.297s17.297-7.744,17.297-17.297S210.202,61.892,200.649,61.892z"/>
	<path style="fill:#323C6B;" d="M463.568,131.081H48.432c-1.911,0-3.459-1.549-3.459-3.459V44.595   c0-9.553,7.744-17.297,17.297-17.297H449.73c9.553,0,17.297,7.744,17.297,17.297v83.027   C467.027,129.532,465.478,131.081,463.568,131.081z M51.892,124.162h408.216V44.595c0-5.732-4.647-10.378-10.378-10.378H62.27   c-5.732,0-10.378,4.647-10.378,10.378V124.162z"/>
	<path style="fill:#323C6B;" d="M449.73,504.703H62.27c-9.553,0-17.297-7.744-17.297-17.297V127.622   c0-1.911,1.549-3.459,3.459-3.459h415.135c1.911,0,3.459,1.549,3.459,3.459v359.784   C467.027,496.958,459.283,504.703,449.73,504.703z M51.892,131.081v356.324c0,5.732,4.647,10.378,10.378,10.378H449.73   c5.732,0,10.378-4.647,10.378-10.378V131.081H51.892z"/>
	<path style="fill:#F9F9F9;" d="M132.989,473.367c0.004,3.21-2.595,5.815-5.805,5.819c-0.005,0-0.009,0-0.014,0h-0.173   c-3.212,0.111-5.905-2.403-6.016-5.615c-0.111-3.212,2.403-5.905,5.615-6.016c0.134-0.005,0.268-0.005,0.401,0h0.173   c3.21-0.004,5.815,2.595,5.819,5.805C132.989,473.362,132.989,473.365,132.989,473.367z"/>
	<path style="fill:#F9F9F9;" d="M113.187,473.367c0.004,3.21-2.595,5.815-5.805,5.819c-0.005,0-0.009,0-0.014,0H74.849   c-3.21,0.004-5.815-2.595-5.819-5.805c0-0.005,0-0.009,0-0.014v-48.342c0.111-3.212,2.804-5.725,6.016-5.615   c3.056,0.105,5.509,2.559,5.615,5.615v42.524h26.693c3.21-0.011,5.821,2.581,5.833,5.791   C113.187,473.348,113.187,473.358,113.187,473.367z"/>
</g>
</svg>
