<?xml version="1.0"?>
<svg xmlns="http://www.w3.org/2000/svg" id="line_color" data-name="line color" viewBox="0 0 74 74" width="512" height="512"><path d="M20.375,10.37H19.75a.5.5,0,0,1,0-1h.625a.5.5,0,0,1,0,1Z" fill="#323c6b"/><path d="M4.618,14.372a.5.5,0,0,1-.348-.859A14.412,14.412,0,0,1,14.34,9.37h1.473a.5.5,0,0,1,0,1H14.34a13.418,13.418,0,0,0-9.374,3.86A.5.5,0,0,1,4.618,14.372Z" fill="#323c6b"/><path d="M3,24.94a12.446,12.446,0,0,0,3.32,8.53A11,11,0,0,0,14.34,37H67.27A3.857,3.857,0,0,0,71,33.03a4.132,4.132,0,0,0-1.09-2.81,3.615,3.615,0,0,0-2.64-1.16l-3.88-.01A7.862,7.862,0,0,0,71,20.96a8.3,8.3,0,0,0-2.23-5.72,7.388,7.388,0,0,0-5.38-2.37H14.34C8.08,12.87,3,18.27,3,24.94Z" fill="#fed19a"/><path d="M67.27,37.5H14.34a11.466,11.466,0,0,1-8.383-3.687A12.916,12.916,0,0,1,2.5,24.94c0-6.931,5.312-12.57,11.84-12.57H63.39A7.855,7.855,0,0,1,69.133,14.9,8.771,8.771,0,0,1,71.5,20.96a8.674,8.674,0,0,1-4.333,7.6h.1a4.1,4.1,0,0,1,3,1.316A4.606,4.606,0,0,1,71.5,33.03,4.36,4.36,0,0,1,67.27,37.5ZM14.34,13.37c-5.977,0-10.84,5.19-10.84,11.57a11.916,11.916,0,0,0,3.185,8.188A10.473,10.473,0,0,0,14.34,36.5H67.27a3.36,3.36,0,0,0,3.23-3.47,3.658,3.658,0,0,0-.956-2.47,3.114,3.114,0,0,0-2.274-1l-3.878-.01h0a.5.5,0,0,1,0-1,7.37,7.37,0,0,0,7.11-7.59,7.779,7.779,0,0,0-2.093-5.376A6.866,6.866,0,0,0,63.39,13.37Z" fill="#323c6b"/><path d="M67.27,29.06l-3.88-.01A7.862,7.862,0,0,0,71,20.96a8.3,8.3,0,0,0-2.23-5.72,7.388,7.388,0,0,0-5.38-2.37h-3a7.388,7.388,0,0,1,5.38,2.37A8.3,8.3,0,0,1,68,20.96a7.862,7.862,0,0,1-7.61,8.09l3.88.01a3.615,3.615,0,0,1,2.64,1.16A4.132,4.132,0,0,1,68,33.03,3.857,3.857,0,0,1,64.27,37h3A3.857,3.857,0,0,0,71,33.03a4.132,4.132,0,0,0-1.09-2.81A3.615,3.615,0,0,0,67.27,29.06Z" fill="#f4bb87"/><path d="M63.39,29.55H14.14a4.036,4.036,0,0,1-2.954-1.3,4.5,4.5,0,0,1-1.216-3.1,4.3,4.3,0,0,1,4.17-4.41H63.66a.5.5,0,0,1,0,1H14.14a3.3,3.3,0,0,0-3.17,3.41,3.5,3.5,0,0,0,.943,2.417,3.044,3.044,0,0,0,2.227.983H63.39a.5.5,0,0,1,0,1Z" fill="#323c6b"/><path d="M45.667,64.63H33.333a.5.5,0,0,1,0-1H45.667a.5.5,0,0,1,0,1Z" fill="#323c6b"/><path d="M50,64.63h-.833a.5.5,0,0,1,0-1H50a.5.5,0,0,1,0,1Z" fill="#323c6b"/><path d="M4.09,54.35A4.113,4.113,0,0,0,3,57.16a3.857,3.857,0,0,0,3.73,3.97H59.66a11,11,0,0,0,8.02-3.53A12.452,12.452,0,0,0,71,49.06C71,42.4,65.92,37,59.66,37H10.61a7.35,7.35,0,0,0-5.38,2.37A8.314,8.314,0,0,0,3,45.09a7.862,7.862,0,0,0,7.61,8.09H6.73A3.624,3.624,0,0,0,4.09,54.35Z" fill="#fed19a"/><path d="M59.66,61.63H6.73A4.36,4.36,0,0,1,2.5,57.16a4.6,4.6,0,0,1,1.224-3.151l0,0a4.109,4.109,0,0,1,3-1.327h.084A8.677,8.677,0,0,1,2.5,45.09a8.771,8.771,0,0,1,2.367-6.063A7.823,7.823,0,0,1,10.61,36.5H59.66c6.528,0,11.84,5.634,11.84,12.56a12.931,12.931,0,0,1-3.455,8.882A11.47,11.47,0,0,1,59.66,61.63ZM4.454,54.692A3.607,3.607,0,0,0,3.5,57.16a3.36,3.36,0,0,0,3.23,3.47H59.66a10.478,10.478,0,0,0,7.657-3.373,11.93,11.93,0,0,0,3.183-8.2c0-6.374-4.863-11.56-10.84-11.56H10.61a6.833,6.833,0,0,0-5.015,2.212A7.777,7.777,0,0,0,3.5,45.09a7.37,7.37,0,0,0,7.11,7.59.5.5,0,0,1,0,1H6.73A3.12,3.12,0,0,0,4.454,54.692Z" fill="#323c6b"/><path d="M59.66,37h-3C62.92,37,68,42.4,68,49.06a12.452,12.452,0,0,1-3.32,8.54,11,11,0,0,1-8.02,3.53h3a11,11,0,0,0,8.02-3.53A12.452,12.452,0,0,0,71,49.06C71,42.4,65.92,37,59.66,37Z" fill="#f4bb87"/><path d="M59.86,53.68H10.61a.5.5,0,1,1,0-1H59.86a3.044,3.044,0,0,0,2.227-.983,3.5,3.5,0,0,0,.943-2.417,3.3,3.3,0,0,0-3.17-3.41H10.34a.5.5,0,0,1,0-1H59.86a4.3,4.3,0,0,1,4.17,4.41,4.5,4.5,0,0,1-1.216,3.1A4.033,4.033,0,0,1,59.86,53.68Z" fill="#323c6b"/><path d="M59.66,61.63H6.73A4.36,4.36,0,0,1,2.5,57.16a4.6,4.6,0,0,1,1.224-3.151l0,0a4.109,4.109,0,0,1,3-1.327h.084A8.677,8.677,0,0,1,2.5,45.09a8.771,8.771,0,0,1,2.367-6.063A7.823,7.823,0,0,1,10.61,36.5H59.66c6.528,0,11.84,5.634,11.84,12.56a12.931,12.931,0,0,1-3.455,8.882A11.47,11.47,0,0,1,59.66,61.63ZM4.454,54.692A3.607,3.607,0,0,0,3.5,57.16a3.36,3.36,0,0,0,3.23,3.47H59.66a10.478,10.478,0,0,0,7.657-3.373,11.93,11.93,0,0,0,3.183-8.2c0-6.374-4.863-11.56-10.84-11.56H10.61a6.833,6.833,0,0,0-5.015,2.212A7.777,7.777,0,0,0,3.5,45.09a7.37,7.37,0,0,0,7.11,7.59.5.5,0,0,1,0,1H6.73A3.12,3.12,0,0,0,4.454,54.692Z" fill="#323c6b"/><path d="M67.27,37.5H14.34a11.466,11.466,0,0,1-8.383-3.687A12.916,12.916,0,0,1,2.5,24.94c0-6.931,5.312-12.57,11.84-12.57H63.39A7.855,7.855,0,0,1,69.133,14.9,8.771,8.771,0,0,1,71.5,20.96a8.674,8.674,0,0,1-4.333,7.6h.1a4.1,4.1,0,0,1,3,1.316A4.606,4.606,0,0,1,71.5,33.03,4.36,4.36,0,0,1,67.27,37.5ZM14.34,13.37c-5.977,0-10.84,5.19-10.84,11.57a11.916,11.916,0,0,0,3.185,8.188A10.473,10.473,0,0,0,14.34,36.5H67.27a3.36,3.36,0,0,0,3.23-3.47,3.658,3.658,0,0,0-.956-2.47,3.114,3.114,0,0,0-2.274-1l-3.878-.01h0a.5.5,0,0,1,0-1,7.37,7.37,0,0,0,7.11-7.59,7.779,7.779,0,0,0-2.093-5.376A6.866,6.866,0,0,0,63.39,13.37Z" fill="#323c6b"/><path d="M55.724,17.124h-10.4a.813.813,0,0,1-.819-.809h0a.82.82,0,0,1,.813-.823h10.4a.787.787,0,0,1,.819.778h0A.847.847,0,0,1,55.724,17.124Z" fill="#fff"/><path d="M41.872,17.124h-.437a.8.8,0,0,1-.819-.8h0a.83.83,0,0,1,.813-.836h.437a.829.829,0,0,1,.819.828h0A.8.8,0,0,1,41.872,17.124Z" fill="#fff"/></svg>
