<?xml version="1.0"?>
<svg xmlns="http://www.w3.org/2000/svg" id="line_color" data-name="line color" viewBox="0 0 74 74" width="512" height="512"><path d="M41.325,67.395a.5.5,0,0,1-.316-.113l-.207-.169a.5.5,0,1,1,.633-.774l.207.169a.5.5,0,0,1-.316.887Zm-2.006-1.641A.5.5,0,0,1,39,65.641l-1.372-1.123a7.121,7.121,0,0,1-1.791-2.181l-2.5-4.7a.5.5,0,1,1,.883-.47l2.5,4.7a6.137,6.137,0,0,0,1.541,1.877l1.372,1.124a.5.5,0,0,1-.316.887ZM29.9,15.034a.5.5,0,0,1-.357-.151l-.276-.283a.5.5,0,1,1,.715-.7l.276.283a.5.5,0,0,1-.357.849Zm-1.872-1.921a.5.5,0,0,1-.358-.151L21.187,6.305a.5.5,0,0,1,.717-.7l6.484,6.656a.5.5,0,0,1-.358.849Z" fill="#323c6b"/><path d="M59.358,64.715l4.446-2.3L58.479,48.595a3.679,3.679,0,0,0-.8-1.245L15.364,3.91a3.011,3.011,0,0,0-4.054-.237h0a3.011,3.011,0,0,0-.76,3.754L38.929,60.692a3.679,3.679,0,0,0,.917,1.118L51.08,71l3.3-3.717-10.644-9a3.679,3.679,0,0,1-.88-1.1L22.414,18.343,53.774,50.835a3.679,3.679,0,0,1,.793,1.25Z" fill="#fed19a"/><path d="M51.08,71.5a.5.5,0,0,1-.316-.113L39.53,62.2a4.163,4.163,0,0,1-1.042-1.27L10.109,7.662a3.511,3.511,0,0,1,5.613-4.1L58.04,47a4.155,4.155,0,0,1,.906,1.414l5.324,13.821a.5.5,0,0,1-.237.624l-4.446,2.3a.5.5,0,0,1-.7-.267L54.1,52.262a3.177,3.177,0,0,0-.686-1.081L24.489,21.213l18.8,35.737a3.171,3.171,0,0,0,.761.947l10.645,9a.5.5,0,0,1,.176.346.5.5,0,0,1-.125.367l-3.3,3.717A.5.5,0,0,1,51.08,71.5ZM13.209,3.5a2.517,2.517,0,0,0-2.217,3.7L39.371,60.457a3.144,3.144,0,0,0,.792.965l10.861,8.887,2.638-2.975L43.408,58.661a4.188,4.188,0,0,1-1-1.244L21.972,18.576a.5.5,0,0,1,.8-.58l31.36,32.491a4.162,4.162,0,0,1,.9,1.42l4.591,12.105,3.55-1.836-5.163-13.4a3.156,3.156,0,0,0-.689-1.076L15.006,4.259A2.5,2.5,0,0,0,13.209,3.5Z" fill="#323c6b"/><path d="M42.852,57.183,26.01,25.177l-3.435-6.529L39.852,57.183a3.679,3.679,0,0,0,.88,1.1l10.644,9-2.035,2.295L51.08,71l3.3-3.717-10.644-9A3.679,3.679,0,0,1,42.852,57.183Z" fill="#f4bb87"/><path d="M58.479,48.595a3.679,3.679,0,0,0-.8-1.245L15.364,3.91a3.005,3.005,0,0,0-3.661-.5,2.982,2.982,0,0,1,.661.5L54.682,47.35a3.679,3.679,0,0,1,.8,1.245L60.8,62.415l-1.938,1,.492,1.3,4.446-2.3Z" fill="#f4bb87"/><path d="M51.08,71.5a.5.5,0,0,1-.316-.113L39.53,62.2a4.163,4.163,0,0,1-1.042-1.27L10.109,7.662a3.511,3.511,0,0,1,5.613-4.1L58.04,47a4.155,4.155,0,0,1,.906,1.414l5.324,13.821a.5.5,0,0,1-.237.624l-4.446,2.3a.5.5,0,0,1-.7-.267L54.1,52.262a3.177,3.177,0,0,0-.686-1.081L24.489,21.213l18.8,35.737a3.171,3.171,0,0,0,.761.947l10.645,9a.5.5,0,0,1,.176.346.5.5,0,0,1-.125.367l-3.3,3.717A.5.5,0,0,1,51.08,71.5ZM13.209,3.5a2.517,2.517,0,0,0-2.217,3.7L39.371,60.457a3.144,3.144,0,0,0,.792.965l10.861,8.887,2.638-2.975L43.408,58.661a4.188,4.188,0,0,1-1-1.244L21.972,18.576a.5.5,0,0,1,.8-.58l31.36,32.491a4.162,4.162,0,0,1,.9,1.42l4.591,12.105,3.55-1.836-5.163-13.4a3.156,3.156,0,0,0-.689-1.076L15.006,4.259A2.5,2.5,0,0,0,13.209,3.5Z" fill="#323c6b"/><path d="M18.11,17.417l-3.1-5.391a.486.486,0,0,1,.175-.665h0a.49.49,0,0,1,.669.176l3.1,5.391a.47.47,0,0,1-.159.656h0A.506.506,0,0,1,18.11,17.417Z" fill="#fff"/><path d="M13.985,10.24l-.13-.226a.479.479,0,0,1,.169-.662h0a.5.5,0,0,1,.675.172l.13.226a.5.5,0,0,1-.185.671h0A.48.48,0,0,1,13.985,10.24Z" fill="#fff"/></svg>
