<svg id="line_color" height="512" viewBox="0 0 74 74" width="512" xmlns="http://www.w3.org/2000/svg" data-name="line color"><g fill="#323c6b"><path d="m15.154 59.681h-.036a.5.5 0 0 1 -.464-.534l.7-9.99a.513.513 0 0 1 .534-.463.5.5 0 0 1 .464.534l-.7 9.99a.5.5 0 0 1 -.498.463z"/><path d="m14.961 62.448h-.036a.5.5 0 0 1 -.464-.534l.027-.386a.512.512 0 0 1 .534-.463.5.5 0 0 1 .464.534l-.027.386a.5.5 0 0 1 -.498.463z"/><path d="m66.656 17.563a.5.5 0 0 1 -.48-.36l-.231-.8a.5.5 0 0 1 .961-.279l.231.8a.5.5 0 0 1 -.48.64z"/><path d="m65.524 14.157a.5.5 0 0 1 -.463-.311 20.854 20.854 0 0 0 -6.526-8.73.5.5 0 1 1 .607-.794 21.858 21.858 0 0 1 6.845 9.146.5.5 0 0 1 -.463.689z"/></g><path d="m71 42.77h-9.11l-8.93-24.71 1.55 22.09 2.15 30.62h-39.31l2.14-30.62 1.55-22.09-8.93 24.71h-9.11l7.46-25.68c2.43-8.52 9.39-14.19 18.17-13.01q.48.06.99.15v.23c0 5.05 3.35 9.88 6.99 13.38l.39.38.28-.27c3.76-3.56 7.17-8.54 7.1-13.72q.51-.09.99-.15a15.375 15.375 0 0 1 13.27 4.44 5.385 5.385 0 0 1 .47.49 12.391 12.391 0 0 1 .89 1.03 17.054 17.054 0 0 1 1.2 1.72c.26.4.49.81.71 1.23a21.5 21.5 0 0 1 1.63 4.1z" fill="#b6d2dd"/><path d="m56.66 71.27h-39.31a.5.5 0 0 1 -.5-.535l3.44-49.128-7.709 21.333a.5.5 0 0 1 -.471.33h-9.11a.5.5 0 0 1 -.48-.64l7.46-25.68c2.609-9.15 10.135-14.52 18.72-13.366.324.041.662.092 1.011.153a.5.5 0 0 1 .413.492v.23c0 5.609 4.283 10.565 6.837 13.02l.046.044c2.637-2.512 6.955-7.517 6.877-13.287a.5.5 0 0 1 .413-.5q.523-.092 1.015-.154a15.883 15.883 0 0 1 13.682 4.585 5.837 5.837 0 0 1 .5.523 12.481 12.481 0 0 1 .9 1.042 17.619 17.619 0 0 1 1.234 1.77c.234.36.467.764.725 1.256a22.119 22.119 0 0 1 1.667 4.193l7.46 25.679a.5.5 0 0 1 -.48.64h-9.11a.5.5 0 0 1 -.471-.33l-7.709-21.333 3.449 49.128a.5.5 0 0 1 -.5.535zm-38.774-1h38.238l-3.663-52.17a.5.5 0 0 1 .97-.205l8.81 24.38h8.094l-7.275-25.046a21.07 21.07 0 0 0 -1.592-4.006c-.213-.408-.436-.8-.687-1.192a16.756 16.756 0 0 0 -1.174-1.684 12.229 12.229 0 0 0 -.855-.991 5.37 5.37 0 0 0 -.454-.474 14.915 14.915 0 0 0 -12.86-4.308q-.275.034-.559.078c-.127 6.016-4.572 11.12-7.254 13.66l-.277.267a.5.5 0 0 1 -.7 0l-.39-.38c-2.637-2.535-7.045-7.646-7.14-13.544q-.283-.043-.555-.078c-8.07-1.083-15.16 4-17.627 12.651l-7.27 25.042h8.094l8.81-24.38a.5.5 0 0 1 .97.205z" fill="#323c6b"/><path d="m21.04 18.06-11.93 24.71h3l5.209-14.414z" fill="#acc6cc"/><path d="m63.54 17.09c-2.357-8.264-8.982-13.828-17.391-13.078 6.963.654 12.322 5.825 14.391 13.078l7.46 25.68h3z" fill="#acc6cc"/><path d="m52.96 18.06.7 52.71h3l-2.977-42.408z" fill="#acc6cc"/><path d="m37.151 44.585a40.922 40.922 0 0 1 -17.9-4 .5.5 0 0 1 .48-.877 40.544 40.544 0 0 0 34.569-.008.5.5 0 0 1 .43.9 40.639 40.639 0 0 1 -17.579 3.985z" fill="#323c6b"/><path d="m37 71.266a.5.5 0 0 1 -.5-.5v-52.548a.5.5 0 0 1 1 0v52.548a.5.5 0 0 1 -.5.5z" fill="#323c6b"/><path d="m56.66 71.27h-39.31a.5.5 0 0 1 -.5-.535l3.44-49.128-7.709 21.333a.5.5 0 0 1 -.471.33h-9.11a.5.5 0 0 1 -.48-.64l7.46-25.68c2.609-9.15 10.135-14.52 18.72-13.366.324.041.662.092 1.011.153a.5.5 0 0 1 .413.492v.23c0 5.609 4.283 10.565 6.837 13.02l.046.044c2.637-2.512 6.955-7.517 6.877-13.287a.5.5 0 0 1 .413-.5q.523-.092 1.015-.154a15.883 15.883 0 0 1 13.682 4.585 5.837 5.837 0 0 1 .5.523 12.481 12.481 0 0 1 .9 1.042 17.619 17.619 0 0 1 1.234 1.77c.234.36.467.764.725 1.256a22.119 22.119 0 0 1 1.667 4.193l7.46 25.679a.5.5 0 0 1 -.48.64h-9.11a.5.5 0 0 1 -.471-.33l-7.709-21.333 3.449 49.128a.5.5 0 0 1 -.5.535zm-38.774-1h38.238l-3.663-52.17a.5.5 0 0 1 .97-.205l8.81 24.38h8.094l-7.275-25.046a21.07 21.07 0 0 0 -1.592-4.006c-.213-.408-.436-.8-.687-1.192a16.756 16.756 0 0 0 -1.174-1.684 12.229 12.229 0 0 0 -.855-.991 5.37 5.37 0 0 0 -.454-.474 14.915 14.915 0 0 0 -12.86-4.308q-.275.034-.559.078c-.127 6.016-4.572 11.12-7.254 13.66l-.277.267a.5.5 0 0 1 -.7 0l-.39-.38c-2.637-2.535-7.045-7.646-7.14-13.544q-.283-.043-.555-.078c-8.07-1.083-15.16 4-17.627 12.651l-7.27 25.042h8.094l8.81-24.38a.5.5 0 0 1 .97.205z" fill="#323c6b"/><path d="m44.38 4.23c.07 5.18-3.34 10.16-7.1 13.72l-.28.27-.39-.38c-3.64-3.5-6.99-8.33-6.99-13.38v-.23a27.8 27.8 0 0 1 14.76 0z" fill="#eeefee"/><path d="m37 18.72a.5.5 0 0 1 -.349-.142l-.39-.38c-2.661-2.563-7.141-7.759-7.141-13.738v-.23a.5.5 0 0 1 .369-.483 28.431 28.431 0 0 1 15.021 0 .5.5 0 0 1 .369.476c.084 6.2-4.51 11.49-7.256 14.09l-.277.267a.5.5 0 0 1 -.346.14zm-6.879-14.1c.078 5.545 4.306 10.432 6.836 12.864l.046.044c2.579-2.457 6.767-7.3 6.876-12.909a27.381 27.381 0 0 0 -13.758-.004z" fill="#323c6b"/><path d="m41 25.266a.5.5 0 0 1 -.5-.5v-3a.5.5 0 0 1 1 0v3a.5.5 0 0 1 -.5.5z" fill="#323c6b"/><path d="m41 32.766a.5.5 0 0 1 -.5-.5v-3a.5.5 0 0 1 1 0v3a.5.5 0 0 1 -.5.5z" fill="#323c6b"/><path d="m41 40.266a.5.5 0 0 1 -.5-.5v-3a.5.5 0 0 1 1 0v3a.5.5 0 0 1 -.5.5z" fill="#323c6b"/><path d="m27.228 67.909a.694.694 0 0 1 -.694.694h-.021a.694.694 0 0 1 0-1.389h.021a.694.694 0 0 1 .694.695z" fill="#f9f9f9"/><path d="m24.864 67.909a.694.694 0 0 1 -.694.694h-3.883a.694.694 0 0 1 -.694-.694l.739-5.932a.694.694 0 0 1 1.389 0l-.739 5.237h3.188a.694.694 0 0 1 .694.695z" fill="#f9f9f9"/></svg>