<svg id="line_color" height="512" viewBox="0 0 74 74" width="512" xmlns="http://www.w3.org/2000/svg" data-name="line color"><path d="m43.46 18.41c0 3.58-9.06 6.49-20.23 6.49s-20.23-2.91-20.23-6.49 9.05-6.48 20.23-6.48 20.23 2.89 20.23 6.48z" fill="#d0cfd1"/><g fill="#323c6b"><path d="m23.23 25.4c-11.625 0-20.73-3.07-20.73-6.99 0-4.369 10.54-6.98 20.73-6.98s20.73 2.611 20.73 6.98c0 3.92-9.106 6.99-20.73 6.99zm0-12.97c-11.8 0-19.73 3.092-19.73 5.98s7.928 5.99 19.73 5.99 19.73-3.1 19.73-5.99-7.928-5.98-19.73-5.98z"/><path d="m14.521 64.98a.5.5 0 0 1 -.071 0 33.9 33.9 0 0 1 -9.14-2.449.5.5 0 1 1 .414-.91 32.926 32.926 0 0 0 8.866 2.369.5.5 0 0 1 -.069 1z"/><path d="m18.06 65.369h-.04l-.615-.052a.5.5 0 0 1 -.454-.542.509.509 0 0 1 .542-.454l.605.051a.5.5 0 0 1 -.038 1z"/></g><path d="m43.46 18.41v37.16c0 3.6-9.06 6.5-20.23 6.5s-20.23-2.9-20.23-6.5v-37.16c0 3.58 9.05 6.49 20.23 6.49s20.23-2.91 20.23-6.49z" fill="#eeefee"/><path d="m23.23 62.57c-11.625 0-20.73-3.075-20.73-7v-37.16a.5.5 0 0 1 1 0c0 2.893 7.928 5.99 19.73 5.99s19.73-3.1 19.73-5.99a.5.5 0 0 1 1 0v37.16c0 4.382-10.54 7-20.73 7zm-19.73-41.97v34.97c0 2.9 7.928 6 19.73 6s19.729-3.1 19.729-6v-34.97c-2.667 2.814-10.385 4.8-19.729 4.8s-17.063-1.985-19.73-4.8z" fill="#323c6b"/><path d="m29.637 18.42c0 1.05-2.868 1.9-6.41 1.9s-6.41-.849-6.41-1.9 2.868-1.907 6.41-1.907 6.41.85 6.41 1.907z" fill="#fff"/><path d="m23.228 20.819c-3.328 0-6.91-.75-6.91-2.4s3.582-2.407 6.91-2.407 6.909.753 6.909 2.407-3.581 2.4-6.909 2.4zm0-3.806c-3.9 0-5.91.986-5.91 1.407s2.011 1.4 5.91 1.4 5.909-.98 5.909-1.4-2.011-1.407-5.909-1.407z" fill="#323c6b"/><path d="m63.667 9.43h-.584a.5.5 0 0 1 0-1h.584a.5.5 0 0 1 0 1z" fill="#323c6b"/><path d="m60 9.43h-10.58a.5.5 0 0 1 0-1h10.58a.5.5 0 0 1 0 1z" fill="#323c6b"/><path d="m71 22.46-2.33 5.26 2.33 5.27-2.33 5.26 2.33 5.27-2.33 5.27 2.33 5.27h-27.54v-35.65c0-3.59-9.06-6.48-20.23-6.48h47.77l-2.33 5.26z" fill="#dbd8dd"/><path d="m71 54.56h-27.54a.5.5 0 0 1 -.5-.5v-35.65c0-2.888-7.928-5.98-19.729-5.98a.5.5 0 0 1 0-1h47.769a.5.5 0 0 1 .457.7l-2.24 5.057 2.24 5.068a.5.5 0 0 1 0 .4l-2.24 5.057 2.24 5.068a.5.5 0 0 1 0 .4l-2.24 5.057 2.24 5.068a.494.494 0 0 1 0 .4l-2.24 5.068 2.24 5.068a.5.5 0 0 1 -.457.7zm-27.04-1h26.272l-2.02-4.568a.494.494 0 0 1 0-.4l2.24-5.068-2.24-5.068a.5.5 0 0 1 0-.4l2.24-5.057-2.24-5.068a.5.5 0 0 1 0-.4l2.24-5.057-2.24-5.068a.5.5 0 0 1 0-.4l2.019-4.557h-36.243c5.717 1.138 9.972 3.2 9.972 5.98z" fill="#323c6b"/><path d="m6.5 42.206v-10.406a.813.813 0 0 1 .809-.819.82.82 0 0 1 .823.813v10.406a.787.787 0 0 1 -.778.819.847.847 0 0 1 -.854-.813z" fill="#fff"/><path d="m6.5 28.354v-.437a.8.8 0 0 1 .8-.819.83.83 0 0 1 .836.813v.437a.829.829 0 0 1 -.828.819.8.8 0 0 1 -.808-.813z" fill="#fff"/></svg>