<svg id="line_color" height="512" viewBox="0 0 74 74" width="512" xmlns="http://www.w3.org/2000/svg" data-name="line color"><path d="m11.075 40.665c-1.177 0-2.336 0-2.894-.025h-.18a6.859 6.859 0 0 1 -2-.25 4.956 4.956 0 0 1 -3.437-4.325 4.978 4.978 0 0 1 2.47-5.3c11.182-4.837 12.566-4.892 13.213-4.465a.926.926 0 0 1 .373.854v.025c.694.041 3.384-.747 12.132-4.524a9.927 9.927 0 0 1 2.267-.614 10.641 10.641 0 0 1 1.891-.141.5.5 0 0 1 0 1 9.73 9.73 0 0 0 -1.723.122 8.971 8.971 0 0 0 -2.055.553c-11.109 4.8-12.492 4.854-13.14 4.428a.926.926 0 0 1 -.373-.854v-.025c-.709-.057-3.383.747-12.132 4.524a3.977 3.977 0 0 0 -1.934 4.273 3.965 3.965 0 0 0 2.763 3.513 6.14 6.14 0 0 0 1.711.2h.187c.865.033 3.241.027 4.813.022h.991a.5.5 0 0 1 0 1h-.988c-.58.008-1.27.009-1.955.009zm48.905-.065a.5.5 0 0 1 0-1h7c2.753-.354 3.622-3.031 3.511-5.215-.07-1.331-.79-2.332-2.335-3.245-8.513-3.633-11.143-4.41-11.826-4.34v.031a.931.931 0 0 1 -.374.857c-.648.429-2.014.38-12.9-4.272a13.774 13.774 0 0 0 -3.823-.52.5.5 0 0 1 0-1c.032 0 3.344.077 4.274.63 8.522 3.637 11.165 4.406 11.825 4.336v-.031a.931.931 0 0 1 .374-.857c.646-.43 2.013-.38 12.9 4.272a5.029 5.029 0 0 1 2.883 4.084c.176 3.438-1.569 5.9-4.445 6.262z" fill="#323c6b"/><path d="m48.014 9.7a.5.5 0 0 1 -.483-.371c-.023-.089-.049-.177-.076-.265a.5.5 0 0 1 .955-.3c.031.1.061.2.088.3a.5.5 0 0 1 -.354.612.493.493 0 0 1 -.13.024zm-1-2.469a.5.5 0 0 1 -.438-.259 10.915 10.915 0 0 0 -5.246-4.75.5.5 0 1 1 .393-.919 11.918 11.918 0 0 1 5.729 5.188.5.5 0 0 1 -.438.741z" fill="#323c6b"/><path d="m39.67 19.98c-.15.05-.29.1-.44.16v2.26h-4.32v-3.66a2.192 2.192 0 0 1 2.33-2.49 4.061 4.061 0 1 0 -4.24-4.31c-.11 1.51-.89 2.38-2.16 2.39a2.008 2.008 0 0 1 -2.13-2.14 8.21 8.21 0 0 1 8.56-8.34 8.364 8.364 0 0 1 8.06 7.14 8.42 8.42 0 0 1 -5.66 8.99z" fill="#dbd8dd"/><path d="m39.23 22.9h-4.32a.5.5 0 0 1 -.5-.5v-3.66a2.678 2.678 0 0 1 2.8-2.989 3.553 3.553 0 0 0 3.376-3.09 3.51 3.51 0 0 0 -2.651-3.918 3.466 3.466 0 0 0 -2.921.523 3.628 3.628 0 0 0 -1.514 2.711c-.13 1.774-1.122 2.841-2.655 2.854a2.547 2.547 0 0 1 -1.892-.719 2.7 2.7 0 0 1 -.743-1.912 8.588 8.588 0 0 1 2.554-6.309 8.925 8.925 0 0 1 15.061 5.028 8.876 8.876 0 0 1 -6 9.537l-.1.033v1.911a.5.5 0 0 1 -.495.5zm-3.82-1h3.32v-1.76a.5.5 0 0 1 .313-.464c.159-.064.308-.118.468-.17a7.969 7.969 0 0 0 5.324-8.442 7.865 7.865 0 0 0 -7.58-6.714 7.783 7.783 0 0 0 -5.787 2.25 7.6 7.6 0 0 0 -2.258 5.582 1.731 1.731 0 0 0 .451 1.225 1.6 1.6 0 0 0 1.171.424c1.265-.01 1.605-1.053 1.669-1.927a4.63 4.63 0 0 1 1.93-3.453 4.466 4.466 0 0 1 3.76-.673 4.561 4.561 0 0 1 -.913 8.972c-1.327.092-1.867.669-1.867 1.992z" fill="#323c6b"/><path d="m14.02 58.15h45.96v7h-45.96z" fill="#f4bb87"/><path d="m59.98 65.65h-45.96a.5.5 0 0 1 -.5-.5v-7a.5.5 0 0 1 .5-.5h45.96a.5.5 0 0 1 .5.5v7a.5.5 0 0 1 -.5.5zm-45.461-1h44.961v-6h-44.96z" fill="#323c6b"/><path d="m11.02 53.333a.5.5 0 0 1 -.5-.5v-9.166a.5.5 0 0 1 1 0v9.167a.5.5 0 0 1 -.5.499z" fill="#323c6b"/><path d="m11.02 56a.5.5 0 0 1 -.5-.5v-.5a.5.5 0 0 1 1 0v.5a.5.5 0 0 1 -.5.5z" fill="#323c6b"/><path d="m59.98 38.13v20.02h-45.96v-20.02a2.006 2.006 0 0 1 2-2h41.96a2.006 2.006 0 0 1 2 2z" fill="#fed19a"/><g fill="#323c6b"><path d="m59.98 58.65h-45.96a.5.5 0 0 1 -.5-.5v-20.02a2.5 2.5 0 0 1 2.5-2.5h41.96a2.5 2.5 0 0 1 2.5 2.5v20.02a.5.5 0 0 1 -.5.5zm-45.461-1h44.961v-19.52a1.5 1.5 0 0 0 -1.5-1.5h-41.96a1.5 1.5 0 0 0 -1.5 1.5z"/><path d="m59.979 70.654a.5.5 0 0 1 -.5-.5v-5a.5.5 0 0 1 1 0v5a.5.5 0 0 1 -.5.5z"/><path d="m52.32 70.654a.5.5 0 0 1 -.5-.5v-5a.5.5 0 0 1 1 0v5a.5.5 0 0 1 -.5.5z"/><path d="m44.66 70.654a.5.5 0 0 1 -.5-.5v-5a.5.5 0 0 1 1 0v5a.5.5 0 0 1 -.5.5z"/><path d="m37 70.654a.5.5 0 0 1 -.5-.5v-5a.5.5 0 0 1 1 0v5a.5.5 0 0 1 -.5.5z"/><path d="m29.34 70.654a.5.5 0 0 1 -.5-.5v-5a.5.5 0 0 1 1 0v5a.5.5 0 0 1 -.5.5z"/><path d="m21.68 70.654a.5.5 0 0 1 -.5-.5v-5a.5.5 0 0 1 1 0v5a.5.5 0 0 1 -.5.5z"/><path d="m14.021 70.654a.5.5 0 0 1 -.5-.5v-5a.5.5 0 0 1 1 0v5a.5.5 0 0 1 -.5.5z"/></g><path d="m55.931 54.437v-10.4a.813.813 0 0 1 .809-.819.82.82 0 0 1 .823.813v10.4a.787.787 0 0 1 -.778.819.847.847 0 0 1 -.854-.813z" fill="#fff"/><path d="m55.931 40.585v-.437a.8.8 0 0 1 .8-.819.83.83 0 0 1 .836.813v.437a.829.829 0 0 1 -.828.819.8.8 0 0 1 -.808-.813z" fill="#fff"/></svg>