<svg id="line_color" height="512" viewBox="0 0 74 74" width="512" xmlns="http://www.w3.org/2000/svg" data-name="line color"><path d="m63.64 25.83-.01.17h-14.59v-4.26a5.564 5.564 0 0 1 .28-1.74h14.31a4.265 4.265 0 0 0 -1.15 2.91 4.2 4.2 0 0 0 1.16 2.92z" fill="#eeefee"/><path d="m63.63 26.5h-14.59a.5.5 0 0 1 -.5-.5v-4.26a6.09 6.09 0 0 1 .3-1.9.5.5 0 0 1 .475-.345h14.315a.5.5 0 0 1 .365.841 3.75 3.75 0 0 0 -1.015 2.574 3.69 3.69 0 0 0 1.02 2.574.5.5 0 0 1 .138.376l-.01.17a.5.5 0 0 1 -.498.47zm-14.09-1h13.2a4.772 4.772 0 0 1 -.106-5h-12.934a5.065 5.065 0 0 0 -.155 1.24z" fill="#323c6b"/><path d="m16.1 20a4.716 4.716 0 0 0 -.1 1v5h-5.63l-.01-.17a4.2 4.2 0 0 0 1.16-2.92 4.265 4.265 0 0 0 -1.15-2.91z" fill="#eeefee"/><path d="m16 26.5h-5.63a.5.5 0 0 1 -.5-.47l-.01-.17a.5.5 0 0 1 .14-.376 3.69 3.69 0 0 0 1.02-2.574 3.75 3.75 0 0 0 -1.02-2.569.5.5 0 0 1 .365-.841h5.735a.5.5 0 0 1 .488.606 4.228 4.228 0 0 0 -.088.894v5a.5.5 0 0 1 -.5.5zm-4.742-1h4.242v-4.5c0-.171.007-.338.021-.5h-4.156a4.772 4.772 0 0 1 -.106 5z" fill="#323c6b"/><path d="m11.52 22.91a4.263 4.263 0 0 1 -4.26 4.26 4.259 4.259 0 1 1 4.26-4.26z" fill="#dbd8dd"/><path d="m7.26 27.67a4.759 4.759 0 1 1 4.76-4.76 4.763 4.763 0 0 1 -4.76 4.76zm0-8.51a3.755 3.755 0 1 0 0 7.51 3.759 3.759 0 0 0 2.74-6.329 3.762 3.762 0 0 0 -2.74-1.181z" fill="#323c6b"/><path d="m72.075 18.5a.5.5 0 0 1 -.367-.16c-.092-.1-.187-.2-.284-.29a.5.5 0 1 1 .691-.722q.168.161.326.332a.5.5 0 0 1 -.367.84z" fill="#323c6b"/><path d="m70.3 17.091a.493.493 0 0 1 -.245-.064 6.879 6.879 0 0 0 -4.943-.67.5.5 0 1 1 -.239-.971 7.88 7.88 0 0 1 5.672.77.5.5 0 0 1 -.246.936z" fill="#323c6b"/><path d="m71 22.91a4.259 4.259 0 0 1 -7.36 2.92 4.2 4.2 0 0 1 -1.16-2.92 4.26 4.26 0 0 1 8.52 0z" fill="#dbd8dd"/><path d="m66.74 27.67a4.759 4.759 0 0 1 -3.476-8.011 4.76 4.76 0 1 1 3.476 8.011zm0-8.51a3.745 3.745 0 0 0 -3.76 3.75 3.763 3.763 0 0 0 3.76 3.76 3.755 3.755 0 1 0 0-7.51z" fill="#323c6b"/><path d="m66.74 18.66a4.148 4.148 0 0 0 -3.828 2.422 4.233 4.233 0 0 1 5.661 5.659 4.245 4.245 0 0 0 -1.833-8.081z" fill="#bbbbcd"/><path d="m66.74 27.67a4.759 4.759 0 0 1 -3.476-8.011 4.76 4.76 0 1 1 3.476 8.011zm0-8.51a3.745 3.745 0 0 0 -3.76 3.75 3.763 3.763 0 0 0 3.76 3.76 3.755 3.755 0 1 0 0-7.51z" fill="#323c6b"/><path d="m49.01 50-.01 8h-33v-8z" fill="#f4bb87"/><path d="m49 58.5h-33a.5.5 0 0 1 -.5-.5v-8a.5.5 0 0 1 .5-.5h33.01a.5.5 0 0 1 .5.5l-.01 8a.5.5 0 0 1 -.5.5zm-32.5-1h32l.009-7h-32.009z" fill="#323c6b"/><path d="m46.01 50-.01 8h3l.01-8z" fill="#e6b17d"/><path d="m60.08 19.51v.49h-10.76a4.084 4.084 0 0 1 .18-.49 5.793 5.793 0 0 1 1.23-1.82 5.734 5.734 0 0 1 9.35 1.82z" fill="#f4bb87"/><path d="m60.08 20.5h-10.76a.5.5 0 0 1 -.479-.642 4.639 4.639 0 0 1 .2-.548 6.249 6.249 0 0 1 1.335-1.974 6.234 6.234 0 0 1 10.165 1.98.5.5 0 0 1 .039.193v.491a.5.5 0 0 1 -.5.5zm-10.027-1h9.477a5.25 5.25 0 0 0 -9.477 0z" fill="#323c6b"/><path d="m54.79 16a5.693 5.693 0 0 0 -3.248 1.013c.083 0 .165-.013.248-.013a5.724 5.724 0 0 1 5.031 3h3.259v-.49a5.733 5.733 0 0 0 -5.29-3.51z" fill="#e6b17d"/><path d="m13 43.875a.5.5 0 0 1 -.5-.5v-11a.5.5 0 0 1 1 0v11a.5.5 0 0 1 -.5.5z" fill="#323c6b"/><path d="m13 47.813a.5.5 0 0 1 -.5-.5v-.687a.5.5 0 0 1 1 0v.688a.5.5 0 0 1 -.5.499z" fill="#323c6b"/><path d="m54.79 16a5.7 5.7 0 0 0 -4.06 1.69 5.793 5.793 0 0 0 -1.23 1.82 4.084 4.084 0 0 0 -.18.49 5.564 5.564 0 0 0 -.28 1.74v4.26l-.02 16-.01 8h-33.01v-29a4.716 4.716 0 0 1 .1-1 5 5 0 0 1 4.9-4z" fill="#fed19a"/><path d="m49.01 50.5h-33.01a.5.5 0 0 1 -.5-.5v-29a5.2 5.2 0 0 1 .112-1.106 5.507 5.507 0 0 1 5.388-4.394h33.79a.5.5 0 0 1 0 1 5.177 5.177 0 0 0 -3.705 1.542 5.264 5.264 0 0 0 -1.125 1.664 3.772 3.772 0 0 0 -.161.436 5.126 5.126 0 0 0 -.259 1.6l-.03 28.258a.5.5 0 0 1 -.5.5zm-32.51-1h32.01l.03-27.76a6.09 6.09 0 0 1 .3-1.9 4.5 4.5 0 0 1 .2-.535 6.386 6.386 0 0 1 2.36-2.805h-30.4a4.507 4.507 0 0 0 -4.41 3.6 4.224 4.224 0 0 0 -.09.9z" fill="#323c6b"/><path d="m51.79 16a5.7 5.7 0 0 0 -4.06 1.69 5.793 5.793 0 0 0 -1.23 1.82 4.084 4.084 0 0 0 -.18.49 5.564 5.564 0 0 0 -.28 1.74v4.26l-.02 16-.01 8h3l.01-8 .02-16v-4.26a5.564 5.564 0 0 1 .28-1.74 4.084 4.084 0 0 1 .18-.49 5.793 5.793 0 0 1 1.23-1.82 5.7 5.7 0 0 1 4.06-1.69z" fill="#f4bb87"/><path d="m61 26v16h-11.98l.02-16z" fill="#f4bb87"/><path d="m61 42.5h-11.98a.5.5 0 0 1 -.5-.5l.02-16a.5.5 0 0 1 .5-.5h11.96a.5.5 0 0 1 .5.5v16a.5.5 0 0 1 -.5.5zm-11.479-1h10.979v-15h-10.96z" fill="#323c6b"/><path d="m58 26h3v16h-3z" fill="#e6b17d"/><g fill="#323c6b"><path d="m61 42.5h-11.98a.5.5 0 0 1 -.5-.5l.02-16a.5.5 0 0 1 .5-.5h11.96a.5.5 0 0 1 .5.5v16a.5.5 0 0 1 -.5.5zm-11.479-1h10.979v-15h-10.96z"/><path d="m60.08 20.5h-10.76a.5.5 0 0 1 -.479-.642 4.639 4.639 0 0 1 .2-.548 6.249 6.249 0 0 1 1.335-1.974 6.234 6.234 0 0 1 10.165 1.98.5.5 0 0 1 .039.193v.491a.5.5 0 0 1 -.5.5zm-10.027-1h9.477a5.25 5.25 0 0 0 -9.477 0z"/><path d="m49.01 50.5h-33.01a.5.5 0 0 1 -.5-.5v-29a5.2 5.2 0 0 1 .112-1.106 5.507 5.507 0 0 1 5.388-4.394h33.79a.5.5 0 0 1 0 1 5.177 5.177 0 0 0 -3.705 1.542 5.264 5.264 0 0 0 -1.125 1.664 3.772 3.772 0 0 0 -.161.436 5.126 5.126 0 0 0 -.259 1.6l-.03 28.258a.5.5 0 0 1 -.5.5zm-32.51-1h32.01l.03-27.76a6.09 6.09 0 0 1 .3-1.9 4.5 4.5 0 0 1 .2-.535 6.386 6.386 0 0 1 2.36-2.805h-30.4a4.507 4.507 0 0 0 -4.41 3.6 4.224 4.224 0 0 0 -.09.9z"/><path d="m49 58.5h-33a.5.5 0 0 1 -.5-.5v-8a.5.5 0 0 1 .5-.5h33.01a.5.5 0 0 1 .5.5l-.01 8a.5.5 0 0 1 -.5.5zm-32.5-1h32l.009-7h-32.009z"/><path d="m49.02 50.5h-.01v-1z"/></g><path d="m33.44 55.632h-10.4a.813.813 0 0 1 -.819-.809.82.82 0 0 1 .808-.823h10.4a.787.787 0 0 1 .819.778.847.847 0 0 1 -.808.854z" fill="#fff"/><path d="m19.588 55.632h-.437a.8.8 0 0 1 -.819-.8.83.83 0 0 1 .813-.832h.437a.829.829 0 0 1 .819.828.8.8 0 0 1 -.813.804z" fill="#fff"/></svg>