<svg id="line_color" height="512" viewBox="0 0 74 74" width="512" xmlns="http://www.w3.org/2000/svg" data-name="line color"><path d="m59.93 43.24v1.66a3.958 3.958 0 0 1 -3.95 3.95h-37.95a3.952 3.952 0 0 1 -3.95-3.95v-1.66a2.807 2.807 0 0 1 .01-.29 3.952 3.952 0 0 1 3.94-3.66h37.95a3.954 3.954 0 0 1 3.94 3.68 2.435 2.435 0 0 1 .01.27z" fill="#eeefee"/><path d="m55.98 49.35h-37.95a4.456 4.456 0 0 1 -4.45-4.45v-1.66c0-.117 0-.223.012-.339a4.464 4.464 0 0 1 4.438-4.111h37.95a4.461 4.461 0 0 1 4.439 4.146 2.778 2.778 0 0 1 .011.3v1.664a4.456 4.456 0 0 1 -4.45 4.45zm-37.95-9.56a3.464 3.464 0 0 0 -3.442 3.2 2.414 2.414 0 0 0 -.008.253v1.657a3.454 3.454 0 0 0 3.45 3.45h37.95a3.454 3.454 0 0 0 3.45-3.45v-1.66a1.969 1.969 0 0 0 -.007-.214 3.464 3.464 0 0 0 -3.443-3.236z" fill="#323c6b"/><path d="m59.92 42.97a3.954 3.954 0 0 0 -3.94-3.68h-3a3.954 3.954 0 0 1 3.94 3.68 2.435 2.435 0 0 1 .01.27v1.66a3.958 3.958 0 0 1 -3.95 3.95h3a3.958 3.958 0 0 0 3.95-3.95v-1.66a2.435 2.435 0 0 0 -.01-.27z" fill="#dbd8dd"/><path d="m7.04 15.938a.5.5 0 0 1 -.5-.5v-3.388a8.388 8.388 0 0 1 3.188-6.594.5.5 0 0 1 .623.782 7.394 7.394 0 0 0 -2.811 5.812v3.388a.5.5 0 0 1 -.5.5z" fill="#323c6b"/><path d="m7.04 19.938a.5.5 0 0 1 -.5-.5v-.625a.5.5 0 0 1 1 0v.625a.5.5 0 0 1 -.5.5z" fill="#323c6b"/><path d="m18.66 25.2a25.145 25.145 0 0 0 4.16 14.09h-4.79a3.952 3.952 0 0 0 -3.94 3.66 4.985 4.985 0 0 1 -4.05-4.86v-26.04a4.936 4.936 0 0 1 4.94-4.93h11.39c-4.67 4.02-7.71 10.62-7.71 18.08z" fill="#dbd8dd"/><path d="m14.547 43.545-.55-.1a5.46 5.46 0 0 1 -4.457-5.355v-26.04a5.441 5.441 0 0 1 5.44-5.43h12.737l-1.017.88c-4.719 4.062-7.536 10.68-7.536 17.7a24.724 24.724 0 0 0 4.073 13.809l.532.781h-5.739a3.464 3.464 0 0 0 -3.442 3.2zm.433-35.925a4.44 4.44 0 0 0 -4.44 4.43v26.04a4.455 4.455 0 0 0 3.133 4.242 4.472 4.472 0 0 1 4.357-3.542h3.87a25.954 25.954 0 0 1 -3.74-13.59 24.785 24.785 0 0 1 6.929-17.58z" fill="#323c6b"/><path d="m63.96 12.05v26.04a4.971 4.971 0 0 1 -4.04 4.88 3.954 3.954 0 0 0 -3.94-3.68h-4.8a25 25 0 0 0 4.17-14.09c0-7.46-3.04-14.06-7.71-18.08h11.39a4.927 4.927 0 0 1 4.93 4.93z" fill="#dbd8dd"/><path d="m59.459 43.563-.038-.563a3.457 3.457 0 0 0 -3.441-3.21h-5.748l.535-.782a24.634 24.634 0 0 0 4.083-13.808c0-7.021-2.817-13.639-7.536-17.7l-1.021-.88h12.737a5.436 5.436 0 0 1 5.43 5.43v26.04a5.447 5.447 0 0 1 -4.45 5.372zm-7.359-4.773h3.88a4.464 4.464 0 0 1 4.36 3.563 4.454 4.454 0 0 0 3.12-4.263v-26.04a4.435 4.435 0 0 0 -4.43-4.43h-10.109a24.785 24.785 0 0 1 6.929 17.58 25.872 25.872 0 0 1 -3.75 13.59z" fill="#323c6b"/><path d="m59.03 7.12h-3a4.927 4.927 0 0 1 4.93 4.93v26.04a4.949 4.949 0 0 1 -1.417 3.449 3.921 3.921 0 0 1 .377 1.431 4.971 4.971 0 0 0 4.04-4.88v-26.04a4.927 4.927 0 0 0 -4.93-4.93z" fill="#bbbbcd"/><path d="m55.35 25.2a25 25 0 0 1 -4.17 14.09h-9.8c4.12-2.34 7.06-7.82 7.06-14.03 0-8.27-5.23-15.25-11.44-15.25s-11.43 6.98-11.43 15.25c0 6.21 2.94 11.69 7.06 14.03h-9.81a25.145 25.145 0 0 1 -4.16-14.09c0-7.46 3.04-14.06 7.71-18.08a15.786 15.786 0 0 1 21.27 0c4.67 4.02 7.71 10.62 7.71 18.08z" fill="#eeefee"/><path d="m51.444 39.79h-11.957l1.646-.935c4.072-2.312 6.807-7.776 6.807-13.6 0-8-5.01-14.75-10.94-14.75s-10.93 6.76-10.93 14.755c0 5.82 2.735 11.283 6.807 13.6l1.646.935h-11.968l-.149-.219a25.734 25.734 0 0 1 -4.246-14.376c0-7.309 2.947-14.209 7.884-18.459a16.285 16.285 0 0 1 21.924 0c4.932 4.25 7.882 11.15 7.882 18.459a25.64 25.64 0 0 1 -4.257 14.372zm-8.43-1h7.9a24.7 24.7 0 0 0 3.936-13.59c0-7.021-2.817-13.639-7.536-17.7a15.286 15.286 0 0 0 -20.614 0c-4.72 4.063-7.538 10.681-7.538 17.7a24.79 24.79 0 0 0 3.926 13.59h7.912c-3.6-2.83-5.926-8.04-5.926-13.53 0-8.538 5.463-15.75 11.93-15.75s11.94 7.212 11.94 15.75c-.004 5.49-2.333 10.7-5.93 13.53z" fill="#323c6b"/><path d="m25.57 25.26c0-6.343 3.081-11.914 7.313-14.172-5.7.777-10.313 7.4-10.313 15.172 0 5.448 2.263 10.333 5.6 13.03h4.46c-4.12-2.34-7.06-7.82-7.06-14.03z" fill="#dbd8dd"/><path d="m47.64 7.12a16.159 16.159 0 0 0 -10.64-4.12 15.449 15.449 0 0 0 -6.341 1.383 15.29 15.29 0 0 1 3.341-.383 16.159 16.159 0 0 1 10.64 4.12c4.67 4.02 7.71 10.62 7.71 18.08a25.229 25.229 0 0 1 -3.543 13.09h2.373a25 25 0 0 0 4.17-14.09c0-7.46-3.04-14.06-7.71-18.08z" fill="#dbd8dd"/><path d="m48.44 25.26c0 6.21-2.94 11.69-7.06 14.03h-8.75c-4.12-2.34-7.06-7.82-7.06-14.03 0-8.27 5.23-15.25 11.43-15.25s11.44 6.98 11.44 15.25z" fill="#dbd8dd"/><path d="m41.512 39.79h-9.012l-.115-.065c-4.374-2.484-7.313-8.3-7.313-14.465 0-8.538 5.463-15.75 11.93-15.75s11.94 7.212 11.94 15.75c0 6.168-2.939 11.981-7.313 14.465zm-8.748-1h8.482c4.009-2.349 6.694-7.765 6.694-13.53 0-8-5.01-14.75-10.94-14.75s-10.93 6.755-10.93 14.75c0 5.765 2.685 11.181 6.694 13.53z" fill="#323c6b"/><path d="m53.779 63.466a.5.5 0 0 1 -.357-.85l.119-.123a.5.5 0 0 1 .724.69l-.127.132a.5.5 0 0 1 -.359.151z" fill="#323c6b"/><path d="m55.526 61.34a.5.5 0 0 1 -.412-.783 15.64 15.64 0 0 0 2.64-7.123.5.5 0 0 1 .994.109 16.649 16.649 0 0 1 -2.81 7.58.5.5 0 0 1 -.412.217z" fill="#323c6b"/><path d="m46.43 67.537 5.337 2.824a.34.34 0 0 1 -.155.64h-29.212a.34.34 0 0 1 -.155-.64l5.346-2.824a1.834 1.834 0 0 0 -.027-3.253l-1.709-.868a13.142 13.142 0 0 1 -7.195-11.725v-2.842h36.689v2.842a13.142 13.142 0 0 1 -7.192 11.724l-1.709.868a1.834 1.834 0 0 0 -.018 3.254z" fill="#dbd8dd"/><path d="m51.612 71.5h-29.212a.84.84 0 0 1 -.389-1.582l5.346-2.824a1.334 1.334 0 0 0 -.021-2.366l-1.708-.868a13.58 13.58 0 0 1 -7.465-12.17v-3.341h37.686v3.342a13.578 13.578 0 0 1 -7.465 12.17l-1.708.868a1.333 1.333 0 0 0 -.011 2.365l5.335 2.824a.84.84 0 0 1 -.389 1.582zm-28.563-1h27.913l-4.762-2.521a2.334 2.334 0 0 1 .023-4.14l1.711-.869a12.584 12.584 0 0 0 6.918-11.278v-2.343h-35.692v2.342a12.584 12.584 0 0 0 6.918 11.279l1.709.868a2.334 2.334 0 0 1 .036 4.14z" fill="#323c6b"/><path d="m46.449 64.284 1.709-.868a13.142 13.142 0 0 0 7.192-11.724v-2.843h-3v2.842a13.142 13.142 0 0 1 -7.192 11.724l-1.709.868a1.834 1.834 0 0 0 -.018 3.253l5.337 2.824a.34.34 0 0 1 -.155.64h3a.34.34 0 0 0 .155-.64l-5.338-2.823a1.834 1.834 0 0 1 .019-3.253z" fill="#bbbbcd"/><g fill="#323c6b"><path d="m59.459 43.563-.038-.563a3.457 3.457 0 0 0 -3.441-3.21h-5.748l.535-.782a24.634 24.634 0 0 0 4.083-13.808c0-7.021-2.817-13.639-7.536-17.7l-1.021-.88h12.737a5.436 5.436 0 0 1 5.43 5.43v26.04a5.447 5.447 0 0 1 -4.45 5.372zm-7.359-4.773h3.88a4.464 4.464 0 0 1 4.36 3.563 4.454 4.454 0 0 0 3.12-4.263v-26.04a4.435 4.435 0 0 0 -4.43-4.43h-10.109a24.785 24.785 0 0 1 6.929 17.58 25.872 25.872 0 0 1 -3.75 13.59z"/><path d="m55.98 49.35h-37.95a4.456 4.456 0 0 1 -4.45-4.45v-1.66c0-.117 0-.223.012-.339a4.464 4.464 0 0 1 4.438-4.111h37.95a4.461 4.461 0 0 1 4.439 4.146 2.778 2.778 0 0 1 .011.3v1.664a4.456 4.456 0 0 1 -4.45 4.45zm-37.95-9.56a3.464 3.464 0 0 0 -3.442 3.2 2.414 2.414 0 0 0 -.008.253v1.657a3.454 3.454 0 0 0 3.45 3.45h37.95a3.454 3.454 0 0 0 3.45-3.45v-1.66a1.969 1.969 0 0 0 -.007-.214 3.464 3.464 0 0 0 -3.443-3.236z"/><path d="m51.612 71.5h-29.212a.84.84 0 0 1 -.389-1.582l5.346-2.824a1.334 1.334 0 0 0 -.021-2.366l-1.708-.868a13.58 13.58 0 0 1 -7.465-12.17v-3.341h37.686v3.342a13.578 13.578 0 0 1 -7.465 12.17l-1.708.868a1.333 1.333 0 0 0 -.011 2.365l5.335 2.824a.84.84 0 0 1 -.389 1.582zm-28.563-1h27.913l-4.762-2.521a2.334 2.334 0 0 1 .023-4.14l1.711-.869a12.584 12.584 0 0 0 6.918-11.278v-2.343h-35.692v2.342a12.584 12.584 0 0 0 6.918 11.279l1.709.868a2.334 2.334 0 0 1 .036 4.14z"/><path d="m51.444 39.79h-11.957l1.646-.935c4.072-2.312 6.807-7.776 6.807-13.6 0-8-5.01-14.75-10.94-14.75s-10.93 6.76-10.93 14.755c0 5.82 2.735 11.283 6.807 13.6l1.646.935h-11.968l-.149-.219a25.734 25.734 0 0 1 -4.246-14.376c0-7.309 2.947-14.209 7.884-18.459a16.285 16.285 0 0 1 21.924 0c4.932 4.25 7.882 11.15 7.882 18.459a25.64 25.64 0 0 1 -4.257 14.372zm-8.43-1h7.9a24.7 24.7 0 0 0 3.936-13.59c0-7.021-2.817-13.639-7.536-17.7a15.286 15.286 0 0 0 -20.614 0c-4.72 4.063-7.538 10.681-7.538 17.7a24.79 24.79 0 0 0 3.926 13.59h7.912c-3.6-2.83-5.926-8.04-5.926-13.53 0-8.538 5.463-15.75 11.93-15.75s11.94 7.212 11.94 15.75c-.004 5.49-2.333 10.7-5.93 13.53z"/></g><path d="m12.118 36.187v-10.4a.813.813 0 0 1 .809-.819.82.82 0 0 1 .823.813v10.4a.787.787 0 0 1 -.778.819.847.847 0 0 1 -.854-.813z" fill="#fff"/><path d="m12.118 22.335v-.435a.8.8 0 0 1 .8-.819.83.83 0 0 1 .836.813v.437a.829.829 0 0 1 -.828.819.8.8 0 0 1 -.808-.815z" fill="#fff"/></svg>