<svg id="line_color" height="512" viewBox="0 0 74 74" width="512" xmlns="http://www.w3.org/2000/svg" data-name="line color"><path d="m63.35 22.167a.5.5 0 0 1 -.451-.283l-.217-.452a.5.5 0 0 1 .9-.435l.218.454a.5.5 0 0 1 -.45.716z" fill="#323c6b"/><path d="m61.823 19.091a.5.5 0 0 1 -.445-.271c-2.4-4.669-5.081-9.212-6.909-12.2a.5.5 0 0 1 .854-.521c1.836 3 4.532 7.569 6.945 12.266a.5.5 0 0 1 -.444.729z" fill="#323c6b"/><path d="m64.711 35.212a15.477 15.477 0 0 1 -30.954 0c0-8.544 15.477-32.212 15.477-32.212s15.477 23.668 15.477 32.212z" fill="#b6d2dd"/><path d="m49.234 51.16a15.98 15.98 0 0 1 -15.977-15.948c0-8.594 14.923-31.514 15.558-32.485a.518.518 0 0 1 .837 0c.635.971 15.559 23.891 15.559 32.485a15.981 15.981 0 0 1 -15.977 15.948zm0-47.237c-2.467 3.855-14.977 23.771-14.977 31.289a14.977 14.977 0 0 0 29.954 0c0-7.518-12.511-27.434-14.977-31.289z" fill="#323c6b"/><path d="m49.234 3s-.576.881-1.5 2.355c3.883 6.193 13.977 22.955 13.977 29.857a15.452 15.452 0 0 1 -13.977 15.372c.494.047.994.076 1.5.076a15.457 15.457 0 0 0 15.477-15.448c0-8.544-15.477-32.212-15.477-32.212z" fill="#acc6cc"/><g fill="#323c6b"><path d="m51.347 46.063a.5.5 0 0 1 -.1-.99c.2-.042.405-.089.6-.142a.5.5 0 1 1 .258.966q-.328.087-.663.155a.5.5 0 0 1 -.095.011z"/><path d="m54.9 44.635a.5.5 0 0 1 -.268-.922 10.062 10.062 0 0 0 4.593-7.055.491.491 0 0 1 .566-.423.5.5 0 0 1 .423.566 11.058 11.058 0 0 1 -5.047 7.756.5.5 0 0 1 -.267.078z"/><path d="m24.365 70.434a.5.5 0 0 1 -.4-.193 10.876 10.876 0 0 1 -2.311-6.741 10.166 10.166 0 0 1 .429-2.657.5.5 0 0 1 .963.269 9.2 9.2 0 0 0 -.392 2.389 9.886 9.886 0 0 0 2.1 6.127.5.5 0 0 1 -.394.807z"/><path d="m26.168 72.248a.5.5 0 0 1 -.309-.107l-.264-.214a.5.5 0 1 1 .641-.768l.241.2a.5.5 0 0 1 -.31.893z"/></g><path d="m40.183 63.5a7.515 7.515 0 0 1 -15.029 0c0-4.148 7.515-15.64 7.515-15.64s7.514 11.491 7.514 15.64z" fill="#b6d2dd"/><path d="m32.669 71.5a8.016 8.016 0 0 1 -8.015-8c0-4.249 7.286-15.439 7.6-15.914a.5.5 0 0 1 .418-.227.5.5 0 0 1 .418.227c.31.474 7.6 11.665 7.6 15.914a8.016 8.016 0 0 1 -8.021 8zm0-22.714c-1.569 2.477-7.015 11.314-7.015 14.714a7.014 7.014 0 0 0 14.029 0c0-3.4-5.444-12.237-7.014-14.714z" fill="#323c6b"/><path d="m32.669 47.859s-.479.733-1.2 1.895c2.223 3.687 5.71 9.919 5.71 12.745a7.505 7.505 0 0 1 -7.51 7.501 7.6 7.6 0 0 1 -.815-.046 7.508 7.508 0 0 0 11.329-6.454c0-4.149-7.514-15.641-7.514-15.641z" fill="#acc6cc"/><path d="m25.99 43.12a8.35 8.35 0 0 1 -16.7 0c0-4.61 8.35-17.38 8.35-17.38s8.35 12.77 8.35 17.38z" fill="#b6d2dd"/><path d="m17.64 51.955a8.853 8.853 0 0 1 -8.851-8.835c0-4.7 8.088-17.126 8.432-17.653a.5.5 0 0 1 .418-.227.5.5 0 0 1 .418.227c.344.526 8.432 12.948 8.432 17.653a8.853 8.853 0 0 1 -8.849 8.835zm0-25.288c-1.682 2.649-7.851 12.626-7.851 16.453a7.85 7.85 0 0 0 15.7 0c.001-3.827-6.167-13.804-7.849-16.453z" fill="#323c6b"/><path d="m17.639 25.741s-.475.727-1.194 1.888c2.455 4.044 6.545 11.265 6.545 14.491a8.3 8.3 0 0 1 -9.457 8.253 8.347 8.347 0 0 0 12.457-7.253c0-4.61-8.351-17.379-8.351-17.379z" fill="#acc6cc"/><path d="m49.234 51.16a15.98 15.98 0 0 1 -15.977-15.948c0-8.594 14.923-31.514 15.558-32.485a.518.518 0 0 1 .837 0c.635.971 15.559 23.891 15.559 32.485a15.981 15.981 0 0 1 -15.977 15.948zm0-47.237c-2.467 3.855-14.977 23.771-14.977 31.289a14.977 14.977 0 0 0 29.954 0c0-7.518-12.511-27.434-14.977-31.289z" fill="#323c6b"/><path d="m32.669 71.5a8.016 8.016 0 0 1 -8.015-8c0-4.249 7.286-15.439 7.6-15.914a.5.5 0 0 1 .418-.227.5.5 0 0 1 .418.227c.31.474 7.6 11.665 7.6 15.914a8.016 8.016 0 0 1 -8.021 8zm0-22.714c-1.569 2.477-7.015 11.314-7.015 14.714a7.014 7.014 0 0 0 14.029 0c0-3.4-5.444-12.237-7.014-14.714z" fill="#323c6b"/><path d="m17.64 51.955a8.853 8.853 0 0 1 -8.851-8.835c0-4.7 8.088-17.126 8.432-17.653a.5.5 0 0 1 .418-.227.5.5 0 0 1 .418.227c.344.526 8.432 12.948 8.432 17.653a8.853 8.853 0 0 1 -8.849 8.835zm0-25.288c-1.682 2.649-7.851 12.626-7.851 16.453a7.85 7.85 0 0 0 15.7 0c.001-3.827-6.167-13.804-7.849-16.453z" fill="#323c6b"/><path d="m37.948 31.159h-.069c-.49-.005-.909.126-.958.767-.08 1.038-.009 0-.069 1.039-.032.559.4.794.9.811a.889.889 0 0 0 .883-.9l.041-.807a.82.82 0 0 0 -.728-.91z" fill="#eeefee"/><path d="m38.281 34.824a.875.875 0 0 0 -.321-.015 1.006 1.006 0 0 0 -.866 1.008c.231 6.279 4.612 8.549 4.8 8.643a1.05 1.05 0 0 0 1.267-.022c.377-.356.547-1.118.1-1.269-.08-.027-4.163-1.948-4.371-7.587a.794.794 0 0 0 -.609-.758z" fill="#eeefee"/></svg>