<svg id="line_color" height="512" viewBox="0 0 74 74" width="512" xmlns="http://www.w3.org/2000/svg" data-name="line color"><path d="m66.65 43.74v25.44h-28.36v-30.57h23.22a5.136 5.136 0 0 1 5.14 5.13z" fill="#fed19a"/><path d="m66.65 69.68h-28.36a.5.5 0 0 1 -.5-.5v-30.57a.5.5 0 0 1 .5-.5h23.22a5.642 5.642 0 0 1 5.64 5.63v25.44a.5.5 0 0 1 -.5.5zm-27.86-1h27.36v-24.94a4.64 4.64 0 0 0 -4.64-4.63h-22.72z" fill="#323c6b"/><path d="m61.51 38.61h-23.22v2h21.22a5.136 5.136 0 0 1 5.14 5.13v23.44h2v-25.44a5.136 5.136 0 0 0 -5.14-5.13z" fill="#f4bb87"/><path d="m6.93 49.438a.5.5 0 0 1 -.5-.5v-5.2a8.641 8.641 0 0 1 1.941-5.447.5.5 0 0 1 .774.632 7.641 7.641 0 0 0 -1.715 4.817v5.2a.5.5 0 0 1 -.5.498z" fill="#323c6b"/><path d="m6.93 53.313a.5.5 0 0 1 -.5-.5v-.913a.5.5 0 0 1 1 0v.917a.5.5 0 0 1 -.5.496z" fill="#323c6b"/><path d="m38.29 38.61v30.57h-28.36v-25.44a5.134 5.134 0 0 1 5.13-5.13z" fill="#fed19a"/><path d="m38.29 69.68h-28.36a.5.5 0 0 1 -.5-.5v-25.44a5.636 5.636 0 0 1 5.63-5.63h23.23a.5.5 0 0 1 .5.5v30.57a.5.5 0 0 1 -.5.5zm-27.86-1h27.36v-29.57h-22.73a4.635 4.635 0 0 0 -4.63 4.63z" fill="#323c6b"/><path d="m15.06 38.61a5.134 5.134 0 0 0 -5.13 5.13v2a5.134 5.134 0 0 1 5.13-5.13h23.23v-2z" fill="#f4bb87"/><path d="m14.252 69.183h4.626v3.626h-4.626z" fill="#f4bb87"/><path d="m18.878 73.309h-4.626a.5.5 0 0 1 -.5-.5v-3.626a.5.5 0 0 1 .5-.5h4.626a.5.5 0 0 1 .5.5v3.626a.5.5 0 0 1 -.5.5zm-4.126-1h3.626v-2.626h-3.626z" fill="#323c6b"/><path d="m16.878 69.183h2v3.626h-2z" fill="#e6b17d"/><path d="m57.471 69.183h4.626v3.626h-4.626z" fill="#f4bb87"/><path d="m62.1 73.309h-4.629a.5.5 0 0 1 -.5-.5v-3.626a.5.5 0 0 1 .5-.5h4.629a.5.5 0 0 1 .5.5v3.626a.5.5 0 0 1 -.5.5zm-4.126-1h3.626v-2.626h-3.629z" fill="#323c6b"/><path d="m60.097 69.183h2v3.626h-2z" fill="#e6b17d"/><path d="m62.7 25.167a.5.5 0 0 1 -.5-.5v-.75a.5.5 0 1 1 1 0v.75a.5.5 0 0 1 -.5.5z" fill="#323c6b"/><path d="m62.7 21.667a.5.5 0 0 1 -.5-.5v-9.834a.5.5 0 0 1 1 0v9.833a.5.5 0 0 1 -.5.501z" fill="#323c6b"/><path d="m59.7 6.809v31.8h-43.327v-31.8a2 2 0 0 1 2-2h39.327a2 2 0 0 1 2 2z" fill="#b6d2dd"/><path d="m59.7 39.107h-43.327a.5.5 0 0 1 -.5-.5v-31.798a2.5 2.5 0 0 1 2.5-2.5h39.327a2.5 2.5 0 0 1 2.5 2.5v31.8a.5.5 0 0 1 -.5.498zm-42.829-1h42.329v-31.298a1.5 1.5 0 0 0 -1.5-1.5h-39.327a1.5 1.5 0 0 0 -1.5 1.5z" fill="#323c6b"/><path d="m57.7 4.809h-3a2 2 0 0 1 2 2v31.8h3v-31.8a2 2 0 0 0 -2-2z" fill="#acc6cc"/><path d="m42.13 35.14v3.47h-3.81l.23-3.47z" fill="#eeefee"/><path d="m42.13 39.11h-3.81a.5.5 0 0 1 -.5-.533l.23-3.47a.5.5 0 0 1 .5-.467h3.58a.5.5 0 0 1 .5.5v3.47a.5.5 0 0 1 -.5.5zm-3.276-1h2.776v-2.47h-2.612z" fill="#323c6b"/><path d="m35.21 38.61h-3.81v-3.47h3.57z" fill="#eeefee"/><path d="m35.21 39.11h-3.81a.5.5 0 0 1 -.5-.5v-3.47a.5.5 0 0 1 .5-.5h3.57a.5.5 0 0 1 .5.465l.24 3.47a.5.5 0 0 1 -.5.535zm-3.31-1h2.774l-.174-2.47h-2.6z" fill="#323c6b"/><path d="m38.93 29.58-.38 5.56-.23 3.47h-3.11l-.24-3.47-.37-5.56z" fill="#eeefee"/><path d="m38.32 39.11h-3.11a.5.5 0 0 1 -.5-.465l-.61-9.031a.5.5 0 0 1 .5-.533h4.33a.5.5 0 0 1 .5.534l-.61 9.029a.5.5 0 0 1 -.5.466zm-2.643-1h2.175l.543-8.03h-3.261z" fill="#323c6b"/><path d="m39.18 25.82-.25 3.76h-4.33l-.26-3.76z" fill="#dbd8dd"/><g fill="#323c6b"><path d="m38.93 30.08h-4.33a.5.5 0 0 1 -.5-.465l-.26-3.76a.5.5 0 0 1 .5-.535h4.84a.5.5 0 0 1 .5.533l-.25 3.76a.5.5 0 0 1 -.5.467zm-3.863-1h3.4l.184-2.76h-3.776z"/><path d="m59.7 39.107h-43.327a.5.5 0 0 1 -.5-.5v-31.798a2.5 2.5 0 0 1 2.5-2.5h39.327a2.5 2.5 0 0 1 2.5 2.5v31.8a.5.5 0 0 1 -.5.498zm-42.829-1h42.329v-31.298a1.5 1.5 0 0 0 -1.5-1.5h-39.327a1.5 1.5 0 0 0 -1.5 1.5z"/><path d="m66.65 69.68h-28.36a.5.5 0 0 1 -.5-.5v-30.57a.5.5 0 0 1 .5-.5h23.22a5.642 5.642 0 0 1 5.64 5.63v25.44a.5.5 0 0 1 -.5.5zm-27.86-1h27.36v-24.94a4.64 4.64 0 0 0 -4.64-4.63h-22.72z"/><path d="m38.29 69.68h-28.36a.5.5 0 0 1 -.5-.5v-25.44a5.636 5.636 0 0 1 5.63-5.63h23.23a.5.5 0 0 1 .5.5v30.57a.5.5 0 0 1 -.5.5zm-27.86-1h27.36v-29.57h-22.73a4.635 4.635 0 0 0 -4.63 4.63z"/><path d="m62.1 73.309h-4.629a.5.5 0 0 1 -.5-.5v-3.626a.5.5 0 0 1 .5-.5h4.629a.5.5 0 0 1 .5.5v3.626a.5.5 0 0 1 -.5.5zm-4.126-1h3.626v-2.626h-3.629z"/><path d="m18.878 73.309h-4.626a.5.5 0 0 1 -.5-.5v-3.626a.5.5 0 0 1 .5-.5h4.626a.5.5 0 0 1 .5.5v3.626a.5.5 0 0 1 -.5.5zm-4.126-1h3.626v-2.626h-3.626z"/><ellipse cx="44.214" cy="53.395" rx="1.489" ry="1.5"/><ellipse cx="32.361" cy="53.395" rx="1.489" ry="1.5"/></g><g opacity=".5"><path d="m47.52 5.31-11.94 20.01h-1.24a.524.524 0 0 0 -.37.16.511.511 0 0 0 -.13.37l.15 2.14-6.04 10.12h-2.74l19.38-32.8z" fill="#eeefee"/></g><g opacity=".5"><path d="m38.81 5.31-19.54 32.8h-1.54l19.39-32.8z" fill="#eeefee"/></g><g opacity=".5"><path d="m39.55 27.84.13-1.99a.345.345 0 0 0 -.04-.2l12-20.34h1.29z" fill="#eeefee"/></g><path d="m21.738 65.363a.84.84 0 0 1 -.841.841h-.025a.841.841 0 0 1 0-1.681h.028a.84.84 0 0 1 .838.84z" fill="#e6b17d"/><path d="m18.876 65.363a.84.84 0 0 1 -.841.841h-4.7a.84.84 0 0 1 -.841-.841v-6.987a.841.841 0 1 1 1.681 0v6.146h3.858a.84.84 0 0 1 .843.841z" fill="#e6b17d"/></svg>