<svg id="line_color" height="512" viewBox="0 0 74 74" width="512" xmlns="http://www.w3.org/2000/svg" data-name="line color"><path d="m17.86 35.37h.17a23.437 23.437 0 0 1 8.95 1.76" fill="#fff"/><path d="m26.98 37.63a.5.5 0 0 1 -.2-.042 22.938 22.938 0 0 0 -8.743-1.717h-.177a.5.5 0 1 1 0-1h.17a24.03 24.03 0 0 1 9.151 1.8.5.5 0 0 1 -.2.958z" fill="#323c6b"/><path d="m6 60.083a.5.5 0 0 1 -.5-.5v-10.712a.5.5 0 0 1 1 0v10.712a.5.5 0 0 1 -.5.5z" fill="#323c6b"/><path d="m6 63.667a.5.5 0 0 1 -.5-.5v-.583a.5.5 0 0 1 1 0v.583a.5.5 0 0 1 -.5.5z" fill="#323c6b"/><path d="m26.98 37.13c.71.29 1.43.61 2.16.98 12.18 6.15 19.83-.11 19.83-.11v29a4 4 0 0 1 -4 4h-31.97a4 4 0 0 1 -4-4v-28.89s2.37-2.7 8.86-2.74h.17" fill="#b6d2dd"/><path d="m44.97 71.5h-31.97a4.5 4.5 0 0 1 -4.5-4.5v-28.89a.5.5 0 0 1 .124-.33c.1-.117 2.595-2.869 9.233-2.91h.173a.5.5 0 1 1 0 1h-.17c-5.353.033-7.8 1.942-8.36 2.449v28.681a3.5 3.5 0 0 0 3.5 3.5h31.97a3.5 3.5 0 0 0 3.5-3.5v-28.062c-2.329 1.412-9.485 4.7-19.556-.382-.659-.334-1.354-.649-2.123-.963a.5.5 0 0 1 .379-.926c.794.325 1.513.651 2.2 1 11.753 5.932 19.213.009 19.288-.051a.5.5 0 0 1 .812.384v29a4.5 4.5 0 0 1 -4.5 4.5z" fill="#323c6b"/><path d="m23.98 37.13c.71.29 1.43.61 2.16.98a22.254 22.254 0 0 0 11.936 2.641 23.94 23.94 0 0 1 -8.936-2.641c-.73-.37-1.45-.69-2.16-.98l-8.95-1.76h-.17a21.1 21.1 0 0 0 -2.194.125z" fill="#acc6cc"/><path d="m45.97 39.631v27.369a4 4 0 0 1 -4 4h3a4 4 0 0 0 4-4v-29a12.244 12.244 0 0 1 -3 1.631z" fill="#acc6cc"/><path d="m48.97 27.99v10.01s-7.65 6.26-19.83.11c-.73-.37-1.45-.69-2.16-.98a23.437 23.437 0 0 0 -8.95-1.76h-.17c-6.49.04-8.86 2.74-8.86 2.74v-10.12a6 6 0 0 1 6-6h27.97a6 6 0 0 1 6 6z" fill="#eeefee"/><path d="m39.542 41.293a23.458 23.458 0 0 1 -10.628-2.737c-.659-.334-1.354-.649-2.123-.963a23.008 23.008 0 0 0 -8.755-1.723h-.176c-6.143.038-8.464 2.546-8.486 2.572a.5.5 0 0 1 -.874-.332v-10.12a6.508 6.508 0 0 1 6.5-6.5h27.97a6.508 6.508 0 0 1 6.5 6.5v10.01a.5.5 0 0 1 -.184.387 16.444 16.444 0 0 1 -9.744 2.906zm-21.36-6.424a23.909 23.909 0 0 1 9 1.8c.782.319 1.5.646 2.184.992 10.736 5.418 17.891.947 19.1.085v-9.756a5.507 5.507 0 0 0 -5.5-5.5h-27.966a5.506 5.506 0 0 0 -5.5 5.5v9.053c1.226-.854 3.825-2.146 8.357-2.173h.324z" fill="#323c6b"/><path d="m15.03 35.37h-.17a17.007 17.007 0 0 0 -5.86.963v1.777s2.053-2.33 7.553-2.691c-.726-.048-1.267-.052-1.523-.049z" fill="#dbd8dd"/><path d="m42.97 21.99h-3a6 6 0 0 1 6 6v10.01a15.208 15.208 0 0 1 -7.893 2.751 16.069 16.069 0 0 0 10.893-2.751v-10.01a6 6 0 0 0 -6-6z" fill="#dbd8dd"/><path d="m40.97 19v2.99h-24v-2.99a4 4 0 0 1 4-4h16a4 4 0 0 1 4 4z" fill="#eeefee"/><path d="m40.97 22.49h-24a.5.5 0 0 1 -.5-.5v-2.99a4.5 4.5 0 0 1 4.5-4.5h16a4.5 4.5 0 0 1 4.5 4.5v2.99a.5.5 0 0 1 -.5.5zm-23.5-1h23v-2.49a3.5 3.5 0 0 0 -3.5-3.5h-16a3.5 3.5 0 0 0 -3.5 3.5z" fill="#323c6b"/><path d="m36.97 15h-3a4 4 0 0 1 4 4v2.99h3v-2.99a4 4 0 0 0 -4-4z" fill="#dbd8dd"/><path d="m34.969 4.7v10.3h-12v-10.3a1.7 1.7 0 0 1 1.7-1.7h8.6a1.7 1.7 0 0 1 1.7 1.7z" fill="#dbd8dd"/><path d="m34.969 15.5h-12a.5.5 0 0 1 -.5-.5v-10.3a2.2 2.2 0 0 1 2.2-2.2h8.6a2.2 2.2 0 0 1 2.2 2.2v10.3a.5.5 0 0 1 -.5.5zm-11.5-1h11v-9.8a1.2 1.2 0 0 0 -1.2-1.2h-8.6a1.2 1.2 0 0 0 -1.2 1.2z" fill="#323c6b"/><path d="m33.268 3h-8.6a1.7 1.7 0 0 0 -1.7 1.7v.3h8.3a1.7 1.7 0 0 1 1.7 1.7v8.3h2v-10.3a1.7 1.7 0 0 0 -1.7-1.7z" fill="#bbbbcd"/><path d="m57.911 7.266a.5.5 0 0 1 -.315-.112l-.383-.311a.5.5 0 1 1 .631-.776l.383.311a.5.5 0 0 1 -.315.888z" fill="#323c6b"/><path d="m55.424 5.251a.5.5 0 0 1 -.314-.111l-2.024-1.64h-7.836a.5.5 0 0 1 0-1h8.013a.5.5 0 0 1 .314.111l2.161 1.751a.5.5 0 0 1 -.314.889z" fill="#323c6b"/><path d="m56.002 15.625-5.635-4.625h-15.398v-5h17.232l7.321 5.932z" fill="#eeefee"/><path d="m56 16.125a.5.5 0 0 1 -.317-.113l-5.5-4.512h-15.214a.5.5 0 0 1 -.5-.5v-5a.5.5 0 0 1 .5-.5h17.231a.5.5 0 0 1 .314.111l7.322 5.932a.5.5 0 0 1 .048.734l-3.52 3.693a.5.5 0 0 1 -.364.155zm-20.531-5.625h14.9a.5.5 0 0 1 .317.113l5.275 4.331 2.826-2.964-6.764-5.48h-16.554z" fill="#323c6b"/><path d="m51.201 8 6.81 5.518 1.511-1.586-7.321-5.932h-17.232v2z" fill="#dbd8dd"/><circle cx="40.97" cy="55.063" fill="#acc6cc" r="2.66"/><circle cx="30.168" cy="64.188" fill="#acc6cc" r="2.66"/><circle cx="19.168" cy="53.188" fill="#acc6cc" r="2.66"/><g fill="#323c6b"><path d="m39.542 41.293a23.458 23.458 0 0 1 -10.628-2.737c-.659-.334-1.354-.649-2.123-.963a23.008 23.008 0 0 0 -8.755-1.723h-.176c-6.143.038-8.464 2.546-8.486 2.572a.5.5 0 0 1 -.874-.332v-10.12a6.508 6.508 0 0 1 6.5-6.5h27.97a6.508 6.508 0 0 1 6.5 6.5v10.01a.5.5 0 0 1 -.184.387 16.444 16.444 0 0 1 -9.744 2.906zm-21.36-6.424a23.909 23.909 0 0 1 9 1.8c.782.319 1.5.646 2.184.992 10.736 5.418 17.891.947 19.1.085v-9.756a5.507 5.507 0 0 0 -5.5-5.5h-27.966a5.506 5.506 0 0 0 -5.5 5.5v9.053c1.226-.854 3.825-2.146 8.357-2.173h.324z"/><path d="m44.97 71.5h-31.97a4.5 4.5 0 0 1 -4.5-4.5v-28.89a.5.5 0 0 1 .124-.33c.1-.117 2.595-2.869 9.233-2.91h.173a.5.5 0 1 1 0 1h-.17c-5.353.033-7.8 1.942-8.36 2.449v28.681a3.5 3.5 0 0 0 3.5 3.5h31.97a3.5 3.5 0 0 0 3.5-3.5v-28.062c-2.329 1.412-9.485 4.7-19.556-.382-.659-.334-1.354-.649-2.123-.963a.5.5 0 0 1 .379-.926c.794.325 1.513.651 2.2 1 11.753 5.932 19.213.009 19.288-.051a.5.5 0 0 1 .812.384v29a4.5 4.5 0 0 1 -4.5 4.5z"/><path d="m40.97 22.49h-24a.5.5 0 0 1 -.5-.5v-2.99a4.5 4.5 0 0 1 4.5-4.5h16a4.5 4.5 0 0 1 4.5 4.5v2.99a.5.5 0 0 1 -.5.5zm-23.5-1h23v-2.49a3.5 3.5 0 0 0 -3.5-3.5h-16a3.5 3.5 0 0 0 -3.5 3.5z"/><path d="m56 16.125a.5.5 0 0 1 -.317-.113l-5.5-4.512h-15.214a.5.5 0 0 1 -.5-.5v-5a.5.5 0 0 1 .5-.5h17.231a.5.5 0 0 1 .314.111l7.322 5.932a.5.5 0 0 1 .048.734l-3.52 3.693a.5.5 0 0 1 -.364.155zm-20.531-5.625h14.9a.5.5 0 0 1 .317.113l5.275 4.331 2.826-2.964-6.764-5.48h-16.554z"/><path d="m34.969 15.5h-12a.5.5 0 0 1 -.5-.5v-10.3a2.2 2.2 0 0 1 2.2-2.2h8.6a2.2 2.2 0 0 1 2.2 2.2v10.3a.5.5 0 0 1 -.5.5zm-11.5-1h11v-9.8a1.2 1.2 0 0 0 -1.2-1.2h-8.6a1.2 1.2 0 0 0 -1.2 1.2z"/></g><path d="m57 23.995a4 4 0 0 0 8 0c0-2.21-4-8-4-8s-4 5.789-4 8z" fill="#b6d2dd"/><path d="m61 28.495a4.5 4.5 0 0 1 -4.5-4.5c0-2.3 3.67-7.678 4.089-8.284a.518.518 0 0 1 .822 0c.419.606 4.089 5.985 4.089 8.284a4.5 4.5 0 0 1 -4.5 4.5zm0-11.606c-1.258 1.9-3.5 5.605-3.5 7.106a3.5 3.5 0 0 0 7 0c0-1.502-2.24-5.203-3.5-7.106z" fill="#323c6b"/><path d="m61 15.995s-.527.765-1.2 1.839c1.061 1.793 2.2 3.984 2.2 5.161a3.986 3.986 0 0 1 -3.662 3.966 3.985 3.985 0 0 0 6.662-2.966c0-2.211-4-8-4-8z" fill="#acc6cc"/><path d="m61 28.495a4.5 4.5 0 0 1 -4.5-4.5c0-2.3 3.67-7.678 4.089-8.284a.518.518 0 0 1 .822 0c.419.606 4.089 5.985 4.089 8.284a4.5 4.5 0 0 1 -4.5 4.5zm0-11.606c-1.258 1.9-3.5 5.605-3.5 7.106a3.5 3.5 0 0 0 7 0c0-1.502-2.24-5.203-3.5-7.106z" fill="#323c6b"/><circle cx="30.168" cy="47.872" fill="#acc6cc" r="2.66"/><path d="m21.551 67.03a.84.84 0 0 1 -.841.841h-.025a.841.841 0 0 1 0-1.681h.025a.84.84 0 0 1 .841.84z" fill="#f9f9f9"/><path d="m18.689 67.03a.84.84 0 0 1 -.841.841h-4.7a.84.84 0 0 1 -.841-.841v-6.987a.841.841 0 0 1 1.681 0v6.146h3.858a.84.84 0 0 1 .843.841z" fill="#f9f9f9"/></svg>