<?xml version="1.0" encoding="iso-8859-1"?>
<!-- Generator: Adobe Illustrator 24.1.2, SVG Export Plug-In . SVG Version: 6.00 Build 0)  -->
<svg xmlns="http://www.w3.org/2000/svg" xmlns:xlink="http://www.w3.org/1999/xlink" version="1.1" id="line_color" x="0px" y="0px" viewBox="0 0 512 512" style="enable-background:new 0 0 512 512;" xml:space="preserve" width="512" height="512">
<g>
	<path style="fill:#323C6B;" d="M278.182,48.186c-1.911,0.003-3.462-1.543-3.466-3.453c-0.002-0.921,0.364-1.805,1.016-2.455   l21.241-21.241c18.317-18.317,48.014-18.317,66.331,0c0,0,0,0,0,0c1.324,1.378,1.28,3.568-0.098,4.891   c-1.344,1.292-3.471,1.286-4.808-0.014c-15.614-15.615-40.931-15.616-56.547-0.002c-0.001,0.001-0.001,0.001-0.002,0.002   l-21.241,21.241C279.969,47.806,279.096,48.176,278.182,48.186z"/>
	<path style="fill:#323C6B;" d="M261.964,64.397c-1.911,0.003-3.462-1.543-3.466-3.453c-0.002-0.921,0.364-1.805,1.016-2.455   l3.245-3.245c1.374-1.327,3.564-1.289,4.892,0.085c1.295,1.341,1.295,3.466,0,4.807l-3.245,3.245   C263.759,64.029,262.881,64.395,261.964,64.397z"/>
	<path style="fill:#EEEFEE;" d="M259.967,92.279l54.087-54.087c8.859-8.859,23.221-8.859,32.08,0l138.39,138.39   c8.859,8.859,8.859,23.221,0,32.08l-54.087,54.087c-8.859,8.859-23.221,8.859-32.08,0l-138.39-138.39   C251.108,115.501,251.108,101.138,259.967,92.279z"/>
	<path style="fill:#323C6B;" d="M414.443,272.85c-6.938,0.019-13.596-2.739-18.487-7.659L257.578,126.812   c-10.21-10.206-10.214-26.757-0.008-36.967c0.003-0.003,0.005-0.005,0.008-0.008l54.092-54.092c10.348-9.88,26.634-9.88,36.982,0   L487.03,174.124c10.194,10.217,10.194,26.758,0,36.975l-54.099,54.099C428.038,270.115,421.381,272.871,414.443,272.85   L414.443,272.85z M330.143,34.97c-5.102-0.014-9.998,2.014-13.596,5.632l-54.092,54.092c-7.509,7.504-7.513,19.674-0.009,27.182   c0.003,0.003,0.006,0.006,0.009,0.009l138.378,138.378c7.608,7.266,19.584,7.266,27.191,0l54.099-54.099   c7.493-7.515,7.493-19.676,0-27.191L343.746,40.595C340.144,36.981,335.246,34.955,330.143,34.97L330.143,34.97z"/>
	<path style="fill:#DBD8DD;" d="M484.601,176.566L346.223,38.188c-6.99-6.957-17.683-8.581-26.423-4.013   c2.086,1.035,3.997,2.389,5.667,4.013l138.378,138.378c8.859,8.86,8.859,23.223,0,32.083l-54.099,54.099   c-1.669,1.624-3.581,2.977-5.667,4.013c8.74,4.568,19.433,2.944,26.423-4.013l54.099-54.099   C493.46,199.789,493.46,185.426,484.601,176.566L484.601,176.566z"/>
	<path style="fill:#DBD8DD;" d="M357.708,222.065l-42.136,42.136l-13.63-13.561l-29.821-29.821l-13.561-13.63l42.136-42.136   L357.708,222.065z"/>
	<path style="fill:#323C6B;" d="M315.572,267.661c-0.916,0-1.794-0.363-2.442-1.01l-57.026-57.026c-1.346-1.35-1.346-3.535,0-4.885   l42.136-42.136c1.351-1.351,3.541-1.351,4.892,0l57.012,57.012c1.351,1.351,1.351,3.541,0,4.892l-42.136,42.136   C317.362,267.291,316.486,267.657,315.572,267.661z M263.445,207.189l52.12,52.12l37.251-37.251l-52.12-52.113L263.445,207.189z"/>
	<path style="fill:#BBBBCD;" d="M343.87,208.227l-42.136,42.136l-13.63-13.561l13.838,13.838l13.63,13.561l42.136-42.136   L343.87,208.227z"/>
	<path style="fill:#323C6B;" d="M198.511,410.889c-1.911,0-3.459-1.55-3.459-3.46c0-0.915,0.363-1.793,1.009-2.442l3.743-3.75   c1.293-1.407,3.481-1.499,4.888-0.206s1.499,3.481,0.206,4.888c-0.065,0.07-0.132,0.138-0.202,0.203l-3.743,3.75   C200.306,410.521,199.427,410.887,198.511,410.889z"/>
	<path style="fill:#323C6B;" d="M216.673,392.727c-1.911,0.003-3.462-1.543-3.466-3.453c-0.002-0.921,0.364-1.805,1.016-2.456   l45.547-45.547c1.374-1.327,3.564-1.289,4.892,0.085c1.295,1.341,1.295,3.466,0,4.807l-45.54,45.547   C218.473,392.361,217.592,392.727,216.673,392.727L216.673,392.727z"/>
	<path style="fill:#DBD8DD;" d="M275.096,301.494L87.524,489.066c-15.285,15.266-40.051,15.25-55.317-0.035   c-15.266-15.285-15.25-40.051,0.035-55.317l187.503-187.572L275.096,301.494z"/>
	<path style="fill:#323C6B;" d="M59.849,503.942c-11.28,0.032-22.104-4.453-30.056-12.454c-16.608-16.647-16.608-43.596,0-60.243   l187.503-187.572c1.373-1.296,3.519-1.296,4.892,0l55.351,55.351c1.35,1.351,1.35,3.541,0,4.892l-187.593,187.6   C81.958,499.485,71.132,503.954,59.849,503.942L59.849,503.942z M219.745,251.034L34.691,436.164   c-13.911,13.944-13.911,36.516,0,50.46c13.936,13.878,36.469,13.878,50.404,0l185.109-185.13L219.745,251.034z"/>
	<path style="fill:#BBBBCD;" d="M87.524,468.309c-15.283,15.223-39.999,15.223-55.282,0c-4.747-4.805-8.156-10.768-9.887-17.297   c-5.763,20.767,6.399,42.274,27.166,48.037c13.541,3.758,28.057-0.055,38.003-9.983l187.572-187.572l-10.378-10.378L87.524,468.309   z"/>
	<path style="fill:#EEEFEE;" d="M301.942,250.64l-38.815,38.884h-0.069l-29.751-29.821l38.815-38.884L301.942,250.64z"/>
	<path style="fill:#323C6B;" d="M263.126,292.984c-0.94,0.001-1.843-0.364-2.518-1.017l-29.751-29.821   c-1.346-1.35-1.346-3.535,0-4.885l38.815-38.884c0.649-0.651,1.53-1.017,2.449-1.017c0.918-0.002,1.799,0.362,2.449,1.01   l29.821,29.821c1.35,1.351,1.35,3.541,0,4.892l-38.808,38.884C264.932,292.619,264.048,292.985,263.126,292.984L263.126,292.984z    M238.218,259.704l24.908,24.957l33.951-34.02l-24.908-24.908L238.218,259.704z"/>
	<path style="fill:#DBD8DD;" d="M288.104,236.802l-38.815,38.884h-0.035l13.803,13.838h0.069l38.815-38.884L288.104,236.802z"/>
	<g>
		<path style="fill:#323C6B;" d="M233.306,263.163h-0.069c-1.911-0.019-3.444-1.583-3.425-3.494c0.019-1.91,1.583-3.444,3.494-3.425    c1.911,0.019,3.444,1.583,3.425,3.494C236.712,261.622,235.19,263.144,233.306,263.163z"/>
		<path style="fill:#323C6B;" d="M263.126,292.984c-0.94,0.001-1.843-0.364-2.518-1.017l-29.751-29.821    c-1.346-1.35-1.346-3.535,0-4.885l38.815-38.884c0.649-0.651,1.53-1.017,2.449-1.017c0.918-0.002,1.799,0.362,2.449,1.01    l29.821,29.821c1.35,1.351,1.35,3.541,0,4.892l-38.808,38.884C264.932,292.619,264.048,292.985,263.126,292.984L263.126,292.984z     M238.218,259.704l24.908,24.957l33.951-34.02l-24.908-24.908L238.218,259.704z"/>
		<path style="fill:#323C6B;" d="M446.353,188.446c-0.918,0.002-1.799-0.362-2.449-1.01L335.325,78.85    c-1.327-1.374-1.289-3.564,0.085-4.892c1.341-1.295,3.466-1.295,4.807,0l108.579,108.579c1.353,1.349,1.355,3.54,0.006,4.892    c-0.651,0.652-1.534,1.018-2.455,1.016H446.353z"/>
		<path style="fill:#323C6B;" d="M426.593,208.199c-0.923,0.005-1.81-0.358-2.463-1.01L315.565,98.604    c-1.327-1.374-1.289-3.564,0.085-4.892c1.341-1.295,3.466-1.295,4.807,0l108.586,108.579c1.353,1.349,1.355,3.54,0.006,4.892    C428.398,207.835,427.514,208.201,426.593,208.199L426.593,208.199z"/>
		<path style="fill:#323C6B;" d="M406.832,227.946c-0.918,0.002-1.799-0.362-2.449-1.01L295.811,118.364    c-1.327-1.374-1.289-3.564,0.085-4.892c1.341-1.295,3.466-1.295,4.807,0l108.579,108.579c1.353,1.349,1.355,3.54,0.006,4.892    c-0.651,0.652-1.534,1.018-2.456,1.016V227.946z"/>
		<path style="fill:#323C6B;" d="M134.4,445.643c-1.541-0.002-2.896-1.023-3.321-2.505l-24.68-85.988    c-0.579-1.821,0.428-3.766,2.248-4.345c1.821-0.579,3.766,0.428,4.345,2.248c0.02,0.064,0.039,0.129,0.056,0.194l24.673,85.988    c0.527,1.836-0.534,3.753-2.37,4.28c-0.309,0.089-0.629,0.134-0.951,0.134L134.4,445.643z"/>
		<path style="fill:#323C6B;" d="M94.201,485.828c-1.541-0.002-2.896-1.023-3.321-2.505l-24.673-85.981    c-0.579-1.821,0.428-3.766,2.248-4.345c1.821-0.579,3.766,0.428,4.345,2.248c0.02,0.064,0.039,0.129,0.056,0.194l24.701,85.981    c0.527,1.836-0.534,3.753-2.37,4.28c-0.309,0.089-0.629,0.134-0.951,0.134L94.201,485.828z"/>
		<path style="fill:#323C6B;" d="M414.443,272.85c-6.938,0.019-13.596-2.739-18.487-7.659L257.578,126.812    c-10.21-10.206-10.214-26.757-0.008-36.967c0.003-0.003,0.005-0.005,0.008-0.008l54.092-54.092c10.348-9.88,26.634-9.88,36.982,0    L487.03,174.124c10.194,10.217,10.194,26.758,0,36.975l-54.099,54.099C428.038,270.115,421.381,272.871,414.443,272.85    L414.443,272.85z M330.143,34.97c-5.102-0.014-9.998,2.014-13.596,5.632l-54.092,54.092c-7.509,7.504-7.513,19.674-0.009,27.182    c0.003,0.003,0.006,0.006,0.009,0.009l138.378,138.378c7.608,7.266,19.584,7.266,27.191,0l54.099-54.099    c7.493-7.515,7.493-19.676,0-27.191L343.746,40.595C340.144,36.981,335.246,34.955,330.143,34.97L330.143,34.97z"/>
		<path style="fill:#323C6B;" d="M315.572,267.661c-0.916,0-1.794-0.363-2.442-1.01l-57.026-57.026c-1.346-1.35-1.346-3.535,0-4.885    l42.136-42.136c1.351-1.351,3.541-1.351,4.892,0l57.012,57.012c1.351,1.351,1.351,3.541,0,4.892l-42.136,42.136    C317.362,267.291,316.486,267.657,315.572,267.661z M263.445,207.189l52.12,52.12l37.251-37.251l-52.12-52.113L263.445,207.189z"/>
		<path style="fill:#323C6B;" d="M59.849,503.942c-11.28,0.032-22.104-4.453-30.056-12.454c-16.608-16.647-16.608-43.596,0-60.243    l187.503-187.572c1.373-1.296,3.519-1.296,4.892,0l55.351,55.351c1.35,1.351,1.35,3.541,0,4.892l-187.593,187.6    C81.958,499.485,71.132,503.954,59.849,503.942L59.849,503.942z M219.745,251.034L34.691,436.164    c-13.911,13.944-13.911,36.516,0,50.46c13.936,13.878,36.469,13.878,50.404,0l185.109-185.13L219.745,251.034z"/>
	</g>
	<path style="fill:#FFFFFF;" d="M157.219,331.038l43.672-43.672c1.878-1.894,4.935-1.913,6.836-0.042   c1.909,1.874,1.937,4.94,0.063,6.849c-0.007,0.007-0.014,0.014-0.021,0.021l-43.672,43.672c-1.747,1.898-4.701,2.02-6.599,0.273   c-0.036-0.033-0.071-0.066-0.105-0.1C155.451,336.136,155.375,333.035,157.219,331.038L157.219,331.038z"/>
	<path style="fill:#FFFFFF;" d="M215.365,272.919l1.834-1.833c1.818-1.899,4.832-1.964,6.73-0.146   c0.017,0.016,0.034,0.032,0.05,0.049c1.916,1.893,1.959,4.973,0.097,6.919l-1.834,1.833c-1.926,1.886-5.012,1.871-6.919-0.035   c-1.863-1.86-1.865-4.879-0.005-6.742C215.334,272.949,215.35,272.934,215.365,272.919L215.365,272.919z"/>
</g>
</svg>
