<svg id="Capa_1" enable-background="new 0 0 512.039 512.039" height="512" viewBox="0 0 512.039 512.039" width="512" xmlns="http://www.w3.org/2000/svg"><g><g id="B_2_"><path d="m395.52 238.181c30-24.001 47.699-60.601 47.699-101.1 0-64.501-46.8-120.702-111-131.801-26.009-5.193-75.442-5.1-76.2-5.1-17.905-.234-17.744-.173-210-.173v511.999c13.342.147 170.734-.208 210-.976 10.807 0 63.145-.827 78.6-2.699 83.699-9.6 131.4-78.152 131.4-151.352 0-52.5-25.799-95.099-70.499-118.798zm-225.6-127.202c10.199.3 54 0 86.1.601 3.21 0 19.123-.226 31.5.901 23.101 2.999 34.2 15.599 34.2 38.399 0 28.801-21 37.5-38.699 39.6-5.101.601-15 .901-27.001 1.199-27.9.601-67.5.3-86.1.3zm133.8 286.502-.3.298c-11.722 2.07-42.652 2.401-47.401 2.401-30.3.3-66.301-.3-86.1 0v-98.099c15.601.298 53.101-.601 86.1.599 21.301.3 41.1 1.5 51.301 5.099.599 0 1.199 0 1.8.3 19.799 6.901 29.7 21.901 29.7 44.401 0 24.899-12.301 40.8-35.1 45.001z" fill="#6cf"/></g><path d="m466.019 356.979c0 73.2-47.701 141.752-131.4 151.352-15.421 1.868-68.118 2.699-78.6 2.699v-110.85c4.749 0 35.679-.33 47.401-2.401l.3-.298c22.798-4.2 35.099-20.101 35.099-45 0-22.5-9.901-37.5-29.7-44.401-.601-.3-1.201-.3-1.8-.3-10.201-3.6-30-4.799-51.301-5.099v-111c12.001-.298 21.899-.599 27.001-1.199 17.699-2.1 38.699-10.8 38.699-39.6 0-22.8-11.1-35.4-34.2-38.399-12.256-1.115-27.467-.901-31.5-.901v-111.402c.758 0 50.19-.093 76.199 5.099 64.2 11.1 111 67.301 111 131.801 0 40.499-17.699 77.098-47.699 101.1 44.702 23.7 70.501 66.299 70.501 118.799z" fill="#59abff"/></g></svg>