<svg id="Capa_1" enable-background="new 0 0 512 512" height="512" viewBox="0 0 512 512" width="512" xmlns="http://www.w3.org/2000/svg"><g id="O_2_"><path d="m142.519 255.678c0-93.223 40.415-144.565 113.804-144.565 72.759 0 112.837 50.889 112.837 143.306 0 93.091-41.133 146.47-112.837 146.47-71.265-.001-113.804-54.288-113.804-145.211zm351.811-34.928c-13.08-136.31-101.87-220.49-238.33-220.75h-.63c-149.88 0-239.37 97.4-239.37 258.86 0 155.3 91.94 252.87 240 253.14h.63c147.64 0 239.37-98.47 239.37-255.37 0-12.3-.56-24.27-1.67-35.88z" fill="#c68cff"/><path d="m496 256.63c0 156.9-91.73 255.37-239.37 255.37h-.63v-111.14c.11 0 .21.03.32.03 71.71 0 112.84-53.38 112.84-146.47 0-92.42-40.08-143.31-112.84-143.31-.11 0-.21.03-.32.03v-111.14c136.46.26 225.25 84.44 238.33 220.75 1.11 11.61 1.67 23.58 1.67 35.88z" fill="#aa80ff"/></g></svg>