<svg id="Capa_1" enable-background="new 0 0 512 512" height="512" viewBox="0 0 512 512" width="512" xmlns="http://www.w3.org/2000/svg"><g id="P_2_"><path d="m344.85 7.8c-15.899-4.501-45.298-6.901-89.099-7.5-8.699-.3-17.701-.3-27.599-.3h-167.401v512h124.799v-183.201c15.901-.298 42.001.601 70.201-.298 26.7-.601 55.201-2.401 78.3-6.901 72.601-15.899 111.601-78.9 116.7-144.899.601-9.302.601-18.602.3-27.601-4.2-63.3-39.6-123.601-106.201-141.3zm-52.798 203.099c-7.8 3.001-21.301 4.801-36.301 5.7-24.901 1.5-54.6.901-70.201.601v-105.901c14.702-.298 45.901-.298 70.201.601 1.5 0 2.999.3 4.2.3 3.9 0 7.5.3 10.8.601 4.501.599 8.401.899 11.4 1.5 51.301 9.299 54.3 78.899 9.901 96.598z" fill="#ff7f40"/><path d="m451.052 149.099c.3 9 .3 18.3-.3 27.601-5.099 65.999-44.099 129-116.7 144.899-23.099 4.501-51.599 6.301-78.3 6.901v-111.901c15-.899 28.5-2.699 36.301-5.7 44.399-17.699 41.4-87.299-9.901-96.599-2.999-.601-6.899-.901-11.4-1.5-3.3-.3-6.899-.601-10.8-.601-1.201 0-2.701-.3-4.2-.3v-111.599c43.801.599 73.2 2.999 89.099 7.5 66.6 17.699 102 78 106.201 141.299z" fill="#f25a3c"/></g></svg>