<svg id="Capa_1" enable-background="new 0 0 512 512" height="512" viewBox="0 0 512 512" width="512" xmlns="http://www.w3.org/2000/svg"><g id="Q_2_"><path d="m417.1 392.9c31.5-42.95 45-90.67 45-156.29 0-63.91-18.8-227.76-209.1-236.31-2.4-.3-4.8-.3-7.2-.3-134.4 0-217.8 91.37-217.8 236.61 0 147.64 82.2 235.92 219.9 235.92 1.8 0 3.3 0 5.1-.3 24.209 0 59.045-5.667 84-16.11 33.3 23.27 56.1 40.56 90.6 51.3l12 4.58 44.4-88.09c-9.6-3.87-35.4-10.73-66.9-31.01zm-90.3-70.39c-.6 1.19-1.2 2.68-2.1 3.88-33.06-23.74-64.8-34.13-71.7-36.99-5.7-2.08-9.9-3.28-12-4.17l-36.6 76.05c15 5.67 17.4 6.26 23.1 8.65-52.8-7.46-82.8-55.18-82.8-133.32 0-85 35.7-132.12 100.5-132.12 2.7 0 5.4 0 7.8.3 59.7 3.58 92.4 50.4 92.4 131.82 0 35.2-6 64.13-18.6 85.9z" fill="#6cf"/><path d="m484 423.91-44.4 88.09-12-4.58c-34.5-10.74-57.3-28.03-90.6-51.3-24.871 10.407-59.719 16.11-84 16.11v-182.83c6.9 2.86 38.64 13.25 71.7 36.99.9-1.2 1.5-2.69 2.1-3.88 12.6-21.77 18.6-50.7 18.6-85.9 0-81.42-32.7-128.24-92.4-131.82v-104.49c190.3 8.55 209.1 172.4 209.1 236.31 0 65.62-13.5 113.34-45 156.29 31.5 20.28 57.3 27.14 66.9 31.01z" fill="#59abff"/></g></svg>