<svg id="Capa_1" enable-background="new 0 0 512 512" height="512" viewBox="0 0 512 512" width="512" xmlns="http://www.w3.org/2000/svg"><g id="U_2_"><path d="m466 0v264.487c0 102.299 0 190.199-104.399 231.899-27.9 11.1-67.2 15.899-105.601 15.601-41.4-.3-81.899-6.601-106.5-17.1-103.5-44.7-103.5-132.9-103.5-226.5v-268.387h128.699v288.787c-.599 48.3.601 76.8 27.9 96.899 13.5 9.6 33.301 14.399 53.401 15 22.5.3 45.3-4.799 57.001-13.801 21.776-17.191 24.3-34.088 24.3-105.899v-280.986z" fill="#ff7f40"/><path d="m466 0v264.487c0 102.299 0 190.199-104.399 231.899-27.9 11.1-67.2 15.899-105.601 15.601v-111.301c22.5.3 45.3-4.799 57.001-13.801 21.776-17.191 24.3-34.088 24.3-105.899v-280.986z" fill="#f25a3c"/></g></svg>