<svg id="Capa_1" enable-background="new 0 0 512 512" height="512" viewBox="0 0 512 512" width="512" xmlns="http://www.w3.org/2000/svg"><g id="_x33__2_"><path d="m436.84 346.91c0 92.12-79.56 164.3-180 165.08-.57.01-1.13.01-1.7.01-176.01 0-178.42-158.93-179.98-161.93l121.78-13.97c1.66 4.34-.47 70.19 57.53 70.19.79 0 1.58-.02 2.37-.05 15.78-.67 48.05-11.37 52.03-54.18.26-2.84.4-5.83.4-9 0-40.6-25.83-58.76-51.42-58.76-.34 0-.67 0-1.01.01-22.03.25-46.28 8.61-60.75 12.03l15.6-109.06c22.69-1.79 35.79-2.02 45.15-3.86 14.56-2.83 22.77-12.65 26.52-19.17.04-.06.07-.12.1-.17 11.47-20.67 6.71-54.23-26.62-58.55-2.34-.31-4.83-.47-7.46-.47-50.8 0-47.98 60.41-49.65 65.14l-118.74-19.08c3.47-6.73 12.63-151.12 171.1-151.12 1.59 0 3.18.02 4.75.05 95.71 2.04 157.63 68.19 157.63 136.51 0 37.73-17.15 69.42-51.08 94.52 45.52 20.89 73.45 63.62 73.45 115.83z" fill="#c68cff"/><path d="m436.84 346.91c0 92.12-79.56 164.3-180 165.08v-105.75c15.78-.67 48.05-11.37 52.03-54.18.26-2.84.4-5.83.4-9 0-40.6-25.83-58.76-51.42-58.76-.33 0-.68.08-1.01.08v-100.96c14.56-2.83 22.77-12.65 26.52-19.17.04-.06.07-.12.1-.17 11.47-20.67 6.71-54.23-26.62-58.55v-105.48c95.71 2.04 157.63 68.19 157.63 136.51 0 37.73-17.15 69.42-51.08 94.52 45.52 20.89 73.45 63.62 73.45 115.83z" fill="#aa80ff"/></g></svg>