<svg id="Capa_1" enable-background="new 0 0 512 512" height="512" viewBox="0 0 512 512" width="512" xmlns="http://www.w3.org/2000/svg"><g id="_x35__2_"><path d="m437.05 328.4c0 77.999-48.9 159.899-140.7 179.399-12.599 2.401-25.8 3.6-39.3 3.9-.901.3-2.1.3-2.999.3-172.5.001-177.301-156.6-179.101-159.599l123.9-12.301c1.199 3.001.3 68.401 56.1 68.401h2.1c5.099-.3 9.6-.901 13.2-2.401 25.499-7.5 40.201-34.799 40.201-76.199 0-45-18.9-70.8-53.401-72.9-1.5-.3-3.3-.3-4.799-.3-40.801 0-62.701 32.699-66.901 36l-99.6-14.101 53.4-278.599h276v117.8h-179.7l-7.8 42.599c9.6-2.699 19.499-4.799 29.399-5.4 2.401-.3 5.099-.601 7.8-.899 2.401-.3 4.799-.3 7.5-.3 10.199 0 21 .899 32.1 2.999 70.201 13.801 132.601 72.001 132.601 171.601z" fill="#6cf"/><g fill="#59abff"><path d="m437.05 328.4c0 77.999-48.9 159.899-140.7 179.399-12.599 2.401-25.8 3.6-39.3 3.9v-103.199c5.099-.3 9.6-.901 13.2-2.401 25.499-7.5 40.201-34.799 40.201-76.199 0-45-18.9-70.8-53.401-72.9v-102.001c2.401-.3 5.099-.601 7.8-.899 2.401-.3 4.799-.3 7.5-.3 10.199 0 21 .899 32.1 2.999 70.2 13.801 132.6 72.001 132.6 171.601z"/><path d="m257.05 0h158.247v117.825h-158.247z"/></g></g></svg>