<svg id="Capa_1" enable-background="new 0 0 512 512" height="512" viewBox="0 0 512 512" width="512" xmlns="http://www.w3.org/2000/svg"><g id="_x36__2_"><path d="m267.1 407.527c-3.9 0-7.5-.598-11.1-1.493-22.8-5.972-43.801-30.158-43.801-75.545 0-38.219 16.201-61.809 43.801-64.794 2.1-.299 3.9-.598 6.301-.598 32.999 0 50.999 25.978 50.999 73.455-.001 31.352-8.1 68.975-46.2 68.975zm26.4-237.382h-.9c-19.77-2.11-31.82.46-36.6.89-17.4 2.39-34.2 8.07-48.6 17.02 6.3-45.68 19.2-75.84 48.6-81.21 3-.6 6.3-.9 9.9-.9 16.2 0 35.1 4.48 39.3 39.42l2.1 14.63 122.1-12.84-2.7-15.83c-14.7-82.11-71.1-131.325-155.1-131.325-5.4 0-10.5.3-15.6.9-116.1 6.86-180 99.965-180 259.425 0 159.44 63.6 248.43 180 251.41.38 0 16.33 1.58 43.2-2.98 82.2-15.229 136.8-81.22 136.8-171.1 0-102.12-71.7-159.45-142.5-167.51z" fill="#a0e65c"/><g fill="#79cc52"><path d="m429.4 147.155-122.1 12.84-2.1-14.63c-4.2-34.94-23.1-39.42-39.3-39.42-3.6 0-6.9.3-9.9.9v-105.945c5.1-.6 10.2-.9 15.6-.9 84 0 140.4 49.215 155.1 131.325z"/><path d="m436 337.655c0 89.877-54.6 155.867-136.8 171.096-26.858 4.561-42.834 2.985-43.2 2.985v-105.701c3.6.895 7.2 1.493 11.1 1.493 38.101 0 46.199-37.623 46.199-68.975 0-47.477-17.999-73.455-50.999-73.455-2.401 0-4.2.299-6.301.598v-94.656c4.785-.431 16.825-3.006 36.599-.895h.901c70.801 8.062 142.501 65.391 142.501 167.51z"/></g></g></svg>