<svg id="Capa_1" enable-background="new 0 0 512 512" height="512" viewBox="0 0 512 512" width="512" xmlns="http://www.w3.org/2000/svg"><g id="_x38__2_"><path d="m359.39 233.46c30.16-22.45 46.98-56.34 46.98-96.33 0-4.66-.19-9.25-.57-13.75-6.25-74.37-63.6-122.81-149.8-123.37-.52-.01-1.03-.01-1.55-.01-92.3 0-151.94 54.44-151.94 137.13 0 41.12 17.14 74.73 48.87 97.01-38.7 26.34-60.38 68.5-60.38 119.27 0 93.48 66.2 157.53 165 158.58.83.01 1.66.01 2.49.01 98.87 0 162.51-68.3 162.51-162.44 0-49.6-22.12-90.66-61.61-116.1zm-104.01-131c.21 0 .42 0 .62.01 19.233.247 37.296 10.774 38.17 38.27.358 9.469.075 43.908-38.17 44.81-.51.01-1.03.02-1.55.02-25.26 0-39.16-14.93-39.16-42.04 0-25.72 14.99-41.07 40.09-41.07zm1.56 306.12c-.31 0-.63 0-.94-.01-23.76-.43-48.79-17.37-48.79-63.82 0-21.21 10.21-57.09 48.48-57.09h.31c31.39.17 46.54 25.72 48.31 52.65.12 1.78.18 3.59.18 5.41 0 39.36-17.77 62.86-47.55 62.86z" fill="#c68cff"/><path d="m421 349.56c0 94.14-63.64 162.44-162.51 162.44-.83 0-1.66 0-2.49-.01v-103.42c.31.01.63.01.94.01 29.78 0 47.55-23.5 47.55-62.86 0-1.82-.06-3.63-.18-5.41-1.77-26.93-16.92-52.48-48.31-52.65v-102.11c38.247-.902 38.528-35.34 38.17-44.81-.873-27.48-18.918-38.023-38.17-38.27v-102.46c86.2.56 143.55 49 149.8 123.37.38 4.5.57 9.09.57 13.75 0 39.99-16.82 73.88-46.98 96.33 39.49 25.44 61.61 66.5 61.61 116.1z" fill="#aa80ff"/></g></svg>