<svg id="Capa_1" enable-background="new 0 0 512 512" height="512" viewBox="0 0 512 512" width="512" xmlns="http://www.w3.org/2000/svg"><g id="_x39__2_"><path d="m255.984.3c-1.8-.3-3.9-.3-6-.3-93.6 0-159 72.4-159 175 0 109.8 74.7 169.2 144.9 169.2 6.9 0 13.8-.6 20.1-1.8 20.516-3.157 34.75-11.369 42.6-16.2-1.41 10.69-3.08 20.58-5.5 29.69-.03.11-.07.27-.12.47-1.3 5.49-10.08 44.86-36.98 49.34-2.4.6-5.1.9-8.1.9-39.9 0-33.9-47.1-36.9-53.7l-113.7 12.9c4.5 10.2-2.4 146.2 144 146.2 5.02 0 9.92-.17 14.7-.51 16.78-1.17 165-4.19 165-258.49 0-14.91 6.452-252.7-165-252.7zm38.27 187.05c-1.06 21.83-9.1 56.43-38.27 60.25-1.8.3-3.6.3-5.4.3-40.5 0-45-51-45-72.9 0-31.8 6.9-69.3 40.5-69.3 3.6 0 6.9.6 9.9 1.5 21.143 3.515 40.317 39.454 38.27 80.15z" fill="#ff7f40"/><path d="m420.984 253c0 254.3-148.22 257.32-165 258.49v-105.79c26.9-4.48 35.68-43.85 36.98-49.34.05-.2.09-.36.12-.47 2.46-9.14 4.37-19.28 5.5-29.69-7.848 4.83-22.079 13.042-42.6 16.2v-94.8c29.17-3.82 37.21-38.42 38.27-60.25 2.057-40.892-17.239-76.654-38.27-80.15v-106.9c171.45 0 165 237.855 165 252.7z" fill="#f25a3c"/></g></svg>