<svg id="Capa_1" enable-background="new 0 0 512.287 512.287" height="512" viewBox="0 0 512.287 512.287" width="512" xmlns="http://www.w3.org/2000/svg"><g id="D_2_"><path d="m325.723 9.903c-19.23-5.77-41.09-8.29-69.58-9.3-46.49-1.64-110.67.72-210-.51v512c102.5-1.42 164.8 1.35 210-.42 27.91-1.08 49.3-3.9 69.61-10.49 90.53-29.94 140.39-116.01 140.39-240.51 0-133.5-49.859-223.21-140.42-250.77zm-47.46 386.2c-7.59 1.99-17.54 2.79-22.12 3.12-26.34 1.88-62.31.47-86.07 1v-287.93c8.78.22 56.64-.81 86.07 2.02 5.88.57 11.02 1.29 14.97 2.2 48.25 10.81 67.93 51.34 67.93 139.9 0 74.45-10.35 126.68-60.78 139.69z" fill="#c68cff"/><path d="m466.143 260.673c0 124.5-49.86 210.57-140.39 240.51-20.31 6.59-41.7 9.41-69.61 10.49v-112.45c4.58-.33 14.53-1.13 22.12-3.12 50.43-13.01 60.78-65.24 60.78-139.69 0-88.56-19.68-129.09-67.93-139.9-3.95-.91-9.09-1.63-14.97-2.2v-113.71c28.49 1.01 50.35 3.53 69.58 9.3 90.561 27.56 140.42 117.27 140.42 250.77z" fill="#aa80ff"/></g></svg>