<svg id="Capa_1" enable-background="new 0 0 512 512" height="512" viewBox="0 0 512 512" width="512" xmlns="http://www.w3.org/2000/svg"><g id="XMLID_236_"><g id="XMLID_1522_"><g id="XMLID_1568_"><path id="XMLID_285_" d="m447.503 138.298c-14.373 0-28.257 5.22-39.07 14.69l-107.679 94.304h146.749c30.098 0 54.497-24.399 54.497-54.497 0-30.098-24.399-54.497-54.497-54.497z" fill="#a0c8ff"/></g><g id="XMLID_1567_"><path id="XMLID_284_" d="m404.46 320.631c-9.866 0-19.306-4.024-26.138-11.142l-59.697-62.198h84.953c20.496 0 37.111 16.615 37.111 37.111 0 20.009-16.221 36.229-36.229 36.229z" fill="#dfedff"/></g><g id="XMLID_1566_"><path id="XMLID_283_" d="m107.54 320.631c9.866 0 19.306-4.024 26.138-11.142l59.697-62.198h-84.953c-20.496 0-37.111 16.615-37.111 37.111 0 20.009 16.221 36.229 36.229 36.229z" fill="#dfedff"/></g><g id="XMLID_1565_"><path id="XMLID_282_" d="m64.496 138.298c14.373 0 28.257 5.22 39.07 14.69l107.679 94.304h-146.749c-30.097-.001-54.496-24.4-54.496-54.498 0-30.097 24.399-54.496 54.496-54.496z" fill="#a0c8ff"/></g><g id="XMLID_1564_"><path id="XMLID_281_" d="m284.684 162.964h-57.368c-23.286 0-42.163 18.877-42.163 42.163 0 23.286 18.877 42.163 42.163 42.163h57.368c23.286 0 42.163-18.877 42.163-42.163 0-23.285-18.877-42.163-42.163-42.163z" fill="#ffcd69"/></g><g id="XMLID_1563_"><path id="XMLID_280_" d="m256 118.964c-24.301 0-44 19.7-44 44h88c0-24.3-19.699-44-44-44z" fill="#8aa8bd"/></g><g id="XMLID_1559_"><g id="XMLID_1562_"><path id="XMLID_279_" d="m331.563 261.856c-5.411-9.091-15.305-14.566-25.885-14.566h-99.357c-10.58 0-20.474 5.474-25.885 14.566-9.168 15.404-13.239 33.055-12.143 50.486h175.413c1.096-17.43-2.975-35.082-12.143-50.486z" fill="#ffcd69"/></g><g id="XMLID_1561_"><path id="XMLID_171_" d="m256 442.445 55.329-65.051h-110.658z" fill="#ffcd69"/></g><g id="XMLID_1560_"><path id="XMLID_31_" d="m343.707 312.342h-175.414c1.152 18.329 8.019 36.413 20.75 51.38l11.628 13.672h110.658l11.628-13.672c12.73-14.967 19.598-33.051 20.75-51.38z" fill="#8aa8bd"/></g></g></g><g id="XMLID_286_"><path id="XMLID_503_" d="m512 192.794c0-15.651-5.677-30.746-15.984-42.503-3.641-4.153-9.959-4.567-14.112-.927-4.153 3.641-4.568 9.959-.927 14.112 7.108 8.108 11.023 18.52 11.023 29.318 0 24.536-19.961 44.497-44.497 44.497h-120.151l85.056-74.491c4.155-3.639 4.573-9.956.935-14.111s-9.957-4.573-14.111-.935l-62.451 54.694c-.941-18.504-11.573-34.487-26.905-42.979-1.056-16.44-9.496-30.897-22.037-40.084 2.58-22.387 21.639-39.83 44.706-39.83 5.523 0 10-4.477 10-10s-4.477-10-10-10c-31.043 0-57.058 21.875-63.48 51.016-4.186-1.044-8.559-1.607-13.064-1.607s-8.878.563-13.064 1.607c-6.421-29.141-32.437-51.016-63.48-51.016-5.523 0-10 4.477-10 10s4.477 10 10 10c23.067 0 42.126 17.443 44.706 39.83-12.541 9.187-20.981 23.644-22.037 40.084-15.332 8.493-25.964 24.476-26.904 42.979l-65.066-56.984c-12.641-11.07-28.855-17.167-45.658-17.167-35.565.001-64.498 28.934-64.498 64.497s28.933 64.497 64.497 64.497h5.433c-5.42 7.673-8.618 17.023-8.618 27.111 0 25.491 20.738 46.229 46.229 46.229 12.524 0 24.68-5.182 33.353-14.218l17.594-18.331c-2.27 25.57 5.537 51.66 22.939 72.119l66.957 78.723c1.9 2.234 4.685 3.521 7.617 3.521 2.933 0 5.717-1.287 7.617-3.521l66.957-78.723c17.401-20.459 25.209-46.549 22.939-72.119l17.594 18.331c8.672 9.035 20.829 14.217 33.352 14.217 25.491 0 46.229-20.738 46.229-46.229 0-10.088-3.198-19.438-8.618-27.111h5.433c35.563.001 64.496-28.932 64.496-64.496zm-206.321 64.497c7.112 0 13.738 3.709 17.292 9.68 6.551 11.008 10.116 23.151 10.807 35.372h-155.555c.691-12.221 4.256-24.363 10.807-35.371 3.554-5.971 10.18-9.68 17.291-9.68h99.358zm-82.179-104.327c4.28-13.883 17.231-24 32.5-24s28.22 10.117 32.499 24zm3.816 20h57.368c17.735 0 32.163 14.428 32.163 32.163s-14.428 32.164-32.163 32.164h-57.368c-17.735 0-32.163-14.429-32.163-32.164 0-17.734 14.428-32.163 32.163-32.163zm-207.316 19.83c0-24.536 19.961-44.497 44.497-44.497 11.953 0 23.489 4.337 32.481 12.212l87.671 76.781h-120.152c-24.536.001-44.497-19.96-44.497-44.496zm106.464 109.77c-4.92 5.127-11.818 8.067-18.923 8.067-14.463 0-26.229-11.766-26.229-26.229 0-14.949 12.162-27.111 27.111-27.111h61.494zm129.536 124.447-33.696-39.617h67.392zm59.34-69.768-8.633 10.15h-101.414l-8.633-10.15c-8.728-10.262-14.426-22.305-16.996-34.901h152.671c-2.569 12.596-8.267 24.639-16.995 34.901zm115.349-72.841c0 14.463-11.767 26.229-26.229 26.229-7.105 0-14.003-2.94-18.923-8.066l-43.453-45.274h61.494c14.949 0 27.111 12.162 27.111 27.111z"/><path id="XMLID_1014_" d="m447.5 148.3c2.64 0 5.21-1.07 7.07-2.93 1.87-1.86 2.93-4.44 2.93-7.07s-1.06-5.21-2.93-7.07c-1.86-1.86-4.43-2.93-7.07-2.93-2.63 0-5.21 1.07-7.07 2.93s-2.93 4.44-2.93 7.07 1.07 5.21 2.93 7.07 4.44 2.93 7.07 2.93z"/></g></g></svg>