<svg id="Capa_1" enable-background="new 0 0 511.92 511.92" height="512" viewBox="0 0 511.92 511.92" width="512" xmlns="http://www.w3.org/2000/svg"><g id="XMLID_2653_"><g id="XMLID_2973_"><path id="XMLID_721_" d="m106.256 298.632 31.767 86.788h-41.481l-37.81-92.546 19.892-13.294z" fill="#6d92ac"/></g><g id="XMLID_2972_"><path id="XMLID_719_" d="m268.925 298.632-35.654 86.788h-41.481l21.152-66.111z" fill="#6d92ac"/></g><g id="XMLID_662_"><path id="XMLID_684_" d="m273.821 295.407c-60.151 40.133-142.089 33.646-195.197-19.462 0 0-.261-.261-.709-.728-7.286 8.578-15.94 16.018-25.702 21.978v68.286l2.755 6.804c2.543 6.279-2.078 13.136-8.853 13.136h-36.115v-109.271l12.031-20.447c0-61.732 50.043-111.774 111.775-111.774 13.959 0 27.319 2.56 39.638 7.235 28.669 10.88 60.135 10.88 88.804 0 12.319-4.675 25.679-7.235 39.638-7.235 30.866 0 58.809 12.51 79.037 32.738l.02.02c40.457 0 49.427 31.132 49.427 31.132l49.092 27.483c7.016 3.927 9.584 12.757 5.769 19.834l-9.005 16.707c-2.569 4.766-7.547 7.738-12.961 7.738h-69.588c-8.905 0-17.07-4.953-21.184-12.85l-49.931 13.551v85.199l2.755 6.804c2.543 6.279-2.078 13.136-8.853 13.136h-36.477v-86.789z" fill="#8aa8bd"/></g><g id="XMLID_2970_"><path id="XMLID_663_" d="m375.684 165.402 26.7-38.904 5.536 7.062c11.331 14.453 11.729 34.66.975 49.547z" fill="#a7bdcd"/></g><g id="XMLID_2969_"><path id="XMLID_683_" d="m447.249 214.733c17.418-17.418 25.423-40.673 24.037-63.467-.379-6.227 7.083-9.781 11.507-5.382.043.043.087.086.13.13 25.437 25.437 25.437 66.678 0 92.115z" fill="#ffcd69"/></g><g id="XMLID_699_"><path id="XMLID_700_" d="m390.27 227.319c2.63 0 5.21-1.069 7.07-2.93 1.86-1.86 2.93-4.439 2.93-7.07 0-2.63-1.07-5.21-2.93-7.08-1.86-1.859-4.44-2.92-7.07-2.92s-5.21 1.06-7.07 2.92c-1.87 1.87-2.93 4.45-2.93 7.08 0 2.631 1.06 5.21 2.93 7.07 1.86 1.86 4.43 2.93 7.07 2.93z"/><path id="XMLID_703_" d="m489.994 138.942-.15-.149c-4.948-4.918-12.257-6.238-18.623-3.36-6.454 2.917-10.346 9.37-9.917 16.441 1.156 19.021-5.225 37.665-17.591 51.955l-5.227-2.927c-2.739-6.42-7.998-14.31-16.321-20.895 7.647-17.075 5.466-37.514-6.375-52.617l-5.537-7.062c-1.964-2.505-5.007-3.91-8.187-3.825-3.182.102-6.126 1.712-7.928 4.337l-23.538 34.296c-20.085-13.785-43.827-21.208-68.715-21.208-14.867 0-29.397 2.653-43.186 7.886-24.742 9.39-52.179 9.953-77.257 1.586-5.238-1.744-10.903 1.084-12.651 6.321-1.748 5.239 1.082 10.903 6.321 12.651 29.438 9.822 61.644 9.162 90.683-1.859 11.514-4.369 23.656-6.585 36.09-6.585 27.185 0 52.743 10.587 71.965 29.81.003.003.007.006.011.01 1.81 1.815 4.314 2.939 7.081 2.939 32.022 0 39.542 23.017 39.818 23.9.695 2.612 2.365 4.637 4.724 5.957l49.092 27.483c2.237 1.252 3.067 4.107 1.851 6.363l-9.005 16.707c-.825 1.531-2.419 2.482-4.158 2.482h-69.588c-5.196 0-9.915-2.862-12.315-7.472l-10.154-19.488c-2.552-4.897-8.591-6.8-13.489-4.247-4.898 2.552-6.8 8.591-4.248 13.489l4.403 8.451-25.312 6.823v-8.967c0-5.523-4.477-10-10-10s-10 4.478-10 10v107.311c0 1.286.248 2.561.731 3.754l2.505 6.185h-25.811v-73.587c0-1.597-.382-3.17-1.115-4.588l-13.367-25.889c-2.533-4.906-8.564-6.829-13.473-4.298-4.907 2.534-6.832 8.566-4.297 13.474l5.152 9.979c-54.276 32.836-124.299 26.122-171.529-16.285 7.314-10.182 13.014-21.547 16.766-33.74l2.896-9.413c1.624-5.278-1.339-10.874-6.618-12.498-5.279-1.626-10.875 1.338-12.499 6.617l-2.896 9.412c-6.942 22.56-21.859 41.757-42.005 54.055-2.975 1.815-4.79 5.05-4.79 8.535v68.286c0 1.286.248 2.56.731 3.753l2.505 6.186h-25.447v-96.547l10.65-18.1c.904-1.537 1.381-3.288 1.381-5.071 0-40.803 24.241-77.546 61.755-93.606 5.077-2.174 7.431-8.052 5.257-13.129-2.173-5.076-8.051-7.431-13.128-5.258-5.236 2.241-10.247 4.83-15.03 7.713-19.971-11.974-46.261-7.326-60.771 11.582-3.362 4.382-2.536 10.659 1.845 14.021 1.815 1.393 3.956 2.067 6.08 2.067 3.003 0 5.972-1.347 7.941-3.913 6.331-8.251 16.598-11.735 26.171-9.855-24.452 22.089-39.321 53.559-40.089 87.604l-10.681 18.153c-.904 1.537-1.381 3.288-1.381 5.072v109.27c0 5.522 4.477 10 10 10h36.115c6.513 0 12.574-3.225 16.213-8.625 3.64-5.4 4.353-12.228 1.909-18.264l-2.024-4.998v-35.699l25.072 61.368c1.537 3.761 5.195 6.218 9.257 6.218h41.481c3.266 0 6.326-1.595 8.197-4.271 1.871-2.677 2.316-6.099 1.194-9.166l-23.283-63.609c15.374 6.487 31.734 10.653 48.518 12.225 5.11.479 10.219.715 15.323.715 3.591 0 7.175-.137 10.749-.37l-16.455 51.431c-.973 3.041-.435 6.364 1.448 8.943 1.882 2.579 4.883 4.103 8.077 4.103h41.481c4.055 0 7.709-2.449 9.25-6.2l27.465-66.854v63.055c0 5.522 4.477 10 10 10h36.477c6.512 0 12.573-3.224 16.212-8.624 3.64-5.4 4.354-12.229 1.909-18.266l-2.024-4.998v-75.684l35.797-9.649c6.338 7.151 15.471 11.379 25.319 11.379h69.588c9.105 0 17.445-4.98 21.764-12.993l9.005-16.706c3.534-6.555 3.762-14.073 1.269-20.587 23.818-29.461 22.016-73.026-5.309-100.352zm-87.294 4.767c4.577 8.186 5.18 18.056 1.792 26.712-5.248-1.802-11.132-3.055-17.706-3.523zm-278.986 231.711h-20.455l-32.391-79.283c2.591-2.137 5.081-4.381 7.469-6.724 6.087 5.433 12.55 10.387 19.326 14.834zm102.854 0h-21.08l15.165-47.398c9.888-1.993 19.577-4.885 28.937-8.643zm254.813-215.882c14.128 19.342 14.087 45.982-.166 65.285l-19.768-11.067c12.225-15.464 19.24-34.469 19.934-54.218z"/><path id="XMLID_709_" d="m133.81 153.929c2.63 0 5.21-1.07 7.07-2.93s2.93-4.44 2.93-7.07-1.07-5.21-2.93-7.07c-1.86-1.859-4.44-2.93-7.07-2.93-2.64 0-5.21 1.07-7.08 2.93-1.86 1.86-2.92 4.44-2.92 7.07s1.06 5.21 2.92 7.07c1.87 1.86 4.44 2.93 7.08 2.93z"/></g></g></svg>