<svg id="Capa_1" enable-background="new 0 0 512 512" height="512" viewBox="0 0 512 512" width="512" xmlns="http://www.w3.org/2000/svg"><g id="XMLID_36_"><path id="XMLID_1060_" d="m342.799 466.093c35.506-33.066 58.496-85.911 58.496-145.459 0-45.936-13.682-87.879-36.237-119.832-23.008-32.595-34.48-71.829-32.96-111.697-.119-41.026-33.247-78.118-74.263-79.083-42.898-1.009-77.954 35.84-77.954 78.51 1.23 40.075-9.822 79.518-32.943 112.275-22.553 31.952-36.234 73.894-36.234 119.828 0 59.765 23.158 112.778 58.884 145.82z" fill="#8aa8bd"/><path id="XMLID_1084_" d="m304.014 354.121c-13.777 3.476-24.104-12.538-15.282-23.676 13.822-17.451 21.851-35.045 26.513-49.827 5.286-16.76 3.51-34.352-3.868-49.119-14.675-18.594-34.031-29.499-55.25-29.499-21.22 0-40.576 10.905-55.251 29.5-7.378 14.767-9.154 32.358-3.868 49.119 4.662 14.781 12.692 32.375 26.513 49.826 8.822 11.138-1.505 27.152-15.282 23.676-15.173-3.828-26.544-10.135-34.43-15.858.196 2.337.42 4.661.699 6.957v36.182c0 35.384 15.286 69.043 41.929 92.327l13.575 25.375c8.433 1.9 17.117 2.896 25.988 2.896 9.508 0 18.8-1.153 27.799-3.33l11.763-24.941c26.643-23.284 41.929-56.943 41.929-92.327v-34.176c.391-2.946.691-5.94.944-8.956-7.886 5.72-19.253 12.025-34.421 15.851z" fill="#fff"/><g id="XMLID_1768_" fill="#8aa8bd"><path id="XMLID_1771_" d="m228.143 502h-80c0-22.091 17.909-40 40-40 22.091 0 40 17.909 40 40z"/><path id="XMLID_1769_" d="m363.857 502h-80c0-22.091 17.909-40 40-40 22.091 0 40 17.909 40 40z"/></g><g id="XMLID_133_"><path id="XMLID_151_" d="m411.295 320.635c0-29.416-5.262-57.631-15.639-83.863-2.032-5.136-7.84-7.652-12.978-5.62-5.136 2.031-7.652 7.842-5.62 12.977 9.447 23.88 14.237 49.62 14.237 76.506 0 52.043-19.042 101.678-51.173 134.107-4.14-1.428-8.518-2.34-13.066-2.629 13.21-20.957 20.434-45.422 20.434-70.711v-37.464c8.297-6.55 12.449-12.016 12.789-12.473 3.294-4.433 2.391-10.722-2.042-14.016-4.433-3.296-10.678-2.397-13.973 2.035-.134.176-13.731 17.633-42.698 24.94-3.038.768-4.693-1.197-5.263-2.078-.573-.887-1.695-3.217.267-5.693 12.665-15.992 22.157-33.833 28.211-53.027 5.578-17.689 4.488-36.745-3.069-53.66-7.631-17.079-21.207-30.477-38.226-37.724-8.825-3.759-18.031-5.664-27.361-5.664-9.331 0-18.537 1.905-27.36 5.663-17.02 7.247-30.596 20.645-38.227 37.725-7.558 16.915-8.647 35.973-3.068 53.661 6.054 19.195 15.546 37.035 28.211 53.026 1.962 2.477.84 4.807.267 5.693-.57.88-2.227 2.844-5.263 2.078-28.966-7.308-42.564-24.765-42.66-24.89-3.294-4.433-9.559-5.353-13.991-2.061-4.433 3.295-5.355 9.559-2.061 13.991.336.453 4.407 5.812 12.535 12.273v37.665c0 25.287 7.216 49.755 20.425 70.712-4.543.289-8.918 1.201-13.054 2.627-32.139-32.434-51.175-82.029-51.175-134.106 0-42.122 12.218-82.63 34.404-114.062 24.045-34.067 36.068-74.932 34.773-118.187.041-18.438 7.734-36.5 21.122-49.577 12.82-12.522 29.375-19.213 46.597-18.79 34.793.819 64.287 32.36 64.497 68.921-.964 26.029 3.227 51.498 12.458 75.701 1.968 5.159 7.748 7.749 12.907 5.78 5.16-1.969 7.748-7.747 5.78-12.907-8.292-21.74-12.043-44.628-11.151-68.027.005-.137.008-.274.007-.41-.064-22.23-8.977-44.583-24.452-61.323-16.042-17.354-37.2-27.202-59.576-27.729-22.653-.545-44.336 8.159-61.042 24.477-17.252 16.852-27.147 40.189-27.147 64.031 0 .103.001.204.005.307 1.194 38.942-9.566 75.666-31.118 106.201-24.546 34.776-38.064 79.38-38.064 125.595 0 30.542 5.653 59.727 16.801 86.745 9.051 21.934 21.654 41.724 36.766 57.899-9.906 9.139-16.128 22.211-16.128 36.721 0 5.522 4.477 10 10 10h215.714c5.523 0 10-4.478 10-10 0-14.509-6.222-27.581-16.126-36.72 15.176-16.244 27.823-36.141 36.881-58.184 11.07-26.943 16.683-56.033 16.683-86.462zm-251.439 171.365c4.128-11.641 15.249-20 28.287-20s24.159 8.359 28.287 20zm131.726-28.146c-8.402 7.12-14.417 16.961-16.701 28.146h-37.763c-2.286-11.197-8.312-21.053-16.73-28.175-.003-.003-.005.003-.008 0-22.841-21.267-35.871-51.108-35.871-82.423v-25.231c6.168 2.943 13.248 5.618 21.284 7.646 10.491 2.648 21.07-1.518 26.95-10.61 5.888-9.104 5.345-20.477-1.383-28.972-11.147-14.074-19.497-29.761-24.815-46.624-8.447-26.779 4.756-56.195 30.057-66.969 12.666-5.395 26.382-5.395 39.049 0 25.299 10.773 38.502 40.189 30.057 66.968-5.319 16.863-13.668 32.55-24.816 46.625-6.728 8.495-7.271 19.867-1.383 28.972 4.706 7.276 12.418 11.396 20.689 11.396 2.065 0 4.165-.258 6.261-.786 7.924-1.999 14.924-4.626 21.03-7.521v25.107c.002 31.331-13.043 61.182-35.907 82.451zm3.988 28.146c4.127-11.641 15.249-20 28.287-20s24.159 8.359 28.287 20z"/><path id="XMLID_554_" d="m221.13 73.68c-1.87 1.86-2.93 4.43-2.93 7.07 0 2.63 1.06 5.21 2.93 7.069 1.86 1.86 4.44 2.931 7.07 2.931s5.21-1.07 7.07-2.931c1.86-1.859 2.93-4.439 2.93-7.069 0-2.641-1.07-5.21-2.93-7.07-1.86-1.87-4.44-2.93-7.07-2.93-2.63.001-5.21 1.06-7.07 2.93z"/><path id="XMLID_555_" d="m276.99 73.68c-1.87 1.86-2.93 4.43-2.93 7.07 0 2.63 1.06 5.21 2.93 7.069 1.86 1.86 4.43 2.931 7.07 2.931 2.63 0 5.2-1.07 7.07-2.931 1.86-1.859 2.93-4.439 2.93-7.069 0-2.641-1.07-5.21-2.93-7.07-1.86-1.87-4.44-2.93-7.07-2.93-2.64.001-5.211 1.06-7.07 2.93z"/><path id="XMLID_556_" d="m256.127 105.394c-4.176 0-8.068 2.246-10.157 5.864l-2.514 4.354c-2.089 3.617-2.089 8.111-.001 11.729s5.98 5.865 10.158 5.865h5.029c4.177 0 8.07-2.247 10.158-5.865 2.088-3.617 2.088-8.111 0-11.728l-2.515-4.356c-2.09-3.617-5.982-5.863-10.158-5.863z"/><path id="XMLID_557_" d="m365.06 210.801c2.63 0 5.21-1.07 7.07-2.93s2.93-4.44 2.93-7.07-1.07-5.21-2.93-7.07c-1.86-1.859-4.44-2.93-7.07-2.93s-5.21 1.07-7.07 2.93-2.93 4.44-2.93 7.07c0 2.64 1.07 5.21 2.93 7.07 1.859 1.859 4.44 2.93 7.07 2.93z"/></g></g></svg>