<svg id="Capa_1" enable-background="new 0 0 512 512" height="512" viewBox="0 0 512 512" width="512" xmlns="http://www.w3.org/2000/svg"><g id="XMLID_80_"><g id="XMLID_1311_"><path id="XMLID_1297_" d="m256 433.62c-18.778 0-34-15.222-34-34v-233.24c0-18.778 15.222-34 34-34 18.778 0 34 15.222 34 34v233.24c0 18.778-15.222 34-34 34z" fill="#80b6ff"/><path id="XMLID_1266_" d="m376 502c-47.497 0-86-38.504-86-86v-86h86c47.496 0 86 38.504 86 86 0 47.496-38.504 86-86 86z" fill="#ff7d97"/><path id="XMLID_1296_" d="m376 448c-17.673 0-32-14.327-32-32v-32h32c17.673 0 32 14.327 32 32 0 17.673-14.327 32-32 32z" fill="#80b6ff"/><path id="XMLID_1265_" d="m136 502c47.497 0 86-38.504 86-86v-86h-86c-47.496 0-86 38.504-86 86 0 47.496 38.504 86 86 86z" fill="#ff7d97"/><path id="XMLID_1067_" d="m502 77h-101.5c-61.027 0-110.5 49.473-110.5 110.5v142.5h101.5c61.027 0 110.5-49.473 110.5-110.5z" fill="#ffcd69"/><circle id="XMLID_1094_" cx="414" cy="165" fill="#ff7d97" r="32"/><circle id="XMLID_1093_" cx="368" cy="252" fill="#fff" r="22"/><path id="XMLID_1066_" d="m10 77h101.5c61.027 0 110.5 49.473 110.5 110.5v142.5h-101.5c-61.027 0-110.5-49.473-110.5-110.5z" fill="#ffcd69"/><circle id="XMLID_1096_" cx="98" cy="165" fill="#ff7d97" r="32"/><circle id="XMLID_1095_" cx="144" cy="252" fill="#fff" r="22"/><path id="XMLID_1295_" d="m136 448c17.673 0 32-14.327 32-32v-32h-32c-17.673 0-32 14.327-32 32 0 17.673 14.327 32 32 32z" fill="#80b6ff"/></g><g id="XMLID_248_"><path id="XMLID_781_" d="m502 67h-101.5c-49.135 0-91.488 29.564-110.224 71.835-5.995-7.445-14.357-12.9-23.936-15.216 4.484-57.888 53.021-103.619 112.04-103.619 5.522 0 10-4.477 10-10s-4.478-10-10-10c-55.137 0-102.502 33.888-122.38 81.926-19.878-48.038-67.242-81.926-122.38-81.926-5.523 0-10 4.477-10 10s4.477 10 10 10c59.018 0 107.555 45.731 112.04 103.619-9.579 2.316-17.941 7.771-23.936 15.216-18.736-42.271-61.089-71.835-110.224-71.835h-101.5c-5.523 0-10 4.477-10 10v142.5c0 54.11 35.852 100.001 85.047 115.175-27.037 17.001-45.047 47.097-45.047 81.325 0 52.935 43.065 96 96 96 46.38 0 85.182-33.062 94.08-76.855 7.276 5.323 16.235 8.475 25.92 8.475s18.644-3.152 25.92-8.475c8.898 43.793 47.7 76.855 94.08 76.855 52.935 0 96-43.065 96-96 0-34.232-18.014-64.331-45.056-81.331 33.068-10.173 60.807-34.31 75.087-67.106 2.204-5.063-.113-10.956-5.177-13.16-5.06-2.205-10.956.112-13.161 5.177-15.981 36.704-52.169 60.42-92.193 60.42h-91.5v-132.5c0-55.416 45.084-100.5 100.5-100.5h91.5v87.5c0 5.523 4.478 10 10 10s10-4.477 10-10v-97.5c0-5.523-4.478-10-10-10zm-222 134v41.333h-48v-41.333zm-48 61.333h48v41.333h-48zm0 61.334h48v41.333h-48zm24-181.287c13.233 0 24 10.767 24 24v14.62h-48v-14.62c0-13.234 10.767-24 24-24zm-135.5 177.62c-55.416 0-100.5-45.084-100.5-100.5v-132.5h91.5c55.416 0 100.5 45.084 100.5 100.5v132.5zm91.5 96c0 41.907-34.093 76-76 76s-76-34.093-76-76 34.093-76 76-76h76zm44 7.62c-13.233 0-24-10.767-24-24v-14.62h48v14.62c0 13.233-10.767 24-24 24zm120-83.62c41.906 0 76 34.093 76 76s-34.094 76-76 76-76-34.093-76-76v-76z"/><path id="XMLID_953_" d="m376 458c23.159 0 42-18.841 42-42s-18.841-42-42-42h-32c-5.522 0-10 4.477-10 10v32c0 23.159 18.841 42 42 42zm-22-64h22c12.131 0 22 9.869 22 22s-9.869 22-22 22-22-9.869-22-22z"/><path id="XMLID_1045_" d="m456 165c0-23.159-18.841-42-42-42s-42 18.841-42 42 18.841 42 42 42 42-18.841 42-42zm-64 0c0-12.131 9.869-22 22-22s22 9.869 22 22-9.869 22-22 22-22-9.869-22-22z"/><path id="XMLID_1048_" d="m336 252c0 17.645 14.355 32 32 32s32-14.355 32-32-14.355-32-32-32-32 14.355-32 32zm44 0c0 6.617-5.383 12-12 12s-12-5.383-12-12 5.383-12 12-12 12 5.383 12 12z"/><path id="XMLID_1144_" d="m168 374h-32c-23.159 0-42 18.841-42 42s18.841 42 42 42 42-18.841 42-42v-32c0-5.523-4.477-10-10-10zm-10 42c0 12.131-9.869 22-22 22s-22-9.869-22-22 9.869-22 22-22h22z"/><path id="XMLID_1161_" d="m140 165c0-23.159-18.841-42-42-42s-42 18.841-42 42 18.841 42 42 42 42-18.841 42-42zm-42 22c-12.131 0-22-9.869-22-22s9.869-22 22-22 22 9.869 22 22-9.869 22-22 22z"/><path id="XMLID_1169_" d="m144 220c-17.645 0-32 14.355-32 32s14.355 32 32 32 32-14.355 32-32-14.355-32-32-32zm0 44c-6.617 0-12-5.383-12-12s5.383-12 12-12 12 5.383 12 12-5.383 12-12 12z"/><path id="XMLID_1180_" d="m502 209.5c-2.63 0-5.21 1.07-7.07 2.93s-2.93 4.44-2.93 7.07 1.069 5.21 2.93 7.07c1.86 1.86 4.44 2.93 7.07 2.93s5.21-1.07 7.069-2.93c1.86-1.86 2.931-4.44 2.931-7.07s-1.07-5.21-2.931-7.07c-1.859-1.86-4.439-2.93-7.069-2.93z"/></g></g></svg>