<svg id="Capa_1" enable-background="new 0 0 512.001 512.001" height="512" viewBox="0 0 512.001 512.001" width="512" xmlns="http://www.w3.org/2000/svg"><g id="XMLID_46_"><g id="XMLID_47_"><path id="XMLID_1122_" d="m173.191 361.946-9.224 40.216c8.899 10.529 13.891 23.999 13.891 37.784h45.162c0-13.786-4.992-27.255-13.891-37.784 0 0 3.858-25.15 6.167-40.205z" fill="#ff5d7d"/><path id="XMLID_1123_" d="m363.003 361.946-9.224 40.216c8.899 10.529 13.891 23.999 13.891 37.784h45.162c0-13.786-4.992-27.255-13.89-37.784 0 0 5.773-43.791 8.082-58.846z" fill="#ff5d7d"/><g id="XMLID_1116_" fill="#ff7d97"><path id="XMLID_1120_" d="m173.191 361.946c.087.002.14.004.199.005-.103-.002-.199-.005-.199-.005z"/><path id="XMLID_1119_" d="m173.39 361.951c.05.001.098.002.142.003-.035 0-.083-.001-.142-.003z"/><path id="XMLID_1118_" d="m446.226 171.277c-12.051-18.86-29.062-34.243-49.197-44.307l14.194-52.973c-30.364-8.136-61.559 9.733-69.97 39.95h-168.062c-68.483 0-124 55.517-124 124 0 33.955 13.649 64.721 35.759 87.113 22.084 22.365 34.907 52.236 34.907 83.667v21.73c0 5.241 4.249 9.489 9.489 9.489h48.511c0-13.786-4.992-27.255-13.891-37.784l9.224-40.216h136.5v68.511c0 5.241 4.249 9.489 9.489 9.489h48.511c0-13.786-4.992-27.255-13.891-37.784 0 0 4.074-26.561 6.383-41.616 48.497-7.264 87.815-42.589 100.858-88.94l40.96-23.315v-58h-21.282c-13.998 0-26.955-7.218-34.492-19.014z"/><path id="XMLID_1117_" d="m173.532 361.955c.153.003.109.002 0 0z"/></g><g id="XMLID_1115_"><path id="XMLID_51_" d="m395.671 210.949c-2.64 0-5.21-1.07-7.07-2.93-1.87-1.86-2.93-4.44-2.93-7.07 0-2.64 1.06-5.21 2.93-7.07 1.86-1.87 4.43-2.93 7.07-2.93 2.63 0 5.21 1.06 7.07 2.93 1.86 1.86 2.93 4.43 2.93 7.07 0 2.63-1.07 5.21-2.93 7.07s-4.44 2.93-7.07 2.93z"/></g><g id="XMLID_50_"><g id="XMLID_54_"><path id="XMLID_56_" d="m251.451 123.949c-2.64 0-5.21-1.07-7.07-2.93s-2.93-4.44-2.93-7.07c0-2.64 1.07-5.21 2.93-7.07 1.86-1.87 4.43-2.93 7.07-2.93 2.63 0 5.21 1.06 7.07 2.93 1.86 1.86 2.93 4.44 2.93 7.07s-1.07 5.21-2.93 7.07-4.44 2.93-7.07 2.93z"/></g></g></g><path id="XMLID_95_" d="m502.001 180.291h-21.282c-10.561 0-20.306-5.383-26.066-14.398-11.602-18.157-27.37-33.229-45.919-43.97l12.148-45.337c1.43-5.335-1.736-10.818-7.071-12.248-32.955-8.83-67.112 8.708-79.694 39.608h-37.669c-5.523 0-10 4.477-10 10s4.477 10 10 10h44.805c4.49 0 8.43-2.993 9.634-7.318 6-21.557 26.278-35.542 47.81-34.523l-11.328 42.276c-1.229 4.589.939 9.409 5.188 11.533 18.46 9.227 34.104 23.317 45.242 40.747 9.454 14.796 25.499 23.63 42.92 23.63h11.282v42.186l-35.906 20.438c-2.286 1.301-3.967 3.45-4.679 5.982-12.113 43.045-48.505 75.138-92.714 81.76-4.333.649-7.739 4.043-8.403 8.374l-6.383 41.616c-.439 2.857.381 5.764 2.246 7.971 5.234 6.193 8.813 13.541 10.472 21.329h-36.944v-101.5c0-5.523-4.477-10-10-10s-10 4.477-10 10v23.5h-84.356c7.702-9.398 12.333-21.406 12.333-34.477 0-5.523-4.477-10-10-10s-10 4.477-10 10c0 19.01-15.466 34.477-34.477 34.477-4.662 0-8.704 3.221-9.747 7.765l-9.224 40.216c-.703 3.067.078 6.287 2.109 8.69 5.234 6.193 8.813 13.541 10.472 21.329h-36.944l-.001-21.22c0-33.803-13.421-66.012-37.791-90.693-21.2-21.47-32.875-49.912-32.875-80.087 0-62.86 51.14-114 114-114h33.257c5.523 0 10-4.477 10-10s-4.477-10-10-10h-33.257c-52.598 0-98.207 30.467-120.128 74.676-4.764 3.374-10.413 4.918-16.354 4.454-4.833-.378-9.226-2.614-12.37-6.297s-4.664-8.372-4.279-13.205c.549-6.893 6.605-12.067 13.499-11.524 5.505.428 10.318-3.684 10.75-9.19.431-5.506-3.684-10.319-9.19-10.75-17.87-1.394-33.572 12.004-34.995 29.875-.81 10.163 2.388 20.028 9.004 27.778s15.857 12.456 26.022 13.251c1.183.092 2.363.138 3.542.138 1.734 0 3.46-.101 5.17-.297-3.039 11.189-4.671 22.951-4.671 35.089 0 35.469 13.724 68.902 38.644 94.139 20.65 20.914 32.023 48.132 32.023 76.642l.001 21.73c0 10.747 8.743 19.489 19.489 19.489h93.672c5.523 0 10-4.477 10-10 0-14.569-4.712-28.799-13.349-40.556l4.21-27.444h75.81v58.511c0 10.747 8.743 19.489 19.489 19.489h93.652c5.523 0 10-4.477 10-10 0-14.612-4.738-28.881-13.423-40.657 1.341-10.107 4.802-36.045 6.841-50.036 24.856-16.663 43.933-41.471 53.226-70.941l37.473-21.33c3.124-1.778 5.053-5.096 5.053-8.691v-58c.001-5.522-4.476-9.999-9.999-9.999zm-314.896 249.655c-1.618-10.852-5.834-21.226-12.327-30.187l6.379-27.813h22.49l-4.402 28.7c-.439 2.857.381 5.764 2.247 7.971 5.234 6.193 8.812 13.542 10.472 21.329zm189.832 0c-1.64-11.001-5.95-21.511-12.595-30.556l4.642-30.26c8.797-1.823 17.292-4.514 25.39-7.979-2.432 17.615-5.182 38.457-5.346 39.704-.368 2.793.458 5.611 2.276 7.762 5.234 6.193 8.813 13.541 10.472 21.329z"/></g></svg>