<svg id="Capa_1" enable-background="new 0 0 512 512" height="512" viewBox="0 0 512 512" width="512" xmlns="http://www.w3.org/2000/svg"><g id="XMLID_35_"><g id="XMLID_1203_"><g id="XMLID_1800_"><path id="XMLID_297_" d="m334.974 401.931v-86.377c-9.706 8.512-20.651 15.647-32.54 21.077-8.232 3.76-13.585 11.893-13.585 20.944v44.356l6.882 12.615c3.567 6.539-.627 14.414-7.697 15.413.471.065.948.11 1.436.11h44.92c7.179 0 11.741-7.685 8.303-13.987z" fill="#8aa8bd"/></g><g id="XMLID_1804_"><path id="XMLID_296_" d="m146.125 401.931v-53.304h-2.777c-15.176 0-29.757-2.541-43.348-7.21v60.515l6.882 12.615c3.567 6.538-.626 14.414-7.697 15.413.471.065.948.11 1.436.11h44.92c7.179 0 11.741-7.685 8.303-13.987z" fill="#8aa8bd"/></g><g id="XMLID_237_"><g id="XMLID_1003_"><path id="XMLID_295_" d="m330.311 119.684c-24.019-23.36-56.804-37.753-92.956-37.753h-94.007c-73.646 0-133.348 59.702-133.348 133.348v.001c0 23.508 6.086 45.593 16.766 64.77 11.077 19.888 17.234 42.138 17.234 64.904v75.615c0 5.247 4.253 9.5 9.5 9.5h45.916c7.179 0 11.741-7.685 8.303-13.988l-7.719-14.15v-60.515c13.591 4.67 28.172 7.21 43.348 7.21h89.501v71.942c0 5.247 4.253 9.5 9.5 9.5h45.916c7.18 0 11.741-7.685 8.303-13.988l-7.719-14.15v-59.977c25.35-8.352 47.34-24.097 63.415-44.689z" fill="#a7bdcd"/></g><g id="XMLID_1475_"><g id="XMLID_1477_"><path d="m444.617 102.817c-11.902 0-21.551 9.649-21.551 21.551v21.551h21.551c11.902 0 21.551-9.649 21.551-21.551 0-11.902-9.649-21.551-21.551-21.551z" fill="#ff7d97"/></g></g><g id="XMLID_1501_"><g id="XMLID_1503_"><path d="m287.673 105.402c11.902 0 21.551 9.649 21.551 21.551v21.551h-21.551c-11.902 0-21.551-9.649-21.551-21.551 0-11.902 9.649-21.551 21.551-21.551z" fill="#ff7d97"/></g></g><g id="XMLID_1179_"><path id="XMLID_195_" d="m292.862 210.016c0 47.888 38.821 86.709 86.708 86.709h60.607c33.922 0 62.256-27.757 61.817-61.677-.426-32.884-26.931-59.462-59.778-60.041-8.007-33.57-38.347-58.474-74.457-58.091-41.667.442-74.898 35.076-74.898 76.745v16.355z" fill="#a7bdcd"/></g></g></g><g id="XMLID_298_"><path id="XMLID_301_" d="m491.349 185.856c-11.283-11.327-25.787-18.393-41.449-20.321-1.102-3.298-2.417-6.517-3.909-9.651 16.762-.722 30.178-14.58 30.178-31.516 0-17.397-14.154-31.551-31.552-31.551-15.777 0-28.886 11.641-31.191 26.784-13.682-8.388-29.607-12.842-45.772-12.685-11.185.119-21.862 2.457-31.648 6.562-27.912-26.425-63.744-41.548-98.651-41.548h-94.007c-22.087 0-43.022 5.025-61.726 13.986-23.164-18.606-57.211-17.177-78.693 4.304-3.905 3.905-3.905 10.237 0 14.143 3.905 3.905 10.237 3.905 14.143 0 12.212-12.213 30.564-14.619 45.207-7.238-37.585 25.869-62.279 69.179-62.279 118.154 0 8.037.672 16.099 1.997 23.962.823 4.884 5.056 8.341 9.849 8.34.552 0 1.111-.046 1.673-.141 5.446-.917 9.117-6.076 8.2-11.522-1.14-6.768-1.718-13.713-1.718-20.64 0-68.014 55.334-123.348 123.348-123.348h94.007c12.31 0 24.79 2.235 36.908 6.471-10.709 5.05-18.141 15.947-18.141 28.551 0 17.397 14.153 31.551 31.551 31.551h2.621c-4.76 10.769-7.432 22.664-7.432 35.157 0 5.523 4.478 10 10 10s10-4.477 10-10c0-36.423 29.16-66.366 65.004-66.746.241-.002.48-.004.721-.004 30.583 0 56.801 20.641 63.902 50.415 1.06 4.439 4.988 7.598 9.552 7.678 20.263.357 37.446 12.291 45.332 29.517h-12.474c-5.522 0-10 4.477-10 10s4.478 10 10 10h17.072c.006.219.022.435.025.655.174 13.411-5.039 26.174-14.678 35.939-9.791 9.919-23.328 15.608-37.141 15.608h-103.45c-18.674 0-33.865-15.192-33.865-33.865 0-5.523-4.478-10-10-10s-10 4.477-10 10c0 27.524 20.756 50.278 47.436 53.468-12.81 11.733-27.93 20.643-44.578 26.129-4.101 1.35-6.871 5.181-6.871 9.497v59.978c0 1.673.42 3.32 1.222 4.789l7.281 13.349h-44.503v-71.442c0-5.523-4.477-10-10-10h-132.85c-5.523 0-10 4.477-10 10v53.304c0 1.673.42 3.32 1.221 4.789l7.282 13.349h-44.503v-75.115c0-8.087-.729-16.266-2.167-24.309-.972-5.437-6.167-9.06-11.604-8.084-5.437.972-9.056 6.167-8.084 11.604 1.23 6.884 1.854 13.879 1.854 20.789v75.706c0 10.703 8.707 19.41 19.409 19.41h92.132c6.936 0 13.191-3.561 16.732-9.525 3.541-5.965 3.672-13.162.35-19.251l-6.498-11.911v-40.754h66.724v62.032c0 10.703 8.707 19.41 19.409 19.41h92.132c6.937 0 13.191-3.561 16.733-9.526 3.541-5.965 3.671-13.162.349-19.251l-6.497-11.912v-79.38c4.419-4.139 8.598-8.564 12.501-13.275h82.703c19.125 0 37.851-7.857 51.374-21.558 13.427-13.601 20.687-31.446 20.442-50.247-.239-18.516-7.571-35.939-20.645-49.064zm-58.283-61.488c0-6.369 5.182-11.551 11.551-11.551 6.37 0 11.552 5.182 11.552 11.551s-5.182 11.551-11.552 11.551h-11.551zm-156.944 2.585c0-6.369 5.182-11.551 11.551-11.551s11.551 5.182 11.551 11.551v11.551h-11.551c-6.369 0-11.551-5.182-11.551-11.551zm-138.776 279.767 7.282 13.349h-25.745c-.086-3.008-.875-6.007-2.386-8.777l-6.497-11.911v-40.754h26.125v43.304c0 1.674.42 3.32 1.221 4.789zm188.85 0 7.281 13.349h-25.744c-.086-3.008-.875-6.007-2.387-8.776l-6.497-11.912v-50.388c9.188-3.553 17.93-8.026 26.125-13.333v66.271c0 1.674.42 3.32 1.222 4.789z"/><path id="XMLID_305_" d="m383.677 224.523c0 5.523 4.478 10 10 10h19.905c5.522 0 10-4.477 10-10s-4.478-10-10-10h-19.905c-5.522 0-10 4.477-10 10z"/><path id="XMLID_306_" d="m361.01 186.5c1.86-1.86 2.93-4.44 2.93-7.07s-1.069-5.21-2.93-7.07c-1.86-1.86-4.44-2.93-7.07-2.93s-5.21 1.07-7.069 2.93c-1.86 1.86-2.931 4.44-2.931 7.07 0 2.64 1.07 5.21 2.931 7.07 1.859 1.87 4.44 2.93 7.069 2.93 2.63 0 5.21-1.06 7.07-2.93z"/><path id="XMLID_307_" d="m410.9 186.5c1.86-1.86 2.931-4.43 2.931-7.07 0-2.63-1.07-5.21-2.931-7.07-1.869-1.86-4.439-2.93-7.069-2.93-2.641 0-5.21 1.07-7.07 2.93-1.87 1.86-2.93 4.44-2.93 7.07 0 2.64 1.059 5.21 2.93 7.07 1.85 1.86 4.43 2.93 7.07 2.93 2.629 0 5.209-1.07 7.069-2.93z"/><path id="XMLID_308_" d="m36.77 280.05c0-2.63-1.07-5.21-2.93-7.07-1.87-1.86-4.44-2.93-7.07-2.93-2.64 0-5.21 1.07-7.07 2.93-1.87 1.86-2.93 4.44-2.93 7.07s1.06 5.21 2.93 7.07c1.85 1.86 4.43 2.93 7.07 2.93 2.63 0 5.21-1.07 7.07-2.93s2.93-4.44 2.93-7.07z"/></g></g></svg>