<svg id="Layer_1" enable-background="new 0 0 512 512" height="512" viewBox="0 0 512 512" width="512" xmlns="http://www.w3.org/2000/svg"><g><path d="m502 256-80-80h-332l-80 80" fill="#ff9eb1"/><path d="m256 156-100 100h200z" fill="#ffbecb"/><path d="m10 256h146v220h-146z" fill="#99ebfa"/><path d="m63 296h40v40h-40z" fill="#fff"/><path d="m62 376h40v40h-40z" fill="#fff"/><path d="m356 256h146v220h-146z" fill="#99ebfa"/><path d="m409 296h40v40h-40z" fill="#fff"/><path d="m408 376h40v40h-40z" fill="#fff"/><path d="m156 256h200v220h-200z" fill="#ccf5fc"/><path d="m216 396h80v80h-80z" fill="#fff"/><path d="m256 36h80v60h-80z" fill="#ffee80"/><g><path d="m511.95 255.002c-.024-.243-.066-.481-.107-.719-.015-.083-.022-.168-.038-.251-.057-.287-.131-.568-.213-.846-.01-.033-.016-.067-.026-.099-.087-.285-.189-.562-.299-.835-.011-.027-.019-.056-.031-.083-.108-.26-.231-.512-.359-.761-.021-.041-.038-.084-.06-.125-.12-.224-.254-.439-.39-.652-.04-.063-.074-.128-.116-.19-.13-.194-.273-.378-.416-.561-.058-.074-.109-.153-.169-.226-.177-.215-.366-.419-.56-.618-.033-.034-.061-.071-.095-.105l-80-80c-1.875-1.877-4.419-2.931-7.071-2.931h-141.857l-14.143-14.143v-45.857h70c5.523 0 10-4.477 10-10v-60c0-5.523-4.477-10-10-10h-80c-5.523 0-10 4.477-10 10v115.857l-14.143 14.143h-141.857c-2.652 0-5.196 1.054-7.071 2.929l-80 80c-.034.034-.062.071-.095.105-.194.199-.383.403-.56.618-.059.072-.11.15-.167.224-.143.185-.287.369-.417.564-.04.06-.073.124-.112.185-.138.215-.272.432-.393.658-.022.041-.039.084-.06.125-.129.248-.251.501-.359.761-.011.027-.019.056-.031.083-.111.273-.213.551-.299.835-.01.032-.016.066-.025.098-.082.278-.156.56-.213.848-.016.078-.022.159-.036.237-.042.242-.085.485-.109.733-.036.329-.053.662-.053.997v220c0 5.523 4.477 10 10 10h492c5.523 0 10-4.477 10-10v-220c0-.335-.017-.668-.05-.998zm-245.95-209.002h60v40h-60zm151.858 140 60 60h-117.715l-60-60zm-171.858 220v60h-20v-60zm20 0h20v60h-20zm40 0h10c5.523 0 10-4.477 10-10s-4.477-10-10-10h-120c-5.523 0-10 4.477-10 10s4.477 10 10 10h10v60h-40v-200h180v200h-40zm-62.93-222.928.003-.003 12.927-12.927 12.928 12.928c.001.001.002.002.003.003l62.927 62.927h-151.716zm-148.928 2.928h117.715l-60 60h-117.715zm-74.142 80h126v200h-126zm346 200v-200h126v200z" fill="#60a4ff"/></g><circle cx="256" cy="326" fill="#fff" r="30"/></g></svg>