<svg id="Layer_1" enable-background="new 0 0 512 512" height="512" viewBox="0 0 512 512" width="512" xmlns="http://www.w3.org/2000/svg"><g><path d="m116 102h200c11.046 0 20 8.954 20 20v360c0 11.046-8.954 20-20 20h-200c-11.046 0-20-8.954-20-20v-360c0-11.046 8.954-20 20-20z" fill="#fff2a0"/><path d="m136 142h160v320h-160z" fill="#fff"/><path d="m136 382h80v80h-80z" fill="#99ebfa"/><path d="m136 302h80v80h-80z" fill="#ffbecb"/><path d="m136 142h80v80h-80z" fill="#d0f2d2"/><path d="m216 142h80v80h-80z" fill="#ffbecb"/><path d="m216 302h80v80h-80z" fill="#d0f2d2"/><path d="m216 222h80v80h-80z" fill="#99ebfa"/><g><path d="m416 330c0 20-20 60-20 60s-20-40-20-60c0-11.046 8.954-20 20-20s20 8.954 20 20z" fill="#ffee80"/><path d="m396 310c-11.046 0-20-8.954-20-20v-260c0-11.046 8.954-20 20-20 11.046 0 20 8.954 20 20v260c0 11.046-8.954 20-20 20z" fill="#ffee80"/><path d="m416 270v20c0 11.05-8.95 20-20 20s-20-8.95-20-20v-20z" fill="#fff"/><g fill="#ffa96b"><path d="m316 92h-200c-16.542 0-30 13.458-30 30v360c0 16.542 13.458 30 30 30h200c16.542 0 30-13.458 30-30v-360c0-16.542-13.458-30-30-30zm10 390c0 5.514-4.486 10-10 10h-200c-5.514 0-10-4.486-10-10v-360c0-5.514 4.486-10 10-10h200c5.514 0 10 4.486 10 10z"/><path d="m296 132h-160c-5.522 0-10 4.477-10 10v320c0 5.523 4.478 10 10 10h160c5.522 0 10-4.477 10-10v-320c0-5.523-4.478-10-10-10zm-90 160h-60v-60h60zm20-60h60v60h-60zm-80 80h60v60h-60zm80 0h60v60h-60zm60-100h-60v-60h60zm-80-60v60h-60v-60zm-60 240h60v60h-60zm80 60v-60h60v60z"/><path d="m396 0c-16.542 0-30 13.458-30 30v260c0 7.678 2.902 14.688 7.664 20-4.761 5.312-7.664 12.322-7.664 20 0 21.733 18.9 60.162 21.056 64.472 1.694 3.388 5.156 5.528 8.944 5.528s7.25-2.14 8.944-5.528c2.156-4.31 21.056-42.739 21.056-64.472 0-7.678-2.902-14.688-7.664-20 4.761-5.312 7.664-12.322 7.664-20v-260c0-16.542-13.458-30-30-30zm-10 290v-10h20v10c0 5.514-4.486 10-10 10s-10-4.486-10-10zm10-270c5.514 0 10 4.486 10 10v230h-20v-230c0-5.514 4.486-10 10-10zm.002 345.58c-5.304-13.102-10.002-27.41-10.002-35.58 0-5.514 4.486-10 10-10s10 4.486 10 10c0 8.664-4.922 23.121-9.998 35.58z"/></g></g></g></svg>