<svg id="Layer_1" enable-background="new 0 0 512 512" height="512" viewBox="0 0 512 512" width="512" xmlns="http://www.w3.org/2000/svg"><g><path d="m330 476h-320v-340l100-100h220z" fill="#ffbecb"/><path d="m110 36v100h-100" fill="#ff9eb1"/><g><g><path d="m290 106h-140c-5.523 0-10-4.477-10-10s4.477-10 10-10h140c5.523 0 10 4.477 10 10s-4.477 10-10 10z" fill="#ffdfe5"/></g><g><path d="m230 146h-80c-5.523 0-10-4.477-10-10s4.477-10 10-10h80c5.523 0 10 4.477 10 10s-4.477 10-10 10z" fill="#ffdfe5"/></g><g><path d="m290 246h-120c-5.523 0-10-4.477-10-10s4.477-10 10-10h120c5.523 0 10 4.477 10 10s-4.477 10-10 10z" fill="#ffdfe5"/></g><g><path d="m256 286h-86c-5.523 0-10-4.477-10-10s4.477-10 10-10h86c5.523 0 10 4.477 10 10s-4.477 10-10 10z" fill="#ffdfe5"/></g><g><path d="m216 326h-166c-5.523 0-10-4.477-10-10s4.477-10 10-10h166c5.523 0 10 4.477 10 10s-4.477 10-10 10z" fill="#ffdfe5"/></g><g><path d="m196 366h-146c-5.523 0-10-4.477-10-10s4.477-10 10-10h146c5.523 0 10 4.477 10 10s-4.477 10-10 10z" fill="#ffdfe5"/></g><g><path d="m176 406h-126c-5.523 0-10-4.477-10-10s4.477-10 10-10h126c5.523 0 10 4.477 10 10s-4.477 10-10 10z" fill="#ffdfe5"/></g><g><path d="m290 206h-120c-5.523 0-10-4.477-10-10s4.477-10 10-10h120c5.523 0 10 4.477 10 10s-4.477 10-10 10z" fill="#ffdfe5"/></g></g><path d="m50 196h80v80h-80z" fill="#fff"/><g><path d="m282 376 220-220-40-40-220 220-20 60z" fill="#ffee80"/><path d="m282 376-60 20 20-60z" fill="#ffdfe5"/><path d="m433.716 127.716h56.569v56.569h-56.569z" fill="#ff9eb1" transform="matrix(.707 -.707 .707 .707 25.008 372.375)"/></g><path d="m396 376h60v60h-60z" fill="#ccf5fc"/><path d="m456 376h-60v-60h40l20 20z" fill="#ffbecb"/><g fill="#ff5a58"><path d="m509.071 148.929-40-40c-3.905-3.904-10.237-3.904-14.143 0l-114.928 114.928v-187.857c0-5.523-4.477-10-10-10h-220c-.335 0-.668.017-.998.05-.243.024-.481.066-.719.107-.083.015-.168.022-.251.038-.287.057-.568.131-.846.213-.033.01-.067.016-.099.026-.285.087-.562.189-.835.299-.027.011-.056.019-.083.031-.26.108-.512.231-.761.359-.041.021-.084.038-.125.06-.224.12-.439.254-.652.39-.063.04-.128.074-.19.116-.194.13-.378.273-.561.416-.074.058-.153.109-.226.169-.215.177-.419.366-.618.56-.034.033-.071.062-.105.095l-100 100c-.034.033-.062.071-.095.105-.194.199-.383.403-.56.618-.059.072-.11.15-.167.224-.143.185-.287.369-.417.564-.04.06-.073.124-.112.185-.138.215-.272.432-.393.658-.022.041-.039.084-.06.125-.129.248-.251.5-.359.761-.011.027-.019.056-.031.083-.111.273-.213.551-.299.835-.01.032-.016.066-.025.098-.082.278-.156.56-.213.847-.016.078-.022.159-.036.237-.042.242-.085.485-.109.733-.038.33-.055.663-.055.998v340c0 5.523 4.477 10 10 10h320c5.523 0 10-4.477 10-10v-143.857l169.071-169.071c3.905-3.906 3.905-10.238 0-14.143zm-227.071 212.929-25.858-25.858 165.858-165.858 25.858 25.858zm-35.63-7.345 17.117 17.117-25.676 8.559zm-146.37-294.371v65.858h-65.858zm220 405.858h-300v-320h90c5.523 0 10-4.477 10-10v-90h200v197.857l-85.071 85.071c-.265.265-.508.542-.737.828-.056.07-.105.144-.158.215-.171.225-.334.453-.483.689-.054.086-.103.174-.154.261-.137.232-.266.467-.383.708-.046.094-.089.188-.132.284-.111.247-.21.497-.299.75-.021.059-.05.115-.069.174l-20 60c-1.198 3.593-.263 7.555 2.416 10.233 1.906 1.906 4.462 2.929 7.073 2.929 1.058 0 2.125-.168 3.161-.514l60-20c.061-.02.117-.05.178-.071.251-.089.499-.187.744-.297.097-.043.193-.087.288-.134.239-.116.472-.244.703-.38.089-.052.178-.102.265-.156.235-.149.462-.311.687-.481.072-.054.146-.103.217-.159.286-.229.563-.472.828-.737l30.926-30.927zm142-284.142-25.858-25.858 25.858-25.858 25.858 25.858z"/><path d="m443.071 308.929c-1.875-1.875-4.419-2.929-7.071-2.929h-40c-5.523 0-10 4.477-10 10v120c0 5.523 4.477 10 10 10h60c5.523 0 10-4.477 10-10v-100c0-2.652-1.054-5.196-2.929-7.071zm-11.213 17.071 14.142 14.142v25.858h-40v-40zm-25.858 100v-40h40v40z"/></g></g></svg>