<svg id="Layer_1" enable-background="new 0 0 512 512" height="512" viewBox="0 0 512 512" width="512" xmlns="http://www.w3.org/2000/svg"><g><path d="m330 476h-320v-340l100-100h220z" fill="#ccf5fc"/><g><g><path d="m290 106h-140c-5.523 0-10-4.477-10-10s4.477-10 10-10h140c5.522 0 10 4.477 10 10s-4.478 10-10 10z" fill="#99ebfa"/></g><g><path d="m230 146h-80c-5.523 0-10-4.477-10-10s4.477-10 10-10h80c5.523 0 10 4.477 10 10s-4.477 10-10 10z" fill="#99ebfa"/></g><g><path d="m256 246h-86c-5.523 0-10-4.477-10-10s4.477-10 10-10h86c5.522 0 10 4.477 10 10s-4.478 10-10 10z" fill="#99ebfa"/></g><g><path d="m216 286h-46c-5.523 0-10-4.477-10-10s4.477-10 10-10h46c5.523 0 10 4.477 10 10s-4.477 10-10 10z" fill="#99ebfa"/></g><g><path d="m176 326h-126c-5.523 0-10-4.477-10-10s4.477-10 10-10h126c5.523 0 10 4.477 10 10s-4.477 10-10 10z" fill="#99ebfa"/></g><g><path d="m176 366h-126c-5.523 0-10-4.477-10-10s4.477-10 10-10h126c5.523 0 10 4.477 10 10s-4.477 10-10 10z" fill="#99ebfa"/></g><g><path d="m216 406h-166c-5.523 0-10-4.477-10-10s4.477-10 10-10h166c5.523 0 10 4.477 10 10s-4.477 10-10 10z" fill="#99ebfa"/></g><g><path d="m290 206h-120c-5.523 0-10-4.477-10-10s4.477-10 10-10h120c5.522 0 10 4.477 10 10s-4.478 10-10 10z" fill="#99ebfa"/></g></g><path d="m50 196h80v80h-80z" fill="#fff"/><path d="m110 36v100h-100" fill="#99ebfa"/><g><path d="m182.294 203.574h339.411v84.853h-339.411z" fill="#ffee80" transform="matrix(.707 -.707 .707 .707 -70.85 320.953)"/><g><path d="m509.071 148.929-60-60c-3.906-3.905-10.236-3.905-14.143 0l-94.928 94.929v-147.858c0-5.523-4.478-10-10-10h-220c-.335 0-.668.017-.998.05-.243.024-.481.066-.719.107-.083.015-.168.022-.251.038-.287.057-.568.131-.846.213-.033.01-.067.016-.099.026-.285.087-.562.189-.835.299-.027.011-.056.019-.083.031-.26.108-.512.231-.761.359-.041.021-.084.038-.125.06-.224.12-.439.254-.652.39-.063.04-.129.074-.19.116-.194.13-.377.273-.561.416-.074.058-.153.109-.226.169-.215.177-.419.366-.618.56-.034.033-.071.062-.105.095l-100 100c-.033.033-.062.071-.095.105-.194.199-.383.403-.56.618-.059.072-.11.15-.167.224-.143.185-.287.369-.417.564-.04.06-.073.124-.112.185-.137.215-.272.432-.393.658-.022.041-.039.084-.06.125-.129.248-.251.5-.359.761-.011.027-.019.056-.031.083-.111.273-.213.551-.299.835-.01.032-.016.066-.025.098-.082.278-.156.56-.213.847-.016.078-.022.159-.036.237-.042.242-.085.485-.109.733-.038.33-.055.663-.055.998v340c0 5.523 4.477 10 10 10h320c5.522 0 10-4.477 10-10v-143.857l169.071-169.071c3.906-3.906 3.906-10.238 0-14.143zm-409.071-88.787v65.858h-65.858zm-80 405.858v-320h90c5.523 0 10-4.477 10-10v-90h200v157.857l-125.071 125.072c-3.905 3.905-3.905 10.237 0 14.143l60 60c1.952 1.952 4.511 2.928 7.071 2.928s5.118-.976 7.071-2.929l50.929-50.928v113.857zm452.123-294.266-22.929-22.929c-3.906-3.904-10.236-3.904-14.143 0-3.905 3.905-3.905 10.237 0 14.143l22.929 22.929-15.857 15.857-12.929-12.929c-3.906-3.904-10.236-3.904-14.143 0-3.905 3.905-3.905 10.237 0 14.143l12.929 12.929-15.98 15.981-22.929-22.929c-3.906-3.904-10.236-3.904-14.143 0-3.905 3.905-3.905 10.237 0 14.143l22.93 22.928-15.858 15.858-12.929-12.929c-3.906-3.904-10.236-3.904-14.143 0-3.905 3.905-3.905 10.237 0 14.143l12.93 12.928-15.858 15.858-22.929-22.929c-3.906-3.904-10.236-3.904-14.143 0-3.905 3.905-3.905 10.237 0 14.143l22.93 22.928-15.858 15.858-12.929-12.929c-3.906-3.904-10.236-3.904-14.143 0-3.905 3.905-3.905 10.237 0 14.143l12.93 12.928-15.858 15.858-22.929-22.929c-3.906-3.904-10.237-3.904-14.143 0-3.905 3.905-3.905 10.237 0 14.143l22.93 22.928-15.858 15.858-45.858-45.858 225.858-225.858 45.857 45.858z" fill="#60a4ff"/></g></g></g></svg>