<svg id="Layer_1" enable-background="new 0 0 512.001 512.001" height="512" viewBox="0 0 512.001 512.001" width="512" xmlns="http://www.w3.org/2000/svg"><g><path d="m166 50c0-22.091-17.909-40-40-40s-40 17.909-40 40v400h220l100-100v-260h-280c22.092 0 40-17.909 40-40z" fill="#e6e6f9"/><path d="m306 450v-100h100" fill="#b5b3ee"/><path d="m406 10h-280c22.091 0 40 17.909 40 40s-17.909 40-40 40h280c22.091 0 40-17.909 40-40s-17.908-40-40-40z" fill="#b5b3ee"/><g><g><path d="m366 220h-240c-5.522 0-10-4.477-10-10s4.478-10 10-10h240c5.522 0 10 4.477 10 10s-4.477 10-10 10z" fill="#cecdf3"/></g><g><path d="m366 180h-240c-5.522 0-10-4.477-10-10s4.478-10 10-10h240c5.522 0 10 4.477 10 10s-4.477 10-10 10z" fill="#cecdf3"/></g><g><path d="m366 260h-240c-5.522 0-10-4.477-10-10s4.478-10 10-10h240c5.522 0 10 4.477 10 10s-4.477 10-10 10z" fill="#cecdf3"/></g><g><path d="m316 300h-140c-5.522 0-10-4.477-10-10s4.478-10 10-10h140c5.522 0 10 4.477 10 10s-4.477 10-10 10z" fill="#cecdf3"/></g></g><g><path d="m146 422v80l-30-30-30 30v-80" fill="#ffbecb"/><circle cx="116" cy="382" fill="#ffee80" r="50"/><circle cx="116" cy="382" fill="#fffbdf" r="20"/><path d="m456 50c0-27.57-22.43-50-50-50h-280c-27.57 0-50 22.43-50 50v286c0 .425.035.841.087 1.252-12.315 10.996-20.087 26.978-20.087 44.748 0 17.729 7.735 33.679 20 44.673v75.327c0 4.044 2.437 7.691 6.173 9.239 3.737 1.549 8.038.691 10.898-2.167l22.929-22.93 22.929 22.929c1.913 1.913 4.471 2.929 7.073 2.929 1.288 0 2.588-.25 3.825-.762 3.736-1.548 6.173-5.194 6.173-9.239v-42h150c.335 0 .668-.017.998-.05.247-.025.489-.067.73-.109.08-.014.161-.021.24-.037.287-.057.567-.131.845-.212.033-.01.068-.016.101-.026.284-.086.56-.188.833-.298.029-.011.058-.02.086-.032.259-.108.51-.23.757-.358.042-.022.086-.039.128-.062.225-.121.442-.255.656-.393.061-.039.125-.072.186-.113.193-.13.376-.272.56-.414.075-.058.155-.11.229-.171.2-.165.388-.341.575-.521.048-.046.101-.087.148-.134l100-100c.05-.05.092-.105.141-.156.176-.184.351-.37.513-.567.064-.078.12-.163.182-.243.138-.179.277-.357.403-.544.044-.066.081-.137.124-.204.133-.209.264-.419.382-.638.024-.045.043-.092.066-.138.126-.245.247-.492.354-.748.012-.03.021-.061.033-.091.109-.271.211-.546.297-.829.01-.033.016-.067.025-.099.082-.278.155-.559.213-.846.017-.083.024-.168.038-.251.041-.238.083-.476.107-.719.033-.33.05-.663.05-.998v-251.004c22.795-4.646 40-24.848 40-48.994zm-340 292c22.056 0 40 17.944 40 40s-17.944 40-40 40-40-17.944-40-40 17.945-40 40-40zm20 135.858-12.929-12.929c-3.906-3.905-10.236-3.905-14.143 0l-12.928 12.929v-39.298c6.26 2.22 12.989 3.44 20 3.44s13.74-1.22 20-3.44zm20-51.185c12.265-10.994 20-26.945 20-44.673 0-33.084-26.916-60-60-60-7.011 0-13.74 1.22-20 3.44v-275.44c0-16.542 13.458-30 30-30s30 13.458 30 30-13.458 30-30 30c-5.522 0-10 4.477-10 10s4.478 10 10 10h270v240h-90c-5.522 0-10 4.477-10 10v90h-140zm225.858-66.673-65.858 65.857v-65.857zm24.142-280h-240.027c6.292-8.363 10.027-18.753 10.027-30s-3.735-21.637-10.027-30h240.027c16.542 0 30 13.458 30 30s-13.458 30-30 30z" fill="#b278d3"/></g></g></svg>