<svg id="Layer_1" enable-background="new 0 0 512.001 512.001" height="512" viewBox="0 0 512.001 512.001" width="512" xmlns="http://www.w3.org/2000/svg"><g><circle cx="256.001" cy="130" fill="#ffda8f" r="120"/><path d="m96.001 222h320v40h-320z" fill="#fff2a0"/><path d="m416.001 212h-59.133c18.711-23.003 29.133-51.863 29.133-82 0-71.682-58.318-130-130-130s-130 58.318-130 130c0 30.136 10.422 58.997 29.133 82h-59.133c-5.523 0-10 4.477-10 10v40c0 5.523 4.477 10 10 10h31.529l38.607 231.644c.815 4.891 5.051 8.357 9.852 8.357.546 0 1.1-.045 1.656-.138 5.448-.908 9.128-6.06 8.22-11.508l-4.943-29.66c.769-.435 1.496-.97 2.151-1.625l32.929-32.929 25.856 25.859-32.929 32.929c-3.905 3.905-3.905 10.237 0 14.143 1.953 1.953 4.512 2.929 7.071 2.929s5.119-.976 7.071-2.929l32.929-32.929 32.929 32.929c1.953 1.953 4.512 2.929 7.071 2.929s5.119-.976 7.071-2.929c3.905-3.905 3.905-10.237 0-14.143l-32.928-32.929 25.857-25.857 32.929 32.929c.655.655 1.382 1.19 2.151 1.625l-4.943 29.66c-.908 5.448 2.772 10.6 8.22 11.508.557.093 1.11.138 1.656.138 4.8 0 9.037-3.466 9.852-8.357l38.607-231.646h31.529c5.523 0 10-4.477 10-10v-40c0-5.523-4.477-10-10-10zm-213.338 0c13.423-21.522 21.365-46.312 23.009-72h20.329v72zm63.338-92v-99.541c18.395 1.666 35.495 7.877 50.168 17.501-17.541 23.653-27.933 52.22-29.84 82.04zm-20 0h-20.328c-1.907-29.82-12.299-58.387-29.839-82.039 14.673-9.625 31.773-15.836 50.168-17.501v99.54zm-65.877 89.64c-19.339-18.429-31.251-43.156-33.661-69.64h59.168c-1.854 25.283-10.702 49.493-25.507 69.64zm85.877-69.64h20.329c1.643 25.688 9.586 50.478 23.009 72h-43.338zm40.37 0h59.167c-2.409 26.483-14.321 51.21-33.661 69.64-14.804-20.146-23.653-44.357-25.506-69.64zm59.17-20h-59.172c1.854-25.295 10.713-49.477 25.48-69.597 18.763 17.887 31.223 42.322 33.692 69.597zm-185.389-69.597c14.767 20.12 23.626 44.302 25.48 69.597h-59.172c2.47-27.275 14.93-51.71 33.692-69.597zm21.706 291.597-25.857 25.857-12.929-12.929c-.517-.517-1.078-.96-1.669-1.341l-3.264-19.584 17.862-17.862zm-11.715-40 25.857-25.857 25.858 25.857-25.857 25.857zm-36.045 7.76-3.104-18.623 10.864 10.863zm61.903 46.383 25.857 25.857-25.857 25.857-25.858-25.857zm14.142-14.143 25.857-25.857 25.858 25.857-25.857 25.857zm40-40 25.857-25.857 25.858 25.857-25.857 25.857zm25.858 54.143 25.857 25.857-25.857 25.857-25.858-25.857zm14.142-14.143 25.857-25.857 17.862 17.862-3.264 19.584c-.591.38-1.152.824-1.669 1.341l-12.929 12.929zm47.76-32.24-7.76-7.76 10.864-10.864zm-21.902-21.903-15.858-15.857h31.715zm-80 0-15.858-15.857h31.715zm-80 0-15.858-15.857h31.715zm.955 159.046-9.961-59.766 34.863 34.863zm79.045.954-25.858-25.857 25.857-25.857 25.858 25.857zm54.142-25.857 34.864-34.864-9.961 59.766zm95.858-170h-109.995c-.003 0-.007 0-.01 0h-79.99c-.003 0-.007 0-.01 0h-109.995v-20h300z" fill="#ffa96b"/></g></svg>