<svg id="Layer_1" enable-background="new 0 0 512 512" height="512" viewBox="0 0 512 512" width="512" xmlns="http://www.w3.org/2000/svg"><g><path d="m286 320-30 182-30-182" fill="#fff"/><path d="m396 320h-280l60-80h160z" fill="#ffbecb"/><path d="m176 60h160v180h-160z" fill="#ff9eb1"/><path d="m136 10h240v50h-240z" fill="#ffbecb"/><path d="m404 314-58-77.333v-166.667h30c5.522 0 10-4.477 10-10v-50c0-5.523-4.478-10-10-10h-240c-5.523 0-10 4.477-10 10v50c0 5.523 4.477 10 10 10h30v166.667l-58 77.333c-2.272 3.03-2.638 7.084-.944 10.472s5.157 5.528 8.944 5.528h101.514l28.62 173.626c.796 4.83 4.972 8.374 9.867 8.374 4.896 0 9.07-3.543 9.867-8.374l28.619-173.626h101.513c3.788 0 7.25-2.14 8.944-5.528s1.329-7.442-.944-10.472zm-258-294h220v30h-220zm180 50v160h-140v-160zm-70 370.515-18.217-110.515h36.433zm-120-130.515 45-60h150l45 60z" fill="#ff5a58"/><g><g><path d="m286 180h-60c-5.523 0-10-4.477-10-10s4.477-10 10-10h60c5.522 0 10 4.477 10 10s-4.477 10-10 10z" fill="#ffdfe5"/></g><g><path d="m296 140h-80c-5.523 0-10-4.477-10-10s4.477-10 10-10h80c5.522 0 10 4.477 10 10s-4.477 10-10 10z" fill="#ffdfe5"/></g></g></g></svg>