<svg id="Layer_1" enable-background="new 0 0 512 512" height="512" viewBox="0 0 512 512" width="512" xmlns="http://www.w3.org/2000/svg"><g><path d="m80 56h320v440h-320z" fill="#99ebfa"/><path d="m40 16h320v440h-320z" fill="#ccf5fc"/><path d="m100 76h200v120h-200z" fill="#fff"/><g><g><path d="m280 246h-180c-5.522 0-10-4.477-10-10s4.478-10 10-10h180c5.522 0 10 4.477 10 10s-4.478 10-10 10z" fill="#99ebfa"/></g><g><path d="m240 286h-140c-5.522 0-10-4.477-10-10s4.478-10 10-10h140c5.522 0 10 4.477 10 10s-4.478 10-10 10z" fill="#99ebfa"/></g><g><path d="m210 326h-110c-5.522 0-10-4.477-10-10s4.478-10 10-10h110c5.522 0 10 4.477 10 10s-4.478 10-10 10z" fill="#99ebfa"/></g><g><path d="m190 366h-90c-5.522 0-10-4.477-10-10s4.478-10 10-10h90c5.522 0 10 4.477 10 10s-4.478 10-10 10z" fill="#99ebfa"/></g></g><g><path d="m282 356 220-220-40-40-220 220-20 60z" fill="#ffee80"/><path d="m282 356-60 20 20-60z" fill="#ffdfe5"/><path d="m433.716 107.716h56.569v56.569h-56.569z" fill="#ff9eb1" transform="matrix(.707 -.707 .707 .707 39.15 366.517)"/><g><path d="m509.071 128.929-40-40c-3.906-3.904-10.236-3.904-14.143 0l-44.928 44.929v-77.858c0-5.523-4.478-10-10-10h-30v-30c0-5.523-4.478-10-10-10h-320c-5.522 0-10 4.477-10 10v60h-20c-5.522 0-10 4.477-10 10s4.478 10 10 10h20v40h-20c-5.522 0-10 4.477-10 10s4.478 10 10 10h20v40h-20c-5.522 0-10 4.477-10 10s4.478 10 10 10h20v40h-20c-5.522 0-10 4.477-10 10s4.478 10 10 10h20v40h-20c-5.522 0-10 4.477-10 10s4.478 10 10 10h20v40h-20c-5.522 0-10 4.477-10 10s4.478 10 10 10h20v60c0 5.523 4.478 10 10 10h30v30c0 5.523 4.478 10 10 10h320c5.522 0 10-4.477 10-10v-253.857l99.071-99.071c3.906-3.906 3.906-10.238 0-14.143zm-227.071 212.929-25.858-25.858 165.858-165.858 25.857 25.858zm-35.63-7.345 17.117 17.117-25.676 8.558zm143.63-268.513v87.857l-20 20v-107.857zm-340 330h10c5.522 0 10-4.477 10-10s-4.478-10-10-10h-10v-40h10c5.522 0 10-4.477 10-10s-4.478-10-10-10h-10v-40h10c5.522 0 10-4.477 10-10s-4.478-10-10-10h-10v-40h10c5.522 0 10-4.477 10-10s-4.478-10-10-10h-10v-40h10c5.522 0 10-4.477 10-10s-4.478-10-10-10h-10v-40h10c5.522 0 10-4.477 10-10s-4.478-10-10-10h-10v-50h300v167.857l-115.071 115.072c-.265.265-.508.542-.737.828-.056.07-.104.145-.159.216-.17.225-.333.453-.482.688-.055.086-.104.176-.156.264-.136.231-.264.464-.38.703-.047.096-.091.193-.135.291-.109.243-.206.488-.294.737-.022.062-.052.121-.073.183l-20 60c-1.197 3.593-.262 7.555 2.416 10.233 1.906 1.906 4.462 2.929 7.072 2.929 1.058 0 2.125-.168 3.161-.514l60-20c.061-.02.117-.05.177-.071.252-.089.5-.188.745-.297.097-.043.193-.087.288-.134.239-.116.472-.243.702-.379.089-.052.179-.102.267-.158.233-.147.458-.308.68-.477.074-.056.151-.106.224-.165.285-.229.562-.471.826-.735l60.929-60.928v143.857h-300zm340 90h-300v-20h270c5.522 0 10-4.477 10-10v-173.857l20-20zm72-324.142-25.858-25.858 25.858-25.858 25.857 25.858z" fill="#60a4ff"/></g></g></g></svg>