<svg id="Layer_1" enable-background="new 0 0 512 512" height="512" viewBox="0 0 512 512" width="512" xmlns="http://www.w3.org/2000/svg"><g><path d="m36 222h440v280h-440z" fill="#dae6e6"/><path d="m256 202c49.706-26.667 130.294-26.667 180 0v240c0 11.046-8.954 20-20 20h-320c-11.046 0-20-8.954-20-20v-240c49.706-26.667 130.294-26.667 180 0" fill="#fff"/><path d="m256 202c49.706-26.667 130.294-26.667 180 0v240c0 11.046-8.954 20-20 20h-320c-11.046 0-20-8.954-20-20v-240c49.706-26.667 130.294-26.667 180 0" fill="#fff"/><path d="m256 442c-49.706-26.667-130.294-26.667-180 0 0 11.046 8.954 20 20 20h320c11.046 0 20-8.954 20-20-49.706-26.667-130.294-26.667-180 0z" fill="#c5d3de"/><g><g><path d="m215.993 262.002c-1.458 0-2.939-.32-4.341-.997-24.746-11.949-66.558-11.949-91.304 0-4.975 2.4-10.952.316-13.354-4.657-2.401-4.974-.316-10.952 4.657-13.354 30.476-14.715 78.221-14.715 108.696 0 4.974 2.401 7.059 8.38 4.657 13.354-1.724 3.572-5.294 5.654-9.011 5.654z" fill="#e7e9ef"/></g><g><path d="m215.993 302.002c-1.458 0-2.939-.32-4.341-.997-24.746-11.949-66.558-11.949-91.304 0-4.975 2.401-10.952.316-13.354-4.657-2.401-4.974-.316-10.952 4.657-13.354 30.476-14.715 78.221-14.715 108.696 0 4.974 2.401 7.059 8.38 4.657 13.354-1.724 3.572-5.294 5.654-9.011 5.654z" fill="#e7e9ef"/></g><g><path d="m215.993 342.002c-1.458 0-2.939-.32-4.341-.997-24.746-11.949-66.558-11.949-91.304 0-4.975 2.4-10.952.316-13.354-4.657-2.401-4.974-.316-10.952 4.657-13.354 30.476-14.715 78.221-14.715 108.696 0 4.974 2.401 7.059 8.38 4.657 13.354-1.724 3.572-5.294 5.654-9.011 5.654z" fill="#e7e9ef"/></g><g><path d="m215.993 382.002c-1.458 0-2.939-.32-4.341-.997-24.746-11.949-66.558-11.949-91.304 0-4.975 2.4-10.952.316-13.354-4.657-2.401-4.974-.316-10.952 4.657-13.354 30.476-14.715 78.221-14.715 108.696 0 4.974 2.401 7.059 8.38 4.657 13.354-1.724 3.572-5.294 5.654-9.011 5.654z" fill="#e7e9ef"/></g></g><g><g><path d="m395.993 342.002c-1.458 0-2.939-.32-4.341-.997-24.746-11.949-66.558-11.949-91.304 0-4.974 2.4-10.952.316-13.354-4.657-2.401-4.974-.316-10.952 4.657-13.354 30.476-14.715 78.221-14.715 108.696 0 4.974 2.401 7.059 8.38 4.657 13.354-1.724 3.572-5.294 5.654-9.011 5.654z" fill="#e7e9ef"/></g><g><path d="m395.993 382.002c-1.458 0-2.939-.32-4.341-.997-24.746-11.949-66.558-11.949-91.304 0-4.974 2.4-10.952.316-13.354-4.657-2.401-4.974-.316-10.952 4.657-13.354 30.476-14.715 78.221-14.715 108.696 0 4.974 2.401 7.059 8.38 4.657 13.354-1.724 3.572-5.294 5.654-9.011 5.654z" fill="#e7e9ef"/></g></g><path d="m366 230v-23.428c23.301-8.238 40-30.45 40-56.572 0-33.137-26.863-60-60-60s-60 26.863-60 60c0 26.122 16.699 48.334 40 56.572v23.428" fill="#fff2a0"/><path d="m366 270h-40c-11.046 0-20-8.954-20-20 0-11.046 8.954-20 20-20h40c11.046 0 20 8.954 20 20 0 11.046-8.954 20-20 20z" fill="#c5d3de"/><g><path d="m371 160c-5.523 0-10-4.477-10-10 0-8.271-6.729-15-15-15-5.523 0-10-4.477-10-10s4.477-10 10-10c19.299 0 35 15.701 35 35 0 5.523-4.477 10-10 10z" fill="#fffbdf"/></g><g><path d="m476 212h-30v-10c0-3.685-2.026-7.07-5.272-8.812-9.51-5.102-20.161-9.346-31.753-12.685 4.523-9.32 7.025-19.704 7.025-30.503 0-38.598-31.402-70-70-70s-70 31.402-70 70c0 10.799 2.502 21.183 7.026 30.503-9.709 2.797-18.76 6.226-27.029 10.266-24.833-12.128-56.542-18.769-89.997-18.769-35.618 0-69.26 7.525-94.728 21.188-3.246 1.742-5.272 5.128-5.272 8.812v10h-30c-5.523 0-10 4.477-10 10v280c0 5.523 4.477 10 10 10h440c5.523 0 10-4.477 10-10v-280c0-5.523-4.477-10-10-10zm-230 236.165v3.835h-150c-3.516 0-6.607-1.828-8.391-4.579 21.704-9.969 49.186-15.421 78.391-15.421 29.929 0 58.055 5.72 80 16.165zm20 0c21.945-10.445 50.071-16.165 80-16.165 29.205 0 56.687 5.452 78.391 15.421-1.784 2.751-4.875 4.579-8.391 4.579h-150zm80-348.165c27.57 0 50 22.43 50 50 0 21.149-13.396 40.095-33.333 47.144-3.995 1.413-6.667 5.19-6.667 9.428v13.428h-20v-13.428c0-4.238-2.671-8.016-6.667-9.428-19.937-7.049-33.333-25.995-33.333-47.144 0-27.57 22.43-50 50-50zm-20 140h40c5.514 0 10 4.486 10 10s-4.486 10-10 10h-40c-5.514 0-10-4.486-10-10s4.486-10 10-10zm-10-26.751v8.471c-11.639 4.128-20 15.243-20 28.28 0 16.542 13.458 30 30 30h40c16.542 0 30-13.458 30-30 0-13.036-8.361-24.152-20-28.28v-8.471c7.98-3.787 15.04-9.007 20.928-15.268 10.611 2.624 20.361 6.026 29.072 10.167v218.187c-23.09-9.3-50.882-14.335-80-14.335s-56.91 5.035-80 14.335v-218.167c8.715-4.145 18.46-7.555 29.077-10.18 5.888 6.258 12.946 11.475 20.923 15.261zm-230-5.102c21.943-10.44 50.077-16.147 80-16.147 29.929 0 58.055 5.72 80 16.165v218.17c-23.09-9.3-50.882-14.335-80-14.335s-56.91 5.035-80 14.335zm-40 23.853h20v209.922.076.002c0 16.542 13.458 30 30 30h150v20h-200zm420 260h-200v-20h150c16.542 0 30-13.458 30-30v-.001c0-.025 0-.051 0-.076v-209.923h20z" fill="#8aa8bd"/><g fill="#dae6e6"><path d="m346 60c5.523 0 10-4.477 10-10v-40c0-5.523-4.477-10-10-10s-10 4.477-10 10v40c0 5.523 4.477 10 10 10z"/><path d="m268.218 86.361c1.953 1.953 4.512 2.929 7.071 2.929s5.119-.976 7.071-2.929c3.905-3.905 3.905-10.237 0-14.143l-28.285-28.285c-3.905-3.905-10.237-3.905-14.143 0-3.905 3.905-3.905 10.237 0 14.143z"/><path d="m416.71 89.29c2.559 0 5.119-.976 7.071-2.929l28.285-28.285c3.905-3.905 3.905-10.237 0-14.143-3.905-3.905-10.237-3.905-14.143 0l-28.285 28.285c-3.905 3.905-3.905 10.237 0 14.143 1.954 1.952 4.513 2.929 7.072 2.929z"/></g></g></g></svg>