<svg id="Layer_1" enable-background="new 0 0 512 512" height="512" viewBox="0 0 512 512" width="512" xmlns="http://www.w3.org/2000/svg"><g><path d="m381.7 10h-280.7l44.675 70h191.35z" fill="#b5b3ee"/><path d="m101 10-50 50 148.7 230h80z" fill="#e6e6f9"/><path d="m381.7 10 50 50-148.7 230h-80z" fill="#e6e6f9"/><circle cx="241" cy="330" fill="#ffee80" r="100"/><circle cx="241" cy="330" fill="#fffbdf" r="50"/><g><path d="m351 330c0-30.152-12.198-57.507-31.914-77.397l121.012-187.174c2.56-3.958 2.007-9.167-1.326-12.5l-50-50c-.012-.012-.025-.022-.038-.034-.126-.124-.262-.24-.396-.359-.1-.089-.194-.183-.298-.267-.027-.022-.053-.042-.08-.064-.102-.082-.212-.156-.318-.234-.129-.096-.254-.195-.387-.285-.045-.03-.091-.059-.137-.088-.013-.009-.025-.019-.038-.027-.07-.045-.144-.079-.215-.122-.022-.013-.044-.026-.065-.039-.128-.076-.252-.156-.384-.227-.056-.03-.114-.058-.171-.087-.103-.053-.208-.096-.312-.145-.135-.063-.266-.13-.404-.187-.057-.024-.115-.045-.173-.068-.124-.049-.249-.089-.374-.132-.125-.044-.249-.092-.376-.13-.053-.016-.107-.03-.16-.045-.148-.042-.297-.075-.447-.111-.114-.027-.226-.059-.342-.082-.048-.01-.097-.017-.145-.026-.174-.032-.347-.054-.522-.076-.101-.013-.199-.033-.301-.043-.044-.004-.088-.005-.132-.009-.184-.016-.368-.021-.552-.026-.103-.005-.206-.016-.31-.016h-280.69c-.115 0-.229.012-.344.016-.169.006-.337.01-.506.024-.048.004-.096.005-.145.01-.111.011-.218.032-.327.047-.161.021-.323.041-.483.07-.052.01-.105.017-.157.027-.124.024-.243.059-.365.088-.138.033-.276.063-.413.102-.057.016-.114.031-.17.048-.135.041-.264.091-.395.137-.116.041-.233.077-.348.123-.06.024-.12.046-.18.071-.142.059-.278.128-.416.193-.099.046-.199.088-.297.138-.058.03-.116.058-.174.089-.132.071-.256.151-.384.227-.023.014-.047.027-.07.042-.069.042-.141.076-.21.12-.013.009-.025.019-.038.027-.046.029-.092.058-.137.088-.133.089-.259.189-.387.285-.106.078-.216.152-.318.234-.027.021-.054.042-.08.064-.103.084-.198.178-.298.267-.134.119-.27.235-.396.359-.012.012-.026.022-.038.034l-50 50c-3.333 3.333-3.886 8.542-1.326 12.5l120.734 186.745c-19.966 19.924-32.337 47.457-32.337 77.825 0 60.654 49.346 110 110 110s110-49.346 110-110zm-47.348-90.361c-13.202-9.182-28.499-15.546-45.02-18.22l124.8-195.545 35.483 35.482zm27.892-169.639h-180.388l-31.911-50h244.209zm-12.764 20-77.43 121.323-77.43-121.323zm-254.995-28.643 35.483-35.482 124.733 195.44c-16.562 2.58-31.909 8.871-45.169 17.99zm177.215 358.643c-49.626 0-90-40.374-90-90s40.374-90 90-90 90 40.374 90 90-40.374 90-90 90z" fill="#b278d3"/></g><g fill="#e6e6f9"><path d="m401 452c-16.542 0-30-13.458-30-30 0-5.523-4.478-10-10-10s-10 4.477-10 10c0 16.542-13.458 30-30 30-5.522 0-10 4.477-10 10s4.478 10 10 10c16.542 0 30 13.458 30 30 0 5.523 4.478 10 10 10s10-4.477 10-10c0-16.542 13.458-30 30-30 5.522 0 10-4.477 10-10s-4.478-10-10-10z"/><path d="m461 366c-16.542 0-30-13.458-30-30 0-5.523-4.478-10-10-10s-10 4.477-10 10c0 16.542-13.458 30-30 30-5.522 0-10 4.477-10 10s4.478 10 10 10c16.542 0 30 13.458 30 30 0 5.523 4.478 10 10 10s10-4.477 10-10c0-16.542 13.458-30 30-30 5.522 0 10-4.477 10-10s-4.478-10-10-10z"/></g></g></svg>