<svg id="Layer_1" enable-background="new 0 0 512 512" height="512" viewBox="0 0 512 512" width="512" xmlns="http://www.w3.org/2000/svg"><g><path d="m10 86v340h340zm60 160 120 120h-120z" fill="#fff2a0"/><path d="m302 126h200v300h-200z" fill="#ccf5fc"/><path d="m342 266h120v120h-120z" fill="#fff"/><path d="m422 266h40v40h-40z" fill="#ffbecb"/><path d="m342 166h120v60h-120z" fill="#b8ecbc"/><g fill="#ffa96b"><path d="m77.071 238.929c-2.861-2.859-7.163-3.714-10.898-2.167-3.736 1.548-6.173 5.194-6.173 9.238v120c0 5.523 4.477 10 10 10h120c4.044 0 7.691-2.437 9.239-6.173s.692-8.038-2.167-10.898zm2.929 117.071v-85.858l85.858 85.858z"/><path d="m502 116h-200c-5.523 0-10 4.477-10 10v227.858l-24.925-24.925c-.001-.001-.003-.003-.004-.005s-.003-.003-.005-.004l-39.992-39.992c-.001-.001-.002-.003-.003-.004s-.003-.002-.004-.003l-39.993-39.993c-.001-.001-.002-.002-.003-.003s-.002-.002-.003-.003l-39.995-39.995c-.001-.001-.001-.002-.002-.002s-.002-.001-.002-.002l-39.996-39.996c-.001-.001-.001-.001-.002-.002s-.001-.001-.002-.001l-89.998-89.999c-2.861-2.86-7.162-3.717-10.898-2.167-3.736 1.548-6.173 5.194-6.173 9.238v340c0 5.523 4.477 10 10 10h492c5.523 0 10-4.477 10-10v-300c0-5.522-4.477-10-10-10zm-210 300h-272v-305.857l65.858 65.857-12.929 12.929c-3.905 3.905-3.905 10.237 0 14.143 1.952 1.952 4.512 2.928 7.071 2.928s5.119-.977 7.071-2.929l12.929-12.928 25.858 25.857-12.929 12.929c-3.905 3.905-3.905 10.237 0 14.143 1.953 1.952 4.512 2.929 7.071 2.929s5.119-.977 7.071-2.929l12.929-12.929 25.858 25.857-12.929 12.929c-3.905 3.905-3.905 10.237 0 14.143 1.953 1.952 4.512 2.929 7.071 2.929s5.119-.977 7.071-2.929l12.929-12.929 25.858 25.857-12.929 12.929c-3.905 3.905-3.905 10.237 0 14.143 1.953 1.952 4.512 2.929 7.071 2.929s5.119-.977 7.071-2.929l12.929-12.929 25.858 25.857-12.929 12.929c-3.905 3.905-3.905 10.237 0 14.143 1.953 1.952 4.512 2.929 7.071 2.929s5.119-.977 7.071-2.929l12.929-12.929 32 32zm200 0h-180v-280h180z"/><path d="m342 396h120c5.523 0 10-4.477 10-10v-120c0-5.523-4.477-10-10-10h-120c-5.523 0-10 4.477-10 10v120c0 5.523 4.477 10 10 10zm70-80v20h-20v-20zm-20-20v-20h20v20zm20 80h-20v-20h20zm-40-40h-20v-20h20zm-20 20h20v20h-20zm80 20v-60h20v60zm20-80h-20v-20h20zm-80-20v20h-20v-20z"/></g></g></svg>