<svg id="Layer_1" enable-background="new 0 0 512 512" height="512" viewBox="0 0 512 512" width="512" xmlns="http://www.w3.org/2000/svg"><g><path d="m246 70v-60h180v60" fill="#fff"/><path d="m426 70h-180l-40 60v320h260v-320z" fill="#fff"/><path d="m426 70-40 60v320h80v-320z" fill="#ff9eb1"/><circle cx="296" cy="280" fill="#ffdfe5" r="50"/><path d="m126 302c14.572 0 28.233 4.872 40 13.381 11.767-8.509 25.428-13.381 40-13.381 44.183 0 80 44.771 80 100 0 55.228-35.817 100-80 100-14.572 0-28.233-4.872-40-13.381-11.767 8.509-25.428 13.381-40 13.381-44.183 0-80-44.772-80-100 0-55.229 35.817-100 80-100z" fill="#ff9eb1"/><g><path d="m244.531 398.002c-4.622 0-8.773-3.222-9.772-7.924-3.833-18.042-15.919-32.059-31.54-36.583-5.305-1.536-8.36-7.082-6.824-12.387s7.083-8.361 12.387-6.824c22.721 6.579 40.171 26.365 45.541 51.637 1.148 5.402-2.301 10.712-7.704 11.86-.701.15-1.4.221-2.088.221z" fill="#ffdfe5"/></g><path d="m215.434 210.566s4.482 30.838-11.773 47.094-47.094 11.773-47.094 11.773-4.482-30.838 11.773-47.094 47.094-11.773 47.094-11.773z" fill="#b8ecbc"/><g fill="#ff5a58"><path d="m475.902 128.674c-.013-.101-.029-.2-.046-.3-.069-.424-.158-.84-.279-1.244-.003-.011-.005-.024-.009-.035-.131-.434-.297-.851-.484-1.257-.034-.075-.071-.148-.107-.222-.192-.392-.401-.772-.64-1.133-.006-.01-.01-.02-.017-.03l-.014-.021c-.009-.013-.018-.027-.027-.04l-38.279-57.419v-56.973c0-5.523-4.477-10-10-10h-180c-5.523 0-10 4.477-10 10v56.973l-38.28 57.419c-.009.013-.018.027-.027.04l-.014.021c-.006.01-.01.02-.017.03-.239.361-.449.741-.64 1.133-.036.074-.073.147-.107.222-.187.406-.352.823-.484 1.257-.004.011-.006.023-.009.035-.121.404-.21.821-.279 1.244-.017.1-.032.199-.046.3-.057.435-.097.875-.097 1.326v70.517c-14.615 1.55-26.612 6.633-34.731 14.752-7.942 7.943-12.98 19.595-14.647 33.778-11.464-8.201-25.484-13.047-40.622-13.047-5.523 0-10 4.477-10 10s4.477 10 10 10c24.841 0 45.5 18.211 49.349 41.983-9.387-3.936-19.305-5.983-29.349-5.983-24.468 0-47.331 11.735-64.377 33.042-16.523 20.654-25.623 47.985-25.623 76.958s9.1 56.304 25.623 76.958c17.046 21.307 39.909 33.042 64.377 33.042 13.937 0 27.636-3.92 40-11.396 12.364 7.476 26.063 11.396 40 11.396 24.468 0 47.331-11.735 64.377-33.042 4.657-5.821 8.701-12.188 12.141-18.958h183.482c5.523 0 10-4.477 10-10v-320c0-.451-.04-.891-.098-1.326zm-251.217-8.674 26.667-40h155.963l-26.667 40zm201.315-31.972 21.315 31.972h-42.629zm-10-68.028v40h-30v-10c0-5.523-4.477-10-10-10s-10 4.477-10 10v10h-20v-10c0-5.523-4.477-10-10-10s-10 4.477-10 10v10h-20v-10c0-5.523-4.477-10-10-10s-10 4.477-10 10v10h-30v-40zm-240.416 278.429c-.701-6.49-2.301-12.711-4.659-18.55 1.3-.063 2.64-.151 4.024-.28 7.81-.731 14.883-2.468 21.051-5.118v18.2c-6.982.947-13.836 2.876-20.416 5.748zm-.173-69.018c7.641-7.641 21.136-9.428 30.575-9.43.031 8.731-1.344 22.555-9.397 30.608-7.644 7.644-21.145 9.429-30.575 9.431-.031-8.73 1.343-22.555 9.397-30.609zm30.589 262.589c-11.944 0-23.75-3.971-34.141-11.485-1.749-1.264-3.804-1.896-5.859-1.896s-4.111.632-5.859 1.896c-10.391 7.514-22.197 11.485-34.141 11.485-38.598 0-70-40.374-70-90s31.402-90 70-90c11.944 0 23.75 3.971 34.141 11.485 3.497 2.528 8.222 2.528 11.719 0 10.39-7.514 22.196-11.485 34.14-11.485 38.598 0 70 40.374 70 90s-31.402 90-70 90zm84.5-52c3.601-12.016 5.5-24.833 5.5-38 0-28.973-9.1-56.304-25.623-76.958-14.7-18.375-33.727-29.623-54.377-32.373v-34.386c5.227-7.775 8.515-17.749 9.599-29.335 1.011-10.806-.217-19.458-.27-19.821-.637-4.38-4.077-7.821-8.458-8.458-.061-.009-.374-.052-.872-.111v-60.558h160v300zm105.5 0v-300h60v300z"/><path d="m426 160c-5.523 0-10 4.477-10 10v240c0 5.523 4.477 10 10 10s10-4.477 10-10v-240c0-5.523-4.477-10-10-10z"/></g></g></svg>