<svg id="Layer_1" enable-background="new 0 0 512 512" height="512" viewBox="0 0 512 512" width="512" xmlns="http://www.w3.org/2000/svg"><g><path d="m36 222h440v280h-440z" fill="#dae6e6"/><path d="m256 202c49.706-26.667 130.294-26.667 180 0v240c0 11.046-8.954 20-20 20h-320c-11.046 0-20-8.954-20-20v-240c49.706-26.667 130.294-26.667 180 0" fill="#fff"/><path d="m256 442c-49.706-26.667-130.294-26.667-180 0 0 11.046 8.954 20 20 20h320c11.046 0 20-8.954 20-20-49.706-26.667-130.294-26.667-180 0z" fill="#c5d3de"/><g><g><path d="m116.007 262.002c-3.718 0-7.288-2.082-9.013-5.654-2.401-4.973-.316-10.952 4.657-13.354 12.057-5.822 27.155-9.498 43.664-10.63 5.503-.387 10.283 3.782 10.661 9.292s-3.782 10.283-9.292 10.661c-13.789.946-26.693 4.031-36.336 8.688-1.401.677-2.883.997-4.341.997z" fill="#e7e9ef"/></g><g><path d="m215.993 302.002c-1.458 0-2.939-.32-4.341-.997-24.746-11.949-66.558-11.949-91.304 0-4.975 2.4-10.952.316-13.354-4.657-2.401-4.974-.316-10.952 4.657-13.354 30.476-14.715 78.221-14.715 108.696 0 4.974 2.401 7.059 8.38 4.657 13.354-1.724 3.572-5.294 5.654-9.011 5.654z" fill="#e7e9ef"/></g><g><path d="m215.993 342.002c-1.458 0-2.939-.32-4.341-.997-24.746-11.949-66.558-11.949-91.304 0-4.975 2.401-10.952.316-13.354-4.657-2.401-4.974-.316-10.952 4.657-13.354 30.476-14.715 78.221-14.715 108.696 0 4.974 2.401 7.059 8.38 4.657 13.354-1.724 3.572-5.294 5.654-9.011 5.654z" fill="#e7e9ef"/></g><g><path d="m215.993 382.002c-1.458 0-2.939-.32-4.341-.997-24.746-11.949-66.558-11.949-91.304 0-4.975 2.4-10.952.316-13.354-4.657-2.401-4.974-.316-10.952 4.657-13.354 30.476-14.715 78.221-14.715 108.696 0 4.974 2.401 7.059 8.38 4.657 13.354-1.724 3.572-5.294 5.654-9.011 5.654z" fill="#e7e9ef"/></g></g><g><g><path d="m395.993 262.002c-1.459 0-2.939-.321-4.342-.997-9.643-4.656-22.547-7.742-36.336-8.688-5.51-.378-9.67-5.151-9.292-10.661.379-5.509 5.136-9.668 10.661-9.292 16.508 1.132 31.606 4.808 43.664 10.63 4.973 2.402 7.058 8.38 4.656 13.354-1.724 3.572-5.294 5.654-9.011 5.654z" fill="#e7e9ef"/></g><g><path d="m395.993 302.002c-1.459 0-2.939-.32-4.342-.997-24.744-11.949-66.559-11.949-91.303 0-4.971 2.401-10.951.317-13.354-4.657-2.401-4.974-.316-10.952 4.656-13.354 30.477-14.715 78.221-14.715 108.697 0 4.973 2.401 7.058 8.38 4.656 13.354-1.723 3.572-5.293 5.654-9.01 5.654z" fill="#e7e9ef"/></g><g><path d="m395.993 342.002c-1.459 0-2.939-.32-4.342-.997-24.744-11.949-66.559-11.949-91.303 0-4.971 2.401-10.951.317-13.354-4.657-2.401-4.974-.316-10.952 4.656-13.354 30.477-14.715 78.221-14.715 108.697 0 4.973 2.401 7.058 8.38 4.656 13.354-1.723 3.572-5.293 5.654-9.01 5.654z" fill="#e7e9ef"/></g><g><path d="m395.993 382.002c-1.459 0-2.939-.32-4.342-.997-24.744-11.949-66.559-11.949-91.303 0-4.971 2.4-10.951.318-13.354-4.657-2.401-4.974-.316-10.952 4.656-13.354 30.477-14.715 78.221-14.715 108.697 0 4.973 2.401 7.058 8.38 4.656 13.354-1.723 3.572-5.293 5.654-9.01 5.654z" fill="#e7e9ef"/></g></g><circle cx="256" cy="130" fill="#99ebfa" r="120"/><path d="m476 212h-30v-10c0-3.684-2.025-7.07-5.272-8.812-17.529-9.404-38.938-15.911-62.446-19.053 4.991-13.786 7.718-28.648 7.718-44.135 0-71.682-58.317-130-130-130-71.682 0-130 58.318-130 130 0 15.487 2.727 30.348 7.718 44.134-23.511 3.146-44.947 9.666-62.446 19.054-3.246 1.742-5.272 5.127-5.272 8.812v10h-30c-5.523 0-10 4.477-10 10v280c0 5.523 4.477 10 10 10h440c5.522 0 10-4.477 10-10v-280c0-5.523-4.478-10-10-10zm-317.965-132h33.167c-2.746 12.618-4.437 26.092-4.986 40h-39.756c1.293-14.29 5.324-27.803 11.575-40zm207.506 40h-39.756c-.55-13.908-2.24-27.382-4.987-40h33.167c6.251 12.197 10.282 25.71 11.576 40zm-99.541 117.51v-37.51h28.054c-1.412 3.614-2.927 7.093-4.571 10.381-6.772 13.541-14.987 22.927-23.483 27.129zm0-57.51v-40h39.776c-.6 14.08-2.462 27.589-5.477 40zm-20 0h-34.299c-3.015-12.411-4.877-25.92-5.477-40h39.776zm0 20v37.51c-8.496-4.202-16.711-13.588-23.482-27.13-1.644-3.288-3.159-6.767-4.572-10.381h28.054zm61.37 19.325c2.997-5.993 5.657-12.465 7.963-19.325h25.458c-10.668 12.9-24.217 23.333-39.652 30.307 2.184-3.392 4.266-7.052 6.231-10.982zm46.595-39.325h-33.167c2.747-12.618 4.437-26.092 4.987-40h39.756c-1.294 14.29-5.325 27.803-11.576 40zm-48.189-60h-39.776v-40h34.299c3.015 12.411 4.877 25.92 5.477 40zm-39.776-60v-37.51c8.496 4.202 16.711 13.588 23.482 27.129 1.644 3.288 3.159 6.767 4.571 10.381zm-20-37.51v37.51h-28.053c1.412-3.614 2.927-7.093 4.572-10.381 6.77-13.541 14.985-22.928 23.481-27.129zm0 57.51v40h-39.776c.6-14.08 2.462-27.589 5.477-40zm-59.785 60c.55 13.908 2.24 27.382 4.986 40h-33.167c-6.251-12.197-10.281-25.71-11.575-40zm10.452 60c2.306 6.86 4.966 13.332 7.962 19.325 1.965 3.93 4.047 7.589 6.231 10.981-15.434-6.973-28.983-17.407-39.651-30.306zm49.333 248.165v3.835h-150c-3.516 0-6.607-1.828-8.391-4.579 21.704-9.969 49.186-15.421 78.391-15.421 29.929 0 58.055 5.72 80 16.165zm20 0c21.945-10.445 50.071-16.165 80-16.165 29.205 0 56.686 5.452 78.391 15.421-1.784 2.751-4.875 4.579-8.391 4.579h-150zm160-240.017v218.187c-23.09-9.3-50.882-14.335-80-14.335s-56.91 5.035-80 14.335v-166.716c44.525-3.403 82.84-29.34 103.553-66.393 21.166 2.218 40.482 7.327 56.447 14.922zm-85.209-148.148h-25.458c-2.306-6.86-4.966-13.332-7.963-19.325-1.965-3.93-4.047-7.589-6.231-10.981 15.435 6.973 28.984 17.406 39.652 30.306zm-129.931-30.306c-2.184 3.392-4.266 7.051-6.231 10.981-2.996 5.993-5.656 12.465-7.962 19.325h-25.458c10.668-12.899 24.217-23.333 39.651-30.306zm-124.86 178.454c15.945-7.582 35.29-12.692 56.452-14.914 20.714 37.049 59.027 62.982 103.548 66.385v166.716c-23.09-9.3-50.882-14.335-80-14.335s-56.91 5.035-80 14.335zm-40 23.852h20v209.922.076.002c0 16.542 13.458 30 30 30h150v20h-200zm420 260h-200v-20h150c16.542 0 30-13.458 30-30v-.007c0-.022 0-.044 0-.066v-209.927h20z" fill="#8aa8bd"/></g></svg>