<svg id="Layer_1" enable-background="new 0 0 512.002 512.002" height="512" viewBox="0 0 512.002 512.002" width="512" xmlns="http://www.w3.org/2000/svg"><g><circle cx="206.001" cy="166" fill="#e6e6f9" r="50"/><g fill="#b5b3ee"><circle cx="206.001" cy="166" r="15"/><path d="m126.001 476h-40l80-260h40z"/><path d="m286.001 476h40l-80-260h-40z"/></g><path d="m186.001 10h40v70h-40z" fill="#ffbecb"/><g><path d="m426.001 376-30 60-30-60v-300h60z" fill="#ffee80"/><path d="m366.001 76h60v50h-60z" fill="#ff9eb1"/><path d="m426.001 376-30 60-30-60z" fill="#ffdfe5"/><g fill="#b278d3"><path d="m302.618 366h13.384c5.522 0 10-4.477 10-10s-4.478-10-10-10h-19.538l-40.905-132.941c-.884-2.874-2.982-5.121-5.625-6.253 9.96-10.715 16.068-25.058 16.068-40.806 0-29.676-21.661-54.374-50-59.151v-16.849h10c5.522 0 10-4.477 10-10v-70c0-5.523-4.478-10-10-10h-40c-5.522 0-10 4.477-10 10v70c0 5.523 4.478 10 10 10h10v16.849c-28.339 4.777-50 29.475-50 59.151 0 15.749 6.108 30.091 16.068 40.806-2.644 1.132-4.741 3.379-5.625 6.253l-40.906 132.941h-19.538c-5.522 0-10 4.477-10 10s4.478 10 10 10h13.384l-32.941 107.059c-.934 3.033-.372 6.329 1.514 8.882s4.869 4.059 8.043 4.059h6.46l-4.018 13.059c-1.624 5.279 1.338 10.875 6.617 12.499.979.302 1.97.445 2.943.445 4.274 0 8.232-2.763 9.555-7.062l5.829-18.941h12.614c4.39 0 8.267-2.863 9.558-7.059l34.751-112.941h25.691v20c0 5.523 4.478 10 10 10s10-4.477 10-10v-20h25.691l34.751 112.941c1.291 4.196 5.168 7.059 9.558 7.059h12.614l5.828 18.941c1.322 4.299 5.279 7.062 9.555 7.062.974 0 1.965-.143 2.943-.445 5.279-1.624 8.241-7.22 6.617-12.499l-4.017-13.059h6.46c3.174 0 6.158-1.506 8.044-4.059s2.447-5.849 1.514-8.882zm-106.617-346h20v50h-20zm10 106c22.056 0 40 17.944 40 40s-17.944 40-40 40-40-17.944-40-40 17.945-40 40-40zm-87.385 340h-12.586c-.039 0-.079 0-.118 0h-6.37l73.846-240h19.074zm97.385-120v-20c0-5.523-4.478-10-10-10s-10 4.477-10 10v20h-19.538l29.538-95.997 29.538 95.997zm3.54-120h19.074l73.846 240h-6.351c-.054 0-.108 0-.163 0h-12.561z"/><path d="m426.001 66h-60c-5.522 0-10 4.477-10 10v300c0 .374.024.742.064 1.105.01.091.029.181.042.272.038.276.084.55.144.819.023.102.052.202.078.303.066.258.141.511.227.76.035.102.073.203.111.304.095.248.199.49.313.728.028.06.048.122.078.181l30 60c1.694 3.388 5.156 5.528 8.944 5.528s7.25-2.14 8.944-5.528l30-60c.03-.059.05-.122.078-.181.114-.238.218-.48.313-.728.039-.101.076-.202.111-.304.086-.249.16-.503.227-.76.026-.101.055-.201.078-.303.06-.269.105-.542.144-.819.013-.091.031-.181.042-.272.04-.363.064-.731.064-1.105v-300c-.002-5.523-4.479-10-10.002-10zm-50 300v-230h40v230zm40-280v30h-40v-30zm-20 327.639-13.819-27.639h27.639z"/></g></g></g></svg>