<svg id="Layer_1" enable-background="new 0 0 512 512" height="512" viewBox="0 0 512 512" width="512" xmlns="http://www.w3.org/2000/svg"><g><path d="m406 176h-300l-70 70 70 70h300l70-70z" fill="#fff"/><path d="m116 90 40-80 40 80" fill="#ffda8f"/><path d="m106 90h100v226h-100z" fill="#fff2a0" transform="matrix(-1 0 0 -1 312 406)"/><path d="m106 140h100v40h-100z" fill="#fff" transform="matrix(-1 0 0 -1 312 320)"/><path d="m316 90 40-80 40 80" fill="#ff9eb1"/><path d="m306 90h100v226h-100z" fill="#ffbecb" transform="matrix(-1 0 0 -1 712 406)"/><path d="m306 140h100v40h-100z" fill="#fff" transform="matrix(-1 0 0 -1 712 320)"/><path d="m216 90 40-80 40 80" fill="#99ebfa"/><path d="m206 90h100v226h-100z" fill="#ccf5fc" transform="matrix(-1 0 0 -1 512 406)"/><path d="m206 140h100v40h-100z" fill="#fff" transform="matrix(-1 0 0 -1 512 320)"/><path d="m476 502h-440v-256l70 70h300l70-70z" fill="#99ebfa"/><path d="m136 389h240v40h-240z" fill="#fff"/><g><path d="m485.95 245.011c-.013-.137-.039-.269-.058-.404-.026-.188-.049-.377-.086-.564-.031-.158-.075-.312-.114-.467-.04-.161-.076-.323-.124-.482-.047-.153-.104-.301-.158-.451-.056-.158-.109-.317-.173-.473-.058-.139-.125-.272-.189-.407-.075-.161-.147-.323-.231-.48-.068-.127-.146-.249-.22-.373-.093-.156-.181-.314-.283-.466-.09-.134-.19-.259-.285-.388-.098-.133-.191-.268-.297-.397-.179-.218-.37-.425-.567-.627-.033-.033-.06-.07-.093-.103l-67.072-67.072v-81.857c0-5.522-4.477-10-10-10h-3.82l-37.236-74.472c-1.694-3.388-5.156-5.528-8.944-5.528s-7.25 2.14-8.944 5.528l-37.236 74.472h-7.64l-37.236-74.472c-1.694-3.388-5.156-5.528-8.944-5.528s-7.25 2.14-8.944 5.528l-37.236 74.472h-7.64l-37.236-74.472c-1.694-3.388-5.156-5.528-8.944-5.528s-7.25 2.14-8.944 5.528l-37.236 74.472h-3.82c-5.523 0-10 4.478-10 10v81.857l-67.071 67.071c-.033.033-.061.07-.093.103-.196.202-.388.409-.567.627-.106.129-.198.264-.297.397-.096.129-.196.254-.285.388-.102.152-.191.31-.283.466-.074.124-.152.245-.22.373-.084.157-.156.319-.231.48-.064.135-.131.268-.189.407-.065.156-.117.315-.173.473-.054.15-.111.298-.158.451-.048.159-.084.321-.124.482-.039.156-.083.309-.114.467-.037.187-.06.375-.086.564-.019.135-.045.268-.058.404-.033.331-.05.662-.05.994v255.996c0 5.522 4.477 10 10 10h440c5.523 0 10-4.478 10-10v-255.995c-.001-.332-.018-.664-.051-.994zm-269.95 60.989v-116h80v116zm-100 0v-116h80v116zm-65.857-60 45.857-45.857v91.715zm65.857-146h79.979c.007 0 .014.001.021.001v29.999h-80zm179.979 0c.007 0 .014.001.021.001v29.999h-80v-30zm100 0c.007 0 .014.001.021.001v29.999h-80v-30zm-179.979 50h80v20h-80zm100 0h80v20h-80zm-120 0v20h-80v-20zm120 40h80v116h-80zm100 10.143 45.857 45.857-45.857 45.858zm-60-167.783 23.82 47.64h-47.64zm-100 0 23.82 47.64h-47.64zm-100 0 23.82 47.64h-47.64zm-110 459.64v-221.857l52.929 52.929c.05.05.105.092.156.141.184.176.37.351.567.513.078.063.161.118.24.18.18.139.358.278.547.405.065.043.133.079.199.121.211.134.422.267.643.385.045.024.092.043.138.066.245.126.492.247.748.354.03.012.061.021.09.033.271.109.547.211.829.297.032.01.066.016.098.025.278.082.56.155.848.213.078.016.159.022.237.036.242.042.485.084.733.109.33.033.663.05.998.05h300c.335 0 .668-.017.998-.05.248-.025.49-.067.733-.109.079-.014.159-.021.237-.036.288-.058.569-.131.848-.213.032-.01.066-.016.098-.025.282-.086.558-.188.829-.297.03-.012.061-.021.09-.033.256-.106.504-.227.748-.354.045-.023.093-.042.138-.066.221-.119.433-.251.643-.385.065-.042.134-.077.199-.121.189-.126.368-.266.547-.405.079-.062.163-.116.24-.18.197-.162.383-.337.567-.513.051-.049.106-.091.156-.141l52.929-52.929v221.857z" fill="#60a4ff"/></g></g></svg>