<svg id="Layer_1" enable-background="new 0 0 512 512" height="512" viewBox="0 0 512 512" width="512" xmlns="http://www.w3.org/2000/svg"><g><path d="m10 46h164v380h-164z" fill="#cecdf3"/><circle cx="72" cy="246" fill="#fff" r="20"/><path d="m174 46h164v380h-164z" fill="#b5b3ee"/><path d="m338 46h164v380h-164z" fill="#cecdf3"/><circle cx="400" cy="246" fill="#fff" r="20"/><g><path d="m286 296c-16.569 13.333-43.431 13.333-60 0v-40c16.569-13.333 43.431-13.333 60 0z" fill="#fff2a0"/><g fill="#b278d3"><path d="m52 96h80c5.523 0 10-4.478 10-10s-4.477-10-10-10h-80c-5.523 0-10 4.478-10 10s4.477 10 10 10z"/><path d="m132 116h-80c-5.523 0-10 4.478-10 10s4.477 10 10 10h80c5.523 0 10-4.478 10-10s-4.477-10-10-10z"/><path d="m132 156h-80c-5.523 0-10 4.478-10 10s4.477 10 10 10h80c5.523 0 10-4.478 10-10s-4.477-10-10-10z"/><path d="m132 336h-80c-5.523 0-10 4.478-10 10s4.477 10 10 10h80c5.523 0 10-4.478 10-10s-4.477-10-10-10z"/><path d="m132 376h-80c-5.523 0-10 4.478-10 10s4.477 10 10 10h80c5.523 0 10-4.478 10-10s-4.477-10-10-10z"/><path d="m216 96h80c5.523 0 10-4.478 10-10s-4.477-10-10-10h-80c-5.523 0-10 4.478-10 10s4.477 10 10 10z"/><path d="m296 116h-80c-5.523 0-10 4.478-10 10s4.477 10 10 10h80c5.523 0 10-4.478 10-10s-4.477-10-10-10z"/><path d="m296 156h-80c-5.523 0-10 4.478-10 10s4.477 10 10 10h80c5.523 0 10-4.478 10-10s-4.477-10-10-10z"/><path d="m296 336h-80c-5.523 0-10 4.478-10 10s4.477 10 10 10h80c5.523 0 10-4.478 10-10s-4.477-10-10-10z"/><path d="m296 376h-80c-5.523 0-10 4.478-10 10s4.477 10 10 10h80c5.523 0 10-4.478 10-10s-4.477-10-10-10z"/><path d="m502 36h-492c-5.523 0-10 4.478-10 10v420c0 5.522 4.477 10 10 10s10-4.478 10-10v-30h144v30c0 5.522 4.477 10 10 10s10-4.478 10-10v-30h144v30c0 5.522 4.477 10 10 10s10-4.478 10-10v-30h144v30c0 5.522 4.477 10 10 10s10-4.478 10-10v-420c0-5.522-4.477-10-10-10zm-482 380v-360h144v360zm164 0v-360h144v360zm164 0v-360h144v360z"/><path d="m380 96h80c5.523 0 10-4.478 10-10s-4.477-10-10-10h-80c-5.523 0-10 4.478-10 10s4.477 10 10 10z"/><path d="m460 116h-80c-5.523 0-10 4.478-10 10s4.477 10 10 10h80c5.523 0 10-4.478 10-10s-4.477-10-10-10z"/><path d="m460 156h-80c-5.523 0-10 4.478-10 10s4.477 10 10 10h80c5.523 0 10-4.478 10-10s-4.477-10-10-10z"/><path d="m460 336h-80c-5.523 0-10 4.478-10 10s4.477 10 10 10h80c5.523 0 10-4.478 10-10s-4.477-10-10-10z"/><path d="m460 376h-80c-5.523 0-10 4.478-10 10s4.477 10 10 10h80c5.523 0 10-4.478 10-10s-4.477-10-10-10z"/><path d="m256 196c-16.542 0-30 13.458-30 30v17.888c-2.184 1.286-4.283 2.723-6.27 4.321-2.359 1.898-3.73 4.764-3.73 7.791v40c0 3.027 1.372 5.893 3.73 7.791 10.169 8.183 23.219 12.274 36.27 12.274s26.101-4.092 36.27-12.274c2.359-1.898 3.73-4.764 3.73-7.791v-40c0-3.027-1.372-5.893-3.73-7.791-1.986-1.598-4.085-3.035-6.27-4.321v-17.888c0-16.542-13.458-30-30-30zm-10 30c0-5.514 4.486-10 10-10s10 4.486 10 10v10.748c-6.602-1.078-13.398-1.078-20 0zm30 64.785c-11.719 6.918-28.281 6.918-40 0v-29.57c11.719-6.918 28.281-6.918 40 0z"/></g></g></g></svg>