<svg id="Layer_1" enable-background="new 0 0 511.997 511.997" height="512" viewBox="0 0 511.997 511.997" width="512" xmlns="http://www.w3.org/2000/svg"><g><path d="m405.966 301.997c-35.679 0-340 0-340 0-26.667 27.614-26.667 72.386 0 100h340c-26.666-27.614-26.666-72.385 0-100z" fill="#cecdf3"/><path d="m445.966 401.997c-35.679 0-340 0-340 0-26.667 27.614-26.667 72.386 0 100h340c-26.666-27.614-26.666-72.385 0-100z" fill="#cecdf3"/><path d="m195.966 351.997v80l-30-30-30 30v-80" fill="#ffbecb"/><g><path d="m209.898 101.997c14.572 0 28.233 4.872 40 13.381 11.767-8.509 25.428-13.381 40-13.381 44.183 0 80 44.771 80 100 0 55.228-35.817 100-80 100-14.572 0-28.233-4.872-40-13.381-11.767 8.509-25.428 13.381-40 13.381-44.183 0-80-44.772-80-100s35.817-100 80-100z" fill="#ff9eb1"/><g><path d="m328.428 197.999c-4.622 0-8.773-3.222-9.771-7.924-3.833-18.042-15.919-32.059-31.541-36.583-5.305-1.536-8.36-7.082-6.824-12.387 1.537-5.305 7.083-8.36 12.387-6.824 22.722 6.579 40.173 26.365 45.541 51.637 1.148 5.402-2.301 10.712-7.703 11.86-.701.15-1.4.221-2.089.221z" fill="#ffdfe5"/></g><path d="m299.331 10.564s4.482 30.838-11.773 47.094c-16.256 16.256-47.094 11.773-47.094 11.773s-4.482-30.838 11.773-47.094 47.094-11.773 47.094-11.773z" fill="#b8ecbc"/><g fill="#b278d3"><path d="m465.966 491.997h-15.539c-19.262-22.851-19.262-57.149 0-80h15.539c5.522 0 10-4.477 10-10s-4.478-10-10-10h-55.539c-19.262-22.851-19.262-57.149 0-80h15.539c5.522 0 10-4.477 10-10s-4.478-10-10-10h-84.203c4.438-3.835 8.627-8.187 12.511-13.042 16.522-20.654 25.622-47.984 25.622-76.958s-9.1-56.304-25.622-76.958c-17.047-21.308-39.909-33.042-64.378-33.042-10.425 0-20.716 2.195-30.416 6.429-.701-6.49-2.301-12.711-4.659-18.55 1.3-.063 2.64-.151 4.024-.28 15.094-1.412 27.468-6.553 35.783-14.868 8.314-8.314 13.455-20.688 14.867-35.782 1.012-10.806-.216-19.458-.269-19.82-.637-4.38-4.078-7.821-8.458-8.458-.363-.053-9.014-1.281-19.821-.27-15.095 1.412-27.468 6.553-35.783 14.868-7.942 7.943-12.98 19.595-14.647 33.778-11.464-8.2-25.483-13.047-40.622-13.047-5.523 0-10 4.477-10 10s4.477 10 10 10c24.841 0 45.5 18.211 49.349 41.983-9.387-3.936-19.305-5.983-29.349-5.983-24.468 0-47.331 11.735-64.377 33.042-16.523 20.654-25.623 47.984-25.623 76.958s9.1 56.304 25.623 76.958c3.884 4.855 8.073 9.207 12.511 13.042h-92.063c-2.713 0-5.309 1.102-7.193 3.053-30.323 31.4-30.323 82.493 0 113.894 1.884 1.951 4.48 3.053 7.193 3.053h20.311c-16.987 30.755-12.833 70.717 12.496 96.947 1.884 1.951 4.48 3.053 7.193 3.053h360c5.522 0 10-4.477 10-10s-4.477-10-10-10zm-206.657-462.589c7.645-7.645 21.151-9.43 30.591-9.43h.017c.002 9.441-1.78 22.959-9.43 30.608-7.644 7.644-21.146 9.429-30.576 9.431-.031-8.73 1.344-22.555 9.398-30.609zm-119.411 172.589c0-49.626 31.402-90 70-90 11.944 0 23.75 3.971 34.141 11.485 3.497 2.528 8.222 2.528 11.719 0 10.391-7.514 22.196-11.485 34.14-11.485 38.598 0 70 40.374 70 90s-31.402 90-70 90c-11.944 0-23.75-3.971-34.14-11.485-1.749-1.264-3.804-1.896-5.859-1.896s-4.111.632-5.859 1.896c-10.391 7.514-22.196 11.485-34.141 11.485-38.6 0-70.001-40.374-70.001-90zm-69.493 110h315.872c-13.638 24.692-13.638 55.308 0 80h-180.31v-30h120c5.522 0 10-4.477 10-10s-4.478-10-10-10h-220c-5.523 0-10 4.477-10 10s4.477 10 10 10h20v30h-55.562c-19.252-22.847-19.252-57.152 0-80zm75.561 50h40v45.858l-12.929-12.929c-3.905-3.905-10.237-3.905-14.143 0l-12.929 12.929v-45.858zm-35.539 50h15.54v20c0 4.044 2.437 7.691 6.173 9.239 3.737 1.549 8.038.691 10.898-2.167l22.929-22.929 22.929 22.929c1.914 1.913 4.471 2.929 7.074 2.929 1.288 0 2.587-.25 3.824-.762 3.737-1.548 6.173-5.194 6.173-9.239v-20h220.31c-13.638 24.692-13.638 55.308 0 80h-315.872c-19.254-22.85-19.237-57.152.022-80z"/><path d="m365.966 441.997h-140c-5.523 0-10 4.477-10 10s4.477 10 10 10h140c5.522 0 10-4.477 10-10s-4.477-10-10-10z"/></g></g></g></svg>