<svg id="Layer_1" enable-background="new 0 0 512 512" height="512" viewBox="0 0 512 512" width="512" xmlns="http://www.w3.org/2000/svg"><g><path d="m56 56h40v360h-40z" fill="#c5d3de"/><path d="m416 56h40v360h-40z" fill="#c5d3de"/><g fill="#ffee80"><circle cx="166" cy="126" r="30"/><circle cx="226" cy="126" r="30"/><circle cx="326" cy="126" r="30"/></g><circle cx="166" cy="226" fill="#b8ecbc" r="30"/><circle cx="346" cy="226" fill="#b8ecbc" r="30"/><circle cx="166" cy="326" fill="#ffbecb" r="30"/><circle cx="286" cy="326" fill="#ffbecb" r="30"/><path d="m236 190h40v492h-40z" fill="#dae6e6" transform="matrix(0 1 -1 0 692 180)"/><path d="m502 406h-36v-350c0-5.522-4.478-10-10-10h-40c-5.522 0-10 4.478-10 10v60h-41.266c-4.452-17.233-20.13-30-38.734-30s-34.282 12.767-38.734 30h-22.532c-4.452-17.233-20.13-30-38.734-30-11.938 0-22.665 5.264-30 13.585-7.335-8.321-18.062-13.585-30-13.585-18.604 0-34.282 12.767-38.734 30h-21.266v-60c0-5.522-4.478-10-10-10h-40c-5.522 0-10 4.478-10 10v350h-36c-5.522 0-10 4.478-10 10v40c0 5.522 4.478 10 10 10h492c5.522 0 10-4.478 10-10v-40c0-5.522-4.478-10-10-10zm-76-340h20v340h-20zm-320 340v-70h21.266c4.452 17.232 20.13 30 38.734 30s34.282-12.768 38.734-30h42.532c4.452 17.232 20.13 30 38.734 30s34.282-12.768 38.734-30h81.266v70zm21.266-170c4.452 17.232 20.13 30 38.734 30s34.282-12.768 38.734-30h102.532c4.452 17.232 20.13 30 38.734 30s34.282-12.768 38.734-30h21.266v80h-81.266c-4.452-17.232-20.13-30-38.734-30s-34.282 12.768-38.734 30h-42.532c-4.452-17.232-20.13-30-38.734-30s-34.282 12.768-38.734 30h-21.266v-80zm18.734-10c0-11.028 8.972-20 20-20s20 8.972 20 20-8.972 20-20 20-20-8.972-20-20zm180 0c0-11.028 8.972-20 20-20s20 8.972 20 20-8.972 20-20 20-20-8.972-20-20zm-20 100c0 11.028-8.972 20-20 20s-20-8.972-20-20 8.972-20 20-20 20 8.972 20 20zm-120 0c0 11.028-8.972 20-20 20s-20-8.972-20-20 8.972-20 20-20 20 8.972 20 20zm140-220c11.028 0 20 8.972 20 20s-8.972 20-20 20-20-8.972-20-20 8.972-20 20-20zm-100 0c11.028 0 20 8.972 20 20s-8.972 20-20 20-20-8.972-20-20 8.972-20 20-20zm-60 0c11.028 0 20 8.972 20 20s-8.972 20-20 20-20-8.972-20-20 8.972-20 20-20zm-38.734 30c4.452 17.233 20.13 30 38.734 30 11.938 0 22.665-5.264 30-13.585 7.335 8.321 18.062 13.585 30 13.585 18.604 0 34.282-12.767 38.734-30h22.532c4.452 17.233 20.13 30 38.734 30s34.282-12.767 38.734-30h41.266v80h-21.266c-4.452-17.233-20.13-30-38.734-30s-34.282 12.767-38.734 30h-102.532c-4.452-17.233-20.13-30-38.734-30s-34.282 12.767-38.734 30h-21.266v-80zm-61.266-70h20v340h-20zm426 380h-472v-20h472z" fill="#8aa8bd"/></g></svg>