<svg id="Layer_1" enable-background="new 0 0 512 512" height="512" viewBox="0 0 512 512" width="512" xmlns="http://www.w3.org/2000/svg"><g><path d="m378.835 174.788c-9.602-17.512-22.838-32.745-38.695-44.688l55.86-120.1z" fill="#a7bdcd"/><path d="m133.165 174.788c9.602-17.512 22.838-32.745 38.695-44.688l-55.86-120.1z" fill="#a7bdcd"/><g fill="#c5d3de"><path d="m218.242 107.157-42.242-97.157h-60l55.861 120.101c13.719-10.332 29.398-18.198 46.381-22.944z"/><path d="m340.139 130.101 55.861-120.101h-60l-42.242 97.157c16.983 4.746 32.662 12.612 46.381 22.944z"/><path d="m376 502h-240c-11.046 0-20-8.954-20-20v-240c0-77.32 62.68-140 140-140 77.32 0 140 62.68 140 140v240c0 11.046-8.954 20-20 20z"/></g><path d="m196 222h120v40h-120z" fill="#a7bdcd"/><g fill="#8aa8bd"><path d="m405.946 11.036c.009-.09.007-.178.014-.267.011-.138.017-.274.022-.412.01-.269.008-.535-.003-.799-.005-.112-.007-.225-.016-.337-.028-.36-.072-.715-.137-1.065-.004-.019-.005-.039-.009-.058-.075-.39-.176-.771-.295-1.144-.021-.066-.048-.131-.071-.197-.103-.298-.218-.59-.348-.876-.044-.097-.09-.193-.137-.289-.136-.276-.285-.545-.446-.808-.032-.053-.056-.11-.089-.162-.012-.019-.028-.036-.04-.055-.208-.322-.434-.631-.677-.927-.052-.063-.109-.12-.162-.182-.198-.228-.404-.448-.622-.657-.084-.081-.169-.158-.255-.236-.215-.194-.439-.377-.671-.552-.073-.055-.143-.113-.218-.166-.622-.442-1.299-.815-2.02-1.108-.085-.035-.172-.063-.258-.096-.271-.102-.546-.192-.828-.27-.116-.032-.232-.063-.349-.091-.266-.063-.538-.114-.813-.156-.117-.018-.232-.041-.35-.054-.044-.005-.087-.016-.132-.021-.318-.032-.633-.045-.946-.048-.03.002-.06-.003-.09-.003h-60c-3.981 0-7.583 2.361-9.171 6.013l-29.509 67.87c-9.01-13.199-24.168-21.883-41.32-21.883s-32.31 8.684-41.32 21.883l-29.509-67.87c-1.588-3.652-5.19-6.013-9.171-6.013h-60c-.009 0-.017.001-.026.001-.334.001-.671.018-1.01.052-.045.005-.087.015-.132.021-.118.014-.233.036-.35.054-.275.042-.546.093-.813.156-.117.028-.233.059-.349.091-.282.078-.558.168-.828.27-.086.032-.173.061-.258.096-.722.293-1.398.666-2.02 1.108-.074.053-.145.11-.218.166-.232.175-.456.358-.671.552-.086.078-.171.155-.255.236-.218.209-.424.429-.622.657-.053.062-.11.119-.162.182-.244.295-.469.605-.677.927-.012.019-.028.036-.04.055-.033.052-.057.109-.089.162-.161.262-.31.531-.446.808-.047.096-.093.192-.137.289-.13.286-.245.578-.348.876-.023.066-.049.13-.071.197-.12.374-.22.754-.295 1.144-.004.019-.005.039-.009.058-.065.35-.109.705-.137 1.065-.009.112-.011.225-.016.337-.011.265-.013.531-.003.799.005.138.011.274.022.412.007.089.005.177.014.267l16.858 161.832c-10.797 20.699-16.912 44.212-16.912 69.13v240c0 16.542 13.458 30 30 30h240c16.542 0 30-13.458 30-30v-240c0-24.918-6.115-48.431-16.911-69.132zm-59.507 440.964h-80.439v-70c0-5.522-4.477-10-10-10s-10 4.478-10 10v70h-80.439c.282-2.162.439-4.353.439-6.568v-203.432c0-49.626 40.374-90 90-90s90 40.374 90 90v203.432c0 2.215.156 4.406.439 6.568zm-195.084 28.787c2.692-2.692 5.026-5.644 7.006-8.787h195.278c1.98 3.144 4.314 6.095 7.006 8.787l11.212 11.213h-231.714zm223.432-14.142c-5.667-5.666-8.787-13.2-8.787-21.213v-203.432c0-60.654-49.346-110-110-110s-110 49.346-110 110v203.432c0 8.013-3.121 15.547-8.787 21.213l-11.213 11.212v-235.857c0-71.683 58.318-130 130-130s130 58.317 130 130v235.857zm-22.295-339.391 27.369-58.843-8.15 78.239c-5.805-7.033-12.245-13.522-19.219-19.396zm-9.935-107.254h37.764l-44.278 95.197c-8.978-5.688-18.595-10.453-28.723-14.151zm-86.557 52c14.078 0 25.916 9.75 29.132 22.849-9.427-1.863-19.166-2.849-29.132-2.849s-19.705.986-29.132 2.849c3.216-13.099 15.054-22.849 29.132-22.849zm-86.557-52 35.237 81.045c-10.127 3.699-19.745 8.464-28.723 14.151l-44.277-95.196zm-37.304 48.411 27.369 58.843c-6.974 5.874-13.414 12.363-19.219 19.396z"/><path d="m316 212h-120c-5.523 0-10 4.478-10 10v40c0 5.522 4.477 10 10 10h10v10c0 5.522 4.477 10 10 10s10-4.478 10-10v-10h90c5.523 0 10-4.478 10-10v-40c0-5.522-4.477-10-10-10zm-10 40h-100v-20h100z"/></g></g></svg>