<svg id="Layer_1" enable-background="new 0 0 512 512" height="512" viewBox="0 0 512 512" width="512" xmlns="http://www.w3.org/2000/svg"><g><path d="m366 420h-260v-400h260c22.091 0 40 17.909 40 40v320c0 22.091-17.909 40-40 40z" fill="#cecdf3"/><path d="m106 20h50v400h-50z" fill="#b5b3ee"/><g><path d="m106 100h300v120h-300z" fill="#fff"/></g><path d="m196 420v82l-30-30-30 30v-82" fill="#ffbecb"/><g><g><path d="m256 150h-100c-5.523 0-10-4.478-10-10s4.477-10 10-10h100c5.523 0 10 4.478 10 10s-4.477 10-10 10z" fill="#e6e6f9"/></g><g><path d="m216 190h-60c-5.523 0-10-4.478-10-10s4.477-10 10-10h60c5.523 0 10 4.478 10 10s-4.477 10-10 10z" fill="#e6e6f9"/></g></g><path d="m306 10h40v420h-40z" fill="#fff2a0"/><path d="m366 10h-10c0-5.522-4.477-10-10-10h-40c-5.523 0-10 4.478-10 10h-190c-5.523 0-10 4.478-10 10v400c0 5.522 4.477 10 10 10h20v72c0 4.045 2.437 7.691 6.173 9.239 3.738 1.546 8.038.691 10.898-2.168l22.929-22.928 22.929 22.929c1.914 1.913 4.471 2.929 7.074 2.929 1.288 0 2.587-.249 3.824-.761 3.737-1.548 6.173-5.194 6.173-9.239v-72h90c0 5.522 4.477 10 10 10h40c5.523 0 10-4.478 10-10h10c27.57 0 50-22.43 50-50v-320.001c0-27.57-22.43-50-50-50zm-10 100h40v100h-40zm10-80c16.542 0 30 13.458 30 30v30h-40v-60zm-250 180v-100h180v100zm180-120h-130v-60h130zm-150-60v60h-30v-60zm-30 200h30v180h-30zm70 247.857-12.929-12.929c-3.905-3.904-10.237-3.904-14.143 0l-12.928 12.929v-47.857h40zm-20-67.857v-180h130v180zm150 10v-400h20v400zm50-10h-10v-180h40v150c0 16.542-13.458 30-30 30z" fill="#b278d3"/></g></svg>