<svg id="Layer_1" enable-background="new 0 0 512 512" height="512" viewBox="0 0 512 512" width="512" xmlns="http://www.w3.org/2000/svg"><g><path d="m63 422c-22.091 0-40 17.909-40 40s17.909 40 40 40h280v-40h-240c0-22.091-17.909-40-40-40z" fill="#ff9eb1"/><path d="m63 422c22.091 0 40 17.909 40 40v-412c0-22.091-17.909-40-40-40s-40 17.909-40 40v412c0-22.091 17.909-40 40-40z" fill="#ffbecb"/><path d="m103 50h280v412h-280z" fill="#ffbecb"/><path d="m143 90h200v100h-200z" fill="#fff"/><g><g><path d="m313 240h-130c-5.523 0-10-4.478-10-10s4.477-10 10-10h130c5.522 0 10 4.478 10 10s-4.478 10-10 10z" fill="#ffdfe5"/></g><g><path d="m283 280h-140c-5.523 0-10-4.478-10-10s4.477-10 10-10h140c5.522 0 10 4.478 10 10s-4.478 10-10 10z" fill="#ffdfe5"/></g><g><path d="m243 320h-100c-5.523 0-10-4.478-10-10s4.477-10 10-10h100c5.522 0 10 4.478 10 10s-4.478 10-10 10z" fill="#ffdfe5"/></g><g><path d="m213 360h-70c-5.523 0-10-4.478-10-10s4.477-10 10-10h70c5.523 0 10 4.478 10 10s-4.477 10-10 10z" fill="#ffdfe5"/></g><g><path d="m203 400h-60c-5.523 0-10-4.478-10-10s4.477-10 10-10h60c5.523 0 10 4.478 10 10s-4.477 10-10 10z" fill="#ffdfe5"/></g></g><path d="m464 196-180 180-50 20 20-50 180-180z" fill="#ccf5fc"/><path d="m376.573 189.787h84.853v42.426h-84.853z" fill="#99ebfa" transform="matrix(.707 -.707 .707 .707 -26.477 358.078)"/><g><path d="m496.071 213.929-32.929-32.929 7.929-7.929c3.905-3.905 3.905-10.237 0-14.143-3.906-3.904-10.236-3.904-14.143 0l-7.928 7.929-7.929-7.929c-3.906-3.904-10.236-3.904-14.143 0l-33.928 33.929v-142.857c0-5.522-4.478-10-10-10h-271.006c-4.646-22.795-24.848-40-48.994-40-27.57 0-50 22.43-50 50v412c0 27.57 22.43 50 50 50h280c5.522 0 10-4.478 10-10v-30h30c5.522 0 10-4.478 10-10v-180.857l71-71 10.857 10.857-52.929 52.929c-3.905 3.905-3.905 10.237 0 14.143 3.906 3.904 10.236 3.904 14.143 0l60-60c3.905-3.906 3.905-10.238 0-14.143zm-217.691 153.549-26.43 10.572 10.572-26.43 111.478-111.477 15.857 15.857zm-215.38-347.478c16.542 0 30 13.458 30 30v372.027c-8.363-6.292-18.753-10.027-30-10.027s-21.637 3.735-30 10.027v-372.027c0-16.542 13.458-30 30-30zm270 472h-270c-16.542 0-30-13.458-30-30s13.458-30 30-30 30 13.458 30 30c0 5.522 4.477 10 10 10h230zm40-40h-260v-392h260v152.857l-126.071 126.072c-.957.958-1.711 2.1-2.214 3.357l-20 50c-1.486 3.714-.615 7.956 2.213 10.785 1.912 1.912 4.469 2.929 7.073 2.929 1.249 0 2.508-.233 3.712-.715l50-20c1.258-.503 2.399-1.257 3.357-2.214l81.93-81.928zm31-210.143-15.858-15.857 45.858-45.857 15.857 15.857z" fill="#ff5a58"/></g></g></svg>