<svg id="Layer_1" enable-background="new 0 0 512 512" height="512" viewBox="0 0 512 512" width="512" xmlns="http://www.w3.org/2000/svg"><g><path d="m50 126h320v320h-320z" fill="#ffda8f"/><path d="m250 406h-240v-320h320v240z" fill="#fff2a0"/><path d="m10 86h320v80h-320z" fill="#ffda8f"/><path d="m330 326h-80v80" fill="#ffda8f"/><g><g><path d="m240 236h-180c-5.522 0-10-4.478-10-10s4.478-10 10-10h180c5.522 0 10 4.478 10 10s-4.478 10-10 10z" fill="#fffbdf"/></g><g><path d="m220 276h-160c-5.522 0-10-4.478-10-10s4.478-10 10-10h160c5.522 0 10 4.478 10 10s-4.478 10-10 10z" fill="#fffbdf"/></g><g><path d="m170 316h-110c-5.522 0-10-4.478-10-10s4.478-10 10-10h110c5.522 0 10 4.478 10 10s-4.478 10-10 10z" fill="#fffbdf"/></g></g><g><path d="m477 96-180 180-50 20 20-50 180-180z" fill="#ccf5fc"/><path d="m389.574 89.787h84.853v42.426h-84.853z" fill="#99ebfa" transform="matrix(.707 -.707 .707 .707 48.041 337.981)"/></g><path d="m509.071 113.929-32.928-32.929 7.929-7.929c3.905-3.905 3.905-10.237 0-14.143-3.906-3.904-10.236-3.904-14.143 0l-7.929 7.929-7.929-7.929c-3.906-3.904-10.236-3.904-14.143 0l-61.578 61.578c-1.787-2.713-4.858-4.506-8.35-4.506h-30v-30c0-5.522-4.478-10-10-10h-320c-5.522 0-10 4.477-10 10v320c0 5.522 4.478 10 10 10h30v30c0 5.522 4.478 10 10 10h320c5.522 0 10-4.478 10-10v-238.858l97-97 10.857 10.858-52.929 52.929c-3.905 3.905-3.905 10.237 0 14.143 3.906 3.904 10.236 3.904 14.143 0l60-60c3.906-3.906 3.906-10.238 0-14.143zm-217.691 153.548-26.43 10.572 10.572-26.43 111.478-111.477 15.857 15.858zm68.62-131.477v2.857l-20 20v-22.857zm-40-40v60h-300v-60zm-300 80h300v2.857l-60.071 60.071c-.957.958-1.711 2.1-2.214 3.357l-20 50c-1.485 3.714-.614 7.956 2.214 10.785 1.912 1.912 4.47 2.929 7.073 2.929 1.249 0 2.508-.233 3.712-.715l50-20c1.258-.503 2.399-1.257 3.357-2.214l15.929-15.928v48.858h-70c-5.522 0-10 4.478-10 10v70h-220zm285.857 160-45.857 45.857v-45.857zm54.143 100h-300v-20h190c.335 0 .668-.017.998-.05.247-.024.489-.067.73-.109.08-.014.161-.021.24-.037.287-.058.567-.131.845-.212.033-.01.068-.016.101-.026.281-.086.556-.187.826-.296.031-.013.063-.021.093-.034.255-.106.501-.226.745-.352.047-.024.095-.043.141-.068.22-.119.432-.25.642-.384.066-.042.135-.078.2-.122.188-.125.365-.264.543-.402.081-.063.166-.118.245-.183.183-.15.355-.313.526-.477.064-.061.133-.115.196-.177l80-80c.063-.063.116-.132.177-.196.163-.172.326-.343.477-.526.066-.08.122-.166.185-.248.137-.177.275-.354.4-.54.044-.067.082-.138.125-.206.133-.208.264-.418.381-.637.025-.046.044-.095.068-.141.126-.244.246-.49.352-.745.013-.03.022-.063.034-.093.109-.27.21-.544.296-.826.01-.034.016-.068.026-.102.081-.277.155-.557.212-.843.017-.084.024-.17.039-.254.041-.237.083-.474.107-.717.033-.33.05-.663.05-.998v-78.857l20-20zm57-294.143-15.857-15.857 45.857-45.858 15.857 15.858z" fill="#ffa96b"/></g></svg>