<svg id="Layer_1" enable-background="new 0 0 512 512" height="512" viewBox="0 0 512 512" width="512" xmlns="http://www.w3.org/2000/svg"><g><path d="m86.5 370c-16.569 0-30 13.431-30 30 0 16.569 13.431 30 30 30h260c-13.333-16.569-13.333-43.431 0-60h-230z" fill="#fff"/><path d="m86.5 370h30v-360h-30c-16.569 0-30 13.431-30 30v360c0-16.569 13.431-30 30-30z" fill="#99ebfa"/><path d="m116.5 370h230 10v-360h-240z" fill="#ccf5fc"/><g><g><path d="m296.5 280h-120c-5.522 0-10-4.478-10-10s4.478-10 10-10h120c5.522 0 10 4.478 10 10s-4.478 10-10 10z" fill="#99ebfa"/></g><g><path d="m256.5 320h-60c-5.522 0-10-4.478-10-10s4.478-10 10-10h60c5.522 0 10 4.478 10 10s-4.478 10-10 10z" fill="#99ebfa"/></g></g><path d="m176.5 70h120v80h-120z" fill="#fff"/><path d="m176.5 476-30-30-30 30v-66h60z" fill="#ff9eb1"/><circle cx="355.5" cy="402" fill="#fff" r="100"/><g fill="#60a4ff"><path d="m366.5 292.548v-282.548c0-5.522-4.478-10-10-10h-270c-22.056 0-40 17.944-40 40v360c0 22.056 17.944 40 40 40h20v36c0 4.045 2.437 7.691 6.173 9.239 3.737 1.546 8.039.692 10.898-2.168l22.929-22.929 22.929 22.929c1.913 1.913 4.471 2.929 7.073 2.929 1.288 0 2.588-.249 3.825-.761 3.736-1.548 6.173-5.194 6.173-9.239v-36h65.768c15.504 41.985 55.927 72 103.232 72 60.654 0 110-49.346 110-110 0-56.942-43.491-103.915-99-109.452zm-20-.178c-41.893 3.409-77.218 30.392-92.66 67.63h-127.34v-340h220zm-260-272.37h20v340h-20c-7.283 0-14.112 1.966-20 5.381v-325.381c0-11.028 8.972-20 20-20zm80 431.857-12.929-12.929c-1.953-1.952-4.512-2.929-7.071-2.929s-5.118.977-7.071 2.929l-12.929 12.929v-31.857h40zm20-31.857v-10c0-5.522-4.478-10-10-10h-60c-5.522 0-10 4.478-10 10v10h-20c-11.028 0-20-8.972-20-20s8.972-20 20-20h161.212c-1.449 7.11-2.212 14.468-2.212 22 0 6.129.512 12.141 1.481 18zm169 72c-49.626 0-90-40.374-90-90s40.374-90 90-90 90 40.374 90 90-40.374 90-90 90z"/><path d="m349.429 429.071c.042.042.087.076.13.117.194.188.392.372.601.543.124.102.255.191.383.287.134.1.264.203.403.296.146.098.299.183.449.272.13.078.257.159.391.231.151.081.306.149.461.222.142.067.281.138.427.198.148.062.3.111.451.166.157.056.312.117.473.165.15.046.303.079.455.117.165.042.327.087.494.121.175.035.352.055.528.081.146.021.291.049.439.063.328.032.657.05.987.05s.659-.018.987-.05c.148-.015.292-.042.439-.063.176-.025.353-.046.528-.081.167-.033.33-.079.494-.121.152-.038.304-.071.455-.117.161-.048.316-.109.473-.165.151-.054.303-.104.451-.166.146-.06.285-.131.427-.198.154-.073.31-.141.461-.222.134-.072.261-.153.391-.231.15-.089.302-.174.449-.272.139-.093.269-.197.403-.296.128-.095.259-.185.383-.287.209-.171.407-.355.601-.543.042-.041.088-.076.13-.117l30-30c3.905-3.905 3.905-10.237 0-14.143-3.906-3.904-10.236-3.904-14.143 0l-12.93 12.929v-55.857c0-5.522-4.478-10-10-10s-10 4.478-10 10v55.857l-12.929-12.929c-3.906-3.904-10.236-3.904-14.143 0-3.905 3.905-3.905 10.237 0 14.143z"/><path d="m396.5 422c-5.522 0-10 4.478-10 10v10h-60v-10c0-5.522-4.478-10-10-10s-10 4.478-10 10v20c0 5.522 4.478 10 10 10h80c5.522 0 10-4.478 10-10v-20c0-5.522-4.478-10-10-10z"/></g></g></svg>