<svg id="Layer_1" enable-background="new 0 0 512 512" height="512" viewBox="0 0 512 512" width="512" xmlns="http://www.w3.org/2000/svg"><g><path d="m246 366h60v56h-60z" fill="#99ebfa"/><circle cx="276" cy="170" fill="#ccf5fc" r="160"/><g fill="#99ebfa"><path d="m156 170 40 40 60-20-40-40 40-40-20-40-60 20z"/><path d="m376 180-80 20v-40l40-20-20-40 40-20 40 40z"/><path d="m316 290h-90l-20-40h50l20-20 60 20z"/></g><path d="m376 502h-200l40-40h120z" fill="#ccf5fc"/><path d="m216 422h120v40h-120z" fill="#ccf5fc"/><g><path d="m403.009 282.866c26.726-30.043 42.991-69.588 42.991-112.866 0-93.738-76.262-170-170-170-43.279 0-82.824 16.265-112.866 42.992l-40.063-40.063c-3.905-3.903-10.237-3.904-14.142 0-3.905 3.905-3.906 10.237 0 14.143l11.676 11.676c-35.285 38.731-54.605 88.505-54.605 141.252 0 56.093 21.844 108.828 61.507 148.492 30.064 30.063 67.64 49.878 108.493 57.714v35.794h-20c-5.523 0-10 4.478-10 10v35.857l-37.071 37.071c-2.86 2.86-3.715 7.161-2.167 10.898 1.548 3.736 5.194 6.173 9.239 6.173h200c4.044 0 7.691-2.437 9.239-6.173 1.548-3.737.692-8.038-2.167-10.898l-37.073-37.071v-35.857c0-5.522-4.477-10-10-10h-20v-35.794c37.637-7.219 72.491-24.608 101.253-50.811l11.676 11.676c1.953 1.952 4.511 2.929 7.071 2.929 2.559 0 5.119-.977 7.071-2.929 3.905-3.905 3.906-10.237 0-14.143zm-127.009-262.866c82.71 0 150 67.29 150 150s-67.29 150-150 150-150-67.29-150-150 67.29-150 150-150zm75.858 472h-151.716l20-20h111.716zm-25.858-60v20h-100v-20zm-70-20v-32.942c6.608.62 13.279.942 20 .942s13.392-.322 20-.942v32.942zm20-52c-50.751 0-98.464-19.764-134.35-55.65-35.887-35.886-55.65-83.599-55.65-134.35 0-47.403 17.246-92.152 48.764-127.093l14.227 14.227c-26.726 30.043-42.991 69.588-42.991 112.866 0 93.738 76.262 170 170 170 43.279 0 82.824-16.265 112.866-42.992l14.227 14.227c-34.941 31.518-79.69 48.765-127.093 48.765z" fill="#60a4ff"/></g></g></svg>