<svg id="Layer_1" enable-background="new 0 0 512 512" height="512" viewBox="0 0 512 512" width="512" xmlns="http://www.w3.org/2000/svg"><g><g><path d="m416 502c-22.091 0-40-17.909-40-40v-300h80v300c0 22.091-17.909 40-40 40z" fill="#ffbecb"/><path d="m376 162h80v80h-80z" fill="#fff"/></g><g fill="#fff"><circle cx="136" cy="30" r="20"/><circle cx="216" cy="66" r="20"/><circle cx="436" cy="106" r="20"/><circle cx="376" cy="56" r="20"/><path d="m216 227.809v-95.809h-80v95.809c-57.828 17.212-100 70.772-100 134.191 0 77.32 62.68 140 140 140s140-62.68 140-140c0-63.419-42.172-116.979-100-134.191z"/></g><path d="m316 362c0 77.32-62.68 140-140 140s-140-62.68-140-140z" fill="#ffbecb"/><g><path d="m191.988 470.729c-4.824 0-9.07-3.499-9.861-8.414-.877-5.453 2.833-10.584 8.285-11.461 29.521-4.747 54.677-23.834 67.293-51.059 2.323-5.011 8.271-7.188 13.278-4.868 5.011 2.322 7.191 8.268 4.869 13.278-15.417 33.265-46.17 56.59-82.264 62.395-.538.087-1.073.129-1.6.129z" fill="#ffdfe5"/></g><circle cx="136" cy="362" fill="#fff" r="20"/><g><circle cx="196" cy="296" fill="#fff" r="20"/></g><g fill="#ff5a58"><path d="m476 152h-120c-5.523 0-10 4.478-10 10s4.477 10 10 10h10v290c0 27.57 22.43 50 50 50s50-22.43 50-50v-290h10c5.523 0 10-4.478 10-10s-4.477-10-10-10zm-60 340c-16.542 0-30-13.458-30-30v-210h60v20h-30c-5.523 0-10 4.478-10 10s4.477 10 10 10h30v20h-20c-5.523 0-10 4.478-10 10s4.477 10 10 10h20v20h-30c-5.523 0-10 4.478-10 10s4.477 10 10 10h30v20h-20c-5.523 0-10 4.478-10 10s4.477 10 10 10h20v20h-30c-5.523 0-10 4.478-10 10s4.477 10 10 10h30v10c0 16.542-13.458 30-30 30zm30-260h-60v-60h60z"/><path d="m136 60c16.542 0 30-13.458 30-30s-13.458-30-30-30-30 13.458-30 30 13.458 30 30 30zm0-40c5.514 0 10 4.486 10 10s-4.486 10-10 10-10-4.486-10-10 4.486-10 10-10z"/><path d="m216 96c16.542 0 30-13.458 30-30s-13.458-30-30-30-30 13.458-30 30 13.458 30 30 30zm0-40c5.514 0 10 4.486 10 10s-4.486 10-10 10-10-4.486-10-10 4.486-10 10-10z"/><path d="m436 136c16.542 0 30-13.458 30-30s-13.458-30-30-30-30 13.458-30 30 13.458 30 30 30zm0-40c5.514 0 10 4.486 10 10s-4.486 10-10 10-10-4.486-10-10 4.486-10 10-10z"/><path d="m376 86c16.542 0 30-13.458 30-30s-13.458-30-30-30-30 13.458-30 30 13.458 30 30 30zm0-40c5.514 0 10 4.486 10 10s-4.486 10-10 10-10-4.486-10-10 4.486-10 10-10z"/><path d="m226 220.554v-78.554h10c5.523 0 10-4.478 10-10s-4.477-10-10-10h-120c-5.523 0-10 4.478-10 10s4.477 10 10 10h10v78.554c-27.452 9.738-51.98 27.642-69.658 50.986-19.85 26.214-30.342 57.494-30.342 90.46 0 82.71 67.29 150 150 150s150-67.29 150-150c0-32.966-10.492-64.246-30.342-90.46-17.678-23.345-42.206-41.248-69.658-50.986zm-153.713 63.06c16.647-21.984 40.288-38.399 66.566-46.222 4.24-1.262 7.147-5.16 7.147-9.584v-85.808h60v85.809c0 4.424 2.907 8.322 7.147 9.584 26.279 7.822 49.919 24.237 66.566 46.222 15.177 20.042 24.028 43.511 25.901 68.386h-141.334c-4.128-11.639-15.243-20-28.28-20s-24.152 8.361-28.28 20h-61.334c1.872-24.876 10.724-48.344 25.901-68.387zm73.713 78.386c0 5.514-4.486 10-10 10s-10-4.486-10-10 4.486-10 10-10 10 4.486 10 10zm30 130c-68.318 0-124.496-52.972-129.619-120h61.339c4.128 11.639 15.243 20 28.28 20s24.152-8.361 28.28-20h141.339c-5.123 67.028-61.301 120-129.619 120z"/><path d="m196 326c16.542 0 30-13.458 30-30s-13.458-30-30-30-30 13.458-30 30 13.458 30 30 30zm0-40c5.514 0 10 4.486 10 10s-4.486 10-10 10-10-4.486-10-10 4.486-10 10-10z"/></g></g></svg>