<svg id="Layer_1" enable-background="new 0 0 512 512" height="512" viewBox="0 0 512 512" width="512" xmlns="http://www.w3.org/2000/svg"><g><path d="m351 50h40v200h-40z" fill="#ccf5fc"/><path d="m351 50h40v80h-40z" fill="#99ebfa"/><path d="m111 250v-240h80v240" fill="#fff2a0"/><path d="m311 250h-80v-140l40-80 40 80z" fill="#ffdfe5"/><path d="m291 110c-11.046 0-20 8.954-20 20 0-11.046-8.954-20-20-20s-20 8.954-20 20v120h80v-120c0-11.046-8.954-20-20-20z" fill="#fff2a0"/><path d="m381 290-40 212h-180l-40-212" fill="#cecdf3"/><path d="m91 250h320v40h-320z" fill="#fff"/><path d="m421 40h-40v-10c0-5.522-4.478-10-10-10s-10 4.478-10 10v10h-10c-5.522 0-10 4.478-10 10v190h-20v-130c0-1.553-.361-3.084-1.056-4.472l-40-80c-1.694-3.388-5.156-5.528-8.944-5.528s-7.25 2.14-8.944 5.528l-40 80c-.695 1.388-1.056 2.919-1.056 4.472v130h-20v-230c0-5.522-4.477-10-10-10h-80c-5.523 0-10 4.478-10 10v230h-10c-5.523 0-10 4.478-10 10v40c0 5.522 4.477 10 10 10h21.71l38.463 203.854c.892 4.724 5.019 8.146 9.827 8.146h180c4.808 0 8.936-3.422 9.826-8.146l38.463-203.854h21.711c5.522 0 10-4.478 10-10v-40c0-5.522-4.478-10-10-10h-10v-180h10v70c0 5.522 4.478 10 10 10s10-4.478 10-10v-80c0-5.522-4.478-10-10-10zm-140 200v-110c0-5.514 4.486-10 10-10s10 4.486 10 10v110zm-10-187.64 23.954 47.908c-1.295-.171-2.613-.268-3.954-.268-7.678 0-14.688 2.902-20 7.664-5.312-4.761-12.322-7.664-20-7.664-1.341 0-2.659.097-3.954.269zm-30 77.64c0-5.514 4.486-10 10-10s10 4.486 10 10v110h-20zm-120-110h60v20h-30c-5.523 0-10 4.478-10 10s4.477 10 10 10h30v20h-20c-5.523 0-10 4.478-10 10s4.477 10 10 10h20v20h-30c-5.523 0-10 4.478-10 10s4.477 10 10 10h30v20h-20c-5.523 0-10 4.478-10 10s4.477 10 10 10h20v20h-30c-5.523 0-10 4.478-10 10s4.477 10 10 10h30v20h-60zm211.71 472h-163.42l-36.226-192h235.874zm68.29-212h-20.089c-.038 0-.076-.001-.113 0h-259.607c-.025 0-.05 0-.074 0h-20.117v-20h300zm-40-40v-100h20v100zm20-120h-20v-60h20z" fill="#b278d3"/></g></svg>