<svg id="Layer_1" enable-background="new 0 0 512 512" height="512" viewBox="0 0 512 512" width="512" xmlns="http://www.w3.org/2000/svg"><g><path d="m56 169h446v280h-446z" fill="#c5d3de"/><path d="m10 123h446v280h-446z" fill="#dae6e6"/><circle cx="109" cy="253" fill="#fff" r="60"/><circle cx="110" cy="253" fill="#fff" r="20"/><path d="m110 273c-17.642 0-32.604 11.426-37.921 27.277 10.182 7.963 22.992 12.723 36.921 12.723 14.649 0 28.066-5.256 38.484-13.978-5.669-15.197-20.31-26.022-37.484-26.022z" fill="#ffbecb"/><g><g><path d="m416 223h-206c-5.522 0-10-4.478-10-10s4.478-10 10-10h206c5.522 0 10 4.478 10 10s-4.478 10-10 10z" fill="#fff"/></g><g><path d="m376 263h-166c-5.522 0-10-4.478-10-10s4.478-10 10-10h166c5.522 0 10 4.478 10 10s-4.478 10-10 10z" fill="#fff"/></g><g><path d="m396 303h-186c-5.522 0-10-4.478-10-10s4.478-10 10-10h186c5.522 0 10 4.478 10 10s-4.478 10-10 10z" fill="#fff"/></g><g><path d="m396 363h-124c-5.522 0-10-4.478-10-10s4.478-10 10-10h124c5.522 0 10 4.478 10 10s-4.478 10-10 10z" fill="#fff"/></g><g><path d="m230 363h-180c-5.522 0-10-4.478-10-10s4.478-10 10-10h180c5.522 0 10 4.478 10 10s-4.478 10-10 10z" fill="#fff"/></g></g><path d="m203 163v-100h60v100" fill="#ffbecb"/><g fill="#8aa8bd"><path d="m502 159h-36v-36c0-5.522-4.478-10-10-10h-183v-50c0-5.522-4.478-10-10-10h-60c-5.522 0-10 4.478-10 10v50h-183c-5.522 0-10 4.478-10 10v280c0 5.522 4.478 10 10 10h36v36c0 5.522 4.478 10 10 10h446c5.522 0 10-4.478 10-10v-280c0-5.522-4.478-10-10-10zm-289-86h40v80h-40zm-193 60h173v20h-20c-5.522 0-10 4.478-10 10s4.478 10 10 10h120c5.522 0 10-4.478 10-10s-4.478-10-10-10h-20v-20h173v260h-426zm472 306h-426v-26h390c5.522 0 10-4.478 10-10v-224h26z"/><path d="m109 323c38.598 0 70-31.402 70-70s-31.402-70-70-70-70 31.402-70 70 31.402 70 70 70zm-24.202-26.267c5.47-8.465 14.909-13.733 25.202-13.733 9.951 0 19.1 4.928 24.64 12.905-7.502 4.5-16.273 7.095-25.64 7.095-8.775 0-17.025-2.28-24.202-6.267zm15.202-43.733c0-5.514 4.486-10 10-10s10 4.486 10 10-4.486 10-10 10-10-4.486-10-10zm9-50c27.57 0 50 22.43 50 50 0 10.941-3.542 21.065-9.526 29.307-4.005-5.148-8.957-9.428-14.543-12.642 3.199-4.77 5.069-10.503 5.069-16.665 0-16.542-13.458-30-30-30s-30 13.458-30 30c0 6.162 1.87 11.895 5.069 16.665-6.059 3.486-11.375 8.227-15.543 13.969-6.588-8.469-10.526-19.097-10.526-30.634 0-27.57 22.43-50 50-50z"/></g></g></svg>