<svg id="Layer_1" enable-background="new 0 0 512 512" height="512" viewBox="0 0 512 512" width="512" xmlns="http://www.w3.org/2000/svg"><g><path d="m36 326h180v40h-180z" fill="#fff2a0"/><path d="m56 146h340v180h-340z" fill="#fffbdf"/><path d="m56 286h160v40h-160z" fill="#fff"/><g fill="#ccf5fc"><path d="m316 186h80v100h-80z"/><path d="m96 186h120v60h-120z"/><path d="m216 186h100v180h-100z"/></g><path d="m216 326h100v40h-100z" fill="#fff"/><path d="m316 286h160v80h-160z" fill="#fff2a0"/><path d="m36 106h380v40h-380z" fill="#fff2a0"/><circle cx="136" cy="366" fill="#fff" r="40"/><circle cx="136" cy="366" fill="#fff2a0" r="10"/><circle cx="396" cy="366" fill="#fff" r="40"/><circle cx="396" cy="366" fill="#fff2a0" r="10"/><path d="m436 186h40v40h-40z" fill="#fffbdf"/><path d="m502 396h-66.027c4.377-5.817 7.516-12.614 9.021-20h31.006c5.522 0 10-4.477 10-10v-80c0-5.523-4.478-10-10-10h-70v-80h20v30c0 5.523 4.478 10 10 10h40c5.522 0 10-4.477 10-10v-40c0-5.523-4.478-10-10-10h-70v-20h10c5.522 0 10-4.477 10-10v-40c0-5.523-4.478-10-10-10h-380c-5.522 0-10 4.477-10 10v40c0 5.523 4.478 10 10 10h10v160h-10c-5.522 0-10 4.477-10 10v40c0 5.523 4.478 10 10 10h51.006c1.505 7.386 4.645 14.183 9.021 20h-86.027c-5.522 0-10 4.477-10 10s4.478 10 10 10h492c5.522 0 10-4.477 10-10s-4.478-10-10-10zm-56-200h20v20h-20zm-340 40v-40h40v40zm60-40h40v40h-40zm60 0h30v120h-30zm80 0v120h-30v-120zm-30 160v-20h30v20zm-20-20v20h-30v-20zm-50 20h-21.006c-1.505-7.386-4.645-14.183-9.021-20h30.027zm-21.006 20h162.012c1.505 7.386 4.645 14.183 9.021 20h-180.054c4.376-5.817 7.516-12.614 9.021-20zm181.006-10c0-16.542 13.458-30 30-30s30 13.458 30 30-13.458 30-30 30-30-13.458-30-30zm100-50h-10c-5.522 0-10 4.477-10 10s4.478 10 10 10h10v20h-21.006c-4.646-22.795-24.847-40-48.994-40s-44.348 17.205-48.994 40h-21.006v-60h140zm-80-40h-60v-80h60zm-340-160h360v20h-360zm340 40v20h-290c-5.522 0-10 4.477-10 10v60c0 5.523 4.478 10 10 10h110v20h-140v-120zm-320 140h140v20h-140zm-20 40h50.027c-4.377 5.817-7.516 12.614-9.021 20h-41.006zm60 30c0-16.542 13.458-30 30-30s30 13.458 30 30-13.458 30-30 30-30-13.458-30-30z" fill="#ffa96b"/></g></svg>