<svg id="Layer_1" enable-background="new 0 0 512 512" height="512" viewBox="0 0 512 512" width="512" xmlns="http://www.w3.org/2000/svg"><g><path d="m216 72c0-22.091 17.909-40 40-40s40 17.909 40 40" fill="#ffda8f"/><circle cx="256" cy="272" fill="#fff2a0" r="200"/><circle cx="256" cy="272" fill="#fff" r="160"/><circle cx="256" cy="272" fill="#fff2a0" r="20"/><path d="m484.43 128.43c10.85-10.86 17.57-25.86 17.57-42.43 0-33.14-26.86-60-60-60-16.57 0-31.57 6.72-42.43 17.57" fill="#ffda8f"/><path d="m112.43 43.57c-10.86-10.85-25.86-17.57-42.43-17.57-33.14 0-60 26.86-60 60 0 16.57 6.72 31.57 17.57 42.43" fill="#ffda8f"/><g fill="#ffa96b"><path d="m509.072 138.929-11.005-11.005c9.038-12.041 13.933-26.606 13.933-41.924 0-38.598-31.402-70-70-70-15.317 0-29.882 4.896-41.923 13.934l-11.005-11.005c-3.906-3.904-10.236-3.904-14.143 0-3.905 3.905-3.905 10.237 0 14.143l52.929 52.928-30.674 30.674c-25.524-23.222-56.78-40.239-91.359-48.686-2.052-25.699-23.606-45.988-49.825-45.988s-47.773 20.289-49.825 45.988c-34.579 8.447-65.835 25.464-91.359 48.686l-30.673-30.674 52.929-52.929c3.905-3.905 3.905-10.237 0-14.143-3.906-3.904-10.236-3.904-14.143 0l-11.005 11.005c-12.041-9.037-26.606-13.933-41.924-13.933-38.597 0-70 31.403-70 70 0 15.317 4.896 29.882 13.934 41.923l-11.005 11.006c-3.905 3.905-3.905 10.237 0 14.143 1.953 1.952 4.512 2.928 7.071 2.928s5.118-.977 7.071-2.929l52.929-52.928 30.674 30.674c-33.952 37.318-54.674 86.876-54.674 141.183 0 73.172 37.627 137.711 94.539 175.318l-31.61 31.61c-3.905 3.905-3.905 10.237 0 14.143 1.953 1.952 4.512 2.929 7.071 2.929s5.118-.977 7.071-2.929l35.23-35.23c29.203 15.415 62.446 24.159 97.699 24.159s68.497-8.745 97.698-24.159l35.23 35.23c1.953 1.952 4.512 2.929 7.071 2.929s5.118-.977 7.071-2.929c3.905-3.905 3.905-10.237 0-14.143l-31.61-31.61c56.913-37.606 94.54-102.146 94.54-175.318 0-54.307-20.722-103.865-54.674-141.184l30.674-30.673 52.929 52.929c1.953 1.952 4.512 2.929 7.071 2.929s5.118-.977 7.071-2.929c3.906-3.906 3.906-10.238.001-14.143zm-489.072-52.929c0-27.57 22.43-50 50-50 9.955 0 19.466 2.895 27.579 8.279l-69.3 69.3c-5.384-8.113-8.279-17.624-8.279-27.579zm236-44c13.771 0 25.397 9.33 28.908 21.999-9.453-1.307-19.101-1.999-28.908-1.999s-19.455.691-28.908 1.999c3.511-12.669 15.137-21.999 28.908-21.999zm0 420c-104.767 0-190-85.233-190-190s85.234-190 190-190 190 85.233 190 190-85.233 190-190 190zm186-426c27.57 0 50 22.43 50 50 0 9.955-2.894 19.466-8.279 27.579l-69.3-69.3c8.114-5.384 17.625-8.279 27.579-8.279z"/><path d="m376.208 151.792c-.313-.313-.647-.592-.989-.855-30.707-30.243-72.818-48.937-119.219-48.937s-88.512 18.694-119.219 48.937c-.342.263-.676.542-.989.855-.314.314-.593.648-.856.991-30.242 30.706-48.936 72.817-48.936 119.217s18.693 88.511 48.936 119.217c.263.343.542.677.856.991.313.313.647.592.99.855 30.706 30.243 72.817 48.937 119.218 48.937s88.512-18.694 119.218-48.937c.342-.263.676-.542.99-.855.314-.314.593-.648.856-.991 30.243-30.706 48.936-72.816 48.936-119.217s-18.693-88.511-48.936-119.217c-.262-.343-.542-.677-.856-.991zm19.792 130.208h9.659c-2.239 33.846-15.75 64.658-36.81 88.706l-6.782-6.782c-3.906-3.904-10.236-3.904-14.143 0-3.905 3.905-3.905 10.237 0 14.143l6.782 6.782c-24.048 21.061-54.86 34.571-88.706 36.81v-9.659c0-5.522-4.478-10-10-10s-10 4.478-10 10v9.659c-33.846-2.239-64.657-15.75-88.706-36.81l6.782-6.782c3.905-3.905 3.905-10.237 0-14.143-3.906-3.904-10.236-3.904-14.143 0l-6.782 6.782c-21.061-24.048-34.571-54.86-36.81-88.706h9.659c5.522 0 10-4.478 10-10s-4.478-10-10-10h-9.659c2.239-33.846 15.75-64.658 36.81-88.706l6.782 6.782c1.953 1.952 4.512 2.929 7.071 2.929s5.118-.977 7.071-2.929c3.905-3.905 3.905-10.237 0-14.143l-6.782-6.782c24.048-21.061 54.86-34.571 88.706-36.81v9.659c0 5.522 4.478 10 10 10s10-4.478 10-10v-9.659c33.846 2.239 64.657 15.75 88.706 36.81l-6.782 6.782c-3.905 3.905-3.905 10.237 0 14.143 1.953 1.952 4.512 2.929 7.071 2.929s5.118-.977 7.071-2.929l6.782-6.782c21.061 24.048 34.571 54.86 36.81 88.706h-9.657c-5.522 0-10 4.478-10 10s4.478 10 10 10z"/><path d="m336 262h-51.72c-3.018-8.509-9.771-15.262-18.28-18.28v-61.72c0-5.522-4.478-10-10-10s-10 4.478-10 10v61.72c-11.639 4.128-20 15.244-20 28.28 0 16.542 13.458 30 30 30 13.036 0 24.152-8.361 28.28-20h51.72c5.522 0 10-4.478 10-10s-4.477-10-10-10zm-80 20c-5.514 0-10-4.486-10-10s4.486-10 10-10 10 4.486 10 10-4.486 10-10 10z"/></g></g></svg>