<svg id="Layer_1" enable-background="new 0 0 512.066 512.066" height="512" viewBox="0 0 512.066 512.066" width="512" xmlns="http://www.w3.org/2000/svg"><g><path d="m300.066 326.033h-280c-13.333 16.568-13.333 43.432 0 60h280c-13.333-16.568-13.333-43.432 0-60z" fill="#cecdf3"/><g><path d="m300.072 396.033c-2.924 0-5.821-1.275-7.797-3.73-16.367-20.338-16.367-52.201 0-72.539 3.462-4.302 9.758-4.982 14.06-1.521 4.303 3.463 4.983 9.758 1.521 14.061-10.352 12.863-10.352 34.598 0 47.461 3.462 4.303 2.782 10.598-1.521 14.061-1.847 1.484-4.063 2.207-6.263 2.207z" fill="#b278d3"/></g><path d="m330.066 386.033h-280c-13.333 16.568-13.333 43.432 0 60h280c-13.333-16.568-13.333-43.432 0-60z" fill="#fff"/><g><path d="m330.072 456.033c-2.924 0-5.821-1.275-7.797-3.73-16.367-20.338-16.367-52.201 0-72.539 3.462-4.302 9.757-4.982 14.06-1.521 4.303 3.463 4.983 9.758 1.521 14.061-10.352 12.863-10.352 34.598 0 47.461 3.462 4.303 2.782 10.598-1.521 14.061-1.847 1.484-4.063 2.207-6.263 2.207z" fill="#b278d3"/></g><g><path d="m120.066 456.033h-70c-3.028 0-5.893-1.372-7.791-3.73-16.367-20.338-16.367-52.201 0-72.539 3.462-4.302 9.757-4.982 14.06-1.521 4.303 3.463 4.983 9.758 1.521 14.061-9.407 11.689-10.266 30.704-2.576 43.73h64.785c5.523 0 10 4.478 10 10s-4.476 9.999-9.999 9.999z" fill="#b278d3"/></g><g><path d="m340.066 456.033h-160c-5.523 0-10-4.478-10-10s4.477-10 10-10h160c5.523 0 10 4.478 10 10s-4.477 10-10 10z" fill="#b278d3"/></g><path d="m180.066 486.033-30-30-30 30v-70h60z" fill="#ffbecb"/><g><path d="m180.068 496.033c-2.603 0-5.16-1.016-7.074-2.929l-22.929-22.929-22.929 22.929c-2.86 2.86-7.161 3.714-10.898 2.168-3.737-1.548-6.173-5.194-6.173-9.239v-70c0-5.522 4.477-10 10-10s10 4.478 10 10v45.857l12.929-12.929c3.905-3.904 10.237-3.904 14.143 0l12.929 12.929v-45.857c0-5.522 4.477-10 10-10s10 4.478 10 10v70c0 4.045-2.437 7.691-6.173 9.239-1.237.512-2.537.761-3.825.761z" fill="#b278d3"/></g><g><path d="m200.066 426.033h-100c-5.523 0-10-4.478-10-10s4.477-10 10-10h100c5.523 0 10 4.478 10 10s-4.477 10-10 10z" fill="#b278d3"/></g><path d="m360.066 266.033h-280c-13.333 16.568-13.333 43.432 0 60h280c-13.333-16.568-13.333-43.432 0-60z" fill="#fff"/><g><path d="m360.072 336.033c-2.924 0-5.821-1.275-7.797-3.73-16.367-20.338-16.367-52.201 0-72.539 3.462-4.302 9.757-4.981 14.06-1.521 4.303 3.463 4.983 9.758 1.521 14.061-10.352 12.863-10.352 34.598 0 47.461 3.462 4.303 2.782 10.598-1.521 14.061-1.847 1.484-4.063 2.207-6.263 2.207z" fill="#b278d3"/></g><g><path d="m80.072 336.033c-2.924 0-5.821-1.275-7.797-3.73-16.367-20.338-16.367-52.201 0-72.539 3.463-4.302 9.758-4.981 14.06-1.521 4.303 3.463 4.983 9.758 1.521 14.061-10.352 12.863-10.352 34.598 0 47.461 3.462 4.303 2.782 10.598-1.521 14.061-1.847 1.484-4.063 2.207-6.263 2.207z" fill="#b278d3"/></g><path d="m320.066 206.033h-280c-13.333 16.568-13.333 43.432 0 60h280c-13.333-16.568-13.333-43.432 0-60z" fill="#cecdf3"/><g><path d="m320.072 276.033c-2.924 0-5.821-1.275-7.797-3.73-10.305-12.805-14.443-30.815-11.069-48.177 1.053-5.422 6.295-8.959 11.724-7.909 5.421 1.054 8.962 6.303 7.909 11.724-2.231 11.479.458 23.673 7.017 31.823 3.462 4.303 2.782 10.598-1.521 14.061-1.847 1.485-4.063 2.208-6.263 2.208z" fill="#b278d3"/></g><g><path d="m370.066 276.033h-330c-3.028 0-5.893-1.372-7.791-3.73-16.367-20.338-16.367-52.201 0-72.539 1.898-2.358 4.763-3.73 7.791-3.73h226c5.523 0 10 4.478 10 10s-4.477 10-10 10h-220.785c-6.918 11.719-6.918 28.281 0 40h324.785c5.523 0 10 4.478 10 10s-4.477 9.999-10 9.999z" fill="#b278d3"/></g><path d="m415.853 181.033 80 80c8.284 8.284 8.284 21.716 0 30-8.284 8.284-21.716 8.284-30 0l-80-80" fill="#b5b3ee"/><circle cx="328.853" cy="126.033" fill="#cecdf3" r="100"/><circle cx="328.853" cy="126.033" fill="#fff" r="60"/><g><path d="m328.853 236.033c-60.654 0-110-49.346-110-110s49.346-110 110-110 110 49.346 110 110-49.346 110-110 110zm0-200c-49.626 0-90 40.374-90 90s40.374 90 90 90 90-40.374 90-90-40.374-90-90-90z" fill="#b278d3"/></g><g><path d="m480.853 307.231c-7.993 0-15.986-3.042-22.071-9.127l-80-80c-3.905-3.905-3.905-10.237 0-14.143 3.905-3.904 10.237-3.904 14.143 0l80 80c4.372 4.373 11.486 4.373 15.857 0 2.118-2.118 3.285-4.934 3.285-7.929s-1.167-5.811-3.284-7.929l-80-80c-3.905-3.905-3.905-10.237 0-14.143 3.905-3.904 10.237-3.904 14.143 0l80 80c5.896 5.896 9.142 13.733 9.142 22.071s-3.247 16.176-9.143 22.071c-6.086 6.087-14.079 9.129-22.072 9.129z" fill="#b278d3"/></g><g><path d="m340.066 396.033h-320c-3.028 0-5.893-1.372-7.791-3.73-16.367-20.338-16.367-52.201 0-72.539 1.898-2.358 4.763-3.73 7.791-3.73h350c5.523 0 10 4.478 10 10s-4.477 10-10 10h-344.785c-6.918 11.719-6.918 28.281 0 40h314.785c5.523 0 10 4.478 10 10s-4.477 9.999-10 9.999z" fill="#b278d3"/></g></g></svg>