<svg id="Layer_1" enable-background="new 0 0 512 512" height="512" viewBox="0 0 512 512" width="512" xmlns="http://www.w3.org/2000/svg"><g><path d="m362 196.016h140v260h-492v-260h140" fill="#99ebfa"/><path d="m402 236.016h60v180h-60z" fill="#fff"/><path d="m50 236.016h60v180h-60z" fill="#fff"/><path d="m150 456.016v-340h212v340" fill="#ccf5fc"/><g fill="#fff"><path d="m196 236.016h120v60h-120z"/><path d="m206 376.016h100v80h-100z"/><path d="m256 66.016c19.33-13.333 50.67-13.333 70 0v100c-19.33-13.333-50.67-13.333-70 0-19.33-13.333-50.67-13.333-70 0v-100c19.33-13.334 50.67-13.334 70 0z"/></g><g fill="#60a4ff"><path d="m502 186.016h-130v-70c0-5.522-4.477-10-10-10h-26v-40c0-3.287-1.616-6.365-4.322-8.231-20.994-14.481-52.94-15.633-75.678-3.457-22.738-12.176-54.683-11.024-75.678 3.457-2.706 1.865-4.322 4.943-4.322 8.231v40h-26c-5.523 0-10 4.478-10 10v70h-130c-5.523 0-10 4.478-10 10v260c0 5.522 4.477 10 10 10h492c5.523 0 10-4.478 10-10v-260c0-5.523-4.477-10-10-10zm-186-114.35v78.343c-15.809-5.366-34.191-5.355-50 .012v-78.317c14.592-7.532 35.403-7.561 50-.038zm-120 0c14.597-7.523 35.409-7.494 50 .038v78.309c-7.905-2.683-16.452-4.028-25-4.028-8.547 0-17.096 1.342-25 4.024zm-36 54.35h16v40c0 3.717 2.061 7.126 5.351 8.854 3.291 1.729 7.269 1.489 10.327-.622 15.895-10.963 42.75-10.963 58.645 0 .008.005.017.009.025.015.38.261.783.49 1.198.697.075.037.149.073.225.108.813.38 1.684.653 2.598.804.097.016.192.031.289.044.44.06.886.101 1.343.101.456 0 .902-.041 1.343-.101.097-.013.193-.028.29-.044.914-.15 1.785-.423 2.597-.804.075-.035.15-.071.225-.108.416-.208.818-.436 1.198-.697.008-.006.017-.009.025-.015 15.895-10.963 42.75-10.963 58.645 0 1.701 1.174 3.686 1.769 5.679 1.769 1.591 0 3.187-.379 4.648-1.146 3.29-1.728 5.351-5.137 5.351-8.854v-40h16v320h-36v-60h10c5.523 0 10-4.478 10-10s-4.477-10-10-10h-140.002c-5.523 0-10 4.478-10 10s4.477 10 10 10h10v60h-36zm86 260v60h-30v-60zm20 0h30v60h-30zm-246-180h120v240h-120zm472 240h-120v-240h120z"/><path d="m110 226.016h-60c-5.523 0-10 4.478-10 10v180c0 5.522 4.477 10 10 10h60c5.523 0 10-4.478 10-10v-180c0-5.523-4.477-10-10-10zm-50 80h40v40h-40zm40-60v40h-40v-40zm-40 160v-40h40v40z"/><path d="m402 426.016h60c5.523 0 10-4.478 10-10v-180c0-5.522-4.477-10-10-10h-60c-5.523 0-10 4.478-10 10v180c0 5.522 4.477 10 10 10zm50-80h-40v-40h40zm-40 60v-40h40v40zm40-160v40h-40v-40z"/><path d="m196 306.016h120c5.523 0 10-4.478 10-10v-60c0-5.522-4.477-10-10-10h-120c-5.523 0-10 4.478-10 10v60c0 5.522 4.477 10 10 10zm110-20h-40v-40h40zm-100-40h40v40h-40z"/></g></g></svg>