<svg id="Layer_1" enable-background="new 0 0 512 512" height="512" viewBox="0 0 512 512" width="512" xmlns="http://www.w3.org/2000/svg"><g><g fill="#fff"><path d="m476 166h-100c-13.333 11.046-13.333 28.954 0 40h100c-13.333-11.046-13.333-28.954 0-40z"/><path d="m436 126h-100c-13.333 11.046-13.333 28.954 0 40h100c-13.333-11.046-13.333-28.954 0-40z"/><path d="m446 206h-100c-13.333 11.046-13.333 28.954 0 40h100c-13.333-11.046-13.333-28.954 0-40z"/></g><path d="m156 206h40v40h-40z" fill="#c5d3de"/><path d="m200 286h232v60h-232z" fill="#c5d3de" transform="matrix(-1 0 0 -1 632 632)"/><circle cx="316" cy="316" fill="#fff" r="10"/><path d="m362 356h180v40h-180z" fill="#c5d3de" transform="matrix(0 1 -1 0 828 -76)"/><path d="m40 286h160v60h-160z" fill="#dae6e6"/><path d="m40 346h160v60h-160z" fill="#dae6e6"/><path d="m40 406h160v60h-160z" fill="#dae6e6"/><circle cx="120" cy="316" fill="#fff" r="10"/><circle cx="120" cy="376" fill="#fff" r="10"/><circle cx="120" cy="436" fill="#fff" r="10"/><path d="m10 246h492v40h-492z" fill="#dae6e6"/><path d="m56 46h240v160h-240z" fill="#ccf5fc"/><path d="m502 236h-51.967c-2.608-2.978-4.033-6.437-4.033-10s1.425-7.022 4.033-10h35.967c5.522 0 10-4.478 10-10s-4.478-10-10-10h-5.967c-2.608-2.978-4.033-6.437-4.033-10s1.425-7.022 4.033-10h5.967c5.522 0 10-4.478 10-10s-4.478-10-10-10h-45.967c-2.608-2.978-4.033-6.437-4.033-10s1.425-7.022 4.033-10h5.967c5.522 0 10-4.478 10-10s-4.478-10-10-10h-10.02c-.003 0-.005 0-.008 0h-99.972c-2.329 0-4.586.813-6.38 2.3-8.783 7.276-13.62 17.113-13.62 27.7s4.837 20.424 13.62 27.7c1.794 1.486 4.051 2.3 6.38 2.3h21.504c-.987 3.214-1.504 6.566-1.504 10s.517 6.786 1.504 10h-11.504c-2.329 0-4.586.813-6.38 2.3-8.783 7.276-13.62 17.113-13.62 27.7 0 3.434.517 6.786 1.504 10h-121.504v-20h90c5.522 0 10-4.478 10-10v-160c0-5.522-4.478-10-10-10h-240c-5.523 0-10 4.478-10 10v160c0 5.522 4.477 10 10 10h90v20h-136c-5.523 0-10 4.478-10 10v40c0 5.522 4.477 10 10 10h20v170c0 5.522 4.477 10 10 10h160c5.523 0 10-4.478 10-10v-110h212v110c0 5.522 4.478 10 10 10h40c5.522 0 10-4.478 10-10v-170h20c5.522 0 10-4.478 10-10v-40c0-5.522-4.478-10-10-10zm-166-90c0-3.561 1.404-7.024 4.008-10h77.496c-.987 3.214-1.504 6.566-1.504 10s.517 6.786 1.504 10h-77.496c-2.604-2.976-4.008-6.439-4.008-10zm40 40c0-3.563 1.425-7.022 4.033-10h77.471c-.987 3.214-1.504 6.566-1.504 10s.517 6.786 1.504 10h-77.471c-2.608-2.978-4.033-6.437-4.033-10zm-30 40c0-3.561 1.404-7.024 4.008-10h77.496c-.987 3.214-1.504 6.566-1.504 10s.517 6.786 1.504 10h-77.471c-2.608-2.978-4.033-6.437-4.033-10zm-280-170h220v140h-220zm100 160h20v20h-20zm24 80v40h-140v-40zm-140 160v-40h140v40zm140-60h-140v-40h140zm20-60v-40h212v40zm252 120h-20v-160h20zm30-180h-472v-20h472z" fill="#8aa8bd"/><g><path d="m196 186h-40c-5.523 0-10-4.478-10-10s4.477-10 10-10h40c5.523 0 10 4.478 10 10s-4.477 10-10 10z" fill="#99ebfa"/></g></g></svg>