<svg id="Layer_1" enable-background="new 0 0 512 512" height="512" viewBox="0 0 512 512" width="512" xmlns="http://www.w3.org/2000/svg"><g><path d="m10 50h360v370h-360z" fill="#fff"/><path d="m120 170v70h-70v140h210v-70h70v-140z" fill="#fff"/><g fill="#ff9eb1"><path d="m190 310h70v70h-70z"/><path d="m260 170h70v70h-70z"/><path d="m10 50h360v80h-360z"/></g><path d="m70 10h40v80h-40z" fill="#fff"/><path d="m270 10h40v80h-40z" fill="#fff"/><g><circle cx="402" cy="402" fill="#fff" r="100"/><path d="m442 402v40c-22.091 13.333-57.909 13.333-80 0v-40" fill="#ff9eb1"/><path d="m402 422-60-40 60-40 60 40z" fill="#ffbecb"/><g fill="#ff5a58"><path d="m402 292c-7.532 0-14.889.763-22 2.212v-244.212c0-5.522-4.478-10-10-10h-50v-30c0-5.522-4.478-10-10-10h-40c-5.522 0-10 4.478-10 10v30h-140v-30c0-5.522-4.478-10-10-10h-40c-5.522 0-10 4.478-10 10v30h-50c-5.522 0-10 4.478-10 10v370c0 5.522 4.478 10 10 10h285.616c12.416 47.136 55.403 82 106.384 82 60.654 0 110-49.346 110-110s-49.346-110-110-110zm-122-272h20v60h-20zm-200 0h20v60h-20zm-20 40v30c0 5.522 4.478 10 10 10h40c5.522 0 10-4.478 10-10v-30h140v30c0 5.522 4.478 10 10 10h40c5.522 0 10-4.478 10-10v-30h40v60h-340v-60zm-40 350v-270h340v160.34c-7.099 2.944-13.824 6.609-20.086 10.906.051-.41.086-.824.086-1.247v-139.999c0-5.522-4.478-10-10-10h-210c-5.522 0-10 4.478-10 10v60h-60c-5.522 0-10 4.478-10 10v140c0 5.522 4.478 10 10 10h210c5.522 0 10-4.478 10-10v-60h58.764c-22.546 20.158-36.764 49.448-36.764 82 0 2.69.102 5.357.293 8zm110-40v-50h50v50zm-70 0v-50h50v50zm190-190v50h-50v-50zm70 0v50h-50v-50zm-140 50h-50v-50h50zm0 20v50h-50v-50zm-120 50v-50h50v50zm140 20h50v50h-50zm0-20v-50h50v50zm70-50h50v50h-50zm132 242c-49.626 0-90-40.374-90-90s40.374-90 90-90 90 40.374 90 90-40.374 90-90 90z"/><path d="m467.547 373.68-60-40c-3.359-2.24-7.734-2.24-11.094 0l-60 40c-2.782 1.854-4.453 4.977-4.453 8.32s1.671 6.466 4.453 8.32l15.634 10.423c-.052.413-.087.83-.087 1.257v40c0 3.503 1.833 6.751 4.833 8.562 12.663 7.643 28.915 11.465 45.167 11.465s32.504-3.822 45.167-11.465c3-1.811 4.833-5.059 4.833-8.562v-40c0-.427-.036-.844-.087-1.257l15.634-10.423c2.782-1.854 4.453-4.977 4.453-8.32s-1.671-6.466-4.453-8.32zm-65.547-19.661 41.973 27.981-41.973 27.981-41.973-27.981zm30 81.965c-17.445 8-42.555 8-60 0v-21.966l24.453 16.302c1.68 1.12 3.613 1.68 5.547 1.68s3.867-.56 5.547-1.68l24.453-16.302z"/></g></g></g></svg>