<svg id="Layer_1" enable-background="new 0 0 512 512" height="512" viewBox="0 0 512 512" width="512" xmlns="http://www.w3.org/2000/svg"><g><path d="m390 416h-360c-11.046 0-20-8.954-20-20v-280h400v280c0 11.046-8.954 20-20 20z" fill="#fff2a0"/><path d="m477 256-180 180-50 20 20-50 180-180z" fill="#ccf5fc"/><path d="m389.574 249.787h84.853v42.426h-84.853z" fill="#99ebfa" transform="matrix(.707 -.707 .707 .707 -65.096 384.844)"/><path d="m100 196h40v80h-40z" fill="#ffda8f"/><path d="m280 196h40v80h-40z" fill="#ffda8f"/><g fill="#ffa96b"><path d="m509.071 273.929-32.928-32.929 7.929-7.929c3.905-3.905 3.905-10.237 0-14.143-3.906-3.904-10.236-3.904-14.143 0l-7.929 7.93-7.929-7.929c-3.906-3.904-10.236-3.904-14.143 0l-19.928 19.929v-122.858c0-.043-.006-.085-.007-.129-.003-.206-.015-.41-.031-.614-.01-.136-.018-.272-.033-.407-.02-.169-.049-.336-.077-.504-.028-.165-.053-.33-.089-.492-.029-.132-.066-.261-.101-.391-.049-.188-.098-.377-.157-.561-.036-.11-.08-.218-.12-.327-.071-.193-.14-.386-.222-.573-.051-.116-.11-.229-.166-.343-.082-.17-.163-.341-.254-.506-.079-.143-.168-.279-.254-.418-.08-.128-.156-.26-.242-.384-.112-.164-.235-.32-.357-.477-.072-.093-.14-.188-.216-.279-.135-.163-.282-.317-.428-.471-.075-.079-.147-.161-.225-.238-.141-.139-.291-.27-.441-.401-.098-.086-.194-.174-.295-.256-.131-.105-.269-.204-.406-.304-.136-.099-.271-.198-.411-.291-.115-.075-.234-.144-.352-.214-.175-.104-.351-.207-.533-.301-.039-.02-.074-.044-.113-.064-.072-.036-.146-.062-.218-.096-.19-.089-.381-.175-.576-.252-.128-.051-.257-.096-.386-.142-.174-.061-.348-.119-.525-.169-.161-.047-.323-.087-.485-.125-.147-.034-.294-.067-.443-.095-.197-.037-.394-.065-.592-.09-.121-.015-.242-.031-.364-.042-.225-.02-.449-.029-.674-.034-.069-.001-.137-.01-.207-.01h-130v-50c0-5.522-4.478-10-10-10h-120c-5.522 0-10 4.478-10 10v50h-130c-.07 0-.138.009-.208.011-.226.004-.452.014-.678.034-.12.01-.238.025-.357.04-.201.025-.401.054-.601.092-.146.027-.289.06-.432.093-.166.039-.331.08-.496.127-.174.05-.345.107-.515.167-.132.046-.264.092-.395.145-.194.077-.384.163-.572.251-.073.034-.147.06-.219.096-.039.02-.074.044-.113.064-.182.094-.358.196-.533.301-.118.07-.238.139-.352.214-.141.092-.276.191-.411.291-.137.1-.275.198-.406.304-.102.082-.197.17-.295.256-.15.131-.3.262-.441.401-.078.077-.15.16-.226.239-.146.154-.292.308-.427.47-.076.091-.145.187-.217.28-.122.157-.244.313-.356.476-.086.125-.162.256-.242.384-.086.139-.175.275-.254.418-.091.165-.172.336-.254.506-.055.115-.115.227-.166.343-.082.188-.151.38-.222.573-.04.109-.084.217-.12.327-.06.184-.108.372-.157.561-.034.13-.072.259-.101.391-.036.162-.061.327-.089.492-.028.167-.057.334-.077.504-.015.134-.023.271-.033.407-.016.204-.028.408-.031.614.002.042-.004.085-.004.128v280c0 16.542 13.458 30 30 30h218.229l-10.514 26.286c-1.485 3.714-.614 7.956 2.214 10.785 1.912 1.912 4.47 2.929 7.073 2.929 1.249 0 2.508-.233 3.712-.715l50-20c1.258-.503 2.399-1.257 3.357-2.214l17.072-17.071h68.857c16.542 0 30-13.458 30-30v-68c0-.275-.019-.546-.041-.816l57.041-57.041 10.857 10.857-52.929 52.929c-3.905 3.905-3.905 10.237 0 14.143 3.906 3.904 10.236 3.904 14.143 0l60-60c3.906-3.906 3.906-10.238 0-14.143zm-219.071-67.929h20v60h-20zm30-20h-40c-5.522 0-10 4.478-10 10v30h-120v-30c0-5.522-4.478-10-10-10h-40c-5.522 0-10 4.478-10 10v30h-13.819l-50-100h367.64l-50 100h-13.821v-30c0-5.522-4.478-10-10-10zm-210 20h20v60h-20zm50-140h100v40h-100zm-130 340c-5.514 0-10-4.486-10-10v-237.64l41.056 82.111c1.694 3.389 5.156 5.529 8.944 5.529h20v30c0 5.522 4.478 10 10 10h40c5.522 0 10-4.478 10-10v-30h120v30c0 5.522 4.478 10 10 10h40c5.522 0 10-4.478 10-10v-30h20c3.788 0 7.25-2.14 8.944-5.528l41.056-82.112v100.497l-140.071 140.072c-.957.958-1.711 2.1-2.214 3.357l-1.486 3.714zm261.38 21.478-26.43 10.572 10.572-26.43 111.478-111.477 15.857 15.857zm108.62-31.478c0 5.514-4.486 10-10 10h-48.857l58.857-58.857zm17-94.142-15.857-15.858 45.857-45.857 15.857 15.857z"/><path d="m270 366c0-5.522-4.478-10-10-10h-100c-5.522 0-10 4.478-10 10s4.478 10 10 10h100c5.522 0 10-4.477 10-10z"/></g></g></svg>