<svg id="Layer_1" enable-background="new 0 0 512 512" height="512" viewBox="0 0 512 512" width="512" xmlns="http://www.w3.org/2000/svg"><g><path d="m196 416v20h120v-20h140v-280h-400v280z" fill="#dae6e6"/><path d="m316 416v20h-120v-20h-186v60h492v-60z" fill="#fff"/><g fill="#fff"><circle cx="216" cy="376" r="10"/><circle cx="256" cy="376" r="10"/><circle cx="296" cy="376" r="10"/></g><g><path d="m186 236c-11.046 0-20 8.954-20 20 0 11.046 8.954 20 20 20h150c-13.333-11.046-13.333-28.954 0-40h-130z" fill="#fff"/><path d="m186 236h20v-200h-20c-11.046 0-20 8.954-20 20v200c0-11.046 8.954-20 20-20z" fill="#a7bdcd"/><path d="m206 236h130 10v-200h-140z" fill="#c5d3de"/><path d="m286 36v80l-20-20-20 20v-80" fill="#ffbecb"/><g><path d="m306 206h-60c-5.523 0-10-4.478-10-10s4.477-10 10-10h60c5.523 0 10 4.478 10 10s-4.477 10-10 10z" fill="#fff"/></g><path d="m502 406h-36v-270c0-5.522-4.477-10-10-10h-100v-90c0-5.522-4.477-10-10-10h-160c-16.542 0-30 13.458-30 30v70h-100c-5.523 0-10 4.478-10 10v270h-36c-5.523 0-10 4.478-10 10v60c0 5.522 4.477 10 10 10h492c5.523 0 10-4.478 10-10v-60c0-5.522-4.477-10-10-10zm-184.496-160c-.987 3.214-1.504 6.566-1.504 10s.517 6.786 1.504 10h-131.504c-5.514 0-10-4.486-10-10s4.486-10 10-10zm18.496-20h-120v-180h20v70c0 4.045 2.437 7.691 6.173 9.239 3.737 1.546 8.038.691 10.898-2.168l12.929-12.928 12.929 12.929c1.914 1.913 4.471 2.929 7.074 2.929 1.288 0 2.587-.249 3.824-.761 3.737-1.548 6.173-5.194 6.173-9.239v-70.001h40zm-80-180h20v45.857l-2.929-2.929c-3.905-3.904-10.237-3.904-14.143 0l-2.928 2.929zm-80 10c0-5.514 4.486-10 10-10h10v180h-10c-3.504 0-6.871.604-10 1.714zm-110 90h90v110c0 16.542 13.458 30 30 30h160c5.523 0 10-4.478 10-10s-4.477-10-10-10h-5.966c-2.608-2.978-4.034-6.436-4.034-10s1.425-7.022 4.034-10h5.966c5.523 0 10-4.478 10-10v-90h90v260h-130c-5.523 0-10 4.478-10 10v10h-100v-10c0-5.522-4.477-10-10-10h-130zm426 320h-472v-40h166v10c0 5.522 4.477 10 10 10h120c5.523 0 10-4.478 10-10v-10h166z" fill="#8aa8bd"/></g></g></svg>