<svg id="Layer_1" enable-background="new 0 0 512 512" height="512" viewBox="0 0 512 512" width="512" xmlns="http://www.w3.org/2000/svg"><g><path d="m216 402-20 60h120l-20-60z" fill="#b5b3ee"/><path d="m456 402h-400c-11.046 0-20-8.954-20-20v-300c0-11.046 8.954-20 20-20h400c11.046 0 20 8.954 20 20v300c0 11.046-8.954 20-20 20z" fill="#cecdf3"/><path d="m476 322v60c0 11.05-8.95 20-20 20h-400c-11.05 0-20-8.95-20-20v-60z" fill="#fff"/><path d="m156 462h200v40h-200z" fill="#fff"/><circle cx="256" cy="362" fill="#e6e6f9" r="15"/><g fill="#fff"><circle cx="216" cy="282" r="10"/><circle cx="256" cy="282" r="10"/><circle cx="296" cy="282" r="10"/></g><path d="m186 210c-11.046 0-20 8.954-20 20 0 11.046 8.954 20 20 20h150c-13.333-11.046-13.333-28.954 0-40h-130z" fill="#fff"/><path d="m186 210h20v-200h-20c-11.046 0-20 8.954-20 20v200c0-11.046 8.954-20 20-20z" fill="#b5b3ee"/><path d="m206 210h130 10v-200h-140z" fill="#e6e6f9"/><path d="m286 10v80l-20-20-20 20v-80" fill="#ffbecb"/><g><path d="m306 180h-60c-5.523 0-10-4.478-10-10s4.477-10 10-10h60c5.523 0 10 4.478 10 10s-4.477 10-10 10z" fill="#cecdf3"/></g><path d="m456 52h-100v-42c0-5.522-4.477-10-10-10h-160c-16.542 0-30 13.458-30 30v22h-100c-16.542 0-30 13.458-30 30v300c0 16.542 13.458 30 30 30h146.126l-13.333 40h-32.793c-5.523 0-10 4.478-10 10v40c0 5.522 4.477 10 10 10h200c5.523 0 10-4.478 10-10v-40c0-5.522-4.477-10-10-10h-32.792l-13.333-40h146.125c16.542 0 30-13.458 30-30v-300c0-16.542-13.458-30-30-30zm-138.496 168c-.987 3.214-1.504 6.566-1.504 10s.517 6.786 1.504 10h-131.504c-5.514 0-10-4.486-10-10s4.486-10 10-10zm18.496-20h-120v-180h20v70c0 4.045 2.437 7.691 6.173 9.239 3.737 1.546 8.038.691 10.898-2.168l12.929-12.928 12.929 12.929c1.914 1.913 4.471 2.929 7.074 2.929 1.288 0 2.587-.249 3.824-.761 3.736-1.549 6.173-5.195 6.173-9.24v-70h40zm-80-180h20v45.857l-2.929-2.929c-3.905-3.904-10.237-3.904-14.143 0l-2.928 2.929zm-80 10c0-5.514 4.486-10 10-10h10v180h-10c-3.504 0-6.871.604-10 1.714zm-120 42h100v158c0 16.542 13.458 30 30 30h160c5.523 0 10-4.478 10-10s-4.477-10-10-10h-5.966c-2.609-2.978-4.034-6.436-4.034-10s1.426-7.022 4.034-10h5.966c5.523 0 10-4.478 10-10v-138h100c5.514 0 10 4.486 10 10v230h-420v-230c0-5.514 4.486-10 10-10zm290 420h-180v-20h29.928c.024 0 .049.003.074.003s.049-.003.074-.003h119.848c.025 0 .05.003.074.003s.049-.003.073-.003h29.929zm-43.874-40h-92.252l13.333-40h65.585zm153.874-60h-160.189c-.005 0-.01 0-.015 0h-79.583c-.017 0-.034 0-.05 0h-160.163c-5.514 0-10-4.486-10-10v-50h420v50c0 5.514-4.486 10-10 10z" fill="#b278d3"/></g></svg>