<svg id="Layer_1" enable-background="new 0 0 512 512" height="512" viewBox="0 0 512 512" width="512" xmlns="http://www.w3.org/2000/svg"><g><path d="m10 126.071h466v260h-466z" fill="#ffda8f"/><path d="m243 346.071h-193v-260h153c22.091 0 40 17.909 40 40z" fill="#fff2a0"/><path d="m243 346.071h193v-260h-153c-22.091 0-40 17.909-40 40z" fill="#fff2a0"/><g><path d="m342 206.071v119.912l-3.787-3.787c-8.285-8.284-21.716-8.284-30 0-8.285 8.284-8.285 21.716 0 30l73.787 73.787h120v-160c0-11.046-8.954-20-20-20s-20 8.954-20 20c0-11.046-8.954-20-20-20s-20 8.954-20 20c0-11.046-8.954-20-20-20s-20 8.954-20 20v-59.912c0-11.046-8.954-20-20-20s-20 8.955-20 20z" fill="#fff"/><path d="m486 236.258v-110.187c0-5.522-4.478-10-10-10h-30v-30c0-5.522-4.478-10-10-10h-153c-16.38 0-30.944 7.917-40.07 20.125-1.468-1.968-3.09-3.841-4.861-5.605-9.438-9.402-21.964-14.575-35.282-14.575-.033 0-.069 0-.102 0l-153 .301c-5.523.011-9.991 4.497-9.98 10.02l.058 29.734h-29.763c-5.523 0-10 4.478-10 10v260c0 5.522 4.477 10 10 10h327.945l36.983 36.983c1.876 1.875 4.419 2.929 7.071 2.929h120c5.522 0 10-4.478 10-10v-160.001c.001-15.185-11.342-27.761-25.999-29.724zm-20-100.187v104.554c-1.417.897-2.756 1.907-4 3.021-4.373-3.919-9.899-6.572-16-7.389v-100.186zm-183-40h143v144.554c-1.417.897-2.756 1.907-4 3.021-5.312-4.761-12.322-7.663-20-7.663-3.506 0-6.87.61-10 1.72v-31.632c0-16.542-13.458-30-30-30s-30 13.458-30 30v101.182c-10.596-3.09-22.519-.467-30.858 7.872-5.741 5.741-8.771 13.181-9.095 20.716l-38.85.077-.409-207.797c.138-.662.212-1.347.212-2.049 0-16.543 13.458-30.001 30-30.001zm-80.275-.054h.061c7.99 0 15.506 3.104 21.169 8.745 5.677 5.655 8.813 13.183 8.829 21.195l.413 210-173 .34-.409-208.175c.138-.662.212-1.348.212-2.051 0-.714-.078-1.41-.22-2.083l-.054-27.691zm-182.725 40.054h19.803l.413 210.265c.005 2.652 1.064 5.193 2.943 7.065 1.875 1.867 4.412 2.915 7.057 2.915h.02l183-.359.04 20.114h-213.276zm233.276 240-.04-20.153 44.938-.089c.894 1.199 1.88 2.351 2.968 3.438l16.804 16.804zm238.724 39.912h-105.857l-70.858-70.858c-4.372-4.372-4.372-11.485 0-15.857 2.117-2.118 4.934-3.284 7.929-3.284s5.812 1.166 7.929 3.284l3.787 3.787c.041.041.086.075.128.115.195.188.394.373.603.545.122.1.25.187.375.28.137.102.271.208.413.303s.29.178.436.265c.135.081.266.165.405.239.145.078.295.144.443.213.148.07.294.144.446.207.14.058.283.104.426.156.166.06.33.124.5.175.137.042.277.071.416.107.177.045.353.094.534.13.154.03.31.048.466.071.167.025.332.056.502.072.267.026.535.036.804.041.06.001.118.009.178.009s.118-.008.178-.009c.268-.005.536-.015.804-.041.17-.016.335-.047.502-.072.155-.023.311-.041.466-.071.181-.036.356-.085.534-.13.139-.036.278-.065.416-.107.17-.051.334-.115.5-.175.142-.051.285-.098.426-.156.152-.063.298-.137.446-.207s.297-.136.443-.213c.139-.074.27-.159.405-.239.146-.087.293-.169.436-.265.142-.095.276-.201.413-.303.125-.093.253-.18.375-.28.21-.172.408-.356.603-.545.042-.04.087-.074.128-.115.044-.044.081-.093.124-.138.185-.191.366-.386.535-.591.109-.132.204-.271.305-.408.093-.125.19-.248.277-.377.104-.155.194-.315.289-.475.072-.122.148-.24.215-.364.085-.159.158-.322.234-.485.063-.134.13-.266.187-.403.065-.156.117-.315.174-.474.053-.15.111-.297.157-.45.048-.159.084-.321.124-.481.039-.156.083-.309.114-.468.037-.187.06-.375.086-.563.019-.135.045-.268.058-.404.033-.331.05-.663.05-.994v-119.909c0-5.514 4.486-10 10-10s10 4.486 10 10v59.911 18.974 31.027c0 5.522 4.478 10 10 10s10-4.478 10-10v-31.027-18.974c0-5.514 4.486-9.999 10-9.999s10 4.485 10 9.999v50.001c0 5.522 4.478 10 10 10s10-4.478 10-10v-50.001c0-5.514 4.486-9.999 10-9.999s10 4.485 10 9.999v50.001c0 5.522 4.478 10 10 10s10-4.478 10-10v-50.001c0-5.514 4.486-9.999 10-9.999s10 4.485 10 9.999v150.001z" fill="#ffa96b"/></g><g><g><path d="m198 166.071h-103c-5.523 0-10-4.478-10-10s4.477-10 10-10h103c5.523 0 10 4.478 10 10s-4.477 10-10 10z" fill="#fffbdf"/></g><g><path d="m198 206.071h-103c-5.523 0-10-4.478-10-10s4.477-10 10-10h103c5.523 0 10 4.478 10 10s-4.477 10-10 10z" fill="#fffbdf"/></g><g><path d="m198 246.071h-103c-5.523 0-10-4.478-10-10s4.477-10 10-10h103c5.523 0 10 4.478 10 10s-4.477 10-10 10z" fill="#fffbdf"/></g><g><path d="m198 286.071h-103c-5.523 0-10-4.478-10-10s4.477-10 10-10h103c5.523 0 10 4.478 10 10s-4.477 10-10 10z" fill="#fffbdf"/></g></g><g><g><path d="m391 166.071h-103c-5.522 0-10-4.478-10-10s4.478-10 10-10h103c5.522 0 10 4.478 10 10s-4.478 10-10 10z" fill="#fffbdf"/></g><g><path d="m310 206.071h-22c-5.522 0-10-4.478-10-10s4.478-10 10-10h22c5.522 0 10 4.478 10 10s-4.478 10-10 10z" fill="#fffbdf"/></g><g><path d="m310 246.071h-22c-5.522 0-10-4.478-10-10s4.478-10 10-10h22c5.522 0 10 4.478 10 10s-4.478 10-10 10z" fill="#fffbdf"/></g><g><path d="m310 286.071h-22c-5.522 0-10-4.478-10-10s4.478-10 10-10h22c5.522 0 10 4.478 10 10s-4.478 10-10 10z" fill="#fffbdf"/></g></g></g></svg>