<svg id="Layer_1" enable-background="new 0 0 512 512" height="512" viewBox="0 0 512 512" width="512" xmlns="http://www.w3.org/2000/svg"><g><path d="m10 256h220v220h-220z" fill="#ff9eb1"/><path d="m50 296h140v140h-140z" fill="#ffbecb"/><g><g><path d="m125 416h-30c-5.522 0-10-4.478-10-10v-80c0-5.522 4.478-10 10-10h30c16.542 0 30 13.458 30 30 0 7.677-2.898 14.688-7.657 20 4.759 5.312 7.657 12.323 7.657 20 0 16.542-13.458 30-30 30zm-20-20h20c5.514 0 10-4.486 10-10s-4.486-10-10-10h-20zm0-40h20c5.514 0 10-4.486 10-10s-4.486-10-10-10h-20z" fill="#ffdfe5"/></g></g><path d="m282 256h220v220h-220z" fill="#ff9eb1"/><path d="m322 296h140v140h-140z" fill="#ffbecb"/><g><path d="m417 416h-10c-27.57 0-50-22.43-50-50s22.43-50 50-50h10c5.522 0 10 4.478 10 10s-4.478 10-10 10h-10c-16.542 0-30 13.458-30 30s13.458 30 30 30h10c5.522 0 10 4.478 10 10s-4.478 10-10 10z" fill="#ffdfe5"/></g><path d="m146 36h220v220h-220z" fill="#ff9eb1"/><path d="m186 76h140v140h-140z" fill="#ffbecb"/><path d="m304.944 181.528-40-80c-1.694-3.388-5.156-5.528-8.944-5.528s-7.25 2.14-8.944 5.528l-40 80c-2.47 4.939-.468 10.946 4.473 13.416 4.938 2.467 10.945.469 13.416-4.473l7.235-14.471h47.64l7.236 14.472c1.752 3.505 5.283 5.53 8.952 5.53 1.503 0 3.029-.34 4.464-1.058 4.94-2.469 6.942-8.476 4.472-13.416zm-62.764-25.528 13.82-27.64 13.82 27.64z" fill="#ffdfe5"/><g><path d="m502 246h-126v-210c0-5.522-4.478-10-10-10h-220c-5.522 0-10 4.478-10 10v210h-126c-5.522 0-10 4.478-10 10v220c0 5.522 4.478 10 10 10h220c5.522 0 10-4.478 10-10v-210h32v210c0 5.522 4.478 10 10 10h220c5.522 0 10-4.478 10-10v-220c0-5.522-4.478-10-10-10zm-282 220h-200v-200h200zm-64-220v-200h200v200zm336 220h-200v-200h200z" fill="#ff5a58"/></g></g></svg>