<svg id="Layer_1" enable-background="new 0 0 512 512" height="512" viewBox="0 0 512 512" width="512" xmlns="http://www.w3.org/2000/svg"><g><path d="m226 20h60v40h-60z" fill="#ff9eb1" transform="matrix(0 1 -1 0 296 -216)"/><path d="m76 70h360v260h-360z" fill="#b8ecbc"/><g fill="#ff9eb1"><path d="m136 290h80v40h-80z"/><path d="m166 502h-50l60-132h50z"/><path d="m396 502h-50l-60-132h50z"/></g><path d="m46 330h420v40h-420z" fill="#ffbecb"/><g fill="#fff"><path d="m174.944 155.528c-1.694-3.388-5.156-5.528-8.944-5.528s-7.25 2.14-8.944 5.528l-40 80c-2.47 4.94-.468 10.947 4.473 13.417 4.938 2.469 10.946.467 13.416-4.472l7.235-14.473h47.639l7.236 14.472c1.752 3.504 5.283 5.53 8.952 5.53 1.503 0 3.029-.34 4.464-1.058 4.94-2.47 6.942-8.477 4.473-13.417zm-22.764 54.472 13.82-27.639 13.82 27.639z"/><path d="m276 150h-30c-5.522 0-10 4.477-10 10v80c0 5.523 4.478 10 10 10h30c16.542 0 30-13.458 30-30 0-7.676-2.898-14.688-7.657-20 4.759-5.312 7.657-12.324 7.657-20 0-16.542-13.458-30-30-30zm0 80h-20v-20h20c5.514 0 10 4.486 10 10s-4.486 10-10 10zm0-40h-20v-20h20c5.514 0 10 4.486 10 10s-4.486 10-10 10z"/><path d="m386 230h-10c-16.542 0-30-13.458-30-30s13.458-30 30-30h10c5.522 0 10-4.477 10-10s-4.478-10-10-10h-10c-27.57 0-50 22.43-50 50s22.43 50 50 50h10c5.522 0 10-4.477 10-10s-4.478-10-10-10z"/></g><path d="m466 320h-20v-250c0-5.523-4.478-10-10-10h-150v-50c0-5.523-4.478-10-10-10h-40c-5.522 0-10 4.477-10 10v50h-150c-5.522 0-10 4.477-10 10v250h-20c-5.522 0-10 4.477-10 10v40c0 5.523 4.478 10 10 10h114.47l-53.573 117.862c-1.407 3.095-1.145 6.693.695 9.552 1.841 2.858 5.008 4.586 8.408 4.586h50c3.922 0 7.481-2.292 9.104-5.862l25.517-56.138h110.758l25.517 56.138c1.622 3.57 5.182 5.862 9.104 5.862h50c3.4 0 6.567-1.728 8.408-4.586 1.84-2.859 2.103-6.457.695-9.552l-53.573-117.862h114.47c5.522 0 10-4.477 10-10v-40c0-5.523-4.478-10-10-10zm-220-300h20v40h-20zm-160 60h340v240h-200v-30c0-5.523-4.478-10-10-10h-80c-5.522 0-10 4.477-10 10v30h-40zm60 240v-20h60v20zm13.561 172h-28.03l50.909-112h28.031zm50.151-62 22.727-50h47.122l22.727 50zm170.758 62h-28.03l-50.91-112h28.031zm75.53-132h-400v-20h400z" fill="#ff5a58"/></g></svg>