<svg id="Layer_1" enable-background="new 0 0 512 512" height="512" viewBox="0 0 512 512" width="512" xmlns="http://www.w3.org/2000/svg"><g><path d="m90 76c0-22.091-17.909-40-40-40s-40 17.909-40 40v360h40v-320c22.091 0 40-17.909 40-40z" fill="#99ebfa"/><path d="m90 76c0 22.091-17.909 40-40 40h280c22.091 0 40-17.909 40-40s-17.909-40-40-40h-280c22.091 0 40 17.909 40 40z" fill="#ccf5fc"/><path d="m10 156h360v280h-360z" fill="#ccf5fc" transform="matrix(0 1 -1 0 486 106)"/><g><g><path d="m290 206h-160c-5.522 0-10-4.478-10-10s4.478-10 10-10h160c5.522 0 10 4.478 10 10s-4.478 10-10 10z" fill="#99ebfa"/></g><g><path d="m290 246h-200c-5.522 0-10-4.478-10-10s4.478-10 10-10h200c5.522 0 10 4.478 10 10s-4.478 10-10 10z" fill="#99ebfa"/></g><g><path d="m260 286h-170c-5.522 0-10-4.478-10-10s4.478-10 10-10h170c5.522 0 10 4.478 10 10s-4.478 10-10 10z" fill="#99ebfa"/></g><g><path d="m220 326h-130c-5.522 0-10-4.478-10-10s4.478-10 10-10h130c5.522 0 10 4.478 10 10s-4.478 10-10 10z" fill="#99ebfa"/></g><g><path d="m200 366h-110c-5.522 0-10-4.478-10-10s4.478-10 10-10h110c5.522 0 10 4.478 10 10s-4.478 10-10 10z" fill="#99ebfa"/></g></g><path d="m282 382 220-220-40-40-220 220-20 60z" fill="#ffee80"/><path d="m282 382-60 20 20-60z" fill="#ffdfe5"/><path d="m433.716 133.716h56.569v56.569h-56.569z" fill="#ff9eb1" transform="matrix(.707 -.707 .707 .707 20.765 374.132)"/><g><path d="m376 396h60v60h-60z" fill="#ccf5fc"/><path d="m436 396h-60v-60h40l20 20z" fill="#ffbecb"/><g fill="#60a4ff"><path d="m509.071 154.929-40-40c-3.906-3.904-10.236-3.904-14.143 0l-114.928 114.929v-104.864c22.795-4.646 40-24.847 40-48.994 0-27.57-22.43-50-50-50h-280c-27.57 0-50 22.43-50 50v360c0 5.522 4.478 10 10 10h30v30c0 5.522 4.478 10 10 10h280c5.522 0 10-4.478 10-10v-137.857l169.071-169.071c3.906-3.906 3.906-10.238 0-14.143zm-227.071 212.929-25.858-25.858 165.858-165.857 25.857 25.857zm-35.63-7.345 17.118 17.117-25.676 8.559zm113.63-284.513c0 16.542-13.458 30-30 30h-240.027c6.292-8.362 10.027-18.752 10.027-30s-3.735-21.638-10.027-30h240.027c16.542 0 30 13.458 30 30zm-340 350v-350c0-16.542 13.458-30 30-30s30 13.458 30 30-13.458 30-30 30c-5.522 0-10 4.478-10 10v310zm300 40h-260v-340h260v123.857l-85.071 85.071c-.264.265-.507.542-.736.827-.057.071-.107.147-.162.22-.169.224-.332.451-.48.685-.054.086-.104.176-.156.264-.136.231-.265.465-.381.704-.046.096-.091.192-.134.29-.109.243-.206.489-.295.738-.022.062-.052.121-.073.183l-20 60c-1.197 3.593-.262 7.555 2.416 10.233 1.906 1.906 4.462 2.929 7.072 2.929 1.058 0 2.125-.168 3.161-.513l60-20c.065-.021.125-.053.189-.076.245-.087.487-.183.726-.29.101-.045.201-.091.3-.14.235-.114.464-.24.691-.374.092-.054.185-.105.275-.162.23-.146.453-.306.673-.472.076-.057.155-.109.229-.168.285-.229.562-.471.825-.735l30.931-30.928zm142-278.142-25.857-25.858 25.857-25.857 25.857 25.857z"/><path d="m423.071 328.929c-1.876-1.875-4.419-2.929-7.071-2.929h-40c-5.522 0-10 4.478-10 10v120c0 5.522 4.478 10 10 10h60c5.522 0 10-4.478 10-10v-100c0-2.652-1.054-5.195-2.929-7.071zm-11.214 17.071 14.143 14.143v25.857h-40v-40zm-25.857 100v-40h40v40z"/></g></g></g></svg>