<svg id="Layer_1" enable-background="new 0 0 512 512" height="512" viewBox="0 0 512 512" width="512" xmlns="http://www.w3.org/2000/svg"><g><circle cx="236" cy="210" fill="#b5b3ee" r="200"/><circle cx="236" cy="210" fill="#cecdf3" r="150"/><circle cx="236" cy="210" fill="#fff" r="20"/><g><path d="m356 282v-120c0-11.046 8.954-20 20-20 11.046 0 20 8.954 20 20v120" fill="#fffbdf"/><path d="m276 422c22.091 0 40-17.909 40-40v-40c0-33.137 26.863-60 60-60 33.137 0 60 26.863 60 60v40c0 22.091 17.909 40 40 40" fill="#fff2a0"/><g><path d="m401 352c-5.523 0-10-4.477-10-10 0-8.271-6.729-15-15-15-5.523 0-10-4.477-10-10s4.477-10 10-10c19.299 0 35 15.701 35 35 0 5.523-4.477 10-10 10z" fill="#fffbdf"/></g><path d="m416 462c0 22.091-17.909 40-40 40s-40-17.909-40-40" fill="#fff2a0"/><path d="m276 422h200v40h-200z" fill="#fffbdf"/><g fill="#b278d3"><path d="m276 200h-11.72c-3.018-8.509-9.771-15.262-18.28-18.28v-71.72c0-5.523-4.477-10-10-10s-10 4.477-10 10v71.72c-8.509 3.018-15.262 9.771-18.28 18.28h-61.72c-5.523 0-10 4.477-10 10s4.477 10 10 10h61.72c3.018 8.509 9.771 15.262 18.28 18.28v11.72c0 5.523 4.477 10 10 10s10-4.477 10-10v-11.72c8.509-3.018 15.262-9.771 18.28-18.28h11.72c5.523 0 10-4.477 10-10s-4.477-10-10-10zm-40 20c-5.514 0-10-4.486-10-10s4.486-10 10-10 10 4.486 10 10-4.486 10-10 10z"/><path d="m476 412c-16.542 0-30-13.458-30-30v-40c0-17.982-6.82-34.397-18.004-46.808 11.948-26.851 18.004-55.481 18.004-85.192 0-115.794-94.206-210-210-210s-210 94.206-210 210 94.206 210 210 210c10.445 0 20.779-.758 30.963-2.261-.611 1.294-.963 2.735-.963 4.261v40c0 5.523 4.477 10 10 10h51.006c4.646 22.795 24.847 40 48.994 40s44.348-17.205 48.994-40h51.006c5.523 0 10-4.477 10-10v-40c0-5.523-4.477-10-10-10zm-90-139.274c-3.268-.47-6.604-.726-10-.726s-6.732.256-10 .726v-110.726c0-5.514 4.486-10 10-10s10 4.486 10 10zm-40-110.726v116.768c-20.368 9.703-35.333 28.96-39.076 51.941-21.429 12.616-45.891 19.291-70.924 19.291-77.196 0-140-62.804-140-140s62.804-140 140-140c50.081 0 95.574 26.253 120.707 69.051-6.541 5.508-10.707 13.749-10.707 22.949zm-20 220v-40c0-27.57 22.43-50 50-50s50 22.43 50 50v40c0 11.247 3.735 21.637 10.027 30h-120.054c6.292-8.363 10.027-18.753 10.027-30zm-280-172c0-104.767 85.233-190 190-190s190 85.233 190 190c0 25.003-4.734 49.155-14.086 71.943-1.914-1.149-3.887-2.21-5.914-3.176v-116.767c0-16.542-13.458-30-30-30-.093 0-.185.006-.278.007-13.147-23.512-32.039-43.392-54.961-57.735-25.377-15.879-54.687-24.272-84.761-24.272-88.224 0-160 71.776-160 160s71.776 160 160 160c24.381 0 48.295-5.543 70-16.109v28.109c0 1.646-.139 3.26-.395 4.834-22.148 8.729-45.547 13.166-69.605 13.166-104.767 0-190-85.233-190-190zm330 282c-13.036 0-24.152-8.361-28.28-20h56.56c-4.128 11.639-15.244 20-28.28 20zm90-40h-180v-20h180z"/></g></g></g></svg>