<svg id="Layer_1" enable-background="new 0 0 512 512" height="512" viewBox="0 0 512 512" width="512" xmlns="http://www.w3.org/2000/svg"><g><path d="m171 322h160v120h-160z" fill="#c5d3de"/><circle cx="251" cy="222" fill="#ffee80" r="140"/><circle cx="251" cy="222" fill="#fff7bf" r="30"/><g><path d="m351 232c-5.523 0-10-4.477-10-10 0-49.626-40.374-90-90-90-5.523 0-10-4.477-10-10s4.477-10 10-10c60.654 0 110 49.346 110 110 0 5.523-4.477 10-10 10z" fill="#fffbdf"/></g><circle cx="431" cy="222" fill="#c5d3de" r="30"/><path d="m131 442h240v60h-240z" fill="#dae6e6"/><g><path d="m291 222c0-22.056-17.944-40-40-40s-40 17.944-40 40 17.944 40 40 40 40-17.944 40-40zm-60 0c0-11.028 8.972-20 20-20s20 8.972 20 20-8.972 20-20 20-20-8.972-20-20z" fill="#8aa8bd"/><path d="m471 222c0-22.056-17.944-40-40-40-13.035 0-24.63 6.269-31.937 15.948-11.544-71.316-73.539-125.948-148.063-125.948-82.71 0-150 67.29-150 150 0 48.971 23.592 92.533 60.004 119.927 0 .025-.004.048-.004.073v90h-30c-5.523 0-10 4.477-10 10v60c0 5.523 4.477 10 10 10h240c5.523 0 10-4.477 10-10v-60c0-5.523-4.477-10-10-10h-30v-42.648c48.965-26.401 84.349-73.607 95.865-127.786 19.285-2.846 34.135-19.502 34.135-39.566zm-350 0c0-71.682 58.318-130 130-130s130 58.318 130 130-58.318 130-130 130-130-58.318-130-130zm240 270h-220v-40h220zm-180-60v-77.37c20.91 11.081 44.733 17.37 70 17.37s49.09-6.289 70-17.37v77.37zm160-65.763v-24.237c0-.025-.003-.048-.004-.073 30.325-22.814 51.749-56.846 58.066-95.875 4.515 5.981 10.67 10.654 17.789 13.355-9.934 44.074-37.539 82.827-75.851 106.83zm90-124.237c-11.028 0-20-8.972-20-20s8.972-20 20-20 20 8.972 20 20-8.972 20-20 20z" fill="#8aa8bd"/><g fill="#dae6e6"><path d="m361 60c22.056 0 40 17.944 40 40 0 5.523 4.477 10 10 10s10-4.477 10-10c0-33.084-26.916-60-60-60-5.523 0-10 4.477-10 10s4.477 10 10 10z"/><path d="m361 20c44.112 0 80 35.888 80 80 0 5.523 4.477 10 10 10s10-4.477 10-10c0-55.14-44.86-100-100-100-5.523 0-10 4.477-10 10s4.477 10 10 10z"/><path d="m141 60c5.523 0 10-4.477 10-10s-4.477-10-10-10c-33.084 0-60 26.916-60 60 0 5.523 4.477 10 10 10s10-4.477 10-10c0-22.056 17.944-40 40-40z"/><path d="m141 20c5.523 0 10-4.477 10-10s-4.477-10-10-10c-55.14 0-100 44.86-100 100 0 5.523 4.477 10 10 10s10-4.477 10-10c0-44.112 35.888-80 80-80z"/></g></g></g></svg>