<svg id="Layer_1" enable-background="new 0 0 512 512" height="512" viewBox="0 0 512 512" width="512" xmlns="http://www.w3.org/2000/svg"><g><path d="m396 96v120l46 46 60-60z" fill="#fff"/><path d="m10 202 60 60 46-46v-120z" fill="#fff"/><path d="m116 96h280v360h-280z" fill="#ccf5fc"/><path d="m116 416h280v40h-280z" fill="#99ebfa"/><path d="m306 196h50v60h-50z" fill="#fff"/><path d="m234.787 124.787h42.426v42.426h-42.426z" fill="#ff9eb1" transform="matrix(.707 .707 -.707 .707 178.218 -138.257)"/><path d="m196 56 60 60 60-60z" fill="#99ebfa"/><path d="m196 56 60 60-40 40-60-60" fill="#fff"/><path d="m316 56-60 60 40 40 60-60" fill="#fff"/><path d="m256 336-30-30 30-130 30 130z" fill="#ffbecb"/><g fill="#60a4ff"><path d="m356 186h-50c-5.522 0-10 4.477-10 10v60c0 5.523 4.478 10 10 10h50c5.522 0 10-4.477 10-10v-60c0-5.523-4.478-10-10-10zm-10 60h-30v-40h30z"/><path d="m509.071 194.929-106-106c-.047-.047-.1-.088-.148-.134-.187-.179-.375-.356-.575-.52-.074-.061-.155-.114-.231-.172-.183-.142-.365-.284-.557-.412-.062-.042-.128-.076-.191-.116-.213-.136-.428-.27-.651-.389-.042-.022-.086-.04-.128-.062-.247-.128-.498-.25-.757-.358-.028-.012-.058-.02-.086-.032-.272-.11-.549-.212-.833-.298-.034-.01-.068-.016-.102-.026-.277-.081-.557-.155-.843-.212-.084-.017-.17-.024-.254-.039-.237-.041-.474-.083-.716-.107-.331-.035-.664-.052-.999-.052h-35.857l-37.071-37.071c-.237-.237-.484-.46-.741-.67-.202-.166-.413-.315-.625-.463-.055-.038-.107-.083-.163-.12-.256-.171-.519-.326-.786-.47-.017-.009-.033-.02-.05-.03-.271-.145-.549-.274-.829-.392-.018-.008-.035-.017-.054-.025-.268-.111-.541-.206-.816-.292-.036-.011-.071-.026-.107-.037-.258-.078-.519-.14-.781-.196-.058-.013-.114-.03-.171-.042-.257-.051-.517-.085-.777-.116-.064-.008-.128-.021-.192-.028-.327-.032-.656-.049-.984-.048h-119.99c-.328 0-.657.016-.984.048-.064.006-.126.02-.19.027-.261.031-.521.065-.779.116-.056.011-.111.029-.167.041-.264.057-.526.119-.785.197-.034.01-.067.025-.102.036-.277.087-.551.183-.821.294-.017.007-.033.016-.05.023-.282.119-.561.248-.834.394-.014.007-.026.016-.04.024-.271.146-.537.303-.796.476-.054.036-.103.078-.156.115-.214.149-.427.3-.631.467-.257.21-.504.433-.741.67l-37.073 37.072h-35.857c-.335 0-.668.017-.998.05-.243.024-.481.066-.719.107-.083.015-.168.022-.251.038-.287.057-.568.131-.846.213-.033.01-.067.016-.099.026-.285.087-.562.189-.835.299-.027.011-.056.019-.083.031-.26.108-.512.231-.761.359-.041.021-.084.038-.125.06-.224.12-.439.254-.652.39-.063.04-.129.074-.19.116-.194.13-.377.273-.561.416-.074.058-.153.109-.226.169-.215.177-.419.366-.618.56-.034.033-.071.061-.105.095l-106 106c-3.905 3.905-3.905 10.237 0 14.142l60 60c1.875 1.875 4.419 2.929 7.071 2.929s5.196-1.054 7.071-2.929l28.927-28.928v215.857c0 5.523 4.477 10 10 10h280c5.522 0 10-4.477 10-10v-215.857l28.929 28.929c1.953 1.952 4.511 2.928 7.071 2.928s5.118-.976 7.071-2.929l60-60c3.905-3.905 3.905-10.237 0-14.142zm-123.071 21.076v189.995h-260v-300h25.857l57.071 57.071c1.953 1.953 4.512 2.929 7.071 2.929s5.119-.976 7.071-2.929l2.929-2.929 19.01 19.01-28.754 124.599c-.775 3.359.235 6.881 2.673 9.32l30 30c1.953 1.953 4.512 2.929 7.071 2.929 2.56 0 5.118-.976 7.071-2.929l30-30c2.438-2.438 3.448-5.96 2.673-9.32l-28.753-124.599 19.01-19.01 2.929 2.929c1.953 1.953 4.511 2.929 7.071 2.929s5.118-.976 7.071-2.929l57.071-57.071h25.858v109.995zm-200 209.995v20h-20v-20zm20 0h20v20h-20zm40 0h20v20h-20zm40 0h20v20h-20zm40 0h20v20h-20zm-130-355.858 45.858 45.858-22.924 22.924c-.002.002-.003.003-.005.005s-.003.003-.005.005l-2.924 2.924-45.858-45.858zm145.857 25.858-45.857 45.858-2.925-2.925c-.001-.001-.003-.003-.004-.005s-.003-.003-.005-.004l-22.924-22.924 45.858-45.857zm-85.857 124.472 19.01 82.376-19.01 19.01-19.01-19.01zm0-58.614-15.858-15.858 15.858-15.857 15.857 15.857zm0-60.001-35.858-35.857h71.715zm-186.001 146.001-45.857-45.858 81.858-81.858v91.715zm56.001 178.142h20v20h-20zm240 20v-20h20v20zm76-198.142-36-36v-91.715l81.857 81.857z"/></g></g></svg>