<svg id="Layer_1" enable-background="new 0 0 512 512" height="512" viewBox="0 0 512 512" width="512" xmlns="http://www.w3.org/2000/svg"><g><g><path d="m466 310-40 80-40-80v-260c0-22.091 17.909-40 40-40 22.091 0 40 17.909 40 40z" fill="#ffdfe5"/><path d="m426 10c-22.091 0-40 17.909-40 40v20h80v-20c0-22.091-17.908-40-40-40z" fill="#ff9eb1"/><path d="m386 70h80v40h-80z" fill="#fff"/><g fill="#ffee80"><path d="m406 310c11.046 0 20-8.954 20-20v-180h-40v180c0 11.046 8.955 20 20 20z"/><path d="m426 290c0 11.046 8.954 20 20 20s20-8.954 20-20v-180h-40z"/></g></g><path d="m76 396c-16.569 0-30 13.431-30 30 0 16.569 13.431 30 30 30h260c-13.333-16.569-13.333-43.431 0-60h-230z" fill="#fff"/><path d="m76 396h30v-360h-30c-16.569 0-30 13.431-30 30v360c0-16.569 13.432-30 30-30z" fill="#ff9eb1"/><path d="m106 396h230 10v-360h-240z" fill="#ffbecb"/><path d="m166 96h120v80h-120z" fill="#fff"/><g><g><path d="m286 306h-120c-5.522 0-10-4.477-10-10s4.478-10 10-10h120c5.522 0 10 4.477 10 10s-4.477 10-10 10z" fill="#ffdfe5"/></g><g><path d="m266 346h-80c-5.522 0-10-4.477-10-10s4.478-10 10-10h80c5.522 0 10 4.477 10 10s-4.477 10-10 10z" fill="#ffdfe5"/></g></g><path d="m166 502-30-30-30 30v-66h60z" fill="#ff9eb1"/><g fill="#ff5a58"><path d="m426 0c-27.57 0-50 22.43-50 50v260c0 1.552.361 3.083 1.056 4.472l40 80c1.694 3.388 5.156 5.528 8.944 5.528s7.25-2.14 8.944-5.528l40-80c.694-1.389 1.056-2.92 1.056-4.472v-260c0-27.57-22.429-50-50-50zm-30 100v-20h60v20zm0 190v-170h20v170c0 5.514-4.486 10-10 10s-10-4.486-10-10zm40-170h20v170c0 5.514-4.486 10-10 10s-10-4.486-10-10zm-10-100c16.542 0 30 13.458 30 30v10h-60v-10c0-16.542 13.458-30 30-30zm0 347.639-23.954-47.908c1.295.171 2.613.269 3.954.269 7.678 0 14.688-2.902 20-7.663 5.312 4.761 12.322 7.663 20 7.663 1.341 0 2.659-.097 3.954-.269z"/><path d="m346 26h-270c-22.056 0-40 17.944-40 40v360c0 22.056 17.944 40 40 40h20v36c0 4.044 2.437 7.691 6.173 9.239 3.737 1.548 8.039.692 10.898-2.167l22.929-22.93 22.929 22.929c1.913 1.913 4.471 2.929 7.073 2.929 1.288 0 2.588-.25 3.825-.762 3.736-1.548 6.173-5.194 6.173-9.239v-36h159.997.009.012 9.982c5.522 0 10-4.477 10-10s-4.478-10-10-10h-4.781c-6.918-11.719-6.918-28.281 0-40h4.781c5.522 0 10-4.477 10-10v-359.999c0-5.523-4.477-10-10-10zm-10 360h-220v-340h220zm-280-320c0-11.028 8.972-20 20-20h20v340h-20c-7.28 0-14.113 1.956-20 5.368zm100 411.858-12.929-12.929c-1.953-1.953-4.511-2.929-7.071-2.929s-5.118.976-7.071 2.929l-12.929 12.929v-31.858h40zm163.282-31.858h-143.282v-10c0-5.523-4.478-10-10-10h-60c-5.522 0-10 4.477-10 10v10h-20c-11.028 0-20-8.972-20-20s8.972-20 20-20h243.282c-4.449 12.792-4.449 27.208 0 40z"/></g></g></svg>